<svg width="172" height="53" viewBox="0 0 172 53" fill="none" xmlns="http://www.w3.org/2000/svg">
<path d="M31.5383 31.8801C20.9783 44.3001 10.6583 50.9001 4.77828 49.4001C3.45828 49.1001 2.55828 48.0201 2.13828 46.7001C1.71828 45.3801 1.65828 43.9401 2.07828 42.5601C2.85828 39.8001 4.71828 37.4001 6.69828 35.1801C10.7783 30.7401 15.8783 27.2001 21.0383 23.9601C21.3383 23.7801 21.3383 23.0601 21.2183 22.9401C19.4783 23.4801 11.5583 24.1401 13.7183 19.5201C15.0383 16.5201 17.8583 14.0601 20.4983 11.7801C21.8183 10.5801 23.1983 9.50012 24.6383 8.48012C25.3583 8.00012 26.0783 7.46012 26.8583 7.10012C27.5783 6.74012 28.4783 6.38012 29.0183 6.56012C29.5583 6.62012 29.6183 7.52012 29.5583 8.36012C29.4983 9.20012 29.2583 10.0401 29.0183 10.8801C28.4783 12.5601 27.0383 13.9401 27.0383 15.1401C27.0383 15.9201 27.4583 16.1601 27.6983 16.1001C28.5383 14.4801 29.2583 12.8601 29.8583 11.1201C30.0983 10.2801 30.3983 9.38012 30.5183 8.42012C30.5783 8.00012 30.5783 7.46012 30.4583 6.98012C30.3983 6.44012 29.9783 5.78012 29.3183 5.60012C28.1183 5.30012 27.2183 5.78012 26.3783 6.14012C25.5383 6.56012 24.7583 7.04012 24.0383 7.52012C22.5383 8.54012 21.0983 9.68012 19.7183 10.8201C16.9583 13.1601 14.0783 15.4401 12.3383 18.9801C9.93828 24.6801 15.9383 24.3201 17.3183 24.2001C12.9383 26.9601 8.85828 30.0801 5.31828 33.8601C3.15828 36.2001 1.23828 38.9001 0.458281 42.2001C0.038281 43.8201 0.0982811 45.6201 0.758281 47.1801C1.23828 48.8001 2.67828 50.3601 4.41828 50.6601C13.9583 52.5201 27.2783 37.8801 31.8383 32.1801C31.8983 32.0601 31.8383 32.0001 31.5383 31.8801ZM51.2389 9.86012C51.2389 9.74012 51.1189 9.50012 50.9389 9.38012C50.8189 9.32012 50.6989 9.20012 50.5189 9.14012C49.7989 8.90012 49.2589 9.26012 48.8989 9.56012C48.4789 9.86012 48.1789 10.1601 47.8789 10.5201C47.2789 11.1801 46.7389 11.9601 46.3189 12.6801C44.4589 15.6801 42.9589 18.8601 41.6989 22.0401C40.8589 24.2001 40.0789 26.3601 39.2989 28.5201C38.8189 29.1201 38.3989 29.6601 37.9189 30.2001C37.3789 29.6001 36.5989 29.2401 35.7589 29.2401C34.7389 29.2401 33.7789 29.6601 33.0589 30.1401C31.4989 31.1601 30.0589 32.4801 29.5189 34.4601C29.3989 35.0001 29.2789 35.7201 29.8789 36.3801C30.5989 36.9201 32.2789 36.9201 34.1389 35.3001C36.1189 33.5001 37.6789 32.0001 38.4589 30.9201C38.3389 31.2201 33.9589 50.6001 49.0189 32.0601C49.0189 32.0001 48.8989 31.9401 48.7789 31.8801C34.2589 49.2801 40.3189 29.3601 40.8589 27.9201C42.0589 26.4201 43.1989 24.8601 44.2789 23.3001C46.3189 20.4801 48.2389 17.5401 49.7989 14.4801C50.2189 13.7001 50.5789 12.8601 50.8789 12.0201C51.0589 11.6601 51.1789 11.1801 51.2989 10.7001C51.2989 10.4601 51.3589 10.2201 51.2389 9.86012ZM37.3189 30.9801C36.1189 32.2401 34.0189 34.7001 31.6189 35.5401C31.2589 35.6601 30.5389 36.0201 30.8989 34.8201C31.2589 33.5001 32.4589 32.1201 33.7189 31.2201C34.8589 30.3201 36.7189 29.3601 37.4989 30.6801C37.4389 30.8001 37.3789 30.8601 37.3189 30.9801ZM50.0989 11.7801C49.7989 12.5601 49.4389 13.3401 49.0189 14.0601C47.0389 17.8401 44.6989 21.4401 42.1189 24.8601C42.4189 24.1401 42.7189 23.3601 43.0189 22.6401C44.4589 19.4601 45.7189 16.2801 47.3389 13.3401C47.7589 12.5601 48.1789 11.8401 48.7189 11.1801C49.1389 10.5801 49.9189 9.92012 50.2189 10.0401C50.5789 9.92012 50.3989 11.0601 50.0989 11.7801ZM56.8742 31.9401C53.9942 33.8601 50.3942 35.6601 49.6742 34.5201C49.6142 34.1601 49.7342 33.5601 49.9142 33.0201C50.2742 31.9401 50.5742 31.5801 51.1742 30.5601C51.1742 30.5001 51.1742 30.5001 51.2342 30.4401C51.3542 30.0801 50.6342 28.4001 49.7342 29.9601C49.1342 31.0401 48.8942 31.5801 48.5942 32.9001C48.2342 34.1601 48.5342 35.4801 49.8542 35.6001C51.1142 35.7201 54.0542 34.3401 57.0542 32.1801C57.1742 32.1201 56.9942 31.8801 56.8742 31.9401ZM52.7342 27.4401C52.7942 27.2601 52.6742 26.3601 52.2542 26.7801C51.7742 27.2001 50.9342 27.6201 50.8142 27.8601C50.6342 28.3401 52.6142 28.0401 52.7342 27.4401ZM76.9573 17.0001C73.4173 17.3001 69.9373 17.7801 66.4573 18.4401H66.3973C67.1173 17.4201 67.7773 16.2801 68.5573 15.2601C69.0973 14.4801 69.6373 13.6401 70.0573 12.7401C70.2973 12.3201 70.4773 11.9001 70.6573 11.4201C70.7173 11.1201 70.8373 10.8801 70.8373 10.5801C70.8373 10.4601 70.8373 10.2801 70.7773 10.0401C70.7173 9.74012 70.1773 9.56012 69.9973 9.68012C69.2773 9.98012 69.0373 10.3401 68.6773 10.7001C68.3773 11.1201 68.0773 11.4801 67.7773 11.9001C67.2373 12.6801 66.6973 13.5201 66.2173 14.3001C65.3173 15.8601 64.4773 17.4801 63.6373 19.0401C62.8573 19.1601 62.0773 19.3401 61.2973 19.5201C59.5573 19.9401 57.8773 20.2401 56.1373 21.2001C55.9573 21.2601 56.3773 21.9801 56.5573 21.8601L56.6173 21.8001C57.9973 21.0801 59.7973 20.6601 61.4773 20.1801C62.0173 20.0601 62.6173 19.9401 63.2173 19.7601C58.2973 28.3401 52.1173 40.4001 55.0573 44.5401C55.5373 45.2001 56.3173 45.0201 56.8573 44.9001C60.8173 44.0001 70.1773 35.2401 72.4573 32.1801C72.5173 32.0601 72.2173 31.8801 72.1573 31.9401C64.9573 40.1001 56.6773 45.6201 55.7773 43.7601C54.5773 40.8801 57.9373 33.1401 60.8773 27.2601C62.3173 24.8001 63.8173 22.4001 65.3773 20.0001C65.4973 19.7001 65.7373 19.4601 65.9173 19.1601C66.0973 19.1001 66.3373 19.0401 66.5773 19.0401C69.9973 18.3801 73.4773 17.8401 76.9573 17.5401C77.1373 17.4801 77.2573 17.3601 77.2573 17.2401C77.1973 17.1201 77.0773 17.0001 76.9573 17.0001ZM64.7773 19.5801C64.3573 20.1801 63.9973 20.8401 63.6373 21.4401C63.8773 20.9001 64.1173 20.3601 64.3573 19.8201C64.4173 19.7001 64.4773 19.5801 64.5373 19.4601C64.6573 19.4601 64.7773 19.4001 64.8973 19.4001C64.8373 19.4601 64.7773 19.5201 64.7773 19.5801ZM65.3773 18.6801C65.2573 18.6801 65.0773 18.7401 64.9573 18.7401C65.6173 17.4201 66.2773 16.0401 66.9973 14.7801C67.4773 13.9401 67.9573 13.1601 68.4973 12.3801C68.7373 11.9601 69.0373 11.6001 69.3373 11.2401C69.5173 11.0001 69.8173 10.7601 69.9973 10.5801C69.9973 10.7601 69.9373 10.9401 69.8773 11.1201C69.7573 11.5401 69.5773 12.0201 69.3373 12.3801C68.9173 13.2201 68.4373 14.0601 67.8973 14.8401C67.0573 16.1001 66.2173 17.3601 65.3773 18.6801ZM81.6903 31.9401C80.2503 33.0201 78.8703 33.5601 77.1303 33.2601C77.1303 33.2601 77.9703 31.8801 77.1303 31.0401C77.7903 28.5801 72.8703 29.3001 71.7303 32.0001C70.1703 35.6601 74.3103 36.6201 76.8903 33.6801C78.9303 33.9801 80.0703 33.4401 81.9303 32.1201C81.9903 32.0601 81.8703 31.8201 81.6903 31.9401ZM72.6903 33.2601C72.8703 32.0001 74.2503 30.6801 75.3303 30.2601C75.8103 30.0801 77.0703 29.9601 76.7103 31.0401C75.5703 31.2201 75.2703 32.6001 76.2903 33.3801C75.3303 34.8201 72.4503 35.8401 72.6903 33.2601ZM76.5303 32.9601C75.8703 32.6001 76.1703 31.2201 76.9503 31.4601C77.1903 31.5201 76.9503 32.4201 76.5303 32.9601ZM93.298 31.8801C88.498 35.0001 84.418 36.1401 85.918 33.6201C86.878 32.0601 86.578 31.4001 83.698 30.8001C83.818 30.6201 85.318 29.0001 84.838 27.9801C84.718 27.6801 84.358 27.5601 83.938 27.6801C83.098 27.9201 82.258 28.9401 81.958 29.4801C81.898 29.6601 81.658 30.2001 81.718 30.6201C81.838 31.1601 82.378 31.2801 82.678 31.3401C82.738 31.4601 82.858 31.5201 82.978 31.5201C83.158 31.4601 83.158 31.4001 83.278 31.3401C85.438 31.7001 85.258 32.3001 84.958 32.9001C84.478 33.8001 84.178 34.4601 84.238 34.9401C84.538 37.6401 91.438 33.4401 93.418 32.1201H93.478C93.538 32.0601 93.358 31.8201 93.298 31.8801ZM82.858 30.6801C82.078 30.6801 83.938 28.2201 84.298 28.4601C84.718 28.6401 83.578 30.2601 82.858 30.6801ZM97.5069 11.7801C97.3869 11.6001 96.7269 10.8801 96.6069 11.5401C96.4269 12.2001 95.8269 13.5201 95.9469 13.8201C96.0669 14.3601 97.7469 12.4401 97.5069 11.7801ZM105.987 31.8801C103.707 32.7201 101.427 33.6801 99.267 34.8801V34.8201C99.327 34.0401 99.327 33.2001 99.327 32.4201C99.387 31.4601 99.387 30.5001 99.507 29.6001C100.587 29.0001 101.547 28.2201 102.147 27.1401C102.747 26.1201 102.627 24.8601 100.887 25.6401C99.807 26.1201 98.307 27.5001 98.127 29.8401C98.067 29.8401 98.007 29.9001 97.947 29.9001C97.887 29.9601 97.827 30.0201 97.827 30.1401C97.887 30.2001 97.947 30.2601 98.067 30.2601C98.067 30.2001 98.067 30.2001 98.067 30.2001C97.947 30.9201 97.827 34.6401 97.827 35.7201C97.467 35.9601 97.107 36.2001 96.807 36.4401C96.087 36.9201 95.427 37.4601 94.887 38.1801C94.647 38.5401 94.407 38.9601 94.407 39.5001C94.347 39.9801 94.647 40.5201 95.187 40.7601C96.267 41.1801 97.347 40.5801 98.007 39.8601C98.607 39.1401 98.907 38.2401 99.147 37.4001C99.267 36.6801 99.267 36.0201 99.267 35.3601C101.487 34.1001 103.767 33.0801 106.107 32.1201C106.167 32.0601 106.107 31.8201 105.987 31.8801ZM99.927 27.8001C100.287 26.6601 102.867 24.6201 101.787 26.9601C101.307 27.9201 100.527 28.7001 99.567 29.2401C99.627 28.7601 99.747 28.2801 99.927 27.8001ZM97.827 37.2201C97.707 37.9401 97.527 38.7201 97.167 39.2601C96.807 39.8601 96.087 40.3401 95.487 40.1601C94.887 39.9801 94.887 39.0801 95.307 38.4201C95.727 37.7601 96.327 37.2201 97.047 36.7401C97.287 36.5601 97.587 36.3801 97.827 36.2601C97.827 36.5601 97.827 36.9201 97.827 37.2201ZM135.133 6.62012C133.633 7.04012 132.133 7.64012 130.693 8.24012C131.773 6.32012 132.913 4.46012 134.053 2.54012C134.353 2.00012 132.553 0.980121 132.253 1.52012C130.693 4.22012 129.193 6.92012 127.753 9.68012C124.873 11.1801 122.113 12.9201 119.473 14.8401C119.233 15.0201 120.313 15.6201 120.553 15.4401C122.773 13.8201 124.573 12.5001 126.973 11.1801C123.673 17.4201 120.553 23.7801 117.792 30.3201C117.313 30.4401 116.893 30.5601 116.413 30.6201C115.993 30.7401 116.293 32.0001 116.713 31.9401C116.833 31.8801 116.953 31.8801 117.073 31.8201C114.492 38.1201 112.212 44.7201 110.412 51.2601C110.292 51.5001 111.492 51.2601 111.612 50.9601C113.592 44.1801 115.993 38.0001 118.813 31.5201C123.732 30.5601 128.833 28.8201 133.633 26.6601C136.333 25.4001 138.913 23.8401 141.313 21.9801C151.573 13.9401 148.633 3.56012 135.133 6.62012ZM145.273 14.5401C144.193 16.9401 142.333 19.1001 140.113 20.8401C137.893 22.6401 135.433 24.0801 132.853 25.3401C128.653 27.3201 124.153 28.7601 119.593 29.9001C122.713 23.0001 126.253 16.2201 129.973 9.56012C131.713 8.72012 133.513 7.94012 135.373 7.64012C138.133 7.04012 141.193 6.86012 143.533 8.12012C144.613 8.66012 145.453 9.62012 145.753 10.8201C145.993 11.9601 145.812 13.2801 145.273 14.5401ZM146.581 31.9401C143.701 33.8601 140.101 35.6601 139.381 34.5201C139.321 34.1601 139.441 33.5601 139.621 33.0201C139.981 31.9401 140.281 31.5801 140.881 30.5601C140.881 30.5001 140.881 30.5001 140.941 30.4401C141.061 30.0801 140.341 28.4001 139.441 29.9601C138.841 31.0401 138.601 31.5801 138.301 32.9001C137.941 34.1601 138.241 35.4801 139.561 35.6001C140.821 35.7201 143.761 34.3401 146.761 32.1801C146.881 32.1201 146.701 31.8801 146.581 31.9401ZM142.441 27.4401C142.501 27.2601 142.381 26.3601 141.961 26.7801C141.481 27.2001 140.641 27.6201 140.521 27.8601C140.341 28.3401 142.321 28.0401 142.441 27.4401ZM156.644 31.8201C154.604 33.3201 152.204 34.4001 150.164 35.0601C146.504 36.2001 146.684 31.7601 149.864 29.4801C150.224 29.3001 150.644 29.1801 151.004 29.3601C151.304 29.4801 151.484 29.9601 151.424 30.3801C151.424 30.5001 151.424 30.6201 151.424 30.7401C151.424 30.7401 151.484 31.0401 151.724 30.9801C151.724 30.9801 152.144 29.6001 152.324 29.2401V29.1801C152.384 29.1801 152.384 29.1801 152.384 29.1201C152.444 28.9401 152.024 28.9401 151.964 29.0601L151.724 29.5401C151.604 29.3001 151.484 29.1201 151.244 28.9401C150.704 28.5801 148.064 28.5801 146.264 32.1801C145.004 34.7001 146.864 36.6201 150.284 35.5401C152.624 34.7601 154.904 33.5001 156.884 32.0601C156.944 32.0001 156.764 31.7001 156.644 31.8201ZM170.927 31.8801C163.427 38.4201 161.687 36.6801 160.307 33.6801C166.247 30.7401 165.527 28.5801 163.307 29.1201C161.147 29.6601 159.047 31.1601 157.607 33.3201C158.207 31.4601 158.447 31.0401 158.987 29.4201C162.407 24.9801 167.207 18.6201 169.067 13.8201C170.327 10.5201 169.487 9.38012 167.327 10.9401C161.507 16.3401 156.407 32.6001 155.627 35.1801C155.207 36.5001 154.247 40.1601 154.247 40.1601C154.247 40.1601 154.187 40.7601 154.247 40.8201C154.247 40.9401 154.967 41.0001 155.027 40.8201C156.707 35.1201 159.227 31.8201 161.987 30.3201C162.467 30.0801 163.067 29.7801 163.487 29.7801C164.747 29.6001 161.627 32.3001 159.107 33.1401C158.387 33.5601 159.167 35.0001 159.587 35.6601C161.387 38.4801 164.687 38.1201 171.167 32.1201C171.287 32.0001 171.047 31.8201 170.927 31.8801ZM167.147 12.5601C168.887 10.2801 169.547 10.7601 168.467 13.4601C167.087 16.7001 165.347 19.8801 159.527 27.3201C161.687 21.5601 163.967 16.7601 167.147 12.5601Z" fill="black"/>
</svg>
