<svg width="417" height="111" viewBox="0 0 417 111" fill="none" xmlns="http://www.w3.org/2000/svg">
<path d="M81.576 25.8561C80.168 28.5441 83.752 29.9521 84.264 27.1361C85.672 20.8641 86.952 17.0241 90.024 9.34412C90.664 8.32012 88.104 7.68012 87.464 9.08812C86.952 11.7761 86.184 14.2081 85.16 16.3841C85.032 14.2081 84.648 11.9041 83.496 9.72812C82.088 6.91212 79.4 4.60812 76.456 3.45612C73.512 2.17612 70.44 1.79212 67.24 1.79212C55.08 2.17612 42.408 8.70412 37.16 20.2241C31.784 32.3841 35.496 40.9601 42.664 55.2961C45.352 60.6721 49.832 69.6321 50.344 70.9121C0.039999 98.8161 16.808 109.952 33.96 105.856C61.736 99.0721 59.048 81.0241 54.184 70.6561C60.072 67.7121 69.672 63.8721 69.672 63.8721C69.672 63.8721 70.184 62.5921 69.416 63.1041C64.04 64.6401 53.8 69.5041 53.8 69.5041C53.8 69.5041 49.192 60.2881 45.992 53.6321C43.432 48.2561 33.96 33.4081 39.976 21.5041C45.096 11.5201 56.104 4.73612 67.368 4.22412C72.872 3.96812 79.016 5.88812 81.576 10.7521C84.136 15.7441 81.576 25.8561 81.576 25.8561ZM18.856 97.6641C20.648 90.4961 36.776 79.4881 50.856 72.3201C66.856 105.728 15.912 110.592 18.856 97.6641ZM90.89 63.8721C84.746 67.9681 77.066 71.8081 75.53 69.3761C75.402 68.6081 75.658 67.3281 76.042 66.1761C76.81 63.8721 77.45 63.1041 78.73 60.9281C78.73 60.8001 78.73 60.8001 78.858 60.6721C79.114 59.9041 77.578 56.3201 75.658 59.6481C74.378 61.9521 73.866 63.1041 73.226 65.9201C72.458 68.6081 73.098 71.4241 75.914 71.6801C78.602 71.9361 84.874 68.9921 91.274 64.3841C91.53 64.2561 91.146 63.7441 90.89 63.8721ZM82.058 54.2721C82.186 53.8881 81.93 51.9681 81.034 52.8641C80.01 53.7601 78.218 54.6561 77.962 55.1681C77.578 56.1921 81.802 55.5521 82.058 54.2721ZM136.038 63.7441C121.702 74.8801 121.446 71.6801 119.91 65.1521C119.27 61.9521 115.43 59.3921 108.646 65.5361C111.718 57.8561 108.774 56.1921 106.47 56.9601C102.63 58.1121 96.102 64.5121 93.286 67.3281C92.262 66.6881 95.974 60.6721 96.998 58.2401C97.382 57.7281 95.59 56.3201 94.054 57.9841C91.11 60.8001 88.806 69.3761 89.318 70.6561C89.83 72.0641 91.238 71.6801 91.238 71.6801C94.054 68.0961 99.302 62.9761 104.166 60.0321C108.006 57.7281 108.262 59.1361 104.55 68.4801C104.166 69.6321 106.726 69.7601 106.726 69.7601C113.638 60.8001 116.582 62.7201 117.222 66.5601C118.886 75.5201 124.518 73.9841 136.55 64.2561C136.678 64.1281 136.294 63.6161 136.038 63.7441ZM153.14 63.8721C146.996 67.9681 139.316 71.8081 137.78 69.3761C137.652 68.6081 137.908 67.3281 138.292 66.1761C139.06 63.8721 139.7 63.1041 140.98 60.9281C140.98 60.8001 140.98 60.8001 141.108 60.6721C141.364 59.9041 139.828 56.3201 137.908 59.6481C136.628 61.9521 136.116 63.1041 135.476 65.9201C134.708 68.6081 135.348 71.4241 138.164 71.6801C140.852 71.9361 147.124 68.9921 153.524 64.3841C153.78 64.2561 153.396 63.7441 153.14 63.8721ZM144.308 54.2721C144.436 53.8881 144.18 51.9681 143.284 52.8641C142.26 53.7601 140.468 54.6561 140.212 55.1681C139.828 56.1921 144.052 55.5521 144.308 54.2721ZM183.979 64.3841C184.107 64.2561 183.595 63.7441 183.467 63.8721C157.483 89.7281 150.827 83.0721 155.691 63.7441C174.507 39.9361 183.979 25.7281 185.259 17.7921C185.643 14.9761 182.315 12.2881 175.659 19.5841C170.283 25.3441 166.059 32.1281 162.347 39.1681C158.635 46.2081 155.435 53.6321 153.259 61.3121C147.115 83.2001 154.667 95.1041 183.979 64.3841ZM176.811 20.7361C178.347 18.8161 180.011 17.2801 180.779 16.7681C182.187 15.8721 184.107 15.8721 183.851 17.5361C182.315 26.8801 166.827 47.2321 156.331 60.5441C160.683 44.1601 172.075 26.7521 176.811 20.7361ZM212.541 63.7441C198.461 72.3201 193.597 72.7041 199.101 60.0321C199.101 59.6481 198.077 58.8801 197.821 58.6241C197.437 58.3681 196.797 58.3681 196.541 58.8801C196.285 59.1361 196.029 59.3921 195.773 59.6481C192.701 57.8561 188.605 59.5201 185.917 61.5681C184.509 62.5921 183.229 63.8721 182.077 65.2801C181.565 66.0481 181.053 66.6881 180.541 67.5841C179.133 71.0401 180.925 72.1921 183.485 71.2961C185.405 70.6561 188.989 67.8401 190.269 66.8161C191.933 65.2801 193.597 63.8721 195.261 62.3361C190.909 72.5761 195.389 75.2641 212.925 64.3841C213.053 64.2561 212.797 63.6161 212.541 63.7441ZM189.373 65.6641C188.093 66.6881 186.813 67.5841 185.405 68.4801C184.765 68.8641 183.997 69.2481 183.357 69.3761C183.229 69.3761 183.229 69.3761 183.229 69.3761C183.229 69.2481 183.357 68.9921 183.485 68.8641C183.741 68.2241 184.125 67.5841 184.509 66.9441C185.405 65.7921 186.429 64.5121 187.581 63.4881C189.629 61.5681 192.317 59.9041 195.133 60.2881C193.341 62.2081 191.421 64.0001 189.373 65.6641ZM236.469 63.7441C226.229 70.4001 217.525 72.8321 220.725 67.4561C222.773 64.1281 222.133 62.7201 215.989 61.4401C216.245 61.0561 219.445 57.6001 218.421 55.4241C218.165 54.7841 217.397 54.5281 216.501 54.7841C214.709 55.2961 212.917 57.4721 212.277 58.6241C212.149 59.0081 211.637 60.1601 211.765 61.0561C212.021 62.2081 213.173 62.4641 213.813 62.5921C213.941 62.8481 214.197 62.9761 214.453 62.9761C214.837 62.8481 214.837 62.7201 215.093 62.5921C219.701 63.3601 219.317 64.6401 218.677 65.9201C217.653 67.8401 217.013 69.2481 217.141 70.2721C217.781 76.0321 232.501 67.0721 236.725 64.2561H236.853C236.981 64.1281 236.597 63.6161 236.469 63.7441ZM214.197 61.1841C212.533 61.1841 216.501 55.9361 217.269 56.4481C218.165 56.8321 215.733 60.2881 214.197 61.1841ZM321.503 1.28012C312.031 18.1761 302.047 34.8161 291.807 51.3281C281.439 67.7121 271.071 84.2241 258.783 98.9441C257.247 100.736 255.583 102.528 253.919 103.936C253.023 104.576 251.999 105.344 251.487 105.344C251.231 105.344 251.487 105.472 251.231 105.344C251.103 105.216 250.975 104.832 250.847 104.32C250.079 100.224 250.975 95.2321 251.743 90.4961C253.407 81.0241 255.711 71.6801 258.271 62.3361C263.135 43.6481 269.023 25.0881 274.655 6.65612C275.039 5.76012 271.711 4.60812 271.455 5.50412C265.183 23.9361 259.679 42.6241 254.687 61.4401C252.255 70.7841 249.951 80.2561 248.415 89.9841C247.775 94.8481 246.751 99.5841 247.775 105.088C248.031 105.856 248.287 106.624 248.927 107.392C249.439 108.16 251.103 108.672 251.999 108.416C253.791 108.032 254.815 107.136 255.839 106.24C257.759 104.576 259.423 102.784 260.959 100.864C273.375 85.6321 283.359 68.9921 293.727 52.4801C304.095 36.0961 313.951 19.3281 323.935 2.68812C323.935 2.68812 323.935 2.68812 323.935 2.56012C324.319 1.92012 321.887 0.640118 321.503 1.28012ZM319.14 63.8721C312.996 67.9681 305.316 71.8081 303.78 69.3761C303.652 68.6081 303.908 67.3281 304.292 66.1761C305.06 63.8721 305.7 63.1041 306.98 60.9281C306.98 60.8001 306.98 60.8001 307.108 60.6721C307.364 59.9041 305.828 56.3201 303.908 59.6481C302.628 61.9521 302.116 63.1041 301.476 65.9201C300.708 68.6081 301.348 71.4241 304.164 71.6801C306.852 71.9361 313.124 68.9921 319.524 64.3841C319.78 64.2561 319.396 63.7441 319.14 63.8721ZM310.308 54.2721C310.436 53.8881 310.18 51.9681 309.284 52.8641C308.26 53.7601 306.468 54.6561 306.212 55.1681C305.828 56.1921 310.052 55.5521 310.308 54.2721ZM362.368 16.7681C362.368 16.5121 362.112 16.0001 361.728 15.7441C361.472 15.6161 361.216 15.3601 360.832 15.2321C359.296 14.7201 358.144 15.4881 357.376 16.1281C356.48 16.7681 355.84 17.4081 355.2 18.1761C353.92 19.5841 352.768 21.2481 351.872 22.7841C347.904 29.1841 344.704 35.9681 342.016 42.7521C340.224 47.3601 338.56 51.9681 336.896 56.5761C335.872 57.8561 334.976 59.0081 333.952 60.1601C332.8 58.8801 331.136 58.1121 329.344 58.1121C327.168 58.1121 325.12 59.0081 323.584 60.0321C320.256 62.2081 317.184 65.0241 316.032 69.2481C315.776 70.4001 315.52 71.9361 316.8 73.3441C318.336 74.4961 321.92 74.4961 325.888 71.0401C330.112 67.2001 333.44 64.0001 335.104 61.6961C334.848 62.3361 325.504 103.68 357.632 64.1281C357.632 64.0001 357.376 63.8721 357.12 63.7441C326.144 100.864 339.072 58.3681 340.224 55.2961C342.784 52.0961 345.216 48.7681 347.52 45.4401C351.872 39.4241 355.968 33.1521 359.296 26.6241C360.192 24.9601 360.96 23.1681 361.6 21.3761C361.984 20.6081 362.24 19.5841 362.496 18.5601C362.496 18.0481 362.624 17.5361 362.368 16.7681ZM332.672 61.8241C330.112 64.5121 325.632 69.7601 320.512 71.5521C319.744 71.8081 318.208 72.5761 318.976 70.0161C319.744 67.2001 322.304 64.2561 324.992 62.3361C327.424 60.4161 331.392 58.3681 333.056 61.1841C332.928 61.4401 332.8 61.5681 332.672 61.8241ZM359.936 20.8641C359.296 22.5281 358.528 24.1921 357.632 25.7281C353.408 33.7921 348.416 41.4721 342.912 48.7681C343.552 47.2321 344.192 45.5681 344.832 44.0321C347.904 37.2481 350.592 30.4641 354.048 24.1921C354.944 22.5281 355.84 20.9921 356.992 19.5841C357.888 18.3041 359.552 16.8961 360.192 17.1521C360.96 16.8961 360.576 19.3281 359.936 20.8641ZM377.846 63.1041C369.91 69.3761 354.678 74.3681 358.006 66.8161C360.822 66.1761 363.254 65.4081 365.558 63.6161C369.91 60.2881 366.582 58.7521 365.942 58.6241C365.302 58.3681 364.662 58.3681 364.022 58.3681C362.614 58.6241 361.462 59.1361 360.438 59.6481C358.39 60.9281 356.854 62.7201 355.574 64.6401C352.118 71.1681 356.598 72.3201 358.262 72.4481C362.23 72.5761 369.142 70.4001 378.358 63.6161C378.486 63.4881 377.974 62.9761 377.846 63.1041ZM361.974 61.8241C362.742 61.1841 363.51 60.6721 364.278 60.4161C365.814 59.9041 367.478 60.2881 364.662 62.5921C363.894 63.3601 361.59 64.7681 358.646 65.5361C359.67 64.2561 360.822 62.9761 361.974 61.8241ZM397.456 63.8721C394.384 66.1761 391.44 67.3281 387.728 66.6881C387.728 66.6881 389.52 63.7441 387.728 61.9521C389.136 56.7041 378.64 58.2401 376.208 64.0001C372.88 71.8081 381.712 73.8561 387.216 67.5841C391.568 68.2241 394 67.0721 397.968 64.2561C398.096 64.1281 397.84 63.6161 397.456 63.8721ZM378.256 66.6881C378.64 64.0001 381.584 61.1841 383.888 60.2881C384.912 59.9041 387.6 59.6481 386.832 61.9521C384.4 62.3361 383.76 65.2801 385.936 66.9441C383.888 70.0161 377.744 72.1921 378.256 66.6881ZM386.448 66.0481C385.04 65.2801 385.68 62.3361 387.344 62.8481C387.856 62.9761 387.344 64.8961 386.448 66.0481ZM415.789 63.7441C410.925 65.5361 406.061 67.5841 401.453 70.1441V70.0161C401.581 68.3521 401.581 66.5601 401.581 64.8961C401.709 62.8481 401.709 60.8001 401.965 58.8801C404.269 57.6001 406.317 55.9361 407.597 53.6321C408.877 51.4561 408.621 48.7681 404.909 50.4321C402.605 51.4561 399.405 54.4001 399.021 59.3921C398.893 59.3921 398.765 59.5201 398.637 59.5201C398.509 59.6481 398.381 59.7761 398.381 60.0321C398.509 60.1601 398.637 60.2881 398.893 60.2881C398.893 60.1601 398.893 60.1601 398.893 60.1601C398.637 61.6961 398.381 69.6321 398.381 71.9361C397.613 72.4481 396.845 72.9601 396.205 73.4721C394.669 74.4961 393.261 75.6481 392.109 77.1841C391.597 77.9521 391.085 78.8481 391.085 80.0001C390.957 81.0241 391.597 82.1761 392.749 82.6881C395.053 83.5841 397.357 82.3041 398.765 80.7681C400.045 79.2321 400.685 77.3121 401.197 75.5201C401.453 73.9841 401.453 72.5761 401.453 71.1681C406.189 68.4801 411.053 66.3041 416.045 64.2561C416.173 64.1281 416.045 63.6161 415.789 63.7441ZM402.861 55.0401C403.629 52.6081 409.133 48.2561 406.829 53.2481C405.805 55.2961 404.141 56.9601 402.093 58.1121C402.221 57.0881 402.477 56.0641 402.861 55.0401ZM398.381 75.1361C398.125 76.6721 397.741 78.3361 396.973 79.4881C396.205 80.7681 394.669 81.7921 393.389 81.4081C392.109 81.0241 392.109 79.1041 393.005 77.6961C393.901 76.2881 395.181 75.1361 396.717 74.1121C397.229 73.7281 397.869 73.3441 398.381 73.0881C398.381 73.7281 398.381 74.4961 398.381 75.1361Z" fill="black"/>
</svg>
