<svg width="23" height="23" viewBox="0 0 23 23" fill="none" xmlns="http://www.w3.org/2000/svg">
<path d="M15.343 18.6161L8.34005 11.6162L15.343 4.61633C15.4684 4.49126 15.5386 4.32337 15.5386 4.14855C15.5386 3.97372 15.4684 3.80583 15.343 3.68077C15.2821 3.62021 15.2095 3.5721 15.1292 3.53926C15.049 3.50642 14.9629 3.4895 14.8759 3.4895C14.7889 3.4895 14.7027 3.50642 14.6225 3.53926C14.5423 3.5721 14.4696 3.62021 14.4087 3.68077L6.95727 11.1274C6.82645 11.2582 6.75323 11.4336 6.75323 11.6162C6.75323 11.7988 6.82645 11.9742 6.95727 12.105L14.4073 19.5517C14.4682 19.6127 14.5411 19.6611 14.6216 19.6942C14.7021 19.7273 14.7885 19.7444 14.8759 19.7444C14.9632 19.7444 15.0497 19.7273 15.1302 19.6942C15.2107 19.6611 15.2835 19.6127 15.3445 19.5517C15.4698 19.4266 15.54 19.2587 15.54 19.0839C15.54 18.9091 15.4699 18.7412 15.3445 18.6161L15.343 18.6161Z" fill="black"/>
</svg>
