<svg width="1440" height="41" viewBox="0 0 1440 41" fill="none" xmlns="http://www.w3.org/2000/svg">
<path d="M399.352 32.4072L386.867 19.5998L399.352 6.79247C399.575 6.56365 399.701 6.25647 399.701 5.9366C399.701 5.61673 399.575 5.30955 399.352 5.08073C399.243 4.96993 399.114 4.88191 398.971 4.82182C398.828 4.76173 398.674 4.73077 398.519 4.73077C398.364 4.73077 398.21 4.76173 398.067 4.82182C397.924 4.88191 397.795 4.96993 397.686 5.08073L384.402 18.7055C384.169 18.9448 384.039 19.2657 384.039 19.5998C384.039 19.934 384.169 20.2549 384.402 20.4942L397.684 34.119C397.792 34.2306 397.922 34.3192 398.066 34.3798C398.209 34.4403 398.363 34.4715 398.519 34.4715C398.675 34.4715 398.829 34.4403 398.972 34.3798C399.116 34.3192 399.246 34.2306 399.354 34.119C399.578 33.8901 399.703 33.583 399.703 33.2631C399.703 32.9432 399.578 32.636 399.354 32.4072L399.352 32.4072Z" fill="black"/>
<line x1="386" y1="20.15" x2="539" y2="20.15" stroke="black" stroke-width="1.7"/>
<path d="M1060.26 8.59278L1072.75 21.4002L1060.26 34.2075C1060.04 34.4364 1059.91 34.7435 1059.91 35.0634C1059.91 35.3833 1060.04 35.6904 1060.26 35.9193C1060.37 36.0301 1060.5 36.1181 1060.64 36.1782C1060.79 36.2383 1060.94 36.2692 1061.1 36.2692C1061.25 36.2692 1061.4 36.2383 1061.55 36.1782C1061.69 36.1181 1061.82 36.0301 1061.93 35.9193L1075.21 22.2945C1075.45 22.0552 1075.58 21.7343 1075.58 21.4002C1075.58 21.066 1075.45 20.7451 1075.21 20.5058L1061.93 6.88103C1061.82 6.76945 1061.69 6.68076 1061.55 6.62021C1061.41 6.55965 1061.25 6.52845 1061.1 6.52845C1060.94 6.52845 1060.79 6.55965 1060.64 6.62021C1060.5 6.68076 1060.37 6.76945 1060.26 6.88103C1060.04 7.10985 1059.91 7.41703 1059.91 7.7369C1059.91 8.05677 1060.04 8.36395 1060.26 8.59278L1060.26 8.59278Z" fill="black"/>
<line x1="1074" y1="21.35" x2="921" y2="21.35" stroke="black" stroke-width="1.7"/>
<path d="M578.122 28.7979H576.153V14.6035L572.146 17.0117L572.251 17.1699L574.343 15.9307V28.7979H572.339V29H578.122V28.7979ZM601.461 14.8145H601.725C602.27 14.8145 602.727 14.9199 603.105 15.1221C603.483 15.3242 603.764 15.6055 603.949 15.957C604.133 16.3086 604.265 16.6602 604.335 17.0029C604.406 17.3457 604.441 17.7236 604.441 18.1367C604.441 18.6025 604.397 19.0684 604.309 19.5254C604.221 19.9824 604.116 20.4043 604.001 20.7822C603.887 21.1602 603.694 21.5732 603.421 22.0303C603.149 22.4873 602.92 22.874 602.727 23.1904C602.534 23.5068 602.226 23.9023 601.804 24.377C601.382 24.8516 601.057 25.2207 600.82 25.4844C600.582 25.748 600.196 26.1436 599.651 26.6621C599.106 27.1807 598.702 27.5586 598.447 27.7959C598.192 28.0332 597.744 28.4375 597.102 29.0088H606.392V28.9912L606.374 25.5723H606.19V25.5898C606.19 25.7217 606.181 25.8447 606.172 25.959C606.164 26.0732 606.102 26.249 605.997 26.4775C605.891 26.7061 605.75 26.8994 605.566 27.0488C605.381 27.1982 605.091 27.3389 604.696 27.4619C604.3 27.585 603.834 27.6465 603.298 27.6465H598.921C599.334 27.2861 599.871 26.8203 600.539 26.249C601.206 25.6777 601.699 25.2559 602.015 24.9746C602.331 24.6934 602.727 24.3242 603.21 23.876C603.694 23.4277 604.045 23.0674 604.265 22.8037C604.485 22.54 604.74 22.2148 605.03 21.8281C605.32 21.4414 605.531 21.0898 605.654 20.7646C605.777 20.4395 605.882 20.0791 605.97 19.6836C606.058 19.2881 606.102 18.8838 606.102 18.4619C606.102 17.416 605.706 16.5195 604.907 15.7725C604.107 15.0254 603.122 14.6475 601.945 14.6475C600.829 14.6475 599.871 14.9727 599.071 15.623C598.271 16.2734 597.867 16.9941 597.867 17.7852C597.867 17.8643 597.875 17.9873 597.902 18.1543C597.963 18.3828 598.086 18.5762 598.262 18.7256C598.438 18.875 598.649 18.9541 598.886 18.9541C599.159 18.9541 599.396 18.8486 599.598 18.6465C599.8 18.4443 599.897 18.207 599.897 17.9346C599.897 17.6445 599.8 17.4072 599.598 17.2139C599.396 17.0205 599.159 16.9238 598.886 16.9238C598.772 16.9238 598.666 16.9414 598.561 16.9766C598.517 17.0029 598.473 17.0029 598.429 16.9678C598.385 16.9326 598.368 16.8975 598.368 16.8535C598.368 16.5811 598.658 16.2031 599.238 15.7285C599.818 15.2539 600.539 14.9727 601.4 14.876L601.461 14.8145ZM642.34 13.7729C644.322 13.4141 645.843 12.645 646.903 11.4487C647.962 10.2524 648.492 8.90234 648.492 7.41553C648.492 5.72363 647.826 4.23682 646.51 2.95508C645.194 1.67334 643.399 1.04102 641.126 1.04102C639.058 1.04102 637.213 1.58789 635.606 2.66455C634 3.74121 633.197 4.95459 633.197 6.2876C633.197 6.54395 633.214 6.74902 633.231 6.88574C633.316 7.2959 633.538 7.65479 633.897 7.94531C634.256 8.23584 634.649 8.38965 635.094 8.38965C635.606 8.38965 636.034 8.20166 636.392 7.82568C636.751 7.44971 636.922 7.00537 636.922 6.49268C636.922 5.97998 636.734 5.55273 636.375 5.19385C636.016 4.83496 635.572 4.66406 635.059 4.66406C635.042 4.66406 634.974 4.66406 634.871 4.68115C634.769 4.69824 634.683 4.69824 634.632 4.69824C634.581 4.69824 634.53 4.68115 634.478 4.64697C634.427 4.61279 634.41 4.54443 634.41 4.45898C634.41 4.271 634.53 4.04883 634.752 3.79248C635.572 3.02344 636.529 2.45947 637.64 2.0835C638.751 1.70752 639.81 1.50244 640.819 1.45117C642.34 1.46826 643.502 2.04932 644.322 3.19434C645.142 4.33936 645.553 5.70654 645.553 7.2959C645.553 9.00488 645.108 10.4917 644.237 11.7563C643.365 13.021 642.169 13.6533 640.648 13.6533H637.572V14.0293H640.067C642.135 14.0293 643.724 14.7129 644.852 16.0972C645.98 17.4814 646.544 19.1221 646.544 21.0361C646.544 23.0698 645.946 24.8472 644.732 26.3682C643.519 27.8892 641.895 28.6582 639.845 28.6582C638.888 28.6582 637.76 28.4531 636.461 28.043C635.162 27.6328 634.068 26.915 633.197 25.8896C632.94 25.5479 632.821 25.2573 632.821 25.0352C632.821 24.8301 632.906 24.7275 633.06 24.7275C633.111 24.7275 633.145 24.7446 633.162 24.7617C633.367 24.8472 633.624 24.8984 633.931 24.8984C634.53 24.8984 635.059 24.6763 635.504 24.249C635.948 23.8218 636.17 23.292 636.17 22.6597C636.17 22.0615 635.948 21.5317 635.521 21.0874C635.094 20.6431 634.564 20.4209 633.931 20.4209C633.299 20.4209 632.769 20.6772 632.342 21.1729C631.915 21.6685 631.693 22.2495 631.693 22.916C631.693 24.7104 632.547 26.1802 634.273 27.3423C635.999 28.5044 638.05 29.0854 640.426 29.0854C643.245 29.0854 645.501 28.2822 647.21 26.6758C648.919 25.0693 649.774 23.2236 649.774 21.1216C649.774 19.3784 649.141 17.8232 647.877 16.4561C646.612 15.0889 644.749 14.2173 642.305 13.8413L642.34 13.7729ZM685.585 23.4189H685.383C685.383 23.7529 685.313 23.999 685.181 24.166C685.049 24.333 684.785 24.4209 684.39 24.4297H683.362V24.4473V14.5859L675.531 25.7041H681.7L681.683 28.7803H679.688V28.9824H685.462V28.7803H683.362V25.7041H685.594H685.612L685.585 23.4189ZM676.664 24.4297L681.797 17.1523L681.718 24.4297H676.664ZM709.355 20.3955C707.843 20.3955 706.639 20.835 705.734 21.7139L706.604 16.5635H713.029L713.011 14.1113H712.827V14.1289L712.809 14.1113C712.809 14.4629 712.739 14.7178 712.598 14.876C712.458 15.0342 712.185 15.1221 711.79 15.1309H706.648L705.418 22.3643L705.532 22.2236C705.602 22.1445 705.672 22.0566 705.752 21.96C705.831 21.8633 705.954 21.749 706.112 21.6172C706.27 21.4854 706.446 21.3623 706.63 21.2568C706.815 21.1514 707.052 21.0459 707.351 20.9404C707.65 20.835 707.958 20.7559 708.283 20.6943C708.503 20.6592 708.705 20.6416 708.889 20.6416C709.979 20.6416 710.832 21.0459 711.447 21.8545C712.062 22.6631 712.37 23.6123 712.37 24.7021C712.37 25.792 712.053 26.7412 711.429 27.541C710.805 28.3408 709.926 28.7363 708.793 28.7363C708.415 28.7363 708.002 28.6836 707.553 28.5781C706.929 28.3848 706.42 28.1123 706.024 27.7607C705.629 27.4092 705.435 27.1191 705.435 26.8906C705.444 26.75 705.505 26.6797 705.62 26.6797H705.672C705.734 26.7061 705.839 26.7148 705.989 26.7148C706.297 26.7148 706.569 26.6006 706.797 26.3809C707.026 26.1611 707.14 25.8887 707.14 25.5635C707.14 25.2559 707.026 24.9834 706.797 24.7549C706.569 24.5264 706.297 24.4121 705.989 24.4121C705.69 24.4121 705.426 24.5176 705.207 24.7285C704.987 24.9395 704.864 25.2031 704.838 25.5107V25.6514C704.838 26.6006 705.251 27.4004 706.077 28.042C706.903 28.6836 707.966 29.0088 709.258 29.0088C710.638 29.0088 711.781 28.6221 712.686 27.8574C713.591 27.0928 714.04 26.0469 714.04 24.7197C714.04 23.3135 713.574 22.2412 712.642 21.5117C711.711 20.7822 710.603 20.4131 709.32 20.4131L709.355 20.3955ZM741.826 24.3945C741.826 23.1729 741.431 22.2412 740.648 21.6084C739.866 20.9756 738.917 20.6592 737.801 20.6592C736.597 20.6504 735.56 20.9756 734.681 21.626C734.944 19.8506 735.507 18.374 736.359 17.1963C737.212 16.0186 738.196 15.2188 739.313 14.7969L739.242 14.6211C737.177 15.4121 735.604 16.6514 734.523 18.3301C733.441 20.0088 732.897 21.7578 732.897 23.5684C732.897 25.1152 733.283 26.4072 734.048 27.4531C734.813 28.499 735.858 29.0176 737.186 29.0176C737.871 29.0176 738.486 28.9121 739.04 28.7012C739.594 28.4902 740.033 28.2266 740.367 27.9102C740.701 27.5938 740.982 27.2246 741.211 26.7939C741.44 26.3633 741.598 25.9502 741.686 25.5547C741.773 25.1592 741.817 24.7725 741.817 24.3857L741.826 24.3945ZM737.177 28.833C737.142 28.833 737.098 28.833 737.045 28.8242C736.992 28.8154 736.948 28.8154 736.913 28.8154C736.201 28.7363 735.621 28.1914 735.173 27.1807C734.725 26.1699 734.505 24.9482 734.505 23.5156C734.505 22.9619 734.54 22.4082 734.61 21.8545C735.27 21.3359 736.078 21.002 737.027 20.8525C737.247 20.8262 737.388 20.8174 737.458 20.8174C738.372 20.8174 739.066 21.1689 739.541 21.8633C740.016 22.5576 740.253 23.4189 740.253 24.4385C740.253 25.4844 740.016 26.4336 739.55 27.2861C739.084 28.1387 738.469 28.6309 737.704 28.7627C737.432 28.7891 737.247 28.8066 737.15 28.8066L737.177 28.833ZM763.197 28.0684C763.197 28.3936 763.276 28.6309 763.443 28.7891C763.61 28.9473 763.812 29.0264 764.049 29.0264C764.304 29.0264 764.498 28.9297 764.638 28.7363C764.779 28.543 764.858 28.3232 764.884 28.0859C764.963 27.3037 765.016 26.4775 765.042 25.6162C765.069 24.7373 765.201 23.999 765.447 23.4102C765.693 22.8213 766.545 21.1865 767.996 18.5059C768.831 16.9678 769.516 15.6934 770.052 14.6826H760.85L760.833 17.1084H761.035V17.0908L761.052 17.1084C761.052 16.7656 761.123 16.5107 761.254 16.3525C761.386 16.1943 761.65 16.1064 762.045 16.0977H769.085C768.514 17.1611 767.767 18.541 766.853 20.2373C765.262 23.1992 764.251 25.124 763.821 26.0205C763.39 26.917 763.179 27.6025 763.179 28.0859L763.197 28.0684ZM798.331 24.8428C798.331 23.9375 798.006 23.1465 797.364 22.4609C796.723 21.7754 795.782 21.3359 794.543 21.1426C795.554 20.9492 796.327 20.5537 796.872 19.9561C797.417 19.3584 797.689 18.6816 797.689 17.9258C797.689 17.0293 797.311 16.2559 796.556 15.5967C795.8 14.9375 794.754 14.6123 793.427 14.6123H793.409C792.082 14.6123 791.036 14.9375 790.28 15.5967C789.524 16.2559 789.146 17.0381 789.146 17.9434C789.146 18.6992 789.419 19.376 789.964 19.9736C790.509 20.5713 791.282 20.9668 792.293 21.1602C791.054 21.3535 790.113 21.8018 789.472 22.4961C788.83 23.1904 788.505 23.9902 788.505 24.8955C788.505 25.9766 788.944 26.9346 789.832 27.7607C790.72 28.5869 791.906 29 793.391 29H793.409C794.894 29 796.081 28.5869 796.969 27.7607C797.856 26.9346 798.296 25.9766 798.296 24.8867L798.331 24.8428ZM790.649 17.7588C790.649 17.0381 790.816 16.4053 791.159 15.8604C791.502 15.3154 791.994 14.9814 792.644 14.8672C792.811 14.8408 793.066 14.832 793.4 14.832C793.734 14.832 793.98 14.8408 794.139 14.8672C794.789 14.9902 795.281 15.3242 795.624 15.8691C795.967 16.4141 796.134 17.0469 796.134 17.7676C796.134 18.6289 795.896 19.3936 795.422 20.0615C794.947 20.7295 794.306 21.0723 793.488 21.0986H793.286C792.469 21.0986 791.827 20.7646 791.352 20.0967C790.878 19.4287 790.641 18.6553 790.641 17.7764L790.649 17.7588ZM793.391 21.3008C793.506 21.3008 793.646 21.3096 793.813 21.3271C793.98 21.3447 794.235 21.4238 794.587 21.5645C794.938 21.7051 795.246 21.8896 795.518 22.1182C795.791 22.3467 796.037 22.7158 796.257 23.2168C796.476 23.7178 796.582 24.3154 796.582 25.001C796.582 26.0205 796.301 26.9082 795.738 27.6729C795.176 28.4375 794.402 28.8154 793.418 28.8154C792.407 28.8154 791.616 28.4375 791.045 27.6816C790.474 26.9258 790.183 26.0293 790.183 25.001C790.183 24.3154 790.289 23.7178 790.5 23.2168C790.711 22.7158 790.957 22.3467 791.238 22.1094C791.519 21.8721 791.836 21.6875 792.187 21.5557C792.539 21.4238 792.794 21.3447 792.952 21.3271C793.11 21.3096 793.242 21.3008 793.348 21.3008H793.391ZM826.003 20.0527C826.003 19.7891 825.986 19.5078 825.942 19.2002C825.898 18.8926 825.827 18.5146 825.731 18.0664C825.634 17.6182 825.476 17.2051 825.265 16.8184C825.054 16.4316 824.799 16.0625 824.5 15.7109C824.201 15.3594 823.806 15.0869 823.323 14.8848C822.839 14.6826 822.294 14.5859 821.688 14.5859C820.431 14.5859 819.35 14.999 818.445 15.8252C817.539 16.6514 817.082 17.7764 817.082 19.209C817.082 20.4307 817.478 21.3623 818.26 22.0039C819.042 22.6455 819.992 22.9707 821.108 22.9707C822.312 22.9707 823.358 22.6455 824.245 21.9951C823.973 23.7705 823.41 25.2471 822.558 26.416C821.705 27.585 820.73 28.3848 819.631 28.8154L819.701 28.9912C821.767 28.2002 823.34 26.9609 824.421 25.2822C825.502 23.6035 826.038 21.8545 826.038 20.0439L826.003 20.0527ZM821.468 22.7246C820.545 22.7246 819.842 22.3818 819.367 21.6963C818.893 21.0107 818.656 20.167 818.656 19.1562C818.656 18.1104 818.893 17.1611 819.359 16.2998C819.825 15.4385 820.44 14.9463 821.204 14.8145C821.442 14.7881 821.617 14.7793 821.732 14.7793C821.846 14.7793 821.925 14.7881 821.969 14.7969C822.681 14.8672 823.261 15.4033 823.709 16.4141C824.158 17.4248 824.377 18.6465 824.377 20.0791C824.377 20.6328 824.342 21.1777 824.272 21.7139C823.911 22.0127 823.49 22.25 823.006 22.417C822.523 22.584 822.18 22.6807 821.969 22.707C821.758 22.7334 821.582 22.7422 821.433 22.7422L821.468 22.7246ZM850.872 28.7979H848.903V14.6035L844.895 17.0117L845.001 17.1699L847.093 15.9307V28.7979H845.089V29H850.872V28.7979ZM862.906 14.6738C861.5 14.6738 860.305 15.3857 859.329 16.8008C858.353 18.2158 857.861 19.877 857.861 21.7842C857.861 23.7617 858.353 25.458 859.329 26.8643C860.305 28.2705 861.491 28.9736 862.897 28.9736C864.304 28.9736 865.49 28.2793 866.466 26.8818C867.441 25.4844 867.934 23.7881 867.934 21.793C867.934 19.8682 867.45 18.207 866.483 16.8008C865.517 15.3945 864.321 14.6914 862.906 14.6914V14.6738ZM862.906 28.7803C862.423 28.7803 862.001 28.7012 861.632 28.543C861.263 28.3848 860.964 28.1387 860.735 27.8047C860.507 27.4707 860.322 27.1104 860.182 26.7236C860.041 26.3369 859.935 25.8623 859.865 25.291C859.795 24.7197 859.751 24.1836 859.733 23.6826C859.716 23.1816 859.707 22.5752 859.707 21.8633C859.698 20.7207 859.733 19.7539 859.821 18.9629C859.909 18.1719 860.059 17.46 860.278 16.8184C860.498 16.1768 860.823 15.7021 861.263 15.3857C861.702 15.0693 862.247 14.9111 862.906 14.9111C863.442 14.9111 863.908 15.0254 864.295 15.2451C864.682 15.4648 864.989 15.7637 865.227 16.1416C865.464 16.5195 865.648 17.0117 865.78 17.627C865.912 18.2422 866 18.875 866.044 19.5254C866.088 20.1758 866.105 20.958 866.097 21.8633C866.105 22.5752 866.097 23.1816 866.07 23.6826C866.044 24.1836 866 24.7197 865.938 25.291C865.877 25.8623 865.771 26.3457 865.631 26.7324C865.49 27.1191 865.297 27.4795 865.06 27.8135C864.822 28.1475 864.523 28.3936 864.154 28.5518C863.785 28.71 863.363 28.7891 862.88 28.7891L862.906 28.7803Z" fill="black"/>
</svg>
