<svg width="456" height="228" viewBox="0 0 456 228" fill="none" xmlns="http://www.w3.org/2000/svg">
<path opacity="0.1" fill-rule="evenodd" clip-rule="evenodd" d="M0.042875 15.2216C0.236612 13.7488 11.6764 16.8776 32.21 18.9785C40.9048 19.6001 48.9977 20.1589 56.9678 20.2428C61.5023 20.274 66.0588 20.2068 71.1597 19.7639C71.695 19.6728 72.8613 19.4745 74.4845 19.4108C76.6764 19.286 78.8854 19.376 81.0891 19.6799C83.6694 20.0199 88.4664 19.8646 98.0801 17.8751C108.831 9.83801 120.907 4.38805 133.671 1.81215C157.293 -2.82013 178.688 3.94964 203.231 11.7179C211.069 14.1847 217.513 16.2277 226.22 19.9393C229.499 21.3406 235.524 24.0216 248.525 29.6463C252.341 31.4817 256.26 32.9391 260.24 34.0028C267.248 35.6668 272.41 35.2371 272.518 36.6349C272.639 37.3225 271.185 37.9003 265.341 41.2786C260.929 43.8466 260.431 44.2618 260.44 44.8739C260.473 46.8511 265.988 47.3055 274.824 51.8684C278.802 53.8826 282.666 56.4826 290.511 61.4503L295.46 64.621C296.438 65.2571 297.79 66.1129 298.63 66.631C304.114 70.1656 309.817 73.1445 315.673 75.5334C319.325 76.5882 325.428 78.595 325.459 80.7849C325.489 82.9748 320.126 84.0524 316.143 84.9187C306.967 87.0462 301.349 86.1139 301.198 87.2725C301.048 88.4311 304.225 90.0384 318.316 95.0293L346.604 111.319L395.093 151.883C408.657 160.365 423.366 165.56 438.303 167.145C443.959 167.755 449.617 167.842 455.225 167.405C451.414 176.233 446.518 184.283 440.685 191.311C434.652 198.83 427.525 205.006 419.601 209.58C408.072 215.99 395.172 218.753 382.085 217.614C382.266 218.646 382.532 220.158 383.046 221.959C383.995 225.787 384.426 226.445 384.087 227.093C383.314 228.405 380.166 226.297 375.154 225.45C372.801 225.086 370.44 225.021 368.109 225.256C361.942 225.455 354.627 222.828 344.937 219.237C334.808 215.389 325.468 211.549 316.923 207.858L317.814 211.695L318.559 214.92C314.719 215.16 310.844 214.949 306.988 214.292C299.549 212.954 292.282 210.075 285.525 205.787C276.927 200.618 269.086 193.707 262.382 185.389C260.813 185.089 258.825 184.979 257.975 186.304C257.125 187.628 258.696 190.406 258.097 191.924C256.597 195.484 244.143 190.734 244.143 190.734C234.476 187.335 225.199 182.261 216.625 175.682C216.625 175.682 198.113 161.459 186.193 142.621C182.091 136.096 180.315 132.716 180.315 132.716C175.719 124.056 174.041 117.874 172.615 118.164C171.189 118.454 171.271 122.5 171.163 124.572C170.899 130.234 172.274 132.786 171.552 133.498C170.114 134.947 161.236 127.913 149.284 112.809C137.743 98.2501 133.199 88.5428 120.633 68.4928C116.301 61.5584 110.026 51.7445 102.008 40.1971C127.092 39.9694 152.307 45.1658 176.422 55.5322C200.369 65.9512 217.905 79.4435 232.704 90.8051C258.962 111.004 258.182 115.976 285.194 137.321C305.479 153.344 323.206 167.134 347.995 175.852C376.2 185.735 400.095 184.337 400.14 183.362C400.185 182.386 380.034 182.345 352.526 171.942C327.625 162.369 310.081 148.831 289.546 132.733C261.309 110.581 263.44 106.796 231.79 81.4717C209.03 63.2503 195.748 52.7872 175.36 44.5717C159.145 38.0874 142.418 34.1307 125.617 32.8054C122.896 32.5602 109.347 32.552 82.2444 32.5127C65.0877 32.4809 55.7058 32.5427 42.3934 29.8506C34.9207 28.363 27.5016 26.3381 20.178 23.787C12.2655 21.1205 -0.0996269 16.4261 0.0881325 15.1431" fill="white"/>
</svg>
