<svg width="468" height="218" viewBox="0 0 468 218" fill="none" xmlns="http://www.w3.org/2000/svg">
<path opacity="0.1" fill-rule="evenodd" clip-rule="evenodd" d="M467.947 24.6368C467.822 23.1307 456.112 25.6298 435.263 26.5483C426.448 26.6652 418.243 26.754 410.186 26.3681C405.603 26.1317 401.003 25.7942 395.87 25.0433C395.334 24.9192 394.165 24.649 392.528 24.4884C390.319 24.2323 388.083 24.1931 385.842 24.3712C383.218 24.5637 378.379 24.1226 368.761 21.5354C358.288 12.7437 346.351 6.49926 333.579 3.13075C309.936 -2.96633 287.991 2.63935 262.816 9.0722C254.777 11.1124 248.166 12.8047 239.189 16.0568C235.808 17.2851 229.591 19.6498 216.181 24.5895C212.237 26.2265 208.206 27.4739 204.133 28.3182C196.972 29.5927 191.777 28.8515 191.6 30.2637C191.445 30.9542 192.886 31.6266 198.627 35.4004C202.96 38.2673 203.443 38.718 203.404 39.3387C203.275 41.3432 197.681 41.4785 188.531 45.5867C184.414 47.3957 180.384 49.8059 172.217 54.3836L167.062 57.3088C166.043 57.8965 164.636 58.6851 163.763 59.1612C158.05 62.4242 152.143 65.1102 146.11 67.1884V67.1884C142.369 68.043 136.106 69.7188 135.968 71.9394C135.831 74.1599 141.198 75.5705 145.18 76.6851C154.348 79.3865 160.07 78.7723 160.166 79.957C160.262 81.1417 156.974 82.585 142.494 86.8171L113.122 101.676L62.1616 139.976C48.0454 147.783 32.9322 152.185 17.7621 152.91C12.0181 153.196 6.29729 152.95 0.652226 152.175C4.07445 161.358 8.63113 169.817 14.1837 177.294C19.9145 185.281 26.8167 191.97 34.6015 197.08C45.939 204.267 58.8389 207.833 72.1178 207.451C71.8844 208.487 71.5422 210.006 70.9357 211.803C69.791 215.632 69.3237 216.274 69.6347 216.952C70.3526 218.329 73.635 216.375 78.7409 215.812C81.1353 215.583 83.5247 215.656 85.8678 216.032C92.0899 216.598 99.6081 214.365 109.573 211.293C119.994 207.987 129.617 204.642 138.431 201.401L137.343 205.242L136.435 208.471C140.302 208.941 144.229 208.957 148.156 208.518C155.737 207.6 163.22 205.107 170.255 201.155C179.194 196.417 187.451 189.868 194.628 181.822C196.228 181.611 198.242 181.617 199.037 183.011C199.831 184.406 198.108 187.132 198.64 188.708C199.983 192.409 212.797 188.325 212.797 188.325C222.73 185.447 232.349 180.846 241.332 174.676C241.332 174.676 260.726 161.336 273.683 142.923C278.144 136.544 280.102 133.219 280.102 133.219C285.166 124.702 287.161 118.528 288.588 118.906C290.015 119.284 289.736 123.386 289.745 125.495C289.736 131.257 288.224 133.765 288.918 134.531C290.302 136.086 299.613 129.472 312.422 114.851C324.789 100.758 329.85 91.1754 343.52 71.5708C348.232 64.7895 355.049 55.201 363.71 43.9563C338.377 42.2427 312.647 46.0258 287.779 55.1207C263.078 64.2789 244.705 76.9348 229.202 87.5903C201.691 106.537 202.237 111.628 173.91 131.694C152.636 146.755 134.057 159.702 108.587 167.084C79.6101 175.447 55.5339 172.616 55.5358 171.624C55.5377 170.631 75.9007 171.78 104.199 162.848C129.823 154.605 148.206 141.904 169.735 126.781C199.339 105.969 197.371 102.002 230.578 78.1724C254.458 61.026 268.385 51.1927 289.384 44.0605C306.082 38.4383 323.175 35.4116 340.215 35.0596C342.976 34.9716 356.666 35.7641 384.052 37.326C401.389 38.3077 410.865 38.9249 424.446 36.9797C432.069 35.9118 439.663 34.2953 447.187 32.1393C455.311 29.9008 468.032 25.8676 467.905 24.5545" fill="white"/>
</svg>
