<svg width="35" height="34" viewBox="0 0 35 34" fill="none" xmlns="http://www.w3.org/2000/svg">
<mask id="path-1-inside-1_367_8145" fill="white">
<path d="M6.98464 33.2096L17.4568 27.6989L27.929 33.2038C27.9774 33.2291 28.0319 33.2404 28.0864 33.2365C28.1409 33.2325 28.1932 33.2134 28.2375 33.1814C28.2817 33.1494 28.3161 33.1056 28.3369 33.0551C28.3577 33.0045 28.3639 32.9492 28.355 32.8953L26.3575 21.2335L34.8263 12.9761C34.865 12.9379 34.8924 12.8897 34.9053 12.8368C34.9182 12.7839 34.9162 12.7285 34.8994 12.6767C34.8826 12.6249 34.8518 12.5788 34.8104 12.5435C34.7689 12.5082 34.7185 12.4851 34.6647 12.4768L22.9558 10.773L17.7212 0.165707C17.6972 0.116043 17.6596 0.0741577 17.6128 0.0448507C17.5661 0.0155437 17.512 0 17.4568 0C17.4016 0 17.3476 0.0155437 17.3008 0.0448507C17.2541 0.0741577 17.2165 0.116043 17.1925 0.165707L11.9578 10.776L0.248956 12.4797C0.195157 12.488 0.144722 12.5111 0.103281 12.5464C0.0618387 12.5817 0.03102 12.6278 0.0142634 12.6796C-0.0024931 12.7314 -0.00452867 12.7868 0.00838467 12.8397C0.021298 12.8926 0.0486519 12.9408 0.0873938 12.9791L8.55621 21.2364L6.55577 32.8983C6.54681 32.9522 6.55307 33.0075 6.57382 33.058C6.59457 33.1086 6.62901 33.1523 6.67326 33.1843C6.71751 33.2164 6.76981 33.2354 6.8243 33.2394C6.87879 33.2434 6.9333 33.232 6.98171 33.2067L6.98464 33.2096Z"/>
</mask>
<path d="M6.98464 33.2096L17.4568 27.6989L27.929 33.2038C27.9774 33.2291 28.0319 33.2404 28.0864 33.2365C28.1409 33.2325 28.1932 33.2134 28.2375 33.1814C28.2817 33.1494 28.3161 33.1056 28.3369 33.0551C28.3577 33.0045 28.3639 32.9492 28.355 32.8953L26.3575 21.2335L34.8263 12.9761C34.865 12.9379 34.8924 12.8897 34.9053 12.8368C34.9182 12.7839 34.9162 12.7285 34.8994 12.6767C34.8826 12.6249 34.8518 12.5788 34.8104 12.5435C34.7689 12.5082 34.7185 12.4851 34.6647 12.4768L22.9558 10.773L17.7212 0.165707C17.6972 0.116043 17.6596 0.0741577 17.6128 0.0448507C17.5661 0.0155437 17.512 0 17.4568 0C17.4016 0 17.3476 0.0155437 17.3008 0.0448507C17.2541 0.0741577 17.2165 0.116043 17.1925 0.165707L11.9578 10.776L0.248956 12.4797C0.195157 12.488 0.144722 12.5111 0.103281 12.5464C0.0618387 12.5817 0.03102 12.6278 0.0142634 12.6796C-0.0024931 12.7314 -0.00452867 12.7868 0.00838467 12.8397C0.021298 12.8926 0.0486519 12.9408 0.0873938 12.9791L8.55621 21.2364L6.55577 32.8983C6.54681 32.9522 6.55307 33.0075 6.57382 33.058C6.59457 33.1086 6.62901 33.1523 6.67326 33.1843C6.71751 33.2164 6.76981 33.2354 6.8243 33.2394C6.87879 33.2434 6.9333 33.232 6.98171 33.2067L6.98464 33.2096Z" fill="#FFE600"/>
<path d="M6.98464 33.2096L6.27737 33.9166L6.79827 34.4377L7.45033 34.0946L6.98464 33.2096ZM17.4568 27.6989L17.9221 26.8137L17.4566 26.569L16.9911 26.8139L17.4568 27.6989ZM27.929 33.2038L27.4637 34.0889L27.4655 34.0899L27.929 33.2038ZM28.355 32.8953L29.3414 32.7314L29.3406 32.7265L28.355 32.8953ZM26.3575 21.2335L25.6593 20.5175L25.2831 20.8843L25.3718 21.4023L26.3575 21.2335ZM34.8263 12.9761L35.5244 13.6921L35.5288 13.6878L34.8263 12.9761ZM34.6647 12.4768L34.8172 11.4884L34.8087 11.4872L34.6647 12.4768ZM22.9558 10.773L22.0591 11.2156L22.2917 11.6869L22.8118 11.7626L22.9558 10.773ZM17.7212 0.165707L16.8212 0.601609L16.8245 0.608246L17.7212 0.165707ZM17.4568 0V-1V0ZM17.1925 0.165707L18.0893 0.608159L18.0925 0.601597L17.1925 0.165707ZM11.9578 10.776L12.1018 11.7655L12.622 11.6898L12.8546 11.2184L11.9578 10.776ZM0.248956 12.4797L0.104958 11.4901L0.0964677 11.4914L0.248956 12.4797ZM0.0873938 12.9791L-0.615108 13.6908L-0.610716 13.6951L0.0873938 12.9791ZM8.55621 21.2364L9.54181 21.4055L9.63068 20.8874L9.25432 20.5204L8.55621 21.2364ZM6.55577 32.8983L5.57015 32.7292L5.56929 32.7344L6.55577 32.8983ZM6.98171 33.2067L7.68898 32.4998L7.16941 31.98L6.51818 32.3206L6.98171 33.2067ZM7.45033 34.0946L17.9225 28.5838L16.9911 26.8139L6.51896 32.3247L7.45033 34.0946ZM16.9915 28.584L27.4637 34.0889L28.3943 32.3186L17.9221 26.8137L16.9915 28.584ZM27.4655 34.0899C27.6787 34.2014 27.9187 34.2512 28.1587 34.2338L28.0141 32.2391C28.1451 32.2296 28.2762 32.2568 28.3925 32.3177L27.4655 34.0899ZM28.1587 34.2338C28.3987 34.2164 28.6291 34.1325 28.824 33.9913L27.651 32.3715C27.7573 32.2944 27.8831 32.2486 28.0141 32.2391L28.1587 34.2338ZM28.824 33.9913C29.0189 33.8502 29.1705 33.6575 29.2619 33.435L27.4119 32.6752C27.4618 32.5537 27.5446 32.4485 27.651 32.3715L28.824 33.9913ZM29.2619 33.435C29.3533 33.2124 29.3809 32.9688 29.3414 32.7314L27.3685 33.0592C27.3469 32.9297 27.362 32.7967 27.4119 32.6752L29.2619 33.435ZM29.3406 32.7265L27.3431 21.0646L25.3718 21.4023L27.3693 33.0642L29.3406 32.7265ZM27.0556 21.9494L35.5244 13.6921L34.1282 12.2602L25.6593 20.5175L27.0556 21.9494ZM35.5288 13.6878C35.6994 13.5194 35.8199 13.3069 35.8767 13.074L33.9338 12.5995C33.9649 12.4724 34.0306 12.3564 34.1238 12.2644L35.5288 13.6878ZM35.8767 13.074C35.9336 12.8411 35.9246 12.597 35.8508 12.3688L33.948 12.9845C33.9077 12.8599 33.9028 12.7267 33.9338 12.5995L35.8767 13.074ZM35.8508 12.3688C35.777 12.1407 35.6413 11.9376 35.4588 11.7822L34.162 13.3047C34.0623 13.2199 33.9882 13.109 33.948 12.9845L35.8508 12.3688ZM35.4588 11.7822C35.2763 11.6267 35.0541 11.525 34.8172 11.4885L34.5122 13.4651C34.3829 13.4451 34.2616 13.3896 34.162 13.3047L35.4588 11.7822ZM34.8087 11.4872L23.0998 9.78344L22.8118 11.7626L34.5207 13.4663L34.8087 11.4872ZM23.8526 10.3305L18.618 -0.276831L16.8245 0.608246L22.0591 11.2156L23.8526 10.3305ZM18.6212 -0.270183C18.5153 -0.488913 18.3499 -0.673387 18.1439 -0.802466L17.0818 0.892167C16.9693 0.821702 16.879 0.720998 16.8212 0.601597L18.6212 -0.270183ZM18.1439 -0.802466C17.938 -0.931544 17.6999 -1 17.4568 -1V1C17.3242 1 17.1942 0.962631 17.0818 0.892167L18.1439 -0.802466ZM17.4568 -1C17.2138 -1 16.9757 -0.931541 16.7697 -0.802466L17.8319 0.892167C17.7195 0.962628 17.5895 1 17.4568 1V-1ZM16.7697 -0.802466C16.5638 -0.673394 16.3984 -0.488925 16.2925 -0.270183L18.0925 0.601597C18.0346 0.72101 17.9443 0.821709 17.8319 0.892167L16.7697 -0.802466ZM16.2957 -0.276733L11.061 10.3335L12.8546 11.2184L18.0893 0.608148L16.2957 -0.276733ZM11.8138 9.78638L0.104964 11.4901L0.392949 13.4693L12.1018 11.7655L11.8138 9.78638ZM0.0964677 11.4914C-0.140484 11.528 -0.36261 11.6296 -0.545127 11.7851L0.751688 13.3077C0.652055 13.3925 0.530798 13.4481 0.401445 13.468L0.0964677 11.4914ZM-0.545127 11.7851C-0.727645 11.9406 -0.86338 12.1437 -0.937181 12.3718L0.965708 12.9874C0.92542 13.1119 0.851323 13.2228 0.751688 13.3077L-0.545127 11.7851ZM-0.937181 12.3718C-1.01098 12.5999 -1.01995 12.844 -0.963071 13.0769L0.979841 12.6025C1.01089 12.7296 1.00599 12.8629 0.965708 12.9874L-0.937181 12.3718ZM-0.963071 13.0769C-0.906196 13.3098 -0.785721 13.5224 -0.615095 13.6908L0.789883 12.2674C0.883024 12.3593 0.948792 12.4753 0.979841 12.6025L-0.963071 13.0769ZM-0.610716 13.6951L7.8581 21.9524L9.25432 20.5204L0.785504 12.2631L-0.610716 13.6951ZM7.5706 21.0673L5.57016 32.7292L7.54137 33.0673L9.54181 21.4055L7.5706 21.0673ZM5.56929 32.7344C5.52986 32.9717 5.55739 33.2154 5.6488 33.4379L7.49884 32.6781C7.54874 32.7996 7.56377 32.9326 7.54224 33.0622L5.56929 32.7344ZM5.6488 33.4379C5.74021 33.6605 5.89188 33.8532 6.08675 33.9943L7.25977 32.3744C7.36614 32.4514 7.44894 32.5566 7.49884 32.6781L5.6488 33.4379ZM6.08675 33.9943C6.28164 34.1354 6.51201 34.2194 6.75198 34.2368L6.89662 32.242C7.02762 32.2515 7.15338 32.2974 7.25977 32.3744L6.08675 33.9943ZM6.75198 34.2368C6.99194 34.2542 7.23202 34.2043 7.44523 34.0928L6.51818 32.3206C6.63458 32.2597 6.76564 32.2325 6.89662 32.242L6.75198 34.2368ZM6.27443 33.9136L6.27737 33.9166L7.69192 32.5027L7.68898 32.4998L6.27443 33.9136Z" fill="black" mask="url(#path-1-inside-1_367_8145)"/>
</svg>
