<svg width="44" height="40" viewBox="0 0 44 40" fill="none" xmlns="http://www.w3.org/2000/svg">
<path d="M22.0023 0.640015C19.4311 0.640015 17.2964 2.48595 16.8323 4.93002C16.2204 5.14314 15.6292 5.40095 15.0723 5.70002C13.0167 6.80345 11.3873 8.67345 11.3873 11.2C11.3873 12.6025 11.6451 13.8847 12.2398 14.94C12.0267 14.8988 11.8136 14.8506 11.6073 14.83C11.4767 14.8197 11.3564 14.7991 11.2223 14.8025C10.8201 14.8094 10.3973 14.9056 10.0398 15.16C9.562 15.5003 9.287 16.0297 9.13231 16.6175C9.11512 16.6828 9.0945 16.7688 9.07731 16.8375C8.75075 16.7928 8.33481 16.7 7.81231 16.4525C7.64044 16.37 7.4445 16.291 7.26231 16.1775C7.08012 16.0641 6.90137 15.9197 6.71231 15.765C6.33419 15.4591 5.95606 15.0672 5.58481 14.555C5.39919 14.2972 5.20669 14.0222 5.03481 13.7025C4.17544 12.1075 3.52231 9.66345 3.52231 5.92001C3.52231 5.89252 3.52231 5.86502 3.52231 5.83751C3.52231 5.81002 3.52231 5.78252 3.52231 5.75501C3.51544 5.7172 3.50512 5.67939 3.49481 5.64501C3.48106 5.59689 3.46044 5.5522 3.43981 5.50751C3.40887 5.44908 3.37106 5.39408 3.32981 5.34251C3.31262 5.32189 3.29544 5.3047 3.27481 5.28752C3.17856 5.17752 3.05481 5.09158 2.91731 5.04001C2.80044 5.00564 2.68012 4.99876 2.55981 5.01252C2.522 5.01939 2.48419 5.0297 2.44981 5.04001C2.04075 5.13283 1.752 5.50064 1.76231 5.92001C1.76231 12.245 3.61169 15.521 5.61231 17.14C6.82575 18.1197 8.08044 18.4497 8.88481 18.57C8.82637 19.5222 8.80231 20.6703 8.80231 22.1725C8.80231 22.3203 8.82637 22.4647 8.82981 22.6125H1.76231C1.73481 22.6125 1.70731 22.6125 1.67981 22.6125C1.17794 22.6366 0.789498 23.0594 0.81356 23.5613C0.837623 24.0631 1.26044 24.4516 1.76231 24.4275H8.96731C9.15981 26.0053 9.5345 27.5728 10.1223 29.0475C9.25606 29.2469 7.88106 29.6628 6.43731 30.505C4.15137 31.8388 1.76231 34.3585 1.76231 38.48C1.75887 38.7963 1.92387 39.0919 2.19887 39.2535C2.47387 39.4116 2.81075 39.4116 3.08575 39.2535C3.36075 39.0919 3.52575 38.7963 3.52231 38.48C3.52231 35.0116 5.36825 33.1519 7.31731 32.0175C8.7645 31.1753 10.2151 30.8006 10.8648 30.67C11.2464 31.3988 11.6726 32.0966 12.1573 32.76C14.3711 35.7781 17.6814 38.0125 21.8923 38.48H22.1123C26.3232 38.0125 29.6336 35.7781 31.8473 32.76C32.332 32.0966 32.7582 31.3988 33.1398 30.67C33.7895 30.8006 35.2401 31.1753 36.6873 32.0175C38.6364 33.1519 40.4823 35.0116 40.4823 38.48C40.4789 38.7963 40.6439 39.0919 40.9189 39.2535C41.1939 39.4116 41.5307 39.4116 41.8057 39.2535C42.0807 39.0919 42.2457 38.7963 42.2423 38.48C42.2423 34.3585 39.8532 31.8388 37.5673 30.505C36.1236 29.6628 34.7486 29.2469 33.8823 29.0475C34.4701 27.5728 34.8448 26.0053 35.0373 24.4275H42.2423C42.7442 24.4275 43.1498 24.0219 43.1498 23.52C43.1498 23.0181 42.7442 22.6125 42.2423 22.6125H35.1748C35.1782 22.4647 35.2023 22.3203 35.2023 22.1725C35.2023 20.6669 35.1576 19.5325 35.0648 18.5975C35.3811 18.5528 35.7867 18.4635 36.2198 18.3225C36.4432 18.2503 36.6667 18.1575 36.9073 18.0475C37.1479 17.9375 37.3989 17.8138 37.6498 17.6625C37.9007 17.5113 38.1414 17.3428 38.3923 17.14C38.6432 16.9372 38.8942 16.7103 39.1348 16.4525C39.3754 16.1947 39.6229 15.9163 39.8498 15.6C40.0767 15.2838 40.2761 14.9366 40.4823 14.555C40.6886 14.1735 40.8811 13.7438 41.0598 13.29C41.7714 11.4785 42.2423 9.08251 42.2423 5.92001C42.2423 5.89252 42.2423 5.86502 42.2423 5.83751C42.2423 5.81002 42.2423 5.78252 42.2423 5.75501C42.232 5.6897 42.2114 5.62439 42.1873 5.56251C42.1701 5.54189 42.1529 5.5247 42.1323 5.50751C42.1117 5.44908 42.0842 5.39408 42.0498 5.34251C42.0326 5.32189 42.0154 5.3047 41.9948 5.28752C41.9673 5.26689 41.9398 5.2497 41.9123 5.23251C41.737 5.07783 41.5101 4.99876 41.2798 5.01252C41.242 5.01939 41.2042 5.0297 41.1698 5.04001C41.0014 5.07783 40.8501 5.16376 40.7298 5.28752C40.7092 5.31501 40.692 5.34251 40.6748 5.37002C40.6336 5.41126 40.5957 5.45939 40.5648 5.50751C40.5545 5.53502 40.5442 5.56251 40.5373 5.59001C40.5132 5.64158 40.4961 5.70002 40.4823 5.75501C40.4789 5.79283 40.4789 5.8272 40.4823 5.86502C40.4823 5.8822 40.4823 5.90283 40.4823 5.92001C40.4823 11.9081 38.8117 14.5378 37.2923 15.765C36.2439 16.6141 35.2745 16.8135 34.7623 16.865C34.5801 16.3356 34.2948 15.875 33.8548 15.5725C33.3873 15.2494 32.8167 15.1497 32.2873 15.16C32.057 15.1635 31.8164 15.2116 31.5723 15.2425C32.3045 14.1322 32.6173 12.7435 32.6173 11.2C32.6173 8.67345 30.9879 6.80345 28.9323 5.70002C28.3857 5.40783 27.8014 5.1672 27.1998 4.95751C26.7495 2.49283 24.5873 0.640015 22.0023 0.640015ZM22.0023 2.40001C23.4082 2.40001 24.6011 3.22501 25.1648 4.40751C24.1095 4.2047 23.0404 4.10501 22.0023 4.10501C20.9539 4.10501 19.8745 4.20126 18.8123 4.40751C19.3761 3.21814 20.5929 2.40001 22.0023 2.40001ZM22.0023 5.97502C24.0854 5.97502 26.3748 6.42189 28.0523 7.32252C29.7298 8.22314 30.7473 9.4297 30.7473 11.2C30.7473 13.1903 30.3314 14.3178 29.1248 15.1325C27.9182 15.9472 25.6667 16.425 22.0023 16.425C18.3379 16.425 16.0864 15.9472 14.8798 15.1325C13.6732 14.3178 13.2573 13.1903 13.2573 11.2C13.2573 9.4297 14.2748 8.22314 15.9523 7.32252C17.6298 6.42189 19.9192 5.97502 22.0023 5.97502ZM11.1398 16.5625C11.1948 16.5522 11.2911 16.5488 11.4423 16.5625C12.0439 16.6175 13.2779 17.0369 15.0173 17.4425C15.3336 17.5147 15.6842 17.5903 16.0348 17.6625C17.5851 18.1163 19.5273 18.295 22.0023 18.295C24.1232 18.295 25.8523 18.1506 27.2823 17.8275C27.3167 17.8206 27.3579 17.8344 27.3923 17.8275C27.8839 17.7519 28.3411 17.6625 28.7673 17.58C30.4723 17.25 31.7029 16.9338 32.3423 16.92C32.662 16.9131 32.7686 16.9819 32.8373 17.03C32.9061 17.0781 33.0023 17.1538 33.1123 17.4975C33.3323 18.1885 33.4423 19.7078 33.4423 22.1725C33.4423 25.5722 32.3836 29.0338 30.4173 31.715C28.6332 34.1453 26.1032 35.9363 22.8823 36.555V23.52C22.8892 23.2485 22.7689 22.9906 22.5592 22.8188C22.3529 22.6469 22.0745 22.5816 21.8098 22.64C21.4007 22.7328 21.112 23.1006 21.1223 23.52V36.555C17.9014 35.9363 15.3714 34.1453 13.5873 31.715C11.6211 29.0338 10.5623 25.5722 10.5623 22.1725C10.5623 19.4672 10.6414 17.831 10.8373 17.085C10.937 16.7103 11.0401 16.6038 11.0573 16.59C11.0676 16.5831 11.0848 16.5728 11.1398 16.5625Z" fill="black"/>
</svg>
