<svg width="46" height="33" viewBox="0 0 46 33" fill="none" xmlns="http://www.w3.org/2000/svg">
<path d="M23.635 0.359985C21.892 0.359985 20.3683 1.19014 19.4375 2.57374C18.7044 2.21077 17.9102 2.02749 17.1088 2.02749C14.9777 2.02749 13.1197 3.23499 12.2788 5.04624H12.2213C7.68594 5.88717 4.67438 7.89249 3.9125 9.32999L3.71125 9.87624C3.70766 9.90499 3.71125 9.96249 3.71125 9.99124C3.71125 10.843 5.15594 11.8025 7.50625 12.665C8.17828 12.9094 8.915 13.1322 9.72 13.355C9.16297 12.4386 9.2025 11.2742 9.2025 11.2275C9.2025 9.29045 11.693 7.92842 13.17 7.28874C13.4539 7.16655 13.6336 6.90061 13.6875 6.59874C13.7953 6.00936 14.0577 5.47749 14.435 5.04624C15.0747 4.31311 16.045 3.86749 17.1088 3.86749C18.0467 3.86749 18.787 4.25202 19.2363 4.58624C19.4627 4.75874 19.7394 4.80545 20.0125 4.72999C20.2856 4.65452 20.5372 4.47483 20.645 4.21249C21.1553 2.97264 22.2873 2.19999 23.635 2.19999C24.767 2.19999 25.8452 2.77139 26.4813 3.72374C26.7113 4.06874 27.1209 4.22686 27.5163 4.09749C27.9727 3.94655 28.447 3.86749 28.8963 3.86749C29.96 3.86749 30.9303 4.31311 31.57 5.04624C31.9473 5.47749 32.2097 6.00936 32.3175 6.59874C32.375 6.90061 32.5511 7.16655 32.835 7.28874C35.3111 8.35967 36.7989 9.82592 36.8025 11.285C36.8025 11.2958 36.8528 12.3883 36.3713 13.3262C37.1583 13.0926 37.8806 12.8626 38.5275 12.6075C40.9245 11.6695 42.3225 10.6201 42.3225 9.76124C42.3261 9.71811 42.3297 9.66061 42.3225 9.61749L42.2363 9.38749C42.2327 9.37311 42.2398 9.37311 42.2363 9.35874C41.708 8.0578 38.7934 6.07045 33.755 5.04624H33.7263C32.8889 3.23499 31.0273 2.02749 28.8963 2.02749C28.4614 2.02749 28.0086 2.0742 27.5738 2.17124C26.5855 1.03202 25.1552 0.359985 23.635 0.359985ZM17.31 7.71999C17.0081 7.77389 16.753 7.97874 16.6308 8.26264C16.5086 8.54655 16.5373 8.86999 16.7063 9.12874C16.7063 9.12874 17.1375 9.78999 18 10.3362C18.8625 10.8825 20.2138 11.4 22.0825 11.4C22.4131 11.4036 22.7222 11.2311 22.8911 10.9436C23.0564 10.6561 23.0564 10.3039 22.8911 10.0164C22.7222 9.72889 22.4131 9.55639 22.0825 9.55999C20.548 9.55999 19.592 9.15749 19.0063 8.78374C18.4205 8.40999 18.2588 8.15124 18.2588 8.15124C18.0611 7.8242 17.6838 7.6553 17.31 7.71999ZM29.3563 8.61124C29.3167 8.61842 29.2772 8.6292 29.2413 8.63999C28.8136 8.73702 28.5117 9.12155 28.5225 9.55999C28.5225 10.0487 28.3644 10.1565 28.0913 10.3075C27.8181 10.4584 27.5163 10.48 27.5163 10.48C27.0095 10.5267 26.6358 10.9795 26.6825 11.4862C26.7292 11.993 27.182 12.3667 27.6888 12.32C27.6888 12.32 28.3069 12.2733 28.9538 11.9175C29.6006 11.5617 30.3625 10.728 30.3625 9.55999C30.3733 9.29405 30.2655 9.03889 30.075 8.8592C29.8809 8.67592 29.6186 8.58608 29.3563 8.61124ZM43.07 12.0325C41.9092 13.1861 39.9075 14.1851 37.4063 14.965C37.3056 15.0189 37.2014 15.0369 37.09 15.0512C33.1189 16.2444 27.9763 16.92 23.0025 16.92C15.9084 16.92 6.19813 15.2561 2.96375 12.1762L0.03125 21.2612C0.164219 27.9133 9.56547 32.56 23.0025 32.56C32.1666 32.56 39.8464 30.3283 43.5588 26.6087C45.1292 25.0347 45.9414 23.2522 45.9738 21.29L43.07 12.0325ZM19.3225 20.6C20.3395 20.6 21.1625 21.423 21.1625 22.44H25.7625C25.7625 21.423 26.5855 20.6 27.6025 20.6C28.6195 20.6 29.4425 21.423 29.4425 22.44C29.4425 22.9934 29.1945 23.4822 28.81 23.82C29.1945 24.1578 29.4425 24.6465 29.4425 25.2C29.4425 26.217 28.6195 27.04 27.6025 27.04C26.5855 27.04 25.7625 26.217 25.7625 25.2C25.7625 24.8622 25.8631 24.5531 26.0213 24.28H20.9038C21.0619 24.5531 21.1625 24.8622 21.1625 25.2C21.1625 26.217 20.3395 27.04 19.3225 27.04C18.3055 27.04 17.4825 26.217 17.4825 25.2C17.4825 24.6465 17.7305 24.1578 18.115 23.82C17.7305 23.4822 17.4825 22.9934 17.4825 22.44C17.4825 21.423 18.3055 20.6 19.3225 20.6Z" fill="black"/>
</svg>
