<svg width="18" height="42" viewBox="0 0 18 42" fill="none" xmlns="http://www.w3.org/2000/svg">
<path d="M5.64156 0.840027C5.17788 0.840027 4.80156 1.21551 4.80156 1.68003V4.20003H6.83102C7.26782 3.70023 8.07084 3.36003 9.00156 3.36003C9.93228 3.36003 10.7353 3.70023 11.1721 4.20003H13.2016V1.68003C13.2016 1.21551 12.8252 0.840027 12.3616 0.840027H5.64156ZM4.80156 5.88003V9.24003H13.2016V5.88003H11.1721C10.7353 6.37983 9.93228 6.72003 9.00156 6.72003C8.07084 6.72003 7.26782 6.37983 6.83102 5.88003H4.80156ZM4.07148 10.92L3.87133 11.0398C1.82425 12.2679 0.601562 14.422 0.601562 16.8V39.48C0.601562 40.4065 1.35504 41.16 2.28156 41.16H15.7216C16.6481 41.16 17.4016 40.4065 17.4016 39.48V16.8C17.4016 14.422 16.1781 12.2679 14.1302 11.0398L13.9316 10.92H4.07148ZM2.28156 17.64H15.7216V35.28H2.28156V17.64Z" fill="black"/>
</svg>
