<svg width="48" height="48" viewBox="0 0 48 48" fill="none" xmlns="http://www.w3.org/2000/svg">
<path d="M15.4093 0.248565C15.3839 0.248377 15.3585 0.249082 15.3332 0.25068C15.3297 0.251367 15.3261 0.252072 15.3226 0.252795C15.29 0.254852 15.2576 0.25838 15.2253 0.263369C15.1381 0.276908 15.0529 0.301056 14.9715 0.335278C14.784 0.391452 13.315 0.835395 11.5855 1.58098C10.6642 1.97814 9.69629 2.44923 8.84028 3.00012C7.98426 3.55101 7.21696 4.15421 6.75705 5.02413C6.75634 5.02483 6.75564 5.02554 6.75493 5.02624C5.44826 7.50439 0.388927 16.502 0.388927 16.502C0.24973 16.7496 0.213404 17.042 0.28778 17.3162C0.362156 17.5903 0.541278 17.8243 0.786538 17.9676L7.28367 21.7576C7.52979 21.9011 7.82252 21.9418 8.09845 21.871C8.37437 21.8001 8.61126 21.6234 8.75779 21.3791L10.2848 18.8348L11.0441 27.7006C11.0714 28.0655 11.0838 28.4299 11.0779 28.792C11.066 29.5665 10.9764 30.3406 10.8135 31.1015C10.812 31.1092 10.8106 31.117 10.8093 31.1248L7.84836 46.6083C7.81849 46.7649 7.82356 46.9262 7.86321 47.0806C7.90285 47.235 7.9761 47.3787 8.07772 47.5016C8.17934 47.6244 8.30682 47.7233 8.45107 47.7912C8.59532 47.859 8.75277 47.8942 8.91218 47.8942H39.2321C39.3916 47.8942 39.549 47.859 39.6933 47.7912C39.8375 47.7233 39.965 47.6244 40.0666 47.5016C40.1682 47.3787 40.2415 47.235 40.2811 47.0806C40.3208 46.9262 40.3258 46.7649 40.296 46.6083L37.335 31.1248C37.3337 31.117 37.3323 31.1092 37.3308 31.1015C37.1679 30.3406 37.0783 29.5665 37.0664 28.792C37.0605 28.4273 37.0721 28.0624 37.1003 27.7006V27.6922L37.8595 18.8348L39.3865 21.3791C39.5331 21.6234 39.77 21.8001 40.0459 21.871C40.3218 21.9418 40.6145 21.9011 40.8607 21.7576L47.3578 17.9676C47.603 17.8243 47.7822 17.5903 47.8565 17.3162C47.9309 17.042 47.8946 16.7496 47.7554 16.502C47.7554 16.502 42.6961 7.50438 41.3894 5.02624C41.3887 5.02554 41.388 5.02483 41.3873 5.02413C40.9274 4.15419 40.1601 3.55101 39.304 3.00012C38.448 2.44923 37.4801 1.97814 36.5588 1.58098C34.8332 0.837049 33.3703 0.395321 33.177 0.337393C33.0669 0.290199 32.9497 0.261611 32.8302 0.252795C32.7985 0.249989 32.7668 0.248578 32.735 0.248565C32.7301 0.248531 32.7251 0.248531 32.7202 0.248565H24.0722H15.441H15.4093ZM16.8094 2.41428H24.0722H31.3349C31.1331 3.0207 30.8279 3.76819 30.3345 4.53557C29.2544 6.21573 27.5012 7.82855 24.0722 7.82855C20.6431 7.82855 18.8899 6.21573 17.8098 4.53557C17.3165 3.76819 17.0112 3.0207 16.8094 2.41428ZM14.6437 2.76324C14.8833 3.56278 15.2868 4.6185 15.9867 5.70726C17.343 7.81709 19.9212 9.99427 24.0722 9.99427C28.2231 9.99427 30.8013 7.81709 32.1576 5.70726C32.8575 4.6185 33.261 3.56278 33.5006 2.76324C34.0885 2.95389 34.5568 3.07521 35.7023 3.56904C36.5541 3.93624 37.4322 4.37051 38.1324 4.82109C38.8325 5.27167 39.3295 5.76524 39.4732 6.03719C40.7353 8.43065 44.6585 15.3962 45.3528 16.631L40.6936 19.3487L37.9949 14.8523C37.8771 14.6563 37.7003 14.5026 37.4898 14.4132C37.2793 14.3239 37.0459 14.3035 36.8231 14.3549C36.6003 14.4063 36.3995 14.5269 36.2494 14.6995C36.0994 14.872 36.0078 15.0877 35.9878 15.3155L34.943 27.5145C34.9423 27.5173 34.9416 27.5202 34.9409 27.523C34.9067 27.9576 34.8958 28.392 34.9028 28.8258C34.9169 29.7427 35.0215 30.6561 35.2137 31.5541L35.2074 31.5308L37.923 45.7285H10.2213L12.9369 31.5308L12.9306 31.5541C13.1229 30.6561 13.2274 29.7427 13.2415 28.8258C13.2485 28.39 13.2361 27.9559 13.2034 27.5251C13.2027 27.5216 13.202 27.5181 13.2013 27.5145L12.1565 15.3155C12.1365 15.0877 12.045 14.872 11.8949 14.6995C11.7449 14.5269 11.544 14.4063 11.3212 14.3549C11.0984 14.3035 10.865 14.3239 10.6545 14.4132C10.444 14.5026 10.2672 14.6563 10.1494 14.8523L7.45075 19.3487L2.79151 16.631C3.48587 15.3962 7.40898 8.43065 8.67108 6.03719C8.81486 5.76524 9.31181 5.27167 10.012 4.82109C10.7121 4.37051 11.5903 3.93624 12.442 3.56904C13.5875 3.07521 14.0558 2.95389 14.6437 2.76324Z" fill="black"/>
</svg>
