<svg width="38" height="25" viewBox="0 0 38 25" fill="none" xmlns="http://www.w3.org/2000/svg">
<path d="M19 0.3125C14.3687 0.3125 10.0045 1.05457 6.73883 2.4202C3.77008 3.66707 2.07812 5.27031 2.07812 6.84375C2.07812 8.32812 3.56262 9.84207 6.2048 11.0296C6.56105 11.2077 7.00648 11.208 7.36273 11.0893C10.5393 9.87211 14.6359 9.21875 19 9.21875C23.4234 9.21875 27.5795 9.90156 30.7857 11.1484C31.0529 11.2375 31.3501 11.2375 31.5876 11.1484C34.3486 9.93125 35.9219 8.38738 35.9219 6.87332C35.9219 5.29988 34.2299 3.69664 31.2612 2.44977C27.9955 1.05446 23.6313 0.3125 19 0.3125ZM0.890625 9.57477C0.771875 9.57477 0.534607 9.63414 0.386169 9.87164C0.326794 9.99039 0.296875 10.1095 0.296875 10.2282V15.75C0.296875 19.55 5.72946 22.6674 13.4185 23.7065C13.7748 23.7659 14.0125 23.3498 13.8047 23.0826C13.1516 22.0732 12.7656 20.8859 12.7656 19.6094C12.7656 18.0656 13.3296 16.6409 14.2796 15.5424C14.4874 15.3049 14.3388 14.9186 14.0123 14.8889C8.19352 14.1764 3.5625 12.3358 1.48438 9.84207C1.33594 9.66395 1.12813 9.57477 0.890625 9.57477ZM37.1094 9.60492C36.8719 9.57523 36.6641 9.69352 36.5156 9.87164C33.8734 12.9888 27.1047 15.1562 19 15.1562L18.4062 15.2154C16.2391 15.5123 14.5469 17.3828 14.5469 19.6094C14.5469 21.7172 16.0016 23.4686 17.9609 23.9436L19 24.0625C29.4797 24.0625 37.7031 20.4109 37.7031 15.75V10.2282C37.7031 10.1095 37.6732 9.99086 37.6138 9.90179C37.4654 9.66429 37.2281 9.60492 37.1094 9.60492ZM28.2031 18.125C28.7078 18.125 29.0938 18.5109 29.0938 19.0156C29.0938 19.5203 28.7078 19.9062 28.2031 19.9062C27.6984 19.9062 27.3125 19.5203 27.3125 19.0156C27.3125 18.5109 27.6984 18.125 28.2031 18.125ZM23.4531 19.0156C23.9578 19.0156 24.3438 19.4016 24.3438 19.9062C24.3438 20.4109 23.9578 20.7969 23.4531 20.7969C22.9484 20.7969 22.5625 20.4109 22.5625 19.9062C22.5625 19.4016 22.9484 19.0156 23.4531 19.0156ZM19 19.3125C19.5047 19.3125 19.8906 19.6984 19.8906 20.2031C19.8906 20.7078 19.5047 21.0938 19 21.0938C18.4953 21.0938 18.1094 20.7078 18.1094 20.2031C18.1094 19.6984 18.4953 19.3125 19 19.3125Z" fill="black"/>
</svg>
