<svg width="34" height="38" viewBox="0 0 34 38" fill="none" xmlns="http://www.w3.org/2000/svg">
<path d="M12.5703 0.598449C12.5201 0.597377 12.4699 0.601039 12.4203 0.609386C8.75824 0.660384 5.70586 1.82667 3.57344 3.87501C1.39271 5.96975 0.203125 8.95513 0.203125 12.4C0.203125 14.9414 1.14357 16.9216 2.18125 18.7766C3.21893 20.6316 4.35028 22.3922 4.96875 24.6391V24.6344C5.68333 27.2936 6.18986 30.337 6.975 32.7922C7.36757 34.0198 7.8241 35.1082 8.48281 35.9531C9.14153 36.7981 10.0888 37.4 11.2078 37.4C12.3014 37.4 13.3074 36.9883 13.9656 36.1938C14.6239 35.3992 14.9234 34.3041 14.9234 33.0063C14.9234 29.8175 15.568 25.593 16.2203 21.9453C16.3306 21.4213 16.6637 21.2656 17.0297 21.2656C17.3967 21.2656 17.695 21.3976 17.7813 21.9172L17.7828 21.9234V21.9297C18.4354 25.5044 19.0828 29.8123 19.0828 33.0063C19.0828 34.3037 19.3825 35.3992 20.0406 36.1938C20.6988 36.9884 21.7047 37.4 22.7984 37.4C23.9203 37.4 24.8672 36.7911 25.525 35.9406C26.1828 35.0902 26.6389 33.9958 27.0313 32.7641C27.8157 30.3016 28.3242 27.2582 29.0375 24.6391C29.656 22.3922 30.7873 20.6316 31.825 18.7766C32.8622 16.9223 33.8023 14.9426 33.8031 12.4031C33.8396 8.95899 32.6682 5.97161 30.4969 3.87657C28.3242 1.78023 25.1858 0.600011 21.4125 0.600011C19.7733 0.600011 18.3259 0.820816 17.0391 1.24064C15.7523 0.820817 14.3049 0.600011 12.6656 0.600011C12.656 0.600011 12.6471 0.601558 12.6375 0.601574C12.6152 0.599591 12.5927 0.598548 12.5703 0.598449ZM21.4125 2.20001C24.8552 2.20001 27.5494 3.25608 29.3859 5.02814C31.2225 6.8002 32.2371 9.3111 32.2031 12.3906V12.3953V12.4C32.2031 14.5518 31.4313 16.202 30.4281 17.9953C29.425 19.7887 28.1873 21.6945 27.4938 24.2141V24.2156C26.749 26.9495 26.2357 29.9931 25.5078 32.2781C25.1439 33.4206 24.72 34.3654 24.2594 34.9609C23.7988 35.5564 23.3894 35.8 22.7984 35.8C22.0697 35.8 21.6177 35.589 21.2734 35.1735C20.9292 34.7579 20.6828 34.0552 20.6828 33.0063C20.6828 29.6039 20.0181 25.2649 19.3594 21.6547C19.1536 20.4143 18.0657 19.6656 17.0297 19.6656C15.9937 19.6656 14.9086 20.391 14.6531 21.6234L14.65 21.6344L14.6484 21.6453C13.9898 25.3263 13.3234 29.6002 13.3234 33.0063C13.3234 34.0556 13.077 34.758 12.7328 35.1735C12.3887 35.5889 11.9366 35.8 11.2078 35.8C10.614 35.8 10.2034 35.5584 9.74375 34.9688C9.28409 34.3792 8.86217 33.4421 8.49844 32.3047C7.77098 30.0299 7.25789 26.9868 6.51406 24.2188L6.5125 24.2172V24.2141C5.81901 21.6946 4.58125 19.7885 3.57813 17.9953C2.575 16.2021 1.80313 14.5522 1.80313 12.4C1.80313 9.31849 2.83634 6.80336 4.68281 5.0297C6.51292 3.27175 9.17755 2.22166 12.5766 2.20314C15.4135 2.41764 17.8898 3.70354 19.6406 5.73595C19.7085 5.81787 19.7919 5.88545 19.8862 5.93473C19.9804 5.984 20.0836 6.014 20.1896 6.02294C20.2955 6.03189 20.4023 6.01962 20.5034 5.98685C20.6046 5.95407 20.6982 5.90145 20.7789 5.83206C20.8595 5.76268 20.9254 5.67791 20.9729 5.58273C21.0204 5.48755 21.0484 5.38386 21.0553 5.27772C21.0622 5.17159 21.0479 5.06514 21.0132 4.9646C20.9785 4.86407 20.924 4.77146 20.8531 4.6922C20.1271 3.84936 19.2852 3.12187 18.3594 2.5172C19.2597 2.31166 20.2726 2.20001 21.4125 2.20001Z" fill="black"/>
</svg>
