<svg width="26" height="41" viewBox="0 0 26 41" fill="none" xmlns="http://www.w3.org/2000/svg">
<path d="M20.9999 0L16.9999 8L19.9999 7L15.9999 15L24.9999 5L21.9999 6L25.8417 0H20.9999ZM12.9999 3C9.26587 3 5.85535 4.27409 3.64635 6.49609C1.89935 8.25209 0.984867 10.5029 0.999867 13.0059C1.00287 13.5559 1.44987 14 1.99987 14H2.00573C2.55773 13.997 3.00287 13.5461 2.99987 12.9941C2.98887 11.0361 3.70327 9.27725 5.06627 7.90625C6.90227 6.05925 9.79387 5 12.9999 5C13.3259 5 13.6496 5.01873 13.9706 5.05273C13.9746 4.30973 13.9783 3.63373 13.9823 3.05273C13.6573 3.02473 13.3309 3 12.9999 3ZM10.9335 7.94727C10.8101 7.94963 10.6883 7.97479 10.5741 8.02148C7.71498 9.14372 5.66588 11.9386 5.66588 15.168C5.66588 15.8789 5.25593 16.3646 4.60338 17.0605C3.95083 17.7565 2.99791 18.647 2.99791 20.0566C2.99791 21.3008 3.89962 22.3209 5.01549 22.6934C5.29977 22.7882 5.77171 23.0201 6.09362 23.2949C6.41552 23.5697 6.55455 23.8157 6.55455 24.0566C6.55455 24.1652 6.54886 24.1583 6.50768 24.2129C6.46647 24.2675 6.35463 24.3678 6.16588 24.4863C5.78839 24.7234 5.13139 24.9739 4.53502 25.5703C3.63014 26.4752 2.99791 27.6009 2.99791 28.9453C2.99791 31.4466 5.05322 33.502 7.55455 33.502C7.68707 33.5038 7.81863 33.4793 7.9416 33.4299C8.06457 33.3805 8.17649 33.3072 8.27086 33.2141C8.36523 33.1211 8.44016 33.0102 8.49131 32.8879C8.54246 32.7657 8.5688 32.6345 8.5688 32.502C8.5688 32.3694 8.54246 32.2382 8.49131 32.116C8.44016 31.9937 8.36523 31.8828 8.27086 31.7898C8.17649 31.6967 8.06457 31.6234 7.9416 31.574C7.81863 31.5246 7.68707 31.5001 7.55455 31.502C6.14388 31.502 4.99791 30.356 4.99791 28.9453C4.99791 28.1557 5.25397 27.6795 5.94909 26.9844C6.15272 26.7807 6.65232 26.5426 7.23034 26.1797C7.51934 25.9982 7.83628 25.7717 8.10338 25.418C8.37049 25.0643 8.55455 24.5701 8.55455 24.0566C8.55455 23.0536 7.98154 22.2764 7.39245 21.7734C6.80335 21.2705 6.16403 20.969 5.6483 20.7969C5.16418 20.6353 4.99791 20.4125 4.99791 20.0566C4.99791 19.5993 5.38142 19.154 6.06237 18.4277C6.74331 17.7015 7.66588 16.6791 7.66588 15.168C7.66588 12.7893 9.19567 10.7125 11.3046 9.88477C11.5264 9.80248 11.7119 9.64422 11.828 9.43809C11.9442 9.23197 11.9835 8.99134 11.939 8.75896C11.8945 8.52659 11.769 8.31752 11.5849 8.1689C11.4008 8.02029 11.17 7.94176 10.9335 7.94727ZM24.621 12.123C24.032 12.464 23.4234 12.8198 22.8104 13.1758C22.9304 13.7718 22.9999 14.38 22.9999 15C22.9999 21.104 21.5601 22.7662 18.9471 25.7832C17.0231 28.0062 14.6291 30.7739 11.9471 36.2109C11.1001 37.9059 9.23041 39 7.18541 39C4.90641 39 2.66076 37.1616 1.96276 34.7246C1.80976 34.1936 1.25248 33.8861 0.724477 34.0391C0.193476 34.1911 -0.113071 34.7444 0.0389287 35.2754C0.98893 38.5914 3.99441 41 7.18541 41C9.98141 41 12.5521 39.4706 13.7381 37.0996C16.3081 31.8886 18.6108 29.2297 20.4608 27.0938C23.1938 23.9357 24.9999 21.85 24.9999 15C24.9999 14.011 24.859 13.049 24.621 12.123Z" fill="black"/>
</svg>
