<svg width="48" height="26" viewBox="0 0 48 26" fill="none" xmlns="http://www.w3.org/2000/svg">
<path d="M23.9961 0C10.6641 0 0.246094 12.3438 0.246094 12.3438C-0.0820312 12.7188 -0.0820312 13.2812 0.246094 13.6562C0.246094 13.6562 10.6641 26 23.9961 26C37.3281 26 47.7461 13.6562 47.7461 13.6562C48.0742 13.2812 48.0742 12.7188 47.7461 12.3438C47.7461 12.3438 37.3281 0 23.9961 0ZM23.9961 2C26.625 2 29.1367 2.54297 31.4648 3.375C33.0273 5.14062 33.9961 7.44922 33.9961 10C33.9961 15.5352 29.5312 20 23.9961 20C18.4609 20 13.9961 15.5352 13.9961 10C13.9961 7.44922 14.9336 5.14062 16.4961 3.375C18.832 2.53906 21.3594 2 23.9961 2ZM13.1836 4.84375C12.4336 6.40625 11.9961 8.15625 11.9961 10C11.9961 16.6172 17.3789 22 23.9961 22C30.6133 22 35.9961 16.6172 35.9961 10C35.9961 8.16406 35.5781 6.40625 34.8398 4.84375C40.4883 7.71484 44.5508 11.8789 45.5898 13C43.9648 14.7578 34.9688 24 23.9961 24C13.0234 24 4.02734 14.7578 2.40234 13C3.44141 11.875 7.52344 7.71484 13.1836 4.84375ZM23.9961 5C21.2344 5 18.9961 7.23828 18.9961 10C18.9961 12.7617 21.2344 15 23.9961 15C26.7578 15 28.9961 12.7617 28.9961 10C28.9961 7.23828 26.7578 5 23.9961 5Z" fill="black"/>
</svg>
