<svg width="36" height="36" viewBox="0 0 36 36" fill="none" xmlns="http://www.w3.org/2000/svg">
<path d="M25.8482 0.400024C19.8575 0.400024 16.9357 4.71877 15.2607 7.9719L8.81692 20.4625C8.35754 21.275 8.28254 22.2344 8.57629 23.0906L6.53567 25.1375C4.76692 23.9969 2.31379 24.3125 1.05129 26.2125C0.251293 27.4156 0.188793 28.9719 0.851293 30.2406C1.31692 31.1344 2.05129 31.7438 2.84504 32.0719C2.97942 33.2375 3.63567 34.375 4.78879 35.0625C6.06692 35.8219 7.68254 35.7906 8.92942 34.9906C10.6982 33.8563 11.1419 31.7031 10.3607 29.975L12.7857 27.55C12.8107 27.5531 12.8357 27.5625 12.8638 27.5656C13.02 27.5906 13.1732 27.6 13.3294 27.6C14.0357 27.6 14.7138 27.3719 15.2857 26.9406C15.7419 26.6688 19.9575 24.1844 21.7357 23.5969L25.4575 22.2469C27.4544 21.5219 29.3107 20.5031 30.8232 19.2969C35.1357 15.8469 35.6013 11.7031 35.6013 10.0844C35.6013 4.74377 31.2263 0.400024 25.8482 0.400024ZM9.42629 24.5063L10.6857 26.25C10.845 26.475 11.0325 26.6625 11.2388 26.8344L8.38567 29.6875L8.76692 30.2344C9.51692 31.3094 9.32317 32.8375 8.06692 33.6438C7.34192 34.1094 6.34504 34.125 5.60754 33.6875C4.87004 33.2469 4.50129 32.5844 4.42629 31.8719V31.8688C4.36379 31.3 3.99192 30.8156 3.47004 30.6H3.46692C2.97942 30.4031 2.56692 30.0656 2.27004 29.5C1.87942 28.7531 1.92317 27.7906 2.38254 27.1C3.27942 25.75 5.03879 25.6438 6.09817 26.7031L6.66379 27.2688L9.42629 24.5063Z" fill="black"/>
</svg>

