<svg width="38" height="38" viewBox="0 0 38 38" fill="none" xmlns="http://www.w3.org/2000/svg">
<path d="M18.9984 0C15.6243 0 12.5756 0.490986 10.2292 1.37019C9.05879 1.8098 8.04828 2.35787 7.26042 3.0601C6.47256 3.76232 5.84455 4.71575 5.84455 5.84615V10.2308C5.84455 13.0454 9.40705 14.8894 13.883 15.6659C14.8079 15.8885 16.0753 11.5553 16.0753 11.5553V19.137C14.2998 20.0105 12.9696 21.5805 12.0561 23.0192C11.1883 24.3837 10.7202 25.5084 10.4119 26.3077C8.61919 25.5198 6.86078 25.0231 5.38782 24.8918C4.55429 24.8176 3.77784 24.8804 3.10417 25.0745C2.43049 25.2686 1.78536 25.674 1.45994 26.3534L0.226762 29.0024C-0.875101 31.3089 2.50471 34.3861 6.4383 36.2644C10.3719 38.1427 14.9278 38.845 16.0296 36.5385L17.3085 33.9351C17.3142 33.9237 17.3028 33.9008 17.3085 33.8894C17.3656 33.7695 17.3941 33.6553 17.3998 33.524C17.5426 32.9474 17.4855 32.3594 17.2628 31.8341C16.9888 31.189 16.5606 30.561 15.984 29.9615C15.2247 29.168 14.1856 28.3915 13.0152 27.6779C13.1808 27.1926 13.6204 25.9937 14.5224 24.5721C15.2132 23.4817 16.0411 22.4997 17.0345 21.9231H20.9623C21.9386 22.5111 22.7322 23.5216 23.383 24.6178C24.2736 26.125 24.6847 27.4153 24.7989 27.8149C23.7027 28.5057 22.7322 29.2136 22.0128 29.9615C21.4362 30.561 21.008 31.2347 20.734 31.8798C20.5113 32.4108 20.4485 32.9588 20.597 33.524C20.6027 33.6553 20.6312 33.7695 20.6883 33.8894L21.9671 36.5385C23.069 38.845 27.6249 38.1427 31.5585 36.2644C35.4921 34.3861 38.8719 31.3089 37.77 29.0024L36.5369 26.3534C36.2114 25.674 35.5663 25.3143 34.8926 25.1202C34.219 24.9261 33.4425 24.8633 32.609 24.9375C31.0732 25.0688 29.2691 25.5598 27.4022 26.399C27.1282 25.5826 26.6943 24.4579 25.895 23.1106C25.0272 21.6433 23.7141 20.0733 21.9215 19.1827V11.5553C21.9215 11.5553 23.109 15.86 24.2051 15.6202C28.6411 14.838 32.1522 13.0282 32.1522 10.2308V5.84615C32.1522 4.71575 31.5242 3.76232 30.7364 3.0601C29.9485 2.35787 28.938 1.8098 27.7676 1.37019C25.4212 0.490986 22.3725 0 18.9984 0ZM18.9984 2.92308C22.0813 2.92308 24.8731 3.40264 26.7628 4.11058C27.7048 4.46454 28.4242 4.90415 28.8181 5.2524C29.212 5.60066 29.2292 5.76623 29.2292 5.84615C29.2292 5.92608 29.212 6.09165 28.8181 6.4399C28.4242 6.78816 27.7048 7.22777 26.7628 7.58173C24.8731 8.28966 22.0813 8.76923 18.9984 8.76923C15.9155 8.76923 13.1237 8.28966 11.234 7.58173C10.292 7.22777 9.57262 6.78816 9.17869 6.4399C8.78476 6.09165 8.76763 5.92608 8.76763 5.84615C8.76763 5.76623 8.78476 5.60066 9.17869 5.2524C9.57262 4.90415 10.292 4.46454 11.234 4.11058C13.1237 3.40264 15.9155 2.92308 18.9984 2.92308ZM4.29167 26.8101C4.56 26.7873 4.86829 26.7816 5.20513 26.8101C6.54107 26.9243 8.37941 27.4781 10.2292 28.363C12.0789 29.2479 13.6375 30.3212 14.5681 31.2861C15.0363 31.7713 15.2989 32.2395 15.4359 32.5649C15.5729 32.8903 15.5501 33.0216 15.5272 33.0673C15.5044 33.113 15.453 33.2443 15.1162 33.3413C14.7793 33.4384 14.2313 33.4441 13.5633 33.387C12.2274 33.2728 10.4347 32.7647 8.58494 31.8798C6.73518 30.9949 5.13091 29.8759 4.20032 28.9111C3.73217 28.4258 3.42388 28.0033 3.28686 27.6779C3.14984 27.3525 3.17268 27.2212 3.19551 27.1755C3.21835 27.1298 3.3154 27.0442 3.65224 26.9471C3.82352 26.9014 4.02334 26.8329 4.29167 26.8101ZM32.7917 26.8558C33.4596 26.7987 34.0077 26.8501 34.3446 26.9471C34.6814 27.0442 34.7328 27.1298 34.7556 27.1755C34.7784 27.2212 34.847 27.3525 34.7099 27.6779C34.5729 28.0033 34.2646 28.4715 33.7965 28.9567C32.8659 29.9216 31.3073 30.9949 29.4575 31.8798C27.6078 32.7647 25.7694 33.3185 24.4335 33.4327C23.7655 33.4898 23.2174 33.4384 22.8806 33.3413C22.5438 33.2443 22.4924 33.113 22.4696 33.0673C22.4467 33.0216 22.3782 32.8903 22.5152 32.5649C22.6522 32.2395 22.9605 31.817 23.4287 31.3317C24.3593 30.3669 25.9635 29.2936 27.8133 28.4087C29.6631 27.5237 31.4557 26.97 32.7917 26.8558Z" fill="black"/>
</svg>
