<svg width="713" height="275" viewBox="0 0 713 275" fill="none" xmlns="http://www.w3.org/2000/svg">
<path d="M147.861 188.3C118.761 191 54.5605 201.8 40.4605 205.1C36.5605 206 32.9605 207.2 29.0605 208.1C38.0605 161.9 111.561 20.9 126.861 5.89999C128.661 4.39999 120.861 0.199994 119.361 2C101.961 20.6 29.0605 160.4 21.5605 210.2C20.6605 210.2 20.0605 210.5 19.1605 210.8C15.5605 212 11.9605 212.9 8.36055 214.7C6.56054 215.6 4.46055 216.2 2.06054 218.6C1.46055 219.8 0.560546 220.7 0.860545 223.1C0.860545 224 1.46055 225.2 2.06054 225.8C2.36055 226.1 2.66055 226.7 3.26055 227C5.06055 228.5 5.66055 228.2 7.16055 228.8C9.26055 229.7 11.6605 222.2 11.6605 222.2C14.6605 221 17.9605 219.8 21.5605 218.6C28.1605 216.5 35.3605 214.4 42.2605 212.6C56.3605 209.3 119.661 197 148.461 194C149.961 193.7 149.361 188.3 147.861 188.3ZM183.16 139.1C157.36 158.6 148.96 156.8 152.56 146.3C153.76 141.8 156.76 134.6 158.26 129.8C158.56 128.9 155.86 125.9 153.76 127.1C145.96 140.9 139.36 146.9 129.16 152.6C121.96 156.8 129.16 140.6 134.86 133.1C134.86 133.1 131.56 128 129.46 129.5C126.46 131.9 119.56 146.3 119.26 150.2C118.06 164.6 137.26 153.5 146.56 143.6C139.36 163.4 159.16 161.6 184.36 140.3C184.66 140 183.76 138.8 183.16 139.1ZM250.866 139.4C221.466 159.2 210.066 168.5 197.766 140.3C201.966 136.7 205.566 133.7 210.066 131C218.766 125.3 225.966 125.3 225.966 125.3C226.866 125.3 226.866 121.7 225.966 121.7C218.766 121.7 213.366 125 208.266 128.3C203.766 131.3 200.466 134.3 196.566 137.6C195.066 134.3 192.966 128.6 191.466 125.9C189.366 122 184.866 128.9 185.766 130.4C187.566 134.3 189.666 137.3 191.166 141.8C183.066 149.6 175.866 157.4 168.666 165.8C168.366 166.1 168.366 167 168.966 167.3C169.266 167.6 169.866 167.6 170.166 167C177.366 159.2 184.266 151.7 192.366 144.5C207.066 179 230.466 155.3 251.466 140.6C251.766 140.3 251.166 139.1 250.866 139.4ZM308.55 139.1C282.75 158.6 274.35 156.8 277.95 146.3C279.15 141.8 282.15 134.6 283.65 129.8C283.95 128.9 281.25 125.9 279.15 127.1C271.35 140.9 264.75 146.9 254.55 152.6C247.35 156.8 254.55 140.6 260.25 133.1C260.25 133.1 256.95 128 254.85 129.5C251.85 131.9 244.95 146.3 244.65 150.2C243.45 164.6 262.65 153.5 271.95 143.6C264.75 163.4 284.55 161.6 309.75 140.3C310.05 140 309.15 138.8 308.55 139.1ZM365.457 139.4C341.457 155 321.057 160.7 328.557 148.1C333.357 140.3 331.857 137 317.457 134C318.057 133.1 325.557 125 323.157 119.9C322.557 118.4 320.757 117.8 318.657 118.4C314.457 119.6 310.257 124.7 308.757 127.4C308.457 128.3 307.257 131 307.557 133.1C308.157 135.8 310.857 136.4 312.357 136.7C312.657 137.3 313.257 137.6 313.857 137.6C314.757 137.3 314.757 137 315.357 136.7C326.157 138.5 325.257 141.5 323.757 144.5C321.357 149 319.857 152.3 320.157 154.7C321.657 168.2 356.157 147.2 366.057 140.6H366.357C366.657 140.3 365.757 139.1 365.457 139.4ZM313.257 133.4C309.357 133.4 318.657 121.1 320.457 122.3C322.557 123.2 316.857 131.3 313.257 133.4ZM434.801 139.1C434.801 138.5 412.301 153.8 399.401 163.4C401.201 157.4 405.401 139.1 405.401 139.1C407.501 129.2 407.801 126.8 401.201 126.8C389.801 141.2 367.901 158 367.001 151.1C368.201 144.5 372.101 138.5 374.201 132.5H374.501C375.101 131 369.101 128 368.501 129.8C364.301 137.9 357.401 152.9 364.901 156.8C373.901 161 400.901 133.7 400.901 133.7C400.601 134.9 391.001 167.9 390.401 170C357.701 194 325.001 231.5 321.101 256.1C318.101 274.7 336.701 272.9 345.401 266.9C351.701 262.7 357.101 257.3 361.601 251.3C370.301 239 376.601 225.5 382.301 212.3C387.701 199.1 394.001 182.3 397.901 168.8C410.201 157.7 435.401 140.6 435.401 140.6C435.401 140.6 435.101 139.4 434.801 139.1ZM376.001 209.6C370.601 222.8 364.001 235.7 356.201 247.4C352.301 253.1 349.901 257 344.501 260.9C331.601 271.1 321.101 266.9 328.901 247.4C335.201 230.9 357.401 200.6 388.601 175.7C385.001 185.9 379.901 199.4 376.001 209.6ZM594.931 188.3C565.831 191 501.631 201.8 487.531 205.1C483.631 206 480.031 207.2 476.131 208.1C485.131 161.9 558.631 20.9 573.931 5.89999C575.731 4.39999 567.931 0.199994 566.431 2C549.031 20.6 476.131 160.4 468.631 210.2C467.731 210.2 467.131 210.5 466.231 210.8C462.631 212 459.031 212.9 455.431 214.7C453.631 215.6 451.531 216.2 449.131 218.6C448.531 219.8 447.631 220.7 447.931 223.1C447.931 224 448.531 225.2 449.131 225.8C449.431 226.1 449.731 226.7 450.331 227C452.131 228.5 452.731 228.2 454.231 228.8C456.331 229.7 458.731 222.2 458.731 222.2C461.731 221 465.031 219.8 468.631 218.6C475.231 216.5 482.431 214.4 489.331 212.6C503.431 209.3 566.731 197 595.531 194C597.031 193.7 596.431 188.3 594.931 188.3ZM613.709 139.7C599.309 149.3 581.309 158.3 577.709 152.6C577.409 150.8 578.009 147.8 578.909 145.1C580.709 139.7 582.209 137.9 585.209 132.8C585.209 132.5 585.209 132.5 585.509 132.2C586.109 130.4 582.509 122 578.009 129.8C575.009 135.2 573.809 137.9 572.309 144.5C570.509 150.8 572.009 157.4 578.609 158C584.909 158.6 599.609 151.7 614.609 140.9C615.209 140.6 614.309 139.4 613.709 139.7ZM593.009 117.2C593.309 116.3 592.709 111.8 590.609 113.9C588.209 116 584.009 118.1 583.409 119.3C582.509 121.7 592.409 120.2 593.009 117.2ZM661.925 139.1C650.525 141.2 638.825 143.6 627.125 146.6C624.125 147.5 621.125 148.4 617.825 149.3C619.625 145.4 621.125 141.5 622.925 137.6C631.625 127.1 640.325 116.6 648.125 105.5C650.525 102.5 652.625 99.5 654.725 96.2C656.525 92.9 658.625 89.9 659.225 84.8C659.225 83.6 658.625 81.8 657.125 80.9C655.625 80 653.825 80 652.625 80.3C650.225 81.2 648.425 82.7 647.225 83.9C644.225 86.9 641.825 89.9 639.725 92.9C627.125 111.5 617.525 131.6 609.125 152C606.725 152.9 604.025 153.8 601.625 155.3C600.125 155.9 598.925 156.8 597.425 158.6C596.825 159.2 596.525 161.6 597.425 162.5C598.325 163.7 599.225 164 599.825 164.6V164.3C601.025 165.2 602.225 166.4 603.125 167.6C602.225 169.7 601.325 171.8 600.725 174.2C595.625 188.3 590.825 202.4 587.225 217.1C585.725 224.6 583.925 232.1 583.325 239.6C583.025 243.8 582.125 247.1 584.225 252.5C584.525 253.4 585.125 254.3 586.325 255.2C587.825 256.1 589.325 255.8 590.525 255.5C592.325 254.9 593.225 254 594.125 253.1C595.625 251.3 596.525 249.8 597.725 248C605.225 234.2 610.025 219.8 612.425 204.8C613.925 197.3 614.225 189.5 613.025 181.7C612.425 178.1 611.525 173.9 609.725 170.6C611.825 164.6 613.925 158.9 616.325 153.2C620.225 151.7 624.125 150.5 628.025 149.3C639.425 146.3 650.825 143.3 662.525 140.6C662.825 140.6 662.525 139.1 661.925 139.1ZM643.925 95.6C645.725 92.6 647.825 89.6 650.225 87.2C651.425 86 652.925 84.8 653.825 84.5C655.025 84.5 655.025 84.2 655.025 85.1C655.025 87.8 653.225 91.4 651.425 94.4C649.625 97.4 647.525 100.7 645.425 103.7C640.325 110.6 634.925 117.5 628.925 124.1C633.725 114.5 638.525 104.9 643.925 95.6ZM601.925 161.3H601.625C601.025 161 600.425 160.7 600.425 160.4C600.425 160.4 600.425 160.7 600.425 160.4C601.025 159.8 602.225 158.9 603.425 158.3C604.625 157.4 606.125 156.8 607.325 156.2C606.425 158.9 605.525 161.3 604.625 163.7C603.725 162.8 602.825 161.9 601.925 161.3ZM607.625 203.9C604.925 218 600.125 232.7 592.325 244.7C591.725 245.6 590.825 246.8 590.225 247.7C589.925 245.6 590.225 242.9 590.525 240.5C591.425 233.3 592.925 226.1 594.725 218.9C598.025 204.5 602.525 190.4 607.325 176.6V176.3C607.925 178.4 608.525 180.2 608.525 182.3C609.425 189.5 608.825 196.7 607.625 203.9ZM710.579 137.9C691.979 152.6 656.279 164.3 664.079 146.6C670.679 145.1 676.379 143.3 681.779 139.1C691.979 131.3 684.179 127.7 682.679 127.4C681.179 126.8 679.679 126.8 678.179 126.8C674.879 127.4 672.179 128.6 669.779 129.8C664.979 132.8 661.379 137 658.379 141.5C650.279 156.8 660.779 159.5 664.679 159.8C673.979 160.1 690.179 155 711.779 139.1C712.079 138.8 710.879 137.6 710.579 137.9ZM673.379 134.9C675.179 133.4 676.979 132.2 678.779 131.6C682.379 130.4 686.279 131.3 679.679 136.7C677.879 138.5 672.479 141.8 665.579 143.6C667.979 140.6 670.679 137.6 673.379 134.9Z" fill="#A75B41"/>
</svg>
