<svg width="1510" height="759" viewBox="0 0 1510 759" fill="none" xmlns="http://www.w3.org/2000/svg">
<path opacity="0.07" fill-rule="evenodd" clip-rule="evenodd" d="M0.0338956 1.50429C1.99656 -2.72033 42.6005 10.5149 118.418 24.0224C150.747 28.9606 180.854 33.4991 210.894 36.6092C227.999 38.3301 245.269 39.7723 264.91 40.3147C267.008 40.2416 271.58 40.0826 277.765 40.4804C286.15 40.9045 294.42 41.9612 302.492 43.6394C311.956 45.5582 330.208 46.8301 368.19 44.4852C415.523 24.9165 465.697 13.3672 516.072 10.4454C609.183 5.431 684.352 32.8609 770.584 64.3342C798.134 74.3446 820.771 82.6178 850.563 96.5701C861.78 101.835 882.301 111.817 926.718 132.891C939.6 139.615 953.188 145.273 967.336 149.805C992.419 157.176 1012.28 157.779 1011.52 161.894C1011.4 163.942 1005.43 165.104 980.524 172.853C961.711 178.754 959.483 179.786 959.006 181.574C957.478 187.351 977.932 190.658 1007.5 207.139C1020.85 214.442 1033.27 223.412 1058.76 240.716L1074.81 251.741C1077.97 253.947 1082.36 256.928 1085.1 258.74C1102.87 271.018 1121.92 281.754 1142.05 290.825C1154.97 295.213 1176.34 303.258 1174.63 309.654C1172.92 316.05 1151.76 317.264 1135.99 318.358C1099.54 321.263 1079.1 316.524 1077.56 319.848C1076.02 323.172 1086.68 329.001 1135.75 348.619L1229 406.284L1378.29 541.989C1422.45 571.597 1473.67 592.032 1528.78 602.022C1549.64 605.835 1570.94 608.123 1592.49 608.865C1570.72 633.233 1545.5 654.945 1517.59 673.34C1488.51 693.094 1456.43 708.538 1422.67 719.027C1373.76 733.573 1322.71 736.991 1274.22 728.966C1274.05 732.039 1273.79 736.544 1274.22 741.98C1274.61 753.481 1275.69 755.556 1273.87 757.323C1269.85 760.87 1259.72 753.591 1241.49 749.321C1232.91 747.415 1224.04 746.376 1215.04 746.222C1191.57 744.586 1166.13 734.298 1132.53 720.342C1097.48 705.483 1065.4 690.929 1036.2 677.092L1036.36 688.602L1036.48 698.273C1021.78 697.591 1007.31 695.585 993.293 692.282C966.307 685.708 941.258 674.699 919.313 659.769C891.15 641.605 867.304 618.636 848.928 591.972C843.251 590.535 835.83 589.499 831.512 593.056C827.195 596.613 830.812 605.277 827.279 609.488C818.636 619.328 775.557 601.001 775.557 601.001C741.874 587.615 711.067 569.486 684.172 547.222C684.172 547.222 626.122 499.096 596.832 439.884C586.788 419.385 582.902 408.891 582.902 408.891C572.776 381.989 571.601 363.361 565.972 363.693C560.343 364.026 557.271 375.852 555.132 381.855C549.403 398.27 552.464 406.204 549.143 408.023C542.498 411.729 514.836 388.027 482.304 339.694C450.869 293.094 441.815 263.157 411.095 200.18C400.526 178.404 385.018 147.533 364.376 110.982C459.331 119.335 550.249 143.552 632.69 182.446C714.451 221.434 769.427 267.078 815.841 305.525C898.163 373.859 891.064 388.074 975.274 460.022C1038.52 514.031 1093.97 560.613 1180.33 594.943C1278.63 633.9 1370.07 638.415 1371.06 635.587C1372.04 632.759 1295.94 625.393 1200.72 585.171C1114.64 548.309 1059.68 502.529 995.548 448.21C907.385 373.47 918.595 363.2 820.188 277.983C749.43 216.672 707.997 181.39 637.836 150.107C581.997 125.371 522.109 107.821 459.744 97.9171C449.669 96.224 398.489 91.3292 296.133 81.4713C231.344 75.2109 195.848 72.0183 147.805 59.3831C120.817 52.3594 94.4806 43.7881 68.9446 33.7172C41.2803 23.0977 -1.51094 4.96508 0.270469 1.29186" fill="white"/>
</svg>
