<svg width="32" height="32" viewBox="0 0 32 32" fill="none" xmlns="http://www.w3.org/2000/svg">
<path d="M15.9994 0.359985C15.9642 0.360806 15.9291 0.364358 15.8945 0.37061C7.31378 0.428644 0.359375 7.40579 0.359375 16C0.359375 24.6301 7.36925 31.64 15.9994 31.64C24.6295 31.64 31.6394 24.6301 31.6394 16C31.6394 7.40669 24.6864 0.430089 16.107 0.37061C16.0714 0.36422 16.0355 0.360667 15.9994 0.359985ZM15.9994 1.71999C23.8946 1.71999 30.2794 8.10475 30.2794 16C30.2794 23.8952 23.8946 30.28 15.9994 30.28C8.10414 30.28 1.71938 23.8952 1.71938 16C1.71938 8.10475 8.10414 1.71999 15.9994 1.71999ZM10.5594 11.24C10.0183 11.24 9.49945 11.4549 9.11688 11.8375C8.7343 12.2201 8.51937 12.7389 8.51937 13.28C8.51937 13.821 8.7343 14.3399 9.11688 14.7225C9.49945 15.1051 10.0183 15.32 10.5594 15.32C11.1004 15.32 11.6193 15.1051 12.0019 14.7225C12.3844 14.3399 12.5994 13.821 12.5994 13.28C12.5994 12.7389 12.3844 12.2201 12.0019 11.8375C11.6193 11.4549 11.1004 11.24 10.5594 11.24ZM21.4394 11.24C20.8983 11.24 20.3795 11.4549 19.9969 11.8375C19.6143 12.2201 19.3994 12.7389 19.3994 13.28C19.3994 13.821 19.6143 14.3399 19.9969 14.7225C20.3795 15.1051 20.8983 15.32 21.4394 15.32C21.9804 15.32 22.4993 15.1051 22.8819 14.7225C23.2644 14.3399 23.4794 13.821 23.4794 13.28C23.4794 12.7389 23.2644 12.2201 22.8819 11.8375C22.4993 11.4549 21.9804 11.24 21.4394 11.24ZM7.13016 18.712C7.00625 18.7161 6.88582 18.754 6.78189 18.8216C6.67795 18.8891 6.59446 18.9838 6.54045 19.0954C6.48643 19.207 6.46395 19.3312 6.47542 19.4547C6.4869 19.5781 6.53189 19.696 6.60555 19.7958C6.60555 19.7958 10.1627 24.84 15.9994 24.84C21.836 24.84 25.3932 19.7958 25.3932 19.7958C25.4982 19.6489 25.5405 19.4663 25.5109 19.2882C25.4812 19.1101 25.382 18.9511 25.2352 18.8462C25.0883 18.7412 24.9057 18.6989 24.7276 18.7285C24.5495 18.7582 24.3905 18.8573 24.2855 19.0042C24.2855 19.0042 21.0427 23.48 15.9994 23.48C10.956 23.48 7.7132 19.0042 7.7132 19.0042C7.64828 18.9106 7.56087 18.8347 7.45899 18.7837C7.35711 18.7326 7.24404 18.708 7.13016 18.712Z" fill="black"/>
</svg>
