<svg width="405" height="221" viewBox="0 0 405 221" fill="none" xmlns="http://www.w3.org/2000/svg">
<path d="M173 123.894C163.75 123.394 153.5 122.894 144.5 122.644C146.75 115.394 151.75 98.144 151.75 98.144C151.75 98.144 162.5 59.144 165.5 39.144C167.25 28.894 168 10.644 165.25 7.89403C162.75 4.89404 157 0.144038 138.25 19.394C111.5 49.894 89 83.394 66.5 116.894C64.75 119.144 62.25 123.894 60.5 126.394C46.75 127.894 33.75 129.644 20.25 132.894H20C19 133.144 20.25 135.144 21.25 135.144C32.75 133.894 44 133.394 55.25 133.894C37 161.894 18.75 190.144 0.999998 218.394V218.644C0.499999 219.144 4 220.644 4.5 219.894C22.25 190.894 40.75 162.144 59.75 133.644C60.25 133.644 60.25 133.894 60.75 133.894C73.75 134.894 87 136.894 98.5 142.894C109.75 148.894 117.25 160.644 116.5 173.394C116.5 178.394 115.75 183.394 114.5 188.394C111.75 195.894 109.25 203.144 106.5 210.394V210.894C105.75 212.644 112.75 215.144 113.5 213.394C113.5 213.144 113.5 213.144 113.5 213.144C124.75 184.144 134.75 155.644 143.75 125.644C154 125.394 162.25 125.394 172.25 125.144C173.25 125.144 174 123.894 173 123.894ZM121.25 169.644C120.75 167.394 120.25 165.144 120 162.894C118.75 159.644 117.75 156.144 115.5 153.394C112 147.144 106 143.144 100.25 139.644C88.25 133.394 77.75 131.644 64.75 130.644C66.25 127.394 126.5 125.644 136.5 125.644C131.5 140.644 126.5 154.644 121.25 169.644ZM137.25 122.394C123.25 122.394 78 123.894 65.5 125.644C66.75 123.894 68.75 119.894 70 118.144C92.75 85.144 115.25 51.394 142.25 21.644C145.75 18.144 149.25 14.644 153 11.644C156.75 8.64404 159.5 7.14404 161.25 9.64403C163 11.894 162.25 21.144 162.25 23.644C162.25 28.394 161 33.394 160.5 38.394C157.25 57.894 151.5 77.394 145.75 96.394C143.5 104.394 140 114.644 137.25 122.394ZM213.531 108.644C202.781 106.644 189.281 124.394 180.531 137.144C180.281 126.894 181.781 117.894 183.781 112.894C183.781 110.894 178.281 108.894 177.781 110.644C175.781 117.144 174.281 126.394 176.281 146.894C176.281 147.894 178.281 147.394 178.781 146.644C184.531 135.144 204.281 106.894 213.281 109.894C214.031 109.394 214.531 108.894 213.531 108.644ZM257.738 124.144C242.238 136.394 212.488 146.144 218.988 131.394C224.488 130.144 229.238 128.644 233.738 125.144C242.238 118.644 235.738 115.644 234.488 115.394C233.238 114.894 231.988 114.894 230.738 114.894C227.988 115.394 225.738 116.394 223.738 117.394C219.738 119.894 216.738 123.394 214.238 127.144C207.488 139.894 216.238 142.144 219.488 142.394C227.238 142.644 240.738 138.394 258.738 125.144C258.988 124.894 257.988 123.894 257.738 124.144ZM226.738 121.644C228.238 120.394 229.738 119.394 231.238 118.894C234.238 117.894 237.488 118.644 231.988 123.144C230.488 124.644 225.988 127.394 220.238 128.894C222.238 126.394 224.488 123.894 226.738 121.644ZM316.039 125.394C287.289 148.894 289.039 140.394 284.039 127.144C282.039 121.144 275.539 113.894 259.289 130.894C260.289 126.894 265.289 118.894 266.789 117.144C268.039 116.144 265.039 113.894 261.039 116.394C258.789 117.894 253.039 132.144 253.039 138.644C252.789 141.144 256.039 140.894 256.039 140.894C271.789 117.894 276.039 121.894 279.539 133.144C284.539 149.894 293.289 145.394 316.789 126.644C317.289 126.394 316.289 125.144 316.039 125.394ZM363.145 125.144C341.645 141.394 334.645 139.894 337.645 131.144C338.645 127.394 341.145 121.394 342.395 117.394C342.645 116.644 340.395 114.144 338.645 115.144C332.145 126.644 326.645 131.644 318.145 136.394C312.145 139.894 318.145 126.394 322.895 120.144C322.895 120.144 320.145 115.894 318.395 117.144C315.895 119.144 310.145 131.144 309.895 134.394C308.895 146.394 324.895 137.144 332.645 128.894C326.645 145.394 343.145 143.894 364.145 126.144C364.395 125.894 363.645 124.894 363.145 125.144ZM402.758 124.144C387.258 136.394 357.508 146.144 364.008 131.394C369.508 130.144 374.258 128.644 378.758 125.144C387.258 118.644 380.758 115.644 379.508 115.394C378.258 114.894 377.008 114.894 375.758 114.894C373.008 115.394 370.758 116.394 368.758 117.394C364.758 119.894 361.758 123.394 359.258 127.144C352.508 139.894 361.258 142.144 364.508 142.394C372.258 142.644 385.758 138.394 403.758 125.144C404.008 124.894 403.008 123.894 402.758 124.144ZM371.758 121.644C373.258 120.394 374.758 119.394 376.258 118.894C379.258 117.894 382.508 118.644 377.008 123.144C375.508 124.644 371.008 127.394 365.258 128.894C367.258 126.394 369.508 123.894 371.758 121.644Z" fill="#A75B41"/>
</svg>
