<svg width="915" height="557" viewBox="0 0 915 557" fill="none" xmlns="http://www.w3.org/2000/svg">
<g opacity="0.05" clip-path="url(#clip0_367_6644)">
<path d="M204.187 262.924C196.566 263.114 189.004 261.561 182.098 258.39C175.844 255.352 171.366 251.702 168.481 247.598C165.332 242.985 162.956 237.907 161.441 232.556C159.977 228.111 159.01 223.523 158.556 218.873C158.394 215.676 158.233 212.072 158.233 208.081C158.233 191.078 157.275 177.475 155.359 167.646C153.443 157.818 149.589 150.008 143.819 144.532C138.213 139.127 131.163 135.393 123.484 133.763C115.637 132.097 104.592 131.179 90.34 131.179H78.7995V258.141H117.541V261.632H3.72852V258.141H42.4815V15.8701H3.72852V12.5601H119.814C141.903 12.5601 160.795 18.1827 176.49 29.4279C192.185 40.6731 200.029 54.8089 200.021 71.8354C200.021 87.0368 193.466 100.266 180.333 111.364C167.2 122.461 150.074 128.991 128.781 130.975C170.881 138.728 192.016 158.491 192.185 190.261C192.185 214.573 194.108 231.577 197.955 241.273C201.798 251.01 208.999 255.874 219.409 255.874C222.294 255.874 226.772 255.114 232.865 253.742L234.146 256.78C224.518 260.584 214.253 262.595 203.875 262.709L204.187 262.924ZM119.653 128.231C134.863 128.231 146.869 122.609 155.671 111.364C164.476 100.118 168.804 86.8895 168.804 71.8354C168.804 56.7813 164.476 44.0171 155.798 32.874C147.119 21.7308 135.152 16.3122 119.618 16.3122H78.9841V128.095L119.653 128.231Z" fill="black"/>
<path d="M204.186 266.586C195.987 266.76 187.859 265.068 180.436 261.643C173.788 258.401 168.734 254.366 165.433 249.65C162.051 244.704 159.495 239.258 157.862 233.519C156.308 228.804 155.29 223.934 154.827 218.998C154.666 215.597 154.504 211.97 154.504 208.025C154.504 191.248 153.558 177.883 151.688 168.27C149.911 159.133 146.391 152.014 141.233 147.117C136.145 142.154 129.711 138.734 122.699 137.266C114.92 135.611 104.026 134.761 90.3852 134.761H82.5492V254.388H121.291V265.26H0V254.434H38.7415V19.5656H0V8.88721H119.813C142.606 8.88721 162.421 14.8045 178.67 26.4692C195.3 38.3945 203.736 53.6753 203.736 71.8127C203.736 88.1137 196.673 102.34 182.744 114.118C173.004 122.348 161.036 128.22 147.038 131.643C179.351 141.766 195.738 161.423 195.888 190.216C195.888 214.021 197.735 230.73 201.393 239.981C204.648 248.233 210.533 252.246 219.373 252.246C221.774 252.246 225.894 251.577 231.987 250.206L235.068 249.514L239.004 258.877L235.426 260.249C229.642 262.473 223.651 264.139 217.538 265.226L204.14 266.586M199.766 259.104H203.817C206.431 259.102 209.044 258.954 211.641 258.662C203.667 256.61 197.793 251.18 194.423 242.656C190.372 232.454 188.399 215.268 188.399 190.261C188.272 163.69 172.784 146.357 141.163 137.561C142.998 138.876 144.738 140.315 146.368 141.868C152.658 147.842 156.893 156.265 158.97 166.921C160.921 176.976 161.913 190.817 161.913 208.047C161.913 211.834 162.075 215.382 162.236 218.658C162.694 223.021 163.631 227.324 165.029 231.49C166.435 236.468 168.64 241.194 171.561 245.49C174.146 249.174 178.255 252.393 183.759 255.08C188.798 257.432 194.254 258.798 199.824 259.104M46.162 257.891H75.0133V127.461H75.1748V16.2215H46.162V257.891ZM82.7108 124.434L119.64 124.57C133.754 124.57 144.556 119.514 152.692 109.13C160.828 98.7468 165.029 86.1526 165.029 71.8354C165.029 57.5182 161.082 45.6835 152.877 35.1411C144.937 24.9388 134.078 20.0077 119.652 20.0077H82.7223L82.7108 124.434ZM146.08 19.3616C150.994 22.3298 155.299 26.1745 158.774 30.6974C167.891 42.3961 172.507 56.2372 172.507 71.8354C172.507 87.7623 167.833 101.807 158.659 113.597C155.566 117.59 151.855 121.083 147.661 123.946C158.784 121.099 169.121 115.852 177.92 108.586C190.13 98.2707 196.315 85.9145 196.315 71.8354C196.315 55.9651 189.126 42.9969 174.319 32.3865C165.835 26.335 156.261 21.9156 146.103 19.3616" fill="black"/>
<path d="M381.183 265.509C361.16 265.62 341.707 258.964 326.089 246.657C309.481 233.868 296.439 217.157 288.178 198.083C279.323 178.076 274.822 156.473 274.964 134.658C274.969 118.457 277.495 102.352 282.454 86.9004C287.126 71.9032 294.272 57.7607 303.608 45.037C312.639 32.8307 324.208 22.6491 337.548 15.1669C350.827 7.54961 365.945 3.57584 381.321 3.66101C401.598 3.66101 419.959 9.89575 436.566 22.3539C453.173 34.812 465.798 50.9543 474.649 70.7581C483.52 90.7799 488.025 112.404 487.875 134.239C487.801 166.159 477.728 197.283 459.024 223.384C450.134 235.611 438.653 245.802 425.372 253.255C411.992 260.891 396.772 264.864 381.298 264.76L381.183 265.509ZM311.097 143.081C311.097 154.901 311.248 164.487 311.548 171.84C311.979 180.663 312.861 189.46 314.19 198.196C315.652 208.421 317.706 216.734 320.353 223.135C323.216 229.886 327.077 236.185 331.813 241.828C336.773 247.821 343.055 252.628 350.185 255.884C361.056 260.033 371.339 262.119 381.183 261.949C392.051 261.895 402.812 259.837 412.908 255.884C420.088 252.563 426.379 247.641 431.28 241.511C435.981 235.724 439.838 229.322 442.74 222.489C445.383 216.107 447.287 207.752 448.614 197.55C449.941 187.348 450.818 178.54 451.107 171.353C451.395 164.166 451.545 154.576 451.545 142.594V130.51C451.545 115.013 451.107 101.592 450.08 90.2445C449.026 78.8313 447.097 67.5124 444.309 56.3842C441.547 45.1919 437.316 35.9267 431.615 28.5886C426.04 21.3473 418.581 15.7161 410.023 12.2876C400.848 8.9728 391.143 7.29517 381.368 7.33384C372.069 7.44078 362.847 9.00596 354.051 11.9702C345.353 15.2105 337.728 20.7356 332.009 27.9425C326.135 35.2881 321.726 44.7196 318.783 56.0668C315.89 67.285 313.925 78.7149 312.909 90.2445C311.882 101.75 311.444 115.183 311.444 130.668V142.832L311.097 143.081Z" fill="black"/>
<path d="M384.298 269.17H381.182C360.33 269.256 340.077 262.328 323.791 249.537C306.71 236.346 293.287 219.142 284.761 199.511C275.718 179.049 271.1 156.965 271.201 134.659C271.213 118.085 273.797 101.61 278.864 85.8011C283.668 70.4299 290.996 55.933 300.56 42.8834C309.906 30.2722 321.862 19.7452 335.643 11.9932C349.511 4.07446 365.279 -0.0657515 381.32 -0.000210329C402.289 -0.000210329 421.643 6.54059 438.827 19.4408C455.78 32.171 468.97 48.9141 478.064 69.3187C487.112 89.7833 491.73 111.872 491.624 134.183C491.569 166.862 481.269 198.731 462.127 225.459C452.915 238.095 441.045 248.638 427.321 256.372C414.288 263.802 399.569 267.909 384.505 268.32L384.298 269.17ZM351.65 252.552C362.255 256.588 371.915 258.481 381.113 258.322C391.496 258.267 401.777 256.311 411.429 252.552C418.038 249.471 423.829 244.927 428.348 239.278C432.836 233.763 436.515 227.658 439.277 221.14C441.746 215.155 443.593 207.31 444.908 197.131C446.305 186.384 447.113 177.928 447.378 171.251C447.667 164.121 447.817 154.497 447.817 142.639V130.51C447.817 114.436 447.343 101.365 446.363 90.5735C445.341 79.3447 443.459 68.2077 440.731 57.2573C438.076 46.6129 433.991 37.7143 428.602 30.8107C423.411 24.0936 416.48 18.8674 408.533 15.6773C399.816 12.5469 390.602 10.9618 381.32 10.9956C372.447 11.1093 363.648 12.6015 355.25 15.4166C347.207 18.4121 340.162 23.5314 334.893 30.2099C329.388 37.0908 325.164 46.0802 322.348 56.9626C319.5 67.9939 317.57 79.2346 316.578 90.5735C315.597 101.513 315.124 114.64 315.124 130.669V144.272L314.824 144.589C314.824 155.664 314.985 164.812 315.262 171.795C315.551 178.993 316.417 187.733 317.882 197.788C319.29 207.673 321.287 215.767 323.814 221.843C326.535 228.237 330.194 234.207 334.674 239.561C339.248 245.089 345.036 249.53 351.604 252.552M330.392 24.0432C321.252 30.4538 313.225 38.27 306.619 47.1911C297.537 59.6043 290.576 73.3879 286.007 88.0003C281.171 103.102 278.704 118.839 278.691 134.67C278.574 155.979 282.968 177.079 291.593 196.632C299.644 215.11 312.295 231.303 328.384 243.721L328.938 244.141C323.979 238.216 319.931 231.609 316.924 224.53C314.178 217.887 312.02 209.204 310.519 198.741C309.172 189.88 308.279 180.959 307.842 172.01C307.542 164.631 307.392 154.905 307.392 143.104V141.698L307.692 141.381V130.646C307.692 114.39 308.177 101.071 309.169 89.9047C310.195 78.1752 312.195 66.5475 315.147 55.1375C318.228 43.2689 322.902 33.35 329.053 25.6642C329.492 25.0974 329.954 24.5306 330.415 24.0205M432.629 24.0205C433.287 24.78 433.922 25.5509 434.545 26.3557C440.569 34.0755 445.093 43.881 447.99 55.5116C450.812 66.823 452.76 78.3277 453.818 89.9274C454.81 100.935 455.295 114.209 455.295 130.51V142.651C455.295 154.61 455.145 164.336 454.856 171.557C454.568 178.438 453.702 187.11 452.329 198.072C450.956 209.033 448.925 217.343 446.212 223.906C443.458 230.431 439.854 236.577 435.491 242.191C443.356 236.227 450.278 229.152 456.033 221.197C474.257 195.707 484.064 165.33 484.123 134.183C484.231 112.872 479.829 91.7722 471.198 72.2207C462.658 53.0291 450.24 37.2268 434.268 25.2675C433.703 24.8367 433.114 24.4286 432.572 24.0205" fill="black"/>
<path d="M660.139 12.5488H729.163V15.9043H707.028L640.174 147.174V258.492H673.445V261.995H573.943V258.492H604.895V149.77L537.106 15.9043H505.381V12.5488H604.895V15.9043H571.623L637.231 145.349L703.162 15.9043H660.139V12.5488Z" fill="black"/>
<path d="M677.174 265.656H570.216V254.831H601.168V150.62L534.799 19.5656H501.654V8.88721H608.623V19.5656H577.649L637.244 137.164L697.127 19.5656H656.412V8.88721H732.891V19.5656H709.337L643.96 148.035V254.831H677.232L677.174 265.656ZM608.623 258.333H636.447V152.014L567.608 16.2215H541.434L608.623 148.908V258.333Z" fill="black"/>
<path d="M180.966 384.456V384.15H180.689C172.556 333.683 149.579 308.449 111.757 308.449C102.429 308.441 93.1814 310.14 84.487 313.459C76.0671 317.141 68.8378 323.023 63.5872 330.463C58.1632 338.07 54.3548 347.796 52.1967 359.494C50.1504 370.196 48.7897 381.013 48.1229 391.881C47.5805 401.755 47.442 414.224 47.5805 429.29C47.719 436.442 47.719 444.196 47.442 452.551C47.2296 461.561 47.7313 470.574 48.9423 479.507C50.0801 488.572 51.7992 497.556 54.0894 506.408C56.2732 514.76 60.0996 522.612 65.3529 529.521C70.348 536.251 77.0367 541.59 84.764 545.018C93.5983 548.368 102.991 550.071 112.461 550.039C149.906 550.039 172.703 524.704 180.85 474.032H183.839V545.936H181.127V545.63C180.989 539.848 177.053 536.962 169.321 536.969C163.841 536.949 158.455 538.366 153.718 541.073C148.142 544.141 142.384 546.881 136.477 549.28C129.83 552.012 121.694 553.383 111.919 553.383C84.9141 553.383 61.833 541.224 42.6758 516.905C23.5186 492.585 13.9092 463.282 13.8477 428.995V428.689C13.9861 394.636 23.5763 365.45 42.6181 341.13C61.6599 316.811 84.7679 304.648 111.942 304.64C121.855 304.64 129.991 306.012 136.5 308.744C142.355 311.162 148.066 313.906 153.603 316.962C158.392 319.665 163.821 321.081 169.344 321.066C177.076 321.066 181.012 318.175 181.15 312.394H183.862V384.286L180.966 384.456Z" fill="black"/>
<path d="M111.942 557C83.8525 557 59.5828 544.247 39.7908 519.093C20.1951 494.245 10.201 463.921 10.0625 429.007V428.689C10.201 394.024 20.1374 363.814 39.6062 338.898C59.225 313.743 83.5755 300.979 111.896 300.979C122.363 300.979 130.88 302.419 137.92 305.377C143.904 307.852 149.741 310.656 155.404 313.777C159.617 316.155 164.393 317.402 169.252 317.393C177.204 317.393 177.331 314.095 177.331 312.315L177.411 308.733H187.498V387.767L177.192 388.322V386.111L176.961 384.717C169.079 335.86 147.741 312.111 111.711 312.111C102.879 312.112 94.1233 313.714 85.8836 316.838C78.1058 320.253 71.4343 325.704 66.5994 332.595C61.5216 339.702 57.8979 348.986 55.8206 360.175C53.8041 370.723 52.4628 381.384 51.8045 392.097C51.2967 401.29 51.1236 413.454 51.2621 429.267C51.4236 437.395 51.3775 445.058 51.1236 452.664C50.9118 461.47 51.4018 470.279 52.5892 479.009C53.7295 487.921 55.437 496.754 57.7017 505.456C59.7553 513.349 63.3708 520.767 68.342 527.289C72.9362 533.486 79.0818 538.414 86.1836 541.594C94.5599 544.767 103.461 546.393 112.438 546.39C148.087 546.39 169.252 522.584 177.146 473.466L177.642 470.382H187.544V549.609H177.377V545.641C177.377 543.952 177.25 540.642 169.298 540.642C164.467 540.621 159.717 541.869 155.542 544.258C149.837 547.407 143.945 550.216 137.897 552.67C130.718 555.617 122.213 557.057 111.896 557.057M169.298 533.308C174.318 533.308 177.758 534.442 180.089 536.029V494.913C175.296 511.804 168.352 525.071 159.258 534.714C162.524 533.737 165.919 533.244 169.333 533.251M62.5256 325.805C56.2111 331.002 50.5161 336.885 45.5495 343.341C27.0847 366.965 17.6908 395.679 17.5638 428.689V428.984C17.6908 462.232 27.154 491.048 45.688 514.604C50.6585 521.02 56.3579 526.858 62.6756 532.004L62.3179 531.653C56.77 524.367 52.7315 516.083 50.4312 507.269C48.1076 498.267 46.3578 489.132 45.1918 479.916C43.956 470.81 43.4467 461.622 43.6684 452.438C43.9223 444.945 43.9569 437.406 43.8069 429.358C43.6569 413.136 43.8069 401.188 44.3609 391.7C45.0292 380.668 46.4052 369.688 48.4808 358.826C50.7889 346.583 54.7935 336.336 60.4945 328.344C61.1177 327.471 61.7755 326.609 62.4448 325.782M158.346 323.073C167.925 332.799 175.172 346.402 180.089 363.882V322.007C177.781 323.628 174.318 324.728 169.298 324.728C165.58 324.737 161.883 324.167 158.346 323.039" fill="black"/>
<path d="M412.318 496.704V553.383H223.643V549.892H258.899V307.984H223.643V304.64H328.984V307.984H291.974V549.847H338.009C345.031 549.886 352.046 549.427 359.001 548.475C364.663 547.765 370.199 546.301 375.458 544.122C379.982 542.15 384.063 540.173 387.702 538.193C391.172 536.368 394.203 533.832 396.588 530.757C398.897 527.719 400.812 525.146 402.416 523.015C404.154 520.557 405.335 517.763 405.879 514.819C406.602 511.478 407.183 509.049 407.621 507.53C408.129 505.435 408.473 503.305 408.648 501.159C408.937 498.416 409.087 496.897 409.087 496.749L412.318 496.704Z" fill="black"/>
<path d="M416.046 557H219.857V546.185H255.125V311.646H219.904V300.979H332.712V311.646H295.702V546.185H338.009C344.849 546.219 351.683 545.772 358.459 544.848C363.777 544.168 368.975 542.78 373.912 540.722C378.308 538.794 382.325 536.856 385.868 534.94C388.874 533.357 391.502 531.162 393.577 528.502C395.115 526.506 396.469 524.708 397.639 523.106L399.381 520.782C400.811 518.738 401.782 516.42 402.232 513.98C402.982 510.579 403.571 508.074 404.032 506.465C404.476 504.569 404.777 502.645 404.932 500.706C405.198 498.291 405.336 496.852 405.359 496.523V492.884L409.087 493.043H416.011L416.046 557ZM370.796 549.677H408.591V519.002C407.866 521.202 406.791 523.276 405.406 525.146L403.686 527.413C402.474 529.034 401.113 530.814 399.566 532.877C396.864 536.366 393.433 539.245 389.503 541.322C385.775 543.329 381.563 545.369 376.97 547.376C374.961 548.255 372.899 549.012 370.796 549.643M262.627 549.643H288.246V308.336H262.627V549.643Z" fill="black"/>
<path d="M468.37 549.847H498.145V553.338H435.826V549.847H465.035L548.865 304.64H552.224L636.215 549.847H663.913V553.338H574.024V549.847H603.798L579.482 478.374H493.667V476.56L468.37 549.847ZM536.632 350.947L493.933 474.973H578.351L536.632 350.947Z" fill="black"/>
<path d="M667.618 557H570.297V546.185H598.617L576.794 482.002H495.71L473.576 546.185H501.873V557H432.076V546.185H462.335L546.189 300.979H554.902L638.893 546.185H667.618V557ZM607.607 549.677H632.165L550.551 311.238L538.745 345.744L583.522 478.658L607.607 549.677ZM499.126 471.335H573.182L536.529 362.51L499.126 471.335Z" fill="black"/>
<path d="M875.589 307.984H842.872V304.946H911.272V307.984H878.566L878.313 553.338H875.324L732.291 320.431V549.847H764.996V553.338H696.734V549.847H729.44V307.984H696.734V304.64H758.903L875.324 495.797L875.589 307.984Z" fill="black"/>
<path d="M882.041 557H873.224L872.128 555.232L736.019 333.592V546.185H768.725V557H692.996V546.185H725.713V311.646H692.996V300.979H761.016L871.62 482.569L871.851 311.646H839.145V301.285H915.001V311.646H882.295L882.041 557ZM733.169 314.763L874.586 545.052V501.794L756.792 308.336H733.169V314.763Z" fill="black"/>
<path fill-rule="evenodd" clip-rule="evenodd" d="M775.58 261.042C774.876 260.782 777.357 254.513 780.092 242.905C781.119 237.963 782.066 233.36 782.77 228.781C783.162 226.173 783.508 223.543 783.716 220.562C783.716 220.245 783.716 219.553 783.82 218.612C783.941 217.338 784.169 216.075 784.501 214.837C784.882 213.386 785.205 210.609 785.032 204.873C781.996 197.87 780.336 190.366 780.138 182.757C779.838 168.689 784.928 157.058 790.767 143.716C792.625 139.454 794.16 135.951 796.699 131.315C797.657 129.569 799.469 126.372 803.3 119.457C804.515 117.447 805.554 115.338 806.405 113.154C807.801 109.289 808.02 106.274 808.713 106.353C809.059 106.353 809.221 107.248 810.386 110.955C811.275 113.755 811.436 114.084 811.736 114.141C812.706 114.322 813.387 111.193 816.353 106.568C817.668 104.483 819.261 102.521 822.342 98.5085L824.304 95.9806C824.696 95.4818 825.227 94.7904 825.55 94.3596C827.735 91.5606 829.665 88.5792 831.321 85.4496C832.14 83.4545 833.629 80.1444 834.702 80.3484C835.775 80.5525 835.856 83.7492 835.948 86.1298C836.225 91.6277 835.302 94.7677 835.856 94.9717C836.41 95.1758 837.46 93.5094 841.072 85.903L851.39 71.2684L875.255 47.463C880.531 40.5139 884.294 32.5728 886.311 24.1338C887.08 20.9398 887.593 17.6916 887.846 14.4189C891.845 17.5069 895.374 21.141 898.325 25.2107C901.499 29.4452 903.926 34.174 905.503 39.1992C907.678 46.4853 907.956 54.1913 906.311 61.6102C906.83 61.6102 907.592 61.6102 908.515 61.4969C910.465 61.3382 910.823 61.1568 911.112 61.4175C911.689 61.9957 910.396 63.594 909.565 66.394C909.192 67.7113 908.964 69.0643 908.884 70.4296C908.469 74.0004 906.576 77.9452 904.014 83.1597C901.291 88.601 898.636 93.5888 896.12 98.1345L898.071 98.0098L899.71 97.9077C899.507 100.142 899.082 102.352 898.44 104.505C897.167 108.652 895.155 112.544 892.497 116C889.254 120.426 885.223 124.24 880.598 127.256C880.322 128.129 880.102 129.263 880.679 129.886C881.256 130.51 882.745 129.886 883.437 130.385C885.053 131.609 881.695 138.297 881.695 138.297C879.229 143.519 875.977 148.345 872.047 152.615C872.047 152.615 863.553 161.831 853.351 166.785C849.82 168.485 848.02 169.165 848.02 169.165C843.403 170.933 840.241 171.274 840.264 172.124C840.288 172.974 842.273 173.337 843.277 173.609C846.023 174.334 847.385 173.801 847.673 174.289C848.262 175.264 844.084 179.662 835.706 185.013C827.628 190.182 822.504 191.814 811.656 197.017C807.905 198.808 802.585 201.427 796.272 204.873C798.247 190.41 802.885 176.42 809.959 163.588C817.045 150.858 825.1 142.129 831.886 134.761C843.946 121.69 846.312 122.643 858.995 109.255C868.516 99.2 876.732 90.392 883.057 77.0044C890.235 61.7689 891.539 47.8711 891.066 47.7464C890.593 47.6217 888.896 59.2184 881.522 74.0004C874.771 87.3654 866.692 96.094 857.114 106.285C843.934 120.296 842.261 118.686 827.247 134.341C816.445 145.598 810.225 152.184 804.512 163.089C799.993 171.767 796.667 180.995 794.622 190.533C794.276 192.075 793.145 199.874 790.871 215.472C789.429 225.346 788.678 230.753 786.255 238.144C784.906 242.295 783.299 246.361 781.443 250.319C779.481 254.604 776.157 261.246 775.545 261.008" fill="black"/>
</g>
<defs>
<clipPath id="clip0_367_6644">
<rect width="915" height="557" fill="white"/>
</clipPath>
</defs>
</svg>
