<svg width="666" height="415" viewBox="0 0 666 415" fill="none" xmlns="http://www.w3.org/2000/svg">
<path opacity="0.15" fill-rule="evenodd" clip-rule="evenodd" d="M664.94 414.693C666.579 412.948 651.213 401.829 628.009 378.285C618.517 368.042 609.706 358.489 601.61 348.604C597.025 342.963 592.539 337.195 587.976 330.362C587.553 329.6 586.63 327.939 585.082 325.843C583.039 322.974 580.712 320.303 578.124 317.856C575.114 314.975 570.497 308.815 563.334 294.76C562.559 273.114 557.236 252.45 547.644 233.855C529.725 199.582 499.845 179.723 465.564 156.943C454.634 149.654 445.629 143.676 432.278 136.57C427.246 133.897 417.868 129.095 397.829 118.568C391.718 115.666 385.974 112.25 380.659 108.356C371.561 101.287 366.92 94.3911 365.071 95.6815C364.094 96.2314 364.832 98.6395 366.487 109.396C367.714 117.534 367.697 118.581 366.925 119.193C364.431 121.169 358.336 114.734 343.794 108.333C337.299 105.411 330.187 103.229 316.137 98.4821L307.227 95.5249C305.454 94.9498 303.034 94.1316 301.547 93.6099C291.648 90.3547 282.221 86.2586 273.375 81.3685V81.3685C268.4 77.8767 259.783 72.289 257.026 74.4838C254.268 76.6786 258.305 84.4868 261.22 90.3525C267.772 104.001 274.566 110.078 273.275 111.448C271.984 112.818 266.797 110.483 246.454 97.9459L197.811 79.173L98.693 59.8861C74.5329 51.5697 53.3176 38.4686 36.3669 21.398C29.9358 14.9459 24.1543 7.95732 19.0753 0.496297C11.9069 14.2663 6.79478 28.6012 3.89398 43.0656C0.583094 58.2802 0.0417606 73.4949 2.29284 88.0729C5.87216 109.032 15.3675 127.987 29.9079 143.197C28.4421 144.022 26.2923 145.232 23.5351 146.426C17.8184 149.142 16.5667 149.275 16.1001 150.359C15.2426 152.665 21.023 154.452 27.1033 159.859C29.9145 162.431 32.3637 165.319 34.4085 168.473C40.3445 176.391 50.9488 182.863 65.1362 191.322C80.082 200.068 94.2276 207.835 107.392 214.76L101.721 217.558L96.9595 219.916C100.511 224.964 104.659 229.597 109.343 233.75C118.468 241.691 129.339 247.846 141.452 251.926C156.509 257.409 172.974 260.169 190.052 260.072C191.998 261.729 194.129 264.104 193.332 266.518C192.535 268.933 187.501 269.799 186.212 272.097C183.285 277.605 201.686 288.339 201.686 288.339C215.61 296.966 231.229 303.396 248.016 307.412C248.016 307.412 284.284 316.063 319.688 311.762C331.924 310.238 337.912 309.013 337.912 309.013C353.301 305.93 362.68 301.725 363.749 303.804C364.818 305.883 359.699 309.907 357.228 312.155C350.443 318.261 345.889 319.144 345.725 320.773C345.364 324.05 363.023 327.981 393.809 327.529C423.506 327.117 440.147 322.901 477.707 318.172C490.683 316.518 509.192 314.359 531.607 312.613C506.739 281.002 474.987 254.759 437.902 235.165C400.92 215.835 366.54 207.659 337.557 200.734C286.082 188.487 280.675 194.532 227.017 182.513C186.731 173.478 151.789 165.367 116.08 143.248C75.4953 118.046 53.2754 86.7287 54.4446 85.6777C55.6138 84.6266 75.8716 109.792 116.405 133.593C153.289 154.98 187.734 163.12 228.365 172.39C284.255 185.119 286.831 178.594 350.092 192.358C395.597 202.246 421.94 208.189 452.611 225.315C476.942 238.986 498.64 255.875 517.137 275.541C520.17 278.695 533.766 295.635 560.991 329.498C578.233 350.928 587.563 362.727 604.263 376.635C613.608 384.465 623.568 391.681 634.087 398.241C645.341 405.419 663.583 416.099 664.992 414.556" fill="#A75B41"/>
</svg>
