<svg width="684" height="372" viewBox="0 0 684 372" fill="none" xmlns="http://www.w3.org/2000/svg">
<path d="M85.1488 123.095C81.6288 122.93 78.1088 123.205 74.5888 123.59C72.2238 123.865 69.8038 124.25 67.4388 124.635C67.7688 124.085 68.0438 123.535 68.3738 122.985C68.6488 122.545 67.0538 121.61 66.7788 122.05C66.2288 123.04 65.7338 124.03 65.1838 125.02C64.8538 125.075 64.5238 125.13 64.1938 125.185C60.7288 125.845 57.3188 126.56 53.9088 127.385C52.2038 127.825 50.4988 128.32 48.7938 128.87C47.9688 129.09 47.0888 129.42 46.2638 129.75C45.8238 129.915 45.4388 130.135 44.9988 130.41C44.7788 130.575 44.5038 130.63 44.2288 131.18C44.0638 131.62 44.3388 132.17 44.5588 132.28C44.7788 132.445 45.1088 132.555 45.1088 132.555C45.4938 132.665 46.4838 131.18 46.8138 131.015C47.5838 130.685 48.4088 130.41 49.2338 130.135C50.8288 129.585 52.5338 129.09 54.1838 128.65C57.5938 127.715 61.0038 126.945 64.4138 126.285C64.4688 126.23 64.4688 126.23 64.5238 126.23C61.3888 132.115 58.6388 138.22 56.1638 144.38C53.1388 152.08 50.4988 159.89 48.5738 167.92C48.5188 168.195 49.6188 168.47 49.6738 168.195C51.7088 160.275 54.4038 152.52 57.5388 144.93C60.2888 138.385 63.3138 132.005 66.7788 125.79C69.4188 125.35 72.0588 124.855 74.7538 124.525C78.1638 124.085 81.2988 123.755 84.7638 123.865C84.9838 123.865 85.3688 123.095 85.1488 123.095Z" fill="black"/>
<path d="M79.3775 149C77.3425 150.87 72.9425 154.225 72.7775 151.365C72.7225 149.77 73.4925 147.735 73.2175 146.635C73.1625 146.415 72.7775 145.975 72.4475 145.755C71.8425 145.48 70.9075 146.14 70.6325 146.36C68.1575 148.01 64.1425 154.775 64.1425 154.775C64.5825 153.4 64.9675 152.08 65.4075 150.76C65.8475 149.44 66.2875 148.12 66.7825 146.8C68.9275 143.445 71.1275 140.145 73.3275 136.79C74.5375 134.92 75.9675 133.16 76.6825 130.905C76.7375 130.63 76.7925 130.3 76.8475 130.025C76.8475 129.695 76.9025 129.365 76.6275 128.925C76.5175 128.705 76.1325 128.54 75.9125 128.54C75.6925 128.595 75.4725 128.65 75.3625 128.705C75.0325 128.87 74.8125 129.09 74.5925 129.31C73.7125 130.08 73.0525 131.015 72.3925 131.95C69.8625 135.69 68.1025 139.815 66.5075 143.995C65.6825 146.085 64.9125 148.175 64.3075 150.32C63.6475 152.465 63.0425 155.05 62.6025 156.92V156.975C62.6025 157.14 62.6575 157.25 62.8225 157.305C62.9875 157.36 63.4275 157.195 63.4275 157.195C64.7475 155.05 65.9575 153.18 67.4425 151.255C68.9825 149.22 70.7425 147.405 71.2375 147.075C71.4025 146.91 71.6225 146.8 71.8425 146.745C71.8425 147.13 71.5125 149.66 71.4025 150.265C70.7975 155.875 75.0325 153.455 79.5975 149.22C79.7075 148.89 79.3775 149 79.3775 149ZM73.2175 132.5C73.7675 131.565 74.4275 130.685 75.1975 129.97C75.3625 129.75 75.5825 129.585 75.7475 129.53C75.8575 129.475 75.9125 129.42 75.9675 129.42C76.0775 129.585 76.0225 130.245 75.9125 130.685C75.3625 132.775 73.9875 134.59 72.7775 136.46C71.0725 139.045 69.3675 141.685 67.6075 144.325C69.2025 140.255 70.8525 136.185 73.2175 132.5Z" fill="black"/>
<path d="M91.586 148.89C85.5359 152.575 83.446 152.74 85.811 147.295C85.811 147.13 85.371 146.8 85.261 146.69C85.096 146.58 84.821 146.58 84.711 146.8C84.601 146.91 84.491 147.02 84.381 147.13C83.061 146.36 81.3009 147.075 80.146 147.955C79.5409 148.395 78.991 148.945 78.496 149.55C78.276 149.88 78.056 150.155 77.836 150.54C77.2309 152.025 78.001 152.52 79.101 152.135C79.9259 151.86 81.466 150.65 82.016 150.21C82.731 149.55 83.446 148.945 84.161 148.285C82.291 152.685 84.216 153.84 91.751 149.165C91.806 149.11 91.696 148.835 91.586 148.89ZM81.631 149.715C81.0809 150.155 80.531 150.54 79.926 150.925C79.651 151.09 79.321 151.255 79.046 151.31C78.991 151.31 78.991 151.31 78.991 151.31C78.991 151.255 79.046 151.145 79.101 151.09C79.211 150.815 79.376 150.54 79.541 150.265C79.926 149.77 80.366 149.22 80.861 148.78C81.741 147.955 82.896 147.24 84.106 147.405C83.336 148.23 82.5109 149 81.631 149.715Z" fill="black"/>
<path d="M103.867 148.89C97.5416 154.06 97.9266 152.19 96.8266 149.275C96.3866 147.955 94.9566 146.36 91.3816 150.1C91.6016 149.22 92.7016 147.46 93.0316 147.075C93.3066 146.855 92.6466 146.36 91.7666 146.91C91.2716 147.24 90.0066 150.375 90.0066 151.805C89.9516 152.355 90.6666 152.3 90.6666 152.3C94.1316 147.24 95.0666 148.12 95.8366 150.595C96.9366 154.28 98.8616 153.29 104.032 149.165C104.142 149.11 103.922 148.835 103.867 148.89Z" fill="black"/>
<path d="M116.352 148.89C109.477 154.885 107.882 153.29 106.617 150.54C112.062 147.845 111.402 145.865 109.367 146.36C107.387 146.855 105.462 148.23 104.142 150.21C104.692 148.505 104.912 148.12 105.407 146.635C108.542 142.565 112.942 136.735 114.647 132.335C115.802 129.31 115.032 128.265 113.052 129.695C107.717 134.645 103.042 149.55 102.327 151.915C101.942 153.125 101.062 156.48 101.062 156.48C101.062 156.48 101.007 157.03 101.062 157.085C101.062 157.195 101.722 157.25 101.777 157.085C103.317 151.86 105.627 148.835 108.157 147.46C108.597 147.24 109.147 146.965 109.532 146.965C110.687 146.8 107.827 149.275 105.517 150.045C104.857 150.43 105.572 151.75 105.957 152.355C107.607 154.94 110.632 154.61 116.572 149.11C116.682 149 116.462 148.835 116.352 148.89ZM112.887 131.18C114.482 129.09 115.087 129.53 114.097 132.005C112.832 134.975 111.237 137.89 105.902 144.71C107.882 139.43 109.972 135.03 112.887 131.18Z" fill="black"/>
<path d="M137.065 148.835C137.065 148.725 132.94 151.53 130.575 153.29C130.905 152.19 131.675 148.835 131.675 148.835C132.06 147.02 132.115 146.58 130.905 146.58C128.815 149.22 124.8 152.3 124.635 151.035C124.855 149.825 125.57 148.725 125.955 147.625H126.01C126.12 147.35 125.02 146.8 124.91 147.13C124.14 148.615 122.875 151.365 124.25 152.08C125.9 152.85 130.85 147.845 130.85 147.845C130.795 148.065 129.035 154.115 128.925 154.5C122.93 158.9 116.935 165.775 116.22 170.285C115.67 173.695 119.08 173.365 120.675 172.265C121.83 171.495 122.82 170.505 123.645 169.405C125.24 167.15 126.395 164.675 127.44 162.255C128.43 159.835 129.585 156.755 130.3 154.28C132.555 152.245 137.175 149.11 137.175 149.11C137.175 149.11 137.12 148.89 137.065 148.835ZM126.285 161.76C125.295 164.18 124.085 166.545 122.655 168.69C121.94 169.735 121.5 170.45 120.51 171.165C118.145 173.035 116.22 172.265 117.65 168.69C118.805 165.665 122.875 160.11 128.595 155.545C127.935 157.415 127 159.89 126.285 161.76Z" fill="black"/>
<path d="M144.939 148.945C143.619 149.935 142.354 150.43 140.759 150.155C140.759 150.155 141.529 148.89 140.759 148.12C141.364 145.865 136.854 146.525 135.809 149C134.379 152.355 138.174 153.235 140.539 150.54C142.409 150.815 143.454 150.32 145.159 149.11C145.214 149.055 145.104 148.835 144.939 148.945ZM136.689 150.155C136.854 149 138.119 147.79 139.109 147.405C139.549 147.24 140.704 147.13 140.374 148.12C139.329 148.285 139.054 149.55 139.989 150.265C139.109 151.585 136.469 152.52 136.689 150.155ZM140.209 149.88C139.604 149.55 139.879 148.285 140.594 148.505C140.814 148.56 140.594 149.385 140.209 149.88Z" fill="black"/>
<path d="M155.159 148.835C150.429 152.41 148.889 152.08 149.549 150.155C149.769 149.33 150.319 148.01 150.594 147.13C150.649 146.965 150.154 146.415 149.769 146.635C148.339 149.165 147.129 150.265 145.259 151.31C143.939 152.08 145.259 149.11 146.304 147.735C146.304 147.735 145.699 146.8 145.314 147.075C144.764 147.515 143.499 150.155 143.444 150.87C143.224 153.51 146.744 151.475 148.449 149.66C147.129 153.29 150.759 152.96 155.379 149.055C155.434 149 155.269 148.78 155.159 148.835Z" fill="black"/>
<path d="M171.647 148.835C169.557 149.22 167.412 149.66 165.267 150.21C164.717 150.375 164.167 150.54 163.562 150.705C163.892 149.99 164.167 149.275 164.497 148.56C166.092 146.635 167.687 144.71 169.117 142.675C169.557 142.125 169.942 141.575 170.327 140.97C170.657 140.365 171.042 139.815 171.152 138.88C171.152 138.66 171.042 138.33 170.767 138.165C170.492 138 170.162 138 169.942 138.055C169.502 138.22 169.172 138.495 168.952 138.715C168.402 139.265 167.962 139.815 167.577 140.365C165.267 143.775 163.507 147.46 161.967 151.2C161.527 151.365 161.032 151.53 160.592 151.805C160.317 151.915 160.097 152.08 159.822 152.41C159.712 152.52 159.657 152.96 159.822 153.125C159.987 153.345 160.152 153.4 160.262 153.51V153.455C160.482 153.62 160.702 153.84 160.867 154.06C160.702 154.445 160.537 154.83 160.427 155.27C159.492 157.855 158.612 160.44 157.952 163.135C157.677 164.51 157.347 165.885 157.237 167.26C157.182 168.03 157.017 168.635 157.402 169.625C157.457 169.79 157.567 169.955 157.787 170.12C158.062 170.285 158.337 170.23 158.557 170.175C158.887 170.065 159.052 169.9 159.217 169.735C159.492 169.405 159.657 169.13 159.877 168.8C161.252 166.27 162.132 163.63 162.572 160.88C162.847 159.505 162.902 158.075 162.682 156.645C162.572 155.985 162.407 155.215 162.077 154.61C162.462 153.51 162.847 152.465 163.287 151.42C164.002 151.145 164.717 150.925 165.432 150.705C167.522 150.155 169.612 149.605 171.757 149.11C171.812 149.11 171.757 148.835 171.647 148.835ZM168.347 140.86C168.677 140.31 169.062 139.76 169.502 139.32C169.722 139.1 169.997 138.88 170.162 138.825C170.382 138.825 170.382 138.77 170.382 138.935C170.382 139.43 170.052 140.09 169.722 140.64C169.392 141.19 169.007 141.795 168.622 142.345C167.687 143.61 166.697 144.875 165.597 146.085C166.477 144.325 167.357 142.565 168.347 140.86ZM160.647 152.905H160.592C160.482 152.85 160.372 152.795 160.372 152.74C160.482 152.63 160.702 152.465 160.922 152.355C161.142 152.19 161.417 152.08 161.637 151.97C161.472 152.465 161.307 152.905 161.142 153.345C160.977 153.18 160.812 153.015 160.647 152.905ZM161.692 160.715C161.197 163.3 160.317 165.995 158.887 168.195C158.777 168.36 158.612 168.58 158.502 168.745C158.447 168.36 158.502 167.865 158.557 167.425C158.722 166.105 158.997 164.785 159.327 163.465C159.932 160.825 160.757 158.24 161.637 155.71V155.655C161.747 156.04 161.857 156.37 161.857 156.755C162.022 158.075 161.912 159.395 161.692 160.715Z" fill="black"/>
<path d="M179.884 148.945C178.564 149.935 177.299 150.43 175.704 150.155C175.704 150.155 176.474 148.89 175.704 148.12C176.309 145.865 171.799 146.525 170.754 149C169.324 152.355 173.119 153.235 175.484 150.54C177.354 150.815 178.399 150.32 180.104 149.11C180.159 149.055 180.049 148.835 179.884 148.945ZM171.634 150.155C171.799 149 173.064 147.79 174.054 147.405C174.494 147.24 175.649 147.13 175.319 148.12C174.274 148.285 173.999 149.55 174.934 150.265C174.054 151.585 171.414 152.52 171.634 150.155ZM175.154 149.88C174.549 149.55 174.824 148.285 175.539 148.505C175.759 148.56 175.539 149.385 175.154 149.88Z" fill="black"/>
<path d="M190.117 148.89C185.717 151.75 181.977 152.795 183.352 150.485C184.232 149.055 183.957 148.45 181.317 147.9C181.427 147.735 182.802 146.25 182.362 145.315C182.252 145.04 181.922 144.93 181.537 145.04C180.767 145.26 179.997 146.195 179.722 146.69C179.667 146.855 179.447 147.35 179.502 147.735C179.612 148.23 180.107 148.34 180.382 148.395C180.437 148.505 180.547 148.56 180.657 148.56C180.822 148.505 180.822 148.45 180.932 148.395C182.912 148.725 182.747 149.275 182.472 149.825C182.032 150.65 181.757 151.255 181.812 151.695C182.087 154.17 188.412 150.32 190.227 149.11H190.282C190.337 149.055 190.172 148.835 190.117 148.89ZM180.547 147.79C179.832 147.79 181.537 145.535 181.867 145.755C182.252 145.92 181.207 147.405 180.547 147.79Z" fill="black"/>
<path d="M205.874 148.89C203.784 149.66 201.694 150.54 199.714 151.64V151.585C199.769 150.87 199.769 150.1 199.769 149.385C199.824 148.505 199.824 147.625 199.934 146.8C200.924 146.25 201.804 145.535 202.354 144.545C202.904 143.61 202.794 142.455 201.199 143.17C200.209 143.61 198.834 144.875 198.669 147.02C198.614 147.02 198.559 147.075 198.504 147.075C198.449 147.13 198.394 147.185 198.394 147.295C198.449 147.35 198.504 147.405 198.614 147.405C198.614 147.35 198.614 147.35 198.614 147.35C198.504 148.01 198.394 151.42 198.394 152.41C198.064 152.63 197.734 152.85 197.459 153.07C196.799 153.51 196.194 154.005 195.699 154.665C195.479 154.995 195.259 155.38 195.259 155.875C195.204 156.315 195.479 156.81 195.974 157.03C196.964 157.415 197.954 156.865 198.559 156.205C199.109 155.545 199.384 154.72 199.604 153.95C199.714 153.29 199.714 152.685 199.714 152.08C201.749 150.925 203.839 149.99 205.984 149.11C206.039 149.055 205.984 148.835 205.874 148.89ZM200.319 145.15C200.649 144.105 203.014 142.235 202.024 144.38C201.584 145.26 200.869 145.975 199.989 146.47C200.044 146.03 200.154 145.59 200.319 145.15ZM198.394 153.785C198.284 154.445 198.119 155.16 197.789 155.655C197.459 156.205 196.799 156.645 196.249 156.48C195.699 156.315 195.699 155.49 196.084 154.885C196.469 154.28 197.019 153.785 197.679 153.345C197.899 153.18 198.174 153.015 198.394 152.905C198.394 153.18 198.394 153.51 198.394 153.785Z" fill="black"/>
<path d="M212.599 148.945C209.959 150.705 206.659 152.355 205.999 151.31C205.944 150.98 206.054 150.43 206.219 149.935C206.549 148.945 206.824 148.615 207.374 147.68C207.374 147.625 207.374 147.625 207.429 147.57C207.539 147.24 206.879 145.7 206.054 147.13C205.504 148.12 205.284 148.615 205.009 149.825C204.679 150.98 204.954 152.19 206.164 152.3C207.319 152.41 210.014 151.145 212.764 149.165C212.874 149.11 212.709 148.89 212.599 148.945ZM208.804 144.82C208.859 144.655 208.749 143.83 208.364 144.215C207.924 144.6 207.154 144.985 207.044 145.205C206.879 145.645 208.694 145.37 208.804 144.82Z" fill="black"/>
<path d="M225.1 148.835C223.395 149.715 221.36 151.145 219.765 152.355C219.93 151.695 220.59 148.56 220.59 147.57C220.535 147.13 219.435 145.975 219.105 146.415C218.775 146.8 217.73 147.845 217.73 147.9C217.455 147.515 217.125 147.185 216.63 147.075C216.135 146.91 215.585 146.91 215.09 147.075C214.155 147.35 213.385 148.01 212.78 148.67C212.12 149.385 211.515 150.375 211.35 151.365C211.185 152.52 212.615 152.3 213.055 152.135C215.64 151.09 219.38 147.35 219.38 147.35C219.38 147.35 219.38 147.515 219.38 147.57C219.325 148.34 219.105 149.22 218.94 149.99C218.61 151.31 218.225 152.63 217.785 153.95C217.29 154.335 216.795 154.775 216.3 155.215C213.715 157.525 211.79 159.395 209.645 162.145C208.6 163.52 207.555 164.95 206.62 166.435C205.74 167.92 204.805 169.46 204.365 171.275C204.31 171.77 204.2 172.265 204.475 172.87C204.64 173.2 204.915 173.475 205.245 173.585C205.575 173.64 205.795 173.695 206.07 173.695C207.115 173.695 207.995 173.255 208.765 172.76C210.305 171.715 211.46 170.285 212.45 168.855C215.75 164.125 217.895 158.57 219.545 153.18C221.25 151.75 223.34 150.21 225.21 149.11C225.265 149.055 225.155 148.835 225.1 148.835ZM213.66 151.09C213.275 151.31 212.89 151.53 212.56 151.64C212.505 151.64 212.45 151.64 212.395 151.64C212.395 151.64 212.395 151.585 212.395 151.53C212.615 150.925 213.275 150.155 213.715 149.495C214.705 148.395 216.08 147.185 217.455 148.12C216.245 149.22 215.035 150.375 213.66 151.09ZM215.75 159.78C214.43 162.97 213.385 165.335 211.515 168.195C210.525 169.57 209.48 170.945 208.16 171.88C207.5 172.32 206.785 172.65 206.07 172.65C204.31 172.595 206.565 168.36 207.445 166.93C208.325 165.445 209.315 164.07 210.36 162.695C212.45 159.945 214.265 158.075 216.74 155.655C217.015 155.435 217.235 155.215 217.51 154.94C216.96 156.59 216.41 158.185 215.75 159.78Z" fill="black"/>
<path d="M237.481 148.89C231.156 154.06 231.541 152.19 230.441 149.275C230.001 147.955 228.571 146.36 224.996 150.1C225.216 149.22 226.316 147.46 226.646 147.075C226.921 146.855 226.261 146.36 225.381 146.91C224.886 147.24 223.621 150.375 223.621 151.805C223.566 152.355 224.281 152.3 224.281 152.3C227.746 147.24 228.681 148.12 229.451 150.595C230.551 154.28 232.476 153.29 237.646 149.165C237.756 149.11 237.536 148.835 237.481 148.89Z" fill="black"/>
<path d="M244.246 148.945C241.606 150.705 238.306 152.355 237.646 151.31C237.591 150.98 237.701 150.43 237.866 149.935C238.196 148.945 238.471 148.615 239.021 147.68C239.021 147.625 239.021 147.625 239.076 147.57C239.186 147.24 238.526 145.7 237.701 147.13C237.151 148.12 236.931 148.615 236.656 149.825C236.326 150.98 236.601 152.19 237.811 152.3C238.966 152.41 241.661 151.145 244.411 149.165C244.521 149.11 244.356 148.89 244.246 148.945ZM240.451 144.82C240.506 144.655 240.396 143.83 240.011 144.215C239.571 144.6 238.801 144.985 238.691 145.205C238.526 145.645 240.341 145.37 240.451 144.82Z" fill="black"/>
<path d="M256.968 148.89C250.643 154.06 251.028 152.19 249.928 149.275C249.488 147.955 248.058 146.36 244.483 150.1C244.703 149.22 245.803 147.46 246.133 147.075C246.408 146.855 245.748 146.36 244.868 146.91C244.373 147.24 243.108 150.375 243.108 151.805C243.053 152.355 243.768 152.3 243.768 152.3C247.233 147.24 248.168 148.12 248.938 150.595C250.038 154.28 251.963 153.29 257.133 149.165C257.243 149.11 257.023 148.835 256.968 148.89Z" fill="black"/>
<path d="M269.123 148.835C267.418 149.715 265.383 151.145 263.788 152.355C263.953 151.695 264.613 148.56 264.613 147.57C264.558 147.13 263.458 145.975 263.128 146.415C262.798 146.8 261.753 147.845 261.753 147.9C261.478 147.515 261.148 147.185 260.653 147.075C260.158 146.91 259.608 146.91 259.113 147.075C258.178 147.35 257.408 148.01 256.803 148.67C256.143 149.385 255.538 150.375 255.373 151.365C255.208 152.52 256.638 152.3 257.078 152.135C259.663 151.09 263.403 147.35 263.403 147.35C263.403 147.35 263.403 147.515 263.403 147.57C263.348 148.34 263.128 149.22 262.963 149.99C262.633 151.31 262.248 152.63 261.808 153.95C261.313 154.335 260.818 154.775 260.323 155.215C257.738 157.525 255.813 159.395 253.668 162.145C252.623 163.52 251.578 164.95 250.643 166.435C249.763 167.92 248.828 169.46 248.388 171.275C248.333 171.77 248.223 172.265 248.498 172.87C248.663 173.2 248.938 173.475 249.268 173.585C249.598 173.64 249.818 173.695 250.093 173.695C251.138 173.695 252.018 173.255 252.788 172.76C254.328 171.715 255.483 170.285 256.473 168.855C259.773 164.125 261.918 158.57 263.568 153.18C265.273 151.75 267.363 150.21 269.233 149.11C269.288 149.055 269.178 148.835 269.123 148.835ZM257.683 151.09C257.298 151.31 256.913 151.53 256.583 151.64C256.528 151.64 256.473 151.64 256.418 151.64C256.418 151.64 256.418 151.585 256.418 151.53C256.638 150.925 257.298 150.155 257.738 149.495C258.728 148.395 260.103 147.185 261.478 148.12C260.268 149.22 259.058 150.375 257.683 151.09ZM259.773 159.78C258.453 162.97 257.408 165.335 255.538 168.195C254.548 169.57 253.503 170.945 252.183 171.88C251.523 172.32 250.808 172.65 250.093 172.65C248.333 172.595 250.588 168.36 251.468 166.93C252.348 165.445 253.338 164.07 254.383 162.695C256.473 159.945 258.288 158.075 260.763 155.655C261.038 155.435 261.258 155.215 261.533 154.94C260.983 156.59 260.433 158.185 259.773 159.78Z" fill="black"/>
<path d="M287.43 148.835C282.7 152.41 281.16 152.08 281.82 150.155C282.04 149.33 282.59 148.01 282.865 147.13C282.92 146.965 282.425 146.415 282.04 146.635C280.61 149.165 279.4 150.265 277.53 151.31C276.21 152.08 277.53 149.11 278.575 147.735C278.575 147.735 277.97 146.8 277.585 147.075C277.035 147.515 275.77 150.155 275.715 150.87C275.495 153.51 279.015 151.475 280.72 149.66C279.4 153.29 283.03 152.96 287.65 149.055C287.705 149 287.54 148.78 287.43 148.835Z" fill="black"/>
<path d="M298.377 148.89C296.727 149.22 294.967 149.66 293.427 150.155C294.307 148.89 293.592 146.03 290.732 146.58C289.907 146.745 289.192 147.24 288.587 147.625C289.027 146.635 289.467 145.645 289.962 144.655C290.017 144.49 289.687 143.665 289.302 144.325C288.367 145.865 287.542 147.515 286.772 149.11C286.387 149.44 286.057 149.77 285.727 150.155C285.672 150.265 285.672 150.32 285.727 150.375C285.837 150.43 285.892 150.43 285.947 150.375C286.057 150.265 286.167 150.21 286.277 150.1C284.847 153.07 280.667 164.785 279.622 170.175C279.622 170.34 280.282 170.67 280.337 170.505C281.712 165.28 285.287 154.61 288.202 148.56C290.732 146.14 294.142 147.24 291.612 150.76C291.227 150.925 290.897 151.035 290.567 151.2C289.907 151.475 289.302 151.75 288.697 152.135C288.422 152.355 288.147 152.575 287.927 152.85C287.652 153.07 287.377 153.345 287.322 153.84C287.322 154.17 287.762 154.28 287.872 154.28C289.302 154.17 291.667 152.63 293.152 150.65C294.857 150.045 296.617 149.55 298.377 149.11C298.432 149.055 298.432 148.89 298.377 148.89ZM290.622 151.97C290.182 152.465 289.687 152.905 289.137 153.29C288.862 153.455 288.587 153.62 288.312 153.785C288.037 153.895 286.882 154.115 289.027 152.575C289.577 152.245 290.512 151.695 291.007 151.53C290.897 151.64 290.787 151.805 290.622 151.97Z" fill="black"/>
<path d="M314.951 148.835C312.861 149.22 310.716 149.66 308.571 150.21C308.021 150.375 307.471 150.54 306.866 150.705C307.196 149.99 307.471 149.275 307.801 148.56C309.396 146.635 310.991 144.71 312.421 142.675C312.861 142.125 313.246 141.575 313.631 140.97C313.961 140.365 314.346 139.815 314.456 138.88C314.456 138.66 314.346 138.33 314.071 138.165C313.796 138 313.466 138 313.246 138.055C312.806 138.22 312.476 138.495 312.256 138.715C311.706 139.265 311.266 139.815 310.881 140.365C308.571 143.775 306.811 147.46 305.271 151.2C304.831 151.365 304.336 151.53 303.896 151.805C303.621 151.915 303.401 152.08 303.126 152.41C303.016 152.52 302.961 152.96 303.126 153.125C303.291 153.345 303.456 153.4 303.566 153.51V153.455C303.786 153.62 304.006 153.84 304.171 154.06C304.006 154.445 303.841 154.83 303.731 155.27C302.796 157.855 301.916 160.44 301.256 163.135C300.981 164.51 300.651 165.885 300.541 167.26C300.486 168.03 300.321 168.635 300.706 169.625C300.761 169.79 300.871 169.955 301.091 170.12C301.366 170.285 301.641 170.23 301.861 170.175C302.191 170.065 302.356 169.9 302.521 169.735C302.796 169.405 302.961 169.13 303.181 168.8C304.556 166.27 305.436 163.63 305.876 160.88C306.151 159.505 306.206 158.075 305.986 156.645C305.876 155.985 305.711 155.215 305.381 154.61C305.766 153.51 306.151 152.465 306.591 151.42C307.306 151.145 308.021 150.925 308.736 150.705C310.826 150.155 312.916 149.605 315.061 149.11C315.116 149.11 315.061 148.835 314.951 148.835ZM311.651 140.86C311.981 140.31 312.366 139.76 312.806 139.32C313.026 139.1 313.301 138.88 313.466 138.825C313.686 138.825 313.686 138.77 313.686 138.935C313.686 139.43 313.356 140.09 313.026 140.64C312.696 141.19 312.311 141.795 311.926 142.345C310.991 143.61 310.001 144.875 308.901 146.085C309.781 144.325 310.661 142.565 311.651 140.86ZM303.951 152.905H303.896C303.786 152.85 303.676 152.795 303.676 152.74C303.786 152.63 304.006 152.465 304.226 152.355C304.446 152.19 304.721 152.08 304.941 151.97C304.776 152.465 304.611 152.905 304.446 153.345C304.281 153.18 304.116 153.015 303.951 152.905ZM304.996 160.715C304.501 163.3 303.621 165.995 302.191 168.195C302.081 168.36 301.916 168.58 301.806 168.745C301.751 168.36 301.806 167.865 301.861 167.425C302.026 166.105 302.301 164.785 302.631 163.465C303.236 160.825 304.061 158.24 304.941 155.71V155.655C305.051 156.04 305.161 156.37 305.161 156.755C305.326 158.075 305.216 159.395 304.996 160.715Z" fill="black"/>
<path d="M323.188 148.945C321.868 149.935 320.603 150.43 319.008 150.155C319.008 150.155 319.778 148.89 319.008 148.12C319.613 145.865 315.103 146.525 314.058 149C312.628 152.355 316.423 153.235 318.788 150.54C320.658 150.815 321.703 150.32 323.408 149.11C323.463 149.055 323.353 148.835 323.188 148.945ZM314.938 150.155C315.103 149 316.368 147.79 317.358 147.405C317.798 147.24 318.953 147.13 318.623 148.12C317.578 148.285 317.303 149.55 318.238 150.265C317.358 151.585 314.718 152.52 314.938 150.155ZM318.458 149.88C317.853 149.55 318.128 148.285 318.843 148.505C319.063 148.56 318.843 149.385 318.458 149.88Z" fill="black"/>
<path d="M333.42 148.89C329.02 151.75 325.28 152.795 326.655 150.485C327.535 149.055 327.26 148.45 324.62 147.9C324.73 147.735 326.105 146.25 325.665 145.315C325.555 145.04 325.225 144.93 324.84 145.04C324.07 145.26 323.3 146.195 323.025 146.69C322.97 146.855 322.75 147.35 322.805 147.735C322.915 148.23 323.41 148.34 323.685 148.395C323.74 148.505 323.85 148.56 323.96 148.56C324.125 148.505 324.125 148.45 324.235 148.395C326.215 148.725 326.05 149.275 325.775 149.825C325.335 150.65 325.06 151.255 325.115 151.695C325.39 154.17 331.715 150.32 333.53 149.11H333.585C333.64 149.055 333.475 148.835 333.42 148.89ZM323.85 147.79C323.135 147.79 324.84 145.535 325.17 145.755C325.555 145.92 324.51 147.405 323.85 147.79Z" fill="black"/>
<path d="M349.947 148.945C348.627 149.935 347.362 150.43 345.767 150.155C345.767 150.155 346.537 148.89 345.767 148.12C346.372 145.865 341.863 146.525 340.818 149C339.388 152.355 343.182 153.235 345.547 150.54C347.417 150.815 348.462 150.32 350.167 149.11C350.222 149.055 350.112 148.835 349.947 148.945ZM341.697 150.155C341.862 149 343.128 147.79 344.117 147.405C344.557 147.24 345.712 147.13 345.383 148.12C344.337 148.285 344.062 149.55 344.997 150.265C344.117 151.585 341.477 152.52 341.697 150.155ZM345.217 149.88C344.612 149.55 344.888 148.285 345.603 148.505C345.823 148.56 345.603 149.385 345.217 149.88Z" fill="black"/>
<path d="M360.167 148.835C355.437 152.41 353.897 152.08 354.557 150.155C354.777 149.33 355.327 148.01 355.602 147.13C355.657 146.965 355.162 146.415 354.777 146.635C353.347 149.165 352.137 150.265 350.267 151.31C348.947 152.08 350.267 149.11 351.312 147.735C351.312 147.735 350.707 146.8 350.322 147.075C349.772 147.515 348.507 150.155 348.452 150.87C348.232 153.51 351.752 151.475 353.457 149.66C352.137 153.29 355.767 152.96 360.387 149.055C360.442 149 360.277 148.78 360.167 148.835Z" fill="black"/>
<path d="M370.192 148.89C365.792 151.75 362.052 152.795 363.427 150.485C364.307 149.055 364.032 148.45 361.392 147.9C361.502 147.735 362.877 146.25 362.437 145.315C362.327 145.04 361.997 144.93 361.612 145.04C360.842 145.26 360.072 146.195 359.797 146.69C359.742 146.855 359.522 147.35 359.577 147.735C359.687 148.23 360.182 148.34 360.457 148.395C360.512 148.505 360.622 148.56 360.732 148.56C360.897 148.505 360.897 148.45 361.007 148.395C362.987 148.725 362.822 149.275 362.547 149.825C362.107 150.65 361.832 151.255 361.887 151.695C362.162 154.17 368.487 150.32 370.302 149.11H370.357C370.412 149.055 370.247 148.835 370.192 148.89ZM360.622 147.79C359.907 147.79 361.612 145.535 361.942 145.755C362.327 145.92 361.282 147.405 360.622 147.79Z" fill="black"/>
<path d="M391.119 148.89C384.794 154.06 385.179 152.19 384.079 149.275C383.639 147.955 382.209 146.36 378.634 150.1C378.854 149.22 379.954 147.46 380.284 147.075C380.559 146.855 379.899 146.36 379.019 146.91C378.524 147.24 377.259 150.375 377.259 151.805C377.204 152.355 377.919 152.3 377.919 152.3C381.384 147.24 382.319 148.12 383.089 150.595C384.189 154.28 386.114 153.29 391.284 149.165C391.394 149.11 391.174 148.835 391.119 148.89Z" fill="black"/>
<path d="M399.369 148.615C395.959 151.31 389.414 153.455 390.844 150.21C392.054 149.935 393.099 149.605 394.089 148.835C395.959 147.405 394.529 146.745 394.254 146.69C393.979 146.58 393.704 146.58 393.429 146.58C392.824 146.69 392.329 146.91 391.889 147.13C391.009 147.68 390.349 148.45 389.799 149.275C388.314 152.08 390.239 152.575 390.954 152.63C392.659 152.685 395.629 151.75 399.589 148.835C399.644 148.78 399.424 148.56 399.369 148.615ZM392.549 148.065C392.879 147.79 393.209 147.57 393.539 147.46C394.199 147.24 394.914 147.405 393.704 148.395C393.374 148.725 392.384 149.33 391.119 149.66C391.559 149.11 392.054 148.56 392.549 148.065Z" fill="black"/>
<path d="M414.647 148.945C412.777 150.375 410.357 150.595 410.357 149.165C410.962 147.35 410.962 146.25 410.797 146.03C410.577 145.755 410.412 145.81 410.027 146.03C409.752 146.195 408.762 148.175 409.422 149.55C408.597 152.245 407.442 153.235 406.727 153.235C405.737 153.235 405.132 151.145 406.232 146.745V146.69C406.232 146.58 405.737 146.195 405.407 146.36C405.077 146.525 399.687 152.135 399.907 150.595C400.182 148.45 401.447 146.36 402.107 145.59C402.327 145.37 401.777 144.82 401.117 145.15C400.017 145.755 398.697 149.275 398.752 151.2C398.752 151.915 399.302 151.97 399.522 151.915C400.787 151.64 404.527 148.175 404.527 148.175C404.197 150.1 404.142 153.84 405.792 154.06C407.992 154.39 409.312 152.025 410.027 150.045C410.907 150.98 413.217 150.43 414.757 149.11C414.757 149.11 414.702 148.945 414.647 148.945Z" fill="black"/>
<path d="M422.806 148.89C420.716 149.66 418.626 150.54 416.646 151.64V151.585C416.701 150.87 416.701 150.1 416.701 149.385C416.756 148.505 416.756 147.625 416.866 146.8C417.856 146.25 418.736 145.535 419.286 144.545C419.836 143.61 419.726 142.455 418.131 143.17C417.141 143.61 415.766 144.875 415.601 147.02C415.546 147.02 415.491 147.075 415.436 147.075C415.381 147.13 415.326 147.185 415.326 147.295C415.381 147.35 415.436 147.405 415.546 147.405C415.546 147.35 415.546 147.35 415.546 147.35C415.436 148.01 415.326 151.42 415.326 152.41C414.996 152.63 414.666 152.85 414.391 153.07C413.731 153.51 413.126 154.005 412.631 154.665C412.411 154.995 412.191 155.38 412.191 155.875C412.136 156.315 412.411 156.81 412.906 157.03C413.896 157.415 414.886 156.865 415.491 156.205C416.041 155.545 416.316 154.72 416.536 153.95C416.646 153.29 416.646 152.685 416.646 152.08C418.681 150.925 420.771 149.99 422.916 149.11C422.971 149.055 422.916 148.835 422.806 148.89ZM417.251 145.15C417.581 144.105 419.946 142.235 418.956 144.38C418.516 145.26 417.801 145.975 416.921 146.47C416.976 146.03 417.086 145.59 417.251 145.15ZM415.326 153.785C415.216 154.445 415.051 155.16 414.721 155.655C414.391 156.205 413.731 156.645 413.181 156.48C412.631 156.315 412.631 155.49 413.016 154.885C413.401 154.28 413.951 153.785 414.611 153.345C414.831 153.18 415.106 153.015 415.326 152.905C415.326 153.18 415.326 153.51 415.326 153.785Z" fill="black"/>
<path d="M435.531 149.165C435.586 149.11 435.366 148.89 435.311 148.945C424.146 160.055 421.286 157.195 423.376 148.89C431.461 138.66 435.531 132.555 436.081 129.145C436.246 127.935 434.816 126.78 431.956 129.915C429.646 132.39 427.831 135.305 426.236 138.33C424.641 141.355 423.266 144.545 422.331 147.845C419.691 157.25 422.936 162.365 435.531 149.165ZM432.451 130.41C433.111 129.585 433.826 128.925 434.156 128.705C434.761 128.32 435.586 128.32 435.476 129.035C434.816 133.05 428.161 141.795 423.651 147.515C425.521 140.475 430.416 132.995 432.451 130.41Z" fill="black"/>
<path d="M443.821 148.615C440.411 151.31 433.866 153.455 435.296 150.21C436.506 149.935 437.551 149.605 438.541 148.835C440.411 147.405 438.981 146.745 438.706 146.69C438.431 146.58 438.156 146.58 437.881 146.58C437.276 146.69 436.781 146.91 436.341 147.13C435.461 147.68 434.801 148.45 434.251 149.275C432.766 152.08 434.691 152.575 435.406 152.63C437.111 152.685 440.081 151.75 444.041 148.835C444.096 148.78 443.876 148.56 443.821 148.615ZM437.001 148.065C437.331 147.79 437.661 147.57 437.991 147.46C438.651 147.24 439.366 147.405 438.156 148.395C437.826 148.725 436.836 149.33 435.571 149.66C436.011 149.11 436.506 148.56 437.001 148.065Z" fill="black"/>
<path d="M464.874 135.525C467.019 135.305 469.109 135.085 470.924 134.975C471.034 134.975 471.034 134.535 470.869 134.535C469.769 134.535 467.624 134.7 465.149 134.975C465.919 133.545 466.689 132.115 467.294 130.96C468.889 128.045 467.734 127.33 465.974 130.3C465.094 131.675 463.554 134.59 463.554 134.59L463.279 135.14C458.824 135.635 453.929 136.295 451.839 136.68C452.499 135.69 453.159 134.7 453.874 133.765C454.369 132.995 454.809 132.28 455.249 131.455C455.414 131.07 455.634 130.63 455.744 130.19C455.854 129.97 455.909 129.75 455.909 129.475C455.909 129.365 455.964 129.2 455.854 128.98C455.799 128.705 455.304 128.54 455.139 128.65C454.479 128.87 454.314 129.255 453.984 129.585C453.654 129.915 453.379 130.3 453.104 130.63C452.609 131.4 452.169 132.115 451.729 132.885C450.849 134.315 450.079 135.745 449.309 137.23C448.594 137.34 444.084 138.33 442.489 139.155C442.269 139.265 442.654 139.925 442.819 139.815L442.929 139.76C444.139 139.045 448.429 138 448.924 137.89C444.469 145.755 438.749 156.81 441.444 160.55C441.939 161.155 442.654 161.045 443.094 160.935C446.339 160.165 453.489 153.675 456.514 150.32C455.359 153.73 454.809 156.7 455.744 157.965C456.184 158.57 456.899 158.46 457.394 158.35C460.199 157.69 465.919 152.74 469.384 149.22C469.439 149.055 469.274 148.89 469.109 148.89C463.114 154.995 457.119 158.735 456.404 157.25C455.304 154.665 458.384 147.515 461.079 142.18C461.684 141.135 463.279 138.33 464.874 135.525ZM452.389 133.27C452.829 132.555 453.269 131.785 453.764 131.07C453.984 130.74 454.259 130.41 454.534 130.08C454.699 129.86 454.974 129.585 455.139 129.475C455.139 129.64 455.084 129.805 455.084 129.97C454.919 130.355 454.754 130.74 454.589 131.125C454.204 131.895 453.764 132.61 453.269 133.325C452.444 134.48 451.674 135.69 450.904 136.845C450.794 136.9 450.684 136.955 450.519 136.955C451.124 135.745 451.729 134.48 452.389 133.27ZM450.024 137.945C450.079 137.835 450.134 137.725 450.189 137.615C450.299 137.615 450.409 137.56 450.464 137.56C450.464 137.615 450.409 137.67 450.354 137.725C450.024 138.275 449.694 138.825 449.309 139.375C449.529 138.88 449.804 138.44 450.024 137.945ZM442.159 159.835C441.059 157.25 444.139 150.155 446.779 144.765C448.099 142.51 449.474 140.255 450.904 138.055C451.069 137.835 451.234 137.56 451.399 137.34C454.699 136.735 458.934 136.13 463.004 135.69C462.124 137.285 458.824 143.72 456.844 149.33C450.299 156.645 442.929 161.54 442.159 159.835Z" fill="black"/>
<path d="M477.595 148.615C474.185 151.31 467.64 153.455 469.07 150.21C470.28 149.935 471.325 149.605 472.315 148.835C474.185 147.405 472.755 146.745 472.48 146.69C472.205 146.58 471.93 146.58 471.655 146.58C471.05 146.69 470.555 146.91 470.115 147.13C469.235 147.68 468.575 148.45 468.025 149.275C466.54 152.08 468.465 152.575 469.18 152.63C470.885 152.685 473.855 151.75 477.815 148.835C477.87 148.78 477.65 148.56 477.595 148.615ZM470.775 148.065C471.105 147.79 471.435 147.57 471.765 147.46C472.425 147.24 473.14 147.405 471.93 148.395C471.6 148.725 470.61 149.33 469.345 149.66C469.785 149.11 470.28 148.56 470.775 148.065Z" fill="black"/>
<path d="M487.606 148.89C483.206 151.75 479.466 152.795 480.841 150.485C481.721 149.055 481.446 148.45 478.806 147.9C478.916 147.735 480.291 146.25 479.851 145.315C479.741 145.04 479.411 144.93 479.026 145.04C478.256 145.26 477.486 146.195 477.211 146.69C477.156 146.855 476.936 147.35 476.991 147.735C477.101 148.23 477.596 148.34 477.871 148.395C477.926 148.505 478.036 148.56 478.146 148.56C478.311 148.505 478.311 148.45 478.421 148.395C480.401 148.725 480.236 149.275 479.961 149.825C479.521 150.65 479.246 151.255 479.301 151.695C479.576 154.17 485.901 150.32 487.716 149.11H487.771C487.826 149.055 487.661 148.835 487.606 148.89ZM478.036 147.79C477.321 147.79 479.026 145.535 479.356 145.755C479.741 145.92 478.696 147.405 478.036 147.79Z" fill="black"/>
<path d="M490.506 150.87C490.286 151.42 489.571 152.575 489.626 152.85C489.681 153.345 491.441 151.805 491.276 151.2C491.221 151.035 490.726 150.32 490.506 150.87Z" fill="black"/>
<path d="M511.932 148.835C511.932 148.725 507.807 151.53 505.442 153.29C505.772 152.19 506.542 148.835 506.542 148.835C506.927 147.02 506.982 146.58 505.772 146.58C503.682 149.22 499.667 152.3 499.502 151.035C499.722 149.825 500.437 148.725 500.822 147.625H500.877C500.987 147.35 499.887 146.8 499.777 147.13C499.007 148.615 497.742 151.365 499.117 152.08C500.767 152.85 505.717 147.845 505.717 147.845C505.662 148.065 503.902 154.115 503.792 154.5C497.797 158.9 491.802 165.775 491.087 170.285C490.537 173.695 493.947 173.365 495.542 172.265C496.697 171.495 497.687 170.505 498.512 169.405C500.107 167.15 501.262 164.675 502.307 162.255C503.297 159.835 504.452 156.755 505.167 154.28C507.422 152.245 512.042 149.11 512.042 149.11C512.042 149.11 511.987 148.89 511.932 148.835ZM501.152 161.76C500.162 164.18 498.952 166.545 497.522 168.69C496.807 169.735 496.367 170.45 495.377 171.165C493.012 173.035 491.087 172.265 492.517 168.69C493.672 165.665 497.742 160.11 503.462 155.545C502.802 157.415 501.867 159.89 501.152 161.76Z" fill="black"/>
<path d="M519.806 148.945C518.486 149.935 517.221 150.43 515.626 150.155C515.626 150.155 516.396 148.89 515.626 148.12C516.231 145.865 511.721 146.525 510.676 149C509.246 152.355 513.041 153.235 515.406 150.54C517.276 150.815 518.321 150.32 520.026 149.11C520.081 149.055 519.971 148.835 519.806 148.945ZM511.556 150.155C511.721 149 512.986 147.79 513.976 147.405C514.416 147.24 515.571 147.13 515.241 148.12C514.196 148.285 513.921 149.55 514.856 150.265C513.976 151.585 511.336 152.52 511.556 150.155ZM515.076 149.88C514.471 149.55 514.746 148.285 515.461 148.505C515.681 148.56 515.461 149.385 515.076 149.88Z" fill="black"/>
<path d="M530.026 148.835C525.296 152.41 523.756 152.08 524.416 150.155C524.636 149.33 525.186 148.01 525.461 147.13C525.516 146.965 525.021 146.415 524.636 146.635C523.206 149.165 521.996 150.265 520.126 151.31C518.806 152.08 520.126 149.11 521.171 147.735C521.171 147.735 520.566 146.8 520.181 147.075C519.631 147.515 518.366 150.155 518.311 150.87C518.091 153.51 521.611 151.475 523.316 149.66C521.996 153.29 525.626 152.96 530.246 149.055C530.301 149 530.136 148.78 530.026 148.835Z" fill="black"/>
<path d="M540.05 148.89C535.65 151.75 531.911 152.795 533.286 150.485C534.166 149.055 533.891 148.45 531.25 147.9C531.36 147.735 532.735 146.25 532.295 145.315C532.185 145.04 531.856 144.93 531.471 145.04C530.701 145.26 529.931 146.195 529.656 146.69C529.601 146.855 529.38 147.35 529.435 147.735C529.545 148.23 530.04 148.34 530.315 148.395C530.37 148.505 530.481 148.56 530.591 148.56C530.755 148.505 530.755 148.45 530.865 148.395C532.845 148.725 532.681 149.275 532.406 149.825C531.966 150.65 531.69 151.255 531.745 151.695C532.021 154.17 538.346 150.32 540.161 149.11H540.216C540.271 149.055 540.105 148.835 540.05 148.89ZM530.48 147.79C529.765 147.79 531.47 145.535 531.8 145.755C532.185 145.92 531.14 147.405 530.48 147.79Z" fill="black"/>
<path d="M557.073 148.835C555.203 150.21 553.003 151.2 551.133 151.805C547.778 152.85 547.943 148.78 550.858 146.69C551.188 146.525 551.573 146.415 551.903 146.58C552.178 146.69 552.343 147.13 552.288 147.515C552.288 147.625 552.288 147.735 552.288 147.845C552.288 147.845 552.343 148.12 552.562 148.065C552.562 148.065 552.948 146.8 553.113 146.47V146.415C553.168 146.415 553.168 146.415 553.168 146.36C553.223 146.195 552.838 146.195 552.783 146.305L552.562 146.745C552.453 146.525 552.343 146.36 552.123 146.195C551.628 145.865 549.208 145.865 547.558 149.165C546.403 151.475 548.108 153.235 551.243 152.245C553.388 151.53 555.478 150.375 557.293 149.055C557.348 149 557.182 148.725 557.073 148.835Z" fill="black"/>
<path d="M569.097 148.89C563.047 152.575 560.957 152.74 563.322 147.295C563.322 147.13 562.882 146.8 562.772 146.69C562.607 146.58 562.332 146.58 562.222 146.8C562.112 146.91 562.002 147.02 561.892 147.13C560.572 146.36 558.812 147.075 557.657 147.955C557.052 148.395 556.502 148.945 556.007 149.55C555.787 149.88 555.567 150.155 555.347 150.54C554.742 152.025 555.512 152.52 556.612 152.135C557.437 151.86 558.977 150.65 559.527 150.21C560.242 149.55 560.957 148.945 561.672 148.285C559.802 152.685 561.727 153.84 569.262 149.165C569.317 149.11 569.207 148.835 569.097 148.89ZM559.142 149.715C558.592 150.155 558.042 150.54 557.437 150.925C557.162 151.09 556.832 151.255 556.557 151.31C556.502 151.31 556.502 151.31 556.502 151.31C556.502 151.255 556.557 151.145 556.612 151.09C556.722 150.815 556.887 150.54 557.052 150.265C557.437 149.77 557.877 149.22 558.372 148.78C559.252 147.955 560.407 147.24 561.617 147.405C560.847 148.23 560.022 149 559.142 149.715Z" fill="black"/>
<path d="M581.377 148.89C575.052 154.06 575.437 152.19 574.337 149.275C573.897 147.955 572.467 146.36 568.892 150.1C569.112 149.22 570.212 147.46 570.542 147.075C570.817 146.855 570.157 146.36 569.277 146.91C568.782 147.24 567.517 150.375 567.517 151.805C567.462 152.355 568.177 152.3 568.177 152.3C571.642 147.24 572.577 148.12 573.347 150.595C574.447 154.28 576.372 153.29 581.542 149.165C581.652 149.11 581.432 148.835 581.377 148.89Z" fill="black"/>
<path d="M600.229 148.89C595.829 151.75 592.089 152.795 593.464 150.485C594.344 149.055 594.069 148.45 591.429 147.9C591.539 147.735 592.914 146.25 592.474 145.315C592.364 145.04 592.034 144.93 591.649 145.04C590.879 145.26 590.109 146.195 589.834 146.69C589.779 146.855 589.559 147.35 589.614 147.735C589.724 148.23 590.219 148.34 590.494 148.395C590.549 148.505 590.659 148.56 590.769 148.56C590.934 148.505 590.934 148.45 591.044 148.395C593.024 148.725 592.859 149.275 592.584 149.825C592.144 150.65 591.869 151.255 591.924 151.695C592.199 154.17 598.524 150.32 600.339 149.11H600.394C600.449 149.055 600.284 148.835 600.229 148.89ZM590.659 147.79C589.944 147.79 591.649 145.535 591.979 145.755C592.364 145.92 591.319 147.405 590.659 147.79Z" fill="black"/>
<path d="M608.685 148.615C605.275 151.31 598.73 153.455 600.16 150.21C601.37 149.935 602.415 149.605 603.405 148.835C605.275 147.405 603.845 146.745 603.57 146.69C603.295 146.58 603.02 146.58 602.745 146.58C602.14 146.69 601.645 146.91 601.205 147.13C600.325 147.68 599.665 148.45 599.115 149.275C597.63 152.08 599.555 152.575 600.27 152.63C601.975 152.685 604.945 151.75 608.905 148.835C608.96 148.78 608.74 148.56 608.685 148.615ZM601.865 148.065C602.195 147.79 602.525 147.57 602.855 147.46C603.515 147.24 604.23 147.405 603.02 148.395C602.69 148.725 601.7 149.33 600.435 149.66C600.875 149.11 601.37 148.56 601.865 148.065Z" fill="black"/>
<path d="M620.553 148.89C614.503 152.575 612.413 152.74 614.778 147.295C614.778 147.13 614.338 146.8 614.228 146.69C614.063 146.58 613.788 146.58 613.678 146.8C613.568 146.91 613.458 147.02 613.348 147.13C612.028 146.36 610.268 147.075 609.113 147.955C608.508 148.395 607.958 148.945 607.463 149.55C607.243 149.88 607.023 150.155 606.803 150.54C606.198 152.025 606.968 152.52 608.068 152.135C608.893 151.86 610.433 150.65 610.983 150.21C611.698 149.55 612.413 148.945 613.128 148.285C611.258 152.685 613.183 153.84 620.718 149.165C620.773 149.11 620.663 148.835 620.553 148.89ZM610.598 149.715C610.048 150.155 609.498 150.54 608.893 150.925C608.618 151.09 608.288 151.255 608.013 151.31C607.958 151.31 607.958 151.31 607.958 151.31C607.958 151.255 608.013 151.145 608.068 151.09C608.178 150.815 608.343 150.54 608.508 150.265C608.893 149.77 609.333 149.22 609.828 148.78C610.708 147.955 611.863 147.24 613.073 147.405C612.303 148.23 611.478 149 610.598 149.715Z" fill="black"/>
<path d="M638.278 128.705C638.278 128.595 638.168 128.375 638.003 128.265C637.893 128.21 637.783 128.1 637.618 128.045C636.958 127.825 636.463 128.155 636.133 128.43C635.748 128.705 635.473 128.98 635.198 129.31C634.648 129.915 634.153 130.63 633.768 131.29C632.063 134.04 630.688 136.955 629.533 139.87C628.763 141.85 628.048 143.83 627.333 145.81C626.893 146.36 626.508 146.855 626.068 147.35C625.573 146.8 624.858 146.47 624.088 146.47C623.153 146.47 622.273 146.855 621.613 147.295C620.183 148.23 618.863 149.44 618.368 151.255C618.258 151.75 618.148 152.41 618.698 153.015C619.358 153.51 620.898 153.51 622.603 152.025C624.418 150.375 625.848 149 626.563 148.01C626.453 148.285 622.438 166.05 636.243 149.055C636.243 149 636.133 148.945 636.023 148.89C622.713 164.84 628.268 146.58 628.763 145.26C629.863 143.885 630.908 142.455 631.898 141.025C633.768 138.44 635.528 135.745 636.958 132.94C637.343 132.225 637.673 131.455 637.948 130.685C638.113 130.355 638.223 129.915 638.333 129.475C638.333 129.255 638.388 129.035 638.278 128.705ZM625.518 148.065C624.418 149.22 622.493 151.475 620.293 152.245C619.963 152.355 619.303 152.685 619.633 151.585C619.963 150.375 621.063 149.11 622.218 148.285C623.263 147.46 624.968 146.58 625.683 147.79C625.628 147.9 625.573 147.955 625.518 148.065ZM637.233 130.465C636.958 131.18 636.628 131.895 636.243 132.555C634.428 136.02 632.283 139.32 629.918 142.455C630.193 141.795 630.468 141.08 630.743 140.42C632.063 137.505 633.218 134.59 634.703 131.895C635.088 131.18 635.473 130.52 635.968 129.915C636.353 129.365 637.068 128.76 637.343 128.87C637.673 128.76 637.508 129.805 637.233 130.465Z" fill="black"/>
<path d="M89.7502 195.835C89.7502 195.725 85.6252 198.53 83.2602 200.29C83.5902 199.19 84.3602 195.835 84.3602 195.835C84.7452 194.02 84.8002 193.58 83.5902 193.58C81.5002 196.22 77.4852 199.3 77.3202 198.035C77.5402 196.825 78.2552 195.725 78.6402 194.625H78.6952C78.8052 194.35 77.7052 193.8 77.5952 194.13C76.8252 195.615 75.5602 198.365 76.9352 199.08C78.5852 199.85 83.5352 194.845 83.5352 194.845C83.4802 195.065 81.7202 201.115 81.6102 201.5C75.6152 205.9 69.6202 212.775 68.9052 217.285C68.3552 220.695 71.7652 220.365 73.3602 219.265C74.5152 218.495 75.5052 217.505 76.3302 216.405C77.9252 214.15 79.0802 211.675 80.1252 209.255C81.1152 206.835 82.2702 203.755 82.9852 201.28C85.2402 199.245 89.8602 196.11 89.8602 196.11C89.8602 196.11 89.8052 195.89 89.7502 195.835ZM78.9702 208.76C77.9802 211.18 76.7702 213.545 75.3402 215.69C74.6252 216.735 74.1852 217.45 73.1952 218.165C70.8302 220.035 68.9052 219.265 70.3352 215.69C71.4902 212.665 75.5602 207.11 81.2802 202.545C80.6202 204.415 79.6852 206.89 78.9702 208.76Z" fill="black"/>
<path d="M97.6245 195.945C96.3045 196.935 95.0395 197.43 93.4445 197.155C93.4445 197.155 94.2144 195.89 93.4445 195.12C94.0495 192.865 89.5395 193.525 88.4945 196C87.0645 199.355 90.8595 200.235 93.2245 197.54C95.0945 197.815 96.1395 197.32 97.8445 196.11C97.8995 196.055 97.7895 195.835 97.6245 195.945ZM89.3745 197.155C89.5395 196 90.8045 194.79 91.7945 194.405C92.2345 194.24 93.3895 194.13 93.0595 195.12C92.0145 195.285 91.7395 196.55 92.6745 197.265C91.7945 198.585 89.1544 199.52 89.3745 197.155ZM92.8945 196.88C92.2895 196.55 92.5645 195.285 93.2795 195.505C93.4995 195.56 93.2795 196.385 92.8945 196.88Z" fill="black"/>
<path d="M107.844 195.835C103.114 199.41 101.574 199.08 102.234 197.155C102.454 196.33 103.004 195.01 103.279 194.13C103.334 193.965 102.839 193.415 102.454 193.635C101.024 196.165 99.8139 197.265 97.9439 198.31C96.6239 199.08 97.9439 196.11 98.9889 194.735C98.9889 194.735 98.3839 193.8 97.9989 194.075C97.4489 194.515 96.1839 197.155 96.1289 197.87C95.9089 200.51 99.4289 198.475 101.134 196.66C99.8139 200.29 103.444 199.96 108.064 196.055C108.119 196 107.954 195.78 107.844 195.835Z" fill="black"/>
<path d="M117.869 195.89C113.469 198.75 109.729 199.795 111.104 197.485C111.984 196.055 111.709 195.45 109.069 194.9C109.179 194.735 110.554 193.25 110.114 192.315C110.004 192.04 109.674 191.93 109.289 192.04C108.519 192.26 107.749 193.195 107.474 193.69C107.419 193.855 107.199 194.35 107.254 194.735C107.364 195.23 107.859 195.34 108.134 195.395C108.189 195.505 108.299 195.56 108.409 195.56C108.574 195.505 108.574 195.45 108.684 195.395C110.664 195.725 110.499 196.275 110.224 196.825C109.784 197.65 109.509 198.255 109.564 198.695C109.839 201.17 116.164 197.32 117.979 196.11H118.034C118.089 196.055 117.924 195.835 117.869 195.89ZM108.299 194.79C107.584 194.79 109.289 192.535 109.619 192.755C110.004 192.92 108.959 194.405 108.299 194.79Z" fill="black"/>
<path d="M138.246 195.89C132.196 199.575 130.106 199.74 132.471 194.295C132.471 194.13 132.031 193.8 131.921 193.69C131.756 193.58 131.481 193.58 131.371 193.8C131.261 193.91 131.151 194.02 131.041 194.13C129.721 193.36 127.961 194.075 126.806 194.955C126.201 195.395 125.651 195.945 125.156 196.55C124.936 196.88 124.716 197.155 124.496 197.54C123.891 199.025 124.661 199.52 125.761 199.135C126.586 198.86 128.126 197.65 128.676 197.21C129.391 196.55 130.106 195.945 130.821 195.285C128.951 199.685 130.876 200.84 138.411 196.165C138.466 196.11 138.356 195.835 138.246 195.89ZM128.291 196.715C127.741 197.155 127.191 197.54 126.586 197.925C126.311 198.09 125.981 198.255 125.706 198.31C125.651 198.31 125.651 198.31 125.651 198.31C125.651 198.255 125.706 198.145 125.761 198.09C125.871 197.815 126.036 197.54 126.201 197.265C126.586 196.77 127.026 196.22 127.521 195.78C128.401 194.955 129.556 194.24 130.766 194.405C129.996 195.23 129.171 196 128.291 196.715Z" fill="black"/>
<path d="M148.119 195.89C143.719 198.75 139.979 199.795 141.354 197.485C142.234 196.055 141.959 195.45 139.319 194.9C139.429 194.735 140.804 193.25 140.364 192.315C140.254 192.04 139.924 191.93 139.539 192.04C138.769 192.26 137.999 193.195 137.724 193.69C137.669 193.855 137.449 194.35 137.504 194.735C137.614 195.23 138.109 195.34 138.384 195.395C138.439 195.505 138.549 195.56 138.659 195.56C138.824 195.505 138.824 195.45 138.934 195.395C140.914 195.725 140.749 196.275 140.474 196.825C140.034 197.65 139.759 198.255 139.814 198.695C140.089 201.17 146.414 197.32 148.229 196.11H148.284C148.339 196.055 148.174 195.835 148.119 195.89ZM138.549 194.79C137.834 194.79 139.539 192.535 139.869 192.755C140.254 192.92 139.209 194.405 138.549 194.79Z" fill="black"/>
<path d="M165.979 182.25C162.734 182.525 159.544 182.965 156.354 183.57H156.299C156.96 182.635 157.564 181.59 158.279 180.655C158.774 179.94 159.27 179.17 159.654 178.345C159.874 177.96 160.04 177.575 160.204 177.135C160.259 176.86 160.37 176.64 160.37 176.365C160.37 176.255 160.369 176.09 160.314 175.87C160.26 175.595 159.764 175.43 159.6 175.54C158.939 175.815 158.719 176.145 158.389 176.475C158.115 176.86 157.839 177.19 157.564 177.575C157.07 178.29 156.575 179.06 156.135 179.775C155.31 181.205 154.54 182.69 153.77 184.12C153.055 184.23 152.339 184.395 151.624 184.56C150.029 184.945 148.49 185.22 146.895 186.1C146.73 186.155 147.115 186.815 147.279 186.705L147.335 186.65C148.6 185.99 150.25 185.605 151.79 185.165C152.285 185.055 152.835 184.945 153.385 184.78C148.875 192.645 143.209 203.7 145.904 207.495C146.344 208.1 147.06 207.935 147.555 207.825C151.185 207 159.765 198.97 161.855 196.165C161.91 196.055 161.634 195.89 161.579 195.945C154.979 203.425 147.389 208.485 146.564 206.78C145.464 204.14 148.544 197.045 151.24 191.655C152.56 189.4 153.935 187.2 155.365 185C155.475 184.725 155.695 184.505 155.859 184.23C156.024 184.175 156.244 184.12 156.464 184.12C159.599 183.515 162.789 183.02 165.979 182.745C166.145 182.69 166.255 182.58 166.255 182.47C166.2 182.36 166.089 182.25 165.979 182.25ZM154.814 184.615C154.43 185.165 154.1 185.77 153.77 186.32C153.99 185.825 154.21 185.33 154.43 184.835C154.484 184.725 154.54 184.615 154.594 184.505C154.704 184.505 154.814 184.45 154.924 184.45C154.87 184.505 154.814 184.56 154.814 184.615ZM155.365 183.79C155.255 183.79 155.089 183.845 154.979 183.845C155.584 182.635 156.189 181.37 156.85 180.215C157.29 179.445 157.73 178.73 158.225 178.015C158.445 177.63 158.719 177.3 158.994 176.97C159.159 176.75 159.435 176.53 159.6 176.365C159.6 176.53 159.544 176.695 159.49 176.86C159.38 177.245 159.214 177.685 158.994 178.015C158.609 178.785 158.169 179.555 157.674 180.27C156.904 181.425 156.135 182.58 155.365 183.79Z" fill="black"/>
<path d="M168.432 195.945C165.792 197.705 162.492 199.355 161.831 198.31C161.777 197.98 161.887 197.43 162.051 196.935C162.382 195.945 162.656 195.615 163.206 194.68C163.206 194.625 163.207 194.625 163.262 194.57C163.372 194.24 162.712 192.7 161.887 194.13C161.337 195.12 161.117 195.615 160.842 196.825C160.512 197.98 160.786 199.19 161.997 199.3C163.152 199.41 165.846 198.145 168.596 196.165C168.706 196.11 168.542 195.89 168.432 195.945ZM164.637 191.82C164.691 191.655 164.581 190.83 164.197 191.215C163.757 191.6 162.986 191.985 162.876 192.205C162.712 192.645 164.527 192.37 164.637 191.82Z" fill="black"/>
<path d="M177.248 195.835C175.378 197.21 173.178 198.2 171.308 198.805C167.953 199.85 168.118 195.78 171.033 193.69C171.363 193.525 171.748 193.415 172.078 193.58C172.353 193.69 172.518 194.13 172.463 194.515C172.463 194.625 172.463 194.735 172.463 194.845C172.463 194.845 172.518 195.12 172.738 195.065C172.738 195.065 173.123 193.8 173.288 193.47V193.415C173.343 193.415 173.343 193.415 173.343 193.36C173.398 193.195 173.013 193.195 172.958 193.305L172.738 193.745C172.628 193.525 172.518 193.36 172.298 193.195C171.803 192.865 169.383 192.865 167.733 196.165C166.578 198.475 168.283 200.235 171.418 199.245C173.563 198.53 175.653 197.375 177.468 196.055C177.523 196 177.358 195.725 177.248 195.835Z" fill="black"/>
<path d="M190.427 196.165C190.482 196.11 190.262 195.89 190.207 195.945C179.042 207.055 176.182 204.195 178.272 195.89C186.357 185.66 190.427 179.555 190.977 176.145C191.142 174.935 189.712 173.78 186.852 176.915C184.542 179.39 182.727 182.305 181.132 185.33C179.537 188.355 178.162 191.545 177.227 194.845C174.587 204.25 177.832 209.365 190.427 196.165ZM187.347 177.41C188.007 176.585 188.722 175.925 189.052 175.705C189.657 175.32 190.482 175.32 190.372 176.035C189.712 180.05 183.057 188.795 178.547 194.515C180.417 187.475 185.312 179.995 187.347 177.41Z" fill="black"/>
<path d="M198.717 195.615C195.307 198.31 188.762 200.455 190.192 197.21C191.402 196.935 192.447 196.605 193.437 195.835C195.307 194.405 193.877 193.745 193.602 193.69C193.327 193.58 193.052 193.58 192.777 193.58C192.172 193.69 191.677 193.91 191.237 194.13C190.357 194.68 189.697 195.45 189.147 196.275C187.662 199.08 189.587 199.575 190.302 199.63C192.007 199.685 194.977 198.75 198.937 195.835C198.992 195.78 198.772 195.56 198.717 195.615ZM191.897 195.065C192.227 194.79 192.557 194.57 192.887 194.46C193.547 194.24 194.262 194.405 193.052 195.395C192.722 195.725 191.732 196.33 190.467 196.66C190.907 196.11 191.402 195.56 191.897 195.065Z" fill="black"/>
<path d="M205.965 195.89C203.875 196.66 201.785 197.54 199.805 198.64V198.585C199.86 197.87 199.86 197.1 199.86 196.385C199.915 195.505 199.915 194.625 200.025 193.8C201.015 193.25 201.895 192.535 202.445 191.545C202.995 190.61 202.885 189.455 201.29 190.17C200.3 190.61 198.925 191.875 198.76 194.02C198.705 194.02 198.65 194.075 198.595 194.075C198.54 194.13 198.485 194.185 198.485 194.295C198.54 194.35 198.595 194.405 198.705 194.405C198.705 194.35 198.705 194.35 198.705 194.35C198.595 195.01 198.485 198.42 198.485 199.41C198.155 199.63 197.825 199.85 197.55 200.07C196.89 200.51 196.285 201.005 195.79 201.665C195.57 201.995 195.35 202.38 195.35 202.875C195.295 203.315 195.57 203.81 196.065 204.03C197.055 204.415 198.045 203.865 198.65 203.205C199.2 202.545 199.475 201.72 199.695 200.95C199.805 200.29 199.805 199.685 199.805 199.08C201.84 197.925 203.93 196.99 206.075 196.11C206.13 196.055 206.075 195.835 205.965 195.89ZM200.41 192.15C200.74 191.105 203.105 189.235 202.115 191.38C201.675 192.26 200.96 192.975 200.08 193.47C200.135 193.03 200.245 192.59 200.41 192.15ZM198.485 200.785C198.375 201.445 198.21 202.16 197.88 202.655C197.55 203.205 196.89 203.645 196.34 203.48C195.79 203.315 195.79 202.49 196.175 201.885C196.56 201.28 197.11 200.785 197.77 200.345C197.99 200.18 198.265 200.015 198.485 199.905C198.485 200.18 198.485 200.51 198.485 200.785Z" fill="black"/>
<path d="M222.516 195.945C221.196 196.935 219.931 197.43 218.336 197.155C218.336 197.155 219.106 195.89 218.336 195.12C218.941 192.865 214.431 193.525 213.386 196C211.956 199.355 215.751 200.235 218.116 197.54C219.986 197.815 221.031 197.32 222.736 196.11C222.791 196.055 222.681 195.835 222.516 195.945ZM214.266 197.155C214.431 196 215.696 194.79 216.686 194.405C217.126 194.24 218.281 194.13 217.951 195.12C216.906 195.285 216.631 196.55 217.566 197.265C216.686 198.585 214.046 199.52 214.266 197.155ZM217.786 196.88C217.181 196.55 217.456 195.285 218.171 195.505C218.391 195.56 218.171 196.385 217.786 196.88Z" fill="black"/>
<path d="M235.155 195.89C228.83 201.06 229.215 199.19 228.115 196.275C227.675 194.955 226.245 193.36 222.67 197.1C222.89 196.22 223.99 194.46 224.32 194.075C224.595 193.855 223.935 193.36 223.055 193.91C222.56 194.24 221.295 197.375 221.295 198.805C221.24 199.355 221.955 199.3 221.955 199.3C225.42 194.24 226.355 195.12 227.125 197.595C228.225 201.28 230.15 200.29 235.32 196.165C235.43 196.11 235.21 195.835 235.155 195.89Z" fill="black"/>
<path d="M251.477 195.945C250.157 196.935 248.892 197.43 247.297 197.155C247.297 197.155 248.067 195.89 247.297 195.12C247.902 192.865 243.392 193.525 242.347 196C240.917 199.355 244.712 200.235 247.077 197.54C248.947 197.815 249.992 197.32 251.697 196.11C251.752 196.055 251.642 195.835 251.477 195.945ZM243.227 197.155C243.392 196 244.657 194.79 245.647 194.405C246.087 194.24 247.242 194.13 246.912 195.12C245.867 195.285 245.592 196.55 246.527 197.265C245.647 198.585 243.007 199.52 243.227 197.155ZM246.747 196.88C246.142 196.55 246.417 195.285 247.132 195.505C247.352 195.56 247.132 196.385 246.747 196.88Z" fill="black"/>
<path d="M261.697 195.835C256.967 199.41 255.427 199.08 256.087 197.155C256.307 196.33 256.857 195.01 257.132 194.13C257.187 193.965 256.692 193.415 256.307 193.635C254.877 196.165 253.667 197.265 251.797 198.31C250.477 199.08 251.797 196.11 252.842 194.735C252.842 194.735 252.237 193.8 251.852 194.075C251.302 194.515 250.037 197.155 249.982 197.87C249.762 200.51 253.282 198.475 254.987 196.66C253.667 200.29 257.297 199.96 261.917 196.055C261.972 196 261.807 195.78 261.697 195.835Z" fill="black"/>
<path d="M271.722 195.89C267.322 198.75 263.582 199.795 264.957 197.485C265.837 196.055 265.562 195.45 262.922 194.9C263.032 194.735 264.407 193.25 263.967 192.315C263.857 192.04 263.527 191.93 263.142 192.04C262.372 192.26 261.602 193.195 261.327 193.69C261.272 193.855 261.052 194.35 261.107 194.735C261.217 195.23 261.712 195.34 261.987 195.395C262.042 195.505 262.152 195.56 262.262 195.56C262.427 195.505 262.427 195.45 262.537 195.395C264.517 195.725 264.352 196.275 264.077 196.825C263.637 197.65 263.362 198.255 263.417 198.695C263.692 201.17 270.017 197.32 271.832 196.11H271.887C271.942 196.055 271.777 195.835 271.722 195.89ZM262.152 194.79C261.437 194.79 263.142 192.535 263.472 192.755C263.857 192.92 262.812 194.405 262.152 194.79Z" fill="black"/>
<path d="M295.509 195.945C293.639 197.375 291.219 197.595 291.219 196.165C291.824 194.35 291.824 193.25 291.659 193.03C291.439 192.755 291.274 192.81 290.889 193.03C290.614 193.195 289.624 195.175 290.284 196.55C289.459 199.245 288.304 200.235 287.589 200.235C286.599 200.235 285.994 198.145 287.094 193.745V193.69C287.094 193.58 286.599 193.195 286.269 193.36C285.939 193.525 280.549 199.135 280.769 197.595C281.044 195.45 282.309 193.36 282.969 192.59C283.189 192.37 282.639 191.82 281.979 192.15C280.879 192.755 279.559 196.275 279.614 198.2C279.614 198.915 280.164 198.97 280.384 198.915C281.649 198.64 285.389 195.175 285.389 195.175C285.059 197.1 285.004 200.84 286.654 201.06C288.854 201.39 290.174 199.025 290.889 197.045C291.769 197.98 294.079 197.43 295.619 196.11C295.619 196.11 295.564 195.945 295.509 195.945Z" fill="black"/>
<path d="M304.229 195.615C300.819 198.31 294.274 200.455 295.704 197.21C296.914 196.935 297.959 196.605 298.949 195.835C300.819 194.405 299.389 193.745 299.114 193.69C298.839 193.58 298.564 193.58 298.289 193.58C297.684 193.69 297.189 193.91 296.749 194.13C295.869 194.68 295.209 195.45 294.659 196.275C293.174 199.08 295.099 199.575 295.814 199.63C297.519 199.685 300.489 198.75 304.449 195.835C304.504 195.78 304.284 195.56 304.229 195.615ZM297.409 195.065C297.739 194.79 298.069 194.57 298.399 194.46C299.059 194.24 299.774 194.405 298.564 195.395C298.234 195.725 297.244 196.33 295.979 196.66C296.419 196.11 296.914 195.56 297.409 195.065Z" fill="black"/>
<path d="M317.417 195.89C316.262 196.11 314.392 196.66 313.127 197.155C313.127 197.045 313.182 196.99 313.237 196.935C313.347 196.495 313.457 196 313.402 195.505C313.347 194.955 313.017 194.46 312.577 194.185C311.807 193.525 310.652 193.635 309.882 194.02C309.112 194.405 308.452 195.01 307.847 195.56C306.087 197.43 304.822 199.245 303.502 201.445C304.052 198.915 304.382 197.375 304.987 195.395C307.462 191.765 309.772 188.465 312.137 184.78C313.292 182.91 315.437 178.62 315.492 177.135C315.547 175.98 314.227 175.98 313.622 176.2C313.017 176.42 311.752 177.795 311.037 178.675C308.397 182.415 306.637 186.595 305.262 190.83C303.942 195.12 302.677 199.41 302.182 203.865C302.127 204.085 302.237 204.25 302.402 204.36C302.622 204.47 302.897 204.36 303.007 204.14C304.437 201.225 306.087 198.365 308.287 196C308.837 195.395 309.442 194.9 310.157 194.57C310.817 194.24 311.587 194.295 312.082 194.79C312.577 195.23 312.467 195.89 312.137 196.495C311.862 197.045 311.532 197.595 311.147 198.09C309.992 198.64 308.837 199.245 307.737 199.96C307.022 200.455 306.307 200.895 305.757 201.665C305.647 201.885 305.372 202.215 305.702 202.765C306.087 203.095 306.417 203.095 306.692 203.04C307.242 202.93 307.627 202.71 308.012 202.545C309.497 201.665 310.762 200.51 311.917 199.245C312.247 198.75 312.577 198.2 312.907 197.65C314.172 197.1 316.207 196.495 317.527 196.11C317.637 196.055 317.527 195.89 317.417 195.89ZM306.307 191.215C308.012 187.145 309.662 183.02 312.027 179.39C312.632 178.565 313.347 177.63 314.117 177.19C314.282 177.135 314.447 177.08 314.557 177.08C314.722 177.135 314.612 177.025 314.722 177.19C314.777 177.52 314.612 178.07 314.447 178.565C313.732 180.545 312.632 182.525 311.532 184.395C309.717 187.365 307.737 190.225 305.702 192.975C305.922 192.425 306.087 191.82 306.307 191.215ZM307.462 201.61C307.132 201.83 306.802 202.05 306.527 202.105C306.527 202.16 306.472 202.105 306.472 202.105C306.802 201.5 307.462 200.95 308.067 200.455C308.837 199.905 309.607 199.41 310.377 198.97C309.497 199.96 308.562 200.895 307.462 201.61Z" fill="black"/>
<path d="M324.336 195.89C322.246 196.66 320.156 197.54 318.176 198.64V198.585C318.231 197.87 318.231 197.1 318.231 196.385C318.286 195.505 318.286 194.625 318.396 193.8C319.386 193.25 320.266 192.535 320.816 191.545C321.366 190.61 321.256 189.455 319.661 190.17C318.671 190.61 317.296 191.875 317.131 194.02C317.076 194.02 317.021 194.075 316.966 194.075C316.911 194.13 316.856 194.185 316.856 194.295C316.911 194.35 316.966 194.405 317.076 194.405C317.076 194.35 317.076 194.35 317.076 194.35C316.966 195.01 316.856 198.42 316.856 199.41C316.526 199.63 316.196 199.85 315.921 200.07C315.261 200.51 314.656 201.005 314.161 201.665C313.941 201.995 313.721 202.38 313.721 202.875C313.666 203.315 313.941 203.81 314.436 204.03C315.426 204.415 316.416 203.865 317.021 203.205C317.571 202.545 317.846 201.72 318.066 200.95C318.176 200.29 318.176 199.685 318.176 199.08C320.211 197.925 322.301 196.99 324.446 196.11C324.501 196.055 324.446 195.835 324.336 195.89ZM318.781 192.15C319.111 191.105 321.476 189.235 320.486 191.38C320.046 192.26 319.331 192.975 318.451 193.47C318.506 193.03 318.616 192.59 318.781 192.15ZM316.856 200.785C316.746 201.445 316.581 202.16 316.251 202.655C315.921 203.205 315.261 203.645 314.711 203.48C314.161 203.315 314.161 202.49 314.546 201.885C314.931 201.28 315.481 200.785 316.141 200.345C316.361 200.18 316.636 200.015 316.856 199.905C316.856 200.18 316.856 200.51 316.856 200.785Z" fill="black"/>
<path d="M331.061 195.945C328.421 197.705 325.121 199.355 324.461 198.31C324.406 197.98 324.516 197.43 324.681 196.935C325.011 195.945 325.286 195.615 325.836 194.68C325.836 194.625 325.836 194.625 325.891 194.57C326.001 194.24 325.341 192.7 324.516 194.13C323.966 195.12 323.746 195.615 323.471 196.825C323.141 197.98 323.416 199.19 324.626 199.3C325.781 199.41 328.476 198.145 331.226 196.165C331.336 196.11 331.171 195.89 331.061 195.945ZM327.266 191.82C327.321 191.655 327.211 190.83 326.826 191.215C326.386 191.6 325.616 191.985 325.506 192.205C325.341 192.645 327.156 192.37 327.266 191.82Z" fill="black"/>
<path d="M349.062 182.25C345.817 182.525 342.627 182.965 339.437 183.57H339.382C340.042 182.635 340.647 181.59 341.362 180.655C341.857 179.94 342.352 179.17 342.737 178.345C342.957 177.96 343.122 177.575 343.287 177.135C343.342 176.86 343.452 176.64 343.452 176.365C343.452 176.255 343.452 176.09 343.397 175.87C343.342 175.595 342.847 175.43 342.682 175.54C342.022 175.815 341.802 176.145 341.472 176.475C341.197 176.86 340.922 177.19 340.647 177.575C340.152 178.29 339.657 179.06 339.217 179.775C338.392 181.205 337.622 182.69 336.852 184.12C336.137 184.23 335.422 184.395 334.707 184.56C333.112 184.945 331.572 185.22 329.977 186.1C329.812 186.155 330.197 186.815 330.362 186.705L330.417 186.65C331.682 185.99 333.332 185.605 334.872 185.165C335.367 185.055 335.917 184.945 336.467 184.78C331.957 192.645 326.292 203.7 328.987 207.495C329.427 208.1 330.142 207.935 330.637 207.825C334.267 207 342.847 198.97 344.937 196.165C344.992 196.055 344.717 195.89 344.662 195.945C338.062 203.425 330.472 208.485 329.647 206.78C328.547 204.14 331.627 197.045 334.322 191.655C335.642 189.4 337.017 187.2 338.447 185C338.557 184.725 338.777 184.505 338.942 184.23C339.107 184.175 339.327 184.12 339.547 184.12C342.682 183.515 345.872 183.02 349.062 182.745C349.227 182.69 349.337 182.58 349.337 182.47C349.282 182.36 349.172 182.25 349.062 182.25ZM337.897 184.615C337.512 185.165 337.182 185.77 336.852 186.32C337.072 185.825 337.292 185.33 337.512 184.835C337.567 184.725 337.622 184.615 337.677 184.505C337.787 184.505 337.897 184.45 338.007 184.45C337.952 184.505 337.897 184.56 337.897 184.615ZM338.447 183.79C338.337 183.79 338.172 183.845 338.062 183.845C338.667 182.635 339.272 181.37 339.932 180.215C340.372 179.445 340.812 178.73 341.307 178.015C341.527 177.63 341.802 177.3 342.077 176.97C342.242 176.75 342.517 176.53 342.682 176.365C342.682 176.53 342.627 176.695 342.572 176.86C342.462 177.245 342.297 177.685 342.077 178.015C341.692 178.785 341.252 179.555 340.757 180.27C339.987 181.425 339.217 182.58 338.447 183.79Z" fill="black"/>
<path d="M353.268 195.615C349.858 198.31 343.313 200.455 344.743 197.21C345.953 196.935 346.998 196.605 347.988 195.835C349.858 194.405 348.428 193.745 348.153 193.69C347.878 193.58 347.603 193.58 347.328 193.58C346.723 193.69 346.228 193.91 345.788 194.13C344.908 194.68 344.248 195.45 343.698 196.275C342.213 199.08 344.138 199.575 344.853 199.63C346.558 199.685 349.528 198.75 353.488 195.835C353.543 195.78 353.323 195.56 353.268 195.615ZM346.448 195.065C346.778 194.79 347.108 194.57 347.438 194.46C348.098 194.24 348.813 194.405 347.603 195.395C347.273 195.725 346.283 196.33 345.018 196.66C345.458 196.11 345.953 195.56 346.448 195.065Z" fill="black"/>
<path d="M373.483 195.89C367.433 199.575 365.343 199.74 367.708 194.295C367.708 194.13 367.268 193.8 367.158 193.69C366.993 193.58 366.718 193.58 366.608 193.8C366.498 193.91 366.388 194.02 366.278 194.13C364.958 193.36 363.198 194.075 362.043 194.955C361.438 195.395 360.888 195.945 360.393 196.55C360.173 196.88 359.953 197.155 359.733 197.54C359.128 199.025 359.898 199.52 360.998 199.135C361.823 198.86 363.363 197.65 363.913 197.21C364.628 196.55 365.343 195.945 366.058 195.285C364.188 199.685 366.113 200.84 373.648 196.165C373.703 196.11 373.593 195.835 373.483 195.89ZM363.528 196.715C362.978 197.155 362.428 197.54 361.823 197.925C361.548 198.09 361.218 198.255 360.943 198.31C360.888 198.31 360.888 198.31 360.888 198.31C360.888 198.255 360.943 198.145 360.998 198.09C361.108 197.815 361.273 197.54 361.438 197.265C361.823 196.77 362.263 196.22 362.758 195.78C363.638 194.955 364.793 194.24 366.003 194.405C365.233 195.23 364.408 196 363.528 196.715Z" fill="black"/>
<path d="M380.218 195.89C378.128 196.66 376.038 197.54 374.058 198.64V198.585C374.113 197.87 374.113 197.1 374.113 196.385C374.168 195.505 374.168 194.625 374.278 193.8C375.268 193.25 376.148 192.535 376.698 191.545C377.248 190.61 377.138 189.455 375.543 190.17C374.553 190.61 373.178 191.875 373.013 194.02C372.958 194.02 372.903 194.075 372.848 194.075C372.793 194.13 372.738 194.185 372.738 194.295C372.793 194.35 372.848 194.405 372.958 194.405C372.958 194.35 372.958 194.35 372.958 194.35C372.848 195.01 372.738 198.42 372.738 199.41C372.408 199.63 372.078 199.85 371.803 200.07C371.143 200.51 370.538 201.005 370.043 201.665C369.823 201.995 369.603 202.38 369.603 202.875C369.548 203.315 369.823 203.81 370.318 204.03C371.308 204.415 372.298 203.865 372.903 203.205C373.453 202.545 373.728 201.72 373.948 200.95C374.058 200.29 374.058 199.685 374.058 199.08C376.093 197.925 378.183 196.99 380.328 196.11C380.383 196.055 380.328 195.835 380.218 195.89ZM374.663 192.15C374.993 191.105 377.358 189.235 376.368 191.38C375.928 192.26 375.213 192.975 374.333 193.47C374.388 193.03 374.498 192.59 374.663 192.15ZM372.738 200.785C372.628 201.445 372.463 202.16 372.133 202.655C371.803 203.205 371.143 203.645 370.593 203.48C370.043 203.315 370.043 202.49 370.428 201.885C370.813 201.28 371.363 200.785 372.023 200.345C372.243 200.18 372.518 200.015 372.738 199.905C372.738 200.18 372.738 200.51 372.738 200.785Z" fill="black"/>
<path d="M404.028 195.945C402.158 197.375 399.738 197.595 399.738 196.165C400.343 194.35 400.343 193.25 400.178 193.03C399.958 192.755 399.793 192.81 399.408 193.03C399.133 193.195 398.143 195.175 398.803 196.55C397.978 199.245 396.823 200.235 396.108 200.235C395.118 200.235 394.513 198.145 395.613 193.745V193.69C395.613 193.58 395.118 193.195 394.788 193.36C394.458 193.525 389.068 199.135 389.288 197.595C389.563 195.45 390.828 193.36 391.488 192.59C391.708 192.37 391.158 191.82 390.498 192.15C389.398 192.755 388.078 196.275 388.133 198.2C388.133 198.915 388.683 198.97 388.903 198.915C390.168 198.64 393.908 195.175 393.908 195.175C393.578 197.1 393.523 200.84 395.173 201.06C397.373 201.39 398.693 199.025 399.408 197.045C400.288 197.98 402.598 197.43 404.138 196.11C404.138 196.11 404.083 195.945 404.028 195.945Z" fill="black"/>
<path d="M412.749 195.615C409.339 198.31 402.794 200.455 404.224 197.21C405.434 196.935 406.479 196.605 407.469 195.835C409.339 194.405 407.909 193.745 407.634 193.69C407.359 193.58 407.084 193.58 406.809 193.58C406.204 193.69 405.709 193.91 405.269 194.13C404.389 194.68 403.729 195.45 403.179 196.275C401.694 199.08 403.619 199.575 404.334 199.63C406.039 199.685 409.009 198.75 412.969 195.835C413.024 195.78 412.804 195.56 412.749 195.615ZM405.929 195.065C406.259 194.79 406.589 194.57 406.919 194.46C407.579 194.24 408.294 194.405 407.084 195.395C406.754 195.725 405.764 196.33 404.499 196.66C404.939 196.11 405.434 195.56 405.929 195.065Z" fill="black"/>
<path d="M425.112 195.01C430.887 186.045 437.927 175.76 433.912 177.355C432.152 178.07 428.907 183.295 427.532 185.88C426.157 188.465 425.002 191.215 424.177 194.075C424.012 194.735 423.847 195.395 423.737 196C415.102 206.45 411.472 203.975 413.507 195.89C421.647 185.605 425.717 179.555 426.212 176.145C426.432 174.935 424.947 173.725 422.087 176.86C419.832 179.39 417.962 182.305 416.367 185.275C414.772 188.3 413.452 191.49 412.517 194.845C409.932 203.92 413.727 208.925 423.627 196.66C422.692 202.765 425.717 205.13 434.572 196.165C434.682 196.11 434.627 195.89 434.462 195.89C425.607 204.415 423.352 201.94 425.112 195.01ZM432.867 179.06C433.472 178.345 434.077 177.795 434.352 177.63C436.112 176.805 428.412 188.63 425.332 193.8C426.927 187.75 431.107 181.26 432.867 179.06ZM422.582 177.355C423.242 176.585 424.012 175.925 424.342 175.705C424.892 175.265 425.772 175.265 425.607 176.035C425.002 179.995 418.292 188.74 413.837 194.515C415.652 187.475 420.547 179.94 422.582 177.355Z" fill="black"/>
<path d="M454.738 195.89C448.688 199.575 446.598 199.74 448.963 194.295C448.963 194.13 448.523 193.8 448.413 193.69C448.248 193.58 447.973 193.58 447.863 193.8C447.753 193.91 447.643 194.02 447.533 194.13C446.213 193.36 444.453 194.075 443.298 194.955C442.693 195.395 442.143 195.945 441.648 196.55C441.428 196.88 441.208 197.155 440.988 197.54C440.383 199.025 441.153 199.52 442.253 199.135C443.078 198.86 444.618 197.65 445.168 197.21C445.883 196.55 446.598 195.945 447.313 195.285C445.443 199.685 447.368 200.84 454.903 196.165C454.958 196.11 454.848 195.835 454.738 195.89ZM444.783 196.715C444.233 197.155 443.683 197.54 443.078 197.925C442.803 198.09 442.473 198.255 442.198 198.31C442.143 198.31 442.143 198.31 442.143 198.31C442.143 198.255 442.198 198.145 442.253 198.09C442.363 197.815 442.528 197.54 442.693 197.265C443.078 196.77 443.518 196.22 444.013 195.78C444.893 194.955 446.048 194.24 447.258 194.405C446.488 195.23 445.663 196 444.783 196.715Z" fill="black"/>
<path d="M461.473 195.89C459.383 196.66 457.293 197.54 455.313 198.64V198.585C455.368 197.87 455.368 197.1 455.368 196.385C455.423 195.505 455.423 194.625 455.533 193.8C456.523 193.25 457.403 192.535 457.953 191.545C458.503 190.61 458.393 189.455 456.798 190.17C455.808 190.61 454.433 191.875 454.268 194.02C454.213 194.02 454.158 194.075 454.103 194.075C454.048 194.13 453.993 194.185 453.993 194.295C454.048 194.35 454.103 194.405 454.213 194.405C454.213 194.35 454.213 194.35 454.213 194.35C454.103 195.01 453.993 198.42 453.993 199.41C453.663 199.63 453.333 199.85 453.058 200.07C452.398 200.51 451.793 201.005 451.298 201.665C451.078 201.995 450.858 202.38 450.858 202.875C450.803 203.315 451.078 203.81 451.573 204.03C452.563 204.415 453.553 203.865 454.158 203.205C454.708 202.545 454.983 201.72 455.203 200.95C455.313 200.29 455.313 199.685 455.313 199.08C457.348 197.925 459.438 196.99 461.583 196.11C461.638 196.055 461.583 195.835 461.473 195.89ZM455.918 192.15C456.248 191.105 458.613 189.235 457.623 191.38C457.183 192.26 456.468 192.975 455.588 193.47C455.643 193.03 455.753 192.59 455.918 192.15ZM453.993 200.785C453.883 201.445 453.718 202.16 453.388 202.655C453.058 203.205 452.398 203.645 451.848 203.48C451.298 203.315 451.298 202.49 451.683 201.885C452.068 201.28 452.618 200.785 453.278 200.345C453.498 200.18 453.773 200.015 453.993 199.905C453.993 200.18 453.993 200.51 453.993 200.785Z" fill="black"/>
<path d="M476.814 195.945C474.174 197.705 470.874 199.355 470.214 198.31C470.159 197.98 470.269 197.43 470.434 196.935C470.764 195.945 471.039 195.615 471.589 194.68C471.589 194.625 471.589 194.625 471.644 194.57C471.754 194.24 471.094 192.7 470.269 194.13C469.719 195.12 469.499 195.615 469.224 196.825C468.894 197.98 469.169 199.19 470.379 199.3C471.534 199.41 474.229 198.145 476.979 196.165C477.089 196.11 476.924 195.89 476.814 195.945ZM473.019 191.82C473.074 191.655 472.964 190.83 472.579 191.215C472.139 191.6 471.369 191.985 471.259 192.205C471.094 192.645 472.909 192.37 473.019 191.82Z" fill="black"/>
<path d="M489.535 195.89C483.21 201.06 483.595 199.19 482.495 196.275C482.055 194.955 480.625 193.36 477.05 197.1C477.27 196.22 478.37 194.46 478.7 194.075C478.975 193.855 478.315 193.36 477.435 193.91C476.94 194.24 475.675 197.375 475.675 198.805C475.62 199.355 476.335 199.3 476.335 199.3C479.8 194.24 480.735 195.12 481.505 197.595C482.605 201.28 484.53 200.29 489.7 196.165C489.81 196.11 489.59 195.835 489.535 195.89Z" fill="black"/>
<path d="M509.982 195.835C509.982 195.725 505.857 198.53 503.492 200.29C503.822 199.19 504.592 195.835 504.592 195.835C504.977 194.02 505.032 193.58 503.822 193.58C501.732 196.22 497.717 199.3 497.552 198.035C497.772 196.825 498.487 195.725 498.872 194.625H498.927C499.037 194.35 497.937 193.8 497.827 194.13C497.057 195.615 495.792 198.365 497.167 199.08C498.817 199.85 503.767 194.845 503.767 194.845C503.712 195.065 501.952 201.115 501.842 201.5C495.847 205.9 489.852 212.775 489.137 217.285C488.587 220.695 491.997 220.365 493.592 219.265C494.747 218.495 495.737 217.505 496.562 216.405C498.157 214.15 499.312 211.675 500.357 209.255C501.347 206.835 502.502 203.755 503.217 201.28C505.472 199.245 510.092 196.11 510.092 196.11C510.092 196.11 510.037 195.89 509.982 195.835ZM499.202 208.76C498.212 211.18 497.002 213.545 495.572 215.69C494.857 216.735 494.417 217.45 493.427 218.165C491.062 220.035 489.137 219.265 490.567 215.69C491.722 212.665 495.792 207.11 501.512 202.545C500.852 204.415 499.917 206.89 499.202 208.76Z" fill="black"/>
<path d="M517.857 195.945C516.537 196.935 515.272 197.43 513.677 197.155C513.677 197.155 514.447 195.89 513.677 195.12C514.282 192.865 509.772 193.525 508.727 196C507.297 199.355 511.092 200.235 513.457 197.54C515.327 197.815 516.372 197.32 518.077 196.11C518.132 196.055 518.022 195.835 517.857 195.945ZM509.607 197.155C509.772 196 511.037 194.79 512.027 194.405C512.467 194.24 513.622 194.13 513.292 195.12C512.247 195.285 511.972 196.55 512.907 197.265C512.027 198.585 509.387 199.52 509.607 197.155ZM513.127 196.88C512.522 196.55 512.797 195.285 513.512 195.505C513.732 195.56 513.512 196.385 513.127 196.88Z" fill="black"/>
<path d="M528.076 195.835C523.346 199.41 521.806 199.08 522.466 197.155C522.686 196.33 523.236 195.01 523.511 194.13C523.566 193.965 523.071 193.415 522.686 193.635C521.256 196.165 520.046 197.265 518.176 198.31C516.856 199.08 518.176 196.11 519.221 194.735C519.221 194.735 518.616 193.8 518.231 194.075C517.681 194.515 516.416 197.155 516.361 197.87C516.141 200.51 519.661 198.475 521.366 196.66C520.046 200.29 523.676 199.96 528.296 196.055C528.351 196 528.186 195.78 528.076 195.835Z" fill="black"/>
<path d="M538.101 195.89C533.701 198.75 529.961 199.795 531.336 197.485C532.216 196.055 531.941 195.45 529.301 194.9C529.411 194.735 530.786 193.25 530.346 192.315C530.236 192.04 529.906 191.93 529.521 192.04C528.751 192.26 527.981 193.195 527.706 193.69C527.651 193.855 527.431 194.35 527.486 194.735C527.596 195.23 528.091 195.34 528.366 195.395C528.421 195.505 528.531 195.56 528.641 195.56C528.806 195.505 528.806 195.45 528.916 195.395C530.896 195.725 530.731 196.275 530.456 196.825C530.016 197.65 529.741 198.255 529.796 198.695C530.071 201.17 536.396 197.32 538.211 196.11H538.266C538.321 196.055 538.156 195.835 538.101 195.89ZM528.531 194.79C527.816 194.79 529.521 192.535 529.851 192.755C530.236 192.92 529.191 194.405 528.531 194.79Z" fill="black"/>
<path d="M554.903 195.615C551.493 198.31 544.948 200.455 546.378 197.21C547.588 196.935 548.633 196.605 549.623 195.835C551.493 194.405 550.063 193.745 549.788 193.69C549.513 193.58 549.238 193.58 548.963 193.58C548.358 193.69 547.863 193.91 547.423 194.13C546.543 194.68 545.883 195.45 545.333 196.275C543.848 199.08 545.773 199.575 546.488 199.63C548.193 199.685 551.163 198.75 555.123 195.835C555.178 195.78 554.958 195.56 554.903 195.615ZM548.083 195.065C548.413 194.79 548.743 194.57 549.073 194.46C549.733 194.24 550.448 194.405 549.238 195.395C548.908 195.725 547.918 196.33 546.653 196.66C547.093 196.11 547.588 195.56 548.083 195.065Z" fill="black"/>
<path d="M573.591 195.89C567.431 200.675 567.321 199.3 566.661 196.495C566.386 195.12 564.736 194.02 561.821 196.66C563.141 193.36 561.876 192.645 560.886 192.975C559.236 193.47 556.431 196.22 555.221 197.43C554.781 197.155 556.376 194.57 556.816 193.525C556.981 193.305 556.211 192.7 555.551 193.415C554.286 194.625 553.296 198.31 553.516 198.86C553.736 199.465 554.341 199.3 554.341 199.3C555.551 197.76 557.806 195.56 559.896 194.295C561.546 193.305 561.656 193.91 560.061 197.925C559.896 198.42 560.996 198.475 560.996 198.475C563.966 194.625 565.231 195.45 565.506 197.1C566.221 200.95 568.641 200.29 573.811 196.11C573.866 196.055 573.701 195.835 573.591 195.89Z" fill="black"/>
<path d="M585.592 195.89C579.542 199.575 577.452 199.74 579.817 194.295C579.817 194.13 579.377 193.8 579.267 193.69C579.102 193.58 578.827 193.58 578.717 193.8C578.607 193.91 578.497 194.02 578.387 194.13C577.067 193.36 575.307 194.075 574.152 194.955C573.547 195.395 572.997 195.945 572.502 196.55C572.282 196.88 572.062 197.155 571.842 197.54C571.237 199.025 572.007 199.52 573.107 199.135C573.932 198.86 575.472 197.65 576.022 197.21C576.737 196.55 577.452 195.945 578.167 195.285C576.297 199.685 578.222 200.84 585.757 196.165C585.812 196.11 585.702 195.835 585.592 195.89ZM575.637 196.715C575.087 197.155 574.537 197.54 573.932 197.925C573.657 198.09 573.327 198.255 573.052 198.31C572.997 198.31 572.997 198.31 572.997 198.31C572.997 198.255 573.052 198.145 573.107 198.09C573.217 197.815 573.382 197.54 573.547 197.265C573.932 196.77 574.372 196.22 574.867 195.78C575.747 194.955 576.902 194.24 578.112 194.405C577.342 195.23 576.517 196 575.637 196.715Z" fill="black"/>
<path d="M592.262 195.945C589.622 197.705 586.322 199.355 585.662 198.31C585.607 197.98 585.717 197.43 585.882 196.935C586.212 195.945 586.487 195.615 587.037 194.68C587.037 194.625 587.037 194.625 587.092 194.57C587.202 194.24 586.542 192.7 585.717 194.13C585.167 195.12 584.947 195.615 584.672 196.825C584.342 197.98 584.617 199.19 585.827 199.3C586.982 199.41 589.677 198.145 592.427 196.165C592.537 196.11 592.372 195.89 592.262 195.945ZM588.467 191.82C588.522 191.655 588.412 190.83 588.027 191.215C587.587 191.6 586.817 191.985 586.707 192.205C586.542 192.645 588.357 192.37 588.467 191.82Z" fill="black"/>
<path d="M605.105 196.165C605.16 196.11 604.94 195.89 604.885 195.945C593.721 207.055 590.86 204.195 592.951 195.89C601.036 185.66 605.105 179.555 605.655 176.145C605.82 174.935 604.39 173.78 601.53 176.915C599.22 179.39 597.405 182.305 595.81 185.33C594.216 188.355 592.84 191.545 591.905 194.845C589.265 204.25 592.51 209.365 605.105 196.165ZM602.025 177.41C602.685 176.585 603.4 175.925 603.73 175.705C604.335 175.32 605.16 175.32 605.05 176.035C604.391 180.05 597.735 188.795 593.225 194.515C595.095 187.475 599.99 179.995 602.025 177.41Z" fill="black"/>
<path d="M608.06 197.705C607.785 197.595 607.4 197.485 607.015 198.585C606.63 199.575 607.95 199.74 608.5 198.64C608.665 198.255 608.445 197.87 608.06 197.705Z" fill="black"/>
<path d="M1.5625 18.2656C1.5625 17 1.60938 15.8281 1.75 14.75C1.89062 13.6719 2.35938 12.2188 3.20312 10.3906C4.04688 8.5625 5.17188 7.0625 6.625 5.84375C8.07812 4.625 10.2812 3.54688 13.2344 2.60938C16.1875 1.67188 19.7031 1.20312 23.7812 1.20312H28.1875V75.9688H16.8438V77.0469H50.7344V75.9688H38.9219V1.20312H43.3281C47.3594 1.20312 50.875 1.71875 53.875 2.70312C56.875 3.6875 59.0781 4.8125 60.5312 6.03125C61.9844 7.25 63.1094 8.79688 63.9531 10.6719C64.7969 12.5469 65.2656 14 65.4062 15.0781C65.5469 16.1562 65.5938 17.2812 65.5938 18.5V19.1562H66.625V0.171875H0.671875V19.1562H1.65625L1.5625 18.2656Z" fill="black"/>
<path d="M152.031 1.15625V0.125H118.141V1.15625H129.578V37.9062H94.7031V1.15625H106.609V0.125H72.625V1.15625H84.0625V75.8281H72.625V76.9062H106.609V75.8281H94.7031V38.9844H129.578V75.8281H118.141V76.9062H152.031V75.8281H140.219V1.15625H152.031Z" fill="black"/>
<path d="M177.203 53.2812V53.8438H205.984L214.141 75.9219H204.156V77H234.297V75.9219H225.016L196.844 0.21875H195.719L167.594 75.9219H157.797V77H178.703V75.9219H168.719L177.203 53.2812ZM205.609 52.8125H177.297L191.594 14.5156L205.609 52.8125Z" fill="black"/>
<path d="M303.062 59.2344L261.016 0.21875H238.562V1.25H250.375V75.9219H238.562V77H263.219V75.9219H251.406V5.09375L303.062 77H304.141L304.234 1.25H316.047V0.3125H291.344V1.25H303.156L303.062 59.2344Z" fill="black"/>
<path d="M351.953 31.1094L381.531 1.25H390.953V0.21875H369.25V1.25H379.984L343.797 37.8125V1.25H355.703V0.21875H321.812V1.25H333.156V75.9219H321.812V77H355.703V75.9219H343.797V37.8125C364.938 62.6562 375.766 75.3594 376.281 75.9219H365.922V77H399.906V75.9219H390.016L351.953 31.1094Z" fill="black"/>
<path d="M487.656 1.25H500.688L480.719 41.0938L460.844 1.25H470.922V0.21875H440.781V1.25H450.391L470.922 42.4531V75.9219H461.547V77H491.688V75.9219H481.609V41.6562L501.859 1.25H508.562V0.21875H487.656V1.25Z" fill="black"/>
<path d="M543.906 76.9062C548.969 76.9062 553.656 75.7812 557.969 73.5312C562.281 71.2812 565.844 68.375 568.703 64.7656C571.562 61.1562 573.812 57.0781 575.453 52.5312C577.094 47.9844 577.891 43.3438 577.891 38.6094C577.891 32 576.484 25.8125 573.672 20C570.859 14.1875 566.828 9.45312 561.531 5.79688C556.234 2.14062 550.375 0.3125 543.906 0.3125C538.891 0.3125 534.25 1.4375 529.938 3.6875C525.625 5.9375 522.016 8.84375 519.109 12.4531C516.203 16.0625 513.953 20.1406 512.359 24.7344C510.766 29.3281 509.969 34.0156 509.969 38.75C509.969 45.3594 511.375 51.5469 514.188 57.3594C517 63.1719 521.031 67.9062 526.281 71.6094C531.531 75.3125 537.391 77.1406 543.859 77.1406L543.906 76.9062ZM521.594 41.1406V37.5781C521.594 33.0312 521.734 29.0938 522.062 25.7188C522.391 22.3438 523 19.0156 523.938 15.6875C524.875 12.3594 526.281 9.59375 528.156 7.4375C530.031 5.28125 532.375 3.73438 535.188 2.75C538.188 1.85938 541.094 1.39062 543.906 1.39062C547.047 1.39062 550.094 1.85938 553.047 2.84375C555.812 3.875 558.109 5.46875 559.938 7.625C561.766 9.78125 563.125 12.5 564.016 15.7812C564.906 19.0625 565.516 22.3906 565.844 25.7188C566.172 29.0469 566.312 32.9844 566.312 37.5312V41.0938C566.312 44.6094 566.266 47.4219 566.172 49.5312C566.078 51.6406 565.797 54.2188 565.375 57.2188C564.953 60.2188 564.344 62.6562 563.5 64.5312C562.656 66.4062 561.438 68.2812 559.844 70.1094C558.25 71.9375 556.281 73.3438 553.984 74.3281C550.656 75.5 547.281 76.1094 543.859 76.1094C540.719 76.1562 537.438 75.5469 533.969 74.3281C531.672 73.3438 529.703 71.9844 528.109 70.2031C526.516 68.4219 525.297 66.5938 524.453 64.7188C523.609 62.8438 522.953 60.4062 522.484 57.4062C522.016 54.4062 521.734 51.8281 521.641 49.6719C521.547 47.5156 521.5 44.7031 521.5 41.2344L521.594 41.1406Z" fill="black"/>
<path d="M660.156 1.34375V0.3125H635.5V1.34375H647.312V54.2656C647.312 61.0625 644.922 66.3594 640.141 70.2031C635.359 74.0469 629.266 75.9688 621.906 75.9688C611.734 75.9688 606.625 68.375 606.625 53.2344V1.39062H618.25V0.359375H584.359V1.39062H596.172V54.3125C596.172 61.2969 598.656 66.8281 603.625 70.9062C608.594 74.9844 614.781 77 622.234 77C629.781 77 636.016 74.9844 640.938 70.9062C645.859 66.8281 648.297 61.2969 648.297 54.3125V1.39062L660.156 1.34375Z" fill="black"/>
<path d="M679.141 57.125L683.266 4.8125C683.266 3.54688 682.797 2.46875 681.906 1.57812C681.016 0.6875 679.938 0.265625 678.672 0.265625C677.406 0.265625 676.281 0.734375 675.344 1.625C674.406 2.51562 673.938 3.59375 673.938 4.85938L677.875 57.1719L679.141 57.125ZM678.953 67.0625C677.547 67.0625 676.375 67.5781 675.391 68.5625C674.406 69.5469 673.938 70.7188 673.938 72.0781C673.938 73.4844 674.406 74.6562 675.391 75.5938C676.375 76.5312 677.547 77 678.953 77C680.312 77 681.438 76.5312 682.375 75.5938C683.312 74.6562 683.781 73.4844 683.781 72.0781C683.781 70.7188 683.312 69.5469 682.375 68.5625C681.438 67.5781 680.266 67.1094 678.906 67.1094L678.953 67.0625Z" fill="black"/>
<path d="M322.105 290.754H318.961L317.711 287.502H311.988L310.806 290.754H307.74L313.316 276.438H316.373L322.105 290.754ZM316.783 285.09L314.81 279.777L312.877 285.09H316.783Z" fill="white"/>
<path d="M329.9 285.49V283.078H336.131V288.781C335.525 289.367 334.646 289.885 333.494 290.334C332.348 290.777 331.186 290.998 330.008 290.998C328.51 290.998 327.205 290.686 326.092 290.061C324.978 289.429 324.142 288.531 323.582 287.365C323.022 286.193 322.742 284.921 322.742 283.547C322.742 282.056 323.054 280.731 323.679 279.572C324.304 278.413 325.219 277.525 326.424 276.906C327.342 276.431 328.484 276.193 329.851 276.193C331.629 276.193 333.015 276.568 334.012 277.316C335.014 278.059 335.659 279.087 335.945 280.402L333.074 280.939C332.872 280.236 332.491 279.683 331.931 279.279C331.378 278.869 330.685 278.664 329.851 278.664C328.588 278.664 327.582 279.064 326.834 279.865C326.092 280.666 325.72 281.854 325.72 283.43C325.72 285.129 326.098 286.405 326.853 287.258C327.609 288.104 328.598 288.527 329.822 288.527C330.428 288.527 331.033 288.41 331.638 288.176C332.25 287.935 332.775 287.645 333.211 287.307V285.49H329.9Z" fill="white"/>
<path d="M338.408 290.754V276.438H344.492C346.022 276.438 347.132 276.568 347.822 276.828C348.519 277.082 349.076 277.538 349.492 278.195C349.909 278.853 350.117 279.605 350.117 280.451C350.117 281.525 349.801 282.414 349.17 283.117C348.538 283.814 347.594 284.253 346.338 284.436C346.963 284.8 347.477 285.201 347.881 285.637C348.291 286.073 348.841 286.848 349.531 287.961L351.279 290.754H347.822L345.732 287.639C344.99 286.525 344.482 285.826 344.209 285.539C343.936 285.246 343.646 285.048 343.34 284.943C343.034 284.833 342.549 284.777 341.885 284.777H341.299V290.754H338.408ZM341.299 282.492H343.438C344.824 282.492 345.69 282.434 346.035 282.316C346.38 282.199 346.65 281.997 346.846 281.711C347.041 281.424 347.139 281.066 347.139 280.637C347.139 280.155 347.008 279.768 346.748 279.475C346.494 279.175 346.133 278.986 345.664 278.908C345.43 278.876 344.727 278.859 343.555 278.859H341.299V282.492Z" fill="white"/>
<path d="M352.444 290.754V276.438H363.059V278.859H355.334V282.033H362.522V284.445H355.334V288.342H363.332V290.754H352.444Z" fill="white"/>
<path d="M365.375 290.754V276.438H375.991V278.859H368.266V282.033H375.454V284.445H368.266V288.342H376.264V290.754H365.375Z" fill="white"/>
<path d="M342.143 369.44C341.153 369.44 340.304 369.235 339.595 368.824C338.895 368.414 338.358 367.83 337.985 367.074C337.611 366.309 337.425 365.408 337.425 364.372C337.425 363.336 337.611 362.44 337.985 361.684C338.358 360.928 338.895 360.345 339.595 359.934C340.304 359.524 341.153 359.318 342.143 359.318C342.852 359.318 343.482 359.426 344.033 359.64C344.583 359.846 345.064 360.149 345.475 360.55L344.999 361.6C344.551 361.208 344.107 360.928 343.669 360.76C343.239 360.583 342.74 360.494 342.171 360.494C341.079 360.494 340.243 360.83 339.665 361.502C339.086 362.174 338.797 363.131 338.797 364.372C338.797 365.614 339.086 366.575 339.665 367.256C340.243 367.928 341.079 368.264 342.171 368.264C342.74 368.264 343.239 368.18 343.669 368.012C344.107 367.835 344.551 367.55 344.999 367.158L345.475 368.194C345.064 368.596 344.579 368.904 344.019 369.118C343.468 369.333 342.843 369.44 342.143 369.44Z" fill="black"/>
<path d="M346.965 369.314V359.444H348.267V368.194H353.181V369.314H346.965Z" fill="black"/>
<path d="M353.357 364.372C353.357 363.336 353.539 362.44 353.903 361.684C354.267 360.928 354.789 360.345 355.471 359.934C356.161 359.524 356.983 359.318 357.935 359.318C358.877 359.318 359.689 359.524 360.371 359.934C361.061 360.345 361.593 360.928 361.967 361.684C362.34 362.44 362.527 363.332 362.527 364.358C362.527 365.394 362.34 366.295 361.967 367.06C361.593 367.816 361.061 368.404 360.371 368.824C359.689 369.235 358.877 369.44 357.935 369.44C356.983 369.44 356.166 369.235 355.485 368.824C354.803 368.404 354.276 367.816 353.903 367.06C353.539 366.295 353.357 365.399 353.357 364.372ZM354.729 364.372C354.729 365.604 354.999 366.566 355.541 367.256C356.082 367.947 356.88 368.292 357.935 368.292C358.952 368.292 359.741 367.952 360.301 367.27C360.87 366.58 361.155 365.614 361.155 364.372C361.155 363.131 360.875 362.17 360.315 361.488C359.755 360.807 358.961 360.466 357.935 360.466C356.88 360.466 356.082 360.807 355.541 361.488C354.999 362.17 354.729 363.131 354.729 364.372Z" fill="black"/>
<path d="M367.444 369.44C366.65 369.44 365.936 369.338 365.302 369.132C364.667 368.927 364.116 368.638 363.65 368.264L364.098 367.228C364.424 367.471 364.756 367.676 365.092 367.844C365.428 368.003 365.787 368.124 366.17 368.208C366.562 368.283 366.986 368.32 367.444 368.32C368.256 368.32 368.853 368.176 369.236 367.886C369.628 367.588 369.824 367.196 369.824 366.71C369.824 366.29 369.688 365.968 369.418 365.744C369.147 365.52 368.676 365.343 368.004 365.212L366.506 364.904C365.6 364.718 364.924 364.414 364.476 363.994C364.037 363.565 363.818 362.986 363.818 362.258C363.818 361.67 363.972 361.157 364.28 360.718C364.597 360.27 365.031 359.925 365.582 359.682C366.142 359.44 366.795 359.318 367.542 359.318C368.232 359.318 368.872 359.421 369.46 359.626C370.048 359.832 370.542 360.135 370.944 360.536L370.496 361.53C370.076 361.148 369.623 360.872 369.138 360.704C368.662 360.527 368.12 360.438 367.514 360.438C366.776 360.438 366.193 360.597 365.764 360.914C365.334 361.232 365.12 361.661 365.12 362.202C365.12 362.632 365.255 362.972 365.526 363.224C365.796 363.467 366.244 363.654 366.87 363.784L368.368 364.078C369.32 364.265 370.015 364.559 370.454 364.96C370.902 365.362 371.126 365.917 371.126 366.626C371.126 367.186 370.976 367.681 370.678 368.11C370.379 368.53 369.954 368.857 369.404 369.09C368.853 369.324 368.2 369.44 367.444 369.44Z" fill="black"/>
<path d="M372.565 369.314V359.444H378.949V360.508H373.825V363.77H378.627V364.834H373.825V368.25H378.949V369.314H372.565Z" fill="black"/>
<path d="M336.585 370.812H379.621V371.428H336.585V370.812Z" fill="black"/>
</svg>
