<svg width="251" height="163" viewBox="0 0 251 163" fill="none" xmlns="http://www.w3.org/2000/svg">
<path d="M54.9591 77.57C55.1491 77.38 54.3891 76.62 54.1991 76.81C15.6291 115.19 5.74906 105.31 12.9691 76.62C40.8991 41.28 54.9591 20.19 56.8591 8.40999C57.4291 4.23 52.4891 0.239997 42.6091 11.07C34.6291 19.62 28.3591 29.69 22.8491 40.14C17.3391 50.59 12.5891 61.61 9.35906 73.01C0.239062 105.5 11.4491 123.17 54.9591 77.57ZM44.3191 12.78C46.5991 9.93 49.0691 7.65 50.2091 6.89C52.2991 5.56 55.1491 5.56 54.7691 8.03C52.4891 21.9 29.4991 52.11 13.9191 71.87C20.3791 47.55 37.2891 21.71 44.3191 12.78ZM90.8958 76.43C74.5558 88.78 69.2358 87.64 71.5158 80.99C72.2758 78.14 74.1758 73.58 75.1258 70.54C75.3158 69.97 73.6058 68.07 72.2758 68.83C67.3358 77.57 63.1558 81.37 56.6958 84.98C52.1358 87.64 56.6958 77.38 60.3058 72.63C60.3058 72.63 58.2158 69.4 56.8858 70.35C54.9858 71.87 50.6158 80.99 50.4258 83.46C49.6658 92.58 61.8258 85.55 67.7158 79.28C63.1558 91.82 75.6958 90.68 91.6558 77.19C91.8458 77 91.2758 76.24 90.8958 76.43ZM133.776 76.62C115.156 89.16 107.936 95.05 100.146 77.19C102.806 74.91 105.086 73.01 107.936 71.3C113.446 67.69 118.006 67.69 118.006 67.69C118.576 67.69 118.576 65.41 118.006 65.41C113.446 65.41 110.026 67.5 106.796 69.59C103.946 71.49 101.856 73.39 99.3864 75.48C98.4364 73.39 97.1064 69.78 96.1564 68.07C94.8264 65.6 91.9764 69.97 92.5464 70.92C93.6864 73.39 95.0164 75.29 95.9664 78.14C90.8364 83.08 86.2764 88.02 81.7164 93.34C81.5264 93.53 81.5264 94.1 81.9064 94.29C82.0964 94.48 82.4764 94.48 82.6664 94.1C87.2264 89.16 91.5964 84.41 96.7264 79.85C106.036 101.7 120.856 86.69 134.156 77.38C134.346 77.19 133.966 76.43 133.776 76.62ZM170.31 76.43C153.97 88.78 148.65 87.64 150.93 80.99C151.69 78.14 153.59 73.58 154.54 70.54C154.73 69.97 153.02 68.07 151.69 68.83C146.75 77.57 142.57 81.37 136.11 84.98C131.55 87.64 136.11 77.38 139.72 72.63C139.72 72.63 137.63 69.4 136.3 70.35C134.4 71.87 130.03 80.99 129.84 83.46C129.08 92.58 141.24 85.55 147.13 79.28C142.57 91.82 155.11 90.68 171.07 77.19C171.26 77 170.69 76.24 170.31 76.43ZM206.35 76.62C191.15 86.5 178.23 90.11 182.98 82.13C186.02 77.19 185.07 75.1 175.95 73.2C176.33 72.63 181.08 67.5 179.56 64.27C179.18 63.32 178.04 62.94 176.71 63.32C174.05 64.08 171.39 67.31 170.44 69.02C170.25 69.59 169.49 71.3 169.68 72.63C170.06 74.34 171.77 74.72 172.72 74.91C172.91 75.29 173.29 75.48 173.67 75.48C174.24 75.29 174.24 75.1 174.62 74.91C181.46 76.05 180.89 77.95 179.94 79.85C178.42 82.7 177.47 84.79 177.66 86.31C178.61 94.86 200.46 81.56 206.73 77.38H206.92C207.11 77.19 206.54 76.43 206.35 76.62ZM173.29 72.82C170.82 72.82 176.71 65.03 177.85 65.79C179.18 66.36 175.57 71.49 173.29 72.82ZM250.269 76.43C250.269 76.05 236.019 85.74 227.849 91.82C228.989 88.02 231.649 76.43 231.649 76.43C232.979 70.16 233.169 68.64 228.989 68.64C221.769 77.76 207.899 88.4 207.329 84.03C208.089 79.85 210.559 76.05 211.889 72.25H212.079C212.459 71.3 208.659 69.4 208.279 70.54C205.619 75.67 201.249 85.17 205.999 87.64C211.699 90.3 228.799 73.01 228.799 73.01C228.609 73.77 222.529 94.67 222.149 96C201.439 111.2 180.729 134.95 178.259 150.53C176.359 162.31 188.139 161.17 193.649 157.37C197.639 154.71 201.059 151.29 203.909 147.49C209.419 139.7 213.409 131.15 217.019 122.79C220.439 114.43 224.429 103.79 226.899 95.24C234.689 88.21 250.649 77.38 250.649 77.38C250.649 77.38 250.459 76.62 250.269 76.43ZM213.029 121.08C209.609 129.44 205.429 137.61 200.489 145.02C198.019 148.63 196.499 151.1 193.079 153.57C184.909 160.03 178.259 157.37 183.199 145.02C187.189 134.57 201.249 115.38 221.009 99.61C218.729 106.07 215.499 114.62 213.029 121.08Z" fill="white"/>
</svg>
