<svg width="463" height="300" viewBox="0 0 463 300" fill="none" xmlns="http://www.w3.org/2000/svg">
<path d="M101.714 143.05C102.064 142.7 100.664 141.3 100.314 141.65C29.2641 212.35 11.0641 194.15 24.3641 141.3C75.8141 76.2 101.714 37.35 105.214 15.65C106.264 7.94999 97.1641 0.599995 78.9641 20.55C64.2641 36.3 52.7141 54.85 42.5641 74.1C32.4141 93.35 23.6641 113.65 17.7141 134.65C0.914062 194.5 21.5641 227.05 101.714 143.05ZM82.1141 23.7C86.3141 18.45 90.8641 14.25 92.9641 12.85C96.8141 10.4 102.064 10.4 101.364 14.95C97.1641 40.5 54.8141 96.15 26.1141 132.55C38.0141 87.75 69.1641 40.15 82.1141 23.7ZM167.913 140.95C137.813 163.7 128.013 161.6 132.213 149.35C133.613 144.1 137.113 135.7 138.863 130.1C139.213 129.05 136.063 125.55 133.613 126.95C124.513 143.05 116.813 150.05 104.913 156.7C96.5133 161.6 104.913 142.7 111.563 133.95C111.563 133.95 107.713 128 105.263 129.75C101.763 132.55 93.7133 149.35 93.3633 153.9C91.9633 170.7 114.363 157.75 125.213 146.2C116.813 169.3 139.913 167.2 169.313 142.35C169.663 142 168.613 140.6 167.913 140.95ZM246.904 141.3C212.604 164.4 199.304 175.25 184.954 142.35C189.854 138.15 194.054 134.65 199.304 131.5C209.454 124.85 217.854 124.85 217.854 124.85C218.904 124.85 218.904 120.65 217.854 120.65C209.454 120.65 203.154 124.5 197.204 128.35C191.954 131.85 188.104 135.35 183.554 139.2C181.804 135.35 179.354 128.7 177.604 125.55C175.154 121 169.904 129.05 170.954 130.8C173.054 135.35 175.504 138.85 177.254 144.1C167.804 153.2 159.404 162.3 151.004 172.1C150.654 172.45 150.654 173.5 151.354 173.85C151.704 174.2 152.404 174.2 152.754 173.5C161.154 164.4 169.204 155.65 178.654 147.25C195.804 187.5 223.104 159.85 247.604 142.7C247.954 142.35 247.254 140.95 246.904 141.3ZM314.202 140.95C284.102 163.7 274.302 161.6 278.502 149.35C279.902 144.1 283.402 135.7 285.152 130.1C285.502 129.05 282.352 125.55 279.902 126.95C270.802 143.05 263.102 150.05 251.202 156.7C242.802 161.6 251.202 142.7 257.852 133.95C257.852 133.95 254.002 128 251.552 129.75C248.052 132.55 240.002 149.35 239.652 153.9C238.252 170.7 260.652 157.75 271.502 146.2C263.102 169.3 286.202 167.2 315.602 142.35C315.952 142 314.902 140.6 314.202 140.95ZM380.593 141.3C352.593 159.5 328.793 166.15 337.543 151.45C343.143 142.35 341.393 138.5 324.593 135C325.293 133.95 334.043 124.5 331.243 118.55C330.543 116.8 328.443 116.1 325.993 116.8C321.093 118.2 316.193 124.15 314.443 127.3C314.093 128.35 312.693 131.5 313.043 133.95C313.743 137.1 316.893 137.8 318.643 138.15C318.993 138.85 319.693 139.2 320.393 139.2C321.443 138.85 321.443 138.5 322.143 138.15C334.743 140.25 333.693 143.75 331.943 147.25C329.143 152.5 327.393 156.35 327.743 159.15C329.493 174.9 369.743 150.4 381.293 142.7H381.643C381.993 142.35 380.943 140.95 380.593 141.3ZM319.693 134.3C315.143 134.3 325.993 119.95 328.093 121.35C330.543 122.4 323.893 131.85 319.693 134.3ZM461.495 140.95C461.495 140.25 435.245 158.1 420.195 169.3C422.295 162.3 427.195 140.95 427.195 140.95C429.645 129.4 429.995 126.6 422.295 126.6C408.995 143.4 383.445 163 382.395 154.95C383.795 147.25 388.345 140.25 390.795 133.25H391.145C391.845 131.5 384.845 128 384.145 130.1C379.245 139.55 371.195 157.05 379.945 161.6C390.445 166.5 421.945 134.65 421.945 134.65C421.595 136.05 410.395 174.55 409.695 177C371.545 205 333.395 248.75 328.845 277.45C325.345 299.15 347.045 297.05 357.195 290.05C364.545 285.15 370.845 278.85 376.095 271.85C386.245 257.5 393.595 241.75 400.245 226.35C406.545 210.95 413.895 191.35 418.445 175.6C432.795 162.65 462.195 142.7 462.195 142.7C462.195 142.7 461.845 141.3 461.495 140.95ZM392.895 223.2C386.595 238.6 378.895 253.65 369.795 267.3C365.245 273.95 362.445 278.5 356.145 283.05C341.095 294.95 328.845 290.05 337.945 267.3C345.295 248.05 371.195 212.7 407.595 183.65C403.395 195.55 397.445 211.3 392.895 223.2Z" fill="#A75B41"/>
</svg>
