<svg width="42" height="41" viewBox="0 0 42 41" fill="none" xmlns="http://www.w3.org/2000/svg">
<path d="M20.684 13.4939C16.8849 13.4939 13.7846 16.5276 13.7846 20.2451C13.7846 23.9626 16.8849 26.9964 20.684 26.9964C24.483 26.9964 27.5833 23.9626 27.5833 20.2451C27.5833 16.5276 24.483 13.4939 20.684 13.4939ZM41.3767 20.2451C41.3767 17.4494 41.4026 14.679 41.2422 11.8884C41.0817 8.64696 40.3261 5.77021 37.9038 3.39993C35.4763 1.02458 32.5417 0.290195 29.2292 0.133189C26.3721 -0.0238171 23.541 0.00150647 20.6891 0.00150647C17.8321 0.00150647 15.001 -0.0238171 12.1491 0.133189C8.8366 0.290195 5.89675 1.02964 3.47449 3.39993C1.04705 5.77527 0.296559 8.64696 0.13611 11.8884C-0.0243395 14.6841 0.00153951 17.4545 0.00153951 20.2451C0.00153951 23.0358 -0.0243395 25.8113 0.13611 28.6019C0.296559 31.8433 1.05222 34.7201 3.47449 37.0904C5.90193 39.4657 8.8366 40.2001 12.1491 40.3571C15.0061 40.5141 17.8373 40.4888 20.6891 40.4888C23.5462 40.4888 26.3773 40.5141 29.2292 40.3571C32.5417 40.2001 35.4815 39.4606 37.9038 37.0904C40.3312 34.715 41.0817 31.8433 41.2422 28.6019C41.4078 25.8113 41.3767 23.0409 41.3767 20.2451ZM20.684 30.6329C14.8094 30.6329 10.0684 25.9936 10.0684 20.2451C10.0684 14.4967 14.8094 9.85743 20.684 9.85743C26.5585 9.85743 31.2995 14.4967 31.2995 20.2451C31.2995 25.9936 26.5585 30.6329 20.684 30.6329ZM31.7343 11.858C30.3627 11.858 29.2551 10.7741 29.2551 9.43199C29.2551 8.08984 30.3627 7.006 31.7343 7.006C33.1058 7.006 34.2135 8.08984 34.2135 9.43199C34.2139 9.75069 34.15 10.0663 34.0256 10.3609C33.9011 10.6554 33.7185 10.923 33.4882 11.1483C33.2579 11.3737 32.9845 11.5524 32.6835 11.6741C32.3825 11.7959 32.0599 11.8584 31.7343 11.858Z" fill="#A75B41"/>
</svg>
