<svg width="38" height="38" viewBox="0 0 38 38" fill="none" xmlns="http://www.w3.org/2000/svg">
<path d="M32.3713 32.2274H26.7508V23.7055C26.7508 21.6734 26.7069 19.0619 23.8118 19.0619C20.881 19.0619 20.4345 21.2661 20.4345 23.5552V32.2263H14.8069V14.704H20.2124V17.0941H20.2849C21.0401 15.7137 22.8772 14.2622 25.6179 14.2622C31.3191 14.2622 32.3772 17.8892 32.3772 22.6051V32.2263L32.3713 32.2274ZM8.44906 12.3093C8.01951 12.3095 7.59416 12.2277 7.19735 12.0688C6.80054 11.9098 6.44009 11.6768 6.13663 11.3831C5.83317 11.0893 5.59266 10.7406 5.4289 10.3569C5.26513 9.9732 5.18131 9.56205 5.18225 9.147C5.18295 8.52229 5.37535 7.9118 5.7351 7.39273C6.09486 6.87367 6.60582 6.46932 7.20339 6.23083C7.80096 5.99234 8.45829 5.93041 9.09228 6.05287C9.72627 6.17533 10.3084 6.47668 10.7652 6.91882C11.222 7.36096 11.5328 7.92404 11.6584 8.53685C11.7839 9.14967 11.7187 9.7847 11.4707 10.3617C11.2228 10.9386 10.8035 11.4316 10.2656 11.7783C9.72775 12.125 9.0956 12.3098 8.44906 12.3093ZM11.2682 32.2274H5.62875V14.7051H11.2682V32.2274ZM35.1927 0.936035H2.8025C1.25519 0.936035 0 2.11903 0 3.58314V35.0076C0 36.4718 1.25519 37.6547 2.8025 37.6547H35.1868C36.7318 37.6547 38 36.4718 38 35.0076V3.58314C38 2.11903 36.7318 0.936035 35.1868 0.936035H35.1927Z" fill="#A75B41"/>
</svg>
