<svg width="42" height="41" viewBox="0 0 42 41" fill="none" xmlns="http://www.w3.org/2000/svg">
<path d="M0 20.2913C0 28.954 5.61925 36.3502 13.5275 39.2603C13.335 37.6758 13.1302 35.0633 13.5712 33.2304C13.951 31.6544 16.023 23.1896 16.023 23.1896C16.023 23.1896 15.3982 21.9805 15.3982 20.1898C15.3982 17.3829 17.0818 15.2861 19.18 15.2861C20.965 15.2861 21.826 16.5797 21.826 18.1303C21.826 19.8635 20.6833 22.454 20.0935 24.8568C19.6018 26.8674 21.1383 28.5076 23.1893 28.5076C26.9045 28.5076 29.7622 24.7216 29.7622 19.2564C29.7622 14.4187 26.1642 11.0385 21.028 11.0385C15.0815 11.0385 11.5903 15.3487 11.5903 19.8043C11.5903 21.5409 12.2815 23.4009 13.146 24.4138C13.2197 24.4903 13.2718 24.5838 13.2972 24.6854C13.3227 24.787 13.3206 24.8932 13.2912 24.9938C13.132 25.633 12.7785 27.0043 12.7102 27.285C12.6175 27.6536 12.4075 27.7331 12.0103 27.5539C9.39925 26.3804 7.76825 22.6924 7.76825 19.7299C7.76825 13.3567 12.558 7.50609 21.5793 7.50609C28.8313 7.50609 34.468 12.4994 34.468 19.1719C34.468 26.1335 29.9268 31.7373 23.6197 31.7373C21.5005 31.7373 19.5107 30.672 18.8282 29.4156C18.8282 29.4156 17.78 33.2743 17.5263 34.2179C17.0328 36.0509 15.6642 38.3708 14.8155 39.6881C16.772 40.2698 18.8475 40.5826 21 40.5826C32.5972 40.5826 42 31.4972 42 20.2913C42 9.08542 32.5972 0 21 0C9.40275 0 0 9.08542 0 20.2913Z" fill="#A75B41"/>
</svg>
