<svg width="45" height="52" viewBox="0 0 45 52" fill="none" xmlns="http://www.w3.org/2000/svg">
<path d="M9.78694 0.807884C9.30394 0.876884 8.92444 1.25638 8.85544 1.73938L7.75144 9.46738C7.73419 9.61832 7.74281 9.76926 7.78594 9.91588C3.0465 13.7626 0.0234375 19.6276 0.0234375 26.1999C0.0234375 32.7549 3.03356 38.6026 7.75144 42.4494C7.71694 42.6089 7.71694 42.7728 7.75144 42.9324L8.85544 50.6604C8.95031 51.2684 9.52388 51.6868 10.1319 51.5919C10.74 51.497 11.1583 50.9234 11.0634 50.3154L10.1664 44.1399C13.3318 46.0546 17.0362 47.1759 20.9994 47.1759C24.9626 47.1759 28.6671 46.0546 31.8324 44.1399L30.9354 50.3154C30.8406 50.9234 31.2589 51.497 31.8669 51.5919C32.475 51.6868 33.0486 51.2684 33.1434 50.6604L34.2474 42.9324C34.2819 42.7728 34.2819 42.6089 34.2474 42.4494C38.1502 39.2668 40.8714 34.6998 41.6994 29.5119H43.0794C43.6875 29.5119 44.1834 29.0159 44.1834 28.4079V23.9919C44.1834 23.3838 43.6875 22.8879 43.0794 22.8879H41.6994C40.8671 17.6827 38.1373 13.0985 34.2129 9.91588C34.2561 9.76926 34.2647 9.61832 34.2474 9.46738L33.1434 1.73938C33.1003 1.44613 32.9408 1.17876 32.7036 1.00626C32.4621 0.829446 32.1602 0.760446 31.8669 0.807884C31.5737 0.85101 31.3063 1.01057 31.1338 1.24776C30.957 1.48926 30.888 1.79113 30.9354 2.08438L31.8324 8.25988C28.6671 6.34513 24.9626 5.22388 20.9994 5.22388C17.0362 5.22388 13.3318 6.34513 10.1664 8.25988L11.0634 2.08438C11.1238 1.73076 11.0117 1.36851 10.7572 1.11407C10.5028 0.859634 10.1406 0.74751 9.78694 0.807884ZM20.9994 7.43188C31.3796 7.43188 39.7674 15.8197 39.7674 26.1999C39.7674 36.5801 31.3796 44.9679 20.9994 44.9679C10.6192 44.9679 2.23144 36.5801 2.23144 26.1999C2.23144 15.8197 10.6192 7.43188 20.9994 7.43188ZM20.9994 9.63988C11.8656 9.63988 4.43944 17.066 4.43944 26.1999C4.43944 35.3338 11.8656 42.7599 20.9994 42.7599C30.1333 42.7599 37.5594 35.3338 37.5594 26.1999C37.5594 17.066 30.1333 9.63988 20.9994 9.63988ZM19.8954 11.8824C19.9127 12.4775 20.4 12.9519 20.9994 12.9519C21.5989 12.9519 22.0862 12.4775 22.1034 11.8824C29.1673 12.4128 34.7865 18.032 35.3169 25.0959C34.7218 25.1131 34.2474 25.6004 34.2474 26.1999C34.2474 26.7993 34.7218 27.2866 35.3169 27.3039C34.7865 34.3678 29.1673 39.9869 22.1034 40.5174C22.0862 39.9223 21.5989 39.4479 20.9994 39.4479C20.4 39.4479 19.9127 39.9223 19.8954 40.5174C12.8316 39.9869 7.21238 34.3678 6.68194 27.3039C7.27706 27.2866 7.75144 26.7993 7.75144 26.1999C7.75144 25.6004 7.27706 25.1131 6.68194 25.0959C7.21238 18.032 12.8316 12.4128 19.8954 11.8824ZM28.0374 17.9199C27.7916 17.9458 27.5587 18.0579 27.3819 18.2304L21.5514 24.0609C21.3746 24.0134 21.1892 23.9919 20.9994 23.9919C19.779 23.9919 18.7914 24.9794 18.7914 26.1999C18.7914 27.4203 19.779 28.4079 20.9994 28.4079C21.1892 28.4079 21.3746 28.3863 21.5514 28.3389L24.6219 31.4094C25.0618 31.8493 25.7691 31.8493 26.2089 31.4094C26.6488 30.9695 26.6488 30.2623 26.2089 29.8224L23.1384 26.7519C23.1859 26.5751 23.2074 26.3896 23.2074 26.1999C23.2074 26.0101 23.1859 25.8247 23.1384 25.6479L28.9689 19.8174C29.3269 19.4853 29.4217 18.9592 29.2061 18.5236C28.9948 18.0838 28.5161 17.8423 28.0374 17.9199Z" fill="black"/>
</svg>
