<svg width="41" height="43" viewBox="0 0 41 43" fill="none" xmlns="http://www.w3.org/2000/svg">
<path d="M20.1952 0.32019C17.2852 0.32019 14.5139 1.21644 12.4364 2.88519C10.8427 4.16019 9.66891 5.91894 9.20391 8.00019H8.31516C7.84266 8.00019 7.71516 8.15394 7.71516 8.72019V8.96019H5.79516V8.96394C4.64016 8.99769 3.73641 9.50394 3.34266 10.3664V10.3702L3.28266 10.4939C2.18016 12.9202 0.0351562 17.6827 0.0351562 26.9077C0.0351562 34.1189 0.713906 38.1164 1.13766 39.9052V39.9089C1.28391 40.5277 1.59141 41.0864 1.99266 41.5702C2.39391 42.0577 2.86641 42.5602 3.72516 42.5602H36.4514C37.3064 42.5602 37.7789 42.0577 38.1802 41.5702C38.5814 41.0864 38.8889 40.5277 39.0352 39.9089C39.4439 38.1914 40.3552 34.1377 40.3552 26.9077C40.3552 17.6677 37.9739 12.8714 36.8864 10.4902V10.4939L36.8302 10.3702C36.4627 9.56019 35.6452 9.06519 34.5952 8.97894V8.96019H32.6752V8.72019C32.6752 8.15394 32.5477 8.00019 32.0752 8.00019H31.2689C30.7964 5.91519 29.6039 4.15644 27.9952 2.88144C25.8914 1.21644 23.1052 0.32019 20.1952 0.32019ZM20.1952 2.24019C22.7077 2.24019 25.0889 3.03144 26.8027 4.38519C28.0027 5.33769 28.8727 6.54519 29.2927 8.00019H28.4752C28.0027 8.00019 27.8752 8.15394 27.8752 8.72019V8.96019H12.5152V8.72019C12.5152 8.15394 12.3877 8.00019 11.9152 8.00019H11.1802C11.5964 6.54519 12.4514 5.33394 13.6364 4.38519C15.3239 3.02769 17.6827 2.24019 20.1952 2.24019ZM7.71516 10.8802H32.6752V18.5939L25.9177 21.8789C25.7489 21.0877 25.0327 20.4802 24.1964 20.4802H16.1939C15.3577 20.4802 14.6414 21.0877 14.4727 21.8789L7.71516 18.5939V10.8802ZM5.79516 10.8952V19.7939L14.4352 23.9939V30.2414C14.4352 31.2052 15.2339 32.0002 16.1939 32.0002H24.1964C25.1564 32.0002 25.9552 31.2014 25.9552 30.2414V23.9939L34.5952 19.7939V10.9252C34.9439 11.0189 35.1089 11.2252 35.0827 11.1652L35.1389 11.2889C36.2639 13.7564 38.4352 17.9864 38.4352 26.9077C38.4352 33.9802 37.5652 37.7752 37.1677 39.4664C37.1152 39.6914 36.9164 40.0852 36.6989 40.3477C36.4852 40.6102 36.2302 40.6402 36.4514 40.6402H3.72516C3.94266 40.6402 3.68766 40.6102 3.47016 40.3477C3.25641 40.0852 3.05766 39.6914 3.00516 39.4702V39.4664C2.62266 37.8502 1.95516 33.9952 1.95516 26.9077C1.95516 17.9714 3.92766 13.7152 5.03016 11.2889L5.09016 11.1652C5.05641 11.2364 5.29641 10.9402 5.79516 10.8952ZM16.3552 22.4002H24.0352V30.0802H16.3552V22.4002Z" fill="black"/>
</svg>
