<svg width="54" height="23" viewBox="0 0 54 23" fill="none" xmlns="http://www.w3.org/2000/svg">
<path d="M21.9208 0.296143C18.9178 0.296143 15.2094 1.67802 11.4928 3.13414C7.84216 4.56552 4.21628 6.10414 1.79078 6.63214C1.78253 6.63627 1.76603 6.62802 1.75778 6.63214C1.72478 6.63214 1.69178 6.63214 1.65878 6.63214C1.51441 6.66927 1.37828 6.73527 1.26278 6.83014C1.24216 6.83839 1.21741 6.85077 1.19678 6.86314C1.15966 6.89202 1.12666 6.92502 1.09778 6.96214C1.07716 6.97039 1.05241 6.98277 1.03178 6.99514C1.03178 7.00752 1.03178 7.01577 1.03178 7.02814C1.00703 7.04877 0.986406 7.06939 0.965781 7.09414C0.965781 7.10652 0.965781 7.11477 0.965781 7.12714C0.924532 7.18902 0.891531 7.25502 0.866781 7.32514C0.854406 7.33752 0.846156 7.34577 0.833781 7.35814C0.833781 7.37877 0.833781 7.40352 0.833781 7.42414C0.817281 7.47777 0.809031 7.53139 0.800781 7.58914C0.800781 7.60152 0.800781 7.60977 0.800781 7.62214C0.800781 7.64277 0.800781 7.66752 0.800781 7.68814C0.800781 7.70052 0.800781 7.70877 0.800781 7.72114C0.800781 7.74177 0.800781 7.76652 0.800781 7.78714C0.800781 7.79952 0.800781 7.80777 0.800781 7.82014C0.800781 7.84077 0.800781 7.86552 0.800781 7.88614C0.813156 7.89852 0.821406 7.90677 0.833781 7.91914C0.833781 7.93977 0.833781 7.96452 0.833781 7.98514C0.842031 8.00577 0.854406 8.03052 0.866781 8.05114C0.875031 8.07177 0.887406 8.09652 0.899781 8.11714C0.899781 8.12952 0.899781 8.13777 0.899781 8.15014C0.912157 8.16252 0.920406 8.17077 0.932781 8.18314C0.941032 8.20377 0.953406 8.22852 0.965781 8.24914C0.965781 8.26152 0.965781 8.26977 0.965781 8.28214C0.978157 8.29452 0.986406 8.30277 0.998781 8.31514C1.01116 8.32752 1.01941 8.33577 1.03178 8.34814C1.04003 8.36877 1.05241 8.39352 1.06478 8.41414C1.08541 8.42652 1.11016 8.43889 1.13078 8.44714C1.13078 8.45952 1.13078 8.46777 1.13078 8.48014C1.15141 8.49252 1.17616 8.50489 1.19678 8.51314C1.20916 8.52552 1.21741 8.53377 1.22978 8.54614C1.25041 8.55852 1.27516 8.57089 1.29578 8.57914C1.30816 8.59152 1.31641 8.59977 1.32878 8.61214C1.34116 8.61214 1.34941 8.61214 1.36178 8.61214C1.37416 8.62452 1.38241 8.63277 1.39478 8.64514C1.41541 8.65752 1.44016 8.66989 1.46078 8.67814C3.63878 9.55677 6.90578 12.9393 11.0638 16.1691C15.2218 19.399 20.4688 22.4721 27.2008 22.4721C33.9328 22.4721 39.2128 19.4031 43.3708 16.1691C47.5288 12.9351 50.7752 9.55264 52.9408 8.67814C52.9862 8.65752 53.0315 8.63689 53.0728 8.61214C53.1058 8.60389 53.1388 8.59152 53.1718 8.57914C53.6544 8.34402 53.8813 7.78714 53.7039 7.27977C53.5307 6.77652 53.0027 6.48364 52.4788 6.59914C50.0739 6.07939 46.5017 4.58202 42.9088 3.16714C39.188 1.70277 35.4755 0.296143 32.4808 0.296143C31.0742 0.296143 29.7047 0.890143 28.5868 1.45114C27.803 1.84302 27.5184 2.04102 27.2008 2.24314C26.8832 2.04102 26.5985 1.84302 25.8148 1.45114C24.6969 0.890143 23.3274 0.296143 21.9208 0.296143ZM21.9208 2.40814C22.622 2.40814 23.8967 2.87014 24.8908 3.36514C25.8849 3.86014 26.6068 4.35514 26.6068 4.35514C26.9657 4.59852 27.4359 4.59852 27.7948 4.35514C27.7948 4.35514 28.5167 3.86014 29.5108 3.36514C30.5049 2.87014 31.7795 2.40814 32.4808 2.40814C34.7619 2.40814 38.4703 3.66627 42.1498 5.11414C44.5382 6.05464 46.8152 6.94152 48.9478 7.65514C44.4639 8.88027 35.9252 10.8561 27.2008 10.8561C18.4352 10.8561 9.85516 8.88027 5.38778 7.65514C7.54103 6.92914 9.84691 6.02577 12.2518 5.08114C15.9272 3.64152 19.6149 2.40814 21.9208 2.40814ZM7.43378 10.3281C12.3343 11.5368 19.6479 12.9681 27.2008 12.9681C34.7867 12.9681 42.1333 11.5409 47.0338 10.3281C45.5117 11.6481 43.874 13.1001 42.0508 14.5191C38.0619 17.6211 33.2975 20.3601 27.2008 20.3601C21.104 20.3601 16.3397 17.617 12.3508 14.5191C10.5399 13.1125 8.94353 11.644 7.43378 10.3281Z" fill="black"/>
</svg>
