<svg width="35" height="44" viewBox="0 0 35 44" fill="none" xmlns="http://www.w3.org/2000/svg">
<path d="M2.20009 3.95975e-05C1.90647 0.0540396 1.66009 0.259914 1.55209 0.54004C0.634094 2.87216 0.121094 5.45067 0.121094 8.15404C0.121094 16.2473 4.69422 23.2133 11.1911 25.974C11.2653 26.0314 11.3463 26.0787 11.4341 26.109C12.072 26.3588 12.9866 26.7874 13.6751 27.378C14.3636 27.9687 14.8091 28.6369 14.8091 29.511V35.964C14.8091 36.2982 14.4581 36.8078 13.6211 37.368C12.7841 37.9283 11.5893 38.4649 10.4351 38.961C9.28084 39.4572 8.16709 39.8993 7.35709 40.392C6.95209 40.6384 6.57747 40.8612 6.33109 41.364C6.20959 41.6138 6.15559 41.9682 6.25009 42.282C6.34459 42.5959 6.55722 42.8423 6.76309 43.011C6.91497 43.1325 7.10734 43.2 7.30309 43.2H27.4991C27.6948 43.2 27.8872 43.1325 28.0391 43.011C28.2483 42.8457 28.4542 42.6263 28.5521 42.309C28.65 41.9918 28.596 41.6138 28.4711 41.364C28.2213 40.8645 27.8501 40.662 27.4451 40.419C26.6385 39.9297 25.5213 39.4875 24.3671 38.988C23.2128 38.4885 22.0181 37.9317 21.1811 37.368C20.3441 36.8044 19.9931 36.2982 19.9931 35.964V29.511C19.9931 28.6403 20.4453 27.9653 21.1271 27.378C21.8088 26.7908 22.6998 26.3588 23.3411 26.109C23.3985 26.0888 23.4525 26.0618 23.5031 26.028C29.3925 23.5744 33.7293 17.6614 34.5461 10.584C34.5461 10.557 34.5461 10.53 34.5461 10.503C34.6338 9.73017 34.6811 8.95054 34.6811 8.15404C34.6811 5.45067 34.1681 2.87216 33.2501 0.54004C33.1185 0.20929 32.7945 -0.0033354 32.4401 3.95975e-05H2.36209C2.33509 3.95975e-05 2.30809 3.95975e-05 2.28109 3.95975e-05C2.25409 3.95975e-05 2.22709 3.95975e-05 2.20009 3.95975e-05ZM3.01009 1.72804H31.7921C32.511 3.72267 32.9531 5.87254 32.9531 8.15404C32.9531 8.62992 32.9328 9.09229 32.8991 9.55804H1.90309C1.86934 9.09229 1.84909 8.62992 1.84909 8.15404C1.84909 5.87254 2.29122 3.72267 3.01009 1.72804ZM2.11909 11.286H32.6831C31.3567 19.413 24.9982 25.515 17.4011 25.515C9.80397 25.515 3.44547 19.413 2.11909 11.286ZM19.0481 27.135C18.5857 27.7965 18.2651 28.5829 18.2651 29.511V35.964C18.2651 37.2263 19.1797 38.1072 20.2091 38.799C21.2385 39.4909 22.5176 40.0478 23.6921 40.554C24.5122 40.9084 25.0927 41.1852 25.6901 41.472H9.11209C9.70947 41.1852 10.29 40.905 11.1101 40.554C12.2846 40.0512 13.5367 39.4875 14.5661 38.799C15.5955 38.1105 16.5371 37.2263 16.5371 35.964V29.511C16.5371 28.6032 16.23 27.8202 15.7811 27.162C16.311 27.216 16.8577 27.243 17.4011 27.243C17.9546 27.243 18.5081 27.1924 19.0481 27.135Z" fill="black"/>
</svg>
