<svg width="32" height="58" viewBox="0 0 32 58" fill="none" xmlns="http://www.w3.org/2000/svg">
<path d="M12.9039 0.200257C12.5242 0.275257 12.2055 0.523694 12.0414 0.875257L11.1039 2.90026C10.6164 3.12057 4.52266 5.85807 0.716406 7.51276C0.285156 7.70494 0.00859345 8.13151 0.00390625 8.60026C0.00390625 13.1753 1.95859 16.7331 3.79141 19.6253C5.62422 22.5174 7.20391 24.8003 7.20391 26.6003C7.20391 27.1018 6.96484 27.5846 6.34141 28.3628C5.71797 29.1409 4.78516 30.1159 3.82891 31.4753C1.91641 34.194 0.00390625 38.4268 0.00390625 45.8003C0.00390625 46.4612 0.542969 47.0003 1.20391 47.0003H14.4039V57.8003H16.8039V47.0003H30.0039C30.6648 47.0003 31.2039 46.4612 31.2039 45.8003C31.2039 38.4268 29.2914 34.194 27.3789 31.4753C26.4227 30.1159 25.4898 29.1409 24.8664 28.3628C24.243 27.5846 24.0039 27.1018 24.0039 26.6003C24.0039 24.8003 25.5836 22.5174 27.4164 19.6253C29.2492 16.7331 31.2039 13.1753 31.2039 8.60026C31.1992 8.13151 30.9227 7.70494 30.4914 7.51276C26.6852 5.85807 20.5914 3.12057 20.1039 2.90026L19.1664 0.875257C18.9648 0.45807 18.543 0.19557 18.0789 0.200257H13.1289C13.0914 0.200257 13.0539 0.200257 13.0164 0.200257C12.9789 0.200257 12.9414 0.200257 12.9039 0.200257ZM13.9164 2.60026H17.2914L18.1164 4.32526C18.243 4.57838 18.4586 4.77526 18.7164 4.88776C18.7164 4.88776 24.6227 7.54557 28.6539 9.31276C28.4523 12.8424 27.0414 15.7487 25.3914 18.3503C25.2602 18.5565 25.1102 18.7487 24.9789 18.9503C24.9555 18.9596 24.9273 18.9737 24.9039 18.9878C24.9039 18.9878 24.0273 19.4003 22.8039 19.4003C21.0742 19.4003 20.0289 18.5003 20.0289 18.5003C19.7477 18.2612 19.3773 18.1674 19.0164 18.2378C18.5617 18.3315 18.2055 18.6737 18.093 19.1237C17.9805 19.569 18.1352 20.0424 18.4914 20.3378C18.4914 20.3378 20.2117 21.8003 22.8039 21.8003C22.9539 21.8003 23.0758 21.7721 23.2164 21.7628C22.3023 23.3096 21.6039 24.8612 21.6039 26.6003C21.6039 27.8987 22.2648 28.9487 22.9914 29.8628C23.718 30.7768 24.5852 31.6674 25.4289 32.8628C27.0039 35.1034 28.5273 38.4878 28.7289 44.6003H2.47891C2.68047 38.4878 4.20391 35.1034 5.77891 32.8628C6.62266 31.6674 7.48984 30.7768 8.21641 29.8628C8.94297 28.9487 9.60391 27.8987 9.60391 26.6003C9.60391 24.8612 8.90547 23.3096 7.99141 21.7628C8.13203 21.7721 8.25391 21.8003 8.40391 21.8003C10.9961 21.8003 12.7164 20.3378 12.7164 20.3378C13.1195 19.9909 13.2461 19.4237 13.0305 18.9409C12.8148 18.4534 12.3039 18.1674 11.7789 18.2378C11.5586 18.2659 11.3523 18.3596 11.1789 18.5003C11.1789 18.5003 10.1336 19.4003 8.40391 19.4003C7.18047 19.4003 6.30391 18.9878 6.30391 18.9878C6.28047 18.9737 6.25234 18.9596 6.22891 18.9503C6.22422 18.9456 6.19609 18.9549 6.19141 18.9503C6.06484 18.7534 5.94297 18.5518 5.81641 18.3503C4.16641 15.7487 2.75547 12.8424 2.55391 9.31276C6.58516 7.54557 12.4914 4.88776 12.4914 4.88776C12.7492 4.77526 12.9648 4.57838 13.0914 4.32526L13.9164 2.60026Z" fill="black"/>
</svg>
