<svg width="52" height="54" viewBox="0 0 52 54" fill="none" xmlns="http://www.w3.org/2000/svg">
<path d="M42.3979 0.303955V0.339955C37.6234 0.645955 34.3339 3.61146 32.1019 7.53995C29.7439 11.689 28.3354 16.954 26.9539 21.868C26.2339 24.433 25.0594 28.1815 23.6059 31.444C22.1524 34.7065 20.2759 37.402 18.9259 38.032C17.4364 38.7295 14.4979 38.356 14.4979 38.356L14.0659 38.248L13.7059 38.464C13.7059 38.464 11.4874 39.7645 8.91787 41.56C6.34837 43.3555 3.43688 45.5875 1.82587 47.86C1.21387 48.724 0.858375 49.462 0.673875 49.984C0.489375 50.506 0.457875 50.956 0.457875 50.956L0.421875 51.856L1.32187 52.108C1.32187 52.108 2.50987 52.4275 5.67787 52.72C8.84587 53.0125 14.0704 53.296 22.3459 53.296C30.7159 53.296 35.1304 51.9955 37.6459 49.732C40.1614 47.4685 40.4179 44.4715 40.8499 42.064C41.5249 38.2885 41.8984 34.7875 42.3259 32.308C42.4294 31.696 42.5374 31.408 42.6499 30.94C42.6589 30.985 42.6769 31.003 42.6859 31.048C42.9334 32.488 43.1809 34.36 43.4059 36.412C43.8559 40.5025 44.2024 45.277 44.2339 48.652C44.2339 48.661 44.2339 48.679 44.2339 48.688H45.3859L46.5379 48.724V48.688C46.5379 48.652 46.7359 42.109 47.0059 35.044C47.2894 27.61 51.1459 22.4395 51.1459 16.432C51.1459 11.6395 49.9669 7.71995 48.4459 4.94795C47.6854 3.56195 46.8124 2.46395 45.9619 1.67195C45.1114 0.879955 44.2789 0.303955 43.2259 0.303955C43.0324 0.303955 42.8389 0.330956 42.6499 0.339955C42.5644 0.330956 42.4834 0.303955 42.3979 0.303955ZM42.5059 2.64395C42.5059 2.64395 42.5509 2.65296 42.5779 2.82396C42.6409 3.22896 42.5104 4.16496 42.2179 5.23595C41.6284 7.37346 40.4179 10.114 39.6259 12.076C37.3039 17.8315 36.1564 23.533 35.5579 28.096C34.9594 32.659 34.8874 36.187 34.8019 37.096C34.7209 37.9645 34.3114 39.2515 33.5779 40.192C32.8444 41.1325 31.8949 41.776 30.4099 41.776C27.4489 41.776 25.3429 40.624 22.3099 40.624C21.2164 40.624 19.8079 40.669 18.5299 40.588C18.9844 40.48 19.4389 40.336 19.8979 40.12C22.4674 38.923 24.1954 35.818 25.7299 32.38C27.2644 28.942 28.4434 25.1125 29.1859 22.48C30.5719 17.5525 31.9849 12.445 34.1179 8.69195C36.1294 5.15496 38.5954 2.89596 42.5059 2.64395ZM44.8819 3.83195C45.3724 4.39896 45.8989 5.15946 46.3939 6.06395C47.7169 8.48045 48.8419 12.0265 48.8419 16.432C48.8419 20.698 46.1059 25.459 45.1339 31.912C45.0754 31.525 45.0124 30.9985 44.9539 30.652C44.8234 29.896 44.6929 29.248 44.5579 28.708C44.4229 28.168 44.3149 27.808 44.0539 27.376L43.7299 26.8H43.0819C42.5194 26.8 41.9884 27.097 41.6419 27.448C41.2954 27.799 41.0704 28.195 40.8859 28.636C40.5169 29.5225 40.2829 30.607 40.0579 31.912C39.6079 34.5265 39.2389 37.9915 38.5819 41.668C38.1229 44.2195 37.9249 46.3615 36.0979 48.004C34.2709 49.6465 30.4684 50.992 22.3459 50.992C14.1244 50.992 8.97187 50.6995 5.89387 50.416C3.84187 50.227 3.72938 50.155 3.22987 50.056C3.36938 49.7815 3.41888 49.588 3.69787 49.192C4.93538 47.446 7.76587 45.169 10.2499 43.432C11.8744 42.298 12.9949 41.6095 13.7419 41.164C13.9714 41.4655 14.2324 41.731 14.5339 41.92C15.3034 42.406 16.2034 42.649 17.1259 42.784C18.9664 43.0495 21.0004 42.928 22.3099 42.928C24.6904 42.928 26.8999 44.08 30.4099 44.08C32.6239 44.08 34.3474 42.964 35.4139 41.596C36.4804 40.228 36.9799 38.635 37.1059 37.312V37.204C37.2229 35.89 37.2859 32.7985 37.8619 28.42C38.4469 23.9875 39.5629 18.448 41.7859 12.94C42.5509 11.0455 43.7839 8.26896 44.4499 5.84795C44.6434 5.15045 44.8144 4.47546 44.8819 3.83195Z" fill="black"/>
</svg>
