<svg width="37" height="45" viewBox="0 0 37 45" fill="none" xmlns="http://www.w3.org/2000/svg">
<path d="M30.9165 0.519897C23.4091 0.519897 17.9303 4.70526 17.1615 5.3199H15.5565C15.5565 3.74073 14.2556 2.4399 12.6765 2.4399C11.0973 2.4399 9.79648 3.74073 9.79648 5.3199V8.1999C9.7965 8.4545 9.89765 8.69866 10.0777 8.87869C10.2577 9.05872 10.5019 9.15987 10.7565 9.1599H11.7165V11.0799H8.83648C8.58187 11.0799 8.33771 11.1811 8.15768 11.3611C7.97765 11.5411 7.8765 11.7853 7.87647 12.0399V20.7024C7.81407 20.7157 7.75314 20.7352 7.6946 20.7605C3.33931 22.6599 0.283254 26.9738 0.203975 32.0011C0.177446 32.1278 0.176809 32.2586 0.202101 32.3855C0.266793 36.7004 2.56599 40.4412 5.95648 42.6305V43.7199C5.9565 43.9745 6.05765 44.2187 6.23768 44.3987C6.41771 44.5787 6.66188 44.6799 6.91648 44.6799H18.4365C18.6911 44.6799 18.9352 44.5787 19.1153 44.3987C19.2953 44.2187 19.3965 43.9745 19.3965 43.7199V42.6305C22.7843 40.4421 25.0829 36.7058 25.1509 32.3949C25.1767 32.2667 25.176 32.1347 25.149 32.0068C25.0719 26.977 22.0162 22.6606 17.6583 20.7605C17.5998 20.7352 17.5389 20.7157 17.4765 20.7024V12.0399C17.4764 11.7853 17.3753 11.5411 17.1953 11.3611C17.0152 11.1811 16.7711 11.0799 16.5165 11.0799H13.6365V9.1599H14.5965C14.8511 9.15987 15.0952 9.05872 15.2753 8.87869C15.4553 8.69866 15.5564 8.4545 15.5565 8.1999V7.2399H17.1615C17.9303 7.85453 23.4091 12.0399 30.9165 12.0399C34.086 12.0399 36.6765 9.44946 36.6765 6.2799C36.6765 3.11034 34.086 0.519897 30.9165 0.519897ZM30.9165 2.4399C33.048 2.4399 34.7565 4.14834 34.7565 6.2799C34.7565 8.41146 33.048 10.1199 30.9165 10.1199C24.8095 10.1199 20.6945 7.31795 19.2783 6.2799C20.6945 5.24185 24.8095 2.4399 30.9165 2.4399ZM12.6765 4.3599C13.2189 4.3599 13.6365 4.77747 13.6365 5.3199V7.2399H11.7165V5.3199C11.7165 4.77747 12.134 4.3599 12.6765 4.3599ZM9.79648 12.9999H15.5565V20.6799H11.8646C11.8107 20.6709 11.7561 20.6665 11.7015 20.6668C11.655 20.6678 11.6086 20.6722 11.5627 20.6799H9.79648V12.9999ZM8.3321 22.5999H8.83648H10.6909C10.4886 24.1599 9.8028 25.1798 8.99773 26.3874C8.15877 27.6458 7.19826 29.1166 6.96898 31.2399H2.16523C2.51523 27.373 4.95211 24.1331 8.3321 22.5999ZM12.624 22.5999H16.5165H17.019C20.3999 24.1331 22.8376 27.373 23.1877 31.2399H8.9021C9.10438 29.6799 9.79015 28.66 10.5952 27.4524C11.4342 26.194 12.3947 24.7232 12.624 22.5999ZM2.16523 33.1599H6.96335C7.42357 37.887 11.1409 40.6486 11.1409 40.6486C11.2418 40.7242 11.3567 40.7792 11.4789 40.8104C11.6011 40.8416 11.7282 40.8484 11.853 40.8305C11.9779 40.8126 12.098 40.7702 12.2064 40.7059C12.3149 40.6416 12.4096 40.5565 12.4852 40.4555C12.5608 40.3546 12.6158 40.2397 12.647 40.1175C12.6782 39.9953 12.685 39.8682 12.6671 39.7433C12.6492 39.6185 12.6068 39.4984 12.5425 39.3899C12.4781 39.2815 12.3931 39.1867 12.2921 39.1111C12.2921 39.1111 9.35696 36.8736 8.9021 33.1599H23.1877C22.8713 36.6633 20.8477 39.6586 17.9546 41.3349C17.8091 41.4193 17.6884 41.5405 17.6045 41.6863C17.5206 41.8321 17.4764 41.9973 17.4765 42.1655V42.7599H7.87647V42.1655C7.87652 41.9973 7.83238 41.8321 7.74847 41.6863C7.66456 41.5405 7.54382 41.4193 7.39835 41.3349C4.50556 39.6596 2.48164 36.6634 2.16523 33.1599Z" fill="black"/>
</svg>
