<svg width="34" height="34" viewBox="0 0 34 34" fill="none" xmlns="http://www.w3.org/2000/svg">
<path d="M16.6064 0.639771C14.2383 0.639771 12.2864 2.53821 12.2864 4.88102C12.2864 5.72758 12.5255 6.54321 12.7561 7.22946C12.9867 7.91571 13.2117 8.55133 13.223 8.63852C13.223 8.64977 13.4002 10.2107 12.9642 11.5551C12.9642 11.5579 12.9642 11.5579 12.9642 11.5607C12.8883 11.7716 12.1571 13.8388 11.648 15.2535C10.4949 13.6982 9.00143 11.6816 8.93111 11.586C8.20268 10.5313 7.93268 9.11665 7.93268 9.11665C7.92143 9.04633 7.9383 8.43883 7.94674 7.78071C7.95799 7.11977 7.94393 6.34352 7.71049 5.5954C7.23236 4.0429 5.87674 2.99102 4.35518 2.82227C3.84893 2.76883 3.3258 2.81102 2.8083 2.96852C0.746739 3.5929 -0.414823 5.80071 0.220802 7.8679C0.454239 8.61883 0.887365 9.26571 1.27268 9.80571C1.65518 10.3457 2.00393 10.8379 2.04893 10.9476L2.05455 10.956L2.06018 10.9673C2.06018 10.9673 2.63111 12.2948 2.62268 13.5688L2.62549 13.552C2.61705 13.7938 2.51861 17.3573 2.4708 18.2235L2.46799 18.2263C2.3358 20.9657 2.8983 23.6854 4.01205 26.166C5.07799 28.5566 5.71924 30.7082 5.84018 31.0935L5.86268 31.161C6.1158 31.7516 6.74861 32.1595 7.61768 32.2607C8.37143 32.3451 9.34174 32.1988 10.5764 31.746C12.1317 33.0088 14.1174 33.771 16.3055 33.771C18.5724 33.771 20.6733 32.9695 22.3327 31.6335C23.7192 32.182 24.7796 32.3535 25.5952 32.2607C26.4642 32.1595 27.0971 31.7516 27.3502 31.161L27.3727 31.0935C27.4936 30.7082 28.1349 28.5566 29.2036 26.166V26.1632C30.3146 23.6854 30.8771 20.9657 30.7449 18.2263V18.2235C30.6942 17.3573 30.5958 13.7938 30.5874 13.552L30.5902 13.5688C30.5817 12.2948 31.1527 10.9673 31.1527 10.9673L31.1583 10.956L31.1639 10.9476C31.2089 10.8379 31.5577 10.3457 31.9402 9.80571C32.3255 9.26571 32.7586 8.61883 32.9892 7.8679C33.6277 5.80071 32.4661 3.5929 30.4017 2.96852C29.8871 2.81102 29.3639 2.76602 28.8577 2.82227C27.3389 2.98821 25.9805 4.0429 25.5024 5.59258C25.2689 6.34071 25.2549 7.11977 25.2661 7.78071C25.2774 8.43883 25.2942 9.05477 25.2802 9.12227C25.2802 9.1279 25.0074 10.5341 24.2817 11.586C24.2086 11.6873 22.6955 13.7291 21.5396 15.2873C21.0305 13.867 20.3105 11.8307 20.2402 11.6282C19.8014 10.2782 19.9814 8.7004 19.9814 8.7004V8.68071C19.9955 8.53727 20.2092 7.9129 20.4427 7.22665C20.6789 6.5404 20.9264 5.7304 20.9264 4.88102C20.9264 2.53821 18.9746 0.639771 16.6064 0.639771ZM16.6064 2.07977C18.2152 2.07977 19.4864 3.33415 19.4864 4.88102C19.4864 5.43508 19.3008 6.12133 19.0814 6.76258C18.8649 7.40102 18.6089 7.9354 18.5499 8.53446C18.5499 8.5429 18.5189 8.8579 18.5077 9.27977H14.6967C14.6883 8.80165 14.6489 8.45008 14.6489 8.45008V8.44727C14.5758 7.89883 14.3339 7.40383 14.1202 6.77102C13.9092 6.13821 13.7264 5.44071 13.7264 4.88102C13.7264 3.33415 14.9977 2.07977 16.6064 2.07977ZM3.71955 4.24821C4.87268 4.14133 5.97799 4.85571 6.33518 6.01727C6.48424 6.50102 6.51799 7.15071 6.50674 7.75821C6.4983 8.3629 6.42518 8.85227 6.51236 9.36415V9.36977C6.51236 9.36977 6.57705 9.68477 6.69799 10.1095L3.62111 11.0432C3.49736 10.6776 3.38768 10.4076 3.38205 10.3963L3.37924 10.3935C3.16268 9.87602 2.79986 9.47102 2.44268 8.9704C2.08549 8.46696 1.74799 7.92133 1.59893 7.44321C1.1883 6.11571 1.91393 4.74321 3.22736 4.34665C3.39049 4.29602 3.55643 4.26227 3.71955 4.24821ZM29.4933 4.24821C29.6564 4.26227 29.8224 4.29602 29.9855 4.34665C31.2989 4.74321 32.0246 6.11571 31.6139 7.44321C31.4649 7.92133 31.1274 8.46696 30.7702 8.9704C30.413 9.47102 30.0502 9.87602 29.8336 10.3935V10.3963C29.8252 10.4076 29.7155 10.6776 29.5917 11.0432L26.5149 10.1095C26.6358 9.68477 26.7005 9.36977 26.7005 9.36977V9.36133C26.7877 8.85227 26.7146 8.3629 26.7061 7.75821C26.6949 7.15071 26.7286 6.49821 26.8777 6.01727C27.2377 4.85571 28.343 4.14133 29.4933 4.24821ZM14.6236 10.7198H18.5724C18.6286 11.1501 18.7186 11.6113 18.8677 12.0698L18.8705 12.081L18.8761 12.0895C18.8761 12.0923 18.8986 12.157 18.9014 12.1598H14.2777C14.2805 12.1513 14.3255 12.0276 14.3255 12.0248L14.3311 12.0135L14.3339 12.0023C14.4746 11.5691 14.5646 11.1332 14.6236 10.7198ZM7.20705 11.4623C7.35611 11.7745 7.5333 12.0979 7.74705 12.4073L7.75268 12.4157L7.76111 12.4213C7.76955 12.4354 7.96643 12.7026 7.99736 12.742L4.05143 13.9373C4.05424 13.8923 4.06268 13.6082 4.06268 13.5998V13.5773C4.06549 13.1807 4.02893 12.7982 3.97268 12.441L7.20705 11.4623ZM26.0058 11.4623L29.2402 12.441C29.1839 12.7982 29.1474 13.1807 29.1502 13.5773V13.5998C29.1502 13.6082 29.1586 13.8923 29.1614 13.9373L25.2155 12.7448C25.2464 12.7026 25.4461 12.4354 25.4546 12.4213L25.4602 12.4157L25.4658 12.4073C25.6796 12.0951 25.8567 11.7745 26.0058 11.4623ZM13.7658 13.5998H19.4105C19.6692 14.331 19.8324 14.7838 20.1305 15.6191C19.1321 15.2423 18.0492 15.0285 16.9102 15.0285C15.5011 15.0285 14.1624 15.3463 12.9474 15.9004C13.2624 15.0285 13.4677 14.452 13.7658 13.5998ZM8.90861 13.971C9.72424 15.0763 10.4358 16.0438 11.1361 16.9776C8.86643 18.6848 7.34486 21.3566 7.2408 24.3745C7.15643 26.7679 7.99174 28.9504 9.41768 30.6126C8.67799 30.8207 8.12955 30.8685 7.77799 30.8291C7.26611 30.7701 7.18174 30.5788 7.19018 30.5985C7.07486 30.2245 6.41955 28.0335 5.32549 25.5782V25.5754C4.29893 23.2916 3.78705 20.797 3.90518 18.3023V18.2995C3.93893 17.7088 3.96705 16.6148 4.0008 15.456L8.90861 13.971ZM24.3071 13.971L29.2092 15.456C29.2458 16.6176 29.2739 17.7145 29.3077 18.3023C29.4258 20.797 28.9139 23.2916 27.8874 25.5754V25.5782C26.7933 28.0335 26.138 30.2245 26.0227 30.5985C26.0311 30.5788 25.9467 30.7701 25.4349 30.8291C25.0355 30.8741 24.3942 30.8151 23.4942 30.5254C24.9596 28.8885 25.8905 26.7623 25.9721 24.4251C26.0817 21.261 24.5967 18.457 22.2455 16.7526C22.9655 15.7879 23.5533 14.9948 24.3071 13.971ZM16.9102 16.491C21.2921 16.491 24.6642 19.987 24.5124 24.3745C24.3577 28.762 20.6902 32.3085 16.3055 32.3085C11.9208 32.3085 8.54861 28.8126 8.7033 24.4251C8.85518 20.0376 12.5255 16.491 16.9102 16.491ZM16.7639 18.6398C13.5746 18.6398 13.2933 21.5366 13.2764 22.2398H14.6264C14.6461 21.7532 14.8655 19.8548 16.7639 19.8548C18.5414 19.8548 18.7889 21.0866 18.7889 21.6998C18.7889 22.0063 18.6117 23.5448 16.6514 23.5448H16.0889V24.7148C16.3336 24.6529 16.5924 24.6473 16.8989 24.6473C17.2055 24.6473 19.2839 24.7007 19.2839 26.7848C19.2839 28.807 17.138 28.9898 16.8314 28.9898C15.7458 28.9898 14.483 28.3345 14.4464 26.5598H13.0964C13.1077 27.4429 13.3749 30.1598 16.8314 30.1598C17.5064 30.1598 20.7014 29.9657 20.7014 26.7173C20.7014 24.6951 19.3514 24.0932 18.6764 23.9723V23.9048C19.1067 23.6601 20.2064 22.9176 20.2064 21.6323C20.2064 21.1429 20.0742 18.6398 16.7639 18.6398Z" fill="black"/>
</svg>
