<svg width="36" height="35" viewBox="0 0 36 35" fill="none" xmlns="http://www.w3.org/2000/svg">
<path d="M8.66453 0.120117C7.27516 0.120117 6.24016 0.584179 5.62703 1.31262C5.01391 2.04105 4.83953 2.94668 4.83953 3.72012C4.83953 5.55949 5.83516 7.05293 7.20203 8.01762C7.62391 8.31574 8.07109 8.55199 8.55203 8.76012H0.519531V16.6801H1.95953V34.6801H33.6395V16.6801H35.0795V8.76012H27.047C27.528 8.55199 27.9752 8.31574 28.397 8.01762C29.7639 7.05293 30.7595 5.55949 30.7595 3.72012C30.7595 2.94668 30.5852 2.04105 29.972 1.31262C29.3589 0.584179 28.3239 0.120117 26.9345 0.120117C25.4973 0.120117 24.3358 0.727617 23.4695 1.56012C22.6033 2.39262 21.9817 3.44168 21.3995 4.44012C20.8173 5.43855 20.2689 6.39762 19.6895 7.05012C19.1102 7.70262 18.5814 8.04012 17.7995 8.04012C17.0177 8.04012 16.4889 7.70262 15.9095 7.05012C15.3302 6.39762 14.7817 5.43855 14.1995 4.44012C13.6173 3.44168 12.9958 2.39262 12.1295 1.56012C11.2633 0.727617 10.1017 0.120117 8.66453 0.120117ZM8.66453 1.56012C9.71922 1.56012 10.4392 1.94262 11.117 2.59512C11.7948 3.24762 12.3911 4.17855 12.962 5.16012C13.533 6.14168 14.0927 7.16262 14.8295 7.99512C14.8436 8.01199 14.8605 8.02324 14.8745 8.04012H12.0395C10.5883 8.04012 9.08922 7.60699 8.01203 6.84762C6.93484 6.08824 6.27953 5.06168 6.27953 3.72012C6.27953 3.1773 6.40891 2.64012 6.72953 2.25762C7.05016 1.87512 7.57609 1.56012 8.66453 1.56012ZM26.9345 1.56012C28.023 1.56012 28.5489 1.87512 28.8695 2.25762C29.1902 2.64012 29.3195 3.1773 29.3195 3.72012C29.3195 5.06168 28.6642 6.08824 27.587 6.84762C26.5098 7.60699 25.0108 8.04012 23.5595 8.04012H20.7245C20.7386 8.02324 20.7555 8.01199 20.7695 7.99512C21.5064 7.16262 22.0661 6.14168 22.637 5.16012C23.208 4.17855 23.8042 3.24762 24.482 2.59512C25.1598 1.94262 25.8798 1.56012 26.9345 1.56012ZM1.95953 10.2001H13.4795V15.2401H1.95953V10.2001ZM14.9195 10.2001H20.6795V15.8251C20.6795 15.8476 20.6795 15.8701 20.6795 15.8926C20.6795 15.9151 20.6795 15.9376 20.6795 15.9601C20.6739 16.0136 20.6739 16.0642 20.6795 16.1176V33.2401H14.9195V16.0951C14.9252 16.0501 14.9252 16.0051 14.9195 15.9601C14.9223 15.9292 14.9223 15.9011 14.9195 15.8701C14.9195 15.8476 14.9195 15.8251 14.9195 15.8026V10.2001ZM22.1195 10.2001H33.6395V15.2401H22.1195V10.2001ZM3.39953 16.6801H13.4795V33.2401H3.39953V16.6801ZM22.1195 16.6801H32.1995V33.2401H22.1195V16.6801Z" fill="black"/>
</svg>
