<svg width="63" height="60" viewBox="0 0 63 60" fill="none" xmlns="http://www.w3.org/2000/svg">
<path d="M31.3535 0.366857C31.0815 0.376238 30.8194 0.470997 30.6043 0.637701L0.79627 23.8974C0.525053 24.1088 0.34895 24.4194 0.306702 24.7607C0.264453 25.102 0.35952 25.4461 0.570989 25.7173C0.782458 25.9885 1.09301 26.1646 1.43432 26.2069C1.77563 26.2491 2.11974 26.1541 2.39096 25.9426L4.18561 24.5428V58.616C4.18565 58.9597 4.3222 59.2893 4.56524 59.5324C4.80828 59.7754 5.1379 59.9119 5.48161 59.912H23.4079C23.5479 59.9351 23.6907 59.9351 23.8306 59.912H38.9599C39.0999 59.9351 39.2427 59.9351 39.3826 59.912H57.3216C57.6653 59.9119 57.9949 59.7754 58.238 59.5324C58.481 59.2893 58.6176 58.9597 58.6176 58.616V24.5428L60.4123 25.9426C60.5466 26.0473 60.7002 26.1246 60.8643 26.1699C61.0285 26.2153 61.1999 26.2279 61.3689 26.207C61.5379 26.186 61.7012 26.132 61.8493 26.048C61.9975 25.964 62.1276 25.8517 62.2323 25.7174C62.337 25.5831 62.4143 25.4295 62.4596 25.2653C62.505 25.1012 62.5175 24.9297 62.4966 24.7607C62.4757 24.5917 62.4217 24.4285 62.3376 24.2803C62.2536 24.1322 62.1413 24.0021 62.007 23.8974L52.1376 16.1973V6.77598H44.3616V10.1274L32.199 0.637701C31.9578 0.450714 31.6584 0.354803 31.3535 0.366857ZM31.4016 3.30564L56.0256 22.5204V57.32H40.4736V32.696H22.3296V57.32H6.77761V22.5204L31.4016 3.30564ZM46.9536 9.36798H49.5456V14.1748L46.9536 12.1498V9.36798ZM24.9216 35.288H37.8816V57.32H24.9216V35.288Z" fill="black"/>
</svg>
