<svg width="44" height="49" viewBox="0 0 44 49" fill="none" xmlns="http://www.w3.org/2000/svg">
<path d="M16.7228 0.0975368C16.5374 0.0971227 16.3552 0.145507 16.1945 0.237828C16.0337 0.330148 15.9001 0.463153 15.8071 0.623474L11.7584 5.68279C11.64 5.79543 11.5494 5.934 11.4937 6.08759C11.438 6.24118 11.4187 6.4056 11.4373 6.56792C11.4559 6.73024 11.5119 6.88604 11.6009 7.02305C11.6899 7.16007 11.8094 7.27456 11.9502 7.35754L13.2496 8.36816C5.95718 11.6958 0.882812 19.0383 0.882812 27.568C0.882812 39.2193 10.3514 48.688 22.0028 48.688C33.6542 48.688 43.1228 39.2193 43.1228 27.568C43.1228 19.0387 38.048 11.698 30.7561 8.37022L32.0575 7.35754C32.1989 7.27421 32.319 7.15906 32.4081 7.02124C32.4973 6.88341 32.5531 6.7267 32.5711 6.56354C32.5891 6.40038 32.5689 6.23527 32.5119 6.08131C32.455 5.92735 32.363 5.78878 32.2431 5.6766L28.1965 0.617287C28.1 0.454176 27.9614 0.320042 27.7952 0.228957C27.6289 0.137871 27.4413 0.0931898 27.2519 0.0995993C27.2097 0.101208 27.1677 0.105341 27.1261 0.111974H16.8796C16.8277 0.103269 16.7753 0.0984432 16.7228 0.0975368ZM18.2821 2.22397H25.7236L24.4572 5.39197H19.5484L18.2821 2.22397ZM16.4155 3.24285L17.2756 5.39197H14.6974L16.4155 3.24285ZM27.5901 3.24285L29.3082 5.39197H26.7301L27.5901 3.24285ZM15.5761 7.50397H18.5646C18.7534 7.55763 18.9534 7.55763 19.1421 7.50397H24.8656C25.0537 7.55724 25.2529 7.55724 25.441 7.50397H28.4296L22.0028 12.5035L15.5761 7.50397ZM15.1698 9.86141L17.1374 11.3918C10.1782 13.4836 5.10681 19.9397 5.10681 27.568C5.10681 36.8866 12.6842 44.464 22.0028 44.464C31.3215 44.464 38.8988 36.8866 38.8988 27.568C38.8988 19.9404 33.8285 13.4842 26.8703 11.3918L28.8379 9.86141C35.9503 12.6087 41.0108 19.4762 41.0108 27.568C41.0108 38.0778 32.5127 46.576 22.0028 46.576C11.493 46.576 2.99481 38.0778 2.99481 27.568C2.99481 19.4755 8.05647 12.6083 15.1698 9.86141ZM24.7604 13.0335C24.8095 13.051 24.8598 13.0648 24.9109 13.0748C31.6809 14.4256 36.7868 20.3879 36.7868 27.568C36.7868 35.7451 30.18 42.352 22.0028 42.352C13.8257 42.352 7.21881 35.7451 7.21881 27.568C7.21881 20.3879 12.3247 14.4256 19.0947 13.0748C19.1472 13.0656 19.1989 13.0525 19.2494 13.0356L21.3552 14.6732C21.5404 14.817 21.7683 14.8951 22.0028 14.8951C22.2373 14.8951 22.4652 14.817 22.6504 14.6732L24.7604 13.0335Z" fill="black"/>
</svg>
