<svg width="41" height="27" viewBox="0 0 41 27" fill="none" xmlns="http://www.w3.org/2000/svg">
<path d="M14.6919 0.902685C14.6473 0.90906 14.6058 0.915435 14.5644 0.928185C14.5485 0.93456 14.5293 0.944122 14.5134 0.953685C14.5134 0.953685 13.7133 1.12262 12.9579 1.71869C12.4543 2.11394 11.9443 2.74187 11.6574 3.58018C11.2303 3.03193 10.6406 2.67812 10.1274 2.50919C9.29228 2.23187 8.52091 2.27969 8.52091 2.27969C8.07147 2.30837 7.72722 2.69725 7.75591 3.14668C7.78459 3.59612 8.17347 3.94037 8.62291 3.91168C8.62291 3.91168 9.11697 3.89893 9.61741 4.06468C9.85009 4.14118 10.0605 4.25275 10.2294 4.39618C5.76053 5.27275 2.03753 8.96068 1.71241 13.3722C1.54347 13.4391 1.37453 13.4933 1.17691 13.6272C0.590406 14.0224 0.00390625 14.8512 0.00390625 16.0242C0.00390625 17.2163 0.867719 18.0865 1.94191 18.4467C3.07984 22.5777 6.82516 24.8312 10.2294 25.4592C10.7904 25.9118 11.4725 26.2242 12.2439 26.2242C13.0153 26.2242 13.6974 25.9118 14.2584 25.4592C16.4068 25.0607 18.6986 24.028 20.3784 22.2717C22.0773 24.0344 24.366 25.0576 26.5239 25.4592C27.0849 25.9182 27.783 26.2242 28.5639 26.2242C29.3353 26.2242 30.0174 25.9118 30.5784 25.4592C33.9827 24.8312 37.728 22.5777 38.8659 18.4467C39.9401 18.0865 40.8039 17.2163 40.8039 16.0242C40.8039 14.9149 40.2142 14.1117 39.6564 13.7037C39.4142 13.5284 39.2102 13.4264 39.0189 13.3467C38.4452 8.6515 34.4002 4.68625 29.4819 4.24318C29.6381 3.65031 29.9568 3.28693 30.2979 3.01918C30.7665 2.65262 31.1904 2.53468 31.1904 2.53468C31.6398 2.48687 31.9682 2.07887 31.9172 1.62944C31.8693 1.18 31.4613 0.851685 31.0119 0.902685C30.9673 0.90906 30.9258 0.915435 30.8844 0.928185C30.8685 0.93456 30.8493 0.944122 30.8334 0.953685C30.8334 0.953685 30.0333 1.12262 29.2779 1.71869C28.7743 2.11394 28.2643 2.74187 27.9774 3.58018C27.5503 3.03193 26.9606 2.67812 26.4474 2.50919C25.6123 2.23187 24.8409 2.27969 24.8409 2.27969C24.3915 2.30837 24.0472 2.69725 24.0759 3.14668C24.1046 3.59612 24.4935 3.94037 24.9429 3.91168C24.9429 3.91168 25.437 3.89893 25.9374 4.06468C26.1765 4.14437 26.4028 4.24318 26.5749 4.39618C24.1142 4.87112 21.8861 6.19075 20.3019 8.01718C18.5424 5.94531 16.002 4.49818 13.1619 4.24318C13.3181 3.65031 13.6368 3.28693 13.9779 3.01918C14.4465 2.65262 14.8704 2.53468 14.8704 2.53468C15.3198 2.48687 15.6482 2.07887 15.5972 1.62944C15.5493 1.18 15.1413 0.851685 14.6919 0.902685ZM12.0909 5.82418C12.1515 5.83056 12.2088 5.83056 12.2694 5.82418C16.8977 5.83694 20.984 9.748 21.2199 14.0352L21.2709 14.8002H21.9339C21.9562 14.8066 21.9785 14.8129 22.0104 14.8257C22.1124 14.8639 22.2399 14.9372 22.3674 15.0297C22.6256 15.2177 22.8519 15.4345 22.8519 16.0242C22.8519 16.6075 22.4025 17.0537 21.8319 17.0952L21.2454 17.1462L21.0924 17.7327C20.2605 21.3824 16.8913 23.3777 13.8249 23.9037L13.5699 23.9292L13.3914 24.1077C13.095 24.4009 12.6965 24.5922 12.2439 24.5922C11.7913 24.5922 11.3928 24.4009 11.0964 24.1077L10.9179 23.9292L10.6629 23.9037C7.59653 23.3777 4.22734 21.3824 3.39541 17.7327L3.24241 17.1462L2.65591 17.0952C2.08534 17.0537 1.63591 16.6075 1.63591 16.0242C1.63591 15.3229 1.86541 15.1349 2.09491 14.9787C2.20966 14.9022 2.33397 14.8512 2.42641 14.8257C2.47103 14.8129 2.50928 14.8034 2.52841 14.8002H3.26791V13.9842C3.26791 10.0285 6.97178 6.42662 11.1984 5.90068C11.4088 5.97081 11.6383 5.95168 11.8359 5.84968C11.922 5.8465 12.0048 5.82418 12.0909 5.82418ZM28.4109 5.82418C28.4715 5.83056 28.5288 5.83056 28.5894 5.82418C28.6404 5.82418 28.6914 5.82418 28.7424 5.82418C33.3101 5.923 37.3072 9.79581 37.5399 14.0352L37.5909 14.8002H38.2539C38.2762 14.8066 38.2985 14.8129 38.3304 14.8257C38.4324 14.8639 38.5599 14.9372 38.6874 15.0297C38.9456 15.2177 39.1719 15.4345 39.1719 16.0242C39.1719 16.6075 38.7225 17.0537 38.1519 17.0952L37.5654 17.1462L37.4124 17.7327C36.5805 21.3824 33.2113 23.3777 30.1449 23.9037L29.8899 23.9292L29.7114 24.1077C29.415 24.4009 29.0165 24.5922 28.5639 24.5922C28.1113 24.5922 27.7128 24.4009 27.4164 24.1077L27.2379 23.9292L26.9829 23.9037C24.9971 23.5626 22.8583 22.5617 21.3984 20.9457C21.8861 20.203 22.2877 19.3774 22.5459 18.4467C23.5181 18.1216 24.315 17.3789 24.4584 16.3557C24.5891 16.4035 24.7421 16.4322 24.8919 16.4322C25.5677 16.4322 26.1159 15.8839 26.1159 15.2082C26.1159 14.5324 25.5677 13.9842 24.8919 13.9842C24.5285 13.9842 24.197 14.1404 23.9739 14.3922C23.7795 14.1085 23.5595 13.8662 23.3364 13.7037C23.0942 13.5284 22.8902 13.4264 22.6989 13.3467C22.5268 11.941 22.0232 10.5959 21.2964 9.39419C22.7595 7.55818 25.0322 6.21943 27.4674 5.90068C27.4833 5.90068 27.5025 5.90068 27.5184 5.90068C27.7288 5.97081 27.9583 5.95168 28.1559 5.84968C28.242 5.8465 28.3248 5.82418 28.4109 5.82418ZM8.57191 13.9842C7.89616 13.9842 7.34791 14.5324 7.34791 15.2082C7.34791 15.8839 7.89616 16.4322 8.57191 16.4322C9.24766 16.4322 9.79591 15.8839 9.79591 15.2082C9.79591 14.5324 9.24766 13.9842 8.57191 13.9842ZM15.9159 13.9842C15.2402 13.9842 14.6919 14.5324 14.6919 15.2082C14.6919 15.8839 15.2402 16.4322 15.9159 16.4322C16.5917 16.4322 17.1399 15.8839 17.1399 15.2082C17.1399 14.5324 16.5917 13.9842 15.9159 13.9842ZM32.2359 13.9842C31.5602 13.9842 31.0119 14.5324 31.0119 15.2082C31.0119 15.8839 31.5602 16.4322 32.2359 16.4322C32.9117 16.4322 33.4599 15.8839 33.4599 15.2082C33.4599 14.5324 32.9117 13.9842 32.2359 13.9842ZM9.28591 18.8292C8.95759 18.8674 8.68347 19.1001 8.59422 19.4189C8.50497 19.7376 8.61653 20.0787 8.87791 20.2827C8.87791 20.2827 10.2071 21.3282 12.2439 21.3282C14.2807 21.3282 15.6099 20.2827 15.6099 20.2827C15.9637 20.0022 16.0179 19.4858 15.7374 19.1352C15.4569 18.7814 14.9405 18.7272 14.5899 19.0077C14.5899 19.0077 13.7548 19.6962 12.2439 19.6962C10.733 19.6962 9.89791 19.0077 9.89791 19.0077C9.72578 18.8674 9.50584 18.8037 9.28591 18.8292ZM25.6059 18.8292C25.2776 18.8674 25.0035 19.1001 24.9142 19.4189C24.825 19.7376 24.9365 20.0787 25.1979 20.2827C25.1979 20.2827 26.5271 21.3282 28.5639 21.3282C30.6007 21.3282 31.9299 20.2827 31.9299 20.2827C32.2837 20.0022 32.3379 19.4858 32.0574 19.1352C31.7769 18.7814 31.2605 18.7272 30.9099 19.0077C30.9099 19.0077 30.0748 19.6962 28.5639 19.6962C27.053 19.6962 26.2179 19.0077 26.2179 19.0077C26.0458 18.8674 25.8258 18.8037 25.6059 18.8292Z" fill="black"/>
</svg>
