<svg width="37" height="35" viewBox="0 0 37 35" fill="none" xmlns="http://www.w3.org/2000/svg">
<path d="M6.51509 0.503784C4.86893 0.503784 3.48647 1.82088 2.36309 3.22928C1.80141 3.93349 1.31913 4.68652 0.966594 5.39978C0.614054 6.11305 0.371094 6.75988 0.371094 7.41578C0.371094 8.58749 1.08533 9.5511 1.96409 10.2043C2.61851 10.6907 3.38445 11.0348 4.16909 11.1793C3.25928 12.3857 2.67509 13.854 2.67509 15.4798C2.67509 19.4999 5.95096 22.7758 9.97109 22.7758H14.4786C14.4019 22.9589 14.3252 23.1423 14.2491 23.3653C13.8421 24.5571 13.4457 26.3703 13.4271 28.9138C13.4261 29.0518 13.4624 29.1876 13.5321 29.3068C13.5321 29.3068 14.3165 30.6239 16.1151 31.8568C17.9137 33.0897 20.771 34.2958 24.9471 34.2958C29.1232 34.2958 31.9805 33.0897 33.7791 31.8568C35.5777 30.6239 36.3621 29.3068 36.3621 29.3068C36.4318 29.1876 36.4681 29.0518 36.4671 28.9138C36.4485 26.3703 36.0521 24.5571 35.6451 23.3653C35.3571 22.5217 35.1885 22.3333 35.0286 22.0768C35.1168 21.9523 35.1416 21.9602 35.2341 21.7753C35.4719 21.2997 35.6991 20.5998 35.6991 19.7038C35.6991 16.7232 33.9951 14.6158 33.9951 14.6158C33.9228 14.5255 33.831 14.4526 33.7266 14.4028C33.6221 14.3529 33.5078 14.3273 33.3921 14.3278C33.2187 14.3283 33.0506 14.3875 32.9151 14.4958L29.3901 17.3158C28.8501 17.1134 27.4282 16.6318 24.9471 16.6318C24.0097 16.6318 23.2043 16.7121 22.5141 16.8193C22.5955 16.3842 22.6431 15.938 22.6431 15.4798C22.6431 13.854 22.0589 12.3857 21.1491 11.1793C21.9337 11.0348 22.6997 10.6907 23.3541 10.2043C24.2329 9.5511 24.9471 8.58749 24.9471 7.41578C24.9471 6.75988 24.7041 6.11305 24.3516 5.39978C23.9991 4.68652 23.5168 3.93349 22.9551 3.22928C21.8317 1.82088 20.4493 0.503784 18.8031 0.503784C17.9266 0.503784 17.1335 0.877591 16.5726 1.47128C15.4014 0.855797 14.071 0.503784 12.6591 0.503784C11.2472 0.503784 9.91682 0.855797 8.74559 1.47128C8.18471 0.877591 7.39162 0.503784 6.51509 0.503784ZM6.51509 2.03978C6.85656 2.03978 7.16107 2.15808 7.41359 2.34278C5.46608 3.89203 4.21109 6.27678 4.21109 8.95178C4.21109 9.1752 4.22919 9.39324 4.25309 9.60878C3.77816 9.4868 3.28285 9.27028 2.88059 8.97128C2.26349 8.51259 1.90709 7.94059 1.90709 7.41578C1.90709 7.22344 2.04813 6.67857 2.34359 6.08078C2.63905 5.483 3.06878 4.80602 3.56309 4.18628C4.55172 2.94682 5.85726 2.03978 6.51509 2.03978ZM12.6591 2.03978C16.4857 2.03978 19.5711 5.12515 19.5711 8.95178C19.5711 9.57753 19.48 10.184 19.3206 10.7713C19.2859 10.899 19.2848 11.0335 19.3174 11.1617C19.35 11.29 19.4152 11.4076 19.5066 11.5033C20.4973 12.5395 21.1071 13.9322 21.1071 15.4798C21.1071 18.6696 18.5369 21.2398 15.3471 21.2398H13.4271V18.0298C14.0514 17.8041 14.5323 17.3335 14.8896 16.8853C15.1356 16.5767 15.3281 16.2621 15.4701 15.9748C15.6121 15.6875 15.7311 15.5132 15.7311 15.0958C15.7311 14.6784 15.4805 14.3703 15.2571 14.1943C15.0337 14.0182 14.7951 13.9118 14.5311 13.8238C14.003 13.6477 13.3646 13.5598 12.6591 13.5598C11.9536 13.5598 11.3152 13.6477 10.7871 13.8238C10.523 13.9118 10.2845 14.0182 10.0611 14.1943C9.83771 14.3703 9.58709 14.6784 9.58709 15.0958C9.58709 15.5132 9.70608 15.6875 9.84809 15.9748C9.9901 16.2621 10.1826 16.5767 10.4286 16.8853C10.7859 17.3335 11.2667 17.8041 11.8911 18.0298V21.2398H9.97109C6.78124 21.2398 4.21109 18.6696 4.21109 15.4798C4.21109 13.9322 4.82086 12.5395 5.81159 11.5033C5.90303 11.4076 5.96819 11.29 6.00078 11.1617C6.03337 11.0335 6.03227 10.899 5.99759 10.7713C5.83819 10.184 5.74709 9.57753 5.74709 8.95178C5.74709 5.12515 8.83246 2.03978 12.6591 2.03978ZM18.8031 2.03978C19.4609 2.03978 20.7665 2.94682 21.7551 4.18628C22.2494 4.80602 22.6791 5.483 22.9746 6.08078C23.2701 6.67857 23.4111 7.22344 23.4111 7.41578C23.4111 7.94059 23.0547 8.51259 22.4376 8.97128C22.0353 9.27028 21.54 9.4868 21.0651 9.60878C21.089 9.39324 21.1071 9.1752 21.1071 8.95178C21.1071 6.27678 19.8521 3.89203 17.9046 2.34278C18.1571 2.15808 18.4616 2.03978 18.8031 2.03978ZM9.97109 9.71978C9.66557 9.71978 9.37255 9.84116 9.15651 10.0572C8.94046 10.2732 8.81909 10.5663 8.81909 10.8718C8.81909 11.1773 8.94046 11.4703 9.15651 11.6864C9.37255 11.9024 9.66557 12.0238 9.97109 12.0238C10.2766 12.0238 10.5696 11.9024 10.7857 11.6864C11.0017 11.4703 11.1231 11.1773 11.1231 10.8718C11.1231 10.5663 11.0017 10.2732 10.7857 10.0572C10.5696 9.84116 10.2766 9.71978 9.97109 9.71978ZM15.3471 9.71978C15.0416 9.71978 14.7486 9.84116 14.5325 10.0572C14.3165 10.2732 14.1951 10.5663 14.1951 10.8718C14.1951 11.1773 14.3165 11.4703 14.5325 11.6864C14.7486 11.9024 15.0416 12.0238 15.3471 12.0238C15.6526 12.0238 15.9456 11.9024 16.1617 11.6864C16.3777 11.4703 16.4991 11.1773 16.4991 10.8718C16.4991 10.5663 16.3777 10.2732 16.1617 10.0572C15.9456 9.84116 15.6526 9.71978 15.3471 9.71978ZM12.6591 15.0958C13.2262 15.0958 13.7393 15.1798 14.0451 15.2818C14.0705 15.2903 14.0663 15.2926 14.0886 15.3013C13.9973 15.4847 13.857 15.7164 13.6881 15.9283C13.3463 16.3571 12.9172 16.6318 12.6591 16.6318C12.401 16.6318 11.9719 16.3571 11.6301 15.9283C11.4612 15.7164 11.3209 15.4847 11.2296 15.3013C11.2519 15.2926 11.2477 15.2903 11.2731 15.2818C11.5789 15.1798 12.092 15.0958 12.6591 15.0958ZM33.1881 16.2448C33.5872 16.8912 34.1631 17.996 34.1631 19.7038C34.1631 20.3438 34.0063 20.7959 33.8601 21.0883C33.7139 21.3807 33.6201 21.4648 33.6201 21.4648C33.489 21.596 33.4099 21.7701 33.3972 21.9551C33.3845 22.1401 33.4392 22.3234 33.5511 22.4713C33.5511 22.4713 33.8381 22.8308 34.1901 23.8618C34.5288 24.8536 34.871 26.4505 34.9131 28.6948C34.7803 28.9036 34.2714 29.658 32.9106 30.5908C31.3481 31.6619 28.8304 32.7598 24.9471 32.7598C21.0638 32.7598 18.5461 31.6619 16.9836 30.5908C15.6228 29.658 15.1139 28.9036 14.9811 28.6948C15.0232 26.4505 15.3654 24.8536 15.7041 23.8618C15.9125 23.2513 16.0733 22.9277 16.1901 22.7233C18.7776 22.423 20.9545 20.762 21.9906 18.4768C22.7179 18.3164 23.7076 18.1678 24.9471 18.1678C27.7026 18.1678 29.2416 18.8683 29.2416 18.8683C29.3703 18.926 29.5125 18.9472 29.6525 18.9295C29.7924 18.9117 29.9248 18.8558 30.0351 18.7678L33.1881 16.2448ZM22.2591 23.5438C21.9536 23.5438 21.6606 23.6652 21.4445 23.8812C21.2285 24.0972 21.1071 24.3903 21.1071 24.6958C21.1071 25.0013 21.2285 25.2943 21.4445 25.5104C21.6606 25.7264 21.9536 25.8478 22.2591 25.8478C22.5646 25.8478 22.8576 25.7264 23.0737 25.5104C23.2897 25.2943 23.4111 25.0013 23.4111 24.6958C23.4111 24.3903 23.2897 24.0972 23.0737 23.8812C22.8576 23.6652 22.5646 23.5438 22.2591 23.5438ZM27.6351 23.5438C27.3296 23.5438 27.0366 23.6652 26.8205 23.8812C26.6045 24.0972 26.4831 24.3903 26.4831 24.6958C26.4831 25.0013 26.6045 25.2943 26.8205 25.5104C27.0366 25.7264 27.3296 25.8478 27.6351 25.8478C27.9406 25.8478 28.2336 25.7264 28.4497 25.5104C28.6657 25.2943 28.7871 25.0013 28.7871 24.6958C28.7871 24.3903 28.6657 24.0972 28.4497 23.8812C28.2336 23.6652 27.9406 23.5438 27.6351 23.5438ZM24.9471 26.6158C23.6745 26.6158 22.6431 26.9598 22.6431 27.3838C22.6431 27.6492 23.2449 28.4861 23.8836 29.0743C23.6074 29.3714 23.1936 29.6878 22.6431 29.6878V31.2238C23.7237 31.2238 24.458 30.7045 24.9471 30.1888C25.4362 30.7045 26.1704 31.2238 27.2511 31.2238V29.6878C26.7006 29.6878 26.2868 29.3714 26.0106 29.0743C26.6493 28.4861 27.2511 27.6492 27.2511 27.3838C27.2511 26.9598 26.2197 26.6158 24.9471 26.6158Z" fill="black"/>
</svg>
