<svg width="43" height="43" viewBox="0 0 43 43" fill="none" xmlns="http://www.w3.org/2000/svg">
<path d="M21.8041 0.624146C21.7569 0.625246 21.7099 0.63001 21.6634 0.638396C10.1569 0.716267 0.828125 10.0746 0.828125 21.6001C0.828125 33.1739 10.2313 42.5761 21.8041 42.5761C33.377 42.5761 42.7801 33.1739 42.7801 21.6001C42.7801 10.0758 33.4532 0.718207 21.9484 0.638396C21.9008 0.629825 21.8525 0.62506 21.8041 0.624146ZM21.8041 2.44815C23.0293 2.44815 24.2253 2.56733 25.3862 2.78658L21.8041 5.02205L18.222 2.78658C19.3829 2.56733 20.579 2.44815 21.8041 2.44815ZM15.7853 3.41715L20.9153 6.61627V11.9992L13.0083 17.7437L7.82131 16.0711L6.38028 10.2732C8.70846 7.10666 11.9736 4.67611 15.7853 3.41715ZM27.823 3.41715C31.6355 4.67637 34.9015 7.10746 37.2297 10.275L35.778 16.1192L30.6017 17.7437L22.7393 12.0331V6.58777L27.823 3.41715ZM5.02119 12.3697L6.0365 16.4559L2.81066 19.1652C3.11954 16.7264 3.88579 14.4321 5.02119 12.3697ZM38.5888 12.3715C39.733 14.4503 40.501 16.7653 40.8047 19.2257L37.5628 16.5004L38.5888 12.3715ZM21.8041 13.6077L29.362 19.0993L26.4763 27.9841H17.1319L14.2463 19.0993L21.8041 13.6077ZM7.26022 17.8079L12.4526 19.4787L15.4593 28.7394L12.2459 33.1658L6.24312 32.7436C4.00584 29.6233 2.6705 25.8123 2.65391 21.6785L7.26022 17.8079ZM36.3373 17.8542L40.9526 21.732C40.9247 25.8561 39.5857 29.6572 37.3473 32.7686L31.332 33.1943L28.1507 28.7323L31.1557 19.4822L36.3373 17.8542ZM16.9377 29.8081H26.6794L29.8536 34.2613L27.5843 39.8633C25.7604 40.439 23.8197 40.7521 21.8041 40.7521C19.7786 40.7521 17.8289 40.4355 15.9972 39.8544L13.7226 34.2363L16.9377 29.8081ZM7.83734 34.6834L12.0571 34.9809L13.6478 38.9121C11.4478 37.8748 9.48051 36.437 7.83734 34.6834ZM35.7477 34.7101C34.1023 36.4598 32.1328 37.8932 29.932 38.9264L31.5191 35.0094L35.7477 34.7101Z" fill="black"/>
</svg>
