<svg width="30" height="49" viewBox="0 0 30 49" fill="none" xmlns="http://www.w3.org/2000/svg">
<path d="M6.55687 0.599854C3.38732 0.599854 0.796875 3.19029 0.796875 6.35985V42.8399C0.796875 46.0094 3.38732 48.5999 6.55687 48.5999H23.8369C27.0064 48.5999 29.5969 46.0094 29.5969 42.8399V6.35985C29.5969 3.19029 27.0064 0.599854 23.8369 0.599854H6.55687ZM6.55687 2.51985H23.8369C25.9684 2.51985 27.6769 4.22829 27.6769 6.35985V42.8399C27.6769 44.9714 25.9684 46.6799 23.8369 46.6799H6.55687C4.42531 46.6799 2.71687 44.9714 2.71687 42.8399V6.35985C2.71687 4.22829 4.42531 2.51985 6.55687 2.51985ZM7.99687 5.39985C6.67111 5.39985 5.59687 6.36657 5.59687 7.55985V11.8799C5.59687 13.0731 6.67111 14.0399 7.99687 14.0399C9.32263 14.0399 10.3969 13.0731 10.3969 11.8799V7.55985C10.3969 6.36657 9.32263 5.39985 7.99687 5.39985Z" fill="black"/>
</svg>
