<svg width="399" height="97" viewBox="0 0 399 97" fill="none" xmlns="http://www.w3.org/2000/svg">
<path d="M91.5195 48.1289C91.5195 34.8281 86.8906 23.5195 77.6328 14.1445C68.375 4.76953 57.0664 0.0820312 43.707 0.0820312H0.464844V1.25391H14.7617V94.7109H0.464844V95.9414H43.707C56.8906 95.9414 68.1406 91.3125 77.5156 81.9961C86.8906 72.6797 91.5781 61.4297 91.5781 48.2461L91.5195 48.1289ZM42.2422 94.7695H28.1211V1.3125H41.6562C47.5742 1.3125 52.6719 2.25 57.0078 4.06641C61.3438 5.88281 64.6836 8.22656 67.0859 11.0391C69.4883 13.8516 71.3633 17.4258 72.7109 21.7617C74.0586 26.0977 74.9375 30.2578 75.2891 34.2422C75.6406 38.2266 75.7578 42.8555 75.6992 48.1289C75.7578 55.3359 75.2891 61.6055 74.293 66.9961C73.2969 72.3867 71.5977 77.25 69.1953 81.5859C66.793 85.9219 63.3359 89.2617 58.7656 91.5469C54.1953 93.832 48.6289 94.9453 42.0664 94.9453L42.2422 94.7695ZM146.012 95.8828C152.34 95.8828 158.199 94.4766 163.59 91.6641C168.98 88.8516 173.434 85.2188 177.008 80.707C180.582 76.1953 183.395 71.0977 185.445 65.4141C187.496 59.7305 188.492 53.9297 188.492 48.0117C188.492 39.75 186.734 32.0156 183.219 24.75C179.703 17.4844 174.664 11.5664 168.043 6.99609C161.422 2.42578 154.098 0.140625 146.012 0.140625C139.801 0.140625 134 1.54688 128.609 4.35938C123.219 7.17188 118.707 10.8047 115.133 15.3164C111.559 19.8281 108.746 24.9258 106.754 30.668C104.762 36.4102 103.766 42.2695 103.766 48.1875C103.766 56.4492 105.523 64.1836 109.039 71.4492C112.555 78.7148 117.594 84.6328 124.156 89.2617C130.719 93.8906 138.043 96.1758 146.129 96.1758L146.012 95.8828ZM118.297 51.1758V46.7227C118.297 41.0391 118.473 36.1172 118.883 31.8984C119.293 27.6797 120.055 23.5195 121.227 19.3594C122.398 15.1992 124.156 11.7422 126.5 9.04688C128.844 6.35156 131.773 4.41797 135.289 3.1875C139.039 2.07422 142.672 1.48828 146.188 1.48828C150.113 1.48828 153.922 2.07422 157.613 3.30469C161.07 4.59375 163.941 6.58594 166.285 9.28125C168.629 11.9766 170.328 15.375 171.383 19.4766C172.438 23.5781 173.141 27.7383 173.551 31.8984C173.961 36.0586 174.137 40.9805 174.137 46.6641V51.1172C174.137 55.5117 174.078 59.0273 173.961 61.6641C173.844 64.3008 173.551 67.5234 173.023 71.2734C172.496 75.0234 171.734 78.0703 170.68 80.4141C169.625 82.7578 168.102 85.1016 166.109 87.3867C164.117 89.6719 161.656 91.4297 158.785 92.6602C154.625 94.125 150.406 94.8867 146.129 94.8867C142.203 94.9453 138.102 94.1836 133.766 92.6602C130.895 91.4297 128.434 89.7305 126.441 87.5039C124.449 85.2773 122.926 82.9922 121.871 80.6484C120.816 78.3047 119.996 75.2578 119.41 71.5078C118.824 67.7578 118.473 64.5352 118.355 61.8398C118.238 59.1445 118.18 55.6289 118.18 51.293L118.297 51.1758ZM271.461 73.793L218.902 0.0234375H190.836V1.3125H205.602V94.6523H190.836V96H221.656V94.6523H206.891V6.11719L271.461 96H272.809L272.926 1.3125H287.691V0.140625H256.812V1.3125H271.578L271.461 73.793ZM374.645 74.0273H373.297V74.1445V74.0273C373.297 75.4922 373.238 76.7812 373.121 77.8359C373.004 78.8906 372.418 80.5898 371.422 82.875C370.426 85.1602 369.02 87.0938 367.203 88.6172C365.387 90.1406 362.516 91.5469 358.648 92.7773C354.781 94.0078 350.152 94.6523 344.82 94.6523H321.617V48.5977H331.461C338.551 48.5977 343.59 49.8281 346.637 52.2305C349.684 54.6328 351.207 58.793 351.207 64.7109V65.0039H352.555V31.0195H351.207C351.207 36.8203 349.742 40.9805 346.812 43.4414C343.883 45.9023 339.02 47.1914 332.281 47.25H321.559V1.3125H339.957C344.527 1.3125 348.512 1.72266 351.969 2.48438C355.426 3.24609 358.121 4.35938 360.055 5.76562C361.988 7.17188 363.629 8.57812 364.918 9.92578C366.207 11.2734 367.086 12.8555 367.496 14.7305C367.906 16.6055 368.199 17.9531 368.316 18.832C368.434 19.7109 368.492 20.7656 368.492 21.9961H369.84V0.199219H293.961V1.48828H308.141V94.8281H293.961V96.1758H374.645V74.0273ZM393.16 71.1562L398.316 5.76562C398.316 4.18359 397.73 2.83594 396.617 1.72266C395.504 0.609375 394.156 0.0820312 392.574 0.0820312C390.992 0.0820312 389.586 0.667969 388.414 1.78125C387.242 2.89453 386.656 4.24219 386.656 5.82422L391.578 71.2148L393.16 71.1562ZM392.926 83.5781C391.168 83.5781 389.703 84.2227 388.473 85.4531C387.242 86.6836 386.656 88.1484 386.656 89.8477C386.656 91.6055 387.242 93.0703 388.473 94.2422C389.703 95.4141 391.168 96 392.926 96C394.625 96 396.031 95.4141 397.203 94.2422C398.375 93.0703 398.961 91.6055 398.961 89.8477C398.961 88.1484 398.375 86.6836 397.203 85.4531C396.031 84.2227 394.566 83.6367 392.867 83.6367L392.926 83.5781Z" fill="black"/>
</svg>
