<svg width="613" height="53" viewBox="0 0 613 53" fill="none" xmlns="http://www.w3.org/2000/svg">
<path d="M41.2021 2.095C37.6821 1.93 34.1621 2.205 30.6421 2.59C28.2771 2.865 25.8571 3.25 23.4921 3.635C23.8221 3.085 24.0971 2.535 24.4271 1.985C24.7021 1.545 23.1071 0.609999 22.8321 1.05C22.2821 2.04 21.7871 3.03 21.2371 4.02C20.9071 4.075 20.5771 4.13 20.2471 4.185C16.7821 4.845 13.3721 5.56 9.96205 6.385C8.25705 6.825 6.55205 7.32 4.84705 7.87C4.02205 8.09 3.14205 8.42 2.31705 8.75C1.87705 8.915 1.49205 9.135 1.05205 9.41C0.832053 9.575 0.557053 9.63 0.282053 10.18C0.117053 10.62 0.392053 11.17 0.612053 11.28C0.832053 11.445 1.16205 11.555 1.16205 11.555C1.54705 11.665 2.53705 10.18 2.86705 10.015C3.63705 9.685 4.46205 9.41 5.28705 9.135C6.88205 8.585 8.58705 8.09 10.2371 7.65C13.6471 6.715 17.0571 5.945 20.4671 5.285C20.5221 5.23 20.5221 5.23 20.5771 5.23C17.4421 11.115 14.6921 17.22 12.2171 23.38C9.19205 31.08 6.55205 38.89 4.62705 46.92C4.57205 47.195 5.67205 47.47 5.72705 47.195C7.76205 39.275 10.4571 31.52 13.5921 23.93C16.3421 17.385 19.3671 11.005 22.8321 4.79C25.4721 4.35 28.1121 3.855 30.8071 3.525C34.2171 3.085 37.3521 2.755 40.8171 2.865C41.0371 2.865 41.4221 2.095 41.2021 2.095ZM35.4307 28C33.3957 29.87 28.9957 33.225 28.8307 30.365C28.7757 28.77 29.5457 26.735 29.2707 25.635C29.2157 25.415 28.8307 24.975 28.5007 24.755C27.8957 24.48 26.9607 25.14 26.6857 25.36C24.2107 27.01 20.1957 33.775 20.1957 33.775C20.6357 32.4 21.0207 31.08 21.4607 29.76C21.9007 28.44 22.3407 27.12 22.8357 25.8C24.9807 22.445 27.1807 19.145 29.3807 15.79C30.5907 13.92 32.0207 12.16 32.7357 9.905C32.7907 9.63 32.8457 9.3 32.9007 9.025C32.9007 8.695 32.9557 8.365 32.6807 7.925C32.5707 7.705 32.1857 7.54 31.9657 7.54C31.7457 7.595 31.5257 7.65 31.4157 7.705C31.0857 7.87 30.8657 8.09 30.6457 8.31C29.7657 9.08 29.1057 10.015 28.4457 10.95C25.9157 14.69 24.1557 18.815 22.5607 22.995C21.7357 25.085 20.9657 27.175 20.3607 29.32C19.7007 31.465 19.0957 34.05 18.6557 35.92V35.975C18.6557 36.14 18.7107 36.25 18.8757 36.305C19.0407 36.36 19.4807 36.195 19.4807 36.195C20.8007 34.05 22.0107 32.18 23.4957 30.255C25.0357 28.22 26.7957 26.405 27.2907 26.075C27.4557 25.91 27.6757 25.8 27.8957 25.745C27.8957 26.13 27.5657 28.66 27.4557 29.265C26.8507 34.875 31.0857 32.455 35.6507 28.22C35.7607 27.89 35.4307 28 35.4307 28ZM29.2707 11.5C29.8207 10.565 30.4807 9.685 31.2507 8.97C31.4157 8.75 31.6357 8.585 31.8007 8.53C31.9107 8.475 31.9657 8.42 32.0207 8.42C32.1307 8.585 32.0757 9.245 31.9657 9.685C31.4157 11.775 30.0407 13.59 28.8307 15.46C27.1257 18.045 25.4207 20.685 23.6607 23.325C25.2557 19.255 26.9057 15.185 29.2707 11.5ZM47.6392 27.89C41.5892 31.575 39.4992 31.74 41.8642 26.295C41.8642 26.13 41.4242 25.8 41.3142 25.69C41.1492 25.58 40.8742 25.58 40.7642 25.8C40.6542 25.91 40.5442 26.02 40.4342 26.13C39.1142 25.36 37.3542 26.075 36.1992 26.955C35.5942 27.395 35.0442 27.945 34.5492 28.55C34.3292 28.88 34.1092 29.155 33.8892 29.54C33.2842 31.025 34.0542 31.52 35.1542 31.135C35.9792 30.86 37.5192 29.65 38.0692 29.21C38.7842 28.55 39.4992 27.945 40.2142 27.285C38.3442 31.685 40.2692 32.84 47.8042 28.165C47.8592 28.11 47.7492 27.835 47.6392 27.89ZM37.6842 28.715C37.1342 29.155 36.5842 29.54 35.9792 29.925C35.7042 30.09 35.3742 30.255 35.0992 30.31C35.0442 30.31 35.0442 30.31 35.0442 30.31C35.0442 30.255 35.0992 30.145 35.1542 30.09C35.2642 29.815 35.4292 29.54 35.5942 29.265C35.9792 28.77 36.4192 28.22 36.9142 27.78C37.7942 26.955 38.9492 26.24 40.1592 26.405C39.3892 27.23 38.5642 28 37.6842 28.715ZM59.9199 27.89C53.5949 33.06 53.9799 31.19 52.8799 28.275C52.4399 26.955 51.0099 25.36 47.4349 29.1C47.6549 28.22 48.7549 26.46 49.0849 26.075C49.3599 25.855 48.6999 25.36 47.8199 25.91C47.3249 26.24 46.0599 29.375 46.0599 30.805C46.0049 31.355 46.7199 31.3 46.7199 31.3C50.1849 26.24 51.1199 27.12 51.8899 29.595C52.9899 33.28 54.9149 32.29 60.0849 28.165C60.1949 28.11 59.9749 27.835 59.9199 27.89ZM72.4051 27.89C65.53 33.885 63.935 32.29 62.67 29.54C68.115 26.845 67.455 24.865 65.42 25.36C63.44 25.855 61.515 27.23 60.195 29.21C60.745 27.505 60.965 27.12 61.46 25.635C64.595 21.565 68.995 15.735 70.7 11.335C71.855 8.31 71.085 7.265 69.105 8.695C63.77 13.645 59.095 28.55 58.38 30.915C57.995 32.125 57.115 35.48 57.115 35.48C57.115 35.48 57.06 36.03 57.115 36.085C57.115 36.195 57.775 36.25 57.83 36.085C59.37 30.86 61.68 27.835 64.21 26.46C64.65 26.24 65.2 25.965 65.585 25.965C66.7401 25.8 63.88 28.275 61.57 29.045C60.91 29.43 61.625 30.75 62.01 31.355C63.66 33.94 66.685 33.61 72.625 28.11C72.735 28 72.5151 27.835 72.4051 27.89ZM68.94 10.18C70.535 8.09 71.1401 8.53 70.15 11.005C68.885 13.975 67.29 16.89 61.955 23.71C63.935 18.43 66.025 14.03 68.94 10.18ZM93.1181 27.835C93.1181 27.725 88.9931 30.53 86.6281 32.29C86.9581 31.19 87.7281 27.835 87.7281 27.835C88.1131 26.02 88.1681 25.58 86.9581 25.58C84.8681 28.22 80.8531 31.3 80.6881 30.035C80.9081 28.825 81.6231 27.725 82.0081 26.625H82.0631C82.1731 26.35 81.0731 25.8 80.9631 26.13C80.1931 27.615 78.9281 30.365 80.3031 31.08C81.9531 31.85 86.9031 26.845 86.9031 26.845C86.8481 27.065 85.0881 33.115 84.9781 33.5C78.9831 37.9 72.9881 44.775 72.2731 49.285C71.7231 52.695 75.1331 52.365 76.7281 51.265C77.8831 50.495 78.8731 49.505 79.6981 48.405C81.2931 46.15 82.4481 43.675 83.4931 41.255C84.4831 38.835 85.6381 35.755 86.3531 33.28C88.6081 31.245 93.2281 28.11 93.2281 28.11C93.2281 28.11 93.1731 27.89 93.1181 27.835ZM82.3381 40.76C81.3481 43.18 80.1381 45.545 78.7081 47.69C77.9931 48.735 77.5531 49.45 76.5631 50.165C74.1981 52.035 72.2731 51.265 73.7031 47.69C74.8581 44.665 78.9281 39.11 84.6481 34.545C83.9881 36.415 83.0531 38.89 82.3381 40.76ZM100.992 27.945C99.6723 28.935 98.4073 29.43 96.8123 29.155C96.8123 29.155 97.5823 27.89 96.8123 27.12C97.4173 24.865 92.9073 25.525 91.8623 28C90.4323 31.355 94.2273 32.235 96.5923 29.54C98.4623 29.815 99.5073 29.32 101.212 28.11C101.267 28.055 101.157 27.835 100.992 27.945ZM92.7423 29.155C92.9073 28 94.1723 26.79 95.1623 26.405C95.6023 26.24 96.7573 26.13 96.4273 27.12C95.3823 27.285 95.1073 28.55 96.0423 29.265C95.1623 30.585 92.5223 31.52 92.7423 29.155ZM96.2623 28.88C95.6573 28.55 95.9323 27.285 96.6473 27.505C96.8673 27.56 96.6473 28.385 96.2623 28.88ZM111.212 27.835C106.482 31.41 104.942 31.08 105.602 29.155C105.822 28.33 106.372 27.01 106.647 26.13C106.702 25.965 106.207 25.415 105.822 25.635C104.392 28.165 103.182 29.265 101.312 30.31C99.9918 31.08 101.312 28.11 102.357 26.735C102.357 26.735 101.752 25.8 101.367 26.075C100.817 26.515 99.5518 29.155 99.4968 29.87C99.2768 32.51 102.797 30.475 104.502 28.66C103.182 32.29 106.812 31.96 111.432 28.055C111.487 28 111.322 27.78 111.212 27.835ZM127.701 27.835C125.611 28.22 123.466 28.66 121.321 29.21C120.771 29.375 120.221 29.54 119.616 29.705C119.946 28.99 120.221 28.275 120.551 27.56C122.146 25.635 123.741 23.71 125.171 21.675C125.611 21.125 125.996 20.575 126.381 19.97C126.711 19.365 127.096 18.815 127.206 17.88C127.206 17.66 127.096 17.33 126.821 17.165C126.546 17 126.216 17 125.996 17.055C125.556 17.22 125.226 17.495 125.006 17.715C124.456 18.265 124.016 18.815 123.631 19.365C121.321 22.775 119.561 26.46 118.021 30.2C117.581 30.365 117.086 30.53 116.646 30.805C116.371 30.915 116.151 31.08 115.876 31.41C115.766 31.52 115.711 31.96 115.876 32.125C116.041 32.345 116.206 32.4 116.316 32.51V32.455C116.536 32.62 116.756 32.84 116.921 33.06C116.756 33.445 116.591 33.83 116.481 34.27C115.546 36.855 114.666 39.44 114.006 42.135C113.731 43.51 113.401 44.885 113.291 46.26C113.236 47.03 113.071 47.635 113.456 48.625C113.511 48.79 113.621 48.955 113.841 49.12C114.116 49.285 114.391 49.23 114.611 49.175C114.941 49.065 115.106 48.9 115.271 48.735C115.546 48.405 115.711 48.13 115.931 47.8C117.306 45.27 118.186 42.63 118.626 39.88C118.901 38.505 118.956 37.075 118.736 35.645C118.626 34.985 118.461 34.215 118.131 33.61C118.516 32.51 118.901 31.465 119.341 30.42C120.056 30.145 120.771 29.925 121.486 29.705C123.576 29.155 125.666 28.605 127.811 28.11C127.866 28.11 127.811 27.835 127.701 27.835ZM124.401 19.86C124.731 19.31 125.116 18.76 125.556 18.32C125.776 18.1 126.051 17.88 126.216 17.825C126.436 17.825 126.436 17.77 126.436 17.935C126.436 18.43 126.106 19.09 125.776 19.64C125.446 20.19 125.061 20.795 124.676 21.345C123.741 22.61 122.751 23.875 121.651 25.085C122.531 23.325 123.411 21.565 124.401 19.86ZM116.701 31.905H116.646C116.536 31.85 116.426 31.795 116.426 31.74C116.426 31.74 116.426 31.795 116.426 31.74C116.536 31.63 116.756 31.465 116.976 31.355C117.196 31.19 117.471 31.08 117.691 30.97C117.526 31.465 117.361 31.905 117.196 32.345C117.031 32.18 116.866 32.015 116.701 31.905ZM117.746 39.715C117.251 42.3 116.371 44.995 114.941 47.195C114.831 47.36 114.666 47.58 114.556 47.745C114.501 47.36 114.556 46.865 114.611 46.425C114.776 45.105 115.051 43.785 115.381 42.465C115.986 39.825 116.811 37.24 117.691 34.71V34.655C117.801 35.04 117.911 35.37 117.911 35.755C118.076 37.075 117.966 38.395 117.746 39.715ZM135.937 27.945C134.617 28.935 133.352 29.43 131.757 29.155C131.757 29.155 132.527 27.89 131.757 27.12C132.362 24.865 127.852 25.525 126.807 28C125.377 31.355 129.172 32.235 131.537 29.54C133.407 29.815 134.452 29.32 136.157 28.11C136.212 28.055 136.102 27.835 135.937 27.945ZM127.687 29.155C127.852 28 129.117 26.79 130.107 26.405C130.547 26.24 131.702 26.13 131.372 27.12C130.327 27.285 130.052 28.55 130.987 29.265C130.107 30.585 127.467 31.52 127.687 29.155ZM131.207 28.88C130.602 28.55 130.877 27.285 131.592 27.505C131.812 27.56 131.592 28.385 131.207 28.88ZM146.17 27.89C141.77 30.75 138.03 31.795 139.405 29.485C140.285 28.055 140.01 27.45 137.37 26.9C137.48 26.735 138.855 25.25 138.415 24.315C138.305 24.04 137.975 23.93 137.59 24.04C136.82 24.26 136.05 25.195 135.775 25.69C135.72 25.855 135.5 26.35 135.555 26.735C135.665 27.23 136.16 27.34 136.435 27.395C136.49 27.505 136.6 27.56 136.71 27.56C136.875 27.505 136.875 27.45 136.985 27.395C138.965 27.725 138.8 28.275 138.525 28.825C138.085 29.65 137.81 30.255 137.865 30.695C138.14 33.17 144.465 29.32 146.28 28.11H146.335C146.39 28.055 146.225 27.835 146.17 27.89ZM136.6 26.79C135.885 26.79 137.59 24.535 137.92 24.755C138.305 24.92 137.26 26.405 136.6 26.79ZM163.192 27.835C161.322 29.21 159.122 30.2 157.252 30.805C153.897 31.85 154.062 27.78 156.977 25.69C157.307 25.525 157.692 25.415 158.022 25.58C158.297 25.69 158.462 26.13 158.407 26.515C158.407 26.625 158.407 26.735 158.407 26.845C158.407 26.845 158.462 27.12 158.682 27.065C158.682 27.065 159.067 25.8 159.232 25.47V25.415C159.287 25.415 159.287 25.415 159.287 25.36C159.342 25.195 158.957 25.195 158.902 25.305L158.682 25.745C158.572 25.525 158.462 25.36 158.242 25.195C157.747 24.865 155.327 24.865 153.677 28.165C152.522 30.475 154.227 32.235 157.362 31.245C159.507 30.53 161.597 29.375 163.412 28.055C163.467 28 163.302 27.725 163.192 27.835ZM171.366 27.945C170.046 28.935 168.781 29.43 167.186 29.155C167.186 29.155 167.956 27.89 167.186 27.12C167.791 24.865 163.281 25.525 162.236 28C160.806 31.355 164.601 32.235 166.966 29.54C168.836 29.815 169.881 29.32 171.586 28.11C171.641 28.055 171.531 27.835 171.366 27.945ZM163.116 29.155C163.281 28 164.546 26.79 165.536 26.405C165.976 26.24 167.131 26.13 166.801 27.12C165.756 27.285 165.481 28.55 166.416 29.265C165.536 30.585 162.896 31.52 163.116 29.155ZM166.636 28.88C166.031 28.55 166.306 27.285 167.021 27.505C167.241 27.56 167.021 28.385 166.636 28.88ZM184.005 27.89C177.68 33.06 178.065 31.19 176.965 28.275C176.525 26.955 175.095 25.36 171.52 29.1C171.74 28.22 172.84 26.46 173.17 26.075C173.445 25.855 172.785 25.36 171.905 25.91C171.41 26.24 170.145 29.375 170.145 30.805C170.09 31.355 170.805 31.3 170.805 31.3C174.27 26.24 175.205 27.12 175.975 29.595C177.075 33.28 179 32.29 184.17 28.165C184.28 28.11 184.06 27.835 184.005 27.89ZM201.661 14.25C198.416 14.525 195.226 14.965 192.036 15.57H191.981C192.641 14.635 193.246 13.59 193.961 12.655C194.456 11.94 194.951 11.17 195.336 10.345C195.556 9.96 195.721 9.575 195.886 9.135C195.941 8.86 196.051 8.64 196.051 8.365C196.051 8.255 196.051 8.09 195.996 7.87C195.941 7.595 195.446 7.43 195.281 7.54C194.621 7.815 194.401 8.145 194.071 8.475C193.796 8.86 193.521 9.19 193.246 9.575C192.751 10.29 192.256 11.06 191.816 11.775C190.991 13.205 190.221 14.69 189.451 16.12C188.736 16.23 188.021 16.395 187.306 16.56C185.711 16.945 184.171 17.22 182.576 18.1C182.411 18.155 182.796 18.815 182.961 18.705L183.016 18.65C184.281 17.99 185.931 17.605 187.471 17.165C187.966 17.055 188.516 16.945 189.066 16.78C184.556 24.645 178.891 35.7 181.586 39.495C182.026 40.1 182.741 39.935 183.236 39.825C186.866 39 195.446 30.97 197.536 28.165C197.591 28.055 197.316 27.89 197.261 27.945C190.661 35.425 183.071 40.485 182.246 38.78C181.146 36.14 184.226 29.045 186.921 23.655C188.241 21.4 189.616 19.2 191.046 17C191.156 16.725 191.376 16.505 191.541 16.23C191.706 16.175 191.926 16.12 192.146 16.12C195.281 15.515 198.471 15.02 201.661 14.745C201.826 14.69 201.936 14.58 201.936 14.47C201.881 14.36 201.771 14.25 201.661 14.25ZM190.496 16.615C190.111 17.165 189.781 17.77 189.451 18.32C189.671 17.825 189.891 17.33 190.111 16.835C190.166 16.725 190.221 16.615 190.276 16.505C190.386 16.505 190.496 16.45 190.606 16.45C190.551 16.505 190.496 16.56 190.496 16.615ZM191.046 15.79C190.936 15.79 190.771 15.845 190.661 15.845C191.266 14.635 191.871 13.37 192.531 12.215C192.971 11.445 193.411 10.73 193.906 10.015C194.126 9.63 194.401 9.3 194.676 8.97C194.841 8.75 195.116 8.53 195.281 8.365C195.281 8.53 195.226 8.695 195.171 8.86C195.061 9.245 194.896 9.685 194.676 10.015C194.291 10.785 193.851 11.555 193.356 12.27C192.586 13.425 191.816 14.58 191.046 15.79ZM209.441 27.89C203.391 31.575 201.301 31.74 203.666 26.295C203.666 26.13 203.226 25.8 203.116 25.69C202.951 25.58 202.676 25.58 202.566 25.8C202.456 25.91 202.346 26.02 202.236 26.13C200.916 25.36 199.156 26.075 198.001 26.955C197.396 27.395 196.846 27.945 196.351 28.55C196.131 28.88 195.911 29.155 195.691 29.54C195.086 31.025 195.856 31.52 196.956 31.135C197.781 30.86 199.321 29.65 199.871 29.21C200.586 28.55 201.301 27.945 202.016 27.285C200.146 31.685 202.071 32.84 209.606 28.165C209.661 28.11 209.551 27.835 209.441 27.89ZM199.486 28.715C198.936 29.155 198.386 29.54 197.781 29.925C197.506 30.09 197.176 30.255 196.901 30.31C196.846 30.31 196.846 30.31 196.846 30.31C196.846 30.255 196.901 30.145 196.956 30.09C197.066 29.815 197.231 29.54 197.396 29.265C197.781 28.77 198.221 28.22 198.716 27.78C199.596 26.955 200.751 26.24 201.961 26.405C201.191 27.23 200.366 28 199.486 28.715ZM217.817 27.835C215.947 29.21 213.747 30.2 211.877 30.805C208.522 31.85 208.687 27.78 211.602 25.69C211.932 25.525 212.317 25.415 212.647 25.58C212.922 25.69 213.087 26.13 213.032 26.515C213.032 26.625 213.032 26.735 213.032 26.845C213.032 26.845 213.087 27.12 213.307 27.065C213.307 27.065 213.692 25.8 213.857 25.47V25.415C213.912 25.415 213.912 25.415 213.912 25.36C213.967 25.195 213.582 25.195 213.527 25.305L213.307 25.745C213.197 25.525 213.087 25.36 212.867 25.195C212.372 24.865 209.952 24.865 208.302 28.165C207.147 30.475 208.852 32.235 211.987 31.245C214.132 30.53 216.222 29.375 218.037 28.055C218.092 28 217.927 27.725 217.817 27.835ZM235.671 14.25C232.426 14.525 229.236 14.965 226.046 15.57H225.991C226.651 14.635 227.256 13.59 227.971 12.655C228.466 11.94 228.961 11.17 229.346 10.345C229.566 9.96 229.731 9.575 229.896 9.135C229.951 8.86 230.061 8.64 230.061 8.365C230.061 8.255 230.061 8.09 230.006 7.87C229.951 7.595 229.456 7.43 229.291 7.54C228.631 7.815 228.411 8.145 228.081 8.475C227.806 8.86 227.531 9.19 227.256 9.575C226.761 10.29 226.266 11.06 225.826 11.775C225.001 13.205 224.231 14.69 223.461 16.12C222.746 16.23 222.031 16.395 221.316 16.56C219.721 16.945 218.181 17.22 216.586 18.1C216.421 18.155 216.806 18.815 216.971 18.705L217.026 18.65C218.291 17.99 219.941 17.605 221.481 17.165C221.976 17.055 222.526 16.945 223.076 16.78C218.566 24.645 212.901 35.7 215.596 39.495C216.036 40.1 216.751 39.935 217.246 39.825C220.876 39 229.456 30.97 231.546 28.165C231.601 28.055 231.326 27.89 231.271 27.945C224.671 35.425 217.081 40.485 216.256 38.78C215.156 36.14 218.236 29.045 220.931 23.655C222.251 21.4 223.626 19.2 225.056 17C225.166 16.725 225.386 16.505 225.551 16.23C225.716 16.175 225.936 16.12 226.156 16.12C229.291 15.515 232.481 15.02 235.671 14.745C235.836 14.69 235.946 14.58 235.946 14.47C235.891 14.36 235.781 14.25 235.671 14.25ZM224.506 16.615C224.121 17.165 223.791 17.77 223.461 18.32C223.681 17.825 223.901 17.33 224.121 16.835C224.176 16.725 224.231 16.615 224.286 16.505C224.396 16.505 224.506 16.45 224.616 16.45C224.561 16.505 224.506 16.56 224.506 16.615ZM225.056 15.79C224.946 15.79 224.781 15.845 224.671 15.845C225.276 14.635 225.881 13.37 226.541 12.215C226.981 11.445 227.421 10.73 227.916 10.015C228.136 9.63 228.411 9.3 228.686 8.97C228.851 8.75 229.126 8.53 229.291 8.365C229.291 8.53 229.236 8.695 229.181 8.86C229.071 9.245 228.906 9.685 228.686 10.015C228.301 10.785 227.861 11.555 227.366 12.27C226.596 13.425 225.826 14.58 225.056 15.79ZM238.123 27.945C235.483 29.705 232.183 31.355 231.523 30.31C231.468 29.98 231.578 29.43 231.743 28.935C232.073 27.945 232.348 27.615 232.898 26.68C232.898 26.625 232.898 26.625 232.953 26.57C233.063 26.24 232.403 24.7 231.578 26.13C231.028 27.12 230.808 27.615 230.533 28.825C230.203 29.98 230.478 31.19 231.688 31.3C232.843 31.41 235.538 30.145 238.288 28.165C238.398 28.11 238.233 27.89 238.123 27.945ZM234.328 23.82C234.383 23.655 234.273 22.83 233.888 23.215C233.448 23.6 232.678 23.985 232.568 24.205C232.403 24.645 234.218 24.37 234.328 23.82ZM250.845 27.89C244.52 33.06 244.905 31.19 243.805 28.275C243.365 26.955 241.935 25.36 238.36 29.1C238.58 28.22 239.68 26.46 240.01 26.075C240.285 25.855 239.625 25.36 238.745 25.91C238.25 26.24 236.985 29.375 236.985 30.805C236.93 31.355 237.645 31.3 237.645 31.3C241.11 26.24 242.045 27.12 242.815 29.595C243.915 33.28 245.84 32.29 251.01 28.165C251.12 28.11 250.9 27.835 250.845 27.89ZM263 27.835C261.295 28.715 259.26 30.145 257.665 31.355C257.83 30.695 258.49 27.56 258.49 26.57C258.435 26.13 257.335 24.975 257.005 25.415C256.675 25.8 255.63 26.845 255.63 26.9C255.355 26.515 255.025 26.185 254.53 26.075C254.035 25.91 253.485 25.91 252.99 26.075C252.055 26.35 251.285 27.01 250.68 27.67C250.02 28.385 249.415 29.375 249.25 30.365C249.085 31.52 250.515 31.3 250.955 31.135C253.54 30.09 257.28 26.35 257.28 26.35C257.28 26.35 257.28 26.515 257.28 26.57C257.225 27.34 257.005 28.22 256.84 28.99C256.51 30.31 256.125 31.63 255.685 32.95C255.19 33.335 254.695 33.775 254.2 34.215C251.615 36.525 249.69 38.395 247.545 41.145C246.5 42.52 245.455 43.95 244.52 45.435C243.64 46.92 242.705 48.46 242.265 50.275C242.21 50.77 242.1 51.265 242.375 51.87C242.54 52.2 242.815 52.475 243.145 52.585C243.475 52.64 243.695 52.695 243.97 52.695C245.015 52.695 245.895 52.255 246.665 51.76C248.205 50.715 249.36 49.285 250.35 47.855C253.65 43.125 255.795 37.57 257.445 32.18C259.15 30.75 261.24 29.21 263.11 28.11C263.165 28.055 263.055 27.835 263 27.835ZM251.56 30.09C251.175 30.31 250.79 30.53 250.46 30.64C250.405 30.64 250.35 30.64 250.295 30.64C250.295 30.64 250.295 30.585 250.295 30.53C250.515 29.925 251.175 29.155 251.615 28.495C252.605 27.395 253.98 26.185 255.355 27.12C254.145 28.22 252.935 29.375 251.56 30.09ZM253.65 38.78C252.33 41.97 251.285 44.335 249.415 47.195C248.425 48.57 247.38 49.945 246.06 50.88C245.4 51.32 244.685 51.65 243.97 51.65C242.21 51.595 244.465 47.36 245.345 45.93C246.225 44.445 247.215 43.07 248.26 41.695C250.35 38.945 252.165 37.075 254.64 34.655C254.915 34.435 255.135 34.215 255.41 33.94C254.86 35.59 254.31 37.185 253.65 38.78ZM281.307 27.835C276.577 31.41 275.037 31.08 275.697 29.155C275.917 28.33 276.467 27.01 276.742 26.13C276.797 25.965 276.302 25.415 275.917 25.635C274.487 28.165 273.277 29.265 271.407 30.31C270.087 31.08 271.407 28.11 272.452 26.735C272.452 26.735 271.847 25.8 271.462 26.075C270.912 26.515 269.647 29.155 269.592 29.87C269.372 32.51 272.892 30.475 274.597 28.66C273.277 32.29 276.907 31.96 281.527 28.055C281.582 28 281.417 27.78 281.307 27.835ZM288.569 27.89C286.479 28.66 284.389 29.54 282.409 30.64V30.585C282.464 29.87 282.464 29.1 282.464 28.385C282.519 27.505 282.519 26.625 282.629 25.8C283.619 25.25 284.499 24.535 285.049 23.545C285.599 22.61 285.489 21.455 283.894 22.17C282.904 22.61 281.529 23.875 281.364 26.02C281.309 26.02 281.254 26.075 281.199 26.075C281.144 26.13 281.089 26.185 281.089 26.295C281.144 26.35 281.199 26.405 281.309 26.405C281.309 26.35 281.309 26.35 281.309 26.35C281.199 27.01 281.089 30.42 281.089 31.41C280.759 31.63 280.429 31.85 280.154 32.07C279.494 32.51 278.889 33.005 278.394 33.665C278.174 33.995 277.954 34.38 277.954 34.875C277.899 35.315 278.174 35.81 278.669 36.03C279.659 36.415 280.649 35.865 281.254 35.205C281.804 34.545 282.079 33.72 282.299 32.95C282.409 32.29 282.409 31.685 282.409 31.08C284.444 29.925 286.534 28.99 288.679 28.11C288.734 28.055 288.679 27.835 288.569 27.89ZM283.014 24.15C283.344 23.105 285.709 21.235 284.719 23.38C284.279 24.26 283.564 24.975 282.684 25.47C282.739 25.03 282.849 24.59 283.014 24.15ZM281.089 32.785C280.979 33.445 280.814 34.16 280.484 34.655C280.154 35.205 279.494 35.645 278.944 35.48C278.394 35.315 278.394 34.49 278.779 33.885C279.164 33.28 279.714 32.785 280.374 32.345C280.594 32.18 280.869 32.015 281.089 31.905C281.089 32.18 281.089 32.51 281.089 32.785ZM291.493 29.87C291.273 30.42 290.558 31.575 290.613 31.85C290.668 32.345 292.428 30.805 292.263 30.2C292.208 30.035 291.713 29.32 291.493 29.87ZM308.794 27.945C307.474 28.935 306.209 29.43 304.614 29.155C304.614 29.155 305.384 27.89 304.614 27.12C305.219 24.865 300.709 25.525 299.664 28C298.234 31.355 302.029 32.235 304.394 29.54C306.264 29.815 307.309 29.32 309.014 28.11C309.069 28.055 308.959 27.835 308.794 27.945ZM300.544 29.155C300.709 28 301.974 26.79 302.964 26.405C303.404 26.24 304.559 26.13 304.229 27.12C303.184 27.285 302.909 28.55 303.844 29.265C302.964 30.585 300.324 31.52 300.544 29.155ZM304.064 28.88C303.459 28.55 303.734 27.285 304.449 27.505C304.669 27.56 304.449 28.385 304.064 28.88ZM319.013 27.835C314.283 31.41 312.743 31.08 313.403 29.155C313.623 28.33 314.173 27.01 314.448 26.13C314.503 25.965 314.008 25.415 313.623 25.635C312.193 28.165 310.983 29.265 309.113 30.31C307.793 31.08 309.113 28.11 310.158 26.735C310.158 26.735 309.553 25.8 309.168 26.075C308.618 26.515 307.353 29.155 307.298 29.87C307.078 32.51 310.598 30.475 312.303 28.66C310.983 32.29 314.613 31.96 319.233 28.055C319.288 28 319.123 27.78 319.013 27.835ZM329.038 27.89C324.638 30.75 320.898 31.795 322.273 29.485C323.153 28.055 322.878 27.45 320.238 26.9C320.348 26.735 321.723 25.25 321.283 24.315C321.173 24.04 320.843 23.93 320.458 24.04C319.688 24.26 318.918 25.195 318.643 25.69C318.588 25.855 318.368 26.35 318.423 26.735C318.533 27.23 319.028 27.34 319.303 27.395C319.358 27.505 319.468 27.56 319.578 27.56C319.743 27.505 319.743 27.45 319.853 27.395C321.833 27.725 321.668 28.275 321.393 28.825C320.953 29.65 320.678 30.255 320.733 30.695C321.008 33.17 327.333 29.32 329.148 28.11H329.203C329.258 28.055 329.093 27.835 329.038 27.89ZM319.468 26.79C318.753 26.79 320.458 24.535 320.788 24.755C321.173 24.92 320.128 26.405 319.468 26.79ZM355.245 14.25C352 14.525 348.81 14.965 345.62 15.57H345.565C346.225 14.635 346.83 13.59 347.545 12.655C348.04 11.94 348.535 11.17 348.92 10.345C349.14 9.96 349.305 9.575 349.47 9.135C349.525 8.86 349.635 8.64 349.635 8.365C349.635 8.255 349.635 8.09 349.58 7.87C349.525 7.595 349.03 7.43 348.865 7.54C348.205 7.815 347.985 8.145 347.655 8.475C347.38 8.86 347.105 9.19 346.83 9.575C346.335 10.29 345.84 11.06 345.4 11.775C344.575 13.205 343.805 14.69 343.035 16.12C342.32 16.23 341.605 16.395 340.89 16.56C339.295 16.945 337.755 17.22 336.16 18.1C335.995 18.155 336.38 18.815 336.545 18.705L336.6 18.65C337.865 17.99 339.515 17.605 341.055 17.165C341.55 17.055 342.1 16.945 342.65 16.78C338.14 24.645 332.475 35.7 335.17 39.495C335.61 40.1 336.325 39.935 336.82 39.825C340.45 39 349.03 30.97 351.12 28.165C351.175 28.055 350.9 27.89 350.845 27.945C344.245 35.425 336.655 40.485 335.83 38.78C334.73 36.14 337.81 29.045 340.505 23.655C341.825 21.4 343.2 19.2 344.63 17C344.74 16.725 344.96 16.505 345.125 16.23C345.29 16.175 345.51 16.12 345.73 16.12C348.865 15.515 352.055 15.02 355.245 14.745C355.41 14.69 355.52 14.58 355.52 14.47C355.465 14.36 355.355 14.25 355.245 14.25ZM344.08 16.615C343.695 17.165 343.365 17.77 343.035 18.32C343.255 17.825 343.475 17.33 343.695 16.835C343.75 16.725 343.805 16.615 343.86 16.505C343.97 16.505 344.08 16.45 344.19 16.45C344.135 16.505 344.08 16.56 344.08 16.615ZM344.63 15.79C344.52 15.79 344.355 15.845 344.245 15.845C344.85 14.635 345.455 13.37 346.115 12.215C346.555 11.445 346.995 10.73 347.49 10.015C347.71 9.63 347.985 9.3 348.26 8.97C348.425 8.75 348.7 8.53 348.865 8.365C348.865 8.53 348.81 8.695 348.755 8.86C348.645 9.245 348.48 9.685 348.26 10.015C347.875 10.785 347.435 11.555 346.94 12.27C346.17 13.425 345.4 14.58 344.63 15.79ZM359.451 27.615C356.041 30.31 349.496 32.455 350.926 29.21C352.136 28.935 353.181 28.605 354.171 27.835C356.041 26.405 354.611 25.745 354.336 25.69C354.061 25.58 353.786 25.58 353.511 25.58C352.906 25.69 352.411 25.91 351.971 26.13C351.091 26.68 350.431 27.45 349.881 28.275C348.396 31.08 350.321 31.575 351.036 31.63C352.741 31.685 355.711 30.75 359.671 27.835C359.726 27.78 359.506 27.56 359.451 27.615ZM352.631 27.065C352.961 26.79 353.291 26.57 353.621 26.46C354.281 26.24 354.996 26.405 353.786 27.395C353.456 27.725 352.466 28.33 351.201 28.66C351.641 28.11 352.136 27.56 352.631 27.065ZM371.319 27.89C365.269 31.575 363.179 31.74 365.544 26.295C365.544 26.13 365.104 25.8 364.994 25.69C364.829 25.58 364.554 25.58 364.444 25.8C364.334 25.91 364.224 26.02 364.114 26.13C362.794 25.36 361.034 26.075 359.879 26.955C359.274 27.395 358.724 27.945 358.229 28.55C358.009 28.88 357.789 29.155 357.569 29.54C356.964 31.025 357.734 31.52 358.834 31.135C359.659 30.86 361.199 29.65 361.749 29.21C362.464 28.55 363.179 27.945 363.894 27.285C362.024 31.685 363.949 32.84 371.484 28.165C371.539 28.11 371.429 27.835 371.319 27.89ZM361.364 28.715C360.814 29.155 360.264 29.54 359.659 29.925C359.384 30.09 359.054 30.255 358.779 30.31C358.724 30.31 358.724 30.31 358.724 30.31C358.724 30.255 358.779 30.145 358.834 30.09C358.944 29.815 359.109 29.54 359.274 29.265C359.659 28.77 360.099 28.22 360.594 27.78C361.474 26.955 362.629 26.24 363.839 26.405C363.069 27.23 362.244 28 361.364 28.715ZM389.869 27.89C383.709 32.675 383.599 31.3 382.939 28.495C382.664 27.12 381.014 26.02 378.099 28.66C379.419 25.36 378.154 24.645 377.164 24.975C375.514 25.47 372.709 28.22 371.499 29.43C371.059 29.155 372.654 26.57 373.094 25.525C373.259 25.305 372.489 24.7 371.829 25.415C370.564 26.625 369.574 30.31 369.794 30.86C370.014 31.465 370.619 31.3 370.619 31.3C371.829 29.76 374.084 27.56 376.174 26.295C377.824 25.305 377.934 25.91 376.339 29.925C376.174 30.42 377.274 30.475 377.274 30.475C380.244 26.625 381.509 27.45 381.784 29.1C382.499 32.95 384.919 32.29 390.089 28.11C390.144 28.055 389.979 27.835 389.869 27.89ZM413.627 27.945C411.757 29.375 409.337 29.595 409.337 28.165C409.942 26.35 409.942 25.25 409.777 25.03C409.557 24.755 409.392 24.81 409.007 25.03C408.732 25.195 407.742 27.175 408.402 28.55C407.577 31.245 406.422 32.235 405.707 32.235C404.717 32.235 404.112 30.145 405.212 25.745V25.69C405.212 25.58 404.717 25.195 404.387 25.36C404.057 25.525 398.667 31.135 398.887 29.595C399.162 27.45 400.427 25.36 401.087 24.59C401.307 24.37 400.757 23.82 400.097 24.15C398.997 24.755 397.677 28.275 397.732 30.2C397.732 30.915 398.282 30.97 398.502 30.915C399.767 30.64 403.507 27.175 403.507 27.175C403.177 29.1 403.122 32.84 404.772 33.06C406.972 33.39 408.292 31.025 409.007 29.045C409.887 29.98 412.197 29.43 413.737 28.11C413.737 28.11 413.682 27.945 413.627 27.945ZM421.023 27.945C418.383 29.705 415.083 31.355 414.423 30.31C414.368 29.98 414.478 29.43 414.643 28.935C414.973 27.945 415.248 27.615 415.798 26.68C415.798 26.625 415.798 26.625 415.853 26.57C415.963 26.24 415.303 24.7 414.478 26.13C413.928 27.12 413.708 27.615 413.433 28.825C413.103 29.98 413.378 31.19 414.588 31.3C415.743 31.41 418.438 30.145 421.188 28.165C421.298 28.11 421.133 27.89 421.023 27.945ZM417.228 23.82C417.283 23.655 417.173 22.83 416.788 23.215C416.348 23.6 415.578 23.985 415.468 24.205C415.303 24.645 417.118 24.37 417.228 23.82ZM433.69 27.01C439.465 18.045 446.505 7.76 442.49 9.355C440.73 10.07 437.485 15.295 436.11 17.88C434.735 20.465 433.58 23.215 432.755 26.075C432.59 26.735 432.425 27.395 432.315 28C423.68 38.45 420.05 35.975 422.085 27.89C430.225 17.605 434.295 11.555 434.79 8.145C435.01 6.935 433.525 5.725 430.665 8.86C428.41 11.39 426.54 14.305 424.945 17.275C423.35 20.3 422.03 23.49 421.095 26.845C418.51 35.92 422.305 40.925 432.205 28.66C431.27 34.765 434.295 37.13 443.15 28.165C443.26 28.11 443.205 27.89 443.04 27.89C434.185 36.415 431.93 33.94 433.69 27.01ZM441.445 11.06C442.05 10.345 442.655 9.795 442.93 9.63C444.69 8.805 436.99 20.63 433.91 25.8C435.505 19.75 439.685 13.26 441.445 11.06ZM431.16 9.355C431.82 8.585 432.59 7.925 432.92 7.705C433.47 7.265 434.35 7.265 434.185 8.035C433.58 11.995 426.87 20.74 422.415 26.515C424.23 19.475 429.125 11.94 431.16 9.355ZM463.646 27.835C461.941 28.715 459.906 30.145 458.311 31.355C458.476 30.695 459.136 27.56 459.136 26.57C459.081 26.13 457.981 24.975 457.651 25.415C457.321 25.8 456.276 26.845 456.276 26.9C456.001 26.515 455.671 26.185 455.176 26.075C454.681 25.91 454.131 25.91 453.636 26.075C452.701 26.35 451.931 27.01 451.326 27.67C450.666 28.385 450.061 29.375 449.896 30.365C449.731 31.52 451.161 31.3 451.601 31.135C454.186 30.09 457.926 26.35 457.926 26.35C457.926 26.35 457.926 26.515 457.926 26.57C457.871 27.34 457.651 28.22 457.486 28.99C457.156 30.31 456.771 31.63 456.331 32.95C455.836 33.335 455.341 33.775 454.846 34.215C452.261 36.525 450.336 38.395 448.191 41.145C447.146 42.52 446.101 43.95 445.166 45.435C444.286 46.92 443.351 48.46 442.911 50.275C442.856 50.77 442.746 51.265 443.021 51.87C443.186 52.2 443.461 52.475 443.791 52.585C444.121 52.64 444.341 52.695 444.616 52.695C445.661 52.695 446.541 52.255 447.311 51.76C448.851 50.715 450.006 49.285 450.996 47.855C454.296 43.125 456.441 37.57 458.091 32.18C459.796 30.75 461.886 29.21 463.756 28.11C463.811 28.055 463.701 27.835 463.646 27.835ZM452.206 30.09C451.821 30.31 451.436 30.53 451.106 30.64C451.051 30.64 450.996 30.64 450.941 30.64C450.941 30.64 450.941 30.585 450.941 30.53C451.161 29.925 451.821 29.155 452.261 28.495C453.251 27.395 454.626 26.185 456.001 27.12C454.791 28.22 453.581 29.375 452.206 30.09ZM454.296 38.78C452.976 41.97 451.931 44.335 450.061 47.195C449.071 48.57 448.026 49.945 446.706 50.88C446.046 51.32 445.331 51.65 444.616 51.65C442.856 51.595 445.111 47.36 445.991 45.93C446.871 44.445 447.861 43.07 448.906 41.695C450.996 38.945 452.811 37.075 455.286 34.655C455.561 34.435 455.781 34.215 456.056 33.94C455.506 35.59 454.956 37.185 454.296 38.78ZM471.902 27.615C468.492 30.31 461.947 32.455 463.377 29.21C464.587 28.935 465.632 28.605 466.622 27.835C468.492 26.405 467.062 25.745 466.787 25.69C466.512 25.58 466.237 25.58 465.962 25.58C465.357 25.69 464.862 25.91 464.422 26.13C463.542 26.68 462.882 27.45 462.332 28.275C460.847 31.08 462.772 31.575 463.487 31.63C465.192 31.685 468.162 30.75 472.122 27.835C472.177 27.78 471.957 27.56 471.902 27.615ZM465.082 27.065C465.412 26.79 465.742 26.57 466.072 26.46C466.732 26.24 467.447 26.405 466.237 27.395C465.907 27.725 464.917 28.33 463.652 28.66C464.092 28.11 464.587 27.56 465.082 27.065ZM489.6 14.25C486.355 14.525 483.165 14.965 479.975 15.57H479.92C480.58 14.635 481.185 13.59 481.9 12.655C482.395 11.94 482.89 11.17 483.275 10.345C483.495 9.96 483.66 9.575 483.825 9.135C483.88 8.86 483.99 8.64 483.99 8.365C483.99 8.255 483.99 8.09 483.935 7.87C483.88 7.595 483.385 7.43 483.22 7.54C482.56 7.815 482.34 8.145 482.01 8.475C481.735 8.86 481.46 9.19 481.185 9.575C480.69 10.29 480.195 11.06 479.755 11.775C478.93 13.205 478.16 14.69 477.39 16.12C476.675 16.23 475.96 16.395 475.245 16.56C473.65 16.945 472.11 17.22 470.515 18.1C470.35 18.155 470.735 18.815 470.9 18.705L470.955 18.65C472.22 17.99 473.87 17.605 475.41 17.165C475.905 17.055 476.455 16.945 477.005 16.78C472.495 24.645 466.83 35.7 469.525 39.495C469.965 40.1 470.68 39.935 471.175 39.825C474.805 39 483.385 30.97 485.475 28.165C485.53 28.055 485.255 27.89 485.2 27.945C478.6 35.425 471.01 40.485 470.185 38.78C469.085 36.14 472.165 29.045 474.86 23.655C476.18 21.4 477.555 19.2 478.985 17C479.095 16.725 479.315 16.505 479.48 16.23C479.645 16.175 479.865 16.12 480.085 16.12C483.22 15.515 486.41 15.02 489.6 14.745C489.765 14.69 489.875 14.58 489.875 14.47C489.82 14.36 489.71 14.25 489.6 14.25ZM478.435 16.615C478.05 17.165 477.72 17.77 477.39 18.32C477.61 17.825 477.83 17.33 478.05 16.835C478.105 16.725 478.16 16.615 478.215 16.505C478.325 16.505 478.435 16.45 478.545 16.45C478.49 16.505 478.435 16.56 478.435 16.615ZM478.985 15.79C478.875 15.79 478.71 15.845 478.6 15.845C479.205 14.635 479.81 13.37 480.47 12.215C480.91 11.445 481.35 10.73 481.845 10.015C482.065 9.63 482.34 9.3 482.615 8.97C482.78 8.75 483.055 8.53 483.22 8.365C483.22 8.53 483.165 8.695 483.11 8.86C483 9.245 482.835 9.685 482.615 10.015C482.23 10.785 481.79 11.555 481.295 12.27C480.525 13.425 479.755 14.58 478.985 15.79ZM507.047 27.89C505.892 28.11 504.022 28.66 502.757 29.155C502.757 29.045 502.812 28.99 502.867 28.935C502.977 28.495 503.087 28 503.032 27.505C502.977 26.955 502.647 26.46 502.207 26.185C501.437 25.525 500.282 25.635 499.512 26.02C498.742 26.405 498.082 27.01 497.477 27.56C495.717 29.43 494.452 31.245 493.132 33.445C493.682 30.915 494.012 29.375 494.617 27.395C497.092 23.765 499.402 20.465 501.767 16.78C502.922 14.91 505.067 10.62 505.122 9.135C505.177 7.98 503.857 7.98 503.252 8.2C502.647 8.42 501.382 9.795 500.667 10.675C498.027 14.415 496.267 18.595 494.892 22.83C493.572 27.12 492.307 31.41 491.812 35.865C491.757 36.085 491.867 36.25 492.032 36.36C492.252 36.47 492.527 36.36 492.637 36.14C494.067 33.225 495.717 30.365 497.917 28C498.467 27.395 499.072 26.9 499.787 26.57C500.447 26.24 501.217 26.295 501.712 26.79C502.207 27.23 502.097 27.89 501.767 28.495C501.492 29.045 501.162 29.595 500.777 30.09C499.622 30.64 498.467 31.245 497.367 31.96C496.652 32.455 495.937 32.895 495.387 33.665C495.277 33.885 495.002 34.215 495.332 34.765C495.717 35.095 496.047 35.095 496.322 35.04C496.872 34.93 497.257 34.71 497.642 34.545C499.127 33.665 500.392 32.51 501.547 31.245C501.877 30.75 502.207 30.2 502.537 29.65C503.802 29.1 505.837 28.495 507.157 28.11C507.267 28.055 507.157 27.89 507.047 27.89ZM495.937 23.215C497.642 19.145 499.292 15.02 501.657 11.39C502.262 10.565 502.977 9.63 503.747 9.19C503.912 9.135 504.077 9.08 504.187 9.08C504.352 9.135 504.242 9.025 504.352 9.19C504.407 9.52 504.242 10.07 504.077 10.565C503.362 12.545 502.262 14.525 501.162 16.395C499.347 19.365 497.367 22.225 495.332 24.975C495.552 24.425 495.717 23.82 495.937 23.215ZM497.092 33.61C496.762 33.83 496.432 34.05 496.157 34.105C496.157 34.16 496.102 34.105 496.102 34.105C496.432 33.5 497.092 32.95 497.697 32.455C498.467 31.905 499.237 31.41 500.007 30.97C499.127 31.96 498.192 32.895 497.092 33.61ZM519.123 27.89C513.073 31.575 510.983 31.74 513.348 26.295C513.348 26.13 512.908 25.8 512.798 25.69C512.633 25.58 512.358 25.58 512.248 25.8C512.138 25.91 512.028 26.02 511.918 26.13C510.598 25.36 508.838 26.075 507.683 26.955C507.078 27.395 506.528 27.945 506.033 28.55C505.813 28.88 505.593 29.155 505.373 29.54C504.768 31.025 505.538 31.52 506.638 31.135C507.463 30.86 509.003 29.65 509.553 29.21C510.268 28.55 510.983 27.945 511.698 27.285C509.828 31.685 511.753 32.84 519.288 28.165C519.343 28.11 519.233 27.835 519.123 27.89ZM509.168 28.715C508.618 29.155 508.068 29.54 507.463 29.925C507.188 30.09 506.858 30.255 506.583 30.31C506.528 30.31 506.528 30.31 506.528 30.31C506.528 30.255 506.583 30.145 506.638 30.09C506.748 29.815 506.913 29.54 507.078 29.265C507.463 28.77 507.903 28.22 508.398 27.78C509.278 26.955 510.433 26.24 511.643 26.405C510.873 27.23 510.048 28 509.168 28.715ZM527.499 27.835C525.629 29.21 523.429 30.2 521.559 30.805C518.204 31.85 518.369 27.78 521.284 25.69C521.614 25.525 521.999 25.415 522.329 25.58C522.604 25.69 522.769 26.13 522.714 26.515C522.714 26.625 522.714 26.735 522.714 26.845C522.714 26.845 522.769 27.12 522.989 27.065C522.989 27.065 523.374 25.8 523.539 25.47V25.415C523.594 25.415 523.594 25.415 523.594 25.36C523.649 25.195 523.264 25.195 523.209 25.305L522.989 25.745C522.879 25.525 522.769 25.36 522.549 25.195C522.054 24.865 519.634 24.865 517.984 28.165C516.829 30.475 518.534 32.235 521.669 31.245C523.814 30.53 525.904 29.375 527.719 28.055C527.774 28 527.609 27.725 527.499 27.835ZM540.183 27.89C533.308 33.885 531.713 32.29 530.448 29.54C535.893 26.845 535.233 24.865 533.198 25.36C531.218 25.855 529.293 27.23 527.973 29.21C528.523 27.505 528.743 27.12 529.238 25.635C532.373 21.565 536.773 15.735 538.478 11.335C539.633 8.31 538.863 7.265 536.883 8.695C531.548 13.645 526.873 28.55 526.158 30.915C525.773 32.125 524.893 35.48 524.893 35.48C524.893 35.48 524.838 36.03 524.893 36.085C524.893 36.195 525.553 36.25 525.608 36.085C527.148 30.86 529.458 27.835 531.988 26.46C532.428 26.24 532.978 25.965 533.363 25.965C534.518 25.8 531.658 28.275 529.348 29.045C528.688 29.43 529.403 30.75 529.788 31.355C531.438 33.94 534.463 33.61 540.403 28.11C540.513 28 540.293 27.835 540.183 27.89ZM536.718 10.18C538.313 8.09 538.918 8.53 537.928 11.005C536.663 13.975 535.068 16.89 529.733 23.71C531.713 18.43 533.803 14.03 536.718 10.18ZM566.451 14.25C563.206 14.525 560.016 14.965 556.826 15.57H556.771C557.431 14.635 558.036 13.59 558.751 12.655C559.246 11.94 559.741 11.17 560.126 10.345C560.346 9.96 560.511 9.575 560.676 9.135C560.731 8.86 560.841 8.64 560.841 8.365C560.841 8.255 560.841 8.09 560.786 7.87C560.731 7.595 560.236 7.43 560.071 7.54C559.411 7.815 559.191 8.145 558.861 8.475C558.586 8.86 558.311 9.19 558.036 9.575C557.541 10.29 557.046 11.06 556.606 11.775C555.781 13.205 555.011 14.69 554.241 16.12C553.526 16.23 552.811 16.395 552.096 16.56C550.501 16.945 548.961 17.22 547.366 18.1C547.201 18.155 547.586 18.815 547.751 18.705L547.806 18.65C549.071 17.99 550.721 17.605 552.261 17.165C552.756 17.055 553.306 16.945 553.856 16.78C549.346 24.645 543.681 35.7 546.376 39.495C546.816 40.1 547.531 39.935 548.026 39.825C551.656 39 560.236 30.97 562.326 28.165C562.381 28.055 562.106 27.89 562.051 27.945C555.451 35.425 547.861 40.485 547.036 38.78C545.936 36.14 549.016 29.045 551.711 23.655C553.031 21.4 554.406 19.2 555.836 17C555.946 16.725 556.166 16.505 556.331 16.23C556.496 16.175 556.716 16.12 556.936 16.12C560.071 15.515 563.261 15.02 566.451 14.745C566.616 14.69 566.726 14.58 566.726 14.47C566.671 14.36 566.561 14.25 566.451 14.25ZM555.286 16.615C554.901 17.165 554.571 17.77 554.241 18.32C554.461 17.825 554.681 17.33 554.901 16.835C554.956 16.725 555.011 16.615 555.066 16.505C555.176 16.505 555.286 16.45 555.396 16.45C555.341 16.505 555.286 16.56 555.286 16.615ZM555.836 15.79C555.726 15.79 555.561 15.845 555.451 15.845C556.056 14.635 556.661 13.37 557.321 12.215C557.761 11.445 558.201 10.73 558.696 10.015C558.916 9.63 559.191 9.3 559.466 8.97C559.631 8.75 559.906 8.53 560.071 8.365C560.071 8.53 560.016 8.695 559.961 8.86C559.851 9.245 559.686 9.685 559.466 10.015C559.081 10.785 558.641 11.555 558.146 12.27C557.376 13.425 556.606 14.58 555.836 15.79ZM570.381 27.945C569.061 28.935 567.796 29.43 566.201 29.155C566.201 29.155 566.971 27.89 566.201 27.12C566.806 24.865 562.296 25.525 561.251 28C559.821 31.355 563.616 32.235 565.981 29.54C567.851 29.815 568.896 29.32 570.601 28.11C570.656 28.055 570.546 27.835 570.381 27.945ZM562.131 29.155C562.296 28 563.561 26.79 564.551 26.405C564.991 26.24 566.146 26.13 565.816 27.12C564.771 27.285 564.496 28.55 565.431 29.265C564.551 30.585 561.911 31.52 562.131 29.155ZM565.651 28.88C565.046 28.55 565.321 27.285 566.036 27.505C566.256 27.56 566.036 28.385 565.651 28.88ZM591.093 27.835C591.093 27.725 586.968 30.53 584.603 32.29C584.933 31.19 585.703 27.835 585.703 27.835C586.088 26.02 586.143 25.58 584.933 25.58C582.843 28.22 578.828 31.3 578.663 30.035C578.883 28.825 579.598 27.725 579.983 26.625H580.038C580.148 26.35 579.048 25.8 578.938 26.13C578.168 27.615 576.903 30.365 578.278 31.08C579.928 31.85 584.878 26.845 584.878 26.845C584.823 27.065 583.063 33.115 582.953 33.5C576.958 37.9 570.963 44.775 570.248 49.285C569.698 52.695 573.108 52.365 574.703 51.265C575.858 50.495 576.848 49.505 577.673 48.405C579.268 46.15 580.423 43.675 581.468 41.255C582.458 38.835 583.613 35.755 584.328 33.28C586.583 31.245 591.203 28.11 591.203 28.11C591.203 28.11 591.148 27.89 591.093 27.835ZM580.313 40.76C579.323 43.18 578.113 45.545 576.683 47.69C575.968 48.735 575.528 49.45 574.538 50.165C572.173 52.035 570.248 51.265 571.678 47.69C572.833 44.665 576.903 39.11 582.623 34.545C581.963 36.415 581.028 38.89 580.313 40.76ZM598.967 27.945C597.647 28.935 596.382 29.43 594.787 29.155C594.787 29.155 595.557 27.89 594.787 27.12C595.392 24.865 590.882 25.525 589.837 28C588.407 31.355 592.202 32.235 594.567 29.54C596.437 29.815 597.482 29.32 599.187 28.11C599.242 28.055 599.132 27.835 598.967 27.945ZM590.717 29.155C590.882 28 592.147 26.79 593.137 26.405C593.577 26.24 594.732 26.13 594.402 27.12C593.357 27.285 593.082 28.55 594.017 29.265C593.137 30.585 590.497 31.52 590.717 29.155ZM594.237 28.88C593.632 28.55 593.907 27.285 594.622 27.505C594.842 27.56 594.622 28.385 594.237 28.88ZM609.186 27.835C604.456 31.41 602.916 31.08 603.576 29.155C603.796 28.33 604.346 27.01 604.621 26.13C604.676 25.965 604.181 25.415 603.796 25.635C602.366 28.165 601.156 29.265 599.286 30.31C597.966 31.08 599.286 28.11 600.331 26.735C600.331 26.735 599.726 25.8 599.341 26.075C598.791 26.515 597.526 29.155 597.471 29.87C597.251 32.51 600.771 30.475 602.476 28.66C601.156 32.29 604.786 31.96 609.406 28.055C609.461 28 609.296 27.78 609.186 27.835ZM612.158 29.705C611.883 29.595 611.498 29.485 611.113 30.585C610.728 31.575 612.048 31.74 612.598 30.64C612.763 30.255 612.543 29.87 612.158 29.705Z" fill="black"/>
</svg>
