<?xml version="1.0" standalone="no"?>
<!DOCTYPE svg PUBLIC "-//W3C//DTD SVG 1.1//EN" "http://www.w3.org/Graphics/SVG/1.1/DTD/svg11.dtd" >
<svg xmlns="http://www.w3.org/2000/svg" xmlns:xlink="http://www.w3.org/1999/xlink" version="1.1">
<metadata>
Created by FontForge 20190801 at Thu Mar 11 03:49:01 2021
 By www-data
</metadata>
<defs>
<font id="Beatlys" horiz-adv-x="158" >
  <font-face 
    font-family="Beatlys"
    font-weight="400"
    font-stretch="normal"
    units-per-em="1000"
    panose-1="0 0 0 0 0 0 0 0 0 0"
    ascent="800"
    descent="-200"
    x-height="40"
    cap-height="459"
    bbox="-215.346 -464.391 891.444 700"
    underline-thickness="0"
    underline-position="0"
    unicode-range="U+000A-FB00"
  />
<missing-glyph horiz-adv-x="527" 
d="M50 700h427v-700h-427v700zM78 680l185 -309l186 309h-371zM251 350l-180 300v-601zM264 329l-185 -308h370zM276 350l181 -303v605z" />
    <glyph glyph-name="bb.liga" unicode="bb" horiz-adv-x="429" 
d="M437 295q-12 -47 -52.5 -110.5t-103.5 -131.5l-25 -72q32 44 61.5 56t44.5 1q10 -11 5 -31t-36.5 -41.5t-74.5 -26.5q-2 0 -5 6l-13 -29q-2 -5 -5 -4t-5 5l-3 3q6 33 19 77q-53 -14 -80 -27q-8 -15 -18 -28q-33 -38 -71 -60q-14 -8 -23 -10q-12 0 -18 6q-5 8 1 19
q9 13 35 31q26 17 62 35q13 17 19 28q10 22 -1 32q-14 14 -36 3q-16 -7 -34 -25q-46 -50 -96 -148v-1q-4 -7 -11 -3q-5 3 -4 8q11 92 56 237q43 132 105 221q31 40 47 45q9 5 22 1.5t13 -17.5q-1 -19 -22 -64t-40 -76q-27 -43 -130 -193q-11 -36 -26 -109q37 64 79 106
q20 20 37 28q27 15 49 -2q12 -9 14 -24q2 -11 -3 -26q0 -1 -0.5 -2.5t-1.5 -1.5q34 13 77 22q24 84 60.5 164.5t73.5 129.5q30 40 51 30q13 -8 7 -31zM408 301q-14 -16 -34.5 -50.5t-43.5 -81.5t-44 -96q55 62 92 123t48 102q4 15 -3 15q-6 0 -15 -12zM45 87q-1 -3 -12 -32
q64 85 106 156q41 70 54 107q6 17 4 25q0 1 -2 2q-4 0 -9 -3q-16 -9 -37 -40q-7 -11 -13.5 -21.5t-13.5 -24t-12 -22t-12.5 -25.5t-10.5 -22.5t-11.5 -26t-9.5 -23.5t-11 -26t-10 -24zM66 -102q26 19 53 49q-25 -14 -42 -28q-23 -18 -29 -29q-1 0 -1 -1h2q6 2 17 9zM261 -35
l-6 -12q61 13 88 52q15 23 2 27q-9 3 -27 -7q-29 -17 -57 -60z" />
    <glyph glyph-name="dd.liga" unicode="dd" horiz-adv-x="505" 
d="M541 368q2 -6 1 -14q-2 -9 -7 -22q-6 -17 -18 -40q-31 -60 -92 -147q-27 -39 -57 -78q-2 -5 -6 -18t-9 -33t-9 -41t-4.5 -40.5t2.5 -33t14 -17t28.5 5.5t47 37t68.5 75q4 -2 4 -4q-165 -202 -185 -100q-9 48 9 120q-19 -26 -72 -73q-21 -19 -42.5 -23t-28.5 5
q-10 11 -6 31q11 40 58 72q23 15 46 15q21 0 36 -15q8 9 23 27q24 68 40 108q33 85 77 156q14 23 26 37q8 10 16 16q16 11 28 6q4 -1 7 -4q4 -3 5 -8zM309 17l1.5 1.5t1.5 2.5q-4 8 -12 10.5t-17 -0.5t-17.5 -7.5t-16.5 -11.5q-38 -26 -47 -59q-4 -13 1.5 -14.5t10.5 1.5
q18 7 39.5 23.5t29.5 25.5t26 28zM522 337q8 23 2 29q-9 3 -25 -20q-11 -13 -23 -35q-9 -17 -19.5 -38.5t-17.5 -37t-18 -41.5t-17 -38q-2 -7 -7.5 -20t-7.5 -17q68 92 115 179q12 23 18 39zM293 280q-12 -31 -59 -103.5t-79 -109.5q-13 -31 -27.5 -93t0.5 -89q-1 -1 -1 -3
q0 -1 -3 -1q-15 14 -17 48.5t1.5 58.5t5.5 30q-4 -5 -12.5 -14t-24 -23.5t-30 -23.5t-31 -14.5t-25.5 4.5q-21 17 3 52q25 37 61 39q24 2 41 -18q26 30 32 37q17 52 40 104.5t43.5 89t35.5 53.5q26 28 42 17.5t4 -41.5zM286 311q-7 8 -26 -19.5t-43 -78.5t-35 -74t-20 -45
q43 56 88.5 131.5t35.5 85.5zM85 7q1 1 2 2.5t2 1.5q-13 20 -32.5 11.5t-37 -29t-19.5 -32.5q-4 -21 50 17q24 17 35 29z" />
    <glyph glyph-name="gg.liga" unicode="gg" horiz-adv-x="422" 
d="M421 2l2 -3v-1q-49 -30 -103 -74q-54 -178 -129 -285q-33 -48 -67 -71q-25 -18 -49 -17q-9 0 -15 2q-9 3 -14 12q-5 11 -2 30q8 32 41 88q24 37 55 78q44 56 121 126q10 8 27 23q14 44 21 71q7 33 8 45v3q-68 -67 -115 -86q-7 -5 -20 -2.5t-10 16.5q2 14 12 31
q-52 -34 -91 -70q-29 -88 -88 -181.5t-115 -129.5q-5 -4 -12 -6t-12.5 0t-5.5 8q10 35 34.5 77.5t52 79t53.5 68t43 49.5l17 18l6 4q20 56 24 91q0 4 -3.5 6t-7.5 -1q-81 -72 -104 -44q-4 20 17 39.5t38 24.5q28 8 43 -7v1q1 0 3.5 2.5l5.5 5.5q6 4 12 1t10.5 -9.5
t4.5 -10.5q2 -27 -12 -73q59 48 96 69q0 1 1.5 3t2.5 3q21 22 43 29q15 4 27 0t20 -15q15 14 25 27q3 4 9.5 0t12 -10.5t5.5 -11.5q0 -6 -2 -19t-4.5 -26.5t-4.5 -24.5t-4 -16q61 45 97 63zM-9 -37q-1 -9 33 10q29 17 45 36q-13 19 -59 -20q-18 -16 -19 -26zM-118 -378
q47 39 94.5 111.5t79.5 147.5q-42 -45 -91 -113q-61 -85 -83 -141q-1 -1 -2 -6zM213 -39q25 14 69 55q-29 20 -68 -26q-19 -25 -24 -37v-2q2 1 3 1q9 3 20 9zM251 -196q18 43 32 87q-1 -1 -6 -5.5t-8 -6.5q-74 -72 -116 -128q-31 -40 -53 -77q-8 -14 -15.5 -28t-15 -33
t-6.5 -31t12 -12q18 -1 38 14q29 20 61 67q37 55 77 153z" />
    <glyph glyph-name="ll.liga" unicode="ll" horiz-adv-x="403" 
d="M231 19q-30 -118 25 -115q46 3 146 99q2 0 2.5 -2.5t-0.5 -3.5q-138 -139 -185 -99q-25 22 -15 90q-117 -145 -178 -131q-44 10 -37 95q3 32 13 70q24 86 70 173q49 92 105 153q45 50 68 33q9 -7 7 -19q-7 -46 -62.5 -131t-168.5 -228q-27 -107 12 -125q47 -23 155 101
q9 10 19 22q3 19 8 34q21 75 60 150q25 46 60 96t56 58q28 11 20 -18q-11 -44 -145 -248q-25 -39 -35 -54zM373 308q-33 -41 -75.5 -118t-62.5 -150q15 25 56 92q125 203 112 203h-3q-12 -8 -27 -27zM186 339q-39 -49 -88.5 -138t-71.5 -174q40 52 68 89t64 89t57.5 92.5
t25.5 66.5q2 9 -7 10.5t-17 -5.5q-13 -8 -31 -30z" />
    <glyph glyph-name="mm.liga" unicode="mm" horiz-adv-x="702" 
d="M699 2q1 1 3 -2l1 -2q-37 -30 -62 -45t-44 -18.5t-29.5 8t-15.5 37.5q-8 44 -47 13q-16 -13 -36 -39l-14 5q-3 3 -2 6q29 73 15 74q-7 -1 -18 -8q-27 -17 -61 -48.5t-53 -55.5q-11 -3 -15 8q-5 13 14 61q-108 -83 -127 -58q-3 3 -4 8q-2 9 1.5 30.5t1 31.5t-17.5 4
q-31 -14 -72 -59l-14 5q-3 3 -2 6q29 73 15 74q-7 -1 -19 -8q-44 -32 -98 -87q-11 -12 -18 3q-2 9 11 45t24 51q10 13 25 0q5 -5 3 -7q-25 -29 -38 -60q-3 -9 0 -8q2 1 8 6q73 72 102 81q10 3 17.5 -1.5t9.5 -20t-10 -45.5q35 28 51 37q24 10 35.5 1.5t10.5 -29.5
q0 -7 -2 -22.5t-1 -23.5q1 -24 95 44q9 6 18 13q9 19 18 27q6 6 12 6t9.5 -3t2.5 -5q-2 -3 -13 -23.5t-16 -32.5t-1 -15q85 85 116 94q10 3 17.5 -1.5t9.5 -20t-10 -45.5q19 17 35 24t27 4.5t17.5 -9t8.5 -16.5q1 -1 1 -3q4 -19 6.5 -26.5t10.5 -14t20 -1.5t34 18t54 38z
" />
    <glyph glyph-name="nn.liga" unicode="nn" horiz-adv-x="455" 
d="M455 2q1 1 3 -2q1 -2 0 -3q-25 -20 -42.5 -32.5t-34 -22t-27 -12t-19.5 0.5t-15.5 13t-10.5 27q-4 12 -7 18.5t-10 12.5t-16 2.5t-24.5 -17.5t-35.5 -41h-4t-5.5 2.5t-3.5 6.5q1 19 13 49q-120 -90 -134 -47q-1 3 -1 8q0 7 2 22q4 29 -5 29q-4 0 -12 -5q-36 -22 -73 -70
q-1 -1 -4 -0.5t-6 3t-3 5.5q0 19 12.5 51.5t20.5 37.5q15 9 22 1q3 -3 1 -5q-23 -19 -33 -63q20 22 37 36t28 19.5t19.5 5t12.5 -5.5t7 -13q1 -5 -1 -23t-1 -25q7 -15 38 -1t76 48q10 22 16 27q15 9 23 0q2 -2 0 -4q-6 -7 -17 -25.5t-13 -29.5q16 16 29.5 26.5t23.5 13.5
t18 2.5t13.5 -5.5t9 -10t5.5 -12q2 -5 5.5 -16t5 -15t5.5 -11t7.5 -7.5t10 -2t14.5 3t19.5 11t26.5 17.5t34 27z" />
    <glyph glyph-name="oo.liga" unicode="oo" horiz-adv-x="307" 
d="M304 1q2 0 2 -3q-16 -8 -41 -10.5t-42 0.5q0 -20 -16 -39.5t-43 -17.5q-15 1 -22.5 13.5t-1.5 33.5q1 4 5 11q-36 -23 -72 -18q-30 -35 -65 -28q-30 5 -27 36q1 9 6 20q13 30 52 39q33 8 38 -11q2 -6 0 -12q6 -6 6 -15.5t-3 -15.5l-3 -6q36 -7 76 22q18 20 40 22t24 -20
q3 -2 5 -7q15 -4 41.5 -2.5t40.5 8.5zM3 -22q-3 -27 19 -26q24 2 40 24q-12 10 -9.5 23.5t17.5 15.5q4 12 -6.5 14.5t-17.5 -1.5q-14 -6 -27.5 -20.5t-15.5 -29.5zM66 -17q4 4 6.5 10t2.5 10t-1 5q-10 3 -13 -9t5 -16zM207 -32q4 11 5 22h-1q-4 2 -5 4.5t0.5 5t3.5 2.5
q-5 17 -21 9q-12 -7 -22 -21.5t-10 -28.5q1 -27 23 -19q18 7 27 26z" />
    <glyph glyph-name="rr.liga" unicode="rr" horiz-adv-x="343" 
d="M339 2q2 0 3 -4q-41 -30 -87.5 -52.5t-49.5 2.5q0 6 9 32q5 6 1.5 11.5t-23.5 9.5h-1.5h-1.5q-7 -6 -19.5 -15.5t-31 -21.5t-35.5 -20t-32.5 -8t-21.5 12q-5 8 10 36q2 5 3 9.5t-6.5 9t-24.5 7.5l-5 -3q-3 0 -5 3q-14 4 -16 12q-1 8 4 19q14 24 34 30q10 4 14 -4
q2 -7 1.5 -12t-4 -12t-6.5 -11t-6.5 -8.5l-3.5 -4.5q35 -7 42.5 -17.5t-4.5 -29.5q-15 -24 7 -23q36 3 100 54q-12 4 -4 20q6 14 17.5 18.5t20.5 -3.5q7 -8 -19 -29q29 -6 34.5 -15t-3.5 -27q-9 -20 13 -16q32 6 97 51zM24 21q16 9 24 28q3 8 0 9q-6 4 -21 -19
q-11 -18 -3 -18zM191 11q4 4 7.5 7t7 7.5t3 8t-5.5 5.5q-4 1 -12 -18q-3 -10 0 -10z" />
    <glyph glyph-name="ss.liga" unicode="ss" horiz-adv-x="253" 
d="M251 -1q-48 -10 -79 -21q12 -46 -51 -67q-38 -13 -49 2q-13 17 44 48q15 8 34 16q-5 12 -9 21v-1q-65 -26 -114 -54q-1 -23 -3 -33q-6 -27 -19 -42q-21 -25 -46 -15q-15 6 -14 22q0 10 8 21q11 14 32 30l17 11q-1 58 5 92h-1q-2 -1 -3 1.5t2 3.5l1 0.5t2 0.5
q1 26 15 44.5t31 25.5q20 9 25 -1t-4 -24q-15 -25 -45 -41q0 -7 -3 -47v-40q43 24 112 50q-6 10 -11 18q-1 1 -2 3q-3 0 -5 1.5t3 3.5q-6 18 16 26t32 -3q2 -3 2.5 -6t-7 -8t-21.5 -8q1 -1 4.5 -7t7.5 -12.5t6 -10.5q4 -7 6 -15q42 12 79 18zM38 69q-4 -9 -7 -23
q26 14 37 37q9 19 1 18q-11 -1 -26 -22zM2 -88q1 6 1 17q-2 -1 -6.5 -4l-7.5 -5q-20 -14 -29 -28q-5 -8 -4.5 -17t7.5 -11q16 -5 28 14q9 13 11 34zM153 50q-6 -2 -9.5 -6t-0.5 -9q21 5 24 13q1 4 -14 2zM80 -81q5 -3 23.5 2t35 18.5t13.5 30.5q-47 -22 -69 -43q-5 -6 -3 -8
z" />
    <glyph glyph-name="tt.liga" unicode="tt" horiz-adv-x="471" 
d="M389 246q-41 -74 -69 -121q-108 -218 -84 -275q6 -13 40 2.5t86 56t104 94.5q7 -1 5 -7q-55 -55 -119 -106t-99 -59q-21 -5 -30 7q-22 30 14 138q-49 -55 -126 -119t-117 -74q-21 -5 -30 7q-56 77 136 412q-85 -19 -110 -34h-1q-2 -1 -4 1.5t-3 5.5t0 4q32 17 124 36
q26 48 44 78q14 24 26 41q8 11 15 20l4 4l5 5t5.5 4t7.5 4h4.5t5 -2t3.5 -4q1 -4 1 -10q0 -4 -3 -13q-3 -10 -10 -23q-10 -20 -25 -41q-10 -13 -36 -54q65 13 207 28l6 10q28 53 43 79q10 15 18.5 24t13 9.5t6.5 -3.5t-1.5 -16t-11.5 -27q-14 -27 -39 -72q75 7 104 7
q2 0 2 -4t-2 -4q-48 -3 -110 -9zM163 286q-12 -20 -34 -66q1 0 3.5 0.5t3.5 0.5q28 44 42 64q14 21 24 40q6 12 9 21q2 6 2 10q-5 -4 -11 -12q-7 -7 -14 -18q-12 -17 -25 -40zM119 202q-2 -5 -6.5 -14t-5.5 -13q1 2 8 13.5t11 17.5l1 1t1 2q-1 0 -3 -0.5t-3 -0.5q0 -1 -1 -3
t-2 -3zM-24 -197q7 -15 48 5.5t101.5 71.5t117.5 114q39 110 112 248q-122 -13 -211 -29q-1 -2 -4 -6.5l-5 -7.5q-39 -61 -74 -122q-109 -218 -85 -274z" />
    <glyph glyph-name="Ex.liga" unicode="Ex" horiz-adv-x="605" 
d="M601 1q1 1 2.5 -1t0.5 -2q-9 -7 -26.5 -20t-27.5 -20t-26 -16.5t-26.5 -12.5t-25 -4t-24.5 5.5t-21.5 19.5t-20.5 34q-30 -30 -69 -72q-43 -46 -87 -85t-96 -75.5t-104.5 -54t-95.5 -8.5q-15 2 -27.5 11t-21 21t-13.5 26q-16 40 -5 83q16 68 81 139q83 87 201 161
q-8 -1 -14.5 -1t-19.5 1t-22 3.5t-19 9t-14 15.5t-3.5 24.5t8.5 34.5q5 10 10.5 19t12 18t12.5 16t14 15.5t13.5 14t15.5 14t14.5 13t15.5 13.5t15 13q43 35 72 55q25 16 40 23l6.5 2.5t8 3.5t7 2.5t9 1.5h8.5t10 -1q16 -4 19 -23q2 -12 0 -24q-2 -19 -11 -45
q-13 -39 -35 -83q-11 -1 -12 16q0 9 6 20.5t15 25.5t12 25q8 25 9 42q4 28 -8 30q-12 3 -36 -9q-14 -7 -37 -23q-28 -20 -70 -55q-30 -27 -45 -41t-36 -39.5t-32 -48.5q-12 -27 0.5 -42.5t38.5 -18.5t49.5 -1.5t36.5 5.5q2 -2 1.5 -8.5t-4.5 -8.5q-156 -98 -239 -187
q-61 -68 -77 -123q-10 -36 2 -69q12 -38 43 -45q63 -16 161 39t209 169q38 41 74 75q-3 9 -19 38q-3 6 7 15q8 6 12 0q3 -5 9.5 -20.5t7.5 -18.5q25 21 39 31q36 23 59 22q2 0 2.5 -3t0 -6t-2.5 -3q-24 0 -53 -19q-15 -9 -40 -31q7 -17 14 -28.5t16 -18t15.5 -10.5
t18.5 -1.5t19.5 5t23.5 12t26 16t32 21.5q7 5 11 7z" />
    <glyph glyph-name="ff.liga" unicode="ff" horiz-adv-x="299" 
d="M298 2l2 -3q1 -2 0 -2q-43 -10 -114 -31q-12 -3 -39 -12q-9 -23 -20 -53q9 -15 12 -33q6 -31 1 -69q-12 -70 -46 -130q-6 -10 -12 -16q-5 -5 -11 -8q-8 -2 -14 1q-5 2 -8 7q-2 6 -3 11.5t-1.5 9t0 9.5t0.5 8q2 25 12 68q14 59 40 130q1 3 2.5 6.5l3 7t2.5 6.5q-6 5 -12 9
l1 -1q-6 3 -8 6q-3 2 -3 6t2 6q4 4 13 10q9 5 25 11q7 15 16 36q-42 -9 -98 -25q-11 -3 -38 -12q-11 -25 -23 -58q9 -16 12 -38q5 -34 -2 -76q-14 -79 -50 -144q-6 -11 -12 -17t-12 -8q-7 -3 -13 1q-5 2 -8 8q-2 7 -3 13.5t-1 10t0.5 10.5t0.5 9q3 27 14 75q16 66 44 144
q2 4 4.5 11.5l3.5 10.5q-5 6 -11 11l1 -1q-6 3 -8 7q-6 6 0 13q3 5 13 11q9 5 26 11q47 116 101 197q14 18 25 29q10 10 18 13t15 -2q8 -5 7 -14q-1 -12 -15 -38q-7 -12 -21 -31q-23 -31 -85 -106q-5 -12 -16 -39q2 0 13.5 3.5t17.5 5.5q42 10 103 22q36 78 78 137
q13 18 23 28q10 8 18 11t15 -1q8 -4 8 -11q-1 -12 -14 -35q-7 -10 -21 -29q-21 -27 -81 -98q-6 -11 -16 -36l7.5 2.5t8 2.5t7.5 2l8 2q53 15 115 28zM234 128q-22 -35 -47 -86q31 34 53 63q11 15 19 28q11 20 11 28q-1 3 -4 2q-5 -2 -12 -8q-9 -10 -20 -27zM94 146
q-23 -38 -49 -94q32 36 55 68q11 16 19 31q12 21 12 31q0 2 -3 2q-5 -2 -12 -9q-10 -10 -22 -29zM-46 -72l9 -9q1 2 4.5 11t5.5 14q-12 -5 -14 -6q-7 -4 -9 -7q0 -1 3 -3h1zM-27 -214q7 42 4 72q-1 9 -4 20v-1q-28 -77 -43 -141q-8 -35 -13 -72q-2 -14 -2 -24q4 4 8 10
q35 54 50 136zM100 -73q2 -1 9 -7q1 1 4 9.5t5 13.5q-11 -5 -14 -6q-7 -4 -9 -7v-1q1 0 4 -2h1zM123 -199q5 38 1 65q-1 8 -4 17q-25 -70 -39 -128q-7 -31 -11 -65q-2 -12 -1 -21q4 4 7 9q34 50 47 123z" />
    <glyph glyph-name=".notdef" horiz-adv-x="527" 
d="M50 700h427v-700h-427v700zM78 680l185 -309l186 309h-371zM251 350l-180 300v-601zM264 329l-185 -308h370zM276 350l181 -303v605z" />
    <glyph glyph-name=".null" horiz-adv-x="0" 
 />
    <glyph glyph-name=".null" horiz-adv-x="0" 
 />
    <glyph glyph-name="nonmarkingreturn" horiz-adv-x="333" 
 />
    <glyph glyph-name="controlLF" unicode="&#xa;" horiz-adv-x="0" 
 />
    <glyph glyph-name="controlCR" unicode="&#xd;" horiz-adv-x="0" 
 />
    <glyph glyph-name="space" unicode=" " horiz-adv-x="159" 
 />
    <glyph glyph-name="exclam" unicode="!" horiz-adv-x="258" 
d="M26 -129q16 -5 10 -20q-9 -19 -25 -17q-13 1 -8 17q9 25 23 20zM232 329q10 -7 3 -17q-111 -159 -182 -365q-1 -1 -4.5 -1t-7 2t-2.5 4q67 210 176 374q7 10 17 3z" />
    <glyph glyph-name="quotedbl" unicode="&#x22;" horiz-adv-x="100" 
d="M51 341q3 7 8 4t7 -8q5 -10 -15 -30q-9 -9 -11 -4q-1 2 1.5 9t5.5 16t4 13zM97 337q4 -10 -16 -30q-9 -9 -10 -4q-1 2 1 9t5.5 16t4.5 13q2 7 7.5 4t7.5 -8z" />
    <glyph glyph-name="quotedbl" unicode="&#x201d;" horiz-adv-x="100" 
d="M51 341q3 7 8 4t7 -8q5 -10 -15 -30q-9 -9 -11 -4q-1 2 1.5 9t5.5 16t4 13zM97 337q4 -10 -16 -30q-9 -9 -10 -4q-1 2 1 9t5.5 16t4.5 13q2 7 7.5 4t7.5 -8z" />
    <glyph glyph-name="quotedbl" unicode="&#x201c;" horiz-adv-x="100" 
d="M51 341q3 7 8 4t7 -8q5 -10 -15 -30q-9 -9 -11 -4q-1 2 1.5 9t5.5 16t4 13zM97 337q4 -10 -16 -30q-9 -9 -10 -4q-1 2 1 9t5.5 16t4.5 13q2 7 7.5 4t7.5 -8z" />
    <glyph glyph-name="numbersign" unicode="#" horiz-adv-x="265" 
d="M236 39q2 0 3.5 -3t0 -5.5t-5.5 -2.5q-38 0 -58 -2q-3 -4 -6.5 -13t-5.5 -12q34 1 42 -6q3 -2 1.5 -6t-4.5 -4h-48q-10 -21 -18 -38q-3 -7 -10 -7h-2q-8 2 -5 11q8 17 15 32q-12 0 -21 -1q-12 -24 -20 -42q-3 -7 -10 -7h-3q-8 2 -4 11q7 16 16 35q-23 -3 -49 -8h-2
q-4 0 1 9q2 4 4 5q36 8 55 11q8 17 12 24q-23 -3 -46 -7h-2q-4 0 0 9q2 4 4 5q38 8 54 10q17 30 30 50q2 1 6 0.5t7.5 -4t1.5 -5.5q-10 -15 -24 -38q10 1 22 2q12 19 24 37q2 2 4.5 1t4.5 -4t1 -5q-2 -3 -7.5 -13.5t-7.5 -14.5q26 1 50 -4zM144 0q7 13 13 25q-3 0 -6.5 -0.5
t-8 -1t-6.5 -0.5q-7 -12 -14 -25z" />
    <glyph glyph-name="dollar" unicode="$" horiz-adv-x="201" 
d="M175 106q2 -5 -2.5 -7.5t-7.5 2.5q-10 20 -29 34q-7 -15 -17 -44q5 -4 8 -7q28 -27 35 -41q3 -7 1 -17t-8 -15q-5 -6 -12.5 -9.5t-14.5 -4.5q-18 0 -37 9q-9 -34 -17 -70q0 -2 -5.5 -1t-4.5 3q7 36 16 75q-24 16 -39 36q-4 4 5 14q4 5 5 2h1q16 -21 33 -34q9 32 17 56
q-14 14 -22 24q-11 14 -11 27q1 19 19 25q19 4 40 -8q14 34 25 56q3 8 11 4t4 -11q-13 -25 -27 -57q22 -17 34 -41zM147 37q-6 12 -30 36l-4 4q-7 -21 -16 -54q15 -9 30 -9q10 1 17 8q6 7 3 15zM107 102q12 32 16 42q-19 10 -31 7q-10 -3 -10 -14q0 -8 9 -18q6 -7 16 -17z
" />
    <glyph glyph-name="percent" unicode="%" horiz-adv-x="269" 
d="M162 57q11 -4 11 -15q0 -5 -2 -13q-3 -8 -11 -21q-8 -11 -16 -18q-15 -11 -28 -6q-10 5 -11 14q-2 6 1 15q3 12 11 22t18 16q16 9 27 6zM158 33q1 4 1 8l-1 1v1q-5 0 -13 -6t-14 -13q-7 -11 -9 -16q-2 -8 1 -9q3 -3 12 2.5t14 13.5q6 7 9 18zM103 156q-10 1 -14 8
q-1 4 2 14q1 2 5 9q8 9 15 15q20 14 38 14q8 -1 14 -5q5 -6 5 -15q0 -1 -1 -6q5 2 7 -1q2 -4 -4 -11q-33 -14 -38 -15q-11 -4 -18 -6q-6 -1 -11 -1zM107 174q0 -1 -1 -3h1h8q7 2 17 4q3 1 9.5 3.5t7.5 2.5l1 1v1q5 9 6 13v1l-2 2l-2 1q-12 1 -28 -10q-6 -3 -13 -10
q-3 -6 -4 -6zM254 236q2 2 6 -0.5t6 -6.5t-1 -7q-162 -155 -247 -299q-2 -2 -6 -1t-7.5 4.5t-2.5 5.5q78 131 216 269q35 35 36 35z" />
    <glyph glyph-name="ampersand" unicode="&#x26;" horiz-adv-x="247" 
d="M244 44q-24 -21 -58 -46q13 -27 18 -37q1 -1 -2.5 -3t-4.5 -1q-4 8 -19 36q-11 -8 -30 -19t-54 -24t-62 -13q-22 1 -28 16t7 37q8 13 49 56.5t68 68.5q0 1 -2 9.5t-3 11.5q-6 45 8 67q9 13 30 19q19 4 35 -2q6 -3 9 -14.5t-1 -23t-17 -29.5q-18 -24 -44 -49q4 -13 9 -27
q11 -31 30 -71q33 23 58 43q1 1 4 -3q1 -2 0 -2zM141 195q-12 -18 -6 -57q0 -1 1.5 -6t1.5 -6l7.5 7.5t10.5 11t12.5 13.5t12 14.5t9 14t4 12.5t-3.5 9q-6 5 -26 1q-15 -3 -23 -14zM32 -47q33 -1 78 17.5t64 30.5q-21 40 -33 72l-7 21q-13 -13 -37 -35q-27 -24 -53.5 -55
t-26.5 -42q-1 -8 15 -9z" />
    <glyph glyph-name="quotesingle" unicode="'" horiz-adv-x="69" 
d="M66 337q5 -10 -15 -30q-9 -7 -11 -4v3t1 5l2 6t2.5 6.5t2.5 6.5l2 6t1 5q3 7 8 4t7 -8z" />
    <glyph glyph-name="quotesingle" unicode="&#x2019;" horiz-adv-x="69" 
d="M66 337q5 -10 -15 -30q-9 -7 -11 -4v3t1 5l2 6t2.5 6.5t2.5 6.5l2 6t1 5q3 7 8 4t7 -8z" />
    <glyph glyph-name="quotesingle" unicode="&#x2018;" horiz-adv-x="69" 
d="M66 337q5 -10 -15 -30q-9 -7 -11 -4v3t1 5l2 6t2.5 6.5t2.5 6.5l2 6t1 5q3 7 8 4t7 -8z" />
    <glyph glyph-name="parenleft" unicode="(" horiz-adv-x="305" 
d="M342 480q4 5 10 -7q3 -7 1 -10q-187 -246 -276 -449t-41 -278q5 -9 -2 -18q-3 -4 -7 -4t-6 3q-53 84 35.5 294t285.5 469z" />
    <glyph glyph-name="parenright" unicode=")" horiz-adv-x="305" 
d="M283 457q53 -83 -35.5 -293.5t-285.5 -468.5q-4 -5 -10 6q-4 7 -1 11q188 246 276.5 449t41.5 278q-6 8 2 18q3 4 7 4q3 0 5 -4z" />
    <glyph glyph-name="asterisk" unicode="*" horiz-adv-x="122" 
d="M115 207q3 1 4.5 -3t-1.5 -5q-27 -9 -28 -10q15 -11 19 -16q1 -2 0 -4.5t-2.5 -4.5t-2.5 -1q-2 1 -10.5 8t-12.5 9q-1 -3 -2.5 -8.5t-3 -11.5t-1.5 -9q-1 -2 -3.5 -2t-5 1.5t-2.5 3.5q2 16 4 26q-11 -5 -18 -10q-4 -3 -6.5 -2t-2.5 4t1 5q10 8 23 15q-3 2 -9.5 5.5
t-9.5 4.5q-1 1 0 3.5t4 4t4 1.5q11 -4 20 -9q6 15 11 24q2 5 10 3q2 -1 2 -3q-9 -21 -10 -25q14 5 29 6z" />
    <glyph glyph-name="plus" unicode="+" horiz-adv-x="191" 
d="M177 63q9 -1 0 -13q-4 -5 -6 -5q-26 2 -58 0q-11 -30 -19 -60q-1 -5 -15 -3q-3 2 -3 3q7 27 17 58q-25 -2 -51 -7q-5 -1 -1 9q4 6 7 8q22 5 52 9q6 16 18 43q4 10 17 6q4 -2 3 -4q-9 -19 -19 -44q35 1 58 0z" />
    <glyph glyph-name="comma" unicode="," horiz-adv-x="74" 
d="M57 -34q3 7 8 3t6 -9q3 -10 -19 -27q-11 -8 -12 -3q0 3 3 9.5t7.5 14.5t6.5 12z" />
    <glyph glyph-name="hyphen" unicode="-" horiz-adv-x="193" 
d="M165 53q7 -8 0 -10q-13 0 -58 -3t-64 -8q-4 1 -3 7t3 8q16 7 67.5 9.5t54.5 -3.5z" />
    <glyph glyph-name="period" unicode="." horiz-adv-x="72" 
d="M60 -30q14 -5 8 -17q-8 -17 -21 -14q-10 2 -6 14q8 21 19 17z" />
    <glyph glyph-name="slash" unicode="/" horiz-adv-x="356" 
d="M337 323q8 8 15 2q2 -5 0 -9q-212 -255 -336 -484q-4 -7 -12 4q-3 5 -1 9q107 198 277 409q49 61 57 69z" />
    <glyph glyph-name="zero" unicode="0" horiz-adv-x="191" 
d="M152 238q26 -3 33 -37q4 -21 3 -49q-3 -44 -20 -93q-18 -51 -43 -85q-40 -52 -85 -46q-13 0 -25 9.5t-15 22.5q-7 20 -4 50q6 43 28 92q21 44 49 81q17 22 33 36q24 20 46 19zM176 153q2 26 -2 45q-6 27 -23 29q-17 1 -38 -18q-14 -13 -30 -34q-26 -36 -45 -80
q-21 -47 -26 -87q-4 -25 3 -44.5t27 -20.5q36 -6 72 40q24 31 42 80q16 48 20 90z" />
    <glyph glyph-name="one" unicode="1" horiz-adv-x="137" 
d="M138 239q3 3 7 0q3 -3 2 -6q-49 -104 -124 -298q-4 -10 -14 -6.5t-6 14.5q71 168 119 264q-38 -39 -70 -62q-2 -2 -5 2.5t-1 5.5q46 33 92 85v1z" />
    <glyph glyph-name="two" unicode="2" horiz-adv-x="206" 
d="M175 -18q8 0 8 -8t-8 -8q-77 -3 -173 -21q-10 -1 -12 9q-1 5 3 9q108 112 163 185q23 33 31 52q3 8 3 12v1q0 3 -4 4h-1q-10 4 -27 -1q-41 -15 -98 -70q-1 -2 -4.5 1.5t-1.5 4.5q57 59 101 75q20 6 34 2q5 0 10 -5q4 -5 4 -11q0 -7 -3 -18q-8 -20 -32 -55
q-50 -70 -142 -171q87 12 149 13z" />
    <glyph glyph-name="three" unicode="3" horiz-adv-x="229" 
d="M191 134q15 -7 23 -19q8 -13 4 -30q-4 -22 -28 -46q-29 -30 -84 -59q-40 -21 -93 -39q-8 -3 -10.5 5t5.5 11q51 18 91 38q52 27 79 55q20 21 24 38q5 21 -18 30q-32 13 -93 -3q-8 -2 -10 6q-1 6 4 9q33 22 59 43q16 14 25 25q16 17 11 23q-6 9 -27 5q-15 -2 -34 -10
q-31 -12 -65 -33q-2 -1 -3.5 1t-2.5 4.5t0 3.5q35 22 66 36q20 8 36 12q30 4 42 -10q7 -10 1 -25q-4 -8 -12 -17q-10 -13 -27 -27q-12 -11 -28 -22q37 5 65 -5z" />
    <glyph glyph-name="four" unicode="4" horiz-adv-x="190" 
d="M219 248l-0.5 -2t-2 -5.5t-4 -8t-4.5 -9.5t-5 -10.5t-5.5 -11.5t-5 -11.5l-5 -11t-4.5 -9.5q-8 -20 -35 -94q2 1 4 1t4.5 0.5t3.5 0.5q8 1 8.5 -6.5t-6.5 -8.5q-2 0 -9 -1t-11 -1q-18 -50 -41 -132q-4 -11 -14.5 -8t-7.5 14h1q21 66 43 124q-83 -9 -115 -13q-7 0 -8 6
q0 3 2 6q25 26 53.5 69.5t47.5 81.5q1 3 6.5 0t4.5 -5q-45 -92 -90 -142q38 4 105 12q36 91 41 102q4 9 16.5 36t17.5 42q2 2 5.5 1.5t7 -2.5t2.5 -4z" />
    <glyph glyph-name="five" unicode="5" horiz-adv-x="203" 
d="M53 122q52 17 79.5 12.5t39.5 -24.5q13 -28 -11 -63q-19 -26 -67.5 -57t-93.5 -45q-8 -3 -10 6q-1 8 6 9l1 1q41 14 85.5 41t65 53.5t10.5 47.5q-4 8 -16.5 13.5t-39.5 3t-60 -17.5q-8 -2 -10 6q-1 3 0 5l33 84q-1 0 -3 -0.5t-3 -0.5q-7 -2 -9 6q-2 7 6 9q53 14 159 19
q3 0 3 -6.5t-2 -6.5q-81 -4 -132 -16v-1z" />
    <glyph glyph-name="six" unicode="6" horiz-adv-x="202" 
d="M123 230q32 10 54 -9q21 -17 22 -49q0 -1 -3 -2t-6.5 -0.5t-3.5 2.5q-1 25 -18 38q-16 14 -41 7q-37 -12 -67 -62q-14 -24 -26 -58q41 32 82 29q31 -2 48 -23q19 -22 11 -54q-12 -44 -60 -84q-24 -19 -48 -22q-14 -2 -28.5 4.5t-22.5 18.5q-22 35 -7 102q13 51 38 94
q34 55 76 68zM32 77q-2 -2 -5 -2q0 -1 -0.5 -3t-1.5 -4t-1 -3q-14 -60 5 -90q14 -17 35.5 -15t40.5 19q44 36 54 74q7 24 -6 41q-13 16 -38 19q-23 2 -45 -7.5t-38 -28.5z" />
    <glyph glyph-name="seven" unicode="7" horiz-adv-x="175" 
d="M187 239q7 0 7 -6q1 -3 -1 -5q-104 -128 -172 -300q-4 -10 -14 -6t-6 14q69 163 172 288l-134 -19q-2 0 -3 3.5t-1 7.5t2 4q146 18 150 19z" />
    <glyph glyph-name="eight" unicode="8" horiz-adv-x="197" 
d="M190 206q3 2 6 -2q2 -3 -1 -5q-48 -40 -79 -70q3 -6 3 -7l27 -48q18 -33 18 -56q0 -30 -18 -55t-46 -40q-30 -14 -59 -10q-32 4 -50 34q-13 25 2 61q10 23 30 49q25 33 73 75q-10 20 -14 34q-13 37 9 59q23 25 57 14q13 -3 21.5 -15t9.5 -26q2 1 5.5 3.5t5.5 4.5zM130 65
q-15 29 -26 49v2q-1 0 -1 1q-39 -38 -65 -71q-19 -24 -28 -45q-13 -29 -3 -45q13 -23 37 -27q22 -4 48 9q24 13 39.5 34.5t15.5 45.5q-1 18 -17 47zM100 216q-18 -22 8 -73q28 24 59 47v0v1q1 12 -5 23t-17 14q-12 4 -24.5 0.5t-20.5 -12.5z" />
    <glyph glyph-name="nine" unicode="9" horiz-adv-x="198" 
d="M201 208q3 -4 2 -8q-34 -107 -66 -158q-24 -38 -56 -68t-70 -48q-10 -5 -15 4.5t5 14.5q75 34 120 107q36 56 56 128q-26 -18 -42 -26q-23 -11 -39 -11q-13 0 -22 6q-12 7 -12 21q-1 18 17 38q14 16 33 23q23 10 41 -1q15 -9 22 -30q1 0 5.5 3.5t6.5 5.5l1 1q7 6 13 -2z
M128 167q19 10 38 25v1q-7 19 -19 26t-31 0q-15 -7 -27.5 -21t-12.5 -27q0 -6 6 -10t14 -4q13 0 32 10z" />
    <glyph glyph-name="colon" unicode=":" horiz-adv-x="97" 
d="M86 100q13 -5 7 -17q-7 -17 -21 -13q-10 2 -5 14q7 20 19 16zM60 17q14 -5 8 -16q-8 -17 -21 -14q-10 2 -6 14q8 21 19 16z" />
    <glyph glyph-name="semicolon" unicode=";" horiz-adv-x="100" 
d="M88 100q13 -5 8 -17q-8 -17 -22 -13q-10 2 -5 14q8 20 19 16zM57 22q3 6 8 2t6 -8q3 -11 -19 -28q-11 -8 -12 -3q0 3 3 9.5t7.5 15t6.5 12.5z" />
    <glyph glyph-name="less" unicode="&#x3c;" horiz-adv-x="247" 
d="M214 112q7 1 7 -6q-1 -8 -6 -13q-13 0 -61 -15.5t-80 -32.5q66 -14 119 -38q2 -1 2.5 -4.5t-0.5 -6.5t-3 -2q-67 25 -146 40q-5 1 -5.5 5.5t3.5 7.5q22 13 82.5 37t87.5 28z" />
    <glyph glyph-name="equal" unicode="=" horiz-adv-x="195" 
d="M44 22q11 7 58 9t49 -3q1 -3 1 -7t-3 -4q-3 1 -15 0t-27.5 -3t-30.5 -3.5l-25 -2.5l-10 -1q-1 1 -1 4t1 6.5t3 4.5zM168 72q6 -8 -1 -10q-11 0 -52.5 -3.5t-59.5 -7.5q-3 1 -2 7t3 7q14 8 61.5 10.5t50.5 -3.5z" />
    <glyph glyph-name="greater" unicode="&#x3e;" horiz-adv-x="245" 
d="M217 45q4 -3 2.5 -8t-7.5 -5q-76 -10 -169 -39q-2 -1 -3 2q-1 7 4 11q43 17 143 37q-27 17 -71 32.5t-57 14.5q-5 5 -3 13t9 7q26 -4 80 -28t72 -37z" />
    <glyph glyph-name="question" unicode="?" horiz-adv-x="318" 
d="M48 -122q7 -2 10 -7.5t0 -12.5q-8 -19 -24 -18q-13 2 -8 17q8 25 22 21zM311 274q9 -17 1 -45q-6 -18 -19 -38q-14 -21 -32.5 -39t-48.5 -41.5t-39 -30.5q-66 -54 -96 -123q-2 -4 -7.5 -4.5t-10 3.5t-2.5 10q33 73 105 128q10 8 25 19.5t26.5 20.5t24 19.5t23.5 22
t19 24.5q29 43 18 68q-13 25 -66 16q-88 -17 -132 -78q-4 -5 -9 -1.5t-1 8.5q46 65 140 84q24 4 42 2q29 -5 39 -25z" />
    <glyph glyph-name="at" unicode="@" horiz-adv-x="420" 
d="M384 11q2 2 5 -1q2 -2 1 -3q-132 -132 -242 -142q-76 -8 -100 47q-26 60 29 153q35 60 91 95t120 40q38 2 65.5 -15t37.5 -44.5t-4 -64.5t-54 -70q-21 -16 -40 -21.5t-33.5 4.5t-17.5 37q-10 -12 -22 -22.5t-25 -17.5t-22 -6q-9 0 -12.5 6.5t1 18t16.5 24.5q12 14 32 17
t26 -10q11 12 13 12q3 1 5.5 0t4 -2t1.5 -2q1 -29 12 -40.5t25 -8.5t31 17q45 36 54.5 79t-17 70.5t-77.5 25.5q-55 -1 -113 -41q-48 -32 -82 -89q-59 -98 -21 -150q34 -45 116 -24q97 25 196 128zM195 -3q25 19 37 35q-4 7 -19 2t-25 -18q-22 -30 -9 -28q6 1 16 9z" />
    <glyph glyph-name="A" unicode="A" horiz-adv-x="578" 
d="M571 8q3 0 1 -3l-4 -1q-18 -1 -36.5 -1.5t-41 -1t-36.5 -0.5q-54 -178 -121 -350v0h-1q0 -2 -3.5 -2.5t-8 0.5t-8.5 3t-6.5 4.5t-1.5 4.5l1 1q18 51 32 88q8 34 8 60q2 38 -18 71t-55 52q-54 29 -150 36h-2h-3q-119 -179 -221 -345q-1 -1 -4.5 -0.5t-6.5 3t-2 3.5
q102 164 217 339q-65 2 -136 -5q-6 -1 -7 6q0 2 2 3q66 15 162 26q3 5 11.5 19t11.5 19q69 101 96 140.5t84.5 116t107.5 133.5q18 18 33 30.5t25.5 18t19 7.5t14.5 0t9 -4.5t7 -5.5q7 -13 6.5 -52t-5.5 -73q-6 -36 -19.5 -95t-24.5 -101l-11 -41q-21 -69 -30 -98
q66 -1 115 -5zM363 -175q41 115 62 176q-50 1 -166.5 -5t-120.5 -15q85 -6 141 -36q47 -28 62 -55q5 -6 18 -38q0 -4 2 -13t2 -14zM428 14q30 91 34 104q44 146 59 233q0 3 3 25t3 34q1 50 -4 56q-8 11 -32 -8q-19 -15 -44 -41q-17 -19 -34 -39t-35.5 -43t-32 -40
t-33.5 -44.5t-30 -41.5t-32.5 -46t-29.5 -42.5t-31.5 -46t-29.5 -43.5q-3 -3 -9.5 -14.5t-9.5 -14.5q35 4 138 8t150 4z" />
    <glyph glyph-name="A" unicode="&#xc1;" horiz-adv-x="578" 
d="M571 8q3 0 1 -3l-4 -1q-18 -1 -36.5 -1.5t-41 -1t-36.5 -0.5q-54 -178 -121 -350v0h-1q0 -2 -3.5 -2.5t-8 0.5t-8.5 3t-6.5 4.5t-1.5 4.5l1 1q18 51 32 88q8 34 8 60q2 38 -18 71t-55 52q-54 29 -150 36h-2h-3q-119 -179 -221 -345q-1 -1 -4.5 -0.5t-6.5 3t-2 3.5
q102 164 217 339q-65 2 -136 -5q-6 -1 -7 6q0 2 2 3q66 15 162 26q3 5 11.5 19t11.5 19q69 101 96 140.5t84.5 116t107.5 133.5q18 18 33 30.5t25.5 18t19 7.5t14.5 0t9 -4.5t7 -5.5q7 -13 6.5 -52t-5.5 -73q-6 -36 -19.5 -95t-24.5 -101l-11 -41q-21 -69 -30 -98
q66 -1 115 -5zM363 -175q41 115 62 176q-50 1 -166.5 -5t-120.5 -15q85 -6 141 -36q47 -28 62 -55q5 -6 18 -38q0 -4 2 -13t2 -14zM428 14q30 91 34 104q44 146 59 233q0 3 3 25t3 34q1 50 -4 56q-8 11 -32 -8q-19 -15 -44 -41q-17 -19 -34 -39t-35.5 -43t-32 -40
t-33.5 -44.5t-30 -41.5t-32.5 -46t-29.5 -42.5t-31.5 -46t-29.5 -43.5q-3 -3 -9.5 -14.5t-9.5 -14.5q35 4 138 8t150 4z" />
    <glyph glyph-name="B" unicode="B" horiz-adv-x="559" 
d="M545 -9q3 0 4 -1q-1 -4 -6 -6q-2 0 -16.5 -1.5t-31.5 -3.5t-31 -3l-14 -1q-19 -91 -107 -174q-95 -88 -226 -131q-74 -23 -131 -21q-40 1 -67 14q-40 19 -44 55q-4 31 26 66q18 21 50 43q50 32 116 60q85 34 175 57.5t183 35.5q8 30 6 54q-1 28 -23 48.5t-54 28.5
q-50 13 -125 7q-76 -7 -193 -44q-34 -54 -56 -94t-31.5 -59.5t-37.5 -81.5q-7 -14 -15 4q59 140 104 220q-9 -2 -11.5 6.5t4.5 12.5q5 2 10 5t10.5 6t8.5 6q25 37 74.5 126t82.5 137q-83 -45 -156 -103q-1 -2 -5 -1t-5.5 3.5t1.5 7.5q7 8 73 53t112 68q69 97 83 115q1 2 6 0
t8.5 -6t1.5 -6q-12 -17 -33.5 -47.5t-26.5 -37.5q44 18 81 21q48 3 63 -27q13 -29 -19.5 -71.5t-81.5 -81.5q-24 -19 -96.5 -69.5t-113.5 -77.5q108 25 157 30q80 6 130 -5q39 -8 63 -28q29 -23 34 -62q1 -24 -3 -53q2 0 47 3.5t46 3.5zM221 383q-33 -46 -81 -133.5
t-72 -124.5q25 15 80 53.5t116.5 87.5t81.5 75q33 46 15 64q-25 23 -140 -22zM401 -82q14 25 22 53q-189 -29 -350 -98q-65 -28 -112 -60q-30 -22 -47 -41q-24 -29 -20 -51q3 -25 34 -40q23 -10 59 -11q54 0 122 22q126 43 216 128q51 48 76 98z" />
    <glyph glyph-name="C" unicode="C" horiz-adv-x="476" 
d="M469 -6q3 -2 0 -5q-78 -83 -161 -153q-106 -89 -184 -127q-62 -30 -110 -28q-31 0 -57.5 19.5t-35.5 49.5q-16 45 -6 115q8 49 30 109q81 215 254 365q46 39 94 64q29 16 54 21q16 4 31 -1q18 -5 24 -24q3 -12 4 -23t-1.5 -26t-3.5 -20t-7 -24t-6 -21q-18 -56 -38 -100
q-4 -11 -13 2q-5 9 -3 16q29 52 40 87q22 71 13 103q-7 21 -37 14q-22 -6 -48 -21q-45 -24 -89 -63q-157 -140 -245 -358q-22 -57 -30 -104q-11 -64 3 -104q8 -24 28 -39.5t46 -17.5q43 -2 102 25q79 36 184 120q84 68 163 149q2 3 5 0z" />
    <glyph glyph-name="D" unicode="D" horiz-adv-x="560" 
d="M550 342q7 -36 3 -75q-8 -70 -38 -142q-29 -71 -69 -130q-39 -60 -90 -114q-109 -117 -234 -174q-53 -27 -139 -46q-47 -8 -74 -8q-49 3 -74 21q-19 12 -23 35q-3 21 6 41q13 31 47 60q44 37 111 62q52 147 91 246q38 96 88 209q-77 -49 -150 -108q-5 -4 -8 5q-1 6 2 12
q7 8 65.5 50t102.5 67q41 90 63 137q1 2 4.5 2t7.5 -1.5t7.5 -3.5t5.5 -4.5t1 -4.5v-1q-6 -13 -49 -102q1 1 12 7t17 9q65 35 136 52q5 0 12 1.5t13.5 2t11.5 1.5q1 0 16 -0.5t22 -1.5l12.5 -2.5t13.5 -3.5t11 -5l18 -10l14 -14q5 -3 9 -8.5t7.5 -12.5t6.5 -11q1 -4 4 -11.5
t4.5 -13.5t2.5 -12zM528 269q4 36 -1 69q0 4 -1 8t-2.5 7.5t-3 8t-2.5 8.5q-2 3 -5 8.5t-6 10.5t-7 7q-40 46 -124 28q-70 -14 -133 -47q-17 -8 -48 -26q-64 -136 -107 -241q-38 -93 -90 -230q126 39 284 25q2 0 1.5 -5t-2.5 -5q-158 11 -282 -31q-2 -1 -4.5 -2t-3.5 -1
q-31 -84 -48 -129q0 -1 -2.5 -1t-5.5 1t-5 2.5t-2 3.5q4 11 41 114q-55 -24 -93 -56q-30 -26 -40 -53q-7 -15 -4 -30t15 -23q20 -14 63 -15q24 -1 69 8q83 21 133 46q120 56 224 170q94 101 154 236q30 68 38 134z" />
    <glyph glyph-name="E" unicode="E" horiz-adv-x="409" 
d="M406 3q7 -3 4 -6q-27 -34 -61 -71.5t-86 -86t-101.5 -83.5t-106 -55.5t-101.5 -11.5q-15 3 -27.5 12t-21 21t-13.5 25q-16 40 -5 84q16 67 81 138q83 87 201 161q-8 0 -14.5 -0.5t-19.5 0.5t-22 3.5t-19 9t-14 16t-3.5 24.5t8.5 35q5 10 10.5 19t12 17.5t12.5 16t14 16
t13.5 14t15.5 14t14.5 13t15.5 13.5t15 13q43 35 72 54q25 16 40 23q0 1 6.5 3.5t8 3t7 2.5t9 2h8.5t10 -1q16 -5 19 -23q2 -12 0 -25q-2 -19 -11 -45q-13 -39 -35 -83q-11 0 -12 17q0 8 6 19.5t15 26t12 25.5q8 25 9 42q4 28 -8 30q-12 3 -36 -10q-14 -6 -37 -22
q-28 -20 -70 -55q-30 -27 -45 -41.5t-36 -39.5t-32 -48q-12 -27 0.5 -43t38.5 -18.5t49.5 -1.5t36.5 5q2 -1 1.5 -7.5t-3.5 -8.5q-74 -47 -133 -91.5t-106 -95.5q-62 -69 -78 -124q-10 -35 2 -68q12 -38 43 -46q74 -19 195 59.5t252 233.5z" />
    <glyph glyph-name="F" unicode="F" horiz-adv-x="319" 
d="M517 412q6 0 0 -11q-2 -4 -5 -4q-64 -4 -183.5 -20t-164.5 -25q-43 -9 -70 -17q-6 -1 -36 -13l-0.5 -1.5t-1.5 -3.5t-2.5 -4.5l-3 -5t-3 -4t-3 -2.5t-2.5 0q-13 6 -13 7q-3 1 -4 3q-3 4 -4 10q0 5 6 15q7 6 21 12q14 5 36 11q29 7 72 15q42 8 167.5 21.5t193.5 16.5z
M73 118q128 21 230 29q5 0 -2 -8q-5 -4 -9 -5q-95 -9 -231 -39q-29 -65 -164 -442q-1 -5 -7.5 -7t-14.5 3q28 100 80.5 251t70.5 187q-3 -1 -12 -3t-14 -3q-8 -2 8 26q8 2 16 3t14 2q32 72 110 218q3 3 8 1t9.5 -7.5t2.5 -8.5q-47 -91 -95 -197z" />
    <glyph glyph-name="G" unicode="G" horiz-adv-x="582" 
d="M576 3q3 0 3 -3q0 -2 -1 -2q-51 -10 -89 -23q0 -2 -3 -8.5t-4 -9.5q-80 -164 -250 -302q-100 -77 -169 -102q-57 -20 -95 -17q-27 1 -46 15q-22 15 -22 43q0 38 42 92q28 32 73 68q71 56 165 105q123 63 285 119q36 79 46 162q6 49 0 86q-3 22 -15.5 33.5t-28.5 0.5
q-1 0 -2.5 -1t-1.5 -2q1 -6 -4 -12t-14 -5q-8 -8 -11 -12l-34 -35q-59 -61 -69 -70q-87 -86 -149 -129q-29 -18 -44 -25q-29 -14 -52 -11q-14 1 -23.5 12.5t-11.5 25.5q-3 17 3 49q19 90 81 178q35 47 68 74q46 37 93 41q44 3 90 -22q29 -15 67 -45q0 1 2 2l3 3q12 8 28 8.5
t26 -8.5q15 -13 23 -42q8 -35 2 -94q-9 -75 -42 -152q36 12 81 15zM421 239q3 3 9 10q-69 74 -135 69q-69 -5 -140 -107q-59 -92 -77 -167q-6 -21 -3 -41.5t18 -21.5q25 -3 78 31q61 41 148 123l69 69zM219 -328q164 134 239 292q-154 -56 -272 -119q-95 -52 -161 -104
q-43 -35 -69 -66q-37 -47 -36 -78q-1 -19 14 -30t38 -11q34 -2 86 17q65 23 161 99z" />
    <glyph glyph-name="H" unicode="H" horiz-adv-x="473" 
d="M547 488q6 10 16 -5q6 -8 3 -13q-88 -145 -149 -272l36 4q23 2 46 2q12 0 24 -1q2 -1 6 -1.5t6.5 -1.5t7 -3t8.5 -5q3 -2 0 -8.5t-8.5 -11t-8.5 -2.5l-1 1l-1 1q-7 6 -34 6q-22 1 -43 -1q-37 -2 -50 -3q-100 -213 -162 -448v-1v0q-2 -3 -7 -1.5t-11 5.5l-6 3
q18 67 46 151q5 23 7 37q6 47 -2 97q-9 54 -46 76q-33 20 -94 19q-4 0 -28 -2q-18 -10 -96 -217.5t-83 -262.5q0 -7 -17 -12q-13 -3 -12 5q15 87 64 223q33 92 88 213q0 1 21 46q-52 -9 -138 -39v0q-3 -1 -4 3q-3 13 6 24q2 1 3 2q51 17 147 40q36 75 65 130q29 56 56 102
q3 5 11 19t13 21t12 18t14.5 21t16.5 19q6 7 16 -5q8 -10 2 -17q-19 -21 -50 -71.5t-64.5 -114t-53.5 -113.5q36 8 69 15q94 20 176 32q3 1 8 1.5t10.5 1.5t8.5 1q78 162 156 293zM291 -43q39 106 89 213q-2 0 -7 -0.5t-6 -1.5q-82 -10 -175 -29q-29 -7 -56 -13q62 0 95 -21
q43 -27 53 -86q4 -19 5.5 -33.5t1.5 -28.5z" />
    <glyph glyph-name="I" unicode="I" horiz-adv-x="287" 
d="M443 409q3 0 2.5 -6.5t-3.5 -5.5q-62 3 -174 -17q-185 -283 -293 -619q85 14 178 12q3 -1 3 -8.5t-3 -7.5q-98 0 -185 -18q-15 -49 -22 -72q-1 -3 -6.5 -3t-10.5 3t-4 6q3 11 17 61q-95 -23 -122 -75q-2 -2 -8.5 -1.5t-12.5 4t-5 7.5q20 36 59.5 55.5t95.5 32.5
q100 332 274 614q-78 -16 -141 -34q-3 -1 -8.5 5t-7.5 11.5t1 7.5l8 2q80 19 164 33q29 46 41 63q3 3 10.5 0t13.5 -9.5t4 -9.5v-1q-4 -5 -8 -11.5t-9 -13.5t-8 -12q99 13 160 7z" />
    <glyph glyph-name="J" unicode="J" horiz-adv-x="458" 
d="M472 297q-3 -59 -30 -139q-38 -108 -106 -213q3 0 8.5 0.5t9.5 0.5q1 0 1 -4t-1 -4q-5 0 -12.5 -0.5t-10.5 -0.5l-19 -28q-84 -118 -193 -199q-66 -48 -129 -63q-59 -15 -87.5 6.5t-15.5 68.5t65 99q46 46 127 79q97 39 224 45q81 122 117 222q27 76 31 132q3 36 -6 68
t-33 49q-41 28 -121 -15q-51 -27 -110 -81q-110 -104 -170 -196q-4 -6 -8 3q-6 11 4 24q28 40 77 94.5t86 85.5q5 4 15 13t15.5 13.5t15 12.5t16.5 13.5t15.5 11.5t17 11.5t17.5 10.5q33 19 67 27q44 10 75 -11q30 -19 42 -63q8 -34 6 -73zM291 -73q1 1 2 3t2 3.5t2 2.5
q-121 -10 -213 -50q-67 -29 -115 -72q-59 -55 -69 -110q-2 -17 3 -29.5t17 -14.5q23 -4 63 5q56 14 119 61q105 80 189 201z" />
    <glyph glyph-name="K" unicode="K" horiz-adv-x="551" 
d="M675 445q2 -2 -2 -5.5t-6 -1.5q-6 7 -14.5 12t-21 8.5t-28 1.5t-33.5 -8.5t-41 -21.5t-47 -36q-57 -51 -222 -234q-40 -44 -120 -116q24 -13 62 -49t76 -74t78.5 -73t78.5 -52.5t65 -6.5q9 -8 -3 -11q-29 -7 -56.5 -0.5t-59 26t-59 43.5t-57.5 53t-54 53.5t-48.5 45.5
t-41.5 29q-10 -8 -29.5 -19.5t-29.5 -12.5q-63 -152 -132 -364q-1 -1 -3.5 -1t-5.5 1t-5 2.5t-2 2.5q60 194 125 361q-31 8 -38 38q-3 9 2 18t12 12q11 6 31 8q13 0 22 -1q49 118 85.5 195t91.5 169q3 4 10 3t12.5 -5t3.5 -8q-41 -64 -90.5 -163.5t-89.5 -196.5
q18 -5 34 -13q55 52 183 192.5t161 164.5q38 29 72 44t55.5 17t39.5 -3.5t26 -11.5t13 -12zM42 10l1 0.5t1 -0.5q13 34 17 45q-10 2 -15 2q-14 1 -24 -4t-8 -15q4 -24 28 -28zM68 12q14 1 40 25q-10 6 -25 11q-3 -7 -8.5 -20.5t-6.5 -15.5z" />
    <glyph glyph-name="L" unicode="L" horiz-adv-x="372" 
d="M376 -161q3 0 4.5 -4.5t0.5 -9t-3 -4.5q-65 -7 -188 -29.5t-166 -33.5q-41 -11 -69 -19q-20 -7 -32 -13q-1 -2 -1.5 -3.5t-2 -4.5l-2.5 -5t-3 -4.5t-3.5 -3.5t-2.5 0l-14 6q-2 1 -4 3q-3 4 -4 10q0 5 5 15q7 6 20 13q14 6 36 13q2 0 5 1t4 1q11 77 80.5 235t142 292.5
t102.5 166.5q6 5 21 -5q6 -6 5 -9q-26 -25 -98.5 -157.5t-143 -288.5t-84.5 -227q3 0 16.5 4t20.5 5q42 10 166.5 30t191.5 26z" />
    <glyph glyph-name="M" unicode="M" horiz-adv-x="724" 
d="M273 -68q202 341 338 440q83 61 106 6q14 -32 3 -97q-16 -91 -71 -225q-18 -43 -72 -182.5t-61 -160.5q-16 -47 21 -43q10 1 32 10q3 -1 1 -5q-7 -4 -19 -8t-26 -5.5t-23.5 6.5t-8.5 26q1 13 4 24q8 35 27 89l98 260q106 266 63 308q-34 32 -141 -87q-136 -150 -300 -443
q-10 -2 -20 0t-5 14q36 83 74.5 195.5t45.5 180.5q1 10 1.5 20.5t0 22.5t-3 21t-7 17t-12.5 10t-18.5 0t-25.5 -12.5t-34 -28.5q-69 -68 -155.5 -215t-133.5 -278q-10 -1 -12.5 3.5t-3.5 17.5q-4 53 10.5 123t30.5 114t33 83q72 160 163 305q12 19 31 10
q-102 -166 -171 -325q-39 -89 -62 -172q-17 -64 -21 -114q125 286 279 455q28 30 54.5 42.5t45.5 6t28.5 -33t5.5 -70.5q-9 -91 -89 -305z" />
    <glyph glyph-name="N" unicode="N" horiz-adv-x="427" 
d="M342 393q13 9 25 13.5t24 4.5t20.5 -8t12.5 -28t2 -52q-3 -37 -16 -92q-17 -70 -57 -175q-12 -33 -49.5 -115.5t-45.5 -101.5q-24 -58 -33 -84q-6 -15 -4.5 -23t4 -12.5t10.5 -5t13.5 0t13.5 3.5t11.5 4.5t6.5 2.5l2 -3q-16 -12 -40.5 -16.5t-32.5 2.5q-7 9 -7 28
q1 11 4 24q8 35 27 89l91 218q38 96 58 171q14 52 18 88q2 28 1 43.5t-8.5 20t-17 2t-23.5 -10.5q-81 -62 -207 -229t-211 -331q-19 -1 -14 35q51 203 166 451q9 10 16 7q2 -1 1 -4q-24 -57 -75 -199t-66 -203q104 177 220.5 317.5t159.5 167.5z" />
    <glyph glyph-name="O" unicode="O" horiz-adv-x="474" 
d="M487 382q3 -30 -2 -77q-20 -137 -96 -286q-79 -152 -175 -245q-60 -58 -124 -87q-33 -16 -74 -20q-46 -5 -77 10q-18 8 -30 25.5t-15 38.5q-6 33 2 77q13 62 51 143q32 67 80 142q-10 34 -9 65q3 76 49 141q44 63 107 107.5t136 61.5q23 5 38 6q30 2 38 0q3 0 9 -0.5
t10 -0.5t9.5 -1t9.5 -3q19 -5 35 -23q22 -25 28 -74zM458 309q6 49 5 71q-2 43 -18 65q-15 23 -60 26q-7 1 -36 -1q-14 0 -36 -5q-47 -11 -91 -34t-80.5 -55.5t-64.5 -72.5q-46 -65 -47 -136q-1 -22 6 -50q51 80 67 99q8 10 13.5 7.5t6 -10t-0.5 -10.5q-43 -59 -78 -114
q12 -31 31 -56q1 -2 -1.5 -4.5t-5.5 -4t-4 0.5q-16 21 -28 51q-40 -65 -70 -125q-36 -75 -50 -137q-9 -40 -5 -70q5 -39 35 -54q24 -14 69 -10q36 4 68 21q55 27 114 90q91 100 164 243q78 157 97 275z" />
    <glyph glyph-name="P" unicode="P" horiz-adv-x="434" 
d="M322 424q48 10 86 9t63 -14.5t40.5 -32.5t16.5 -45.5t-8.5 -54.5t-34 -59t-60.5 -59q-58 -45 -128 -79q-124 -56 -246 -80q-75 -169 -121 -325q-2 -6 -16 -6q-3 1 -4 2q45 161 112 323q-1 0 -3.5 -0.5t-3.5 -0.5q-3 -1 -5.5 4t-2.5 10.5t3 6.5q5 1 12.5 3t11.5 3
q64 151 152 318q-45 -25 -106 -70q-5 -4 -16 5q-4 3 -2 4q66 50 137 86q41 77 75 137q4 3 11.5 1t14.5 -8t4 -10q-28 -48 -55 -96q38 17 73 28zM492 292q14 33 7 62t-37 45q-49 26 -135 7q-38 -6 -91 -32q-99 -177 -172 -338q124 30 221 76q74 36 121 74q61 49 86 106z" />
    <glyph glyph-name="Q" unicode="Q" horiz-adv-x="450" 
d="M440 407q21 -30 24.5 -70.5t-3.5 -70.5q-9 -61 -38 -133q-27 -65 -61 -123q-80 -135 -169 -215q-34 -29 -60 -45q18 -22 28 -32q42 -41 82 -31q36 10 79 53q2 2 5 -3l1 -2q-44 -50 -82 -62q-27 -8 -54 2q-21 8 -44 29q-15 14 -34 36q-22 -11 -41 -16q-40 -8 -72 5
q-18 6 -30 21.5t-17 34.5q-11 50 11 138q15 55 46 128q44 100 126 237q3 4 13 2t10 -6q19 31 38 56q52 68 104 91q35 15 72 11q43 -4 66 -35zM433 270q16 79 -14 121q-5 7 -13.5 14.5t-28.5 14t-42.5 3t-56.5 -26.5t-70 -67q-30 -36 -70 -113q-18 -35 -40.5 -97.5
t-36.5 -106.5l-14 -45q-1 -4 -9 5q40 148 89 250q-58 -100 -95 -181q-30 -68 -47 -124q-23 -83 -13 -128q8 -33 36 -44q26 -11 59 0q15 5 31 14q-11 14 -17 20q-46 53 -79 34q-2 -1 -3 1t1 4q11 8 26 10.5t28 -3.5q20 -8 42 -32q5 -5 20 -23q29 19 57 47q94 93 161 210
q78 139 99 243z" />
    <glyph glyph-name="R" unicode="R" horiz-adv-x="479" 
d="M393 -228q-1 -7 -9 -10t-16 2q-28 16 -73 72t-92 120.5t-71 87.5q-24 -3 -49 -3q-135 -276 -170 -367q-1 -2 -4 -1.5t-6 1.5t-5.5 3t-1.5 3q28 74 163 362q-18 3 -30 12q-9 6 -12 15.5t3 23.5q6 8 16.5 12t21 3t17.5 -2.5t12 -4.5q4 10 47 93q18 35 27 51t23 39.5
t29 50.5q-54 -35 -111 -77q-1 -1 -3.5 1t-3.5 5t0 4q82 64 140 102q59 100 79 133q2 3 8 -1t10.5 -10.5t2.5 -9.5q-27 -43 -50 -81q173 92 246 48q52 -31 29 -113q-6 -20 -17 -42q-14 -28 -42 -60t-73.5 -67.5t-115.5 -67.5t-153 -51q14 -14 38 -45.5t49.5 -65.5t52 -68
t52 -61t42.5 -36zM155 183q-45 -85 -48 -90q7 -5 36 -28q118 28 218.5 85.5t146.5 131.5q22 36 31 67t4.5 50.5t-18.5 33t-37 15t-51 -4.5q-51 -12 -117 -46q-28 -15 -57 -32q-19 -31 -39 -62.5t-33.5 -54.5t-35.5 -65zM65 58h1h1q2 3 5.5 10.5t5.5 11.5q-15 7 -25 9
q-18 3 -23 -5q-1 -1 -0.5 -3.5t1.5 -4.5t3 -4.5t5 -4.5q11 -8 26 -9zM92 59q7 0 22 2q-4 3 -17 9q-1 -2 -2.5 -5.5t-2.5 -5.5z" />
    <glyph glyph-name="S" unicode="S" horiz-adv-x="451" 
d="M443 298q2 9 4.5 23.5t3 46t-8.5 48.5q-14 27 -44.5 40t-66.5 12q-66 -3 -125 -40.5t-88 -95.5q-12 -22 -14.5 -48.5t0.5 -48t12.5 -48.5t16.5 -42t18.5 -38t13.5 -26l60 -123q81 37 123 50q3 1 3 -1l-2 -5q-74 -31 -120 -54q10 -22 16 -44.5t8 -50t-7.5 -53t-28.5 -49.5
t-56.5 -44.5t-89.5 -32.5q-75 -19 -115 8q-46 31 13 100q62 71 229 164q-3 8 -59 122q-25 50 -37 78.5t-21 64t-4.5 66t19.5 65.5q19 44 57 77t83.5 49.5t94.5 18.5q41 0 72 -13q37 -16 55 -50q11 -23 13 -52q11 25 17 57q5 11 17 6q6 -3 4 -8q-32 -78 -45 -138
q-3 -16 -16 -12q-12 6 -5 21zM-47 -263q-8 -35 42 -47q63 -15 134 16q89 39 97 121q5 49 -24 109q-58 -30 -110.5 -64t-92.5 -71t-46 -64z" />
    <glyph glyph-name="T" unicode="T" horiz-adv-x="335" 
d="M638 472q4 -1 -3 -10q-2 -4 -4 -4q-68 2 -183 -13q-63 -8 -144 -23q-90 -161 -168 -348q-94 -227 -143 -422q-2 -3 -6.5 -3t-9.5 2.5t-4 4.5q47 198 138 428q71 178 152 330h-1.5h-1.5q-98 -20 -185 -43q-52 -14 -91 -27q-25 -9 -44 -17q-2 -1 -8.5 -8.5t-13 -13.5
t-9.5 -5q-5 2 -9 4t-6.5 8.5t0.5 11.5q1 4 3 6.5t3.5 3.5t3.5 2.5t3 2.5q8 5 23 11q20 8 46 17q40 13 93 26q88 22 187 41q3 0 6 0.5t6.5 1t6.5 1.5q27 50 29 53q3 4 10.5 1.5t14 -8t4.5 -9.5l-6 -10t-6 -11t-5 -9q74 12 130 18q117 13 192 10z" />
    <glyph glyph-name="U" unicode="U" horiz-adv-x="630" 
d="M629 480q2 5 14.5 -1t10.5 -11q-105 -227 -161 -380q-41 -114 -62 -196q-14 -59 -15 -100q-2 -73 38 -80q1 -1 1 -3t-1 -3.5t-2 -1.5q-14 1 -26 10.5t-18 23.5q-9 19 -10 54q0 44 12 104q17 86 58 201q22 61 52 136q-63 -103 -122 -185q-77 -110 -152 -193
q-89 -102 -184 -165q-1 0 -8 -5t-9.5 -6.5t-8.5 -5t-9.5 -5.5t-8.5 -4.5t-10 -4.5q-19 -8 -32 -10q-23 -3 -38 8q-14 12 -17 34q-2 16 0 34q2 24 12 62q24 87 89 230q98 213 223 437q3 3 10 1t13.5 -7.5t4.5 -9.5v0q-145 -250 -229 -432q-64 -140 -89 -225q-9 -35 -12 -59
q-4 -37 9 -47q13 -12 47 4q15 6 51 29q93 60 182 160q88 99 151 191q147 213 246 421z" />
    <glyph glyph-name="U" unicode="&#xda;" horiz-adv-x="630" 
d="M629 480q2 5 14.5 -1t10.5 -11q-105 -227 -161 -380q-41 -114 -62 -196q-14 -59 -15 -100q-2 -73 38 -80q1 -1 1 -3t-1 -3.5t-2 -1.5q-14 1 -26 10.5t-18 23.5q-9 19 -10 54q0 44 12 104q17 86 58 201q22 61 52 136q-63 -103 -122 -185q-77 -110 -152 -193
q-89 -102 -184 -165q-1 0 -8 -5t-9.5 -6.5t-8.5 -5t-9.5 -5.5t-8.5 -4.5t-10 -4.5q-19 -8 -32 -10q-23 -3 -38 8q-14 12 -17 34q-2 16 0 34q2 24 12 62q24 87 89 230q98 213 223 437q3 3 10 1t13.5 -7.5t4.5 -9.5v0q-145 -250 -229 -432q-64 -140 -89 -225q-9 -35 -12 -59
q-4 -37 9 -47q13 -12 47 4q15 6 51 29q93 60 182 160q88 99 151 191q147 213 246 421z" />
    <glyph glyph-name="V" unicode="V" horiz-adv-x="444" 
d="M502 490q2 2 6.5 1t9 -5t3.5 -6h-1q-176 -296 -235 -390q-9 -14 -39.5 -62.5t-42.5 -67.5t-39 -60.5t-44.5 -66.5t-42.5 -58.5t-48 -61.5t-41 -43q-18 -14 -30 -17q-5 -1 -12.5 1.5t-11.5 7.5q-5 7 -8 17q-2 13 -3 24.5t0 25.5t1.5 21.5t3 25t3.5 21.5q14 86 48 224
q63 233 131 436q2 3 8.5 2.5t12.5 -4t5 -6.5q-90 -291 -128 -436q-18 -64 -30.5 -116.5t-21.5 -103.5q-12 -77 -7 -108q1 -4 4 -8h1q6 1 19 11q16 14 39 39q44 54 94 124.5t79 115.5t85 132q143 232 232 391z" />
    <glyph glyph-name="W" unicode="W" horiz-adv-x="667" 
d="M717 477q17 -40 -29 -163.5t-118.5 -254.5t-132.5 -206q-25 -31 -37.5 -46t-36 -39t-45.5 -42q-29 -18 -46 -19q-18 -1 -29 12q-8 8 -13 24q-7 30 -2 90q6 61 29 171l17 84q4 21 7 41q3 28 0 37q-2 -1 -3 -1q-7 -4 -16 -11q-13 -11 -30 -28q-27 -29 -56 -64
q-53 -66 -105 -136q-72 -95 -106 -136q-37 -45 -59 -64q-10 -6 -16 -6q-3 0 -7 4q-2 1 -4 5q-1 5 -1 8q0 8 2 23q4 17 11 43q36 116 121 322q63 153 134 316q1 2 4 2t6.5 -1t6.5 -3t5 -4t1 -4q-73 -164 -136 -315q-7 -16 -25.5 -61t-27.5 -68t-23.5 -59.5t-26 -68
t-21.5 -62.5q-8 -24 -11 -40q-2 -10 -2 -17q21 18 57 61q34 41 106 134l104 137q39 49 55 67q17 19 31 31q10 9 20 14q11 4 16 4t11 -5q1 -1 6 -8q2 -6 3 -11t1 -10.5v-9t-0.5 -9t-0.5 -8.5q-2 -21 -5 -44q-3 -18 -16 -85q-25 -136 -28 -168q-6 -53 0 -80q5 -17 16 -18
q10 0 32 14q60 43 120 120q58 73 126 195t113 241.5t35 169.5q-1 4 3.5 6.5t9.5 1.5t6 -3z" />
    <glyph glyph-name="X" unicode="X" horiz-adv-x="520" 
d="M478 -155q6 -1 7.5 -5t-2.5 -6q-148 -100 -243 -67q-38 14 -63 54q-18 28 -30 74q-14 63 -15 141q-173 -176 -332 -371q-2 -3 -7.5 1.5t-3.5 7.5q163 206 343 391q0 53 7 142q0 9 5.5 66t7.5 87q3 42 1 75v3q0 5 -0.5 8.5t-1.5 11.5t-3 11.5t-5 9t-8 4.5t-12 -2
q-8 5 -4 7q15 8 25 8q15 -1 23 -17q8 -14 11 -42q2 -25 0 -79q-2 -30 -6.5 -87.5t-5.5 -66.5q-6 -91 -7 -110q220 222 450 397q3 2 8.5 -3t9 -11.5t0.5 -8.5q-240 -177 -468 -406q-3 -94 12 -161q20 -94 77 -114q92 -31 230 58z" />
    <glyph glyph-name="Y" unicode="Y" horiz-adv-x="597" 
d="M597 -2q1 -2 0 -7q-94 1 -195 -35q-41 -86 -84 -155q-61 -96 -120 -148q-44 -37 -83 -51q-23 -8 -49 -10q-36 -1 -53 13q-20 19 -9 55q7 20 23 44q23 35 62 73q64 63 150 115q66 39 134 65q44 93 81 195q37 101 55 177q15 63 12 88v1v1q-6 -3 -15 -11q-13 -12 -33 -32
q-19 -21 -76.5 -86t-98 -107.5t-81.5 -82.5q-83 -78 -151 -114q-28 -14 -45 -19q-16 -4 -27 -1q-18 2 -24 20t0 52q4 20 13 46q31 80 72 156.5t102 178.5q3 3 9.5 1t12 -7t3.5 -9h-1q-129 -204 -178 -327q-22 -60 -15 -84q4 -14 29 -9q17 4 41 17q66 35 148 111
q42 38 82.5 82.5t92.5 106.5t76 89q20 22 34 34q13 12 22 16q13 6 23 -1q5 -6 8 -18q2 -6 1.5 -17.5t-1 -17t-2 -16t-2.5 -15.5t-3 -15.5t-3 -15.5q-19 -84 -54 -182q-34 -93 -71 -172q97 30 188 28zM296 -185q33 52 69 126q-60 -25 -118 -62q-82 -51 -146 -115
q-37 -37 -58 -71q-14 -22 -19 -39q-8 -25 3 -33q24 -17 80 2q36 13 75 48q56 51 114 144z" />
    <glyph glyph-name="Z" unicode="Z" horiz-adv-x="552" 
d="M552 -158q3 -1 4.5 -2.5t2 -2.5t0 -3.5l-0.5 -2.5q-66 -41 -154 -50q-131 -13 -319 46q-12 4 -34 11q-33 -24 -65 -40q-3 -1 -9 -4t-9.5 -4.5t-9.5 -3.5t-10 -3.5t-10 -3t-10.5 -1.5h-10.5h-12q-23 4 -35 26t-6 45q6 24 28 37q19 10 44 9q20 -1 81 -19l34 -12
q44 39 106 103q43 46 121 136t90 104q85 96 107 119q46 49 67 68q-7 0 -65 2t-88 1q-97 -3 -154 -24q-40 -15 -66 -38q-28 -27 -36 -65q-2 -7 -8 -5q-6 1 -5 7q7 43 37 75q26 27 71 44q60 23 160 28q82 3 161 -3l16 -1q16 14 28 22q16 10 19 11q14 5 24 -3q12 -9 11 -24
q-1 -14 -16 -21q-7 -2 -14 -3t-16 -1.5t-12 -0.5l-27 -1q-20 -20 -72 -81l-101 -124q-57 -70 -103 -123q-58 -67 -109 -118q-52 -53 -102 -91l18 -6q188 -61 309 -53q85 7 150 44zM599 427q-2 -1 -15 -13h5q32 -1 36 0q7 2 8 9t-4 12q-9 8 -30 -8zM-21 -188q23 13 49 34
q-62 22 -93 26q-9 1 -17.5 0t-16 -4.5t-13 -9.5t-8.5 -14q-7 -16 1.5 -33.5t26.5 -19.5q26 -4 71 21z" />
    <glyph glyph-name="bracketleft" unicode="[" horiz-adv-x="347" 
d="M357 438q19 1 3 -17q-29 -3 -57 -8q-59 -129 -138 -330.5t-124 -336.5q27 5 66 10q14 1 1 -14q-3 -2 -3 -3q-36 -4 -68 -9q-1 -1 -2 -4t-1 -5q-4 -10 -9 0q-2 3 -2 6q-11 -1 -17 -3q-4 0 -4 3q-1 7 7 10l15 5q20 78 106 303t152 364q-3 -1 -8 -4t-8 -3t-3 3q-1 10 8 15
q9 4 20 7q5 9 9 18q2 2 6 1.5t7 -4t1.5 -6.5t-2.5 -4q18 3 45 6z" />
    <glyph glyph-name="backslash" unicode="\" horiz-adv-x="185" 
d="M55 345q20 -39 56.5 -218.5t48.5 -308.5q0 -6 -11 -10q-5 -1 -5 2q-16 129 -44.5 280.5t-59.5 251.5q-1 4 2 6.5t7 1.5t6 -5z" />
    <glyph glyph-name="bracketright" unicode="]" horiz-adv-x="376" 
d="M365 431q16 -2 0 -16h-9q-58 -125 -135 -321t-122 -333q1 0 5.5 0.5t6.5 0.5q14 0 -2 -16q-1 -2 -2 -2q-8 -1 -14 -1q-5 -15 -7 -22q-4 -10 -9 0q-3 6 -2 13q1 3 2 8q-46 -4 -71 -7q-4 -1 -4 3q-1 8 8 11q15 6 71 11q28 95 111.5 310.5t145.5 346.5q-18 1 -61 1
q-6 0 -1 7q2 4 7 5q21 5 63 3q1 1 2 3.5t2 4.5l2 4q2 3 6 2t7 -4.5t2 -6.5q-2 -4 -3 -5h1z" />
    <glyph glyph-name="underscore" unicode="_" horiz-adv-x="259" 
d="M194 -43q2 0 3.5 -3t1 -5.5t-5.5 -1.5q-23 1 -83.5 -3t-76.5 -8q-2 -1 -3 2q-1 8 4 11q45 11 99 12t61 -4z" />
    <glyph glyph-name="grave" unicode="`" horiz-adv-x="74" 
d="M61 354q1 -5 4 -14t5 -15.5t1 -8.5q-3 -9 -19 12q-15 19 -11 28q1 4 9 5t11 -7z" />
    <glyph glyph-name="a" unicode="a" horiz-adv-x="221" 
d="M223 2q1 1 2 -2q1 -2 0 -2q-147 -92 -150 -32q-1 17 12 47q-31 -28 -38 -34q-31 -28 -53 -36q-16 -5 -23.5 2t0.5 27q3 8 12 18q13 17 30 30q18 14 37 18.5t39 -3.5l3 3l3 3q5 6 10 1q11 -8 10 -10q-33 -78 1 -77q27 0 105 47zM41 -12q26 21 46 42q-29 4 -60 -26
q-13 -12 -23 -27q-4 -6 -9 -14q-1 -2 -2 -5h1q5 2 17 8q11 7 30 22z" />
    <glyph glyph-name="b" unicode="b" horiz-adv-x="251" 
d="M247 2l2 -3h-1q-55 -15 -84 -29q-8 -15 -18 -28q-33 -38 -71 -60q-14 -8 -23 -10q-12 -1 -18 6q-5 8 0 19q10 13 36 31q26 17 62 35q13 16 19 28q10 22 -1 32q-15 14 -36 3q-16 -7 -34 -25q-46 -50 -96 -148v-1q-4 -7 -11 -3q-5 3 -4 8q11 92 56 237q43 132 105 221
q31 40 47 45q9 5 22 1t13 -17q-1 -19 -22 -64t-40 -76q-27 -43 -130 -193q-11 -36 -26 -109q37 64 79 106q20 20 37 28q27 15 49 -2q12 -9 14 -24q2 -12 -3 -26q0 -1 -0.5 -2.5l-0.5 -1.5q34 14 78 22zM45 87q0 -1 -12 -32q64 85 106 156q41 70 54 107q6 17 4 25q0 1 -2 1
q-4 1 -9 -2q-16 -9 -37 -40q-7 -11 -13.5 -21.5t-13.5 -24t-12 -22.5t-12.5 -25t-10.5 -22.5t-11 -26t-10 -23.5t-11 -26t-10 -24zM66 -102q26 19 53 49q-25 -14 -42 -28q-23 -18 -29 -29q-1 0 -1 -1h2q6 2 17 9z" />
    <glyph glyph-name="c" unicode="c" horiz-adv-x="165" 
d="M162 4q2 0 3 -4q-53 -40 -109 -58q-42 -14 -63 4.5t-5 50.5q7 14 16 25t17.5 17.5t16.5 10t14.5 4t11.5 0t7 -1.5q5 -4 8 -11l5 8q2 2 6 -1v-1l-10 -29l-6 4q1 3 1 5q0 14 -8 18t-19 -3q-37 -26 -39 -63q-2 -30 24 -32q9 -1 20 3q63 19 109 54z" />
    <glyph glyph-name="d" unicode="d" horiz-adv-x="295" 
d="M332 369q1 -6 0 -14q-1 -9 -6 -22q-7 -17 -18 -40q-31 -60 -92 -147q-27 -38 -57 -78q-3 -7 -8.5 -26.5t-11.5 -47.5t-8.5 -53.5t4 -41t22.5 -15t50 29.5t84 89q3 -2 4 -4q-165 -202 -185 -100q-9 48 8 120q-18 -26 -72 -73q-21 -19 -42 -23t-28 5q-10 11 -7 31
q11 40 59 72q23 15 45 15q21 0 37 -15q7 9 22 27q24 68 40 108q34 85 77 156q15 23 26 37q9 10 17 16q15 11 28 6q4 -1 7 -4q4 -3 5 -8zM99 18q1 0 4 4q-6 11 -18 11t-23 -5.5t-22 -14.5q-38 -26 -48 -59q-4 -13 1.5 -14.5t10.5 1.5q38 14 92 73q2 2 3 4zM313 338q7 23 1 29
q-8 3 -25 -20q-10 -13 -22 -35q-10 -17 -20.5 -38.5t-17 -37t-18 -41.5t-16.5 -38q-3 -7 -8 -20t-7 -17q68 92 115 179q12 23 18 39z" />
    <glyph glyph-name="e" unicode="e" 
d="M157 8q2 0 4 -5q-97 -71 -157 -68q-6 0 -12.5 2.5t-12.5 8.5t-5.5 19t10.5 30q15 25 38 39q14 9 27 10q8 1 16 -1q4 -2 9 -5.5t3.5 -13t-16.5 -21.5q-19 -15 -58 -25q-14 -31 20 -30q46 2 111 43q13 8 23 17zM34 17q-13 -10 -26 -29q32 9 47 23q20 18 6 19l-9 -2
q-9 -3 -18 -11z" />
    <glyph glyph-name="f" unicode="f" horiz-adv-x="159" 
d="M155 4l2 -4l-1 -2q-43 -9 -115 -29q-11 -3 -38 -12q-11 -26 -23 -58q9 -17 12 -38q5 -35 -2 -76q-14 -79 -50 -144q-6 -11 -12 -17t-12 -9q-7 -2 -13 2q-5 2 -8 8q-2 7 -3 13.5t-1 10t0.5 10.5t0.5 9q3 27 14 75q16 65 44 144q1 4 4 11t4 11q-5 6 -11 10h1q-6 3 -8 6
q-6 7 0 14q3 5 13 11q9 5 26 10q47 117 101 197q14 19 25 30q10 10 18 12q8 3 15 -1q8 -5 7 -14q-1 -13 -15 -38q-7 -12 -21 -31q-22 -30 -85 -106q-5 -12 -16 -40q2 1 13.5 4.5t17.5 4.5q53 14 116 26zM94 148q-23 -38 -49 -94q32 36 55 68q11 16 19 31q12 21 12 31
q0 2 -3 2q-5 -2 -12 -9q-10 -11 -22 -29zM-46 -71q2 -1 9 -8q9 24 10 25q-12 -5 -14 -6q-7 -4 -9 -7v-1q0 -1 3 -2h1v-1zM-27 -212q7 42 4 71q-1 10 -4 20q-28 -78 -43 -142q-8 -34 -13 -71q-2 -14 -2 -24q4 4 8 10q35 54 50 136z" />
    <glyph glyph-name="g" unicode="g" horiz-adv-x="229" 
d="M228 3l3 -4l-1 -1q-49 -29 -102 -73q-55 -179 -129 -285q-34 -48 -67 -71q-26 -18 -50 -17q-9 0 -14 2q-10 3 -14 12q-6 11 -3 29q8 33 41 89q24 37 56 78q44 56 121 126q9 8 27 23q14 44 20 71q7 32 9 44v4q-8 -8 -20.5 -19.5t-43.5 -35t-52 -32.5q-6 -4 -19 -1.5
t-11 15.5q3 25 25 49q21 23 43 29q15 5 28 1q12 -4 19 -15q16 14 26 27q2 3 8.5 -0.5t12 -10.5t5.5 -11q1 -12 -5 -43t-9 -44q60 46 96 64zM20 -38q25 14 69 54q-29 21 -67 -25q-20 -25 -24 -37q0 -1 -1 -2q2 0 3 1q9 3 20 9zM58 -195q18 42 32 87q-1 -1 -6 -5.5t-7 -7.5
q-74 -71 -117 -127q-31 -40 -53 -77q-8 -14 -15 -28.5t-15 -33t-7 -30.5t13 -12q17 -1 38 14q28 20 60 67q37 55 77 153z" />
    <glyph glyph-name="h" unicode="h" horiz-adv-x="275" 
d="M269 0l4 -3q-129 -120 -148 -60q-4 14 -1 40q7 63 7 64q-5 -1 -11 -6q-8 -5 -28.5 -27.5t-39.5 -47.5q-35 -46 -73 -108l-12 -3q-4 2 -3 6v2q14 66 30 119q18 60 40 116q55 140 107 219q23 32 40 48q8 7 14 10q5 3 11 3q8 1 13 -6q4 -7 3 -20q0 -6 -3 -16
q-4 -15 -12 -30.5t-14 -25.5t-17.5 -27t-16.5 -25q-106 -161 -120 -182q-20 -57 -24 -71q-4 -10 -11.5 -35t-12.5 -38q8 14 21.5 35t45 62.5t51.5 55.5q23 15 33 11q12 -8 14 -16q3 -11 -2.5 -42t-4.5 -44q2 -51 90 18zM156 301q-49 -78 -101 -216q18 28 50.5 78t43.5 66
q2 4 12.5 19.5t14.5 22t11 19t11 23t7 21.5q5 17 1 23v-1q-2 0 -4 -1q-4 -2 -10 -8q-16 -15 -36 -46z" />
    <glyph glyph-name="i" unicode="i" horiz-adv-x="137" 
d="M130 2q2 1 3.5 -1t0.5 -3q-25 -18 -49 -31.5t-42.5 -20.5t-29.5 -6q-15 2 -20 15.5t-1 30.5q7 27 19 48q8 12 14 11t9.5 -8t1.5 -11v-0.5t-1 -0.5q-17 -30 -20 -42q-6 -16 -4 -24q8 -14 42.5 0.5t76.5 42.5zM62 77q-2 -11 -24 -11q-8 0 -8 4q0 1 4.5 4t10 7t8.5 6
q5 5 7.5 -0.5t1.5 -9.5z" />
    <glyph glyph-name="j" unicode="j" 
d="M71 87q-3 -10 -23 -8q-5 1 -6 4q1 1 5 3.5t9 5.5t8 5q6 4 7 -6v-4zM154 3l2 -4v-1q-19 -11 -55.5 -35t-64 -43t-27.5 -20q-1 -2 -9 -23l-12 -31.5t-13.5 -32.5t-17 -37t-17.5 -34t-21 -35t-22 -28q-54 -63 -92 -49q-23 10 -20 35q5 34 59 100t138 128q1 4 4 10.5t5 11.5
q24 63 45 130l-19 -6q-6 -4 -4 -8l-9 -1l-1 1q-2 3 1 7t12 8t24 6q0 1 0.5 2.5l0.5 1.5q1 3 9.5 2t8.5 -3q18 1 21 1h2q3 0 2 -2.5t-26 -5.5q-10 -37 -42 -130q12 8 62.5 40t75.5 45zM-114 -301q40 53 89 175q-44 -39 -63 -57t-40.5 -42t-38.5 -48q-42 -60 -25 -77
q14 -13 49 16q15 14 29 33z" />
    <glyph glyph-name="k" unicode="k" horiz-adv-x="239" 
d="M234 2q3 2 5 -3q-53 -49 -91.5 -70t-62.5 -17.5t-39 27.5q-5 7 -8.5 14.5t-5 16.5t4.5 11q42 14 71 44q14 14 2 13q-9 -1 -25 -10q-76 -40 -116 -174q0 -2 -6 -2.5t-7 1.5l1 11q15 61 22 83q11 36 24 72.5t41 108.5t62.5 132t67.5 92q35 25 39 -2q2 -17 -10 -46
q-31 -83 -168 -261q-3 -9 -7 -20t-7.5 -21t-7.5 -24q37 56 94 70q26 7 28 -9q2 -22 -55 -55q-10 -6 -23 -12q10 -22 20.5 -32t29.5 -12t50.5 16.5t76.5 57.5zM172 325q-71 -94 -127 -247q46 60 76 104t45 71t27 56q14 34 7.5 39t-28.5 -23z" />
    <glyph glyph-name="l" unicode="l" horiz-adv-x="244" 
d="M243 -3q-166 -173 -228 -140q-45 25 -17 144l6 20q24 87 70 174q49 92 104 153q45 49 68 33q9 -7 7 -20q-7 -45 -62 -130t-168 -229q-34 -133 25 -133q57 -1 191 133q2 0 4 -5zM187 339q-38 -49 -87.5 -138t-71.5 -174q55 72 91.5 121.5t77 115.5t46.5 99q1 10 -7.5 11.5
t-16.5 -5.5q-14 -8 -32 -30z" />
    <glyph glyph-name="m" unicode="m" horiz-adv-x="350" 
d="M347 3q1 1 3 -2q1 -2 0 -3q-36 -29 -61.5 -44.5t-44 -18.5t-29.5 8t-15 38q-8 43 -47 12q-17 -13 -36 -38l-14 4q-3 4 -2 7q29 73 15 73q-7 0 -19 -7q-55 -35 -101 -91q-11 -4 -15 7q-3 10 9.5 47t27.5 53q6 5 12.5 5.5t9.5 -2.5t2 -6t-12.5 -23.5t-16 -32.5t-1.5 -14
q73 71 104 81q10 3 17.5 -1.5t9.5 -20t-11 -45.5q19 17 35.5 24t27 4.5t17.5 -9t9 -16.5q0 -1 1 -3q4 -19 6.5 -26.5t10 -14t20 -2t34 18t54.5 38.5z" />
    <glyph glyph-name="n" unicode="n" horiz-adv-x="232" 
d="M232 2q2 1 3 -2q2 -2 1 -2q-19 -16 -33 -26t-27.5 -19.5t-23 -14t-19 -7t-16 -1t-12.5 6.5t-10.5 13.5t-8.5 21.5q-11 36 -26 35q-22 0 -68 -67h-3t-5.5 2.5t-3.5 6.5q1 19 13 52t20 38q15 9 23 1q2 -3 0 -5q-6 -6 -17 -25t-13 -30q23 24 41.5 34.5t29.5 7.5t17.5 -9.5
t10.5 -16.5q2 -6 5.5 -17t5 -15t5.5 -11t7.5 -7.5t10 -1.5t14.5 3t19.5 10.5t26 18t33.5 26.5z" />
    <glyph glyph-name="o" unicode="o" horiz-adv-x="157" 
d="M153 2q3 1 4 -3q-25 -18 -42.5 -24t-41.5 -2q-30 -35 -65 -29q-30 5 -27 36q1 10 6 21q13 30 52 39q33 7 38 -12q1 -5 0 -12q6 -6 6 -15t-3 -15l-3 -6q36 -7 76 22zM3 -21q-3 -27 19 -26q24 3 40 25q-12 10 -9.5 23t16.5 16q4 11 -6 14t-17 -1q-14 -6 -27.5 -20.5
t-15.5 -30.5zM66 -15q3 4 6 10t3 9.5t-2 5.5q-9 2 -12 -9.5t5 -15.5z" />
    <glyph glyph-name="p" unicode="p" horiz-adv-x="208" 
d="M205 2q1 0 1.5 -1.5t-0.5 -1.5q-61 -16 -96 -29q-19 -26 -47 -45t-48 -20q-3 -1 -6.5 1t-3.5 7q0 7 10 18q6 6 15 12q13 9 33 18q2 1 19 7q21 32 15.5 49t-30 15t-47.5 -23q-36 -77 -78.5 -198t-64.5 -201q-1 -2 -3.5 -1t-6 3t-2.5 4q13 68 55.5 193.5t64.5 171.5
q0 -1 -2 -3l-3 -3q-2 -2 -4 0t0 4q5 6 18 19q30 61 47 88q4 7 8.5 2t2.5 -8q-5 -11 -13.5 -30t-10.5 -25q23 17 38 20q24 4 39.5 -8t16 -28.5t-6.5 -29.5q45 14 90 23zM65 -54q1 2 3 5t3 4q-11 -4 -36 -20q-33 -24 -19 -23q4 1 7 2q8 4 15 9q15 11 27 23z" />
    <glyph glyph-name="q" unicode="q" horiz-adv-x="198" 
d="M48 -131q2 -1 4.5 -4t7 -18t-1.5 -42q-8 -43 -28 -86q-16 -29 -25 -28q-21 1 -14 57q2 19 14 59t17 53q0 1 -3 2t-4.5 2.5t2.5 7t14 13.5q24 59 63 119q-12 -12 -37.5 -30.5t-38.5 -25.5q-2 -2 -6.5 -3t-12 -2t-13.5 3.5t-8 15.5q-3 17 9.5 37.5t31 33.5t40.5 11t35 -24
q3 2 12.5 10.5t10.5 9.5q2 2 6.5 -2t3.5 -5v-1q-37 -67 -68 -135q15 9 68 47.5t75 54.5q1 2 2.5 0.5t0.5 -3.5q-12 -10 -50 -38.5l-70 -52.5l-33 -24zM13 -41q35 17 75 56q-3 4 -6.5 7.5t-10.5 6.5t-14.5 1t-19.5 -10.5t-25 -25.5q-33 -52 -3 -37q1 0 3 1zM21 -277
q7 16 15.5 43.5t12.5 55.5t-6 35q-27 -64 -37 -111q-6 -28 -4 -42q3 -14 17 16q1 1 2 3z" />
    <glyph glyph-name="r" unicode="r" horiz-adv-x="202" 
d="M198 3q1 0 2.5 -2t0.5 -2q-11 -7 -23 -14.5t-30.5 -17.5t-34.5 -17t-31 -11t-24 -1t-10 14q-1 10 11 33q2 6 3 10.5t-6.5 9t-24.5 6.5q-4 -3 -5 -3q-2 0 -4 3q-15 4 -16 13q-2 7 3 18q14 24 34 31q10 3 15 -5q2 -4 1 -9.5t-2.5 -10t-5 -9.5t-5.5 -8.5t-5 -7l-3 -3.5
q35 -7 43 -17t-5 -30q-15 -24 9 -22q38 3 113 52zM24 23q7 3 14 11.5t10.5 16t-0.5 9.5q-5 4 -20 -20q-12 -17 -4 -17z" />
    <glyph glyph-name="s" unicode="s" horiz-adv-x="143" 
d="M139 3l2 -4q-65 -27 -114 -55q-1 -23 -3 -33q-6 -27 -19 -42q-21 -25 -46 -14q-15 5 -14 21q0 10 8 21q11 14 32 30l17 11q-1 59 5 92h-1q-2 -1 -3 1.5t2 3.5l1 0.5t2 0.5q1 27 15 45t31 25q20 9 25 -1t-4 -24q-15 -25 -45 -41q0 -7 -3 -47v-40q43 24 112 50zM38 70
q-4 -9 -7 -23q26 15 37 37q9 19 1 18q-11 -1 -26 -22zM2 -87q1 6 1 17q-2 -1 -4.5 -2.5l-5 -3t-4.5 -2.5q-20 -15 -29 -29q-5 -8 -4.5 -17t7.5 -11q16 -5 28 14q9 13 11 34z" />
    <glyph glyph-name="t" unicode="t" horiz-adv-x="255" 
d="M328 251q4 0 4.5 -4.5t-3.5 -4.5q-83 -7 -173 -25q-2 -1 -6 -1.5t-6 -1.5q-1 -2 -3 -4t-3.5 -4.5t-2.5 -4.5q-39 -62 -74 -122q-109 -218 -85 -274q7 -16 49 5.5t104 73.5t119 118q1 1 3.5 -1t1.5 -3q-35 -47 -125 -124.5t-135 -88.5q-21 -5 -30 7q-55 77 136 412
q-3 -1 -13 -3t-16 -3q-62 -18 -80 -28l-2 -1q-1 -1 -3.5 2t-3.5 6t1 4q10 5 22 9.5t19.5 7t23.5 6.5l20 5q6 1 12.5 2.5t14.5 3t12 2.5q26 48 44 78q13 24 26 41q7 11 15 19q1 2 4 5l4.5 4.5t5 4t8.5 3.5q1 1 4 0.5t5.5 -2t2.5 -4.5q2 -3 1 -9q0 -4 -2 -13q-4 -10 -10 -23
q-11 -21 -25 -41q-10 -14 -37 -54h2q96 18 174 25zM125 207q1 1 2 3q-1 0 -2.5 -0.5t-2.5 -0.5q-1 -1 -2 -3t-1 -3q-2 -3 -3.5 -6.5t-3 -6.5t-3 -6.5t-3.5 -6.5q1 1 8 12.5t11 17.5zM135 223q29 43 43 64q14 20 24 40q6 12 9 21q1 6 2 9q-6 -4 -12 -11q-7 -8 -14 -18
q-12 -17 -25 -40q-11 -21 -34 -67q2 0 5 1z" />
    <glyph glyph-name="u" unicode="u" horiz-adv-x="189" 
d="M189 4q2 0 3 -4q-75 -63 -113 -57q-27 5 -13 46q-35 -37 -67 -45q-26 -5 -24 23q1 9 14 35.5t21 32.5q3 3 7.5 0t7.5 -7l2 -4q-25 -34 -28 -60q-1 -10 6 -8q1 1 4 2q26 15 44.5 33.5t36.5 51.5q4 2 7.5 0.5t6 -4.5t1.5 -5q-2 -8 -9.5 -27.5t-9.5 -26.5q-9 -28 13 -26
q28 3 90 50z" />
    <glyph glyph-name="v" unicode="v" horiz-adv-x="184" 
d="M155 70q6 -2 -1 -5q-25 8 -70 -46.5t-68 -100.5q-1 -2 -3.5 -3t-4.5 -1t-3 2q-9 97 6 145q1 3 3.5 3.5t6 -0.5t7 -2.5t5.5 -4t3 -5.5q-14 -37 -13 -97q84 124 132 115z" />
    <glyph glyph-name="w" unicode="w" horiz-adv-x="302" 
d="M284 1q1 0 3 -2q-22 -19 -48 -24.5t-38 7.5q-30 -81 -77 -74q-21 3 -25.5 42.5t2.5 65.5l-20 -17.5t-36.5 -29.5t-34.5 -21h-6t-6 3t-3 10q0 27 14.5 64t29.5 46q12 6 18 -4q1 -3 0 -5q-12 -13 -24.5 -38.5t-16.5 -52.5q-2 -17 47 28q12 11 34 32q18 17 19 17
q3 2 6.5 0.5t6.5 -3.5t2 -3v-1q-9 -38 -10 -65.5t4.5 -39.5t15.5 -13q11 0 24.5 17t23.5 50q-6 21 0 40.5t11 24.5q10 5 15 -1q8 -9 -8 -57q0 -12 12 -16t30.5 1.5t34.5 18.5z" />
    <glyph glyph-name="x" unicode="x" horiz-adv-x="238" 
d="M234 3q2 0 3 -4q-9 -6 -26.5 -19t-27.5 -20t-26.5 -17t-27 -13t-24.5 -3.5t-24 5.5t-21.5 19t-20.5 34q-32 -29 -73 -75q-2 -2 -4.5 0t-0.5 4q41 48 75 80q-3 10 -19 38q-3 6 7 16q8 8 12 -1q3 -5 9.5 -20.5t7.5 -17.5q25 21 39 31q36 22 59 22q3 0 3 -6t-3 -6
q-24 -1 -53 -19q-15 -10 -40 -31q7 -17 14 -29t16 -18.5t15.5 -10.5t18.5 -1.5t19.5 5t23.5 12t26 16t32 21.5q2 2 3.5 3t3.5 2.5t4 2.5z" />
    <glyph glyph-name="y" unicode="y" horiz-adv-x="226" 
d="M228 3l1 -4q-83 -58 -124 -94q-22 -73 -52 -145q-37 -85 -70 -130q-23 -32 -54 -53q-16 -11 -36 -14t-34.5 9.5t-9.5 40.5q9 60 77.5 142.5t153.5 145.5q1 2 6 21t11.5 40t11.5 39.5t6 20.5q-4 -4 -10.5 -10t-23.5 -21t-31.5 -25.5t-30.5 -18t-25 -3.5q-25 14 12 91
q2 4 12 -1t8 -9q-2 -6 -8.5 -18.5t-10.5 -23t-5 -19.5q2 -20 53 21q36 28 60 60q16 0 18.5 -8.5t-3.5 -33.5q-15 -60 -21 -81q9 7 20.5 15t22.5 15.5t22 15.5t20.5 14.5t17 11t12 7.5t4.5 2zM31 -231q23 54 42 112q-72 -57 -126.5 -125t-72.5 -113q-12 -33 -7.5 -48.5
t21.5 -15t39 17.5q15 12 39 45q35 52 65 127z" />
    <glyph glyph-name="z" unicode="z" horiz-adv-x="204" 
d="M206 3q3 1 3 -2q0 -2 -1 -3q-56 -30 -114 -76q18 -44 -16.5 -123.5t-106.5 -138.5q-27 -22 -49 -29t-33.5 0t-11 27.5t15.5 47.5q18 39 53 82t61 68t73 66q-3 12 -9 20q-10 11 -23 13q-16 4 -26 -7q-4 -4 -8 0q-3 3 -1 7l2 3q13 20 41 53q5 6 16 18q-11 -6 -21 -4
q-3 0 -17 3l-10 -15q-3 -5 -8 -2t-2 8l12 19l2 2q2 4 5 1q2 0 2 -2q3 -10 16 -11q10 -1 20 5q3 2 9 7t8 6q0 1 6 5.5t9 6.5l1 1v0l1 0.5t1 1.5h1q5 2 7 -4q1 -2 0 -5l-1 -1q-13 -21 -42 -53q-17 -20 -34 -36q8 1 12 1q16 -2 29 -14q7 -7 13 -18q47 36 115 72zM-38 -319
q56 48 93 118t27 112q-51 -44 -104.5 -106t-73.5 -106q-23 -53 5 -49q21 5 53 31z" />
    <glyph glyph-name="braceleft" unicode="{" horiz-adv-x="321" 
d="M283 430q18 0 35 -18q1 -1 -0.5 -2.5t-2.5 -3.5l-2 -1q-15 15 -31 13q-16 -1 -29 -30q-7 -14 -16 -48q-6 -28 -14 -54q-18 -65 -36 -106q-10 -22 -29 -43t-38 -33q13 -26 7 -54q-6 -25 -20 -60q-11 -28 -48 -109q-2 -5 -8 -17.5t-8.5 -18.5t-7 -17.5t-7.5 -19t-6 -17
t-5 -17.5q-2 -14 1 -24t13 -11q13 -1 40 8q1 1 2 -2q1 -5 -2 -6q-28 -12 -44 -12q-15 1 -21 14q-6 12 -3 33q3 12 6 24.5t8 25t8.5 21.5t9.5 23.5t9 21.5q31 73 44 109q30 79 15 95q-9 7 -7.5 14t17.5 16q31 17 56 68q19 38 38 99q8 26 15 52q11 37 20 54q7 14 18.5 24
t22.5 9z" />
    <glyph glyph-name="verticalbar" unicode="|" horiz-adv-x="306" 
d="M266 501q2 7 11 -1q4 -5 4 -9q-53 -153 -124.5 -412t-104.5 -417q-3 -12 -9 -1q-4 7 -3 15q7 71 87.5 370t138.5 455z" />
    <glyph glyph-name="braceright" unicode="}" horiz-adv-x="321" 
d="M315 417q5 -12 2 -33q-3 -16 -8 -33t-8.5 -26t-12.5 -31t-11 -26q-31 -73 -45 -109q-29 -79 -14 -95q8 -8 6.5 -15t-16.5 -15q-31 -18 -56 -68q-19 -38 -38 -99l-16 -52q-10 -38 -19 -54q-7 -14 -18.5 -24t-22.5 -10q-19 0 -36 19l1 2t3 3l2 2q15 -15 30 -13q16 1 30 29
q7 15 15 49q7 27 14 53q18 65 37 107q10 22 28.5 43t37.5 32q-13 26 -6 54q6 26 19 60q11 29 49 110q35 79 41 107q2 9 1.5 16.5t-4.5 12.5t-10 6q-14 1 -40 -9q-2 0 -2 3q-1 5 2 6q28 12 44 11q15 -1 21 -13z" />
    <glyph glyph-name="asciitilde" unicode="~" horiz-adv-x="223" 
d="M48 17q-4 -2 -7 1t0 6q21 19 39 22.5t30 -2l24 -11t26.5 -2t30.5 21.5l6 -8q-20 -21 -37.5 -27t-30 -1t-24 11t-26.5 4.5t-31 -15.5z" />
    <glyph glyph-name="nonbreakingspace" unicode="&#xa0;" horiz-adv-x="346" 
 />
    <glyph glyph-name="exclamdown" unicode="&#xa1;" horiz-adv-x="264" 
d="M220 254q8 20 24 18q13 -2 8 -17q-8 -25 -22 -20q-17 5 -10 19zM188 171q1 2 4.5 0.5t6.5 -4.5t2 -4q-112 -188 -175 -369q-4 -11 -16 -8q-11 4 -7 16q66 179 185 369z" />
    <glyph glyph-name="cent" unicode="&#xa2;" horiz-adv-x="167" 
d="M135 34q9 -3 -1 -7q-19 -11 -45 -15q-5 -20 -6 -26q-1 -5 -8 1q-3 2 -3 5q1 6 4 19q-24 0 -32 16t5 38q21 35 49 46q5 3 11 4q9 21 14 28q1 2 4 2.5t4.5 -0.5t0.5 -6q-3 -6 -10 -24q14 -1 18 -10.5t-4 -25.5q-2 -5 -5.5 -6.5t-6.5 0t-3 3.5q-1 1 0.5 3t4 5.5t4.5 7.5
q3 7 -0.5 11t-10.5 4q-14 -41 -27 -86q14 1 43 13zM78 21q10 41 28 85q-41 -25 -46 -58q-4 -24 18 -27z" />
    <glyph glyph-name="sterling" unicode="&#xa3;" horiz-adv-x="211" 
d="M100 103q-1 22 7 36.5t20.5 18.5t25 1t22.5 -15.5t11 -31.5q0 -1 -3 -1.5t-4 0.5q-3 25 -18 35.5t-29 -1t-14 -40.5q1 -18 -3 -36q27 1 29 -2q5 -5 0 -6q-7 0 -31 -2q-4 -15 -9 -25q-9 -20 -25 -36q54 4 97 -6q1 -3 -3 -6q-32 4 -62 2q-39 -2 -60 -9h-1l-0.5 -0.5
t-1.5 -0.5q-3 -1 -6.5 7t-0.5 10l4 2q26 13 42 44q3 7 6 16q-17 -2 -25 -4q-3 1 -2.5 5t2.5 5q7 3 28 5q3 17 4 35z" />
    <glyph glyph-name="yen" unicode="&#xa5;" horiz-adv-x="206" 
d="M181 147q-1 -1 -15.5 -14.5t-30.5 -29t-29 -31.5q28 0 30 -3q5 -5 0 -7q-7 0 -36 -2q0 -4 -1.5 -11t-1.5 -8q25 0 27 -3q1 -2 0.5 -4.5t-1.5 -2.5q-5 0 -29 -2q-6 -36 -8 -59q0 -8 -4.5 -10t-8 1.5t-3.5 7.5q-1 24 4 58q-8 -1 -16 -1.5t-12.5 -1l-4.5 -0.5q-1 0 -1 2t1 5
t2 3q6 4 33 6q1 7 3 18q-18 -2 -27 -4q-3 1 -2.5 5t2.5 5q7 4 29 6q-25 58 -32 87q-1 1 1 2t5 0.5t3 -2.5q23 -60 32 -81q39 43 79 80q5 2 8 -0.5t3 -5.5z" />
    <glyph glyph-name="section" unicode="&#xa7;" horiz-adv-x="249" 
d="M112 75q-8 38 25 46q35 9 69 -22q15 -14 23 -33q0 -5 -6 -4q-24 49 -62 50q-24 1 -28 -18q-2 -10 7 -23q11 -15 32 -36t23 -24q11 -11 12 -27t-11.5 -32.5t-38.5 -27.5q9 -27 -20 -44q-36 -22 -73 4q-21 15 -34 44q-1 3 2.5 4.5t6.5 0.5q18 -47 58 -50q28 -1 36 18
q6 12 -4 26q-11 15 -32 36.5t-23 23.5q-11 12 -12 28t12 32.5t38 27.5zM172 -1q-39 41 -48 52q-3 4 -8 14q-53 -29 -19 -66q39 -40 48 -52q3 -4 8 -13q53 29 19 65z" />
    <glyph glyph-name="copyright" unicode="&#xa9;" horiz-adv-x="359" 
d="M192 357q51 13 93.5 -5.5t48 -61t-48.5 -106.5q-52 -58 -125 -76q-31 -7 -57 -2t-41.5 23.5t-20.5 42.5t5.5 55.5t36.5 62.5q13 15 31.5 29t38 24t39.5 14zM155 120q33 8 64 26.5t52 41t35.5 48t14 47t-12.5 37.5q-14 15 -38.5 22t-54 4.5t-61.5 -20t-58 -49.5
q-26 -34 -33.5 -67t3 -54.5t34.5 -32t55 -3.5zM223 258q0 2 1 4.5t3.5 4.5t5.5 6.5t5 9.5q8 15 -12 17q-20 1 -43 -13q-50 -36 -55 -77q-4 -33 31 -36q15 -1 35 5q22 6 49 28q4 0 5.5 -2t-1.5 -6q-21 -20 -51 -31q-27 -10 -50.5 -8t-36 13.5t-15.5 29.5t12 38q34 53 79 70
q39 15 61 -0.5t2 -47.5q-3 -4 -6 -7t-6 -3.5t-6 0t-5 2t-2 3.5z" />
    <glyph glyph-name="guillemotleft" unicode="&#xab;" horiz-adv-x="122" 
d="M52 33l16 -19q3 -3 -0.5 -6.5t-6.5 -0.5l-20 23q-3 4 1 7l27 24q3 4 6 -2q1 -2 -1 -4zM90 61q3 4 6 -2l-1 -4l-22 -22l16 -19q3 -3 -1 -6.5t-6 -0.5l-20 23q-3 4 1 7z" />
    <glyph glyph-name="softhyphen" unicode="&#xad;" horiz-adv-x="0" 
 />
    <glyph glyph-name="registered" unicode="&#xae;" horiz-adv-x="297" 
d="M160 357q40 10 74 -5t38.5 -48.5t-38.5 -83.5q-42 -46 -99 -61q-31 -7 -54.5 2.5t-33.5 30t-3.5 51t31.5 60.5q34 41 85 54zM131 169q32 8 61.5 28t46 44t22 48t-8.5 38q-15 16 -43 21t-63 -8.5t-61 -46.5q-28 -36 -29 -68t20.5 -47.5t54.5 -8.5zM208 235q5 -4 4 -6.5
t-5 -4t-6 -0.5v1q-24 15 -72 20l-17 -42q-2 -5 -5.5 -4.5t-7 4t-3.5 6.5l19 47v1.5v0.5l20 46h1q-13 -5 -14 -5q-2 -1 -3.5 3t-0.5 5q27 13 47 19q17 4 27 3t16 -8q5 -7 3 -17q-3 -22 -36 -41q-2 -1 -15 -6q29 -8 48 -22zM145 308q8 -3 5 -11l-12 -29q17 5 29 10
q27 13 30 28q3 8 -7 9.5t-22 -1.5q-11 -2 -23 -6z" />
    <glyph glyph-name="degree" unicode="&#xb0;" horiz-adv-x="136" 
d="M99 298q9 -5 11 -14.5t0 -16.5t-6 -13q-19 -33 -46 -28q-15 5 -16.5 21.5t9.5 32.5q22 32 48 18zM58 237q10 -5 22 6.5t15.5 25t-2.5 20.5q-10 6 -22.5 -5.5t-16 -25.5t3.5 -21z" />
    <glyph glyph-name="guillemotright" unicode="&#xbb;" horiz-adv-x="122" 
d="M95 38q3 -4 -1 -7l-27 -24q-3 -4 -6 2q-1 2 1 4l22 22l-16 19q-3 3 1 6t6 1zM74 38q3 -4 0 -7l-28 -24q-3 -4 -6 2q-1 2 1 4l22 22l-16 19q-2 2 -0.5 4.5t3.5 3t4 -0.5z" />
    <glyph glyph-name="questiondown" unicode="&#xbf;" horiz-adv-x="295" 
d="M259 258q8 20 24 18q13 -1 9 -16q-8 -26 -22 -21q-7 2 -10 7.5t-1 11.5zM240 159q2 5 8 5t10.5 -4t1.5 -10q-32 -72 -104 -128q-9 -7 -39.5 -30t-48.5 -39.5t-31 -35.5q-28 -44 -17 -68q13 -25 65 -16q89 17 132 77v1q4 5 9 1t2 -9q-47 -65 -140 -84q-24 -4 -43 -1
q-29 4 -38 24q-9 17 -1 45q6 18 18 38q14 22 33 40t48.5 41t38.5 31q67 53 96 122z" />
    <glyph glyph-name="Agrave" unicode="&#xc0;" horiz-adv-x="578" 
d="M571 13q4 0 1 -3q-1 -2 -4 -2q-18 0 -36 -0.5t-41 -1t-37 -0.5q-54 -178 -121 -350v0q-1 -3 -4.5 -3.5t-7.5 1l-8 3t-6.5 4t-1.5 5.5v1q19 51 32 88q8 34 8 60q2 38 -18 71t-54 52q-55 28 -151 35q-1 1 -2 1h-2q-120 -179 -221 -345q-2 -1 -5 -0.5t-6.5 2.5t-2.5 4
q103 164 217 339q-64 2 -136 -6q-5 0 -6 7q-1 2 1 3h1q66 15 161 26q3 5 11.5 19t12.5 19q5 8 16 24q57 84 88.5 129.5t83.5 114t99 121.5q21 22 39 35.5t28.5 18t19.5 3.5t13 -3.5t8 -7.5q8 -12 7.5 -51.5t-6.5 -72.5q-6 -36 -19.5 -95.5t-24.5 -100.5l-11 -41
q-20 -69 -29 -98q65 -1 114 -5zM364 -170q41 116 61 176q-50 1 -166.5 -5t-120.5 -15q85 -6 142 -36q46 -29 61 -55q5 -6 18 -38q1 -5 2.5 -13.5t2.5 -13.5zM428 19q29 86 34 104q44 146 59 233q0 3 3.5 25t3.5 34q1 50 -4 56q-9 11 -33 -8q-19 -15 -43 -41q-18 -19 -35 -39
t-35.5 -43t-31.5 -40t-33.5 -45t-30.5 -41.5t-32 -45.5t-29.5 -42.5t-32 -46t-29.5 -43.5q-2 -3 -9 -14.5t-9 -14.5q35 4 137.5 8t149.5 4zM553 511q-2 -10 -24 12q-21 20 -17 31q1 6 8 11t12 -4q1 -5 7 -16.5t10 -21t4 -12.5z" />
    <glyph glyph-name="Acircumflex" unicode="&#xc2;" horiz-adv-x="578" 
d="M497 513q-4 -3 -9 -2.5t-6 5.5q28 28 54 43q4 2 9.5 1t5.5 -4q6 -26 13 -46q-6 -8 -14 -1q-10 9 -18 31q-11 -7 -35 -27zM571 13q4 0 1 -3q-1 -2 -4 -2q-18 0 -36 -0.5t-41 -1t-37 -0.5q-54 -178 -121 -350v0q-1 -3 -4.5 -3.5t-7.5 1l-8 3t-6.5 4t-1.5 5.5v1q19 51 32 88
q8 34 8 60q2 38 -18 71t-54 52q-55 28 -151 35q-1 1 -2 1h-2q-120 -179 -221 -345q-2 -1 -5 -0.5t-6.5 2.5t-2.5 4q103 164 217 339q-64 2 -136 -6q-5 0 -6 7q-1 2 1 3h1q66 15 161 26q3 5 11.5 19t12.5 19q5 8 16 24q57 84 88.5 129.5t83.5 114t99 121.5q21 22 39 35.5
t28.5 18t19.5 3.5t13 -3.5t8 -7.5q8 -12 7.5 -51.5t-6.5 -72.5q-6 -36 -19.5 -95.5t-24.5 -100.5l-11 -41q-20 -69 -29 -98q65 -1 114 -5zM364 -170q41 116 61 176q-50 1 -166.5 -5t-120.5 -15q85 -6 142 -36q46 -29 61 -55q5 -6 18 -38q1 -5 2.5 -13.5t2.5 -13.5zM428 19
q29 86 34 104q44 146 59 233q0 3 3.5 25t3.5 34q1 50 -4 56q-9 11 -33 -8q-19 -15 -43 -41q-18 -19 -35 -39t-35.5 -43t-31.5 -40t-33.5 -45t-30.5 -41.5t-32 -45.5t-29.5 -42.5t-32 -46t-29.5 -43.5q-2 -3 -9 -14.5t-9 -14.5q35 4 137.5 8t149.5 4z" />
    <glyph glyph-name="Atilde" unicode="&#xc3;" horiz-adv-x="611" 
d="M599 539l6 -6q-17 -18 -31.5 -23t-24.5 -1t-19.5 9t-22 4t-26.5 -13q-2 -2 -4.5 0.5t-0.5 5.5q15 13 27.5 17.5t21.5 1.5t18 -6.5t16.5 -6.5t18 1t21.5 17zM457 18q64 -1 114 -5q4 0 1 -3l-4 -2q-18 0 -36 -0.5t-41 -1t-37 -0.5q-54 -178 -121 -350v0q-1 -3 -4.5 -3.5
t-7.5 1l-8 3t-6.5 4t-1.5 5.5v1q19 51 32 88q8 34 8 60q2 38 -18 71t-54 52q-55 28 -151 35q-1 1 -2 1h-2q-120 -179 -221 -345q-2 -1 -5 -0.5t-6.5 2.5t-2.5 4q103 164 217 339q-64 2 -136 -6q-5 0 -6 7q-1 2 1 3h1q66 15 161 26q3 5 11.5 19t12.5 19q5 8 16 24
q57 84 88.5 129.5t83.5 114t99 121.5q21 22 39 35.5t28.5 18t19.5 3.5t13 -3.5t8 -7.5q8 -12 7.5 -51.5t-6.5 -72.5q-6 -36 -19.5 -95.5t-24.5 -100.5l-11 -41q-20 -69 -29 -98zM364 -170q41 116 61 176q-50 1 -166.5 -5t-120.5 -15q85 -6 142 -36q46 -29 61 -55
q5 -6 18 -38q0 -3 1 -6.5t1.5 -6.5t1 -7t1.5 -7zM428 19q29 86 34 104q44 146 59 233q0 3 3.5 25t3.5 34q1 50 -4 56q-9 11 -33 -8q-19 -15 -43 -41q-18 -19 -35 -39t-35.5 -43t-31.5 -40t-33.5 -45t-30.5 -41.5t-32 -45.5t-29.5 -42.5t-32 -46t-29.5 -43.5q-2 -3 -9 -14.5
t-9 -14.5q35 4 137.5 8t149.5 4z" />
    <glyph glyph-name="Adieresis" unicode="&#xc4;" horiz-adv-x="579" 
d="M520 530q-9 -17 -25 -14q-11 3 -7 15q9 21 23 17q16 -6 9 -18zM572 534q-9 -17 -25 -15q-13 3 -7 15q9 21 23 17q16 -5 9 -17zM457 18q64 -1 114 -5q4 0 1 -3l-4 -2q-14 0 -29.5 -0.5t-27 -0.5t-28 -0.5t-29.5 -0.5q-54 -178 -121 -350v0q-1 -3 -4.5 -3.5t-7.5 1l-8 3
t-6.5 4t-1.5 5.5v1q19 51 32 88q8 34 8 60q2 38 -18 71t-54 52q-55 28 -151 35q-1 1 -2 1h-2q-120 -179 -221 -345q-2 -1 -5 -0.5t-6.5 2.5t-2.5 4q103 164 217 339q-64 2 -136 -6q-5 0 -6 7q-1 2 1 3h1q66 15 161 26q3 4 11.5 18.5t12.5 19.5q5 8 16 24q57 84 88.5 129.5
t83.5 114t99 121.5q21 22 39 35.5t28.5 18t19.5 3.5t13 -3.5t8 -7.5q8 -12 7.5 -51.5t-6.5 -72.5q-6 -36 -19.5 -95.5t-24.5 -100.5l-11 -41q-20 -69 -29 -98zM364 -170q41 116 61 176q-50 1 -166.5 -5t-120.5 -15q85 -6 142 -36q46 -29 61 -55q5 -6 18 -38q1 -5 2.5 -13.5
t2.5 -13.5zM428 19q29 86 34 104q44 146 59 233q0 3 3.5 25t3.5 34q1 50 -4 56q-9 11 -33 -8q-19 -15 -43 -41q-18 -19 -35 -39t-35.5 -43t-31.5 -40t-33.5 -45t-30.5 -41.5t-32 -45.5t-29.5 -42.5t-32 -46t-29.5 -43.5q-2 -3 -9 -14.5t-9 -14.5q35 4 137.5 8t149.5 4z" />
    <glyph glyph-name="Aring" unicode="&#xc5;" horiz-adv-x="579" 
d="M457 18q64 -1 114 -5q4 0 1 -3l-4 -2q-18 0 -36 -0.5t-41 -1t-37 -0.5q-54 -178 -121 -350v0q-1 -3 -4.5 -3.5t-7.5 1l-8 3t-6.5 4t-1.5 5.5v1q19 51 32 88q8 34 8 60q2 38 -18 71t-54 52q-55 28 -151 35q-1 1 -2 1h-2q-120 -179 -221 -345q-2 -1 -5 -0.5t-6.5 2.5
t-2.5 4q103 164 217 339q-64 2 -136 -6q-5 0 -6 7q-1 2 1 3h1q66 15 161 26q3 4 7.5 11.5l9 15t7.5 11.5q5 8 16 24q57 84 88.5 129.5t83.5 114t99 121.5q47 49 76 56q-8 5 -9 13q-2 6 0 16q4 14 13 24q9 11 20 18q17 10 30 6q11 -4 11 -16q1 -6 -2 -15q-3 -7 -12 -23
q-8 -12 -18 -19q-4 -4 -10 -6q5 -3 9 -8q8 -12 7.5 -51.5t-6.5 -72.5q-6 -36 -19.5 -95.5t-24.5 -100.5l-11 -41q-20 -69 -29 -98zM518 511q-3 -9 1 -11q3 -2 12.5 4t15.5 15q6 8 10 19q2 5 1 9q0 1 -1 2q-5 1 -14 -6t-15 -15q-9 -12 -10 -17zM364 -170q41 116 61 176
q-50 1 -166.5 -5t-120.5 -15q85 -6 142 -36q46 -29 61 -55q5 -6 18 -38q1 -5 2.5 -13.5t2.5 -13.5zM428 19q29 86 34 104q44 146 59 233q0 3 3.5 25t3.5 34q1 50 -4 56q-9 11 -33 -8q-19 -15 -43 -41q-18 -19 -35 -39t-35.5 -43t-31.5 -40t-33.5 -45t-30.5 -41.5t-32 -45.5
t-29.5 -42.5t-32 -46t-29.5 -43.5q-2 -3 -9 -14.5t-9 -14.5q35 4 137.5 8t149.5 4z" />
    <glyph glyph-name="AE" unicode="&#xc6;" horiz-adv-x="894" 
d="M886 -2q7 -3 5 -5q-27 -35 -61 -72.5t-86 -85.5t-102 -83t-106.5 -55.5t-101.5 -11.5q-21 4 -37.5 20.5t-24.5 37.5q0 1 -0.5 3.5t-1.5 3.5q-23 -64 -37 -94v0q-1 -3 -4.5 -3.5t-7.5 1l-8 3t-6.5 4t-1.5 5.5v1q19 51 32 88q8 34 8 60q2 38 -18 71t-54 52q-55 28 -151 35
q-1 1 -2 1h-2q-120 -179 -221 -345q-2 -1 -5 -0.5t-6.5 2.5t-2.5 4q103 164 217 339q-64 2 -136 -6q-5 0 -6 7q-1 2 1 3h1q66 15 161 26q2 2 4.5 6t5 8.5t5 8.5l5 8t4.5 7q5 8 16 24q57 84 88.5 129.5t83.5 114t99 121.5q21 22 39 35.5t28.5 18t19.5 3.5t13 -3.5t8 -7.5
q8 -12 7.5 -51.5t-6.5 -72.5q1 -78 -101 -399q1 1 2.5 3l3 4t3.5 3q82 88 200 162q-8 -1 -14.5 -1t-19 1t-22 3.5t-19 8.5t-14 15.5t-3.5 25t9 34.5q4 9 9 17.5t10 15.5t11.5 15t12 14t13 13.5l12.5 12.5t13.5 12.5t13.5 12t14 12t13 11.5q44 35 73 54q24 17 39 24
q1 0 7 2.5t8 3.5t7.5 2.5t8.5 1.5h8.5t9.5 -1q17 -5 19 -23q2 -12 1 -25q-3 -18 -11 -44q-14 -39 -36 -84q-11 0 -11 17q0 7 4 16t9 16.5t11 18.5t9 20q7 25 9 42q3 28 -9 30q-11 3 -36 -9q-13 -7 -37 -23q-28 -20 -69 -55q-30 -27 -45.5 -41t-36.5 -39.5t-31 -48.5
q-13 -27 0 -42.5t38.5 -18.5t49 -1.5t37.5 4.5q2 -1 1.5 -7.5t-4.5 -8.5q-157 -98 -239 -187q-55 -61 -73 -113q-4 -12 -5 -13q-8 -35 2 -66q13 -38 44 -45q74 -19 194.5 59.5t251.5 232.5zM159 36q-2 -3 -9 -14.5t-9 -14.5q35 4 137.5 8t149.5 4q30 90 34 104
q44 146 59 233q0 3 3.5 25t3.5 34q1 50 -4 56q-9 10 -33 -9q-19 -14 -43 -40q-16 -17 -32.5 -36.5t-30 -36t-30.5 -38.5t-28.5 -37.5t-29.5 -40t-27.5 -38l-28.5 -40.5t-27 -38.5t-28 -41t-27 -39.5zM364 -170q41 116 61 176q-49 1 -166 -5t-121 -15q85 -6 142 -36
q46 -29 61 -55q7 -9 14.5 -30.5t8.5 -34.5z" />
    <glyph glyph-name="Ccedilla" unicode="&#xc7;" horiz-adv-x="477" 
d="M469.5 0.5q2.5 -2.5 0.5 -5.5q-78 -83 -161 -153q-106 -89 -184 -126q-44 -21 -79 -27v-1v-1l-13 -25q52 10 59 -4q4 -9 -8 -20q-28 -25 -64 -38h-3q-5 0 -7 5q-3 8 5 10q29 8 59 35q-23 0 -55 -7q-5 -1 -8 3t-1 9l18 33l-5.5 -0.5t-8.5 -0.5q-30 0 -56.5 20t-36.5 49
q-16 45 -6 115q8 49 30 109q81 215 255 366q45 38 93 63q29 16 54 21q16 4 32 0q17 -5 23 -25q3 -10 3.5 -20.5t0.5 -18.5t-2.5 -20t-4 -18t-5.5 -19t-5 -17q-19 -57 -38 -101q-5 -10 -14 2q-6 9 -3 16q30 53 41 87q21 72 12 103q-6 21 -37 14q-22 -5 -48 -20
q-45 -25 -88 -63q-157 -141 -246 -358q-22 -58 -30 -105q-10 -63 4 -104q7 -24 27 -39.5t46 -16.5q43 -3 103 24q78 36 183 120q84 68 163 149q3 3 5.5 0.5z" />
    <glyph glyph-name="Egrave" unicode="&#xc8;" horiz-adv-x="410" 
d="M406 2q7 -3 4 -5q-27 -35 -61 -72.5t-86 -85.5t-101.5 -83.5t-106 -55.5t-101.5 -12q-21 4 -38 21t-24 38q-16 40 -5 83q16 67 81 138q83 88 201 162q-8 -1 -14.5 -1t-19.5 0.5t-22 3.5t-19 9t-14 15.5t-3.5 25t8.5 34.5q6 11 12.5 21.5t12.5 19t15.5 18.5t15 16t17 16.5
t16 14.5t17.5 15.5t17 14.5q43 35 72 54q25 17 40 24q1 0 5.5 2t6.5 3t6.5 2.5t7.5 2t7 1t8 0t8 -1.5q16 -5 19 -23q2 -12 0 -25q-2 -18 -11 -44q-13 -40 -35 -84q-11 0 -11 17q-1 8 5.5 19.5t15 26t11.5 25.5q8 25 10 42q3 28 -9 30q-12 3 -36 -9q-14 -7 -37 -23
q-28 -20 -70 -55q-30 -27 -45 -41t-36 -39.5t-32 -48.5q-12 -27 0.5 -42.5t38.5 -18.5t49.5 -1.5t36.5 4.5q3 -1 2 -7.5t-4 -8.5q-74 -46 -133 -91t-106 -96q-62 -68 -78 -123q-9 -36 2 -69q12 -38 43 -46q74 -18 195 60.5t252 232.5zM410 491q-2 -10 -24 12q-20 20 -17 31
q2 6 8.5 11t11.5 -4q2 -5 7.5 -16.5t9.5 -21t4 -12.5z" />
    <glyph glyph-name="Eacute" unicode="&#xc9;" horiz-adv-x="428" 
d="M-41 -291q74 -18 195 60.5t252 232.5q7 -3 4 -5q-27 -35 -61 -72.5t-86 -85.5t-101.5 -83.5t-106 -55.5t-101.5 -12q-15 3 -27.5 12t-21 21t-13.5 26q-16 40 -5 83q16 67 81 138q83 88 201 162q-8 -1 -14.5 -1t-19.5 0.5t-22 3.5t-19 9t-14 15.5t-3.5 25t8.5 34.5
q6 11 12.5 21.5t12.5 19t15.5 18.5t15 16t17 16.5t16 14.5t17.5 15.5t17 14.5q43 35 72 54q25 17 40 24q1 0 5.5 2t6.5 3t6.5 2.5t7.5 2t7 1t8 0t8 -1.5q16 -5 19 -23q2 -12 0 -25q-2 -18 -11 -44q-13 -40 -35 -84q-11 0 -11 17q-1 11 13.5 35t18.5 36q8 25 10 42
q3 28 -9 30q-12 3 -36 -9q-14 -7 -37 -23q-28 -20 -70 -55q-30 -27 -45 -41t-36 -39.5t-32 -48.5q-12 -27 0.5 -42.5t38.5 -18.5t49.5 -1.5t36.5 4.5q3 -1 2 -7.5t-4 -8.5q-74 -46 -133 -91t-106 -96q-62 -68 -78 -123q-9 -36 2 -69q12 -38 43 -46zM412 536q6 9 11.5 1
t5.5 -14q0 -13 -31 -28q-23 -11 -22 -2q1 4 7.5 11.5t16 17.5t12.5 14z" />
    <glyph glyph-name="Ecircumflex" unicode="&#xca;" horiz-adv-x="424" 
d="M412 536q6 -25 13 -46q-6 -8 -14 -1q-10 9 -18 31q-11 -7 -36 -27q-4 -3 -8.5 -2.5t-5.5 5.5q28 28 54 43q4 2 9 1t6 -4zM-41 -291q74 -18 195 60.5t252 232.5q7 -3 4 -5q-27 -35 -61 -72.5t-86 -85.5t-101.5 -83.5t-106 -55.5t-101.5 -12q-21 4 -38 21t-24 38
q-16 40 -5 83q16 67 81 138q83 88 201 162q-8 -1 -14.5 -1t-19.5 0.5t-22 3.5t-19 9t-14 15.5t-3.5 25t8.5 34.5q6 11 12.5 21.5t12.5 19t15.5 18.5t15 16t17 16.5t16 14.5t17.5 15.5t17 14.5q43 35 72 54q25 17 40 24q1 0 5.5 2t6.5 3t6.5 2.5t7.5 2t7 1t8 0t8 -1.5
q16 -5 19 -23q2 -12 0 -25q-2 -18 -11 -44q-13 -40 -35 -84q-11 0 -11 17q-1 8 5.5 19.5t15 26t11.5 25.5q8 25 10 42q3 28 -9 30q-12 3 -36 -9q-14 -7 -37 -23q-28 -20 -70 -55q-30 -27 -45 -41t-36 -39.5t-32 -48.5q-12 -27 0.5 -42.5t38.5 -18.5t49.5 -1.5t36.5 4.5
q3 -1 2 -7.5t-4 -8.5q-74 -46 -133 -91t-106 -96q-62 -68 -78 -123q-9 -36 2 -69q12 -38 43 -46z" />
    <glyph glyph-name="Edieresis" unicode="&#xcb;" horiz-adv-x="412" 
d="M361 510q-10 -17 -26 -14q-11 3 -7 15q9 21 23 17q16 -6 10 -18zM403 531q16 -5 9 -17q-9 -17 -25 -15q-13 3 -7 15q9 21 23 17zM-41 -291q74 -18 195 60.5t252 232.5q7 -3 4 -5q-27 -35 -61 -72.5t-86 -85.5t-101.5 -83.5t-106 -55.5t-101.5 -12q-15 3 -27.5 12t-21 21
t-13.5 26q-16 40 -5 83q16 67 81 138q83 88 201 162q-8 -1 -14.5 -1t-19.5 0.5t-22 3.5t-19 9t-14 15.5t-3.5 25t8.5 34.5q6 11 12.5 21.5t12.5 19t15.5 18.5t15 16t17 16.5t16 14.5t17.5 15.5t17 14.5q43 35 72 54q25 17 40 24q1 0 5.5 2t6.5 3t6.5 2.5t7.5 2t7 1t8 0
t8 -1.5q16 -5 19 -23q2 -12 0 -25q-2 -18 -11 -44q-13 -40 -35 -84q-11 0 -11 17q-1 11 13.5 35t18.5 36q8 25 10 42q3 28 -9 30q-12 3 -36 -9q-14 -7 -37 -23q-28 -20 -70 -55q-30 -27 -45 -41t-36 -39.5t-32 -48.5q-12 -27 0.5 -42.5t38.5 -18.5t49.5 -1.5t36.5 4.5
q3 -1 2 -7.5t-4 -8.5q-74 -46 -133 -91t-106 -96q-62 -68 -78 -123q-9 -36 2 -69q12 -38 43 -46z" />
    <glyph glyph-name="Igrave" unicode="&#xcc;" horiz-adv-x="287" 
d="M443 409q2 0 2 -3t-0.5 -6.5t-2.5 -2.5q-62 3 -174 -17q-185 -283 -293 -619q85 13 178 11q3 0 3 -7.5t-3 -7.5q-98 -1 -185 -18q-15 -49 -22 -72q-1 -3 -6.5 -3t-10.5 3t-4 6q3 11 17 60q-95 -22 -122 -74q-2 -3 -8.5 -2t-12.5 4.5t-5 7.5q9 15 22 28t27.5 22t33.5 16.5
t35 12t37 9.5q100 332 274 614q-78 -17 -141 -34q-3 -1 -8.5 4.5t-7.5 11.5t1 8l4 1l4 1q79 19 164 32q29 46 41 64q3 3 10.5 0t13.5 -9.5t4 -9.5v-1q-5 -7 -14 -20.5l-11 -16.5q99 13 160 7zM341 491q-2 -10 -24 12q-21 20 -17 31q2 6 8.5 11t11.5 -4q2 -5 7.5 -16.5
t9.5 -21t4 -12.5z" />
    <glyph glyph-name="Iacute" unicode="&#xcd;" horiz-adv-x="287" 
d="M443 409q2 0 2 -3t-0.5 -6.5t-2.5 -2.5q-62 3 -174 -17q-185 -283 -293 -619q85 13 178 11q3 0 3 -7.5t-3 -7.5q-98 -1 -185 -18q-15 -49 -22 -72q-1 -3 -6.5 -3t-10.5 3t-4 6q3 11 17 60q-95 -22 -122 -74q-2 -3 -8.5 -2t-12.5 4.5t-5 7.5q9 15 22 28t27.5 22t33.5 16.5
t35 12t37 9.5q100 332 274 614q-78 -17 -141 -34q-3 -1 -8.5 4.5t-7.5 11.5t1 8l4 1l4 1q79 19 164 32q29 46 41 64q3 3 10.5 0t13.5 -9.5t4 -9.5v-1q-5 -7 -14 -20.5l-11 -16.5q99 13 160 7zM341 523q0 -13 -31 -28q-23 -11 -22 -2q0 4 7 11.5t16 17.5t13 14q6 7 11.5 0
t5.5 -13z" />
    <glyph glyph-name="Icircumflex" unicode="&#xce;" horiz-adv-x="287" 
d="M279 493q-4 -3 -9 -2.5t-5 5.5q28 28 54 43q4 2 9 1t6 -4q5 -26 13 -46q-6 -8 -14 -1q-10 9 -18 31q-11 -7 -36 -27zM443 409q2 0 2 -3t-0.5 -6.5t-2.5 -2.5q-62 3 -174 -17q-185 -283 -293 -619q85 13 178 11q3 0 3 -7.5t-3 -7.5q-98 -1 -185 -18q-15 -49 -22 -72
q-1 -3 -6.5 -3t-10.5 3t-4 6q3 11 17 60q-95 -22 -122 -74q-2 -3 -8.5 -2t-12.5 4.5t-5 7.5q9 15 22 28t27.5 22t33.5 16.5t35 12t37 9.5q100 332 274 614q-78 -17 -141 -34q-3 -1 -8.5 4.5t-7.5 11.5t1 8l4 1l4 1q79 19 164 32q29 46 41 64q3 3 10.5 0t13.5 -9.5t4 -9.5v-1
q-5 -7 -14 -20.5l-11 -16.5q99 13 160 7z" />
    <glyph glyph-name="Idieresis" unicode="&#xcf;" horiz-adv-x="287" 
d="M298 510q-9 -17 -25 -14q-11 3 -7 15q9 21 23 17q16 -6 9 -18zM350 514q-9 -17 -25 -15q-13 3 -7 15q9 21 23 17q16 -5 9 -17zM443 409q2 0 2 -3t-0.5 -6.5t-2.5 -2.5q-62 3 -174 -17q-185 -283 -293 -619q85 13 178 11q3 0 3 -7.5t-3 -7.5q-98 -1 -185 -18
q-15 -49 -22 -72q-1 -3 -6.5 -3t-10.5 3t-4 6q3 11 17 60q-95 -22 -122 -74q-2 -3 -8.5 -2t-12.5 4.5t-5 7.5q14 25 41 43.5t52.5 27.5t61.5 17q100 332 274 614q-78 -17 -141 -34q-3 -1 -8.5 4.5t-7.5 11.5t1 8l4 1l4 1q79 19 164 32q29 46 41 64q3 3 10.5 0t13.5 -9.5
t4 -9.5v-1q-5 -7 -14 -20.5l-11 -16.5q99 13 160 7z" />
    <glyph glyph-name="Ntilde" unicode="&#xd1;" horiz-adv-x="428" 
d="M224 444q-2 -2 -4.5 0.5t-0.5 5.5q14 12 27 16.5t22 1.5t18 -6.5t16.5 -6t18 1.5t21.5 16l6 -6q-13 -13 -24 -19t-19 -6t-15.5 2.5t-15 6t-14.5 5.5t-16.5 -1t-19.5 -11zM342 398q13 9 25 13.5t24.5 4t20.5 -8.5t12.5 -28t1.5 -51q-2 -37 -16 -92q-17 -71 -57 -176
q-12 -32 -49 -114.5t-45 -102.5q-25 -57 -34 -83q-6 -15 -4 -23t4 -12.5t10 -5t13.5 0t13.5 3.5t11.5 4.5t6.5 2.5l2 -3q-16 -12 -40 -16.5t-33 2.5q-7 8 -7 28q1 11 4 24q8 35 28 88l91 218q37 97 57 172q14 52 18 88q2 28 1 43.5t-8.5 20t-17 2t-23.5 -10.5
q-81 -62 -207 -229t-210 -331q-20 -1 -15 35q51 203 166 451q9 10 16 7q2 -1 1 -4q-24 -57 -75 -199t-66 -204q104 177 220.5 318t159.5 168z" />
    <glyph glyph-name="Ograve" unicode="&#xd2;" horiz-adv-x="475" 
d="M487 389q4 -31 -1 -77q-21 -138 -97 -286q-79 -152 -175 -245q-60 -58 -123 -87q-34 -16 -74 -20q-46 -5 -77 9q-18 9 -30 26.5t-16 38.5q-5 33 3 77q12 61 51 142q32 68 79 143q-10 34 -9 64q3 77 49 142q44 63 107 107.5t136 61.5q23 5 38 6q31 1 38 0q4 0 12 -0.5
t14.5 -1.5t12.5 -3q19 -6 34 -23q22 -25 28 -74zM458 315q7 49 5 72q-1 43 -18 65q-15 22 -60 25q-6 1 -36 0q-13 0 -36 -6q-70 -15 -131.5 -58t-104.5 -104q-45 -64 -47 -135q0 -22 6 -50q52 79 68 99q8 9 13.5 6.5t6 -10t-1.5 -10.5q-42 -58 -77 -113q12 -31 30 -56l1 -1
q1 -1 -1.5 -3.5t-6 -4t-4.5 -0.5q-15 22 -28 52q-40 -65 -69 -125q-37 -76 -50 -137q-9 -41 -5 -71q5 -38 35 -54q24 -13 68 -9q37 4 69 21q54 26 114 90q90 100 163 242q78 158 97 275zM383 523q-2 -11 -24 11q-20 21 -17 31q2 6 8.5 11.5t11.5 -3.5q2 -6 7.5 -17.5
t10 -20.5t3.5 -12z" />
    <glyph glyph-name="Oacute" unicode="&#xd3;" horiz-adv-x="475" 
d="M487 389q4 -31 -1 -77q-21 -138 -97 -286q-79 -152 -175 -245q-60 -58 -123 -87q-34 -16 -74 -20q-46 -5 -77 9q-18 9 -30 26.5t-16 38.5q-5 33 3 77q12 61 51 142q32 68 79 143q-10 34 -9 64q3 77 49 142q44 63 107 107.5t136 61.5q23 5 38 6q31 1 38 0q4 0 12 -0.5
t14.5 -1.5t12.5 -3q19 -6 34 -23q22 -25 28 -74zM458 315q7 49 5 72q-1 43 -18 65q-15 22 -60 25q-6 1 -36 0q-14 0 -36 -6q-70 -15 -131.5 -58t-104.5 -104q-21 -30 -33.5 -65t-13.5 -70q0 -22 6 -50q51 79 68 99q8 9 13.5 6.5t5.5 -10t-1 -10.5q-42 -58 -77 -113
q12 -31 30 -56v-1q2 -1 -0.5 -3.5t-6 -4t-4.5 -0.5q-15 22 -28 52q-40 -65 -69 -125q-37 -76 -50 -137q-9 -41 -5 -71q5 -38 34 -54q25 -13 69 -9q37 4 69 21q54 26 114 90q90 100 163 242q78 158 97 275zM439 554q0 -13 -31 -27q-23 -11 -22 -2q0 3 7 11t16 17.5t12 14.5
q7 7 12.5 0t5.5 -14z" />
    <glyph glyph-name="Ocircumflex" unicode="&#xd4;" horiz-adv-x="475" 
d="M487 389q4 -31 -1 -77q-21 -138 -97 -286q-79 -152 -175 -245q-60 -58 -123 -87q-34 -16 -74 -20q-46 -5 -77 9q-18 9 -30 26.5t-16 38.5q-5 33 3 77q12 61 51 142q32 68 79 143q-10 34 -9 64q3 77 49 142q44 63 107 107.5t136 61.5q23 5 38 6q23 1 31 1q-7 5 -8 11
q-2 6 1 16q4 14 12 24q9 11 20 18q17 10 30 6q12 -4 11 -16q1 -5 -2 -14q-2 -8 -12 -23q-8 -12 -17 -20l-8 -4q12 -1 19 -4q19 -6 34 -23q22 -25 28 -74zM390 514q-3 -9 1 -10q4 -3 13 3t15 15q7 8 10 19q2 5 1 9q0 1 -1 2q-5 1 -14 -5.5t-15 -15.5q-8 -12 -10 -17zM458 315
q7 49 5 72q-1 43 -18 65q-15 22 -60 25q-6 1 -36 0q-14 0 -36 -6q-70 -15 -131.5 -58t-104.5 -104q-21 -30 -33.5 -65t-13.5 -70q0 -22 6 -50q51 79 68 99q8 9 13.5 6.5t5.5 -10t-1 -10.5q-42 -58 -77 -113q12 -31 30 -56v-1q2 -1 -0.5 -3.5t-6 -4t-4.5 -0.5q-15 22 -28 52
q-40 -65 -69 -125q-37 -76 -50 -137q-9 -41 -5 -71q5 -38 34 -54q25 -13 69 -9q37 4 69 21q54 26 114 90q90 100 163 242q78 158 97 275z" />
    <glyph glyph-name="Otilde" unicode="&#xd5;" horiz-adv-x="475" 
d="M342 537q-3 -2 -5.5 0.5t-0.5 5.5q15 13 28 17.5t21.5 1.5t17.5 -6.5t17 -6.5t18 1t22 17l5 -6q-17 -18 -31.5 -23t-24.5 -1t-19.5 9t-22 4t-25.5 -13zM487 389q4 -31 -1 -77q-21 -138 -97 -286q-79 -152 -175 -245q-60 -58 -123 -87q-34 -16 -74 -20q-46 -5 -77 9
q-18 9 -30 26.5t-16 38.5q-5 33 3 77q12 61 51 142q32 68 79 143q-10 34 -9 64q3 77 49 142q44 63 107 107.5t136 61.5q23 5 38 6q31 1 38 0q4 0 12 -0.5t14.5 -1.5t12.5 -3q19 -6 34 -23q22 -25 28 -74zM458 315q7 49 5 72q-1 43 -18 65q-15 22 -60 25q-6 1 -36 0
q-13 0 -36 -6q-70 -15 -131.5 -58t-104.5 -104q-45 -64 -47 -135q0 -22 6 -50q52 79 68 99q8 9 13.5 6.5t6 -10t-1.5 -10.5q-42 -58 -77 -113q12 -31 30 -56l1 -1q1 -1 -1.5 -3.5t-6 -4t-4.5 -0.5q-15 22 -28 52q-40 -65 -69 -125q-37 -76 -50 -137q-9 -41 -5 -71
q5 -38 35 -54q24 -13 68 -9q37 4 69 21q54 26 114 90q90 100 163 242q78 158 97 275z" />
    <glyph glyph-name="Odieresis" unicode="&#xd6;" horiz-adv-x="475" 
d="M372 542q-10 -17 -26 -15q-13 2 -7 15q9 21 23 17q16 -5 10 -17zM423 545q-9 -17 -25 -14q-13 2 -7 15q9 21 23 17q16 -5 9 -18zM487 389q4 -31 -1 -77q-21 -138 -97 -286q-79 -152 -175 -245q-60 -58 -123 -87q-34 -16 -74 -20q-46 -5 -77 9q-18 9 -30 26.5t-16 38.5
q-5 33 3 77q12 61 51 142q32 68 79 143q-10 34 -9 64q3 77 49 142q44 63 107 107.5t136 61.5q23 5 38 6q31 1 38 0q4 0 9.5 -0.5t10 -0.5t9.5 -1.5t10 -2.5q19 -6 34 -23q22 -25 28 -74zM458 315q7 49 5 72q-1 43 -18 65q-15 22 -60 25q-6 1 -36 0q-14 0 -36 -6
q-46 -10 -90 -33t-81 -56t-65 -73q-45 -64 -47 -135q0 -22 6 -50q51 79 68 99q8 9 13.5 6.5t5.5 -10t-1 -10.5q-42 -58 -77 -113q12 -31 30 -56v-1q2 -1 -0.5 -3.5t-6 -4t-4.5 -0.5q-15 22 -28 52q-40 -65 -69 -125q-37 -76 -50 -137q-9 -41 -5 -71q5 -38 34 -54
q25 -13 69 -9q37 4 69 21q54 26 114 90q90 100 163 242q78 158 97 275z" />
    <glyph glyph-name="multiply" unicode="&#xd7;" horiz-adv-x="181" 
d="M149 85q3 -1 5 -4t0 -5q-6 -4 -41 -31q30 -42 26 -49q-2 -2 -4 -3.5t-4 -2.5t-4 0q-6 11 -30 42q-7 -6 -15 -12t-13.5 -11t-10.5 -9l-7.5 -6l-2.5 -2q-2 -1 -4 1.5t-3.5 6.5t-0.5 5q6 11 45 41q-19 24 -30 33q0 2 3.5 4.5t7.5 3.5t6 0q11 -5 30 -29q41 30 47 27z" />
    <glyph glyph-name="Oslash" unicode="&#xd8;" horiz-adv-x="671" 
d="M662 467q3 1 6.5 -0.5t6.5 -5.5t6 -8.5t3.5 -8t-1.5 -5.5l-36 -27q-6 -5 -21 -16q-22 -16 -53 -42q-1 -21 -3 -42q-21 -138 -97 -286q-78 -153 -174 -245q-60 -58 -124 -87q-33 -16 -74 -21q-46 -4 -77 10q-35 16 -44 60q-1 -2 -3 -4.5l-4 -5t-4 -3.5q-25 -33 -58 -80
q-3 -4 -12 2.5t-7 10.5q16 22 52 71q12 18 33 44q0 22 4 47q13 61 51 142q32 68 79 143q-9 34 -8 64q2 76 49 142q43 63 106.5 107.5t136.5 60.5q23 6 37 6q31 2 39 1q3 0 11.5 -0.5t14.5 -1.5t12 -3q19 -6 35 -23q20 -24 27 -68q1 1 4 3.5t5 4.5q8 6 40.5 31.5t41.5 32.5z
M543 315q0 1 1 15q-130 -113 -290 -278.5t-258 -288.5v-6v-7q5 -38 35 -54q24 -13 69 -9q36 4 68 21q55 26 114 90q91 100 164 242q77 158 97 275zM548 376v5v6q-2 43 -18 65q-15 22 -60 25q-7 1 -36 0q-14 0 -36 -6q-70 -15 -132 -58t-104 -104q-46 -64 -47 -135
q-1 -22 6 -50q51 79 67 99q8 9 13.5 6.5t6 -10t-0.5 -10.5q-43 -58 -78 -113q12 -31 31 -56v-1q1 -1 -1.5 -3.5t-5.5 -4t-4 -0.5q-16 22 -28 52q-40 -65 -70 -125q-17 -36 -29.5 -70t-20.5 -67q0 -3 -1 -8.5t-1 -6.5q108 134 269.5 302t279.5 268z" />
    <glyph glyph-name="Ugrave" unicode="&#xd9;" horiz-adv-x="631" 
d="M482 491q-2 -10 -24 12q-21 20 -17 31q2 6 8.5 11t11.5 -4q1 -3 3 -8t4.5 -9.5t5 -10t4.5 -9.5t3 -7.5t1 -5.5zM629 485q2 5 14.5 -1t10.5 -11v-1q-105 -226 -161 -380q-41 -113 -62 -196q-14 -58 -15 -100q-2 -72 37 -80q2 0 2 -2t-1 -4t-2 -2q-14 2 -26.5 11.5
t-17.5 23.5q-9 18 -10 53q0 44 12 105q17 85 58 200q22 61 52 137q-63 -104 -122 -185q-77 -110 -152 -194q-89 -102 -184 -164q-38 -25 -54 -32q-19 -8 -32 -9q-24 -4 -38 8q-14 11 -17 34q-2 16 0 33q2 25 12 62q24 88 88 230q99 214 224 438q3 3 10 1t13.5 -7.5t4.5 -9.5
v0q-145 -251 -229 -432q-64 -140 -89 -226q-9 -35 -12 -58q-4 -38 9 -48q13 -11 47 4q15 7 51 30q93 60 182 159q88 99 151 191q147 214 246 422z" />
    <glyph glyph-name="Ucircumflex" unicode="&#xdb;" horiz-adv-x="631" 
d="M443 493q-4 -3 -9 -2.5t-5 5.5q27 28 53 43q4 2 9.5 1t6.5 -4q5 -26 13 -46q-6 -8 -14 -1q-11 9 -18 31q-11 -7 -36 -27zM629 485q2 5 14.5 -1t10.5 -11v-1q-105 -226 -161 -380q-41 -113 -62 -196q-14 -58 -15 -100q-2 -72 37 -80q2 0 2 -2t-1 -4t-2 -2
q-14 2 -26.5 11.5t-17.5 23.5q-9 18 -10 53q0 44 12 105q17 85 58 200q22 61 52 137q-63 -104 -122 -185q-77 -110 -152 -194q-89 -102 -184 -164q-1 -1 -8.5 -5.5t-9.5 -6t-8 -5.5t-9.5 -5.5t-9 -4.5t-9.5 -5q-19 -8 -32 -9q-24 -4 -38 8q-14 11 -17 34q-2 16 0 33
q2 25 12 62q24 88 88 230q99 214 224 438q3 3 10 1t13.5 -7.5t4.5 -9.5v0q-145 -251 -229 -432q-64 -140 -89 -226q-9 -35 -12 -58q-4 -38 9 -48q13 -11 47 4q15 7 51 30q93 60 182 159q88 99 151 191q147 214 246 422z" />
    <glyph glyph-name="Udieresis" unicode="&#xdc;" horiz-adv-x="631" 
d="M455 510q-9 -17 -25 -14q-11 3 -8 15q10 21 24 17q16 -6 9 -18zM507 514q-9 -17 -26 -15q-12 3 -7 15q10 21 24 17q16 -5 9 -17zM629 485q2 5 14.5 -1t10.5 -11v-1q-105 -226 -161 -380q-41 -113 -62 -196q-14 -58 -15 -100q-2 -72 37 -80q2 0 2 -2t-1 -4t-2 -2
q-14 2 -26.5 11.5t-17.5 23.5q-9 18 -10 53q0 44 12 105q17 85 58 200q22 61 52 137q-63 -104 -122 -185q-77 -110 -152 -194q-89 -102 -184 -164q-38 -25 -54 -32q-19 -8 -32 -9q-24 -4 -38 8q-14 11 -17 34q-2 16 0 33q2 25 12 62q24 88 88 230q99 214 224 438q3 3 10 1
t13.5 -7.5t4.5 -9.5v0q-145 -251 -229 -432q-64 -140 -89 -226q-9 -35 -12 -58q-4 -38 9 -48q13 -11 47 4q15 7 51 30q93 60 182 159q88 99 151 191q147 214 246 422z" />
    <glyph glyph-name="Yacute" unicode="&#xdd;" horiz-adv-x="598" 
d="M598 2q1 -1 0 -7q-95 1 -195 -35q-41 -85 -84 -154q-62 -96 -120 -148q-44 -37 -84 -51q-22 -8 -49 -10q-35 -1 -52 13q-21 19 -9 54q7 21 22 45q23 34 62 73q64 62 151 115q66 39 134 65q44 93 81 194q37 102 55 178q14 63 12 88v1q-6 -3 -16 -11q-13 -11 -32 -32
t-76.5 -85.5t-98 -107.5t-81.5 -82q-83 -78 -151 -114q-28 -15 -45 -19q-16 -4 -28 -2q-7 1 -14 7t-9 14q-7 18 0 51q4 21 13 47q30 80 71 156t103 179q3 2 9 0t11.5 -7t3.5 -8v-1q-129 -203 -179 -326q-21 -61 -15 -85q4 -14 29 -8q17 4 42 17q66 34 148 110q41 38 82 83
t93 106.5t76 89.5q20 22 34 34q13 11 21 16q14 5 23 -2q6 -5 9 -17q1 -8 1 -15.5t-0.5 -15t-1 -13.5t-2 -14t-2.5 -13t-3 -13.5t-3 -13.5q-19 -84 -53 -181q-34 -93 -71 -173q96 31 188 28zM297 -181q33 54 69 127q-60 -25 -119 -62q-82 -51 -145 -115q-37 -38 -58 -71
q-14 -22 -20 -40q-7 -24 4 -33q23 -17 80 2q35 14 75 49q56 51 114 143zM392 500q0 -14 -30 -28q-23 -11 -23 -2q1 3 7.5 11t16 17.5t12.5 14.5q7 7 12 0t5 -13z" />
    <glyph glyph-name="germandbls" unicode="&#xdf;" horiz-adv-x="188" 
d="M130 1q18 0 26 -9t6.5 -20.5t-10.5 -19.5q-12 -13 -35 -20q-14 -4 -39 -3q-4 0 -2 5q0 1 2 1q40 -2 60 24q14 19 -2 28q-11 5 -31 2q-2 0 -2.5 3t1.5 4q17 6 29 32q7 14 0 15q-17 2 -32 -17t-23.5 -45.5t-13.5 -49t-5 -32.5q0 -6 -13 1q-5 4 -6 7q9 59 30.5 101t54.5 45
q14 1 21 -6.5t3 -20.5t-19 -25z" />
    <glyph glyph-name="agrave" unicode="&#xe0;" horiz-adv-x="220" 
d="M222 2q2 1 3 -3q0 -1 -1 -2q-146 -92 -149 -32q-1 18 11 47q-30 -27 -38 -34q-30 -27 -53 -35q-16 -6 -23.5 1.5t0.5 27.5q4 7 12 18q13 16 30 29q18 14 37.5 19t39.5 -4q1 1 2 3q3 2 4 3q5 6 10 2q10 -9 10 -11q-34 -78 1 -77q26 1 104 48zM41 -13q25 21 45 42
q-28 4 -59 -26q-14 -12 -24 -26q-4 -6 -8 -15q-1 -2 -2 -5q1 0 1 1q5 1 16 7q11 7 31 22zM90 49q-1 -7 -16 9q-13 13 -11 19q2 4 6 7.5t7 -2.5q2 -3 5.5 -11t6 -14t2.5 -8z" />
    <glyph glyph-name="aacute" unicode="&#xe1;" horiz-adv-x="220" 
d="M222 2q2 1 3 -3q0 -1 -1 -2q-146 -92 -149 -32q-1 18 11 47q-30 -27 -38 -34q-30 -27 -53 -35q-16 -6 -23.5 1.5t0.5 27.5q4 7 12 18q13 16 30 29q18 14 37.5 19t39.5 -4q1 1 2 3q3 2 4 3q5 6 10 2q10 -9 10 -11q-34 -78 1 -77q26 1 104 48zM41 -13q25 21 45 42
q-28 4 -59 -26q-14 -12 -24 -26q-4 -6 -8 -15q-1 -2 -2 -5q1 0 1 1q5 1 16 7q11 7 31 22zM96 74q0 -10 -21 -19q-13 -5 -12 0q0 2 4.5 7t10 11t7.5 9q4 5 7.5 0.5t3.5 -8.5z" />
    <glyph glyph-name="acircumflex" unicode="&#xe2;" horiz-adv-x="220" 
d="M56 55q-2 -2 -5.5 -1.5t-3.5 3.5q18 18 35 28q2 1 5.5 0.5t4.5 -2.5q3 -17 8 -30q-4 -5 -9 -1q-7 6 -12 21q-7 -5 -23 -18zM222 2q2 1 3 -3q0 -1 -1 -2q-146 -92 -149 -32q-1 18 11 47q-30 -27 -38 -34q-30 -27 -53 -35q-16 -6 -23.5 1.5t0.5 27.5q4 7 12 18q13 16 30 29
q18 14 37.5 19t39.5 -4q1 1 2 3q3 2 4 3q5 6 10 2q10 -9 10 -11q-34 -78 1 -77q26 1 104 48zM41 -13q25 21 45 42q-28 4 -59 -26q-14 -12 -24 -26q-4 -6 -8 -15q-1 -2 -2 -5q1 0 1 1q5 1 16 7q11 7 31 22z" />
    <glyph glyph-name="atilde" unicode="&#xe3;" horiz-adv-x="220" 
d="M34 53q-1 -1 -3 0.5t0 3.5q21 18 43.5 7.5t36.5 7.5l4 -4q-14 -14 -25.5 -16t-18 3.5t-16.5 6t-21 -8.5zM222 2q2 1 3 -3q0 -1 -1 -2q-146 -92 -149 -32q-1 18 11 47q-30 -27 -38 -34q-30 -27 -53 -35q-16 -6 -23.5 1.5t0.5 27.5q4 7 12 18q13 16 30 29q18 14 37.5 19
t39.5 -4l2 2l2 2l2 2q5 6 10 2q10 -9 10 -11q-34 -78 1 -77q26 1 104 48zM41 -13q25 21 45 42q-28 4 -59 -26q-14 -12 -24 -26q-4 -6 -8 -15q-1 -2 -2 -5q1 0 1 1q5 1 16 7q11 7 31 22z" />
    <glyph glyph-name="adieresis" unicode="&#xe4;" horiz-adv-x="220" 
d="M69 60q-7 -12 -18 -9q-7 2 -4 9q6 14 16 11t6 -11zM102 62q-6 -12 -17 -9q-7 2 -4 9q6 14 15 11q11 -3 6 -11zM222 2q2 1 3 -3q0 -1 -1 -2q-146 -92 -149 -32q-1 18 11 47q-30 -27 -38 -34q-30 -27 -53 -35q-16 -6 -23.5 1.5t0.5 27.5q4 7 12 18q13 16 30 29
q18 14 37.5 19t39.5 -4q1 1 2 3q3 2 4 3q5 6 10 2q10 -9 10 -11q-34 -78 1 -77q26 1 104 48zM41 -13q25 21 45 42q-28 4 -59 -26q-14 -12 -24 -26q-4 -6 -8 -15q-1 -2 -2 -5q1 0 1 1q5 1 16 7q11 7 31 22z" />
    <glyph glyph-name="aring" unicode="&#xe5;" horiz-adv-x="220" 
d="M62 51q-7 3 -8 10q-1 4 1 10q2 9 8 16t13 12q11 6 19 4q8 -3 8 -11q0 -4 -2 -9q-2 -6 -8 -15q-5 -8 -11 -13q-11 -8 -20 -4zM66 68q-1 -6 1 -7q1 -1 5 0.5t7.5 4.5t6.5 7q4 5 6 12q1 4 1 6l-1 1v1q-9 1 -19 -14q-6 -8 -7 -11zM222 2q2 1 3 -3q0 -1 -1 -2
q-146 -92 -149 -32q-1 18 11 47q-30 -27 -38 -34q-30 -27 -53 -35q-16 -6 -23.5 1.5t0.5 27.5q4 7 12 18q13 16 30 29q18 14 37.5 19t39.5 -4l2 2l2 2l2 2q5 6 10 2q10 -9 10 -11q-34 -78 1 -77q26 1 104 48zM41 -13q25 21 45 42q-28 4 -59 -26q-14 -12 -24 -26
q-4 -6 -8 -15q-1 -2 -2 -5q1 0 1 1q5 1 16 7q11 7 31 22z" />
    <glyph glyph-name="ae" unicode="&#xe6;" horiz-adv-x="225" 
d="M222 2q2 1 3 -2q0 -2 -1 -3q-146 -92 -149 -32q-1 18 11 47q-30 -27 -38 -34q-30 -27 -53 -35q-16 -6 -23.5 1.5t0.5 27.5q4 7 12 18q13 16 30 29q18 14 37.5 19t39.5 -4l3 3l3 3q5 6 10 2q10 -8 10 -11h-0.5t-0.5 -1q1 1 3.5 3t4.5 3q14 9 27 10q8 1 15 -1q5 -1 10 -5
t3.5 -13.5t-16.5 -21.5q-19 -14 -58 -25q-13 -33 22 -24q31 7 95 46zM136 19q-13 -10 -26 -29q32 9 47 23q20 18 6 19q-4 0 -9 -2q-9 -3 -18 -11zM41 -13q25 21 45 42q-28 4 -59 -26q-14 -12 -24 -26q-4 -6 -8 -15q-1 -2 -2 -5q1 0 1 1q5 1 16 7q12 7 31 22z" />
    <glyph glyph-name="ccedilla" unicode="&#xe7;" horiz-adv-x="99" 
d="M89 -40q5 -1 5 -3.5t-5 -4.5q-17 -7 -34 -13q-10 -3 -21 -4v-1l-8 -14q29 5 33 -2q2 -5 -4 -11q-16 -14 -36 -21h-1q-3 0 -4 3q-1 4 3 5q14 4 32 20q-12 0 -30 -4q-3 -1 -4.5 1.5t-0.5 4.5l10 18q-27 1 -36.5 18.5t5.5 42.5q23 39 55 52q27 11 42 -0.5t1 -35.5
q-3 -6 -7 -7.5t-7 0t-3 3.5q-1 2 0.5 4l4.5 6t5 9q5 11 -5 15.5t-22 -1.5q-40 -27 -45 -64q-5 -30 22 -32q8 0 20 3q18 6 35 13z" />
    <glyph glyph-name="egrave" unicode="&#xe8;" horiz-adv-x="159" 
d="M158 2q2 1 4 -4q-97 -71 -158 -69q-6 1 -12 3.5t-12.5 8.5t-5.5 18.5t10 30.5q15 24 38 39q15 8 28 10q8 0 15 -2q5 -1 9.5 -4.5t3.5 -13t-17 -21.5q-19 -15 -58 -25q-14 -31 21 -30q46 2 111 43q12 8 23 16zM34 12q-12 -11 -26 -29q32 9 47 23q21 17 7 18l-10 -1
q-8 -3 -18 -11zM74 49q-2 -7 -17 9q-12 13 -10 19q1 4 5.5 7.5t7.5 -2.5q1 -3 5 -11t6.5 -14t2.5 -8z" />
    <glyph glyph-name="eacute" unicode="&#xe9;" horiz-adv-x="159" 
d="M158 2q2 1 4 -4q-97 -71 -158 -69q-6 1 -12 3.5t-12.5 8.5t-5.5 18.5t10 30.5q15 24 38 39q15 8 28 10q8 0 15 -2q5 -1 9.5 -4.5t3.5 -13t-17 -21.5q-19 -15 -58 -25q-14 -31 21 -30q46 2 111 43q12 8 23 16zM34 12q-12 -11 -26 -29q32 9 47 23q21 17 7 18l-10 -1
q-8 -3 -18 -11zM91 74q0 -10 -21 -19q-13 -5 -13 0q1 2 5 7t10 11t8 9q4 5 7.5 0.5t3.5 -8.5z" />
    <glyph glyph-name="ecircumflex" unicode="&#xea;" horiz-adv-x="159" 
d="M46 55q-3 -2 -6 -1.5t-4 3.5q18 18 35 28q3 1 6.5 0.5t3.5 -2.5q4 -17 9 -30q-4 -5 -9 -1q-7 6 -12 21q-7 -5 -23 -18zM158 2q2 1 4 -4q-97 -71 -158 -69q-6 1 -12 3.5t-12.5 8.5t-5.5 18.5t10 30.5q15 24 38 39q15 8 28 10q8 0 15 -2q5 -1 9.5 -4.5t3.5 -13t-17 -21.5
q-19 -15 -58 -25q-14 -31 21 -30q46 2 111 43q12 8 23 16zM34 12q-12 -11 -26 -29q32 9 47 23q21 17 7 18l-10 -1q-8 -3 -18 -11z" />
    <glyph glyph-name="edieresis" unicode="&#xeb;" horiz-adv-x="159" 
d="M57 60q-7 -12 -18 -9q-7 2 -4 9q7 14 16 11q10 -3 6 -11zM91 62q-7 -12 -18 -9q-7 2 -4 9q6 14 16 11t6 -11zM158 2q2 1 4 -4q-97 -71 -158 -69q-6 1 -12 3.5t-12.5 8.5t-5.5 18.5t10 30.5q15 24 38 39q15 8 28 10q8 0 15 -2q5 -1 9.5 -4.5t3.5 -13t-17 -21.5
q-19 -15 -58 -25q-14 -31 21 -30q46 2 111 43q12 8 23 16zM34 12q-12 -11 -26 -29q32 9 47 23q21 17 7 18l-10 -1q-8 -3 -18 -11z" />
    <glyph glyph-name="igrave" unicode="&#xec;" horiz-adv-x="128" 
d="M120 2q3 0 4 -4q-38 -28 -71.5 -43.5t-49.5 -14.5q-15 2 -20 15.5t-1 30.5q7 27 19 48q8 13 14 11.5t9.5 -8.5t1.5 -11l-0.5 -0.5l-0.5 -0.5q-17 -30 -20 -42q-6 -16 -4 -24q8 -13 42.5 1t76.5 42zM38 59q-2 -7 -17 9q-12 12 -10 19q1 4 5.5 7t7.5 -2q1 -4 5 -11.5
t6.5 -13.5t2.5 -8z" />
    <glyph glyph-name="iacute" unicode="&#xed;" horiz-adv-x="128" 
d="M120 2q3 0 4 -4q-38 -28 -71.5 -43.5t-49.5 -14.5q-15 2 -20 15.5t-1 30.5q7 27 19 48q8 13 14 11.5t9.5 -8.5t1.5 -11l-0.5 -0.5l-0.5 -0.5q-17 -30 -20 -42q-6 -16 -4 -24q8 -13 42.5 1t76.5 42zM52 83q0 -9 -21 -18q-13 -6 -12 -1q0 2 3 5.5t6.5 7t7.5 8t6 7.5
q3 5 6.5 0t3.5 -9z" />
    <glyph glyph-name="icircumflex" unicode="&#xee;" horiz-adv-x="128" 
d="M4 55q-3 -2 -6 -1.5t-3 3.5q18 18 35 28q2 1 5.5 0.5t4.5 -2.5q3 -17 8 -30q-4 -5 -9 -1q-7 6 -12 21q-7 -5 -23 -18zM120 2q2 1 3.5 -1t0.5 -3q-38 -28 -71.5 -43.5t-49.5 -14.5q-15 2 -20 15.5t-1 30.5q7 27 19 48q8 13 14 11.5t9.5 -8.5t1.5 -11l-0.5 -0.5l-0.5 -0.5
q-17 -30 -20 -42q-6 -16 -4 -24q8 -13 42.5 1t76.5 42z" />
    <glyph glyph-name="idieresis" unicode="&#xef;" horiz-adv-x="128" 
d="M18 69q-6 -12 -17 -9q-7 2 -4 10q6 13 15 11q11 -4 6 -12zM52 72q-7 -12 -18 -9q-7 2 -3 9q6 14 15 11q11 -3 6 -11zM120 2q2 1 3.5 -1t0.5 -3q-38 -28 -71.5 -43.5t-49.5 -14.5q-15 2 -20 15.5t-1 30.5q7 27 19 48q8 13 14 11.5t9.5 -8.5t1.5 -11l-0.5 -0.5l-0.5 -0.5
q-17 -30 -20 -42q-6 -16 -4 -24q8 -13 42.5 1t76.5 42z" />
    <glyph glyph-name="ntilde" unicode="&#xf1;" horiz-adv-x="224" 
d="M28 53q-2 -1 -3.5 0.5t-0.5 3.5q21 18 44 7.5t37 7.5l3 -4q-13 -14 -24.5 -16t-18.5 3.5t-17 6t-20 -8.5zM224 2q2 1 3 -3q1 -2 0 -2q-144 -97 -146 -32q0 7 2 22q4 29 -5 29q-4 0 -12 -5q-36 -23 -73 -70q-1 -1 -4 -0.5t-6 2.5t-3 5q0 19 12.5 52t20.5 38q15 9 22 1
q3 -3 1 -5q-23 -19 -33 -64q20 23 37 36.5t28 19t19.5 5t12.5 -5t7 -12.5q1 -5 -1 -23.5t-1 -24.5q6 -36 104 27q7 5 15 10z" />
    <glyph glyph-name="ograve" unicode="&#xf2;" 
d="M153 1q3 1 4 -3q-25 -18 -42.5 -24t-41.5 -2q-30 -35 -65 -29q-30 6 -27 37q1 9 6 20q13 30 52 39q33 7 38 -12q2 -5 0 -12q6 -6 6 -15t-3 -15l-3 -6q36 -7 76 22zM3 -22q-3 -26 19 -26q24 3 40 25q-12 10 -9.5 23.5t17.5 15.5q4 12 -6.5 14.5t-17.5 -1.5
q-14 -6 -27.5 -20.5t-15.5 -30.5zM66 -16q4 4 6.5 10t2.5 10t-1 5q-10 3 -13 -9t5 -16zM65 49q-1 -7 -16 9q-12 13 -10 19q1 4 5.5 7.5t7.5 -2.5q1 -3 4.5 -11t6.5 -14t2 -8z" />
    <glyph glyph-name="oacute" unicode="&#xf3;" 
d="M153 1q3 1 4 -3q-25 -18 -42.5 -24t-41.5 -2q-30 -35 -65 -29q-30 6 -27 37q1 9 6 20q13 30 52 39q33 7 38 -12q2 -5 0 -12q6 -6 6 -15t-3 -15l-3 -6q36 -7 76 22zM3 -22q-3 -26 19 -26q24 3 40 25q-12 10 -9.5 23.5t17.5 15.5q4 12 -6.5 14.5t-17.5 -1.5
q-14 -6 -27.5 -20.5t-15.5 -30.5zM66 -16q4 4 6.5 10t2.5 10t-1 5q-10 3 -13 -9t5 -16zM83 74q0 -10 -21 -19q-13 -5 -13 0q1 2 5 7t10 11t8 9q4 5 7.5 0.5t3.5 -8.5z" />
    <glyph glyph-name="ocircumflex" unicode="&#xf4;" 
d="M44 55q-2 -2 -5.5 -1.5t-3.5 3.5q18 18 35 28q2 1 5.5 0.5t4.5 -2.5q3 -17 8 -30q-4 -5 -9 -1q-7 6 -12 21q-7 -5 -23 -18zM153 1q3 1 4 -3q-25 -18 -42.5 -24t-41.5 -2q-30 -35 -65 -29q-30 6 -27 37q1 9 6 20q13 30 52 39q33 7 38 -12q2 -5 0 -12q6 -6 6 -15t-3 -15
l-3 -6q36 -7 76 22zM3 -22q-3 -26 19 -26q25 3 40 25q-12 10 -9.5 23.5t17.5 15.5q4 12 -6.5 14.5t-17.5 -1.5q-14 -6 -27.5 -20.5t-15.5 -30.5zM66 -16q4 4 6.5 10t2.5 10t-1 5q-10 3 -13 -9t5 -16z" />
    <glyph glyph-name="otilde" unicode="&#xf5;" 
d="M16 53q-2 -1 -3.5 0.5t-0.5 3.5q21 18 44 7.5t37 7.5l3 -4q-13 -14 -24.5 -16t-18.5 3.5t-17 6t-20 -8.5zM153 1q3 1 4 -3q-25 -18 -42.5 -24t-41.5 -2q-30 -35 -65 -29q-30 6 -27 37q1 9 6 20q13 30 52 39q33 7 38 -12q2 -5 0 -12q6 -6 6 -15t-3 -15l-3 -6q36 -7 76 22z
M3 -22q-3 -26 19 -26q24 3 40 25q-12 10 -9.5 23.5t17.5 15.5q4 12 -6.5 14.5t-17.5 -1.5q-14 -6 -27.5 -20.5t-15.5 -30.5zM66 -16q4 4 6.5 10t2.5 10t-1 5q-10 3 -13 -9t5 -16z" />
    <glyph glyph-name="odieresis" unicode="&#xf6;" 
d="M48 60q-7 -12 -18 -9q-7 2 -3 9q6 14 15 11q10 -3 6 -11zM82 62q-7 -12 -18 -9q-7 2 -4 9q6 14 16 11t6 -11zM153 1q3 1 4 -3q-25 -18 -42.5 -24t-41.5 -2q-30 -35 -65 -29q-30 6 -27 37q1 9 6 20q13 30 52 39q33 7 38 -12q2 -5 0 -12q6 -6 6 -15t-3 -15l-3 -6
q36 -7 76 22zM3 -22q-3 -26 19 -26q25 3 40 25q-12 10 -9.5 23.5t17.5 15.5q4 12 -6.5 14.5t-17.5 -1.5q-14 -6 -27.5 -20.5t-15.5 -30.5zM66 -16q4 4 6.5 10t2.5 10t-1 5q-10 3 -13 -9t5 -16z" />
    <glyph glyph-name="divide" unicode="&#xf7;" horiz-adv-x="230" 
d="M145 94q-12 -14 -24 -6q-6 5 0 13q12 17 21 10q11 -8 3 -17zM117 17q12 -4 7 -16q-8 -17 -22 -13q-8 3 -4 14q7 19 19 15zM203 62q5 0 0 -11q-3 -6 -8 -6q-35 1 -91.5 -3.5t-61.5 -7.5q-4 3 -1 9t9 7q67 16 153 12z" />
    <glyph glyph-name="oslash" unicode="&#xf8;" horiz-adv-x="124" 
d="M112 55q4 2 7.5 -0.5t-1.5 -7.5q-7 -7 -22 -25q0 -1 1 -2q1 -2 1 -4q8 -4 6 -17q1 -22 -18.5 -43.5t-49.5 -19.5q-1 0 -3 0.5l-2 0.5q-18 -25 -23 -33q-2 -4 -6 2l-2 7q8 14 19 30q-20 14 -11 45q8 27 37 41.5t44 3.5q17 17 23 22zM30 -41q25 36 53 66q-8 5 -18 0
q-14 -7 -25.5 -23.5t-11.5 -31.5q0 -5 2 -11zM86 -23q5 12 6 25h-1q-5 2 -6 6q-24 -29 -46 -60q10 -4 25 5t22 24z" />
    <glyph glyph-name="ugrave" unicode="&#xf9;" horiz-adv-x="189" 
d="M66 49q-2 -7 -17 9q-12 13 -10 19q1 4 5.5 7.5t7.5 -2.5q1 -3 5 -11t6.5 -14t2.5 -8zM189 2q1 0 3 -4q-75 -63 -114 -57q-27 5 -12 46q-35 -38 -67 -45q-26 -5 -24 23q1 6 7 21t14.5 29t13.5 18q2 2 4 1.5t4.5 -2.5t4.5 -4.5t3 -3.5l1 -2q-25 -34 -29 -60q-1 -10 6 -8
q2 1 5 2q26 15 44 33.5t37 51.5q4 2 7.5 0.5t6 -4.5t1.5 -5q-2 -7 -6 -17.5t-7.5 -20.5t-5.5 -16q-10 -28 13 -26q27 3 90 50z" />
    <glyph glyph-name="uacute" unicode="&#xfa;" horiz-adv-x="189" 
d="M85 74q0 -10 -23 -19q-11 -5 -11 0q0 2 4.5 7t10.5 11t8 9q4 5 7.5 0.5t3.5 -8.5zM189 2q1 0 3 -4q-75 -63 -114 -57q-27 5 -12 46q-35 -38 -67 -45q-26 -5 -24 23q1 9 14 35.5t21 32.5q3 3 7 0t7 -7l3 -4q-25 -34 -29 -60q-1 -10 6 -8q2 1 5 2q26 15 44 33.5t37 51.5
q4 2 7.5 0.5t6 -4.5t1.5 -5q-2 -8 -9.5 -27.5t-9.5 -26.5q-10 -28 13 -26q27 3 90 50z" />
    <glyph glyph-name="ucircumflex" unicode="&#xfb;" horiz-adv-x="189" 
d="M48 55q-3 -2 -6 -1.5t-3 3.5q18 18 35 28q2 1 5.5 0.5t4.5 -2.5q3 -17 8 -30q-4 -5 -9 -1q-7 6 -12 21q-7 -5 -23 -18zM189 2q1 0 3 -4q-75 -63 -114 -57q-27 5 -12 46q-35 -38 -67 -45q-26 -5 -24 23q1 9 14 35.5t21 32.5q3 3 7 0t7 -7l3 -4q-25 -34 -29 -60
q-1 -10 6 -8q2 1 5 2q26 15 44 33.5t37 51.5q4 2 7.5 0.5t6 -4.5t1.5 -5q-2 -8 -9.5 -27.5t-9.5 -26.5q-10 -28 13 -26q27 3 90 50z" />
    <glyph glyph-name="udieresis" unicode="&#xfc;" horiz-adv-x="189" 
d="M55 60q-7 -12 -18 -9q-7 2 -4 9q6 14 16 11t6 -11zM88 62q-6 -12 -17 -9q-7 2 -4 9q6 14 15 11q11 -3 6 -11zM189 2q1 0 3 -4q-75 -63 -114 -57q-27 5 -12 46q-35 -38 -67 -45q-26 -5 -24 23q1 9 14 35.5t21 32.5q3 3 7 0t7 -7l3 -4q-25 -34 -29 -60q-1 -10 6 -8q2 1 5 2
q26 15 44 33.5t37 51.5q4 2 7.5 0.5t6 -4.5t1.5 -5q-2 -8 -9.5 -27.5t-9.5 -26.5q-10 -28 13 -26q27 3 90 50z" />
    <glyph glyph-name="yacute" unicode="&#xfd;" horiz-adv-x="226" 
d="M227 3l2 -5q-84 -57 -125 -93q-22 -74 -52 -145q-36 -85 -69 -130q-24 -33 -54 -53q-16 -11 -36 -14t-35 9t-10 41q10 59 78 142t153 146q1 2 9.5 31t17 58.5t8.5 30.5q-4 -3 -10 -9t-23 -21t-32 -26t-31 -18t-24 -3q-26 14 12 90q2 4 11.5 -0.5t8.5 -8.5q-3 -6 -9 -18.5
t-10 -23t-6 -20.5q2 -19 54 22q35 28 60 60q16 0 18 -8.5t-4 -33.5q-14 -61 -20 -81q20 15 48.5 35t49 33.5t20.5 12.5zM31 -232q22 55 42 113q-73 -58 -127.5 -125.5t-71.5 -113.5q-12 -32 -7.5 -48t21.5 -15t38 18q16 12 39 45q35 52 66 126zM100 74q1 -10 -21 -19
q-13 -5 -12 0q0 2 4.5 7t10 11t8.5 9q3 5 6.5 0.5t3.5 -8.5z" />
    <glyph glyph-name="ydieresis" unicode="&#xff;" horiz-adv-x="226" 
d="M67 60q-7 -12 -18 -9q-7 2 -3 9q6 14 15 11q10 -3 6 -11zM101 62q-7 -12 -18 -9q-7 2 -4 9q6 14 16 11t6 -11zM227 3l2 -5q-84 -57 -125 -93q-22 -74 -52 -145q-36 -85 -69 -130q-24 -33 -54 -53q-16 -11 -36 -14t-35 9t-10 41q10 59 78 142t153 146q1 2 6.5 20.5
t11.5 40t11.5 40t5.5 19.5q-4 -3 -10 -9t-23 -21t-32 -26t-31 -18t-24 -3q-26 14 12 90q2 4 11.5 -0.5t8.5 -8.5q-3 -6 -9 -18.5t-10 -23t-6 -20.5q2 -19 52 21q37 28 62 61q16 0 18 -8.5t-4 -33.5q-14 -61 -20 -81q20 15 48.5 35t49 33.5t20.5 12.5zM31 -232q22 55 42 113
q-73 -58 -127.5 -125.5t-71.5 -113.5q-12 -32 -7.5 -48t21.5 -15t38 18q16 12 39 45q35 52 66 126z" />
    <glyph glyph-name="dotlessi" unicode="&#x131;" horiz-adv-x="128" 
d="M120 2q2 1 3.5 -1t0.5 -3q-38 -28 -71.5 -43.5t-49.5 -14.5q-15 2 -20 15.5t-1 30.5q7 27 19 48q8 13 14 11.5t9.5 -8.5t1.5 -11l-0.5 -0.5l-0.5 -0.5q-17 -30 -20 -42q-6 -16 -4 -24q8 -13 42.5 1t76.5 42z" />
    <glyph glyph-name="OE" unicode="&#x152;" horiz-adv-x="774" 
d="M771 2q7 -3 4 -5q-27 -35 -61 -72.5t-86 -85.5t-102 -83.5t-106 -55.5t-102 -12q-14 3 -26.5 12t-21.5 21t-13 26q-13 33 -7 72q-25 -28 -36 -38q-60 -58 -123 -87q-34 -16 -74 -20q-46 -5 -77 9q-18 9 -30 26.5t-16 38.5q-5 33 3 77q12 61 51 142q32 68 79 143
q-10 34 -9 64q3 77 49 142q44 63 107 107.5t136 61.5q23 5 38 6q31 1 38 0q3 0 7.5 -0.5t8 -0.5t7.5 -0.5t8 -1.5l8 -2q19 -6 34 -23q22 -25 28 -74q4 -31 -1 -77q-3 -19 -12 -56q7 10 15.5 19.5t14.5 16t17.5 17t16 14t18.5 16t17 14.5q43 35 72 54q25 17 40 24l6.5 2.5
t8 3t7 2.5t9 2h8.5t10 -1q16 -5 18 -23q3 -12 1 -25q-2 -18 -11 -44q-13 -40 -35 -84q-11 0 -12 17q0 11 14.5 35t18.5 36q8 25 9 42q3 28 -8 30q-12 3 -37 -9q-13 -7 -36 -23q-29 -20 -70 -55q-30 -27 -45 -41t-36 -39.5t-32 -48.5q-12 -27 0.5 -42.5t38.5 -18.5t49 -1.5
t37 4.5q2 -1 1.5 -7.5t-4.5 -8.5q-156 -98 -239 -187q-61 -68 -77 -123q-10 -36 2 -69q12 -38 43 -46q49 -12 119.5 18.5t155.5 101.5t172 173zM533 130q-70 -6 -87 27q-24 -66 -57 -131q-1 -1 -2 -3.5t-2 -4.5q66 60 148 112zM198 -203q90 101 163 243q78 158 97 275
q7 49 5 72q-1 43 -18 65q-15 22 -60 25q-6 1 -36 0q-13 0 -36 -6q-70 -15 -131.5 -58t-104.5 -104q-45 -64 -47 -135q0 -22 6 -50q52 79 68 99q5 6 9 7t6 -1.5t3.5 -6t1.5 -7.5t-2 -6q-42 -58 -77 -113q12 -31 30 -56l1 -1q1 -1 -1.5 -3.5t-5.5 -4t-5 -0.5q-15 22 -27 52
q-41 -65 -70 -125q-37 -76 -50 -137q-9 -41 -5 -71q5 -38 35 -54q24 -13 68 -9q37 4 69 21q55 26 114 89z" />
    <glyph glyph-name="oe" unicode="&#x153;" horiz-adv-x="264" 
d="M258 2q2 0 4 -5q-94 -69 -153 -66q-5 0 -11 2t-11.5 8t-6.5 15q-21 -22 -50 -20q-16 1 -25 15.5t-2 36.5q9 31 44 45q34 14 44 -7q2 -4 2 -10q6 -3 6 -14q13 17 28 25q14 9 26 10q8 1 15 -1q4 -1 9 -4.5t3.5 -13t-15.5 -21.5q-19 -14 -57 -24q-14 -30 20 -29q45 2 108 42
q12 8 22 16zM138 11q-12 -11 -25 -28q31 8 46 22q19 17 6 18q-4 0 -9 -1q-9 -3 -18 -11zM81 -23q5 12 6 25h-1q-5 2 -6.5 5t0.5 6t5 3q-7 19 -25 9q-14 -7 -25.5 -23.5t-11.5 -31.5q1 -31 27 -22q20 9 31 29z" />
    <glyph glyph-name="Scaron" unicode="&#x160;" horiz-adv-x="451" 
d="M336 504q-4 -3 -9.5 -1.5t-6.5 4.5q-5 25 -13 45q7 9 14 2q11 -10 19 -32q10 8 35 27q4 4 9 3.5t5 -6.5q-27 -27 -53 -42zM488 430q5 11 17 6q5 -4 4 -8q-32 -78 -45 -138q-3 -16 -16 -12q-12 6 -5 21q2 9 4.5 23.5t3 46t-8.5 48.5q-14 27 -44.5 40t-66.5 12
q-66 -3 -125 -40.5t-88 -95.5q-12 -22 -14.5 -48.5t0.5 -48t12.5 -48.5t16 -42t18.5 -38t14 -26l60 -123q81 37 123 50q3 1 3 0l-2 -6q-74 -31 -120 -54q10 -22 16 -44.5t8 -50t-7.5 -53t-28.5 -49.5t-56.5 -44.5t-89.5 -32.5q-75 -18 -115 8q-46 31 13 100q62 72 229 164
q-3 8 -59 122q-25 50 -37 78.5t-21 64t-4.5 66.5t19.5 65q29 66 94.5 104t140.5 41q41 0 72 -13q37 -16 55 -50q11 -23 13 -52q11 25 17 57zM-47 -262q-8 -35 42 -47q63 -15 134 16q89 39 97 121q5 50 -24 109q-58 -30 -110.5 -64t-92.5 -71t-46 -64z" />
    <glyph glyph-name="scaron" unicode="&#x161;" horiz-adv-x="133" 
d="M40 63q-2 -2 -5.5 -1.5t-4.5 2.5q-4 16 -10 29q4 6 9 2q7 -6 13 -20q6 5 22 19q3 2 6 2t4 -4q-17 -18 -34 -29zM131 -2q-48 -10 -79 -20q12 -47 -51 -67q-38 -13 -49 1q-13 17 44 48q15 8 34 17q-10 24 -22 43q-1 1 -2 3q-2 0 -4.5 1t2.5 3q-5 18 17 26t32 -3
q1 0 1.5 -1.5t0 -3l-1 -3t-2.5 -3.5t-5.5 -3.5t-8.5 -3.5t-11 -3q1 -2 5 -8t7.5 -12t5.5 -11q4 -6 7 -15q41 13 78 18zM34 49q-7 -1 -10.5 -5.5t0.5 -9.5q21 6 23 13q1 5 -13 2zM-40 -81q5 -4 23.5 1t35 19t13.5 31q-47 -22 -68 -43q-5 -6 -4 -8z" />
    <glyph glyph-name="Ydieresis" unicode="&#x178;" horiz-adv-x="598" 
d="M367 483q-9 -17 -26 -15q-12 3 -7 15q10 21 24 17q16 -5 9 -17zM419 486q-9 -17 -26 -14q-11 4 -7 15q10 21 24 17q16 -5 9 -18zM598 2q1 -1 -1 -7q-94 1 -194 -35q-41 -85 -84 -154q-62 -96 -120 -148q-44 -37 -84 -51q-22 -8 -49 -10q-35 -1 -52 13q-21 19 -9 54
q7 21 22 45q23 34 62 73q64 62 151 115q66 39 134 65q44 93 81 194q37 102 55 178q14 63 12 88v1q-6 -3 -16 -11q-13 -11 -32 -32t-77 -85.5t-98 -107.5t-81 -82q-83 -78 -151 -114q-28 -15 -45 -19q-16 -4 -28 -2q-5 1 -10 4t-8.5 7.5t-4.5 9.5q-7 18 0 51q4 21 13 47
q30 80 71 156t103 179q3 2 9 0t11.5 -7t3.5 -8v-1q-129 -203 -179 -326q-21 -61 -15 -85q4 -14 29 -8q17 4 42 17q66 34 148 110q32 30 67 67.5t61 67.5t62.5 73.5t60.5 70.5q20 22 34 34q13 11 21 16q14 5 23 -2q6 -5 9 -17q1 -8 1 -15.5t-0.5 -15t-1 -13.5t-2 -14
t-2.5 -13t-3 -13.5t-3 -13.5q-19 -84 -53 -181q-34 -93 -71 -173q96 31 188 28zM297 -181q33 54 69 127q-60 -25 -119 -62q-82 -51 -145 -115q-37 -38 -58 -71q-14 -22 -20 -40q-7 -24 4 -33q23 -17 80 2q35 14 75 49q56 51 114 143z" />
    <glyph glyph-name="zcaron" unicode="&#x17e;" horiz-adv-x="205" 
d="M72 63q-3 -2 -6.5 -1.5t-3.5 2.5q-5 16 -10 29q4 6 9 2q7 -6 13 -20q6 5 22 19q3 2 6 2t3 -4q-16 -18 -33 -29zM207 2q3 1 3 -2q0 -2 -1 -3q-56 -29 -114 -76q18 -44 -16.5 -123.5t-106.5 -138.5q-27 -22 -49.5 -29t-33.5 0.5t-10.5 27.5t15.5 48q17 38 52.5 81t61.5 68
t73 67q-3 12 -9 19q-10 11 -23 14q-16 4 -26 -7q-4 -4 -8 -1q-4 4 -1 8l2 2q13 20 41 53q5 6 16 18q-11 -6 -21 -4q-4 0 -17 4l-10 -16q-3 -5 -8 -2t-2 8l12 19l2 3q2 3 5 1q2 -1 2 -3q2 -10 16 -10q10 -1 20 4q3 2 9 7t8 7l6 4.5t9 7.5h1v0l1 1l1 1q6 2 8 -3q1 -3 -1 -6v-1
q-13 -21 -42 -53q-17 -19 -34 -35h12q16 -1 29 -14q7 -6 13 -18q47 36 115 72zM-37 -319q56 48 93 117.5t27 111.5q-51 -44 -104.5 -106t-73.5 -106q-23 -53 4 -48q21 3 54 31z" />
    <glyph glyph-name="guilsinglleft" unicode="&#x2039;" horiz-adv-x="101" 
d="M69 61q3 4 6 -2l-1 -4l-22 -22l16 -19q3 -3 -0.5 -6.5t-6.5 -0.5l-20 23q-3 4 1 7z" />
    <glyph glyph-name="guilsinglright" unicode="&#x203a;" horiz-adv-x="101" 
d="M74 38q3 -4 0 -7l-28 -24q-3 -4 -6 2q-1 2 1 4l22 22l-16 19q-3 3 1 6t6 1z" />
    <glyph glyph-name="Euro" unicode="&#x20ac;" horiz-adv-x="205" 
d="M171 27q4 -2 4 -4.5t-5 -4.5q-7 -2 -19.5 -6.5t-17.5 -6.5q-32 -11 -47.5 -2t-16.5 31q-3 0 -7.5 -0.5t-7.5 -1t-6 -0.5t-4.5 -0.5l-1.5 -0.5q-2 2 1 10q6 3 28 5q1 8 5 17q-15 -2 -25 -4q-2 0 -1.5 4t2.5 5q7 4 31 6q20 29 52 44q28 12 40 -0.5t-6 -37.5q-6 -12 -14 -8
q-3 1 -1 3q25 31 10 38q-7 3 -20 -3q-23 -15 -38 -36q19 1 21 -2q4 -5 0 -6q-6 0 -27 -2q-5 -9 -8 -17q23 0 24 -3q1 -2 0.5 -4t-1.5 -2q-4 0 -25 -2q-1 -16 9.5 -22.5t33.5 0.5q19 5 38 13z" />
    <glyph glyph-name="m.alt1" unicode="&#xf006;" horiz-adv-x="350" 
d="M349 4l3 -3v-2q-38 -27 -63.5 -42t-43.5 -22t-27.5 -3.5t-12.5 16.5q-2 9 1.5 30.5t1 31.5t-17.5 4q-31 -14 -72 -59q-1 0 -2 0.5t-4.5 1t-5.5 1.5t-3.5 3t-0.5 5q29 73 15 73q-6 1 -19 -7q-45 -33 -98 -87q-11 -12 -18 3q-1 6 4.5 25.5t14.5 40t16 29.5q10 14 25 1
q5 -5 3 -7q-25 -30 -38 -61q-3 -8 0 -7q2 1 8 6q19 19 31 30.5t34.5 29t36.5 21.5q10 3 17.5 -1.5t9.5 -20t-10 -45.5q35 28 51 37q24 10 35.5 1.5t10.5 -29.5q0 -7 -2 -23t-1 -23q2 -30 121 52z" />
    <glyph glyph-name="n.alt1" unicode="&#xf007;" horiz-adv-x="224" 
d="M224 3l3 -3q1 -1 0 -2q-144 -97 -146 -32q0 7 2 22q4 29 -4 29q-5 0 -13 -5q-36 -22 -73 -70q0 -1 -2.5 -0.5t-4.5 1t-4 2.5t-2 4q0 20 12.5 52.5t20.5 37.5q15 9 22 1q3 -3 1 -5q-23 -19 -33 -64q21 23 37.5 37t27.5 19t19.5 4.5t12.5 -5t7 -12.5q1 -5 -1 -23t-1 -25
q6 -36 104 27q7 5 15 10z" />
    <glyph glyph-name="c.alt1" unicode="&#xf00a;" horiz-adv-x="171" 
d="M167 3q2 0 3 -4q-57 -40 -115 -58q-42 -14 -61.5 4.5t-0.5 50.5q23 39 55 52q26 11 38 0t-2 -36q-3 -5 -7 -7t-7 -0.5t-3 3.5q-1 2 0.5 4.5t4.5 6.5t5 8q5 11 -1.5 15.5t-18.5 -1.5q-39 -26 -45 -63q-5 -31 22 -32q8 -1 20 3q64 19 113 54z" />
    <glyph glyph-name="d.alt1" unicode="&#xf00b;" horiz-adv-x="216" 
d="M245 304q26 28 42 17.5t4 -42.5q-12 -31 -59 -103t-79 -109q-13 -31 -27.5 -93.5t0.5 -88.5q-1 -1 -1 -3q0 -1 -3 -1q-11 11 -15.5 34t-2.5 45.5t4.5 38.5t3.5 19q-4 -5 -12.5 -14t-24 -23.5t-30 -23.5t-31 -14.5t-25.5 4.5q-21 17 3 52q25 37 61 39q24 2 41 -18
q26 29 32 37q25 78 60 149t59 98zM-2 -40q-4 -20 50 18q24 17 35 29q1 1 2 2.5t2 1.5q-13 20 -32.5 11.5t-37 -29t-19.5 -33.5zM160 94q43 56 88.5 131t35.5 86q-7 8 -26 -20t-43 -78.5t-35 -73.5t-20 -45z" />
    <glyph glyph-name="b.alt1" unicode="&#xf00c;" horiz-adv-x="179" 
d="M187 294q-12 -47 -52.5 -110.5t-103.5 -131.5l-25 -72q32 43 61 55.5t45 1.5q10 -12 5 -31.5t-36.5 -41t-75.5 -26.5q-1 0 -4 6l-13 -30q-2 -4 -5 -3t-5 4l-3 4q19 97 63 205t91 171q30 40 51 29q13 -7 7 -30zM157 300q-21 -25 -55.5 -90t-65.5 -138q55 62 92 123t48 102
q4 14 -3 15q-6 0 -16 -12zM11 -36q-2 -5 -6 -12q61 12 88 52q15 23 2 27q-9 3 -27 -8q-29 -16 -57 -59z" />
    <glyph glyph-name="a.alt1" unicode="&#xf00d;" horiz-adv-x="202" 
d="M92 19q1 -25 6.5 -38t13.5 -18t23 0t29.5 13.5t39.5 24.5q1 0 2 -3q-46 -34 -74.5 -43t-42 2t-18.5 40q-20 -23 -44 -40t-41 -16q-10 0 -14 8t1 22t19 30q16 16 40 20.5t32 -12.5q13 15 15 15q5 1 9.5 -1t3.5 -4zM13 -38q31 23 46 42q-6 9 -24 3t-30 -22q-26 -35 -12 -34
q7 1 20 11z" />
    <glyph glyph-name="e.alt1" unicode="&#xf00e;" horiz-adv-x="116" 
d="M114 2q1 0 2 -2t0 -2q-109 -80 -136 -49q-15 17 2 47q10 16 30 29.5t33 3.5q9 -8 5 -18t-18.5 -19.5t-31.5 -12.5q-11 -28 16 -26q37 3 98 49zM38 24q-6 -2 -17 -12.5t-17 -23.5q23 4 36 26q6 11 1 11q-1 0 -3 -1z" />
    <glyph glyph-name="g.alt1" unicode="&#xf010;" horiz-adv-x="196" 
d="M198 -4q-60 -38 -105 -79q-29 -87 -88 -180.5t-115 -130.5q-5 -4 -12 -6t-12.5 0t-5.5 9q7 25 22.5 54.5t33.5 57t38 54.5t39 49.5t34 39.5t24 27l9 9q3 2 6 5q20 55 24 90q0 4 -3.5 6t-7.5 -1q-81 -72 -104 -44q-4 21 17 40.5t38 24.5q28 8 43 -8v1l3.5 3.5l5.5 5.5
q8 6 17.5 -3t9.5 -17q2 -26 -12 -72q62 50 98 70q1 1 2.5 -1.5t0.5 -3.5zM-9 -37q-1 -10 33 10q29 16 45 36q-13 19 -59 -20q-7 -6 -13 -14t-6 -12zM-118 -378q47 38 94.5 110.5t79.5 148.5q-42 -45 -91 -113q-61 -85 -83 -141q-1 -1 -2 -6z" />
    <glyph glyph-name="h.alt1" unicode="&#xf011;" horiz-adv-x="229" 
d="M223 2l4 -2v-2q-145 -98 -150 -46q-1 9 2 23q1 4 5.5 17.5t7.5 24.5t1 12q-10 4 -43.5 -32.5t-54.5 -69.5l-12 -2q-3 2 -3 6v2q6 24 22.5 77t27.5 82q55 140 107 218q23 33 40 49q8 7 14 10t11 3q9 1 13 -6t4 -20q-1 -6 -4 -17q-4 -14 -12 -29.5t-14 -25.5t-17.5 -27.5
t-16.5 -24.5q-106 -161 -120 -182q-4 -11 -14.5 -36.5t-15.5 -38.5q72 87 95 76q6 -3 9.5 -8t4.5 -9.5t-0.5 -13t-3 -13.5t-5 -15.5t-4.5 -15.5q-6 -22 10 -21q21 1 112 57zM152 301q-49 -79 -101 -216q18 28 52 80t42 64q3 5 10.5 16.5t11.5 17.5t10.5 16.5t10 18t7.5 17
t6 18.5q5 18 2 23q-3 0 -4 -1q-5 -3 -11 -8q-15 -15 -36 -46z" />
    <glyph glyph-name="i.alt1" unicode="&#xf012;" horiz-adv-x="128" 
d="M122 1q2 1 3.5 -1t0.5 -3h-1q-132 -72 -134 -25q-1 18 17 55q7 13 12.5 11.5t9.5 -9t2 -10.5q-31 -53 -9 -55t99 37zM52 66q-3 -9 -17 -7q-6 2 -6 5q1 3 15 13q7 6 8 -7v-4z" />
    <glyph glyph-name="k.alt1" unicode="&#xf014;" horiz-adv-x="203" 
d="M198 1q2 1 4 -3q-34 -31 -63 -43t-44.5 -10.5t-37.5 8.5q-12 4 -25 12t-19 7q-25 -31 -32 -58q-1 -7 -8 -1q-4 5 -3 10q4 22 11 42q9 30 21.5 65t38 98.5t57 118.5t62.5 84q34 24 36 -2q2 -15 -8 -42q-14 -34 -45 -83t-52.5 -78.5t-59.5 -79.5q-12 -28 -23 -61
q24 25 46.5 36t32.5 6q3 -2 1.5 -4.5t-5 -5t-4.5 -1.5q-5 5 -20.5 -4t-33.5 -27q8 1 14 -2q19 -12 27 -16.5t24.5 -9t30 -0.5t33.5 14t44 30zM158 306q-65 -86 -117 -227q43 55 70.5 95.5t41 65.5t24.5 52q13 31 7 36t-26 -22z" />
    <glyph glyph-name="o.alt1" unicode="&#xf016;" horiz-adv-x="150" 
d="M147 1q1 0 1 -3q-15 -7 -40 -10t-42 0q0 -20 -16.5 -39.5t-43.5 -17.5q-14 2 -21.5 14.5t-2.5 32.5q8 29 40 41q30 11 37 -9q1 -4 1 -7q3 -2 5 -7q15 -4 41.5 -2.5t40.5 7.5zM49 -32q5 11 6 22h-1q-11 4 -4 11q1 2 3 2q-6 16 -21 8q-12 -7 -22 -21.5t-10 -27.5
q1 -28 23 -19q18 7 26 25z" />
    <glyph glyph-name="p.alt1" unicode="&#xf017;" horiz-adv-x="156" 
d="M154 -3q-66 -39 -154 -59q-2 -1 -6 -2l-4 -1q-55 -128 -93 -270q-1 -2 -3.5 -1.5t-5.5 3t-3 3.5q21 111 81 260q-1 -1 -2 -1h-2q-9 6 1 8q1 0 3.5 1t3.5 1q18 42 33.5 75t25.5 47q4 7 8 2.5t3 -8.5q-4 -7 -8.5 -16t-9 -18.5t-8.5 -16.5q31 36 59 26q22 -7 16 -30
q-6 -22 -40 -42q65 20 101 44q2 1 3 -2q1 -2 1 -3zM-6 -54q57 20 70 54q7 19 -7 21q-17 2 -44 -33q-8 -18 -19 -42z" />
    <glyph glyph-name="q.alt1" unicode="&#xf018;" horiz-adv-x="173" 
d="M37 -160q19 4 24 6q2 0 1 -3q-2 -1 -5 -2q-14 -5 -19 -8.5t-8 -13.5q8 -6 11 -17q5 -18 1 -47q-8 -45 -26 -87q-15 -29 -24 -29q-21 1 -16 57q1 11 5 29.5t9 36.5t8.5 30.5t5.5 16.5q0 1 -3 2t-4.5 2.5t2 6.5t14.5 14q12 32 39 90.5t44 86.5q-29 -30 -65 -53
q-13 -9 -25 -7.5t-12 21.5q0 23 22.5 45t45 25.5t34.5 -15.5q2 1 3.5 2.5t2.5 3t3 3t4 3.5q3 2 9 -2.5t5 -7.5q-29 -57 -86 -189zM17 -37q34 19 73 59q-20 31 -67 -32q-22 -30 -10 -28q2 0 4 1zM7 -328q7 16 14.5 43.5t10.5 55.5t-7 35q-25 -65 -34 -112q-5 -28 -2 -42
q2 -12 15 14z" />
    <glyph glyph-name="r.alt1" unicode="&#xf019;" horiz-adv-x="193" 
d="M187 2q2 0 4 -5q-121 -99 -146 -38q-2 6 1.5 17.5t8.5 22t9 16.5q-12 -5 -42 -6q-3 -2 -7 -3q-3 0 -4 3q-14 4 -15 13q-1 3 0 11q0 1 3 8q14 24 34 30q10 4 15 -5q2 -3 1 -9t-2 -10t-4.5 -9.5t-5.5 -9t-4.5 -6.5t-2.5 -4q37 3 56 20q4 3 8 -1q2 -2 1 -6l-1 -1
q-3 -9 -11.5 -25.5t-11.5 -24.5q-13 -31 11 -34q36 -4 105 56zM22 23q3 3 7 10q5 12 6 21l-1.5 -1.5l-2.5 -2.5q-10 -10 -16 -18q-3 -4 -4 -7q-1 -1 3 -4q1 0 3 -0.5t3 -0.5q1 1 2 3z" />
    <glyph glyph-name="s.alt1" unicode="&#xf01a;" horiz-adv-x="133" 
d="M131 -1q-48 -10 -79 -21q12 -46 -51 -67q-38 -13 -49 2q-13 17 44 48q15 8 34 16q-10 24 -22 43q-1 1 -2 3q-2 0 -4.5 1.5t2.5 3.5q-5 18 17 26t32 -3q1 -1 1.5 -3t-0.5 -4.5t-4 -5t-9 -5t-15 -4.5q1 -1 5 -7t7.5 -12.5t5.5 -10.5q4 -7 7 -15q41 12 78 17zM34 49
q-5 0 -8 -2.5t-4 -5.5t2 -7q21 6 23 14q1 4 -13 1zM-40 -81q5 -3 23.5 2t35 18.5t13.5 30.5q-47 -22 -68 -43q-7 -6 -4 -8z" />
    <glyph glyph-name="u.alt1" unicode="&#xf01b;" horiz-adv-x="213" 
d="M208 1q1 1 3 0.5t1 -2.5q-58 -51 -89.5 -49t-48.5 51q-54 -60 -82 -61q-24 0 -4 45q13 28 24 35q6 3 11.5 -3.5t2.5 -10.5q-18 -24 -24 -39q-4 -11 4 -9q20 6 56 46l13 15q7 7 14 4t9 -10q6 -28 17 -41t26 -10.5t31 12t36 27.5z" />
    <glyph glyph-name="t.alt1" unicode="&#xf01c;" horiz-adv-x="231" 
d="M269 268q1 0 1 -2.5t-0.5 -4.5t-1.5 -2q-44 2 -121 -8q-45 -81 -71 -127q-109 -218 -85 -274q6 -14 40 1.5t86 56t105 94.5q6 0 4 -6q-54 -56 -118.5 -106.5t-99.5 -59.5q-5 -2 -14.5 -1t-15.5 8q-6 10 -7.5 26.5t2.5 38t10.5 45.5t16.5 51.5t20.5 53.5t23 53t22.5 48.5
t20.5 42.5t16 31t9.5 19q-59 -10 -83 -22q-2 0 -4 3t-2.5 6t1.5 4q32 13 95 22l2 3q28 53 44 78q9 16 17.5 25t13 9.5t6.5 -4t-1.5 -16t-11.5 -26.5q-14 -28 -35 -65q68 6 115 5z" />
    <glyph glyph-name="v.alt1" unicode="&#xf01d;" horiz-adv-x="179" 
d="M175 1l2 -3q-24 -15 -50.5 -17t-37.5 12q-50 -67 -73 -54q-9 5 -12 24q-5 33 4 70q2 7 19 12q8 2 8 -2q-13 -50 -11 -74q3 -22 17 -12t42 45q-4 13 -1.5 22t6.5 13.5t8 4.5q3 0 6 -2t2.5 -11t-8.5 -23q0 -19 25.5 -20t53.5 15z" />
    <glyph glyph-name="w.alt1" unicode="&#xf01e;" horiz-adv-x="273" 
d="M261 32v-3q-33 -11 -52 3q-7 -40 -18.5 -68.5t-24.5 -42t-25 -18.5t-23 -2q-20 6 -27 35.5t-2 59.5q-6 -8 -16.5 -19t-34 -30.5t-37.5 -22.5t-14 13q0 29 11.5 63t25.5 42q13 6 18 -4q2 -3 0 -5q-24 -26 -33 -86q-3 -15 35 20l40 40q19 20 21 21q3 1 6.5 0t6 -3t2.5 -4
q-24 -88 1 -106q18 -14 42 22q27 41 34 110q13 2 13 -4h1q11 -19 50 -11z" />
    <glyph glyph-name="x.alt1" unicode="&#xf01f;" horiz-adv-x="211" 
d="M211 3q-7 -5 -23.5 -16.5t-24 -16.5t-22 -14.5t-22.5 -12t-20.5 -6t-20.5 -0.5t-18 8t-17.5 16.5t-14.5 27.5q-30 -27 -47 -46q-2 -2 -4.5 0t-0.5 4q22 26 49 51q-3 10 -19 39q-3 5 7 15q8 8 12 -1q2 -3 5 -10t6.5 -15.5t5.5 -12.5q3 2 15 12t23 17.5t21 10.5q7 1 10 -9
q0 -6 -3 -7q-7 4 -26 -7.5t-36 -25.5q9 -20 17 -32t18.5 -17t20.5 -4.5t28 9t33.5 18.5t44.5 29l1.5 -1.5t1.5 -2.5z" />
    <glyph glyph-name="z.alt1" unicode="&#xf021;" horiz-adv-x="210" 
d="M208 2q3 1 3 -2q1 -3 -1 -4q-76 -41 -132 -79q7 -41 -16 -90t-55.5 -83.5t-69.5 -64.5q-16 -12 -31 -17t-24.5 -1t-11.5 16.5t8 34.5q30 62 73 109.5t110 98.5q-7 38 -30 44q-11 -4 -14.5 -4.5t-10.5 1.5q-2 3 -0.5 6.5t7.5 6.5t12 2q49 29 63 57q7 15 -10 14
q-25 -1 -46 -21q-6 -5 -8 -10q-2 -2 -5.5 -1t-6 4t-1.5 5q16 24 61 31q41 6 42 -15q0 -2 -1 -4q-6 -30 -73 -67q22 -9 34 -42q71 45 134 75zM-109 -292q-15 -32 3 -29q28 4 83 64q82 89 86 158v6q-131 -106 -172 -199z" />
    <glyph glyph-name="f.alt1" unicode="&#xf022;" horiz-adv-x="128" 
d="M127 -1q-106 -46 -124 -51q10 -21 -4 -96.5t-38 -123.5q-11 -22 -19.5 -27.5t-13.5 2.5t-7 27q-3 22 3 63q9 58 32 121q6 16 9 23q-3 0 -7.5 4t-3.5 11q2 9 28 18q54 100 122 142q10 6 10 -2q-1 -6 -7 -13q-2 -2 -5 -2t-7 -2q-52 -48 -96 -134q1 -1 1 -2v-1q40 10 125 47
q3 -2 2 -4zM-64 -269q1 -27 9 -13v1q11 20 20.5 49.5t16 58t10.5 54.5t3.5 42.5t-4.5 18.5q-8 -18 -16 -35q-23 -58 -34 -117q-7 -36 -5 -59z" />
    <glyph glyph-name="j.alt1" unicode="&#xf023;" horiz-adv-x="159" 
d="M67 68q-2 -9 -20 -8q-6 2 -6 4q1 3 13 12q4 4 9 -0.5t4 -7.5zM156 2l2 -4v-1q-12 -7 -31 -19l-38 -24t-36 -23.5t-28 -18.5l-11 -7q-15 -39 -23 -59.5t-30 -61.5t-46 -70q-47 -56 -81 -53q-26 3 -17 42q3 15 12 31q15 32 59.5 78t98.5 85q1 4 4 11t4 11q31 85 37 106
q-1 -1 -2.5 -1.5t-5.5 -3t-7 -4.5t-5 -5t-1 -5l-8 1q-4 1 -4 3q-2 6 15 15q29 17 39 9q2 -2 1 -6q-1 -5 -34 -105q49 30 136 79zM-97 -266q46 64 77 144q-67 -51 -103 -94t-45 -68q-17 -45 3 -44q24 3 65 58q2 2 3 4z" />
    <glyph glyph-name="y.alt1" unicode="&#xf026;" horiz-adv-x="216" 
d="M218 -3l-40.5 -22.5t-33 -19t-27.5 -16.5t-36 -24q-22 -67 -75 -139.5t-106 -100.5q-22 -12 -31.5 0.5t6.5 40.5q25 45 77 101t108 98q5 12 13 47t10 53q-46 -63 -78 -65q-22 -1 -15 30q3 13 13 31q22 41 28 10q-35 -58 -17 -58q16 1 44 40q15 20 24 41q4 10 15 10
q10 -7 4 -54.5t-15 -68.5q65 40 130 70q5 1 2 -4zM-106 -311q19 8 50.5 42t62 80t45.5 85q-49 -37 -122 -128q-69 -85 -42 -81q2 1 6 2z" />
    <glyph glyph-name="l.alt1" unicode="&#xf032;" horiz-adv-x="188" 
d="M184 3q2 0 2.5 -2.5t-0.5 -3.5q-140 -145 -185 -105q-34 30 0 143q25 79 65 153q56 102 109 124q35 15 41 -17q10 -49 -57 -144q-65 -93 -146 -144q-5 -27 -7 -40q-8 -70 34 -66q47 5 144 102zM155 162q59 87 51 126q-6 26 -37 5q-36 -24 -77 -95q-49 -87 -77 -183
q79 55 140 147z" />
    </font>
</defs>
</svg>
