<svg width="593" height="293" viewBox="0 0 593 293" fill="none" xmlns="http://www.w3.org/2000/svg">
<path d="M11.3321 259.368L0.476562 260.176L3.77302 292.447L4.41501 292.399L3.79693 286.348L50.3417 282.887L50.9598 288.937L51.6309 288.887L49.792 270.884L49.1208 270.934L49.7617 277.209L26.7666 278.919L26.3342 274.686C26.029 271.698 26.423 269.511 27.4847 268.103C28.5463 266.694 30.5521 265.892 33.4994 265.673L33.7037 265.658L33.6477 265.11L16.7224 266.369L16.7783 266.917C19.6381 266.704 21.7444 267.175 23.0998 268.353C24.4551 269.532 25.3083 271.551 25.6909 274.433L26.1538 278.965L3.18782 280.673L2.39168 272.879C2.19328 270.937 2.22205 269.204 2.45134 267.706C2.68063 266.209 3.11808 265.022 3.7345 264.149C4.35092 263.275 4.98006 262.525 5.59528 261.928C6.2105 261.33 6.96026 260.898 7.87626 260.654C8.79227 260.41 9.45073 260.236 9.88337 260.154C10.316 260.071 10.8387 260.007 11.4516 259.962L11.3321 259.368Z" fill="black"/>
<path d="M1.70655 244.709L2.22115 238.676L48.7899 241.569L48.2753 247.602L48.918 247.641L50.4554 229.618L49.8127 229.578L49.2769 235.86L2.70811 232.968L3.24397 226.686L2.60124 226.646L1.06382 244.669L1.70655 244.709Z" fill="black"/>
<path d="M15.826 212.036C15.0582 211.874 14.3543 211.7 13.7213 211.489C13.0883 211.278 12.277 210.85 11.2945 210.179C10.3119 209.509 9.57054 208.734 9.04899 207.826C8.52744 206.918 8.20363 205.64 8.07755 203.991C7.95147 202.343 8.19408 200.463 8.80538 198.352L9.46586 196.071L54.823 205.634L53.1227 211.506L53.7767 211.644L58.8568 194.1L58.2027 193.962L56.4321 200.077L11.0749 190.514L11.7354 188.233C12.3397 186.146 13.1794 184.392 14.2263 182.965C15.2732 181.538 16.2859 180.542 17.2431 179.945C18.2003 179.349 19.3073 178.964 20.5713 178.767C21.8353 178.57 22.7871 178.514 23.4622 178.579C24.1373 178.644 24.8269 178.763 25.5662 178.919L25.9643 179.003L26.1189 178.469L14.6019 176.041L4.71575 210.182L16.2328 212.611L16.3803 212.101L15.826 212.036Z" fill="black"/>
<path d="M72.099 143.21L27.3767 149.266L21.1264 159.985L21.7034 160.23L24.9916 154.59L66.7688 172.327L63.4806 177.966L64.0838 178.223L70.9473 166.452L70.3441 166.196L67.0559 171.835L27.4292 155.011L82.0385 147.43L82.3386 146.916L39.9843 128.878L43.2725 123.239L42.748 123.016L35.8715 134.809L36.396 135.032L39.6842 129.393L72.099 143.21Z" fill="black"/>
<path d="M107.672 102.143L107.249 102.591C107.819 102.983 108.302 103.348 108.676 103.669C109.049 103.99 109.527 104.64 110.103 105.583C110.68 106.525 110.991 107.51 111.014 108.521C111.037 109.532 110.683 110.862 109.948 112.476C109.214 114.09 108.012 115.799 106.339 117.57L99.057 125.275L81.1347 112.942L84.2238 109.673C86.4488 107.319 88.509 105.975 90.4 105.607C92.2911 105.238 94.3881 105.847 96.6911 107.431L96.8051 107.51L97.228 107.062L84.0029 97.9618L83.58 98.4093C85.8374 99.9627 86.9966 101.563 87.0349 103.195C87.0732 104.827 86.0486 106.787 83.9568 109.04L80.5919 112.601L62.7152 100.299L68.489 94.19C69.9232 92.6724 71.3332 91.4592 72.7145 90.5152C74.0958 89.5713 75.3749 88.9743 76.529 88.7088C77.683 88.4433 78.7451 88.2751 79.6741 88.208C80.6031 88.1408 81.4945 88.2726 82.3529 88.6385C83.2113 89.0043 83.8277 89.2679 84.2065 89.4644C84.5853 89.6608 85.0141 89.9238 85.4929 90.2533L85.9159 89.8058L77.4336 83.969L53.6213 109.165L54.1229 109.511L58.5728 104.802L94.8962 129.797L90.4463 134.505L90.9707 134.866L116.291 108.074L107.672 102.143Z" fill="black"/>
<path d="M115.407 91.5429L124.91 101.118L125.402 100.763L125.137 100.496L125.446 100.731C124.519 99.7962 124.895 98.7055 126.572 97.4941C127.689 96.6864 129.019 96.0534 130.579 95.6141C132.558 95.1335 134.366 94.286 136.02 93.0907C140.938 89.5372 143.188 85.848 142.773 81.988C142.667 79.0187 141.45 76.361 139.122 74.0148C137.475 72.3553 135.694 71.2183 133.779 70.604C131.864 69.9896 130.007 69.8581 128.209 70.1742C126.412 70.4903 124.597 70.9826 122.747 71.6319C120.896 72.2813 119.08 73.004 117.302 73.7648C115.524 74.5257 113.823 75.1324 112.177 75.6012C110.531 76.0699 108.904 76.1321 107.292 75.8229C105.68 75.5137 104.221 74.701 102.934 73.4039C101.798 72.2594 101.163 70.8843 101.05 69.2625C100.938 67.6407 101.288 66.1757 102.123 64.8516C102.885 63.6463 103.903 62.5833 105.154 61.6788C110.721 57.6568 116.719 58.1701 123.149 63.2186L123.663 62.8471L114.823 53.9392L114.309 54.3107C115.142 55.15 114.821 56.1027 113.368 57.1526C112.339 57.8956 111.099 58.464 109.629 58.8387C108.009 59.2561 106.418 60.0125 104.898 61.1108C103.154 62.3707 101.892 63.8066 101.071 65.4155C100.043 67.4355 99.7172 69.5051 100.093 71.6244C100.469 73.7437 101.431 75.6031 103.002 77.1863C104.63 78.8267 106.392 79.9446 108.269 80.5209C110.146 81.0971 111.963 81.2257 113.719 80.9066C115.475 80.5876 117.27 80.0762 119.102 79.4078C120.933 78.7394 122.769 78.0358 124.585 77.313C126.401 76.5903 128.14 76.0218 129.801 75.6073C131.462 75.1929 133.165 75.207 134.891 75.6307C136.616 76.0543 138.208 77.0005 139.665 78.4693C141.959 80.7421 142.564 83.2855 141.461 86.0805C140.537 88.3206 138.577 90.5228 135.581 92.6872C132.63 94.8194 129.294 95.7891 125.59 95.6156C121.887 95.4422 118.966 94.2777 116.845 92.1413L115.899 91.1876L115.407 91.5429Z" fill="black"/>
<path d="M151.194 67.1231L158.603 77.9614L159.16 77.6843L158.953 77.3821L159.21 77.6592C158.487 76.6012 159.079 75.5829 160.977 74.6384C162.242 74.0087 163.68 73.5823 165.306 73.3808C167.353 73.2009 169.306 72.6341 171.178 71.7022C176.745 68.9315 179.711 65.6318 180.089 61.769C180.589 58.8292 179.931 56.0314 178.115 53.3758C176.831 51.4975 175.309 50.1139 173.548 49.2251C171.788 48.3363 169.985 47.9314 168.151 47.9764C166.316 48.0214 164.429 48.2372 162.474 48.6025C160.52 48.9677 158.584 49.4103 156.678 49.896C154.772 50.3818 152.973 50.7272 151.257 50.9449C149.541 51.1626 147.926 50.9826 146.401 50.4393C144.877 49.8959 143.605 48.8794 142.602 47.4112C141.716 46.1158 141.37 44.6675 141.59 43.0536C141.809 41.4397 142.452 40.049 143.544 38.8687C144.54 37.7946 145.758 36.8987 147.175 36.1934C153.476 33.0575 159.278 34.4519 164.583 40.3766L165.165 40.087L158.272 30.0043L157.69 30.294C158.34 31.244 157.83 32.1345 156.185 32.9532C155.021 33.5325 153.684 33.9085 152.16 34.0596C150.479 34.2305 148.759 34.7397 147.038 35.5961C145.065 36.5784 143.53 37.8054 142.393 39.2681C140.97 41.1051 140.228 43.095 140.166 45.2378C140.105 47.3806 140.675 49.3543 141.9 51.1463C143.169 53.0031 144.676 54.3651 146.408 55.2107C148.139 56.0563 149.901 56.4522 151.696 56.3982C153.49 56.3442 155.362 56.1068 157.302 55.72C159.242 55.3332 161.192 54.9122 163.128 54.4696C165.064 54.027 166.892 53.7248 168.612 53.5629C170.333 53.4009 172.007 53.6672 173.62 54.3401C175.233 55.0131 176.608 56.1807 177.744 57.8432C179.541 60.4214 179.619 63.0158 177.963 65.6048C176.597 67.6739 174.219 69.5522 170.828 71.2398C167.488 72.9022 164.005 73.3628 160.393 72.6431C156.781 71.9234 154.141 70.3437 152.488 67.9255L151.75 66.846L151.194 67.1231Z" fill="black"/>
<path d="M251.091 37.6472C252.854 32.7934 252.892 27.0568 251.208 20.4375L257.362 19.297L257.231 18.7841L244.322 21.1764L244.452 21.6894L250.606 20.5489C252.168 27.0376 252.149 32.617 250.55 37.2871L233.217 23.9503C236.255 21.1622 238.304 18.9665 239.336 17.3685C240.368 15.7705 240.657 14.0799 240.203 12.2968C239.724 10.4161 238.521 9.10436 236.559 8.3426C234.597 7.58084 232.427 7.42009 230.052 7.86037C227.676 8.30064 225.768 9.16577 224.321 10.4313C222.875 11.6969 222.031 13.209 221.783 14.943C221.534 16.6771 221.997 18.6121 223.176 20.7723C224.355 22.9324 226.24 25.0386 228.808 27.1205C228.78 27.1258 228.317 27.5441 227.413 28.351C226.509 29.1579 225.95 29.6707 225.736 29.8894C225.522 30.1082 224.998 30.6401 224.193 31.4799C223.387 32.3198 222.831 32.96 222.523 33.4007C222.216 33.8413 221.78 34.4848 221.245 35.3257C220.709 36.1667 220.362 36.9217 220.231 37.5853C220.1 38.249 219.994 39.0104 219.919 39.8939C219.845 40.7775 219.913 41.6344 220.124 42.4649C220.653 44.5411 221.886 46.2054 223.794 47.463C225.703 48.7207 227.821 49.5048 230.12 49.8206C232.418 50.1364 234.715 50.0944 236.977 49.6753C241.958 48.7523 245.857 46.2904 248.698 42.2598L253.099 45.5367L264.664 43.3937L264.521 42.8319L259.053 43.845L251.091 37.6472ZM230.102 8.41364C231.906 8.07946 233.566 8.36011 235.111 9.25029C236.657 10.1405 237.635 11.3916 238.051 13.0281C238.194 13.5899 238.274 14.1379 238.267 14.7018C238.261 15.2657 238.191 15.8157 238.029 16.3573C237.867 16.8988 237.699 17.416 237.49 17.8896C237.281 18.3631 237.014 18.8473 236.713 19.3124C236.412 19.7775 236.127 20.1884 235.858 20.5452C235.589 20.9019 235.263 21.2693 234.879 21.6473C234.496 22.0253 234.208 22.3087 234.017 22.4977C233.825 22.6867 233.582 22.9107 233.288 23.1698C232.995 23.4289 232.825 23.5881 232.803 23.6179C232.022 23.0209 231.174 22.2827 230.255 21.3788C229.335 20.475 228.36 19.3513 227.351 17.978C226.342 16.6047 225.628 15.3303 225.231 14.1249C224.835 12.9195 225.025 11.7844 225.768 10.7003C226.512 9.61617 227.968 8.86033 230.166 8.42746L230.102 8.41364ZM236.973 49.19C234.35 49.5994 231.977 48.9905 229.882 47.358C227.788 45.7254 226.365 43.4313 225.613 40.4758C224.998 38.0577 224.998 35.7045 225.586 33.4214C226.174 31.1383 227.405 29.1453 229.286 27.4667C231.69 29.3744 238.04 34.1829 248.313 41.922C245.606 45.7743 241.815 48.1905 236.938 49.1709L236.973 49.19Z" fill="black"/>
<path d="M356.765 48.33L383.281 11.7178L389.284 12.7435L389.41 12.2043L376.572 10.0106L376.445 10.5498L382.563 11.5951L361.035 41.3358L354.731 6.83977L360.849 7.88506L360.975 7.34588L342.507 4.19037L342.381 4.72956L348.096 5.70615L350.861 20.5301L338.603 37.5031L332.328 3.01195L338.446 4.05724L338.572 3.51805L320.104 0.362549L319.977 0.901736L325.693 1.87832L333.644 44.3795L334.333 44.4973L351.016 21.3978L356.047 48.2073L356.765 48.33Z" fill="black"/>
<path d="M429.195 63.2958L428.591 63.0408C428.267 63.6009 427.954 64.0827 427.668 64.4637C427.382 64.8448 426.743 65.3837 425.79 66.0689C424.837 66.7542 423.778 67.2275 422.626 67.4663C421.475 67.7052 419.876 67.6997 417.871 67.4386C415.865 67.1774 413.648 66.5482 411.259 65.5395L400.862 61.15L411.073 43.5415L415.483 45.4037C418.66 46.7449 420.645 48.1686 421.478 49.6635C422.311 51.1585 422.071 53.0372 420.759 55.2999L420.694 55.4119L421.298 55.6669L428.832 42.6733L428.228 42.4184C426.942 44.6362 425.364 45.9497 423.505 46.3364C421.647 46.7231 419.182 46.2959 416.15 45.0436L411.345 43.0151L421.53 25.4514L429.773 28.9319C431.821 29.7965 433.516 30.7071 434.896 31.6523C436.276 32.5975 437.237 33.5331 437.791 34.4365C438.346 35.34 438.769 36.188 439.048 36.9472C439.327 37.7063 439.37 38.4774 439.138 39.2719C438.906 40.0664 438.739 40.6371 438.597 40.9953C438.454 41.3535 438.247 41.7678 437.974 42.2383L438.578 42.4932L443.41 34.1594L409.411 19.8049L409.125 20.2978L415.478 22.9802L394.785 58.6678L388.431 55.9853L388.133 56.5006L424.285 71.764L429.195 63.2958Z" fill="black"/>
<path d="M469.421 88.5359C469.403 88.5556 469.2 88.738 468.831 89.0631C468.462 89.3882 468.165 89.6342 467.916 89.7859C467.667 89.9376 467.287 90.1926 466.777 90.5508C466.267 90.909 465.759 91.1423 465.253 91.2506C464.747 91.359 464.141 91.4959 463.412 91.6463C462.682 91.7967 461.932 91.8068 461.12 91.6811C460.308 91.5553 459.426 91.3837 458.475 91.1662C457.524 90.9486 456.465 90.5647 455.338 90.0099C454.211 89.455 453.046 88.7797 451.842 87.9839L444.523 83.1477L473.095 51.6674L478.977 55.5547L479.372 55.12L462.628 44.0548L462.233 44.4896L467.838 48.1933L439.266 79.6736L433.662 75.9699L433.249 76.4244L463.24 96.2437L469.93 88.8726L469.421 88.5359Z" fill="black"/>
<path d="M503.605 120.119C503.583 120.136 503.343 120.281 502.907 120.539C502.472 120.797 502.124 120.99 501.845 121.098C501.567 121.205 501.137 121.393 500.555 121.66C499.973 121.928 499.422 122.073 498.901 122.095C498.38 122.118 497.754 122.153 497.005 122.18C496.255 122.207 495.517 122.093 494.749 121.836C493.98 121.579 493.154 121.265 492.27 120.895C491.386 120.524 490.434 119.973 489.454 119.243C488.474 118.513 487.484 117.658 486.483 116.678L480.398 110.726L515.562 84.5521L520.453 89.3364L520.938 88.9749L507.016 75.3568L506.531 75.7183L511.191 80.2765L476.027 106.451L471.367 101.892L470.859 102.27L495.795 126.662L504.029 120.534L503.605 120.119Z" fill="black"/>
<path d="M531.117 158.756L550.666 123.904L543.873 113.428L543.31 113.694L546.883 119.205L506.053 138.481L502.479 132.969L501.89 133.248L509.349 144.752L509.938 144.474L506.365 138.962L545.093 120.679L521.402 163.342L521.729 163.845L563.177 144.335L566.75 149.846L567.263 149.604L559.79 138.078L559.277 138.32L562.851 143.832L531.117 158.756Z" fill="black"/>
<path d="M550.539 207.059L550.348 206.508C549.646 206.685 549.019 206.818 548.497 206.898C547.975 206.978 547.077 206.944 545.841 206.814C544.604 206.684 543.477 206.344 542.489 205.786C541.5 205.228 540.418 204.224 539.278 202.792C538.139 201.36 537.172 199.545 536.414 197.364L533.115 187.875L555.188 182.287L556.587 186.313C557.595 189.213 557.722 191.423 557.004 192.96C556.286 194.498 554.508 195.625 551.672 196.343L551.532 196.379L551.723 196.93L568.011 192.807L567.82 192.256C565.039 192.96 562.837 192.865 561.241 191.966C559.645 191.066 558.336 189.234 557.35 186.485L555.825 182.1L577.842 176.527L580.458 184.051C581.108 185.92 581.478 187.599 581.604 189.106C581.73 190.612 581.58 191.849 581.181 192.81C580.782 193.772 580.341 194.613 579.879 195.304C579.416 195.995 578.783 196.546 577.942 196.941C577.102 197.337 576.498 197.62 576.093 197.774C575.689 197.929 575.192 198.081 574.602 198.23L574.793 198.781L585.24 196.137L574.452 165.105L573.834 165.262L575.85 171.061L531.114 182.385L529.098 176.586L528.452 176.749L539.924 209.746L550.539 207.059Z" fill="black"/>
<path d="M556.374 218.511L541.741 219.749L541.805 220.297L542.213 220.262L541.811 220.346C543.239 220.226 544.078 221.109 544.295 222.974C544.439 224.218 544.295 225.511 543.833 226.857C543.173 228.52 542.964 230.271 543.178 232.111C543.814 237.583 546.096 241.258 550.055 243.159C552.98 244.77 556.235 245.424 559.82 245.12C562.357 244.906 564.464 244.3 566.144 243.304C567.824 242.308 569.006 241.078 569.721 239.636C570.437 238.194 570.992 236.64 571.416 234.971C571.84 233.303 572.174 231.616 572.45 229.935C572.725 228.254 573.106 226.715 573.588 225.293C574.07 223.871 574.934 222.692 576.148 221.736C577.361 220.779 578.973 220.215 580.955 220.048C582.704 219.9 584.392 220.234 586.02 221.076C587.649 221.918 588.863 222.995 589.666 224.334C590.397 225.553 590.844 226.872 591.006 228.264C591.726 234.458 587.826 238.38 579.304 240.03L579.371 240.602L592.983 239.45L592.917 238.878C591.634 238.987 590.898 238.22 590.71 236.603C590.577 235.459 590.732 234.266 591.206 233.02C591.723 231.645 591.896 230.098 591.7 228.407C591.474 226.467 590.806 224.765 589.72 223.274C588.355 221.406 586.543 220.002 584.285 219.063C582.027 218.123 579.687 217.744 577.267 217.948C574.761 218.161 572.682 218.764 571.06 219.755C569.439 220.746 568.283 221.949 567.594 223.364C566.905 224.778 566.379 226.33 565.984 227.996C565.589 229.662 565.226 231.351 564.892 233.037C564.558 234.723 564.119 236.267 563.576 237.669C563.032 239.071 562.052 240.26 560.664 241.231C559.275 242.203 557.459 242.783 555.214 242.973C551.719 243.294 548.922 242.275 546.852 239.913C545.216 237.992 544.204 235.365 543.817 232.032C543.435 228.749 544.394 225.855 546.664 223.352C548.934 220.849 551.716 219.458 554.981 219.182L556.438 219.058L556.374 218.511Z" fill="black"/>
<path d="M559.615 257.512L544.953 256.563L544.904 257.112L545.313 257.138L544.899 257.162C546.331 257.254 546.977 258.249 546.81 260.118C546.7 261.364 546.295 262.616 545.566 263.873C544.577 265.413 544.016 267.106 543.852 268.95C543.364 274.434 544.863 278.391 548.375 280.849C550.928 282.869 554 283.996 557.593 284.228C560.134 284.393 562.333 284.109 564.19 283.377C566.047 282.645 567.461 281.608 568.46 280.294C569.458 278.98 570.321 277.532 571.078 275.952C571.836 274.371 572.507 272.76 573.121 271.146C573.735 269.531 574.422 268.071 575.187 266.742C575.951 265.413 577.042 264.381 578.432 263.618C579.821 262.856 581.524 262.54 583.51 262.669C585.263 262.782 586.856 263.361 588.289 264.432C589.721 265.502 590.698 266.743 591.216 268.181C591.687 269.49 591.86 270.854 591.736 272.25C591.184 278.456 586.544 281.74 577.817 282.103L577.766 282.676L591.406 283.559L591.457 282.986C590.172 282.902 589.602 282.038 589.746 280.418C589.848 279.272 590.245 278.119 590.964 276.963C591.753 275.685 592.239 274.188 592.39 272.493C592.562 270.549 592.25 268.774 591.484 267.145C590.52 265.103 589.022 263.451 586.989 262.192C584.957 260.932 582.73 260.212 580.305 260.055C577.793 259.892 575.623 260.178 573.825 260.914C572.026 261.65 570.644 262.663 569.677 263.954C568.71 265.245 567.876 266.695 567.148 268.277C566.42 269.86 565.719 271.469 565.047 273.08C564.375 274.69 563.629 276.146 562.808 277.447C561.987 278.747 560.78 279.772 559.215 280.523C557.65 281.274 555.743 281.577 553.494 281.431C549.987 281.229 547.44 279.811 545.882 277.178C544.661 275.044 544.199 272.307 544.496 268.967C544.789 265.677 546.322 262.969 549.067 260.84C551.812 258.712 554.835 257.755 558.106 257.966L559.567 258.061L559.615 257.512Z" fill="black"/>
</svg>
