<svg width="739" height="129" viewBox="0 0 739 129" fill="none" xmlns="http://www.w3.org/2000/svg">
<path d="M96.4543 28.8317C94.8043 31.9817 99.0043 33.6317 99.6043 30.3317C101.254 22.9817 102.754 18.4817 106.354 9.48174C107.104 8.28173 104.104 7.53173 103.354 9.18174C102.754 12.3317 101.854 15.1817 100.654 17.7317C100.504 15.1817 100.054 12.4817 98.7043 9.93173C97.0543 6.63174 93.9043 3.93174 90.4543 2.58174C87.0043 1.08174 83.4043 0.631734 79.6543 0.631734C65.4043 1.08174 50.5543 8.73174 44.4043 22.2317C38.1043 36.4817 42.4543 46.5317 50.8543 63.3317C54.0043 69.6317 59.2543 80.1317 59.8543 81.6317C0.904296 114.332 20.5543 127.382 40.6543 122.582C73.2043 114.632 70.0543 93.4817 64.3543 81.3317C71.2543 77.8817 82.5043 73.3817 82.5043 73.3817C82.5043 73.3817 83.1043 71.8817 82.2043 72.4817C75.9043 74.2817 63.9043 79.9817 63.9043 79.9817C63.9043 79.9817 58.5043 69.1817 54.7543 61.3817C51.7543 55.0817 40.6543 37.6817 47.7043 23.7317C53.7043 12.0317 66.6043 4.08173 79.8043 3.48174C86.2543 3.18174 93.4543 5.43173 96.4543 11.1317C99.4543 16.9817 96.4543 28.8317 96.4543 28.8317ZM22.9543 112.982C25.0543 104.582 43.9543 91.6817 60.4543 83.2817C79.2043 122.432 19.5043 128.132 22.9543 112.982ZM110.98 72.4817C101.68 79.8317 83.8297 85.6817 87.7297 76.8317C91.0297 76.0817 93.8797 75.1817 96.5797 73.0817C101.68 69.1817 97.7797 67.3817 97.0297 67.2317C96.2797 66.9317 95.5297 66.9317 94.7797 66.9317C93.1297 67.2317 91.7797 67.8317 90.5797 68.4317C88.1797 69.9317 86.3797 72.0317 84.8797 74.2817C80.8297 81.9317 86.0797 83.2817 88.0297 83.4317C92.6797 83.5817 100.78 81.0317 111.58 73.0817C111.73 72.9317 111.13 72.3317 110.98 72.4817ZM92.3797 70.9817C93.2797 70.2317 94.1797 69.6317 95.0797 69.3317C96.8797 68.7317 98.8297 69.1817 95.5297 71.8817C94.6297 72.7817 91.9297 74.4317 88.4797 75.3317C89.6797 73.8317 91.0297 72.3317 92.3797 70.9817ZM139.395 73.2317C127.395 81.0317 117.195 83.8817 120.945 77.5817C123.345 73.6817 122.595 72.0317 115.395 70.5317C115.695 70.0817 119.445 66.0317 118.245 63.4817C117.945 62.7317 117.045 62.4317 115.995 62.7317C113.895 63.3317 111.795 65.8817 111.045 67.2317C110.895 67.6817 110.295 69.0317 110.445 70.0817C110.745 71.4317 112.095 71.7317 112.845 71.8817C112.995 72.1817 113.295 72.3317 113.595 72.3317C114.045 72.1817 114.045 72.0317 114.345 71.8817C119.745 72.7817 119.295 74.2817 118.545 75.7817C117.345 78.0317 116.595 79.6817 116.745 80.8817C117.495 87.6317 134.745 77.1317 139.695 73.8317H139.845C139.995 73.6817 139.545 73.0817 139.395 73.2317ZM113.295 70.2317C111.345 70.2317 115.995 64.0817 116.895 64.6817C117.945 65.1317 115.095 69.1817 113.295 70.2317ZM161.653 63.1817C155.203 61.9817 147.103 72.6317 141.853 80.2817C141.703 74.1317 142.603 68.7317 143.803 65.7317C143.803 64.5317 140.503 63.3317 140.203 64.3817C139.003 68.2817 138.103 73.8317 139.303 86.1317C139.303 86.7317 140.503 86.4317 140.803 85.9817C144.253 79.0817 156.103 62.1317 161.503 63.9317C161.953 63.6317 162.253 63.3317 161.653 63.1817ZM185.592 73.3817C178.392 78.1817 169.392 82.6817 167.592 79.8317C167.442 78.9317 167.742 77.4317 168.192 76.0817C169.092 73.3817 169.842 72.4817 171.342 69.9317C171.342 69.7817 171.342 69.7817 171.492 69.6317C171.792 68.7317 169.992 64.5317 167.742 68.4317C166.242 71.1317 165.642 72.4817 164.892 75.7817C163.992 78.9317 164.742 82.2317 168.042 82.5317C171.192 82.8317 178.542 79.3817 186.042 73.9817C186.342 73.8317 185.892 73.2317 185.592 73.3817ZM175.242 62.1317C175.392 61.6817 175.092 59.4317 174.042 60.4817C172.842 61.5317 170.742 62.5817 170.442 63.1817C169.992 64.3817 174.942 63.6317 175.242 62.1317ZM210.75 73.0817C205.65 76.8317 199.65 79.5317 194.55 81.1817C185.4 84.0317 185.85 72.9317 193.8 67.2317C194.7 66.7817 195.75 66.4817 196.65 66.9317C197.4 67.2317 197.85 68.4317 197.7 69.4817C197.7 69.7817 197.7 70.0817 197.7 70.3817C197.7 70.3817 197.85 71.1317 198.45 70.9817C198.45 70.9817 199.5 67.5317 199.95 66.6317V66.4817C200.1 66.4817 200.1 66.4817 200.1 66.3317C200.25 65.8817 199.2 65.8817 199.05 66.1817L198.45 67.3817C198.15 66.7817 197.85 66.3317 197.25 65.8817C195.9 64.9817 189.3 64.9817 184.8 73.9817C181.65 80.2817 186.3 85.0817 194.85 82.3817C200.7 80.4317 206.4 77.2817 211.35 73.6817C211.5 73.5317 211.05 72.7817 210.75 73.0817ZM234.905 72.4817C225.605 79.8317 207.755 85.6817 211.655 76.8317C214.955 76.0817 217.805 75.1817 220.505 73.0817C225.605 69.1817 221.705 67.3817 220.955 67.2317C220.205 66.9317 219.455 66.9317 218.705 66.9317C217.055 67.2317 215.705 67.8317 214.505 68.4317C212.105 69.9317 210.305 72.0317 208.805 74.2817C204.755 81.9317 210.005 83.2817 211.955 83.4317C216.605 83.5817 224.705 81.0317 235.505 73.0817C235.655 72.9317 235.055 72.3317 234.905 72.4817ZM216.305 70.9817C217.205 70.2317 218.105 69.6317 219.005 69.3317C220.805 68.7317 222.755 69.1817 219.455 71.8817C218.555 72.7817 215.855 74.4317 212.405 75.3317C213.605 73.8317 214.955 72.3317 216.305 70.9817ZM255.786 73.2317C250.086 75.3317 244.386 77.7317 238.986 80.7317V80.5817C239.136 78.6317 239.136 76.5317 239.136 74.5817C239.286 72.1817 239.286 69.7817 239.586 67.5317C242.286 66.0317 244.686 64.0817 246.186 61.3817C247.686 58.8317 247.386 55.6817 243.036 57.6317C240.336 58.8317 236.586 62.2817 236.136 68.1317C235.986 68.1317 235.836 68.2817 235.686 68.2817C235.536 68.4317 235.386 68.5817 235.386 68.8817C235.536 69.0317 235.686 69.1817 235.986 69.1817C235.986 69.0317 235.986 69.0317 235.986 69.0317C235.686 70.8317 235.386 80.1317 235.386 82.8317C234.486 83.4317 233.586 84.0317 232.836 84.6317C231.036 85.8317 229.386 87.1817 228.036 88.9817C227.436 89.8817 226.836 90.9317 226.836 92.2817C226.686 93.4817 227.436 94.8317 228.786 95.4317C231.486 96.4817 234.186 94.9817 235.836 93.1817C237.336 91.3817 238.086 89.1317 238.686 87.0317C238.986 85.2317 238.986 83.5817 238.986 81.9317C244.536 78.7817 250.236 76.2317 256.086 73.8317C256.236 73.6817 256.086 73.0817 255.786 73.2317ZM240.636 63.0317C241.536 60.1817 247.986 55.0817 245.286 60.9317C244.086 63.3317 242.136 65.2817 239.736 66.6317C239.886 65.4317 240.186 64.2317 240.636 63.0317ZM235.386 86.5817C235.086 88.3817 234.636 90.3317 233.736 91.6817C232.836 93.1817 231.036 94.3817 229.536 93.9317C228.036 93.4817 228.036 91.2317 229.086 89.5817C230.136 87.9317 231.636 86.5817 233.436 85.3817C234.036 84.9317 234.786 84.4817 235.386 84.1817C235.386 84.9317 235.386 85.8317 235.386 86.5817ZM310.05 73.2317C298.05 81.0317 287.85 83.8817 291.6 77.5817C294 73.6817 293.25 72.0317 286.05 70.5317C286.35 70.0817 290.1 66.0317 288.9 63.4817C288.6 62.7317 287.7 62.4317 286.65 62.7317C284.55 63.3317 282.45 65.8817 281.7 67.2317C281.55 67.6817 280.95 69.0317 281.1 70.0817C281.4 71.4317 282.75 71.7317 283.5 71.8817C283.65 72.1817 283.95 72.3317 284.25 72.3317C284.7 72.1817 284.7 72.0317 285 71.8817C290.4 72.7817 289.95 74.2817 289.2 75.7817C288 78.0317 287.25 79.6817 287.4 80.8817C288.15 87.6317 305.4 77.1317 310.35 73.8317H310.5C310.65 73.6817 310.2 73.0817 310.05 73.2317ZM283.95 70.2317C282 70.2317 286.65 64.0817 287.55 64.6817C288.6 65.1317 285.75 69.1817 283.95 70.2317ZM334.222 72.4817C324.922 79.8317 307.072 85.6817 310.972 76.8317C314.272 76.0817 317.122 75.1817 319.822 73.0817C324.922 69.1817 321.022 67.3817 320.272 67.2317C319.522 66.9317 318.772 66.9317 318.022 66.9317C316.372 67.2317 315.022 67.8317 313.822 68.4317C311.422 69.9317 309.622 72.0317 308.122 74.2817C304.072 81.9317 309.322 83.2817 311.272 83.4317C315.922 83.5817 324.022 81.0317 334.822 73.0817C334.972 72.9317 334.372 72.3317 334.222 72.4817ZM315.622 70.9817C316.522 70.2317 317.422 69.6317 318.322 69.3317C320.122 68.7317 322.072 69.1817 318.772 71.8817C317.872 72.7817 315.172 74.4317 311.722 75.3317C312.922 73.8317 314.272 72.3317 315.622 70.9817ZM370.852 73.9817C371.002 73.8317 370.402 73.2317 370.252 73.3817C339.802 103.682 332.002 95.8817 337.702 73.2317C359.752 45.3317 370.852 28.6817 372.352 19.3817C372.802 16.0817 368.902 12.9317 361.102 21.4817C354.802 28.2317 349.852 36.1817 345.502 44.4317C341.152 52.6817 337.402 61.3817 334.852 70.3817C327.652 96.0317 336.502 109.982 370.852 73.9817ZM362.452 22.8317C364.252 20.5817 366.202 18.7817 367.102 18.1817C368.752 17.1317 371.002 17.1317 370.702 19.0817C368.902 30.0317 350.752 53.8817 338.452 69.4817C343.552 50.2817 356.902 29.8817 362.452 22.8317ZM404.323 73.2317C387.823 83.2817 382.123 83.7317 388.573 68.8817C388.573 68.4317 387.373 67.5317 387.073 67.2317C386.623 66.9317 385.873 66.9317 385.573 67.5317C385.273 67.8317 384.973 68.1317 384.673 68.4317C381.073 66.3317 376.273 68.2817 373.123 70.6817C371.473 71.8817 369.973 73.3817 368.623 75.0317C368.023 75.9317 367.423 76.6817 366.823 77.7317C365.173 81.7817 367.273 83.1317 370.273 82.0817C372.523 81.3317 376.723 78.0317 378.223 76.8317C380.173 75.0317 382.123 73.3817 384.073 71.5817C378.973 83.5817 384.223 86.7317 404.773 73.9817C404.923 73.8317 404.623 73.0817 404.323 73.2317ZM377.173 75.4817C375.673 76.6817 374.173 77.7317 372.523 78.7817C371.773 79.2317 370.873 79.6817 370.123 79.8317C369.973 79.8317 369.973 79.8317 369.973 79.8317C369.973 79.6817 370.123 79.3817 370.273 79.2317C370.573 78.4817 371.023 77.7317 371.473 76.9817C372.523 75.6317 373.723 74.1317 375.073 72.9317C377.473 70.6817 380.623 68.7317 383.923 69.1817C381.823 71.4317 379.573 73.5317 377.173 75.4817ZM453.329 36.0317C444.479 36.7817 435.779 37.9817 427.079 39.6317H426.929C428.729 37.0817 430.379 34.2317 432.329 31.6817C433.679 29.7317 435.029 27.6317 436.079 25.3817C436.679 24.3317 437.129 23.2817 437.579 22.0817C437.729 21.3317 438.029 20.7317 438.029 19.9817C438.029 19.6817 438.029 19.2317 437.879 18.6317C437.729 17.8817 436.379 17.4317 435.929 17.7317C434.129 18.4817 433.529 19.3817 432.629 20.2817C431.879 21.3317 431.129 22.2317 430.379 23.2817C429.029 25.2317 427.679 27.3317 426.479 29.2817C424.229 33.1817 422.129 37.2317 420.029 41.1317C418.079 41.4317 416.129 41.8817 414.179 42.3317C409.829 43.3817 405.629 44.1317 401.279 46.5317C400.829 46.6817 401.879 48.4817 402.329 48.1817L402.479 48.0317C405.929 46.2317 410.429 45.1817 414.629 43.9817C415.979 43.6817 417.479 43.3817 418.979 42.9317C406.679 64.3817 391.229 94.5317 398.579 104.882C399.779 106.532 401.729 106.082 403.079 105.782C412.979 103.532 436.379 81.6317 442.079 73.9817C442.229 73.6817 441.479 73.2317 441.329 73.3817C423.329 93.7817 402.629 107.582 400.379 102.932C397.379 95.7317 405.779 76.3817 413.129 61.6817C416.729 55.5317 420.479 49.5317 424.379 43.5317C424.679 42.7817 425.279 42.1817 425.729 41.4317C426.179 41.2817 426.779 41.1317 427.379 41.1317C435.929 39.4817 444.629 38.1317 453.329 37.3817C453.779 37.2317 454.079 36.9317 454.079 36.6317C453.929 36.3317 453.629 36.0317 453.329 36.0317ZM422.879 42.4817C421.829 43.9817 420.929 45.6317 420.029 47.1317C420.629 45.7817 421.229 44.4317 421.829 43.0817C421.979 42.7817 422.129 42.4817 422.279 42.1817C422.579 42.1817 422.879 42.0317 423.179 42.0317C423.029 42.1817 422.879 42.3317 422.879 42.4817ZM424.379 40.2317C424.079 40.2317 423.629 40.3817 423.329 40.3817C424.979 37.0817 426.629 33.6317 428.429 30.4817C429.629 28.3817 430.829 26.4317 432.179 24.4817C432.779 23.4317 433.529 22.5317 434.279 21.6317C434.729 21.0317 435.479 20.4317 435.929 19.9817C435.929 20.4317 435.779 20.8817 435.629 21.3317C435.329 22.3817 434.879 23.5817 434.279 24.4817C433.229 26.5817 432.029 28.6817 430.679 30.6317C428.579 33.7817 426.479 36.9317 424.379 40.2317ZM465.911 72.4817C456.611 79.8317 438.761 85.6817 442.661 76.8317C445.961 76.0817 448.811 75.1817 451.511 73.0817C456.611 69.1817 452.711 67.3817 451.961 67.2317C451.211 66.9317 450.461 66.9317 449.711 66.9317C448.061 67.2317 446.711 67.8317 445.511 68.4317C443.111 69.9317 441.311 72.0317 439.811 74.2817C435.761 81.9317 441.011 83.2817 442.961 83.4317C447.611 83.5817 455.711 81.0317 466.511 73.0817C466.661 72.9317 466.061 72.3317 465.911 72.4817ZM447.311 70.9817C448.211 70.2317 449.111 69.6317 450.011 69.3317C451.811 68.7317 453.761 69.1817 450.461 71.8817C449.561 72.7817 446.861 74.4317 443.411 75.3317C444.611 73.8317 445.961 72.3317 447.311 70.9817ZM515.742 18.1817C515.742 17.8817 515.442 17.2817 514.992 16.9817C514.692 16.8317 514.392 16.5317 513.942 16.3817C512.142 15.7817 510.792 16.6817 509.892 17.4317C508.842 18.1817 508.092 18.9317 507.342 19.8317C505.842 21.4817 504.492 23.4317 503.442 25.2317C498.792 32.7317 495.042 40.6817 491.892 48.6317C489.792 54.0317 487.842 59.4317 485.892 64.8317C484.692 66.3317 483.642 67.6817 482.442 69.0317C481.092 67.5317 479.142 66.6317 477.042 66.6317C474.492 66.6317 472.092 67.6817 470.292 68.8817C466.392 71.4317 462.792 74.7317 461.442 79.6817C461.142 81.0317 460.842 82.8317 462.342 84.4817C464.142 85.8317 468.342 85.8317 472.992 81.7817C477.942 77.2817 481.842 73.5317 483.792 70.8317C483.492 71.5817 472.542 120.032 510.192 73.6817C510.192 73.5317 509.892 73.3817 509.592 73.2317C473.292 116.732 488.442 66.9317 489.792 63.3317C492.792 59.5817 495.642 55.6817 498.342 51.7817C503.442 44.7317 508.242 37.3817 512.142 29.7317C513.192 27.7817 514.092 25.6817 514.842 23.5817C515.292 22.6817 515.592 21.4817 515.892 20.2817C515.892 19.6817 516.042 19.0817 515.742 18.1817ZM480.942 70.9817C477.942 74.1317 472.692 80.2817 466.692 82.3817C465.792 82.6817 463.992 83.5817 464.892 80.5817C465.792 77.2817 468.792 73.8317 471.942 71.5817C474.792 69.3317 479.442 66.9317 481.392 70.2317C481.242 70.5317 481.092 70.6817 480.942 70.9817ZM512.892 22.9817C512.142 24.9317 511.242 26.8817 510.192 28.6817C505.242 38.1317 499.392 47.1317 492.942 55.6817C493.692 53.8817 494.442 51.9317 495.192 50.1317C498.792 42.1817 501.942 34.2317 505.992 26.8817C507.042 24.9317 508.092 23.1317 509.442 21.4817C510.492 19.9817 512.442 18.3317 513.192 18.6317C514.092 18.3317 513.642 21.1817 512.892 22.9817ZM583.407 36.0317C574.557 36.7817 565.857 37.9817 557.157 39.6317H557.007C558.807 37.0817 560.457 34.2317 562.407 31.6817C563.757 29.7317 565.107 27.6317 566.157 25.3817C566.757 24.3317 567.207 23.2817 567.657 22.0817C567.807 21.3317 568.107 20.7317 568.107 19.9817C568.107 19.6817 568.107 19.2317 567.957 18.6317C567.807 17.8817 566.457 17.4317 566.007 17.7317C564.207 18.4817 563.607 19.3817 562.707 20.2817C561.957 21.3317 561.207 22.2317 560.457 23.2817C559.107 25.2317 557.757 27.3317 556.557 29.2817C554.307 33.1817 552.207 37.2317 550.107 41.1317C548.157 41.4317 546.207 41.8817 544.257 42.3317C539.907 43.3817 535.707 44.1317 531.357 46.5317C530.907 46.6817 531.957 48.4817 532.407 48.1817L532.557 48.0317C536.007 46.2317 540.507 45.1817 544.707 43.9817C546.057 43.6817 547.557 43.3817 549.057 42.9317C536.757 64.3817 521.307 94.5317 528.657 104.882C529.857 106.532 531.807 106.082 533.157 105.782C543.057 103.532 566.457 81.6317 572.157 73.9817C572.307 73.6817 571.557 73.2317 571.407 73.3817C553.407 93.7817 532.707 107.582 530.457 102.932C527.457 95.7317 535.857 76.3817 543.207 61.6817C546.807 55.5317 550.557 49.5317 554.457 43.5317C554.757 42.7817 555.357 42.1817 555.807 41.4317C556.257 41.2817 556.857 41.1317 557.457 41.1317C566.007 39.4817 574.707 38.1317 583.407 37.3817C583.857 37.2317 584.157 36.9317 584.157 36.6317C584.007 36.3317 583.707 36.0317 583.407 36.0317ZM552.957 42.4817C551.907 43.9817 551.007 45.6317 550.107 47.1317C550.707 45.7817 551.307 44.4317 551.907 43.0817C552.057 42.7817 552.207 42.4817 552.357 42.1817C552.657 42.1817 552.957 42.0317 553.257 42.0317C553.107 42.1817 552.957 42.3317 552.957 42.4817ZM554.457 40.2317C554.157 40.2317 553.707 40.3817 553.407 40.3817C555.057 37.0817 556.707 33.6317 558.507 30.4817C559.707 28.3817 560.907 26.4317 562.257 24.4817C562.857 23.4317 563.607 22.5317 564.357 21.6317C564.807 21.0317 565.557 20.4317 566.007 19.9817C566.007 20.4317 565.857 20.8817 565.707 21.3317C565.407 22.3817 564.957 23.5817 564.357 24.4817C563.307 26.5817 562.107 28.6817 560.757 30.6317C558.657 33.7817 556.557 36.9317 554.457 40.2317ZM595.239 73.3817C591.639 76.0817 588.189 77.4317 583.839 76.6817C583.839 76.6817 585.939 73.2317 583.839 71.1317C585.489 64.9817 573.189 66.7817 570.339 73.5317C566.439 82.6817 576.789 85.0817 583.239 77.7317C588.339 78.4817 591.189 77.1317 595.839 73.8317C595.989 73.6817 595.689 73.0817 595.239 73.3817ZM572.739 76.6817C573.189 73.5317 576.639 70.2317 579.339 69.1817C580.539 68.7317 583.689 68.4317 582.789 71.1317C579.939 71.5817 579.189 75.0317 581.739 76.9817C579.339 80.5817 572.139 83.1317 572.739 76.6817ZM582.339 75.9317C580.689 75.0317 581.439 71.5817 583.389 72.1817C583.989 72.3317 583.389 74.5817 582.339 75.9317ZM669.1 36.0317C660.25 36.7817 651.55 37.9817 642.85 39.6317H642.7C644.5 37.0817 646.15 34.2317 648.1 31.6817C649.45 29.7317 650.8 27.6317 651.85 25.3817C652.45 24.3317 652.9 23.2817 653.35 22.0817C653.5 21.3317 653.8 20.7317 653.8 19.9817C653.8 19.6817 653.8 19.2317 653.65 18.6317C653.5 17.8817 652.15 17.4317 651.7 17.7317C649.9 18.4817 649.3 19.3817 648.4 20.2817C647.65 21.3317 646.9 22.2317 646.15 23.2817C644.8 25.2317 643.45 27.3317 642.25 29.2817C640 33.1817 637.9 37.2317 635.8 41.1317C633.85 41.4317 631.9 41.8817 629.95 42.3317C625.6 43.3817 621.4 44.1317 617.05 46.5317C616.6 46.6817 617.65 48.4817 618.1 48.1817L618.25 48.0317C621.7 46.2317 626.2 45.1817 630.4 43.9817C631.75 43.6817 633.25 43.3817 634.75 42.9317C622.45 64.3817 607 94.5317 614.35 104.882C615.55 106.532 617.5 106.082 618.85 105.782C628.75 103.532 652.15 81.6317 657.85 73.9817C658 73.6817 657.25 73.2317 657.1 73.3817C639.1 93.7817 618.4 107.582 616.15 102.932C613.15 95.7317 621.55 76.3817 628.9 61.6817C632.5 55.5317 636.25 49.5317 640.15 43.5317C640.45 42.7817 641.05 42.1817 641.5 41.4317C641.95 41.2817 642.55 41.1317 643.15 41.1317C651.7 39.4817 660.4 38.1317 669.1 37.3817C669.55 37.2317 669.85 36.9317 669.85 36.6317C669.7 36.3317 669.4 36.0317 669.1 36.0317ZM638.65 42.4817C637.6 43.9817 636.7 45.6317 635.8 47.1317C636.4 45.7817 637 44.4317 637.6 43.0817C637.75 42.7817 637.9 42.4817 638.05 42.1817C638.35 42.1817 638.65 42.0317 638.95 42.0317C638.8 42.1817 638.65 42.3317 638.65 42.4817ZM640.15 40.2317C639.85 40.2317 639.4 40.3817 639.1 40.3817C640.75 37.0817 642.4 33.6317 644.2 30.4817C645.4 28.3817 646.6 26.4317 647.95 24.4817C648.55 23.4317 649.3 22.5317 650.05 21.6317C650.5 21.0317 651.25 20.4317 651.7 19.9817C651.7 20.4317 651.55 20.8817 651.4 21.3317C651.1 22.3817 650.65 23.5817 650.05 24.4817C649 26.5817 647.8 28.6817 646.45 30.6317C644.35 33.7817 642.25 36.9317 640.15 40.2317ZM697.307 73.5317C691.757 78.6317 679.757 87.7817 679.307 79.9817C679.157 75.6317 681.257 70.0817 680.507 67.0817C680.357 66.4817 679.307 65.2817 678.407 64.6817C676.757 63.9317 674.207 65.7317 673.457 66.3317C666.707 70.8317 655.757 89.2817 655.757 89.2817C656.957 85.5317 658.007 81.9317 659.207 78.3317C660.407 74.7317 661.607 71.1317 662.957 67.5317C668.807 58.3817 674.807 49.3817 680.807 40.2317C684.107 35.1317 688.007 30.3317 689.957 24.1817C690.107 23.4317 690.257 22.5317 690.407 21.7817C690.407 20.8817 690.557 19.9817 689.807 18.7817C689.507 18.1817 688.457 17.7317 687.857 17.7317C687.257 17.8817 686.657 18.0317 686.357 18.1817C685.457 18.6317 684.857 19.2317 684.257 19.8317C681.857 21.9317 680.057 24.4817 678.257 27.0317C671.357 37.2317 666.557 48.4817 662.207 59.8817C659.957 65.5817 657.857 71.2817 656.207 77.1317C654.407 82.9817 652.757 90.0317 651.557 95.1317V95.2817C651.557 95.7317 651.707 96.0317 652.157 96.1817C652.607 96.3317 653.807 95.8817 653.807 95.8817C657.407 90.0317 660.707 84.9317 664.757 79.6817C668.957 74.1317 673.757 69.1817 675.107 68.2817C675.557 67.8317 676.157 67.5317 676.757 67.3817C676.757 68.4317 675.857 75.3317 675.557 76.9817C673.907 92.2817 685.457 85.6817 697.907 74.1317C698.207 73.2317 697.307 73.5317 697.307 73.5317ZM680.507 28.5317C682.007 25.9817 683.807 23.5817 685.907 21.6317C686.357 21.0317 686.957 20.5817 687.407 20.4317C687.707 20.2817 687.857 20.1317 688.007 20.1317C688.307 20.5817 688.157 22.3817 687.857 23.5817C686.357 29.2817 682.607 34.2317 679.307 39.3317C674.657 46.3817 670.007 53.5817 665.207 60.7817C669.557 49.6817 674.057 38.5817 680.507 28.5317ZM717.916 73.3817C710.716 78.1817 701.716 82.6817 699.916 79.8317C699.766 78.9317 700.066 77.4317 700.516 76.0817C701.416 73.3817 702.166 72.4817 703.666 69.9317C703.666 69.7817 703.666 69.7817 703.816 69.6317C704.116 68.7317 702.316 64.5317 700.066 68.4317C698.566 71.1317 697.966 72.4817 697.216 75.7817C696.316 78.9317 697.066 82.2317 700.366 82.5317C703.516 82.8317 710.866 79.3817 718.366 73.9817C718.666 73.8317 718.216 73.2317 717.916 73.3817ZM707.566 62.1317C707.716 61.6817 707.416 59.4317 706.366 60.4817C705.166 61.5317 703.066 62.5817 702.766 63.1817C702.316 64.3817 707.266 63.6317 707.566 62.1317ZM738.159 73.2317C732.459 75.3317 726.759 77.7317 721.359 80.7317V80.5817C721.509 78.6317 721.509 76.5317 721.509 74.5817C721.659 72.1817 721.659 69.7817 721.959 67.5317C724.659 66.0317 727.059 64.0817 728.559 61.3817C730.059 58.8317 729.759 55.6817 725.409 57.6317C722.709 58.8317 718.959 62.2817 718.509 68.1317C718.359 68.1317 718.209 68.2817 718.059 68.2817C717.909 68.4317 717.759 68.5817 717.759 68.8817C717.909 69.0317 718.059 69.1817 718.359 69.1817C718.359 69.0317 718.359 69.0317 718.359 69.0317C718.059 70.8317 717.759 80.1317 717.759 82.8317C716.859 83.4317 715.959 84.0317 715.209 84.6317C713.409 85.8317 711.759 87.1817 710.409 88.9817C709.809 89.8817 709.209 90.9317 709.209 92.2817C709.059 93.4817 709.809 94.8317 711.159 95.4317C713.859 96.4817 716.559 94.9817 718.209 93.1817C719.709 91.3817 720.459 89.1317 721.059 87.0317C721.359 85.2317 721.359 83.5817 721.359 81.9317C726.909 78.7817 732.609 76.2317 738.459 73.8317C738.609 73.6817 738.459 73.0817 738.159 73.2317ZM723.009 63.0317C723.909 60.1817 730.359 55.0817 727.659 60.9317C726.459 63.3317 724.509 65.2817 722.109 66.6317C722.259 65.4317 722.559 64.2317 723.009 63.0317ZM717.759 86.5817C717.459 88.3817 717.009 90.3317 716.109 91.6817C715.209 93.1817 713.409 94.3817 711.909 93.9317C710.409 93.4817 710.409 91.2317 711.459 89.5817C712.509 87.9317 714.009 86.5817 715.809 85.3817C716.409 84.9317 717.159 84.4817 717.759 84.1817C717.759 84.9317 717.759 85.8317 717.759 86.5817Z" fill="black"/>
</svg>
