<svg width="277" height="65" viewBox="0 0 277 65" fill="none" xmlns="http://www.w3.org/2000/svg">
<path d="M46.6102 16.1342C45.8072 17.6672 47.8512 18.4702 48.1432 16.8642C48.9462 13.2872 49.6762 11.0972 51.4282 6.71718C51.7932 6.13318 50.3332 5.76818 49.9682 6.57118C49.6762 8.10418 49.2382 9.49118 48.6542 10.7322C48.5812 9.49118 48.3622 8.17718 47.7052 6.93618C46.9022 5.33018 45.3692 4.01618 43.6902 3.35918C42.0112 2.62918 40.2592 2.41018 38.4342 2.41018C31.4992 2.62918 24.2722 6.35218 21.2792 12.9222C18.2132 19.8572 20.3302 24.7482 24.4182 32.9242C25.9512 35.9902 28.5062 41.1002 28.7982 41.8302C0.109238 57.7442 9.67224 64.0952 19.4542 61.7592C35.2952 57.8902 33.7622 47.5972 30.9882 41.6842C34.3462 40.0052 39.8212 37.8152 39.8212 37.8152C39.8212 37.8152 40.1132 37.0852 39.6752 37.3772C36.6092 38.2532 30.7692 41.0272 30.7692 41.0272C30.7692 41.0272 28.1412 35.7712 26.3162 31.9752C24.8562 28.9092 19.4542 20.4412 22.8852 13.6522C25.8052 7.95818 32.0832 4.08918 38.5072 3.79718C41.6462 3.65118 45.1502 4.74618 46.6102 7.52018C48.0702 10.3672 46.6102 16.1342 46.6102 16.1342ZM10.8402 57.0872C11.8622 52.9992 21.0602 46.7212 29.0902 42.6332C38.2152 61.6862 9.16124 64.4602 10.8402 57.0872ZM51.9221 37.8152C48.4181 40.1512 44.0381 42.3412 43.1621 40.9542C43.0891 40.5162 43.2351 39.7862 43.4541 39.1292C43.8921 37.8152 44.2571 37.3772 44.9871 36.1362C44.9871 36.0632 44.9871 36.0632 45.0601 35.9902C45.2061 35.5522 44.3301 33.5082 43.2351 35.4062C42.5051 36.7202 42.2131 37.3772 41.8481 38.9832C41.4101 40.5162 41.7751 42.1222 43.3811 42.2682C44.9141 42.4142 48.4911 40.7352 52.1411 38.1072C52.2871 38.0342 52.0681 37.7422 51.9221 37.8152ZM46.8851 32.3402C46.9581 32.1212 46.8121 31.0262 46.3011 31.5372C45.7171 32.0482 44.6951 32.5592 44.5491 32.8512C44.3301 33.4352 46.7391 33.0702 46.8851 32.3402ZM77.6706 37.7422C69.4946 44.0932 69.3486 42.2682 68.4726 38.5452C68.1076 36.7202 65.9176 35.2602 62.0486 38.7642C63.8006 34.3842 62.1216 33.4352 60.8076 33.8732C58.6176 34.5302 54.8946 38.1802 53.2886 39.7862C52.7046 39.4212 54.8216 35.9902 55.4056 34.6032C55.6246 34.3112 54.6026 33.5082 53.7266 34.4572C52.0476 36.0632 50.7336 40.9542 51.0256 41.6842C51.3176 42.4872 52.1206 42.2682 52.1206 42.2682C53.7266 40.2242 56.7196 37.3042 59.4936 35.6252C61.6836 34.3112 61.8296 35.1142 59.7126 40.4432C59.4936 41.1002 60.9536 41.1732 60.9536 41.1732C64.8956 36.0632 66.5746 37.1582 66.9396 39.3482C67.8886 44.4582 71.1006 43.5822 77.9626 38.0342C78.0356 37.9612 77.8166 37.6692 77.6706 37.7422ZM87.4241 37.8152C83.9201 40.1512 79.5401 42.3412 78.6641 40.9542C78.5911 40.5162 78.7371 39.7862 78.9561 39.1292C79.3941 37.8152 79.7591 37.3772 80.4891 36.1362C80.4891 36.0632 80.4891 36.0632 80.5621 35.9902C80.7081 35.5522 79.8321 33.5082 78.7371 35.4062C78.0071 36.7202 77.7151 37.3772 77.3501 38.9832C76.9121 40.5162 77.2771 42.1222 78.8831 42.2682C80.4161 42.4142 83.9931 40.7352 87.6431 38.1072C87.7891 38.0342 87.5701 37.7422 87.4241 37.8152ZM82.3871 32.3402C82.4601 32.1212 82.3141 31.0262 81.8031 31.5372C81.2191 32.0482 80.1971 32.5592 80.0511 32.8512C79.8321 33.4352 82.2411 33.0702 82.3871 32.3402ZM105.012 38.1072C105.085 38.0342 104.793 37.7422 104.72 37.8152C89.9009 52.5612 86.1049 48.7652 88.8789 37.7422C99.61 24.1642 105.012 16.0612 105.742 11.5352C105.961 9.92918 104.063 8.39618 100.267 12.5572C97.2009 15.8422 94.7919 19.7112 92.6749 23.7262C90.5579 27.7412 88.7329 31.9752 87.4919 36.3552C83.9879 48.8382 88.2949 55.6272 105.012 38.1072ZM100.924 13.2142C101.8 12.1192 102.749 11.2432 103.187 10.9512C103.99 10.4402 105.085 10.4402 104.939 11.3892C104.063 16.7182 95.2299 28.3252 89.2439 35.9172C91.7259 26.5732 98.2229 16.6452 100.924 13.2142ZM121.301 37.7422C113.271 42.6332 110.497 42.8522 113.636 35.6252C113.636 35.4062 113.052 34.9682 112.906 34.8222C112.687 34.6762 112.322 34.6762 112.176 34.9682C112.03 35.1142 111.884 35.2602 111.738 35.4062C109.986 34.3842 107.65 35.3332 106.117 36.5012C105.314 37.0852 104.584 37.8152 103.927 38.6182C103.635 39.0562 103.343 39.4212 103.051 39.9322C102.248 41.9032 103.27 42.5602 104.73 42.0492C105.825 41.6842 107.869 40.0782 108.599 39.4942C109.548 38.6182 110.497 37.8152 111.446 36.9392C108.964 42.7792 111.519 44.3122 121.52 38.1072C121.593 38.0342 121.447 37.6692 121.301 37.7422ZM108.088 38.8372C107.358 39.4212 106.628 39.9322 105.825 40.4432C105.46 40.6622 105.022 40.8812 104.657 40.9542C104.584 40.9542 104.584 40.9542 104.584 40.9542C104.584 40.8812 104.657 40.7352 104.73 40.6622C104.876 40.2972 105.095 39.9322 105.314 39.5672C105.825 38.9102 106.409 38.1802 107.066 37.5962C108.234 36.5012 109.767 35.5522 111.373 35.7712C110.351 36.8662 109.256 37.8882 108.088 38.8372ZM134.948 37.7422C129.108 41.5382 124.144 42.9252 125.969 39.8592C127.137 37.9612 126.772 37.1582 123.268 36.4282C123.414 36.2092 125.239 34.2382 124.655 32.9972C124.509 32.6322 124.071 32.4862 123.56 32.6322C122.538 32.9242 121.516 34.1652 121.151 34.8222C121.078 35.0412 120.786 35.6982 120.859 36.2092C121.005 36.8662 121.662 37.0122 122.027 37.0852C122.1 37.2312 122.246 37.3042 122.392 37.3042C122.611 37.2312 122.611 37.1582 122.757 37.0852C125.385 37.5232 125.166 38.2532 124.801 38.9832C124.217 40.0782 123.852 40.8812 123.925 41.4652C124.29 44.7502 132.685 39.6402 135.094 38.0342H135.167C135.24 37.9612 135.021 37.6692 134.948 37.7422ZM122.246 36.2822C121.297 36.2822 123.56 33.2892 123.998 33.5812C124.509 33.8002 123.122 35.7712 122.246 36.2822ZM170.377 7.00918C168.552 7.52018 166.727 8.25018 164.975 8.98018C166.289 6.64418 167.676 4.38118 169.063 2.04518C169.428 1.38818 167.238 0.147182 166.873 0.804182C164.975 4.08918 163.15 7.37418 161.398 10.7322C157.894 12.5572 154.536 14.6742 151.324 17.0102C151.032 17.2292 152.346 17.9592 152.638 17.7402C155.339 15.7692 157.529 14.1632 160.449 12.5572C156.434 20.1492 152.638 27.8872 149.28 35.8442C148.696 35.9902 148.185 36.1362 147.601 36.2092C147.09 36.3552 147.455 37.8882 147.966 37.8152C148.112 37.7422 148.258 37.7422 148.404 37.6692C145.265 45.3342 142.491 53.3642 140.301 61.3212C140.155 61.6132 141.615 61.3212 141.761 60.9562C144.17 52.7072 147.09 45.1882 150.521 37.3042C156.507 36.1362 162.712 34.0192 168.552 31.3912C171.837 29.8582 174.976 27.9602 177.896 25.6972C190.379 15.9152 186.802 3.28618 170.377 7.00918ZM182.714 16.6452C181.4 19.5652 179.137 22.1932 176.436 24.3102C173.735 26.5002 170.742 28.2522 167.603 29.7852C162.493 32.1942 157.018 33.9462 151.47 35.3332C155.266 26.9382 159.573 18.6892 164.099 10.5862C166.216 9.56418 168.406 8.61518 170.669 8.25018C174.027 7.52018 177.75 7.30118 180.597 8.83418C181.911 9.49118 182.933 10.6592 183.298 12.1192C183.59 13.5062 183.371 15.1122 182.714 16.6452ZM189.27 37.7422C183.43 41.5382 178.466 42.9252 180.291 39.8592C181.459 37.9612 181.094 37.1582 177.59 36.4282C177.736 36.2092 179.561 34.2382 178.977 32.9972C178.831 32.6322 178.393 32.4862 177.882 32.6322C176.86 32.9242 175.838 34.1652 175.473 34.8222C175.4 35.0412 175.108 35.6982 175.181 36.2092C175.327 36.8662 175.984 37.0122 176.349 37.0852C176.422 37.2312 176.568 37.3042 176.714 37.3042C176.933 37.2312 176.933 37.1582 177.079 37.0852C179.707 37.5232 179.488 38.2532 179.123 38.9832C178.539 40.0782 178.174 40.8812 178.247 41.4652C178.612 44.7502 187.007 39.6402 189.416 38.0342H189.489C189.562 37.9612 189.343 37.6692 189.27 37.7422ZM176.568 36.2822C175.619 36.2822 177.882 33.2892 178.32 33.5812C178.831 33.8002 177.444 35.7712 176.568 36.2822ZM200.669 37.8152C198.917 39.1292 197.238 39.7862 195.121 39.4212C195.121 39.4212 196.143 37.7422 195.121 36.7202C195.924 33.7272 189.938 34.6032 188.551 37.8882C186.653 42.3412 191.69 43.5092 194.829 39.9322C197.311 40.2972 198.698 39.6402 200.961 38.0342C201.034 37.9612 200.888 37.6692 200.669 37.8152ZM189.719 39.4212C189.938 37.8882 191.617 36.2822 192.931 35.7712C193.515 35.5522 195.048 35.4062 194.61 36.7202C193.223 36.9392 192.858 38.6182 194.099 39.5672C192.931 41.3192 189.427 42.5602 189.719 39.4212ZM194.391 39.0562C193.588 38.6182 193.953 36.9392 194.902 37.2312C195.194 37.3042 194.902 38.3992 194.391 39.0562ZM225.213 10.9512C225.213 10.8052 225.067 10.5132 224.848 10.3672C224.702 10.2942 224.556 10.1482 224.337 10.0752C223.461 9.78318 222.804 10.2212 222.366 10.5862C221.855 10.9512 221.49 11.3162 221.125 11.7542C220.395 12.5572 219.738 13.5062 219.227 14.3822C216.964 18.0322 215.139 21.9012 213.606 25.7702C212.584 28.3982 211.635 31.0262 210.686 33.6542C210.102 34.3842 209.591 35.0412 209.007 35.6982C208.35 34.9682 207.401 34.5302 206.379 34.5302C205.138 34.5302 203.97 35.0412 203.094 35.6252C201.196 36.8662 199.444 38.4722 198.787 40.8812C198.641 41.5382 198.495 42.4142 199.225 43.2172C200.101 43.8742 202.145 43.8742 204.408 41.9032C206.817 39.7132 208.715 37.8882 209.664 36.5742C209.518 36.9392 204.189 60.5182 222.512 37.9612C222.512 37.8882 222.366 37.8152 222.22 37.7422C204.554 58.9122 211.927 34.6762 212.584 32.9242C214.044 31.0992 215.431 29.2012 216.745 27.3032C219.227 23.8722 221.563 20.2952 223.461 16.5722C223.972 15.6232 224.41 14.6012 224.775 13.5792C224.994 13.1412 225.14 12.5572 225.286 11.9732C225.286 11.6812 225.359 11.3892 225.213 10.9512ZM208.277 36.6472C206.817 38.1802 204.262 41.1732 201.342 42.1952C200.904 42.3412 200.028 42.7792 200.466 41.3192C200.904 39.7132 202.364 38.0342 203.897 36.9392C205.284 35.8442 207.547 34.6762 208.496 36.2822C208.423 36.4282 208.35 36.5012 208.277 36.6472ZM223.826 13.2872C223.461 14.2362 223.023 15.1852 222.512 16.0612C220.103 20.6602 217.256 25.0402 214.117 29.2012C214.482 28.3252 214.847 27.3762 215.212 26.5002C216.964 22.6312 218.497 18.7622 220.468 15.1852C220.979 14.2362 221.49 13.3602 222.147 12.5572C222.658 11.8272 223.607 11.0242 223.972 11.1702C224.41 11.0242 224.191 12.4112 223.826 13.2872ZM236.304 37.6692C230.026 42.4142 227.982 41.9762 228.858 39.4212C229.15 38.3262 229.88 36.5742 230.245 35.4062C230.318 35.1872 229.661 34.4572 229.15 34.7492C227.252 38.1072 225.646 39.5672 223.164 40.9542C221.412 41.9762 223.164 38.0342 224.551 36.2092C224.551 36.2092 223.748 34.9682 223.237 35.3332C222.507 35.9172 220.828 39.4212 220.755 40.3702C220.463 43.8742 225.135 41.1732 227.398 38.7642C225.646 43.5822 230.464 43.1442 236.596 37.9612C236.669 37.8882 236.45 37.5962 236.304 37.6692ZM248.163 37.6692C245.681 39.4942 242.761 40.8082 240.279 41.6112C235.826 42.9982 236.045 37.5962 239.914 34.8222C240.352 34.6032 240.863 34.4572 241.301 34.6762C241.666 34.8222 241.885 35.4062 241.812 35.9172C241.812 36.0632 241.812 36.2092 241.812 36.3552C241.812 36.3552 241.885 36.7202 242.177 36.6472C242.177 36.6472 242.688 34.9682 242.907 34.5302V34.4572C242.98 34.4572 242.98 34.4572 242.98 34.3842C243.053 34.1652 242.542 34.1652 242.469 34.3112L242.177 34.8952C242.031 34.6032 241.885 34.3842 241.593 34.1652C240.936 33.7272 237.724 33.7272 235.534 38.1072C234.001 41.1732 236.264 43.5092 240.425 42.1952C243.272 41.2462 246.046 39.7132 248.455 37.9612C248.528 37.8882 248.309 37.5232 248.163 37.6692ZM272.402 19.6382C268.095 20.0032 263.861 20.5872 259.627 21.3902H259.554C260.43 20.1492 261.233 18.7622 262.182 17.5212C262.839 16.5722 263.496 15.5502 264.007 14.4552C264.299 13.9442 264.518 13.4332 264.737 12.8492C264.81 12.4842 264.956 12.1922 264.956 11.8272C264.956 11.6812 264.956 11.4622 264.883 11.1702C264.81 10.8052 264.153 10.5862 263.934 10.7322C263.058 11.0972 262.766 11.5352 262.328 11.9732C261.963 12.4842 261.598 12.9222 261.233 13.4332C260.576 14.3822 259.919 15.4042 259.335 16.3532C258.24 18.2512 257.218 20.2222 256.196 22.1202C255.247 22.2662 254.298 22.4852 253.349 22.7042C251.232 23.2152 249.188 23.5802 247.071 24.7482C246.852 24.8212 247.363 25.6972 247.582 25.5512L247.655 25.4782C249.334 24.6022 251.524 24.0912 253.568 23.5072C254.225 23.3612 254.955 23.2152 255.685 22.9962C249.699 33.4352 242.18 48.1082 245.757 53.1452C246.341 53.9482 247.29 53.7292 247.947 53.5832C252.765 52.4882 264.153 41.8302 266.927 38.1072C267 37.9612 266.635 37.7422 266.562 37.8152C257.802 47.7432 247.728 54.4592 246.633 52.1962C245.173 48.6922 249.261 39.2752 252.838 32.1212C254.59 29.1282 256.415 26.2082 258.313 23.2882C258.459 22.9232 258.751 22.6312 258.97 22.2662C259.189 22.1932 259.481 22.1202 259.773 22.1202C263.934 21.3172 268.168 20.6602 272.402 20.2952C272.621 20.2222 272.767 20.0762 272.767 19.9302C272.694 19.7842 272.548 19.6382 272.402 19.6382ZM257.583 22.7772C257.072 23.5072 256.634 24.3102 256.196 25.0402C256.488 24.3832 256.78 23.7262 257.072 23.0692C257.145 22.9232 257.218 22.7772 257.291 22.6312C257.437 22.6312 257.583 22.5582 257.729 22.5582C257.656 22.6312 257.583 22.7042 257.583 22.7772ZM258.313 21.6822C258.167 21.6822 257.948 21.7552 257.802 21.7552C258.605 20.1492 259.408 18.4702 260.284 16.9372C260.868 15.9152 261.452 14.9662 262.109 14.0172C262.401 13.5062 262.766 13.0682 263.131 12.6302C263.35 12.3382 263.715 12.0462 263.934 11.8272C263.934 12.0462 263.861 12.2652 263.788 12.4842C263.642 12.9952 263.423 13.5792 263.131 14.0172C262.62 15.0392 262.036 16.0612 261.379 17.0102C260.357 18.5432 259.335 20.0762 258.313 21.6822ZM276.425 37.7422C273.651 38.7642 270.877 39.9322 268.249 41.3922V41.3192C268.322 40.3702 268.322 39.3482 268.322 38.3992C268.395 37.2312 268.395 36.0632 268.541 34.9682C269.855 34.2382 271.023 33.2892 271.753 31.9752C272.483 30.7342 272.337 29.2012 270.22 30.1502C268.906 30.7342 267.081 32.4132 266.862 35.2602C266.789 35.2602 266.716 35.3332 266.643 35.3332C266.57 35.4062 266.497 35.4792 266.497 35.6252C266.57 35.6982 266.643 35.7712 266.789 35.7712C266.789 35.6982 266.789 35.6982 266.789 35.6982C266.643 36.5742 266.497 41.1002 266.497 42.4142C266.059 42.7062 265.621 42.9982 265.256 43.2902C264.38 43.8742 263.577 44.5312 262.92 45.4072C262.628 45.8452 262.336 46.3562 262.336 47.0132C262.263 47.5972 262.628 48.2542 263.285 48.5462C264.599 49.0572 265.913 48.3272 266.716 47.4512C267.446 46.5752 267.811 45.4802 268.103 44.4582C268.249 43.5822 268.249 42.7792 268.249 41.9762C270.95 40.4432 273.724 39.2022 276.571 38.0342C276.644 37.9612 276.571 37.6692 276.425 37.7422ZM269.052 32.7782C269.49 31.3912 272.629 28.9092 271.315 31.7562C270.731 32.9242 269.782 33.8732 268.614 34.5302C268.687 33.9462 268.833 33.3622 269.052 32.7782ZM266.497 44.2392C266.351 45.1152 266.132 46.0642 265.694 46.7212C265.256 47.4512 264.38 48.0352 263.65 47.8162C262.92 47.5972 262.92 46.5022 263.431 45.6992C263.942 44.8962 264.672 44.2392 265.548 43.6552C265.84 43.4362 266.205 43.2172 266.497 43.0712C266.497 43.4362 266.497 43.8742 266.497 44.2392Z" fill="black"/>
</svg>
