<svg width="409" height="117" viewBox="0 0 409 117" fill="none" xmlns="http://www.w3.org/2000/svg">
<path d="M126.55 1.13174C126.25 0.381733 123.25 0.381733 123.55 1.88174C126.85 17.7817 99.7 71.0317 82.6 92.7817C77.2 99.5317 71.2 105.982 64.45 110.632C62.8 111.682 61 112.732 59.65 112.732C58.45 112.732 57.85 111.982 57.25 110.182C56.5 106.432 56.8 102.232 57.25 98.0317C58.3 89.6317 60.1 81.2317 61.6 72.8317C62.35 68.6317 63.25 64.4317 63.85 60.0817C64.15 57.9817 64.45 55.8817 64.75 53.6317C64.75 51.3817 65.2 49.2817 64.15 46.4317C63.85 45.9817 63.85 45.5317 63.25 45.2317C62.8 44.7817 62.2 44.4817 61.75 44.4817C60.55 44.3317 59.95 44.7817 59.2 44.9317C58 45.5317 57.1 46.2817 56.35 47.0317C54.55 48.5317 53.05 50.1817 51.7 51.8317C48.7 55.1317 46.15 58.4317 43.45 61.8817L27.7 82.2817C22.45 89.1817 17.35 95.9317 11.8 102.532C9.1 105.682 6.25 108.982 3.25 111.682C3.25 110.932 3.4 110.032 3.55 109.132C4 107.032 4.6 105.082 5.2 102.982C10.6 86.7817 17.35 71.0317 23.8 55.1317C30.55 39.3817 37.3 23.6317 44.35 8.03174V7.88173C44.8 6.98174 41.35 5.48173 40.9 6.38174C34 22.1317 27.25 37.8817 20.65 53.7817C14.2 69.6817 7.75 85.7317 2.65 102.232C2.05 104.332 1.45 106.432 0.999999 108.532C0.849999 109.732 0.549999 110.782 0.549999 112.132C0.549999 112.432 0.699999 112.882 0.849999 113.332C0.999999 113.482 1.15 113.782 1.3 114.082C1.6 114.382 2.05 114.682 2.35 114.682C4 114.682 4.3 114.082 4.9 113.632C8.2 110.632 10.9 107.332 13.75 104.032C19.15 97.4317 24.4 90.5317 29.5 83.6317C34.6 76.7317 40 69.9817 45.4 63.3817C48.1 60.0817 50.8 56.7817 53.8 53.7817C55.15 52.2817 56.65 50.7817 58.3 49.4317C59.05 48.8317 59.95 48.2317 60.55 47.9317C60.7 47.9317 61 47.7817 61 47.7817C61.45 48.8317 61.3 51.3817 61 53.1817C60.85 55.2817 60.4 57.3817 60.1 59.4817L57.55 72.0817C55.75 80.4817 53.95 88.8817 53.05 97.5817C52.75 101.932 52.3 106.432 53.5 111.082C53.8 112.432 54.4 113.632 55.45 114.832C56.5 116.032 58.3 116.632 59.65 116.632C62.8 116.332 64.6 114.832 66.55 113.632C73.75 108.082 79.15 101.332 84.55 94.5817C102.4 72.5317 131.8 13.5817 126.55 1.13174ZM150.884 72.2317C134.384 82.2817 128.684 82.7317 135.134 67.8817C135.134 67.4317 133.934 66.5317 133.634 66.2317C133.184 65.9317 132.434 65.9317 132.134 66.5317C131.834 66.8317 131.534 67.1317 131.234 67.4317C127.634 65.3317 122.834 67.2817 119.684 69.6817C118.034 70.8817 116.534 72.3817 115.184 74.0317C114.584 74.9317 113.984 75.6817 113.384 76.7317C111.734 80.7817 113.834 82.1317 116.834 81.0817C119.084 80.3317 123.284 77.0317 124.784 75.8317C126.734 74.0317 128.684 72.3817 130.634 70.5817C125.534 82.5817 130.784 85.7317 151.334 72.9817C151.484 72.8317 151.184 72.0817 150.884 72.2317ZM123.734 74.4817C122.234 75.6817 120.734 76.7317 119.084 77.7817C118.334 78.2317 117.434 78.6817 116.684 78.8317C116.534 78.8317 116.534 78.8317 116.534 78.8317C116.534 78.6817 116.684 78.3817 116.834 78.2317C117.134 77.4817 117.584 76.7317 118.034 75.9817C119.084 74.6317 120.284 73.1317 121.634 71.9317C124.034 69.6817 127.184 67.7317 130.484 68.1817C128.384 70.4317 126.134 72.5317 123.734 74.4817ZM199.889 35.0317C191.039 35.7817 182.339 36.9817 173.639 38.6317H173.489C175.289 36.0817 176.939 33.2317 178.889 30.6817C180.239 28.7317 181.589 26.6317 182.639 24.3817C183.239 23.3317 183.689 22.2817 184.139 21.0817C184.289 20.3317 184.589 19.7317 184.589 18.9817C184.589 18.6817 184.589 18.2317 184.439 17.6317C184.289 16.8817 182.939 16.4317 182.489 16.7317C180.689 17.4817 180.089 18.3817 179.189 19.2817C178.439 20.3317 177.689 21.2317 176.939 22.2817C175.589 24.2317 174.239 26.3317 173.039 28.2817C170.789 32.1817 168.689 36.2317 166.589 40.1317C164.639 40.4317 162.689 40.8817 160.739 41.3317C156.389 42.3817 152.189 43.1317 147.839 45.5317C147.389 45.6817 148.439 47.4817 148.889 47.1817L149.039 47.0317C152.489 45.2317 156.989 44.1817 161.189 42.9817C162.539 42.6817 164.039 42.3817 165.539 41.9317C153.239 63.3817 137.789 93.5317 145.139 103.882C146.339 105.532 148.289 105.082 149.639 104.782C159.539 102.532 182.939 80.6317 188.639 72.9817C188.789 72.6817 188.039 72.2317 187.889 72.3817C169.889 92.7817 149.189 106.582 146.939 101.932C143.939 94.7317 152.339 75.3817 159.689 60.6817C163.289 54.5317 167.039 48.5317 170.939 42.5317C171.239 41.7817 171.839 41.1817 172.289 40.4317C172.739 40.2817 173.339 40.1317 173.939 40.1317C182.489 38.4817 191.189 37.1317 199.889 36.3817C200.339 36.2317 200.639 35.9317 200.639 35.6317C200.489 35.3317 200.189 35.0317 199.889 35.0317ZM169.439 41.4817C168.389 42.9817 167.489 44.6317 166.589 46.1317C167.189 44.7817 167.789 43.4317 168.389 42.0817C168.539 41.7817 168.689 41.4817 168.839 41.1817C169.139 41.1817 169.439 41.0317 169.739 41.0317C169.589 41.1817 169.439 41.3317 169.439 41.4817ZM170.939 39.2317C170.639 39.2317 170.189 39.3817 169.889 39.3817C171.539 36.0817 173.189 32.6317 174.989 29.4817C176.189 27.3817 177.389 25.4317 178.739 23.4817C179.339 22.4317 180.089 21.5317 180.839 20.6317C181.289 20.0317 182.039 19.4317 182.489 18.9817C182.489 19.4317 182.339 19.8817 182.189 20.3317C181.889 21.3817 181.439 22.5817 180.839 23.4817C179.789 25.5817 178.589 27.6817 177.239 29.6317C175.139 32.7817 173.039 35.9317 170.939 39.2317ZM213.072 72.0817C207.972 75.8317 201.972 78.5317 196.872 80.1817C187.722 83.0317 188.172 71.9317 196.122 66.2317C197.022 65.7817 198.072 65.4817 198.972 65.9317C199.722 66.2317 200.172 67.4317 200.022 68.4817C200.022 68.7817 200.022 69.0817 200.022 69.3817C200.022 69.3817 200.172 70.1317 200.772 69.9817C200.772 69.9817 201.822 66.5317 202.272 65.6317V65.4817C202.422 65.4817 202.422 65.4817 202.422 65.3317C202.572 64.8817 201.522 64.8817 201.372 65.1817L200.772 66.3817C200.472 65.7817 200.172 65.3317 199.572 64.8817C198.222 63.9817 191.622 63.9817 187.122 72.9817C183.972 79.2817 188.622 84.0817 197.172 81.3817C203.022 79.4317 208.722 76.2817 213.672 72.6817C213.822 72.5317 213.372 71.7817 213.072 72.0817ZM253.878 72.5317C248.328 77.6317 236.328 86.7817 235.878 78.9817C235.728 74.6317 237.828 69.0817 237.078 66.0817C236.928 65.4817 235.878 64.2817 234.978 63.6817C233.328 62.9317 230.778 64.7317 230.028 65.3317C223.278 69.8317 212.328 88.2817 212.328 88.2817C213.528 84.5317 214.578 80.9317 215.778 77.3317C216.978 73.7317 218.178 70.1317 219.528 66.5317C225.378 57.3817 231.378 48.3817 237.378 39.2317C240.678 34.1317 244.578 29.3317 246.528 23.1817C246.678 22.4317 246.828 21.5317 246.978 20.7817C246.978 19.8817 247.128 18.9817 246.378 17.7817C246.078 17.1817 245.028 16.7317 244.428 16.7317C243.828 16.8817 243.228 17.0317 242.928 17.1817C242.028 17.6317 241.428 18.2317 240.828 18.8317C238.428 20.9317 236.628 23.4817 234.828 26.0317C227.928 36.2317 223.128 47.4817 218.778 58.8817C216.528 64.5817 214.428 70.2817 212.778 76.1317C210.978 81.9817 209.328 89.0317 208.128 94.1317V94.2817C208.128 94.7317 208.278 95.0317 208.728 95.1817C209.178 95.3317 210.378 94.8817 210.378 94.8817C213.978 89.0317 217.278 83.9317 221.328 78.6817C225.528 73.1317 230.328 68.1817 231.678 67.2817C232.128 66.8317 232.728 66.5317 233.328 66.3817C233.328 67.4317 232.428 74.3317 232.128 75.9817C230.478 91.2817 242.028 84.6817 254.478 73.1317C254.778 72.2317 253.878 72.5317 253.878 72.5317ZM237.078 27.5317C238.578 24.9817 240.378 22.5817 242.478 20.6317C242.928 20.0317 243.528 19.5817 243.978 19.4317C244.278 19.2817 244.428 19.1317 244.578 19.1317C244.878 19.5817 244.728 21.3817 244.428 22.5817C242.928 28.2817 239.178 33.2317 235.878 38.3317C231.228 45.3817 226.578 52.5817 221.778 59.7817C226.128 48.6817 230.628 37.5817 237.078 27.5317ZM330.763 72.2317C313.963 85.2817 313.663 81.5317 311.863 73.8817C311.113 70.1317 306.613 67.1317 298.663 74.3317C302.263 65.3317 298.813 63.3817 296.113 64.2817C291.613 65.6317 283.963 73.1317 280.663 76.4317C279.463 75.6817 283.813 68.6317 285.013 65.7817C285.463 65.1817 283.363 63.5317 281.563 65.4817C278.113 68.7817 275.413 78.8317 276.013 80.3317C276.613 81.9817 278.263 81.5317 278.263 81.5317C281.563 77.3317 287.713 71.3317 293.413 67.8817C297.913 65.1817 298.213 66.8317 293.863 77.7817C293.413 79.1317 296.413 79.2817 296.413 79.2817C304.513 68.7817 307.963 71.0317 308.713 75.5317C310.663 86.0317 317.263 84.2317 331.363 72.8317C331.513 72.6817 331.063 72.0817 330.763 72.2317ZM354.105 72.3817C350.505 75.0817 347.055 76.4317 342.705 75.6817C342.705 75.6817 344.805 72.2317 342.705 70.1317C344.355 63.9817 332.055 65.7817 329.205 72.5317C325.305 81.6817 335.655 84.0817 342.105 76.7317C347.205 77.4817 350.055 76.1317 354.705 72.8317C354.855 72.6817 354.555 72.0817 354.105 72.3817ZM331.605 75.6817C332.055 72.5317 335.505 69.2317 338.205 68.1817C339.405 67.7317 342.555 67.4317 341.655 70.1317C338.805 70.5817 338.055 74.0317 340.605 75.9817C338.205 79.5817 331.005 82.1317 331.605 75.6817ZM341.205 74.9317C339.555 74.0317 340.305 70.5817 342.255 71.1817C342.855 71.3317 342.255 73.5817 341.205 74.9317ZM383.124 72.2317C371.124 80.0317 360.924 82.8817 364.674 76.5817C367.074 72.6817 366.324 71.0317 359.124 69.5317C359.424 69.0817 363.174 65.0317 361.974 62.4817C361.674 61.7317 360.774 61.4317 359.724 61.7317C357.624 62.3317 355.524 64.8817 354.774 66.2317C354.624 66.6817 354.024 68.0317 354.174 69.0817C354.474 70.4317 355.824 70.7317 356.574 70.8817C356.724 71.1817 357.024 71.3317 357.324 71.3317C357.774 71.1817 357.774 71.0317 358.074 70.8817C363.474 71.7817 363.024 73.2817 362.274 74.7817C361.074 77.0317 360.324 78.6817 360.474 79.8817C361.224 86.6317 378.474 76.1317 383.424 72.8317H383.574C383.724 72.6817 383.274 72.0817 383.124 72.2317ZM357.024 69.2317C355.074 69.2317 359.724 63.0817 360.624 63.6817C361.674 64.1317 358.824 68.1817 357.024 69.2317ZM407.296 71.4817C397.996 78.8317 380.146 84.6817 384.046 75.8317C387.346 75.0817 390.196 74.1817 392.896 72.0817C397.996 68.1817 394.096 66.3817 393.346 66.2317C392.596 65.9317 391.846 65.9317 391.096 65.9317C389.446 66.2317 388.096 66.8317 386.896 67.4317C384.496 68.9317 382.696 71.0317 381.196 73.2817C377.146 80.9317 382.396 82.2817 384.346 82.4317C388.996 82.5817 397.096 80.0317 407.896 72.0817C408.046 71.9317 407.446 71.3317 407.296 71.4817ZM388.696 69.9817C389.596 69.2317 390.496 68.6317 391.396 68.3317C393.196 67.7317 395.146 68.1817 391.846 70.8817C390.946 71.7817 388.246 73.4317 384.796 74.3317C385.996 72.8317 387.346 71.3317 388.696 69.9817Z" fill="black"/>
</svg>
