<svg width="678" height="359" viewBox="0 0 678 359" fill="none" xmlns="http://www.w3.org/2000/svg">
<path d="M84.6998 167.06C58.6598 187.64 8.67977 204.02 19.5998 179.24C28.8398 177.14 36.8198 174.62 44.3798 168.74C58.6598 157.82 47.7398 152.78 45.6398 152.36C43.5398 151.52 41.4398 151.52 39.3398 151.52C34.7198 152.36 30.9398 154.04 27.5798 155.72C20.8598 159.92 15.8198 165.8 11.6198 172.1C0.279764 193.52 14.9798 197.3 20.4398 197.72C33.4598 198.14 56.1398 191 86.3798 168.74C86.7998 168.32 85.1198 166.64 84.6998 167.06ZM32.6198 162.86C35.1398 160.76 37.6598 159.08 40.1798 158.24C45.2198 156.56 50.6798 157.82 41.4398 165.38C38.9198 167.9 31.3598 172.52 21.6998 175.04C25.0598 170.84 28.8398 166.64 32.6198 162.86ZM187.265 171.26C187.685 170.84 186.005 169.16 185.585 169.58C100.325 254.42 78.4851 232.58 94.4451 169.16C156.185 91.0404 187.265 44.4204 191.465 18.3804C192.725 9.14036 181.805 0.32036 159.965 24.2604C142.325 43.1604 128.465 65.4204 116.285 88.5204C104.105 111.62 93.6051 135.98 86.4651 161.18C66.3051 233 91.0851 272.06 187.265 171.26ZM163.745 28.0404C168.785 21.7404 174.245 16.7004 176.765 15.0204C181.385 12.0804 187.685 12.0804 186.845 17.5404C181.805 48.2004 130.985 114.98 96.5451 158.66C110.825 104.9 148.205 47.7804 163.745 28.0404ZM253.684 167.06C227.644 187.64 177.664 204.02 188.584 179.24C197.824 177.14 205.804 174.62 213.364 168.74C227.644 157.82 216.724 152.78 214.624 152.36C212.524 151.52 210.424 151.52 208.324 151.52C203.704 152.36 199.924 154.04 196.564 155.72C189.844 159.92 184.804 165.8 180.604 172.1C169.264 193.52 183.964 197.3 189.424 197.72C202.444 198.14 225.124 191 255.364 168.74C255.784 168.32 254.104 166.64 253.684 167.06ZM201.604 162.86C204.124 160.76 206.644 159.08 209.164 158.24C214.204 156.56 219.664 157.82 210.424 165.38C207.904 167.9 200.344 172.52 190.684 175.04C194.044 170.84 197.824 166.64 201.604 162.86ZM349.949 168.74C336.929 175.46 321.389 186.38 309.209 195.62C310.469 190.58 315.509 166.64 315.509 159.08C315.089 155.72 306.689 146.9 304.169 150.26C301.649 153.2 293.669 161.18 293.669 161.6C291.569 158.66 289.049 156.14 285.269 155.3C281.489 154.04 277.289 154.04 273.509 155.3C266.369 157.4 260.489 162.44 255.869 167.48C250.829 172.94 246.209 180.5 244.949 188.06C243.689 196.88 254.609 195.2 257.969 193.94C277.709 185.96 306.269 157.4 306.269 157.4C306.269 157.4 306.269 158.66 306.269 159.08C305.849 164.96 304.169 171.68 302.909 177.56C300.389 187.64 297.449 197.72 294.089 207.8C290.309 210.74 286.529 214.1 282.749 217.46C263.009 235.1 248.309 249.38 231.929 270.38C223.949 280.88 215.969 291.8 208.829 303.14C202.109 314.48 194.969 326.24 191.609 340.1C191.189 343.88 190.349 347.66 192.449 352.28C193.709 354.8 195.809 356.9 198.329 357.74C200.849 358.16 202.529 358.58 204.629 358.58C212.609 358.58 219.329 355.22 225.209 351.44C236.969 343.46 245.789 332.54 253.349 321.62C278.549 285.5 294.929 243.08 307.529 201.92C320.549 191 336.509 179.24 350.789 170.84C351.209 170.42 350.369 168.74 349.949 168.74ZM262.589 185.96C259.649 187.64 256.709 189.32 254.189 190.16C253.769 190.16 253.349 190.16 252.929 190.16C252.929 190.16 252.929 189.74 252.929 189.32C254.609 184.7 259.649 178.82 263.009 173.78C270.569 165.38 281.069 156.14 291.569 163.28C282.329 171.68 273.089 180.5 262.589 185.96ZM278.549 252.32C268.469 276.68 260.489 294.74 246.209 316.58C238.649 327.08 230.669 337.58 220.589 344.72C215.549 348.08 210.089 350.6 204.629 350.6C191.189 350.18 208.409 317.84 215.129 306.92C221.849 295.58 229.409 285.08 237.389 274.58C253.349 253.58 267.209 239.3 286.109 220.82C288.209 219.14 289.889 217.46 291.989 215.36C287.789 227.96 283.589 240.14 278.549 252.32ZM443.406 169.16C397.206 197.3 381.246 198.56 399.306 156.98C399.306 155.72 395.946 153.2 395.106 152.36C393.846 151.52 391.746 151.52 390.906 153.2C390.066 154.04 389.226 154.88 388.386 155.72C378.306 149.84 364.866 155.3 356.046 162.02C351.426 165.38 347.226 169.58 343.446 174.2C341.766 176.72 340.086 178.82 338.406 181.76C333.786 193.1 339.666 196.88 348.066 193.94C354.366 191.84 366.126 182.6 370.326 179.24C375.786 174.2 381.246 169.58 386.706 164.54C372.426 198.14 387.126 206.96 444.666 171.26C445.086 170.84 444.246 168.74 443.406 169.16ZM367.386 175.46C363.186 178.82 358.986 181.76 354.366 184.7C352.266 185.96 349.746 187.22 347.646 187.64C347.226 187.64 347.226 187.64 347.226 187.64C347.226 187.22 347.646 186.38 348.066 185.96C348.906 183.86 350.166 181.76 351.426 179.66C354.366 175.88 357.726 171.68 361.506 168.32C368.226 162.02 377.046 156.56 386.286 157.82C380.406 164.12 374.106 170 367.386 175.46ZM540.301 169.16C492.001 208.64 494.941 194.36 486.541 172.1C483.181 162.02 472.261 149.84 444.961 178.4C446.641 171.68 455.041 158.24 457.561 155.3C459.661 153.62 454.621 149.84 447.901 154.04C444.121 156.56 434.461 180.5 434.461 191.42C434.041 195.62 439.501 195.2 439.501 195.2C465.961 156.56 473.101 163.28 478.981 182.18C487.381 210.32 502.081 202.76 541.561 171.26C542.401 170.84 540.721 168.74 540.301 169.16ZM608.099 168.74C593.819 179.24 577.019 186.8 562.739 191.42C537.119 199.4 538.379 168.32 560.639 152.36C563.159 151.1 566.099 150.26 568.619 151.52C570.719 152.36 571.979 155.72 571.559 158.66C571.559 159.5 571.559 160.34 571.559 161.18C571.559 161.18 571.979 163.28 573.659 162.86C573.659 162.86 576.599 153.2 577.859 150.68V150.26C578.279 150.26 578.279 150.26 578.279 149.84C578.699 148.58 575.759 148.58 575.339 149.42L573.659 152.78C572.819 151.1 571.979 149.84 570.299 148.58C566.519 146.06 548.039 146.06 535.439 171.26C526.619 188.9 539.639 202.34 563.579 194.78C579.959 189.32 595.919 180.5 609.779 170.42C610.199 170 608.939 167.9 608.099 168.74ZM675.735 167.06C649.695 187.64 599.715 204.02 610.635 179.24C619.875 177.14 627.855 174.62 635.415 168.74C649.695 157.82 638.775 152.78 636.675 152.36C634.575 151.52 632.475 151.52 630.375 151.52C625.755 152.36 621.975 154.04 618.615 155.72C611.895 159.92 606.855 165.8 602.655 172.1C591.315 193.52 606.015 197.3 611.475 197.72C624.495 198.14 647.175 191 677.415 168.74C677.835 168.32 676.155 166.64 675.735 167.06ZM623.655 162.86C626.175 160.76 628.695 159.08 631.215 158.24C636.255 156.56 641.715 157.82 632.475 165.38C629.955 167.9 622.395 172.52 612.735 175.04C616.095 170.84 619.875 166.64 623.655 162.86Z" fill="#A75B41"/>
</svg>
