<svg width="357" height="399" viewBox="0 0 357 399" fill="none" xmlns="http://www.w3.org/2000/svg">
<path opacity="0.05" fill-rule="evenodd" clip-rule="evenodd" d="M0.221345 398.89C-0.927749 398.032 6.94956 387.712 18.1342 367.615C22.645 358.986 26.8268 350.944 30.5533 342.816C32.6594 338.185 34.693 333.486 36.6605 328.062C36.8295 327.473 37.1977 326.189 37.8887 324.498C38.7893 322.196 39.8782 319.973 41.1444 317.852C42.6138 315.36 44.6837 310.376 47.4211 299.636C45.5972 285.024 46.5553 270.213 50.2451 255.982C57.1867 229.708 72.6906 210.819 90.4783 189.151C96.147 182.225 100.82 176.537 107.934 169.278C110.616 166.546 115.633 161.574 126.324 150.771C129.617 147.683 132.64 144.32 135.36 140.719C139.973 134.284 141.979 128.803 143.204 129.318C143.837 129.502 143.656 131.25 143.815 138.75C143.95 144.42 144.07 145.116 144.589 145.38C146.266 146.231 149.178 140.785 157.066 133.774C160.584 130.6 164.542 127.805 172.316 121.991L177.251 118.34C178.234 117.623 179.574 116.621 180.394 115.993C185.881 111.956 191.001 107.447 195.695 102.516V102.516C198.257 99.247 202.743 93.8927 204.598 94.8412C206.453 95.7898 204.898 101.767 203.8 106.235C201.379 116.588 198.018 121.927 198.923 122.6C199.828 123.273 202.636 120.737 213.295 108.535L239.963 86.8445L296.3 55.3229C309.652 45.2233 320.765 32.4796 328.949 17.8845C332.057 12.3635 334.725 6.60609 336.93 0.664969C342.602 8.52039 347.123 17.1399 350.355 26.2615C353.907 35.8076 355.829 45.8742 356.039 56.0402C356.139 70.7208 352.544 85.1735 345.584 98.0724C346.534 98.3481 347.928 98.7524 349.677 99.0321C353.33 99.7729 354.081 99.6262 354.47 100.263C355.218 101.643 352.002 103.924 348.991 108.681C347.606 110.928 346.468 113.318 345.596 115.811C342.935 122.219 337.372 128.537 329.908 136.857C322.028 145.512 314.516 153.362 307.493 160.465L311.128 161.269L314.18 161.95C312.62 165.991 310.666 169.867 308.345 173.523C303.808 180.546 298.054 186.702 291.351 191.706C283.062 198.201 273.656 203.141 263.589 206.286C262.618 207.759 261.613 209.747 262.337 211.211C263.06 212.675 266.116 212.307 267.117 213.601C269.421 216.731 259.716 227.364 259.716 227.364C252.425 235.748 243.905 242.981 234.442 248.821C234.442 248.821 213.995 261.42 192.693 265.2C185.327 266.482 181.671 266.788 181.671 266.788C172.284 267.62 166.318 266.573 165.908 268.164C165.497 269.754 168.936 271.481 170.628 272.519C175.266 275.324 178.041 275.058 178.31 276.116C178.867 278.239 168.882 284.186 150.705 289.67C133.173 294.977 122.93 295.287 100.313 299.187C92.4972 300.521 81.3696 302.558 67.9856 305.604C79.3001 279.803 95.2341 256.295 115.009 236.229C134.751 216.359 154.136 204.432 170.474 194.356C199.497 176.495 203.318 179.519 233.65 161.399C256.422 147.788 276.145 135.799 294.844 114.304C316.088 89.8325 325.874 64.7253 325.075 64.2426C324.276 63.7599 314.997 84.3869 293.635 107.913C274.167 129.139 254.74 141.054 231.79 154.887C200.218 173.9 198.014 170.024 162.209 191.114C136.454 206.276 121.567 215.2 105.309 232.411C92.4209 246.121 81.4224 261.487 72.6018 278.107C71.1475 280.785 64.9257 294.663 52.461 322.412C44.5645 339.975 40.313 349.615 31.9438 362.049C27.2657 369.039 22.1605 375.733 16.657 382.095C10.7861 389.008 1.16844 399.575 0.176178 398.808" fill="white"/>
</svg>
