<svg width="119" height="63" viewBox="0 0 119 63" fill="none" xmlns="http://www.w3.org/2000/svg">
<path d="M15.3228 29.489C10.7968 33.066 2.10982 35.913 4.00782 31.606C5.61382 31.241 7.00082 30.803 8.31482 29.781C10.7968 27.883 8.89882 27.007 8.53382 26.934C8.16882 26.788 7.80382 26.788 7.43882 26.788C6.63582 26.934 5.97882 27.226 5.39482 27.518C4.22682 28.248 3.35082 29.27 2.62082 30.365C0.649816 34.088 3.20482 34.745 4.15382 34.818C6.41682 34.891 10.3588 33.65 15.6148 29.781C15.6878 29.708 15.3958 29.416 15.3228 29.489ZM6.27082 28.759C6.70882 28.394 7.14682 28.102 7.58482 27.956C8.46082 27.664 9.40982 27.883 7.80382 29.197C7.36582 29.635 6.05182 30.438 4.37282 30.876C4.95682 30.146 5.61382 29.416 6.27082 28.759ZM33.1496 30.219C33.2226 30.146 32.9306 29.854 32.8576 29.927C18.0386 44.673 14.2426 40.877 17.0166 29.854C27.7476 16.276 33.1496 8.173 33.8796 3.647C34.0986 2.041 32.2006 0.507999 28.4046 4.669C25.3386 7.954 22.9296 11.823 20.8126 15.838C18.6956 19.853 16.8706 24.087 15.6296 28.467C12.1256 40.95 16.4326 47.739 33.1496 30.219ZM29.0616 5.326C29.9376 4.231 30.8866 3.355 31.3246 3.063C32.1276 2.552 33.2226 2.552 33.0766 3.501C32.2006 8.83 23.3676 20.437 17.3816 28.029C19.8636 18.685 26.3606 8.757 29.0616 5.326ZM44.6939 29.489C40.1679 33.066 31.4809 35.913 33.3789 31.606C34.9849 31.241 36.3719 30.803 37.6859 29.781C40.1679 27.883 38.2699 27.007 37.9049 26.934C37.5399 26.788 37.1749 26.788 36.8099 26.788C36.0069 26.934 35.3499 27.226 34.7659 27.518C33.5979 28.248 32.7219 29.27 31.9919 30.365C30.0209 34.088 32.5759 34.745 33.5249 34.818C35.7879 34.891 39.7299 33.65 44.9859 29.781C45.0589 29.708 44.7669 29.416 44.6939 29.489ZM35.6419 28.759C36.0799 28.394 36.5179 28.102 36.9559 27.956C37.8319 27.664 38.7809 27.883 37.1749 29.197C36.7369 29.635 35.4229 30.438 33.7439 30.876C34.3279 30.146 34.9849 29.416 35.6419 28.759ZM61.4257 29.781C59.1627 30.949 56.4617 32.847 54.3447 34.453C54.5637 33.577 55.4397 29.416 55.4397 28.102C55.3667 27.518 53.9067 25.985 53.4687 26.569C53.0307 27.08 51.6437 28.467 51.6437 28.54C51.2787 28.029 50.8407 27.591 50.1837 27.445C49.5267 27.226 48.7967 27.226 48.1397 27.445C46.8987 27.81 45.8767 28.686 45.0737 29.562C44.1977 30.511 43.3947 31.825 43.1757 33.139C42.9567 34.672 44.8547 34.38 45.4387 34.161C48.8697 32.774 53.8337 27.81 53.8337 27.81C53.8337 27.81 53.8337 28.029 53.8337 28.102C53.7607 29.124 53.4687 30.292 53.2497 31.314C52.8117 33.066 52.3007 34.818 51.7167 36.57C51.0597 37.081 50.4027 37.665 49.7457 38.249C46.3147 41.315 43.7597 43.797 40.9127 47.447C39.5257 49.272 38.1387 51.17 36.8977 53.141C35.7297 55.112 34.4887 57.156 33.9047 59.565C33.8317 60.222 33.6857 60.879 34.0507 61.682C34.2697 62.12 34.6347 62.485 35.0727 62.631C35.5107 62.704 35.8027 62.777 36.1677 62.777C37.5547 62.777 38.7227 62.193 39.7447 61.536C41.7887 60.149 43.3217 58.251 44.6357 56.353C49.0157 50.075 51.8627 42.702 54.0527 35.548C56.3157 33.65 59.0897 31.606 61.5717 30.146C61.6447 30.073 61.4987 29.781 61.4257 29.781ZM46.2417 32.774C45.7307 33.066 45.2197 33.358 44.7817 33.504C44.7087 33.504 44.6357 33.504 44.5627 33.504C44.5627 33.504 44.5627 33.431 44.5627 33.358C44.8547 32.555 45.7307 31.533 46.3147 30.657C47.6287 29.197 49.4537 27.591 51.2787 28.832C49.6727 30.292 48.0667 31.825 46.2417 32.774ZM49.0157 44.308C47.2637 48.542 45.8767 51.681 43.3947 55.477C42.0807 57.302 40.6937 59.127 38.9417 60.368C38.0657 60.952 37.1167 61.39 36.1677 61.39C33.8317 61.317 36.8247 55.696 37.9927 53.798C39.1607 51.827 40.4747 50.002 41.8617 48.177C44.6357 44.527 47.0447 42.045 50.3297 38.833C50.6947 38.541 50.9867 38.249 51.3517 37.884C50.6217 40.074 49.8917 42.191 49.0157 44.308ZM77.6694 29.854C69.6394 34.745 66.8654 34.964 70.0044 27.737C70.0044 27.518 69.4204 27.08 69.2744 26.934C69.0554 26.788 68.6904 26.788 68.5444 27.08C68.3984 27.226 68.2524 27.372 68.1064 27.518C66.3544 26.496 64.0184 27.445 62.4854 28.613C61.6824 29.197 60.9524 29.927 60.2954 30.73C60.0034 31.168 59.7114 31.533 59.4194 32.044C58.6164 34.015 59.6384 34.672 61.0984 34.161C62.1934 33.796 64.2374 32.19 64.9674 31.606C65.9164 30.73 66.8654 29.927 67.8144 29.051C65.3324 34.891 67.8874 36.424 77.8884 30.219C77.9614 30.146 77.8154 29.781 77.6694 29.854ZM64.4564 30.949C63.7264 31.533 62.9964 32.044 62.1934 32.555C61.8284 32.774 61.3904 32.993 61.0254 33.066C60.9524 33.066 60.9524 33.066 60.9524 33.066C60.9524 32.993 61.0254 32.847 61.0984 32.774C61.2444 32.409 61.4634 32.044 61.6824 31.679C62.1934 31.022 62.7774 30.292 63.4344 29.708C64.6024 28.613 66.1354 27.664 67.7414 27.883C66.7194 28.978 65.6244 30 64.4564 30.949ZM94.5107 29.854C86.1157 36.716 86.6267 34.234 85.1667 30.365C84.5827 28.613 82.6847 26.496 77.9397 31.46C78.2317 30.292 79.6917 27.956 80.1297 27.445C80.4947 27.153 79.6187 26.496 78.4507 27.226C77.7937 27.664 76.1147 31.825 76.1147 33.723C76.0417 34.453 76.9907 34.38 76.9907 34.38C81.5897 27.664 82.8307 28.832 83.8527 32.117C85.3127 37.008 87.8677 35.694 94.7297 30.219C94.8757 30.146 94.5837 29.781 94.5107 29.854ZM106.295 29.781C103.813 31.606 100.893 32.92 98.4105 33.723C93.9575 35.11 94.1765 29.708 98.0455 26.934C98.4835 26.715 98.9945 26.569 99.4325 26.788C99.7975 26.934 100.017 27.518 99.9435 28.029C99.9435 28.175 99.9435 28.321 99.9435 28.467C99.9435 28.467 100.017 28.832 100.309 28.759C100.309 28.759 100.82 27.08 101.039 26.642V26.569C101.112 26.569 101.112 26.569 101.112 26.496C101.185 26.277 100.674 26.277 100.601 26.423L100.309 27.007C100.163 26.715 100.017 26.496 99.7245 26.277C99.0675 25.839 95.8555 25.839 93.6655 30.219C92.1325 33.285 94.3955 35.621 98.5565 34.307C101.404 33.358 104.178 31.825 106.587 30.073C106.66 30 106.441 29.635 106.295 29.781ZM118.05 29.489C113.524 33.066 104.837 35.913 106.735 31.606C108.341 31.241 109.728 30.803 111.042 29.781C113.524 27.883 111.626 27.007 111.261 26.934C110.896 26.788 110.531 26.788 110.166 26.788C109.363 26.934 108.706 27.226 108.122 27.518C106.954 28.248 106.078 29.27 105.348 30.365C103.377 34.088 105.932 34.745 106.881 34.818C109.144 34.891 113.086 33.65 118.342 29.781C118.415 29.708 118.123 29.416 118.05 29.489ZM108.998 28.759C109.436 28.394 109.874 28.102 110.312 27.956C111.188 27.664 112.137 27.883 110.531 29.197C110.093 29.635 108.779 30.438 107.1 30.876C107.684 30.146 108.341 29.416 108.998 28.759Z" fill="white"/>
</svg>
