 <svg
                        width="381"
                        height="172"
                        viewBox="0 0 381 172"
                        fill="none"
                        xmlns="http://www.w3.org/2000/svg"
                      >
                        <path
                          d="M98.5945 132.502C79.1945 134.302 36.3945 141.502 26.9945 143.702C24.3945 144.302 21.9945 145.102 19.3945 145.702C25.3945 114.902 74.3945 20.9018 84.5945 10.9018C85.7945 9.90175 80.5945 7.10175 79.5945 8.30176C67.9945 20.7018 19.3945 113.902 14.3945 147.102C13.7945 147.102 13.3945 147.302 12.7945 147.502C10.3945 148.302 7.99453 148.902 5.59453 150.102C4.39453 150.702 2.99453 151.102 1.39453 152.702C0.994531 153.502 0.394531 154.102 0.59453 155.702C0.59453 156.302 0.994531 157.102 1.39453 157.502C1.59453 157.702 1.79453 158.102 2.19453 158.302C3.39453 159.302 3.79453 159.102 4.79453 159.502C6.19453 160.102 7.79453 155.102 7.79453 155.102C9.79453 154.302 11.9945 153.502 14.3945 152.702C18.7945 151.302 23.5945 149.902 28.1945 148.702C37.5945 146.502 79.7945 138.302 98.9945 136.302C99.9945 136.102 99.5945 132.502 98.5945 132.502ZM111.113 100.102C101.513 106.502 89.5133 112.502 87.1133 108.702C86.9133 107.502 87.3133 105.502 87.9133 103.702C89.1133 100.102 90.1133 98.9018 92.1133 95.5018C92.1133 95.3018 92.1133 95.3018 92.3133 95.1018C92.7133 93.9018 90.3133 88.3018 87.3133 93.5018C85.3133 97.1018 84.5133 98.9018 83.5133 103.302C82.3133 107.502 83.3133 111.902 87.7133 112.302C91.9133 112.702 101.713 108.102 111.713 100.902C112.113 100.702 111.513 99.9018 111.113 100.102ZM97.3133 85.1018C97.5133 84.5018 97.1133 81.5018 95.7133 82.9018C94.1133 84.3018 91.3133 85.7018 90.9133 86.5018C90.3133 88.1018 96.9133 87.1018 97.3133 85.1018ZM141.304 86.5018C132.704 84.9018 121.904 99.1018 114.904 109.302C114.704 101.102 115.904 93.9018 117.504 89.9018C117.504 88.3018 113.104 86.7018 112.704 88.1018C111.104 93.3018 109.904 100.702 111.504 117.102C111.504 117.902 113.104 117.502 113.504 116.902C118.104 107.702 133.904 85.1018 141.104 87.5018C141.704 87.1018 142.104 86.7018 141.304 86.5018ZM176.67 98.9018C164.27 108.702 140.47 116.502 145.67 104.702C150.07 103.702 153.87 102.502 157.47 99.7018C164.27 94.5018 159.07 92.1018 158.07 91.9018C157.07 91.5018 156.07 91.5018 155.07 91.5018C152.87 91.9018 151.07 92.7018 149.47 93.5018C146.27 95.5018 143.87 98.3018 141.87 101.302C136.47 111.502 143.47 113.302 146.07 113.502C152.27 113.702 163.07 110.302 177.47 99.7018C177.67 99.5018 176.87 98.7018 176.67 98.9018ZM151.87 96.9018C153.07 95.9018 154.27 95.1018 155.47 94.7018C157.87 93.9018 160.47 94.5018 156.07 98.1018C154.87 99.3018 151.27 101.502 146.67 102.702C148.27 100.702 150.07 98.7018 151.87 96.9018ZM336.146 6.10175C323.346 5.50175 310.546 6.50176 297.746 7.90176C289.146 8.90175 280.346 10.3018 271.746 11.7018C272.946 9.70176 273.946 7.70175 275.146 5.70175C276.146 4.10175 270.346 0.701753 269.346 2.30176C267.346 5.90175 265.546 9.50175 263.546 13.1018C262.346 13.3018 261.146 13.5018 259.946 13.7018C247.346 16.1018 234.946 18.7018 222.546 21.7018C216.346 23.3018 210.146 25.1018 203.946 27.1018C200.946 27.9018 197.746 29.1018 194.746 30.3018C193.146 30.9018 191.746 31.7018 190.146 32.7018C189.346 33.3018 188.346 33.5018 187.346 35.5018C186.746 37.1018 187.746 39.1018 188.546 39.5018C189.346 40.1018 190.546 40.5018 190.546 40.5018C191.946 40.9018 195.546 35.5018 196.746 34.9018C199.546 33.7018 202.546 32.7018 205.546 31.7018C211.346 29.7018 217.546 27.9018 223.546 26.3018C235.946 22.9018 248.346 20.1018 260.746 17.7018C260.946 17.5018 260.946 17.5018 261.146 17.5018C249.746 38.9018 239.746 61.1018 230.746 83.5018C219.746 111.502 210.146 139.902 203.146 169.102C202.946 170.102 206.946 171.102 207.146 170.102C214.546 141.302 224.346 113.102 235.746 85.5018C245.746 61.7018 256.746 38.5018 269.346 15.9018C278.946 14.3018 288.546 12.5018 298.346 11.3018C310.746 9.70176 322.146 8.50175 334.746 8.90175C335.546 8.90175 336.946 6.10175 336.146 6.10175ZM375.938 2.30176C361.138 28.7018 345.538 54.7018 329.538 80.5018C313.338 106.102 297.138 131.902 277.938 154.902C275.538 157.702 272.938 160.502 270.338 162.702C268.938 163.702 267.338 164.902 266.538 164.902C266.138 164.902 266.538 165.102 266.138 164.902C265.938 164.702 265.738 164.102 265.538 163.302C264.338 156.902 265.738 149.102 266.938 141.702C269.538 126.902 273.138 112.302 277.138 97.7018C284.738 68.5018 293.938 39.5018 302.738 10.7018C303.338 9.30176 298.138 7.50175 297.738 8.90175C287.938 37.7018 279.338 66.9018 271.538 96.3018C267.738 110.902 264.138 125.702 261.738 140.902C260.738 148.502 259.138 155.902 260.738 164.502C261.138 165.702 261.538 166.902 262.538 168.102C263.338 169.302 265.938 170.102 267.338 169.702C270.138 169.102 271.738 167.702 273.338 166.302C276.338 163.702 278.938 160.902 281.338 157.902C300.738 134.102 316.338 108.102 332.538 82.3018C348.738 56.7018 364.138 30.5018 379.738 4.50175C379.738 4.50175 379.738 4.50175 379.738 4.30175C380.338 3.30175 376.538 1.30175 375.938 2.30176Z"
                          fill="#A75B41"
                        />
                      </svg>