<svg width="91" height="38" viewBox="0 0 91 38" fill="none" xmlns="http://www.w3.org/2000/svg">
<path d="M18.1921 16.865C18.1921 16.775 14.8171 19.07 12.8821 20.51C13.1521 19.61 13.7821 16.865 13.7821 16.865C14.0971 15.38 14.1421 15.02 13.1521 15.02C11.4421 17.18 8.15705 19.7 8.02205 18.665C8.20205 17.675 8.78705 16.775 9.10205 15.875H9.14705C9.23705 15.65 8.33705 15.2 8.24705 15.47C7.61705 16.685 6.58205 18.935 7.70705 19.52C9.05705 20.15 13.1071 16.055 13.1071 16.055C13.0621 16.235 11.6221 21.185 11.5321 21.5C6.62705 25.1 1.72205 30.725 1.13705 34.415C0.687051 37.205 3.47705 36.935 4.78205 36.035C5.72705 35.405 6.53705 34.595 7.21205 33.695C8.51705 31.85 9.46205 29.825 10.3171 27.845C11.1271 25.865 12.0721 23.345 12.6571 21.32C14.5021 19.655 18.2821 17.09 18.2821 17.09C18.2821 17.09 18.2371 16.91 18.1921 16.865ZM9.37205 27.44C8.56205 29.42 7.57205 31.355 6.40205 33.11C5.81705 33.965 5.45705 34.55 4.64705 35.135C2.71205 36.665 1.13705 36.035 2.30705 33.11C3.25205 30.635 6.58205 26.09 11.2621 22.355C10.7221 23.885 9.95705 25.91 9.37205 27.44ZM24.9684 16.955C23.8884 17.765 22.8534 18.17 21.5484 17.945C21.5484 17.945 22.1784 16.91 21.5484 16.28C22.0434 14.435 18.3534 14.975 17.4984 17C16.3284 19.745 19.4334 20.465 21.3684 18.26C22.8984 18.485 23.7534 18.08 25.1484 17.09C25.1934 17.045 25.1034 16.865 24.9684 16.955ZM18.2184 17.945C18.3534 17 19.3884 16.01 20.1984 15.695C20.5584 15.56 21.5034 15.47 21.2334 16.28C20.3784 16.415 20.1534 17.45 20.9184 18.035C20.1984 19.115 18.0384 19.88 18.2184 17.945ZM21.0984 17.72C20.6034 17.45 20.8284 16.415 21.4134 16.595C21.5934 16.64 21.4134 17.315 21.0984 17.72ZM33.6636 16.865C29.7936 19.79 28.5336 19.52 29.0736 17.945C29.2536 17.27 29.7036 16.19 29.9286 15.47C29.9736 15.335 29.5686 14.885 29.2536 15.065C28.0836 17.135 27.0936 18.035 25.5636 18.89C24.4836 19.52 25.5636 17.09 26.4186 15.965C26.4186 15.965 25.9236 15.2 25.6086 15.425C25.1586 15.785 24.1236 17.945 24.0786 18.53C23.8986 20.69 26.7786 19.025 28.1736 17.54C27.0936 20.51 30.0636 20.24 33.8436 17.045C33.8886 17 33.7536 16.82 33.6636 16.865ZM42.1996 16.91C38.5996 19.25 35.5396 20.105 36.6646 18.215C37.3846 17.045 37.1596 16.55 34.9996 16.1C35.0896 15.965 36.2146 14.75 35.8546 13.985C35.7646 13.76 35.4946 13.67 35.1796 13.76C34.5496 13.94 33.9196 14.705 33.6946 15.11C33.6496 15.245 33.4696 15.65 33.5146 15.965C33.6046 16.37 34.0096 16.46 34.2346 16.505C34.2796 16.595 34.3696 16.64 34.4596 16.64C34.5946 16.595 34.5946 16.55 34.6846 16.505C36.3046 16.775 36.1696 17.225 35.9446 17.675C35.5846 18.35 35.3596 18.845 35.4046 19.205C35.6296 21.23 40.8046 18.08 42.2896 17.09H42.3346C42.3796 17.045 42.2446 16.865 42.1996 16.91ZM34.3696 16.01C33.7846 16.01 35.1796 14.165 35.4496 14.345C35.7646 14.48 34.9096 15.695 34.3696 16.01ZM55.3993 16.955C53.2393 18.395 50.5393 19.745 49.9993 18.89C49.9543 18.62 50.0443 18.17 50.1793 17.765C50.4493 16.955 50.6743 16.685 51.1243 15.92C51.1243 15.875 51.1243 15.875 51.1693 15.83C51.2593 15.56 50.7193 14.3 50.0443 15.47C49.5943 16.28 49.4143 16.685 49.1893 17.675C48.9193 18.62 49.1443 19.61 50.1343 19.7C51.0793 19.79 53.2843 18.755 55.5343 17.135C55.6243 17.09 55.4893 16.91 55.3993 16.955ZM52.2943 13.58C52.3393 13.445 52.2493 12.77 51.9343 13.085C51.5743 13.4 50.9443 13.715 50.8543 13.895C50.7193 14.255 52.2043 14.03 52.2943 13.58ZM70.4617 5.75C67.8067 5.975 65.1967 6.335 62.5867 6.83H62.5417C63.0817 6.065 63.5767 5.21 64.1617 4.445C64.5667 3.86 64.9717 3.23 65.2867 2.555C65.4667 2.24 65.6017 1.925 65.7367 1.565C65.7817 1.34 65.8717 1.16 65.8717 0.934999C65.8717 0.844999 65.8717 0.709999 65.8267 0.529999C65.7817 0.304999 65.3767 0.169999 65.2417 0.26C64.7017 0.484999 64.5217 0.754999 64.2517 1.025C64.0267 1.34 63.8017 1.61 63.5767 1.925C63.1717 2.51 62.7667 3.14 62.4067 3.725C61.7317 4.895 61.1017 6.11 60.4717 7.28C59.8867 7.37 59.3017 7.505 58.7167 7.64C57.4117 7.955 56.1517 8.18 54.8467 8.9C54.7117 8.945 55.0267 9.485 55.1617 9.395L55.2067 9.35C56.2417 8.81 57.5917 8.495 58.8517 8.135C59.2567 8.045 59.7067 7.955 60.1567 7.82C56.4667 14.255 51.8317 23.3 54.0367 26.405C54.3967 26.9 54.9817 26.765 55.3867 26.675C58.3567 26 65.3767 19.43 67.0867 17.135C67.1317 17.045 66.9067 16.91 66.8617 16.955C61.4617 23.075 55.2517 27.215 54.5767 25.82C53.6767 23.66 56.1967 17.855 58.4017 13.445C59.4817 11.6 60.6067 9.8 61.7767 8C61.8667 7.775 62.0467 7.595 62.1817 7.37C62.3167 7.325 62.4967 7.28 62.6767 7.28C65.2417 6.785 67.8517 6.38 70.4617 6.155C70.5967 6.11 70.6867 6.02 70.6867 5.93C70.6417 5.84 70.5517 5.75 70.4617 5.75ZM61.3267 7.685C61.0117 8.135 60.7417 8.63 60.4717 9.08C60.6517 8.675 60.8317 8.27 61.0117 7.865C61.0567 7.775 61.1017 7.685 61.1467 7.595C61.2367 7.595 61.3267 7.55 61.4167 7.55C61.3717 7.595 61.3267 7.64 61.3267 7.685ZM61.7767 7.01C61.6867 7.01 61.5517 7.055 61.4617 7.055C61.9567 6.065 62.4517 5.03 62.9917 4.085C63.3517 3.455 63.7117 2.87 64.1167 2.285C64.2967 1.97 64.5217 1.7 64.7467 1.43C64.8817 1.25 65.1067 1.07 65.2417 0.934999C65.2417 1.07 65.1967 1.205 65.1517 1.34C65.0617 1.655 64.9267 2.015 64.7467 2.285C64.4317 2.915 64.0717 3.545 63.6667 4.13C63.0367 5.075 62.4067 6.02 61.7767 7.01ZM74.2364 16.685C71.4464 18.89 66.0914 20.645 67.2614 17.99C68.2514 17.765 69.1064 17.495 69.9164 16.865C71.4464 15.695 70.2764 15.155 70.0514 15.11C69.8264 15.02 69.6014 15.02 69.3764 15.02C68.8814 15.11 68.4764 15.29 68.1164 15.47C67.3964 15.92 66.8564 16.55 66.4064 17.225C65.1914 19.52 66.7664 19.925 67.3514 19.97C68.7464 20.015 71.1764 19.25 74.4164 16.865C74.4614 16.82 74.2814 16.64 74.2364 16.685ZM68.6564 16.235C68.9264 16.01 69.1964 15.83 69.4664 15.74C70.0064 15.56 70.5914 15.695 69.6014 16.505C69.3314 16.775 68.5214 17.27 67.4864 17.54C67.8464 17.09 68.2514 16.64 68.6564 16.235ZM89.8605 16.91C84.8205 20.825 84.7305 19.7 84.1905 17.405C83.9655 16.28 82.6155 15.38 80.2305 17.54C81.3105 14.84 80.2755 14.255 79.4655 14.525C78.1155 14.93 75.8205 17.18 74.8305 18.17C74.4705 17.945 75.7755 15.83 76.1355 14.975C76.2705 14.795 75.6405 14.3 75.1005 14.885C74.0655 15.875 73.2555 18.89 73.4355 19.34C73.6155 19.835 74.1105 19.7 74.1105 19.7C75.1005 18.44 76.9455 16.64 78.6555 15.605C80.0055 14.795 80.0955 15.29 78.7905 18.575C78.6555 18.98 79.5555 19.025 79.5555 19.025C81.9855 15.875 83.0205 16.55 83.2455 17.9C83.8305 21.05 85.8105 20.51 90.0405 17.09C90.0855 17.045 89.9505 16.865 89.8605 16.91Z" fill="white"/>
</svg>
