<svg width="139" height="40" viewBox="0 0 139 40" fill="none" xmlns="http://www.w3.org/2000/svg">
<path d="M13.4077 19.135C13.4527 19.09 13.2727 18.91 13.2277 18.955C4.09266 28.045 1.75266 25.705 3.46266 18.91C10.0777 10.54 13.4077 5.545 13.8577 2.755C13.9927 1.765 12.8227 0.819999 10.4827 3.385C8.59266 5.41 7.10766 7.795 5.80266 10.27C4.49766 12.745 3.37266 15.355 2.60766 18.055C0.447656 25.75 3.10266 29.935 13.4077 19.135ZM10.8877 3.79C11.4277 3.115 12.0127 2.575 12.2827 2.395C12.7777 2.08 13.4527 2.08 13.3627 2.665C12.8227 5.95 7.37766 13.105 3.68766 17.785C5.21766 12.025 9.22266 5.905 10.8877 3.79ZM21.919 18.865C18.049 21.79 16.789 21.52 17.329 19.945C17.509 19.27 17.959 18.19 18.184 17.47C18.229 17.335 17.824 16.885 17.509 17.065C16.339 19.135 15.349 20.035 13.819 20.89C12.739 21.52 13.819 19.09 14.674 17.965C14.674 17.965 14.179 17.2 13.864 17.425C13.414 17.785 12.379 19.945 12.334 20.53C12.154 22.69 15.034 21.025 16.429 19.54C15.349 22.51 18.319 22.24 22.099 19.045C22.144 19 22.009 18.82 21.919 18.865ZM32.0749 18.91C27.6649 21.88 25.9549 23.275 24.1099 19.045C24.7399 18.505 25.2799 18.055 25.9549 17.65C27.2599 16.795 28.3399 16.795 28.3399 16.795C28.4749 16.795 28.4749 16.255 28.3399 16.255C27.2599 16.255 26.4499 16.75 25.6849 17.245C25.0099 17.695 24.5149 18.145 23.9299 18.64C23.7049 18.145 23.3899 17.29 23.1649 16.885C22.8499 16.3 22.1749 17.335 22.3099 17.56C22.5799 18.145 22.8949 18.595 23.1199 19.27C21.9049 20.44 20.8249 21.61 19.7449 22.87C19.6999 22.915 19.6999 23.05 19.7899 23.095C19.8349 23.14 19.9249 23.14 19.9699 23.05C21.0499 21.88 22.0849 20.755 23.2999 19.675C25.5049 24.85 29.0149 21.295 32.1649 19.09C32.2099 19.045 32.1199 18.865 32.0749 18.91ZM40.7276 18.865C36.8576 21.79 35.5976 21.52 36.1376 19.945C36.3176 19.27 36.7676 18.19 36.9926 17.47C37.0376 17.335 36.6326 16.885 36.3176 17.065C35.1476 19.135 34.1576 20.035 32.6276 20.89C31.5476 21.52 32.6276 19.09 33.4826 17.965C33.4826 17.965 32.9876 17.2 32.6726 17.425C32.2226 17.785 31.1876 19.945 31.1426 20.53C30.9626 22.69 33.8426 21.025 35.2376 19.54C34.1576 22.51 37.1276 22.24 40.9076 19.045C40.9526 19 40.8176 18.82 40.7276 18.865ZM49.2635 18.91C45.6635 21.25 42.6035 22.105 43.7285 20.215C44.4485 19.045 44.2235 18.55 42.0635 18.1C42.1535 17.965 43.2785 16.75 42.9185 15.985C42.8285 15.76 42.5585 15.67 42.2435 15.76C41.6135 15.94 40.9835 16.705 40.7585 17.11C40.7135 17.245 40.5335 17.65 40.5785 17.965C40.6685 18.37 41.0735 18.46 41.2985 18.505C41.3435 18.595 41.4335 18.64 41.5235 18.64C41.6585 18.595 41.6585 18.55 41.7485 18.505C43.3685 18.775 43.2335 19.225 43.0085 19.675C42.6485 20.35 42.4235 20.845 42.4685 21.205C42.6935 23.23 47.8685 20.08 49.3535 19.09H49.3985C49.4435 19.045 49.3085 18.865 49.2635 18.91ZM41.4335 18.01C40.8485 18.01 42.2435 16.165 42.5135 16.345C42.8285 16.48 41.9735 17.695 41.4335 18.01ZM59.6652 18.865C59.6652 18.775 56.2902 21.07 54.3552 22.51C54.6252 21.61 55.2552 18.865 55.2552 18.865C55.5702 17.38 55.6152 17.02 54.6252 17.02C52.9152 19.18 49.6302 21.7 49.4952 20.665C49.6752 19.675 50.2602 18.775 50.5752 17.875H50.6202C50.7102 17.65 49.8102 17.2 49.7202 17.47C49.0902 18.685 48.0552 20.935 49.1802 21.52C50.5302 22.15 54.5802 18.055 54.5802 18.055C54.5352 18.235 53.0952 23.185 53.0052 23.5C48.1002 27.1 43.1952 32.725 42.6102 36.415C42.1602 39.205 44.9502 38.935 46.2552 38.035C47.2002 37.405 48.0102 36.595 48.6852 35.695C49.9902 33.85 50.9352 31.825 51.7902 29.845C52.6002 27.865 53.5452 25.345 54.1302 23.32C55.9752 21.655 59.7552 19.09 59.7552 19.09C59.7552 19.09 59.7102 18.91 59.6652 18.865ZM50.8452 29.44C50.0352 31.42 49.0452 33.355 47.8752 35.11C47.2902 35.965 46.9302 36.55 46.1202 37.135C44.1852 38.665 42.6102 38.035 43.7802 35.11C44.7252 32.635 48.0552 28.09 52.7352 24.355C52.1952 25.885 51.4302 27.91 50.8452 29.44ZM75.9896 18.91C74.6396 19.18 73.1996 19.54 71.9396 19.945C72.6596 18.91 72.0746 16.57 69.7346 17.02C69.0596 17.155 68.4746 17.56 67.9796 17.875C68.3396 17.065 68.6996 16.255 69.1046 15.445C69.1496 15.31 68.8796 14.635 68.5646 15.175C67.7996 16.435 67.1246 17.785 66.4946 19.09C66.1796 19.36 65.9096 19.63 65.6396 19.945C65.5946 20.035 65.5946 20.08 65.6396 20.125C65.7296 20.17 65.7746 20.17 65.8196 20.125C65.9096 20.035 65.9996 19.99 66.0896 19.9C64.9196 22.33 61.4996 31.915 60.6446 36.325C60.6446 36.46 61.1846 36.73 61.2296 36.595C62.3546 32.32 65.2796 23.59 67.6646 18.64C69.7346 16.66 72.5246 17.56 70.4546 20.44C70.1396 20.575 69.8696 20.665 69.5996 20.8C69.0596 21.025 68.5646 21.25 68.0696 21.565C67.8446 21.745 67.6196 21.925 67.4396 22.15C67.2146 22.33 66.9896 22.555 66.9446 22.96C66.9446 23.23 67.3046 23.32 67.3946 23.32C68.5646 23.23 70.4996 21.97 71.7146 20.35C73.1096 19.855 74.5496 19.45 75.9896 19.09C76.0346 19.045 76.0346 18.91 75.9896 18.91ZM69.6446 21.43C69.2846 21.835 68.8796 22.195 68.4296 22.51C68.2046 22.645 67.9796 22.78 67.7546 22.915C67.5296 23.005 66.5846 23.185 68.3396 21.925C68.7896 21.655 69.5546 21.205 69.9596 21.07C69.8696 21.16 69.7796 21.295 69.6446 21.43ZM84.5955 18.91C80.9955 21.25 77.9355 22.105 79.0605 20.215C79.7805 19.045 79.5555 18.55 77.3955 18.1C77.4855 17.965 78.6105 16.75 78.2505 15.985C78.1605 15.76 77.8905 15.67 77.5755 15.76C76.9455 15.94 76.3155 16.705 76.0905 17.11C76.0455 17.245 75.8655 17.65 75.9105 17.965C76.0005 18.37 76.4055 18.46 76.6305 18.505C76.6755 18.595 76.7655 18.64 76.8555 18.64C76.9905 18.595 76.9905 18.55 77.0805 18.505C78.7005 18.775 78.5655 19.225 78.3405 19.675C77.9805 20.35 77.7555 20.845 77.8005 21.205C78.0255 23.23 83.2005 20.08 84.6855 19.09H84.7305C84.7755 19.045 84.6405 18.865 84.5955 18.91ZM76.7655 18.01C76.1805 18.01 77.5755 16.165 77.8455 16.345C78.1605 16.48 77.3055 17.695 76.7655 18.01ZM91.6222 18.955C90.5422 19.765 89.5072 20.17 88.2022 19.945C88.2022 19.945 88.8322 18.91 88.2022 18.28C88.6972 16.435 85.0072 16.975 84.1522 19C82.9822 21.745 86.0872 22.465 88.0222 20.26C89.5522 20.485 90.4072 20.08 91.8022 19.09C91.8472 19.045 91.7572 18.865 91.6222 18.955ZM84.8722 19.945C85.0072 19 86.0422 18.01 86.8522 17.695C87.2122 17.56 88.1572 17.47 87.8872 18.28C87.0322 18.415 86.8072 19.45 87.5722 20.035C86.8522 21.115 84.6922 21.88 84.8722 19.945ZM87.7522 19.72C87.2572 19.45 87.4822 18.415 88.0672 18.595C88.2472 18.64 88.0672 19.315 87.7522 19.72ZM106.752 2.395C106.752 2.305 106.662 2.125 106.527 2.035C106.437 1.99 106.347 1.9 106.212 1.855C105.672 1.675 105.267 1.945 104.997 2.17C104.682 2.395 104.457 2.62 104.232 2.89C103.782 3.385 103.377 3.97 103.062 4.51C101.667 6.76 100.542 9.145 99.5974 11.53C98.9674 13.15 98.3824 14.77 97.7974 16.39C97.4374 16.84 97.1224 17.245 96.7624 17.65C96.3574 17.2 95.7724 16.93 95.1424 16.93C94.3774 16.93 93.6574 17.245 93.1174 17.605C91.9474 18.37 90.8674 19.36 90.4624 20.845C90.3724 21.25 90.2824 21.79 90.7324 22.285C91.2724 22.69 92.5324 22.69 93.9274 21.475C95.4124 20.125 96.5824 19 97.1674 18.19C97.0774 18.415 93.7924 32.95 105.087 19.045C105.087 19 104.997 18.955 104.907 18.91C94.0174 31.96 98.5624 17.02 98.9674 15.94C99.8674 14.815 100.722 13.645 101.532 12.475C103.062 10.36 104.502 8.155 105.672 5.86C105.987 5.275 106.257 4.645 106.482 4.015C106.617 3.745 106.707 3.385 106.797 3.025C106.797 2.845 106.842 2.665 106.752 2.395ZM96.3124 18.235C95.4124 19.18 93.8374 21.025 92.0374 21.655C91.7674 21.745 91.2274 22.015 91.4974 21.115C91.7674 20.125 92.6674 19.09 93.6124 18.415C94.4674 17.74 95.8624 17.02 96.4474 18.01C96.4024 18.1 96.3574 18.145 96.3124 18.235ZM105.897 3.835C105.672 4.42 105.402 5.005 105.087 5.545C103.602 8.38 101.847 11.08 99.9124 13.645C100.137 13.105 100.362 12.52 100.587 11.98C101.667 9.595 102.612 7.21 103.827 5.005C104.142 4.42 104.457 3.88 104.862 3.385C105.177 2.935 105.762 2.44 105.987 2.53C106.257 2.44 106.122 3.295 105.897 3.835ZM113.589 18.865C109.719 21.79 108.459 21.52 108.999 19.945C109.179 19.27 109.629 18.19 109.854 17.47C109.899 17.335 109.494 16.885 109.179 17.065C108.009 19.135 107.019 20.035 105.489 20.89C104.409 21.52 105.489 19.09 106.344 17.965C106.344 17.965 105.849 17.2 105.534 17.425C105.084 17.785 104.049 19.945 104.004 20.53C103.824 22.69 106.704 21.025 108.099 19.54C107.019 22.51 109.989 22.24 113.769 19.045C113.814 19 113.679 18.82 113.589 18.865ZM120.899 18.865C119.369 19.99 117.569 20.8 116.039 21.295C113.294 22.15 113.429 18.82 115.814 17.11C116.084 16.975 116.399 16.885 116.669 17.02C116.894 17.11 117.029 17.47 116.984 17.785C116.984 17.875 116.984 17.965 116.984 18.055C116.984 18.055 117.029 18.28 117.209 18.235C117.209 18.235 117.524 17.2 117.659 16.93V16.885C117.704 16.885 117.704 16.885 117.704 16.84C117.749 16.705 117.434 16.705 117.389 16.795L117.209 17.155C117.119 16.975 117.029 16.84 116.849 16.705C116.444 16.435 114.464 16.435 113.114 19.135C112.169 21.025 113.564 22.465 116.129 21.655C117.884 21.07 119.594 20.125 121.079 19.045C121.124 19 120.989 18.775 120.899 18.865ZM135.841 7.75C133.186 7.975 130.576 8.335 127.966 8.83H127.921C128.461 8.065 128.956 7.21 129.541 6.445C129.946 5.86 130.351 5.23 130.666 4.555C130.846 4.24 130.981 3.925 131.116 3.565C131.161 3.34 131.251 3.16 131.251 2.935C131.251 2.845 131.251 2.71 131.206 2.53C131.161 2.305 130.756 2.17 130.621 2.26C130.081 2.485 129.901 2.755 129.631 3.025C129.406 3.34 129.181 3.61 128.956 3.925C128.551 4.51 128.146 5.14 127.786 5.725C127.111 6.895 126.481 8.11 125.851 9.28C125.266 9.37 124.681 9.505 124.096 9.64C122.791 9.955 121.531 10.18 120.226 10.9C120.091 10.945 120.406 11.485 120.541 11.395L120.586 11.35C121.621 10.81 122.971 10.495 124.231 10.135C124.636 10.045 125.086 9.955 125.536 9.82C121.846 16.255 117.211 25.3 119.416 28.405C119.776 28.9 120.361 28.765 120.766 28.675C123.736 28 130.756 21.43 132.466 19.135C132.511 19.045 132.286 18.91 132.241 18.955C126.841 25.075 120.631 29.215 119.956 27.82C119.056 25.66 121.576 19.855 123.781 15.445C124.861 13.6 125.986 11.8 127.156 10C127.246 9.775 127.426 9.595 127.561 9.37C127.696 9.325 127.876 9.28 128.056 9.28C130.621 8.785 133.231 8.38 135.841 8.155C135.976 8.11 136.066 8.02 136.066 7.93C136.021 7.84 135.931 7.75 135.841 7.75ZM126.706 9.685C126.391 10.135 126.121 10.63 125.851 11.08C126.031 10.675 126.211 10.27 126.391 9.865C126.436 9.775 126.481 9.685 126.526 9.595C126.616 9.595 126.706 9.55 126.796 9.55C126.751 9.595 126.706 9.64 126.706 9.685ZM127.156 9.01C127.066 9.01 126.931 9.055 126.841 9.055C127.336 8.065 127.831 7.03 128.371 6.085C128.731 5.455 129.091 4.87 129.496 4.285C129.676 3.97 129.901 3.7 130.126 3.43C130.261 3.25 130.486 3.07 130.621 2.935C130.621 3.07 130.576 3.205 130.531 3.34C130.441 3.655 130.306 4.015 130.126 4.285C129.811 4.915 129.451 5.545 129.046 6.13C128.416 7.075 127.786 8.02 127.156 9.01ZM138.321 18.91C136.611 19.54 134.901 20.26 133.281 21.16V21.115C133.326 20.53 133.326 19.9 133.326 19.315C133.371 18.595 133.371 17.875 133.461 17.2C134.271 16.75 134.991 16.165 135.441 15.355C135.891 14.59 135.801 13.645 134.496 14.23C133.686 14.59 132.561 15.625 132.426 17.38C132.381 17.38 132.336 17.425 132.291 17.425C132.246 17.47 132.201 17.515 132.201 17.605C132.246 17.65 132.291 17.695 132.381 17.695C132.381 17.65 132.381 17.65 132.381 17.65C132.291 18.19 132.201 20.98 132.201 21.79C131.931 21.97 131.661 22.15 131.436 22.33C130.896 22.69 130.401 23.095 129.996 23.635C129.816 23.905 129.636 24.22 129.636 24.625C129.591 24.985 129.816 25.39 130.221 25.57C131.031 25.885 131.841 25.435 132.336 24.895C132.786 24.355 133.011 23.68 133.191 23.05C133.281 22.51 133.281 22.015 133.281 21.52C134.946 20.575 136.656 19.81 138.411 19.09C138.456 19.045 138.411 18.865 138.321 18.91ZM133.776 15.85C134.046 14.995 135.981 13.465 135.171 15.22C134.811 15.94 134.226 16.525 133.506 16.93C133.551 16.57 133.641 16.21 133.776 15.85ZM132.201 22.915C132.111 23.455 131.976 24.04 131.706 24.445C131.436 24.895 130.896 25.255 130.446 25.12C129.996 24.985 129.996 24.31 130.311 23.815C130.626 23.32 131.076 22.915 131.616 22.555C131.796 22.42 132.021 22.285 132.201 22.195C132.201 22.42 132.201 22.69 132.201 22.915Z" fill="white"/>
</svg>
