<svg width="138" height="36" viewBox="0 0 138 36" fill="none" xmlns="http://www.w3.org/2000/svg">
<path d="M15.8783 17.91C14.5283 18.18 13.0883 18.54 11.8283 18.945C12.5483 17.91 11.9633 15.57 9.62332 16.02C8.94832 16.155 8.36332 16.56 7.86832 16.875C8.22832 16.065 8.58832 15.255 8.99332 14.445C9.03832 14.31 8.76832 13.635 8.45332 14.175C7.68832 15.435 7.01332 16.785 6.38332 18.09C6.06832 18.36 5.79832 18.63 5.52832 18.945C5.48332 19.035 5.48332 19.08 5.52832 19.125C5.61832 19.17 5.66332 19.17 5.70832 19.125C5.79832 19.035 5.88832 18.99 5.97832 18.9C4.80832 21.33 1.38832 30.915 0.53332 35.325C0.53332 35.46 1.07332 35.73 1.11832 35.595C2.24332 31.32 5.16832 22.59 7.55332 17.64C9.62332 15.66 12.4133 16.56 10.3433 19.44C10.0283 19.575 9.75832 19.665 9.48832 19.8C8.94832 20.025 8.45332 20.25 7.95832 20.565C7.73332 20.745 7.50832 20.925 7.32832 21.15C7.10332 21.33 6.87832 21.555 6.83332 21.96C6.83332 22.23 7.19332 22.32 7.28332 22.32C8.45332 22.23 10.3883 20.97 11.6033 19.35C12.9983 18.855 14.4383 18.45 15.8783 18.09C15.9233 18.045 15.9233 17.91 15.8783 17.91ZM9.53332 20.43C9.17332 20.835 8.76832 21.195 8.31832 21.51C8.09332 21.645 7.86832 21.78 7.64332 21.915C7.41832 22.005 6.47332 22.185 8.22832 20.925C8.67832 20.655 9.44332 20.205 9.84832 20.07C9.75832 20.16 9.66832 20.295 9.53332 20.43ZM24.4842 17.91C20.8842 20.25 17.8242 21.105 18.9492 19.215C19.6692 18.045 19.4442 17.55 17.2842 17.1C17.3742 16.965 18.4992 15.75 18.1392 14.985C18.0492 14.76 17.7792 14.67 17.4642 14.76C16.8342 14.94 16.2042 15.705 15.9792 16.11C15.9342 16.245 15.7542 16.65 15.7992 16.965C15.8892 17.37 16.2942 17.46 16.5192 17.505C16.5642 17.595 16.6542 17.64 16.7442 17.64C16.8792 17.595 16.8792 17.55 16.9692 17.505C18.5892 17.775 18.4542 18.225 18.2292 18.675C17.8692 19.35 17.6442 19.845 17.6892 20.205C17.9142 22.23 23.0892 19.08 24.5742 18.09H24.6192C24.6642 18.045 24.5292 17.865 24.4842 17.91ZM16.6542 17.01C16.0692 17.01 17.4642 15.165 17.7342 15.345C18.0492 15.48 17.1942 16.695 16.6542 17.01ZM31.5109 17.955C30.4309 18.765 29.3959 19.17 28.0909 18.945C28.0909 18.945 28.7209 17.91 28.0909 17.28C28.5859 15.435 24.8959 15.975 24.0409 18C22.8709 20.745 25.9759 21.465 27.9109 19.26C29.4409 19.485 30.2959 19.08 31.6909 18.09C31.7359 18.045 31.6459 17.865 31.5109 17.955ZM24.7609 18.945C24.8959 18 25.9309 17.01 26.7409 16.695C27.1009 16.56 28.0459 16.47 27.7759 17.28C26.9209 17.415 26.6959 18.45 27.4609 19.035C26.7409 20.115 24.5809 20.88 24.7609 18.945ZM27.6409 18.72C27.1459 18.45 27.3709 17.415 27.9559 17.595C28.1359 17.64 27.9559 18.315 27.6409 18.72ZM46.6411 1.395C46.6411 1.305 46.5511 1.125 46.4161 1.035C46.3261 0.989999 46.2361 0.899999 46.1011 0.854999C45.5611 0.674999 45.1561 0.945 44.8861 1.17C44.5711 1.395 44.3461 1.62 44.1211 1.89C43.6711 2.385 43.2661 2.97 42.9511 3.51C41.5561 5.76 40.4311 8.145 39.4861 10.53C38.8561 12.15 38.2711 13.77 37.6861 15.39C37.3261 15.84 37.0111 16.245 36.6511 16.65C36.2461 16.2 35.6611 15.93 35.0311 15.93C34.2661 15.93 33.5461 16.245 33.0061 16.605C31.8361 17.37 30.7561 18.36 30.3511 19.845C30.2611 20.25 30.1711 20.79 30.6211 21.285C31.1611 21.69 32.4211 21.69 33.8161 20.475C35.3011 19.125 36.4711 18 37.0561 17.19C36.9661 17.415 33.6811 31.95 44.9761 18.045C44.9761 18 44.8861 17.955 44.7961 17.91C33.9061 30.96 38.4511 16.02 38.8561 14.94C39.7561 13.815 40.6111 12.645 41.4211 11.475C42.9511 9.36 44.3911 7.155 45.5611 4.86C45.8761 4.275 46.1461 3.645 46.3711 3.015C46.5061 2.745 46.5961 2.385 46.6861 2.025C46.6861 1.845 46.7311 1.665 46.6411 1.395ZM36.2011 17.235C35.3011 18.18 33.7261 20.025 31.9261 20.655C31.6561 20.745 31.1161 21.015 31.3861 20.115C31.6561 19.125 32.5561 18.09 33.5011 17.415C34.3561 16.74 35.7511 16.02 36.3361 17.01C36.2911 17.1 36.2461 17.145 36.2011 17.235ZM45.7861 2.835C45.5611 3.42 45.2911 4.005 44.9761 4.545C43.4911 7.38 41.7361 10.08 39.8011 12.645C40.0261 12.105 40.2511 11.52 40.4761 10.98C41.5561 8.595 42.5011 6.21 43.7161 4.005C44.0311 3.42 44.3461 2.88 44.7511 2.385C45.0661 1.935 45.6511 1.44 45.8761 1.53C46.1461 1.44 46.0111 2.295 45.7861 2.835ZM53.4776 17.865C49.6076 20.79 48.3476 20.52 48.8876 18.945C49.0676 18.27 49.5176 17.19 49.7426 16.47C49.7876 16.335 49.3826 15.885 49.0676 16.065C47.8976 18.135 46.9076 19.035 45.3776 19.89C44.2976 20.52 45.3776 18.09 46.2326 16.965C46.2326 16.965 45.7376 16.2 45.4226 16.425C44.9726 16.785 43.9376 18.945 43.8926 19.53C43.7126 21.69 46.5926 20.025 47.9876 18.54C46.9076 21.51 49.8776 21.24 53.6576 18.045C53.7026 18 53.5676 17.82 53.4776 17.865ZM60.788 17.865C59.258 18.99 57.458 19.8 55.928 20.295C53.183 21.15 53.318 17.82 55.703 16.11C55.973 15.975 56.288 15.885 56.558 16.02C56.783 16.11 56.918 16.47 56.873 16.785C56.873 16.875 56.873 16.965 56.873 17.055C56.873 17.055 56.918 17.28 57.098 17.235C57.098 17.235 57.413 16.2 57.548 15.93V15.885C57.593 15.885 57.593 15.885 57.593 15.84C57.638 15.705 57.323 15.705 57.278 15.795L57.098 16.155C57.008 15.975 56.918 15.84 56.738 15.705C56.333 15.435 54.353 15.435 53.003 18.135C52.058 20.025 53.453 21.465 56.018 20.655C57.773 20.07 59.483 19.125 60.968 18.045C61.013 18 60.878 17.775 60.788 17.865ZM75.7297 6.75C73.0747 6.975 70.4647 7.335 67.8547 7.83H67.8097C68.3497 7.065 68.8447 6.21 69.4297 5.445C69.8347 4.86 70.2397 4.23 70.5547 3.555C70.7347 3.24 70.8697 2.925 71.0047 2.565C71.0497 2.34 71.1397 2.16 71.1397 1.935C71.1397 1.845 71.1397 1.71 71.0947 1.53C71.0497 1.305 70.6447 1.17 70.5097 1.26C69.9697 1.485 69.7897 1.755 69.5197 2.025C69.2947 2.34 69.0697 2.61 68.8447 2.925C68.4397 3.51 68.0347 4.14 67.6747 4.725C66.9997 5.895 66.3697 7.11 65.7397 8.28C65.1547 8.37 64.5697 8.505 63.9847 8.64C62.6797 8.955 61.4197 9.18 60.1147 9.9C59.9797 9.945 60.2947 10.485 60.4297 10.395L60.4747 10.35C61.5097 9.81 62.8597 9.495 64.1197 9.135C64.5247 9.045 64.9747 8.955 65.4247 8.82C61.7347 15.255 57.0997 24.3 59.3047 27.405C59.6647 27.9 60.2497 27.765 60.6547 27.675C63.6247 27 70.6447 20.43 72.3547 18.135C72.3997 18.045 72.1747 17.91 72.1297 17.955C66.7297 24.075 60.5197 28.215 59.8447 26.82C58.9447 24.66 61.4647 18.855 63.6697 14.445C64.7497 12.6 65.8747 10.8 67.0447 9C67.1347 8.775 67.3147 8.595 67.4497 8.37C67.5847 8.325 67.7647 8.28 67.9447 8.28C70.5097 7.785 73.1197 7.38 75.7297 7.155C75.8647 7.11 75.9547 7.02 75.9547 6.93C75.9097 6.84 75.8197 6.75 75.7297 6.75ZM66.5947 8.685C66.2797 9.135 66.0097 9.63 65.7397 10.08C65.9197 9.675 66.0997 9.27 66.2797 8.865C66.3247 8.775 66.3697 8.685 66.4147 8.595C66.5047 8.595 66.5947 8.55 66.6847 8.55C66.6397 8.595 66.5947 8.64 66.5947 8.685ZM67.0447 8.01C66.9547 8.01 66.8197 8.055 66.7297 8.055C67.2247 7.065 67.7197 6.03 68.2597 5.085C68.6197 4.455 68.9797 3.87 69.3847 3.285C69.5647 2.97 69.7897 2.7 70.0147 2.43C70.1497 2.25 70.3747 2.07 70.5097 1.935C70.5097 2.07 70.4647 2.205 70.4197 2.34C70.3297 2.655 70.1947 3.015 70.0147 3.285C69.6997 3.915 69.3397 4.545 68.9347 5.13C68.3047 6.075 67.6747 7.02 67.0447 8.01ZM88.5125 17.91C84.9125 20.25 81.8525 21.105 82.9775 19.215C83.6975 18.045 83.4725 17.55 81.3125 17.1C81.4025 16.965 82.5275 15.75 82.1675 14.985C82.0775 14.76 81.8075 14.67 81.4925 14.76C80.8625 14.94 80.2325 15.705 80.0075 16.11C79.9625 16.245 79.7825 16.65 79.8275 16.965C79.9175 17.37 80.3225 17.46 80.5475 17.505C80.5925 17.595 80.6825 17.64 80.7725 17.64C80.9075 17.595 80.9075 17.55 80.9975 17.505C82.6175 17.775 82.4825 18.225 82.2575 18.675C81.8975 19.35 81.6725 19.845 81.7175 20.205C81.9425 22.23 87.1175 19.08 88.6025 18.09H88.6475C88.6925 18.045 88.5575 17.865 88.5125 17.91ZM80.6825 17.01C80.0975 17.01 81.4925 15.165 81.7625 15.345C82.0775 15.48 81.2225 16.695 80.6825 17.01ZM95.7642 17.685C92.9742 19.89 87.6192 21.645 88.7892 18.99C89.7792 18.765 90.6342 18.495 91.4442 17.865C92.9742 16.695 91.8042 16.155 91.5792 16.11C91.3542 16.02 91.1292 16.02 90.9042 16.02C90.4092 16.11 90.0042 16.29 89.6442 16.47C88.9242 16.92 88.3842 17.55 87.9342 18.225C86.7192 20.52 88.2942 20.925 88.8792 20.97C90.2742 21.015 92.7042 20.25 95.9442 17.865C95.9892 17.82 95.8092 17.64 95.7642 17.685ZM90.1842 17.235C90.4542 17.01 90.7242 16.83 90.9942 16.74C91.5342 16.56 92.1192 16.695 91.1292 17.505C90.8592 17.775 90.0492 18.27 89.0142 18.54C89.3742 18.09 89.7792 17.64 90.1842 17.235ZM102.748 14.895C100.813 14.535 98.3834 17.73 96.8084 20.025C96.7634 18.18 97.0334 16.56 97.3934 15.66C97.3934 15.3 96.4034 14.94 96.3134 15.255C95.9534 16.425 95.6834 18.09 96.0434 21.78C96.0434 21.96 96.4034 21.87 96.4934 21.735C97.5284 19.665 101.083 14.58 102.703 15.12C102.838 15.03 102.928 14.94 102.748 14.895ZM109.93 17.955C107.77 19.395 105.07 20.745 104.53 19.89C104.485 19.62 104.575 19.17 104.71 18.765C104.98 17.955 105.205 17.685 105.655 16.92C105.655 16.875 105.655 16.875 105.7 16.83C105.79 16.56 105.25 15.3 104.575 16.47C104.125 17.28 103.945 17.685 103.72 18.675C103.45 19.62 103.675 20.61 104.665 20.7C105.61 20.79 107.815 19.755 110.065 18.135C110.155 18.09 110.02 17.91 109.93 17.955ZM106.825 14.58C106.87 14.445 106.78 13.77 106.465 14.085C106.105 14.4 105.475 14.715 105.385 14.895C105.25 15.255 106.735 15.03 106.825 14.58ZM117.297 17.685C114.507 19.89 109.152 21.645 110.322 18.99C111.312 18.765 112.167 18.495 112.977 17.865C114.507 16.695 113.337 16.155 113.112 16.11C112.887 16.02 112.662 16.02 112.437 16.02C111.942 16.11 111.537 16.29 111.177 16.47C110.457 16.92 109.917 17.55 109.467 18.225C108.252 20.52 109.827 20.925 110.412 20.97C111.807 21.015 114.237 20.25 117.477 17.865C117.522 17.82 117.342 17.64 117.297 17.685ZM111.717 17.235C111.987 17.01 112.257 16.83 112.527 16.74C113.067 16.56 113.652 16.695 112.662 17.505C112.392 17.775 111.582 18.27 110.547 18.54C110.907 18.09 111.312 17.64 111.717 17.235ZM130.132 17.955C128.602 19.125 126.622 19.305 126.622 18.135C127.117 16.65 127.117 15.75 126.982 15.57C126.802 15.345 126.667 15.39 126.352 15.57C126.127 15.705 125.317 17.325 125.857 18.45C125.182 20.655 124.237 21.465 123.652 21.465C122.842 21.465 122.347 19.755 123.247 16.155V16.11C123.247 16.02 122.842 15.705 122.572 15.84C122.302 15.975 117.892 20.565 118.072 19.305C118.297 17.55 119.332 15.84 119.872 15.21C120.052 15.03 119.602 14.58 119.062 14.85C118.162 15.345 117.082 18.225 117.127 19.8C117.127 20.385 117.577 20.43 117.757 20.385C118.792 20.16 121.852 17.325 121.852 17.325C121.582 18.9 121.537 21.96 122.887 22.14C124.687 22.41 125.767 20.475 126.352 18.855C127.072 19.62 128.962 19.17 130.222 18.09C130.222 18.09 130.177 17.955 130.132 17.955ZM137.141 17.91C135.431 18.54 133.721 19.26 132.101 20.16V20.115C132.146 19.53 132.146 18.9 132.146 18.315C132.191 17.595 132.191 16.875 132.281 16.2C133.091 15.75 133.811 15.165 134.261 14.355C134.711 13.59 134.621 12.645 133.316 13.23C132.506 13.59 131.381 14.625 131.246 16.38C131.201 16.38 131.156 16.425 131.111 16.425C131.066 16.47 131.021 16.515 131.021 16.605C131.066 16.65 131.111 16.695 131.201 16.695C131.201 16.65 131.201 16.65 131.201 16.65C131.111 17.19 131.021 19.98 131.021 20.79C130.751 20.97 130.481 21.15 130.256 21.33C129.716 21.69 129.221 22.095 128.816 22.635C128.636 22.905 128.456 23.22 128.456 23.625C128.411 23.985 128.636 24.39 129.041 24.57C129.851 24.885 130.661 24.435 131.156 23.895C131.606 23.355 131.831 22.68 132.011 22.05C132.101 21.51 132.101 21.015 132.101 20.52C133.766 19.575 135.476 18.81 137.231 18.09C137.276 18.045 137.231 17.865 137.141 17.91ZM132.596 14.85C132.866 13.995 134.801 12.465 133.991 14.22C133.631 14.94 133.046 15.525 132.326 15.93C132.371 15.57 132.461 15.21 132.596 14.85ZM131.021 21.915C130.931 22.455 130.796 23.04 130.526 23.445C130.256 23.895 129.716 24.255 129.266 24.12C128.816 23.985 128.816 23.31 129.131 22.815C129.446 22.32 129.896 21.915 130.436 21.555C130.616 21.42 130.841 21.285 131.021 21.195C131.021 21.42 131.021 21.69 131.021 21.915Z" fill="white"/>
</svg>
