<svg width="426" height="214" viewBox="0 0 426 214" fill="none" xmlns="http://www.w3.org/2000/svg">
<path d="M159.401 47.73C156.651 52.98 163.651 55.73 164.651 50.23C167.401 37.98 169.901 30.48 175.901 15.48C177.151 13.48 172.151 12.23 170.901 14.98C169.901 20.23 168.401 24.98 166.401 29.23C166.151 24.98 165.401 20.48 163.151 16.23C160.401 10.73 155.151 6.22998 149.401 3.97998C143.651 1.47998 137.651 0.729973 131.401 0.729973C107.651 1.47998 82.9014 14.23 72.6514 36.73C62.1514 60.48 69.4014 77.23 83.4014 105.23C88.6514 115.73 97.4014 133.23 98.4014 135.73C0.151365 190.23 32.9014 211.98 66.4014 203.98C120.651 190.73 115.401 155.48 105.901 135.23C117.401 129.48 136.151 121.98 136.151 121.98C136.151 121.98 137.151 119.48 135.651 120.48C125.151 123.48 105.151 132.98 105.151 132.98C105.151 132.98 96.1514 114.98 89.9014 101.98C84.9014 91.48 66.4014 62.48 78.1514 39.23C88.1514 19.73 109.651 6.47997 131.651 5.47998C142.401 4.97998 154.401 8.72997 159.401 18.23C164.401 27.98 159.401 47.73 159.401 47.73ZM36.9014 187.98C40.4014 173.98 71.9014 152.48 99.4014 138.48C130.651 203.73 31.1514 213.23 36.9014 187.98ZM183.61 120.48C168.11 132.73 138.36 142.48 144.86 127.73C150.36 126.48 155.11 124.98 159.61 121.48C168.11 114.98 161.61 111.98 160.36 111.73C159.11 111.23 157.86 111.23 156.61 111.23C153.86 111.73 151.61 112.73 149.61 113.73C145.61 116.23 142.61 119.73 140.11 123.48C133.36 136.23 142.11 138.48 145.36 138.73C153.11 138.98 166.61 134.73 184.61 121.48C184.86 121.23 183.86 120.23 183.61 120.48ZM152.61 117.98C154.11 116.73 155.61 115.73 157.11 115.23C160.11 114.23 163.36 114.98 157.86 119.48C156.36 120.98 151.86 123.73 146.11 125.23C148.11 122.73 150.36 120.23 152.61 117.98ZM230.97 121.73C210.97 134.73 193.97 139.48 200.22 128.98C204.22 122.48 202.97 119.73 190.97 117.23C191.47 116.48 197.72 109.73 195.72 105.48C195.22 104.23 193.72 103.73 191.97 104.23C188.47 105.23 184.97 109.48 183.72 111.73C183.47 112.48 182.47 114.73 182.72 116.48C183.22 118.73 185.47 119.23 186.72 119.48C186.97 119.98 187.47 120.23 187.97 120.23C188.72 119.98 188.72 119.73 189.22 119.48C198.22 120.98 197.47 123.48 196.22 125.98C194.22 129.73 192.97 132.48 193.22 134.48C194.47 145.73 223.22 128.23 231.47 122.73H231.72C231.97 122.48 231.22 121.48 230.97 121.73ZM187.47 116.73C184.22 116.73 191.97 106.48 193.47 107.48C195.22 108.23 190.47 114.98 187.47 116.73ZM268.065 104.98C257.315 102.98 243.815 120.73 235.065 133.48C234.815 123.23 236.315 114.23 238.315 109.23C238.315 107.23 232.815 105.23 232.315 106.98C230.315 113.48 228.815 122.73 230.815 143.23C230.815 144.23 232.815 143.73 233.315 142.98C239.065 131.48 258.815 103.23 267.815 106.23C268.565 105.73 269.065 105.23 268.065 104.98ZM307.964 121.98C295.964 129.98 280.964 137.48 277.964 132.73C277.714 131.23 278.214 128.73 278.964 126.48C280.464 121.98 281.714 120.48 284.214 116.23C284.214 115.98 284.214 115.98 284.464 115.73C284.964 114.23 281.964 107.23 278.214 113.73C275.714 118.23 274.714 120.48 273.464 125.98C271.964 131.23 273.214 136.73 278.714 137.23C283.964 137.73 296.214 131.98 308.714 122.98C309.214 122.73 308.464 121.73 307.964 121.98ZM290.714 103.23C290.964 102.48 290.464 98.73 288.714 100.48C286.714 102.23 283.214 103.98 282.714 104.98C281.964 106.98 290.214 105.73 290.714 103.23ZM349.894 121.48C341.394 127.73 331.394 132.23 322.894 134.98C307.644 139.73 308.394 121.23 321.644 111.73C323.144 110.98 324.894 110.48 326.394 111.23C327.644 111.73 328.394 113.73 328.144 115.48C328.144 115.98 328.144 116.48 328.144 116.98C328.144 116.98 328.394 118.23 329.394 117.98C329.394 117.98 331.144 112.23 331.894 110.73V110.48C332.144 110.48 332.144 110.48 332.144 110.23C332.394 109.48 330.644 109.48 330.394 109.98L329.394 111.98C328.894 110.98 328.394 110.23 327.394 109.48C325.144 107.98 314.144 107.98 306.644 122.98C301.394 133.48 309.144 141.48 323.394 136.98C333.144 133.73 342.644 128.48 350.894 122.48C351.144 122.23 350.394 120.98 349.894 121.48ZM390.153 120.48C374.653 132.73 344.903 142.48 351.403 127.73C356.903 126.48 361.653 124.98 366.153 121.48C374.653 114.98 368.153 111.98 366.903 111.73C365.653 111.23 364.403 111.23 363.153 111.23C360.403 111.73 358.153 112.73 356.153 113.73C352.153 116.23 349.153 119.73 346.653 123.48C339.903 136.23 348.653 138.48 351.903 138.73C359.653 138.98 373.153 134.73 391.153 121.48C391.403 121.23 390.403 120.23 390.153 120.48ZM359.153 117.98C360.653 116.73 362.153 115.73 363.653 115.23C366.653 114.23 369.903 114.98 364.403 119.48C362.903 120.98 358.403 123.73 352.653 125.23C354.653 122.73 356.903 120.23 359.153 117.98ZM424.954 121.73C415.454 125.23 405.954 129.23 396.954 134.23V133.98C397.204 130.73 397.204 127.23 397.204 123.98C397.454 119.98 397.454 115.98 397.954 112.23C402.454 109.73 406.454 106.48 408.954 101.98C411.454 97.73 410.954 92.48 403.704 95.73C399.204 97.73 392.954 103.48 392.204 113.23C391.954 113.23 391.704 113.48 391.454 113.48C391.204 113.73 390.954 113.98 390.954 114.48C391.204 114.73 391.454 114.98 391.954 114.98C391.954 114.73 391.954 114.73 391.954 114.73C391.454 117.73 390.954 133.23 390.954 137.73C389.454 138.73 387.954 139.73 386.704 140.73C383.704 142.73 380.954 144.98 378.704 147.98C377.704 149.48 376.704 151.23 376.704 153.48C376.454 155.48 377.704 157.73 379.954 158.73C384.454 160.48 388.954 157.98 391.704 154.98C394.204 151.98 395.454 148.23 396.454 144.73C396.954 141.73 396.954 138.98 396.954 136.23C406.204 130.98 415.704 126.73 425.454 122.73C425.704 122.48 425.454 121.48 424.954 121.73ZM399.704 104.73C401.204 99.98 411.954 91.48 407.454 101.23C405.454 105.23 402.204 108.48 398.204 110.73C398.454 108.73 398.954 106.73 399.704 104.73ZM390.954 143.98C390.454 146.98 389.704 150.23 388.204 152.48C386.704 154.98 383.704 156.98 381.204 156.23C378.704 155.48 378.704 151.73 380.454 148.98C382.204 146.23 384.704 143.98 387.704 141.98C388.704 141.23 389.954 140.48 390.954 139.98C390.954 141.23 390.954 142.73 390.954 143.98Z" fill="#A75B41"/>
</svg>
