<svg width="64" height="27" viewBox="0 0 64 27" fill="none" xmlns="http://www.w3.org/2000/svg">
<path d="M13.0958 16.957C11.6338 18.075 9.74179 18.247 9.74179 17.129C10.2148 15.71 10.2148 14.85 10.0858 14.678C9.91379 14.463 9.78479 14.506 9.48379 14.678C9.26879 14.807 8.49479 16.355 9.01079 17.43C8.36579 19.537 7.46279 20.311 6.90379 20.311C6.12979 20.311 5.65679 18.677 6.51679 15.237V15.194C6.51679 15.108 6.12979 14.807 5.87179 14.936C5.61379 15.065 1.39979 19.451 1.57179 18.247C1.78679 16.57 2.77579 14.936 3.29179 14.334C3.46379 14.162 3.03379 13.732 2.51779 13.99C1.65779 14.463 0.625789 17.215 0.668789 18.72C0.668789 19.279 1.09879 19.322 1.27079 19.279C2.25979 19.064 5.18379 16.355 5.18379 16.355C4.92579 17.86 4.88279 20.784 6.17279 20.956C7.89279 21.214 8.92479 19.365 9.48379 17.817C10.1718 18.548 11.9778 18.118 13.1818 17.086C13.1818 17.086 13.1388 16.957 13.0958 16.957ZM19.1974 16.957C17.1334 18.333 14.5534 19.623 14.0374 18.806C13.9944 18.548 14.0804 18.118 14.2094 17.731C14.4674 16.957 14.6824 16.699 15.1124 15.968C15.1124 15.925 15.1124 15.925 15.1554 15.882C15.2414 15.624 14.7254 14.42 14.0804 15.538C13.6504 16.312 13.4784 16.699 13.2634 17.645C13.0054 18.548 13.2204 19.494 14.1664 19.58C15.0694 19.666 17.1764 18.677 19.3264 17.129C19.4124 17.086 19.2834 16.914 19.1974 16.957ZM16.2304 13.732C16.2734 13.603 16.1874 12.958 15.8864 13.259C15.5424 13.56 14.9404 13.861 14.8544 14.033C14.7254 14.377 16.1444 14.162 16.2304 13.732ZM33.5903 6.25C31.0533 6.465 28.5593 6.809 26.0653 7.282H26.0223C26.5383 6.551 27.0113 5.734 27.5703 5.003C27.9573 4.444 28.3443 3.842 28.6453 3.197C28.8173 2.896 28.9463 2.595 29.0753 2.251C29.1183 2.036 29.2043 1.864 29.2043 1.649C29.2043 1.563 29.2043 1.434 29.1613 1.262C29.1183 1.047 28.7313 0.917999 28.6023 1.004C28.0863 1.219 27.9143 1.477 27.6563 1.735C27.4413 2.036 27.2263 2.294 27.0113 2.595C26.6243 3.154 26.2373 3.756 25.8933 4.315C25.2483 5.433 24.6463 6.594 24.0443 7.712C23.4853 7.798 22.9263 7.927 22.3673 8.056C21.1203 8.357 19.9163 8.572 18.6693 9.26C18.5403 9.303 18.8413 9.819 18.9703 9.733L19.0133 9.69C20.0023 9.174 21.2923 8.873 22.4963 8.529C22.8833 8.443 23.3133 8.357 23.7433 8.228C20.2173 14.377 15.7883 23.02 17.8953 25.987C18.2393 26.46 18.7983 26.331 19.1853 26.245C22.0233 25.6 28.7313 19.322 30.3653 17.129C30.4083 17.043 30.1933 16.914 30.1503 16.957C24.9903 22.805 19.0563 26.761 18.4113 25.428C17.5513 23.364 19.9593 17.817 22.0663 13.603C23.0983 11.84 24.1733 10.12 25.2913 8.4C25.3773 8.185 25.5493 8.013 25.6783 7.798C25.8073 7.755 25.9793 7.712 26.1513 7.712C28.6023 7.239 31.0963 6.852 33.5903 6.637C33.7193 6.594 33.8053 6.508 33.8053 6.422C33.7623 6.336 33.6763 6.25 33.5903 6.25ZM24.8613 8.099C24.5603 8.529 24.3023 9.002 24.0443 9.432C24.2163 9.045 24.3883 8.658 24.5603 8.271C24.6033 8.185 24.6463 8.099 24.6893 8.013C24.7753 8.013 24.8613 7.97 24.9473 7.97C24.9043 8.013 24.8613 8.056 24.8613 8.099ZM25.2913 7.454C25.2053 7.454 25.0763 7.497 24.9903 7.497C25.4633 6.551 25.9363 5.562 26.4523 4.659C26.7963 4.057 27.1403 3.498 27.5273 2.939C27.6993 2.638 27.9143 2.38 28.1293 2.122C28.2583 1.95 28.4733 1.778 28.6023 1.649C28.6023 1.778 28.5593 1.907 28.5163 2.036C28.4303 2.337 28.3013 2.681 28.1293 2.939C27.8283 3.541 27.4843 4.143 27.0973 4.702C26.4953 5.605 25.8933 6.508 25.2913 7.454ZM41.6763 17C40.0853 18.462 36.6453 21.085 36.5163 18.849C36.4733 17.602 37.0753 16.011 36.8603 15.151C36.8173 14.979 36.5163 14.635 36.2583 14.463C35.7853 14.248 35.0543 14.764 34.8393 14.936C32.9043 16.226 29.7653 21.515 29.7653 21.515C30.1093 20.44 30.4103 19.408 30.7543 18.376C31.0983 17.344 31.4423 16.312 31.8293 15.28C33.5063 12.657 35.2263 10.077 36.9463 7.454C37.8923 5.992 39.0103 4.616 39.5693 2.853C39.6123 2.638 39.6553 2.38 39.6983 2.165C39.6983 1.907 39.7413 1.649 39.5263 1.305C39.4403 1.133 39.1393 1.004 38.9673 1.004C38.7953 1.047 38.6233 1.09 38.5373 1.133C38.2793 1.262 38.1073 1.434 37.9353 1.606C37.2473 2.208 36.7313 2.939 36.2153 3.67C34.2373 6.594 32.8613 9.819 31.6143 13.087C30.9693 14.721 30.3673 16.355 29.8943 18.032C29.3783 19.709 28.9053 21.73 28.5613 23.192V23.235C28.5613 23.364 28.6043 23.45 28.7333 23.493C28.8623 23.536 29.2063 23.407 29.2063 23.407C30.2383 21.73 31.1843 20.268 32.3453 18.763C33.5493 17.172 34.9253 15.753 35.3123 15.495C35.4413 15.366 35.6133 15.28 35.7853 15.237C35.7853 15.538 35.5273 17.516 35.4413 17.989C34.9683 22.375 38.2793 20.483 41.8483 17.172C41.9343 16.914 41.6763 17 41.6763 17ZM36.8603 4.1C37.2903 3.369 37.8063 2.681 38.4083 2.122C38.5373 1.95 38.7093 1.821 38.8383 1.778C38.9243 1.735 38.9673 1.692 39.0103 1.692C39.0963 1.821 39.0533 2.337 38.9673 2.681C38.5373 4.315 37.4623 5.734 36.5163 7.196C35.1833 9.217 33.8503 11.281 32.4743 13.345C33.7213 10.163 35.0113 6.981 36.8603 4.1ZM56.9229 16.871C53.2249 19.666 52.0209 19.408 52.5369 17.903C52.7089 17.258 53.1389 16.226 53.3539 15.538C53.3969 15.409 53.0099 14.979 52.7089 15.151C51.5909 17.129 50.6449 17.989 49.1829 18.806C48.1509 19.408 49.1829 17.086 49.9999 16.011C49.9999 16.011 49.5269 15.28 49.2259 15.495C48.7959 15.839 47.8069 17.903 47.7639 18.462C47.5919 20.526 50.3439 18.935 51.6769 17.516C50.6449 20.354 53.4829 20.096 57.0949 17.043C57.1379 17 57.0089 16.828 56.9229 16.871ZM62.9194 16.914C61.2854 17.516 59.6514 18.204 58.1034 19.064V19.021C58.1464 18.462 58.1464 17.86 58.1464 17.301C58.1894 16.613 58.1894 15.925 58.2754 15.28C59.0494 14.85 59.7374 14.291 60.1674 13.517C60.5974 12.786 60.5114 11.883 59.2644 12.442C58.4904 12.786 57.4154 13.775 57.2864 15.452C57.2434 15.452 57.2004 15.495 57.1574 15.495C57.1144 15.538 57.0714 15.581 57.0714 15.667C57.1144 15.71 57.1574 15.753 57.2434 15.753C57.2434 15.71 57.2434 15.71 57.2434 15.71C57.1574 16.226 57.0714 18.892 57.0714 19.666C56.8134 19.838 56.5554 20.01 56.3404 20.182C55.8244 20.526 55.3514 20.913 54.9644 21.429C54.7924 21.687 54.6204 21.988 54.6204 22.375C54.5774 22.719 54.7924 23.106 55.1794 23.278C55.9534 23.579 56.7274 23.149 57.2004 22.633C57.6304 22.117 57.8454 21.472 58.0174 20.87C58.1034 20.354 58.1034 19.881 58.1034 19.408C59.6944 18.505 61.3284 17.774 63.0054 17.086C63.0484 17.043 63.0054 16.871 62.9194 16.914ZM58.5764 13.99C58.8344 13.173 60.6834 11.711 59.9094 13.388C59.5654 14.076 59.0064 14.635 58.3184 15.022C58.3614 14.678 58.4474 14.334 58.5764 13.99ZM57.0714 20.741C56.9854 21.257 56.8564 21.816 56.5984 22.203C56.3404 22.633 55.8244 22.977 55.3944 22.848C54.9644 22.719 54.9644 22.074 55.2654 21.601C55.5664 21.128 55.9964 20.741 56.5124 20.397C56.6844 20.268 56.8994 20.139 57.0714 20.053C57.0714 20.268 57.0714 20.526 57.0714 20.741Z" fill="white"/>
</svg>
