<svg width="170" height="245" viewBox="0 0 170 245" fill="none" xmlns="http://www.w3.org/2000/svg">
<path d="M97.6816 245C70.9121 245 47.7829 232.842 28.9211 208.862C10.2462 185.174 0.721822 156.266 0.589844 122.981V122.678C0.721822 89.6314 10.1912 60.8314 28.7451 37.0782C47.442 13.0981 70.6481 0.929688 97.6376 0.929688C107.613 0.929688 115.73 2.30215 122.438 5.12271C128.141 7.48167 133.704 10.1552 139.101 13.1305C143.116 15.3973 147.668 16.5862 152.298 16.5778C159.876 16.5778 159.997 13.4331 159.997 11.7364L160.074 8.32149H169.687V83.6661L159.865 84.1956V82.0883L159.645 80.7591C152.133 34.182 131.798 11.5419 97.4616 11.5419C89.0447 11.5429 80.7002 13.0706 72.8477 16.0483C65.4354 19.3042 59.0775 24.5009 54.4698 31.0697C49.6306 37.8455 46.1772 46.6962 44.1975 57.3625C42.2758 67.4179 40.9975 77.5817 40.3702 87.7943C39.8863 96.5585 39.7213 108.154 39.8533 123.23C40.0072 130.978 39.9633 138.283 39.7213 145.535C39.5195 153.929 39.9865 162.327 41.1181 170.65C42.2048 179.145 43.832 187.566 45.9902 195.862C47.9473 203.386 51.393 210.459 56.1306 216.675C60.5089 222.584 66.3656 227.282 73.1337 230.314C81.1163 233.338 89.5989 234.888 98.1545 234.885C132.128 234.885 152.298 212.191 159.821 165.365L160.294 162.426H169.731V237.954H160.041V234.172C160.041 232.561 159.92 229.406 152.342 229.406C147.738 229.385 143.211 230.576 139.233 232.853C133.796 235.855 128.181 238.533 122.416 240.872C115.576 243.682 107.47 245.054 97.6376 245.054M152.342 222.414C157.127 222.414 160.404 223.494 162.626 225.007V185.811C158.058 201.913 151.441 214.561 142.774 223.754C145.886 222.823 149.122 222.353 152.375 222.36M50.5875 24.5964C44.5697 29.5511 39.1424 35.1596 34.4092 41.3145C16.8121 63.8357 7.85963 91.2092 7.73865 122.678V122.959C7.85963 154.656 16.8781 182.126 34.5412 204.583C39.2781 210.699 44.7096 216.264 50.7305 221.171L50.3895 220.836C45.1024 213.89 41.2536 205.993 39.0614 197.591C36.8471 189.009 35.1794 180.3 34.0682 171.514C32.8905 162.833 32.4051 154.074 32.6165 145.319C32.8584 138.175 32.8914 130.989 32.7485 123.316C32.6055 107.852 32.7485 96.4613 33.2764 87.416C33.9133 76.8988 35.2247 66.4315 37.2027 56.0765C39.4023 44.4052 43.2187 34.6359 48.6518 27.0171C49.2457 26.185 49.8726 25.3637 50.5105 24.5748M141.905 21.992C151.034 31.2642 157.941 44.2323 162.626 60.8963V20.9762C160.426 22.5215 157.127 23.5698 152.342 23.5698C148.799 23.5783 145.276 23.0349 141.905 21.9596" fill="black"/>
</svg>
