<svg width="163" height="238" viewBox="0 0 163 238" fill="none" xmlns="http://www.w3.org/2000/svg">
<path d="M159.462 76.5107V76.2189H159.198C151.448 28.1073 129.55 4.05149 93.5056 4.05149C84.616 4.04384 75.8028 5.66365 67.517 8.82805C59.4927 12.3379 52.6031 17.9451 47.5993 25.0382C42.4302 32.2895 38.8008 41.5617 36.7441 52.7142C34.7939 62.9159 33.4973 73.2278 32.8618 83.5891C32.3449 93.0018 32.2129 104.889 32.3449 119.251C32.4769 126.07 32.4769 133.462 32.2129 141.427C32.0105 150.016 32.4885 158.608 33.6427 167.125C34.727 175.766 36.3653 184.331 38.5478 192.77C40.6291 200.732 44.2756 208.218 49.282 214.805C54.0424 221.22 60.4168 226.31 67.7809 229.577C76.2001 232.772 85.1516 234.395 94.1765 234.365C129.862 234.365 151.587 210.212 159.352 161.906H162.2V230.453H159.616V230.161C159.484 224.649 155.733 221.897 148.364 221.905C143.142 221.886 138.009 223.236 133.495 225.817C128.18 228.742 122.693 231.354 117.064 233.641C110.729 236.245 102.975 237.553 93.6596 237.553C67.9239 237.553 45.9276 225.961 27.6707 202.777C9.41372 179.593 0.255922 151.657 0.197266 118.97V118.679C0.329244 86.2151 9.46871 58.3914 27.6157 35.2073C45.7626 12.0233 67.7846 0.427615 93.6816 0.42041C103.129 0.42041 110.883 1.72802 117.086 4.33244C122.666 6.638 128.108 9.25386 133.385 12.1673C137.949 14.744 143.123 16.0934 148.386 16.0794C155.755 16.0794 159.506 13.3237 159.638 7.81222H162.222V76.3486L159.462 76.5107Z" fill="black"/>
</svg>

