<svg width="180" height="238" viewBox="0 0 180 238" fill="none" xmlns="http://www.w3.org/2000/svg">
<path d="M179.942 183.519V237.553H0.132812V234.224H33.7322V3.60841H0.132812V0.42041H100.524V3.60841H65.2529V234.181H109.125C115.816 234.218 122.502 233.781 129.13 232.873C134.526 232.197 139.802 230.801 144.814 228.724C149.125 226.843 153.015 224.959 156.483 223.072C159.79 221.332 162.678 218.914 164.951 215.982C167.151 213.086 168.977 210.633 170.505 208.601C172.161 206.259 173.286 203.595 173.805 200.788C174.494 197.604 175.048 195.288 175.465 193.839C175.949 191.843 176.277 189.812 176.444 187.766C176.719 185.151 176.862 183.703 176.862 183.562L179.942 183.519Z" fill="black"/>
</svg>
