<svg width="188" height="245" viewBox="0 0 188 245" fill="none" xmlns="http://www.w3.org/2000/svg">
<path d="M187.494 245H0.525391V234.69H34.1358V11.0988H0.569393V0.929688H108.076V11.0988H72.8053V234.69H113.125C119.643 234.723 126.156 234.297 132.613 233.415C137.681 232.767 142.636 231.444 147.34 229.481C151.53 227.644 155.357 225.796 158.734 223.97C161.599 222.46 164.104 220.368 166.081 217.832C167.547 215.93 168.838 214.215 169.952 212.688L171.613 210.472C172.975 208.524 173.901 206.314 174.329 203.988C175.044 200.746 175.605 198.358 176.045 196.823C176.468 195.017 176.755 193.182 176.903 191.334C177.156 189.032 177.288 187.659 177.31 187.346V183.877L180.862 184.028H187.461L187.494 245ZM144.37 238.019H180.389V208.776C179.699 210.873 178.674 212.85 177.354 214.633L175.715 216.794C174.56 218.34 173.262 220.036 171.789 222.003C169.214 225.329 165.943 228.074 162.198 230.054C158.646 231.967 154.632 233.912 150.254 235.825C148.34 236.663 146.375 237.385 144.37 237.986M41.2846 237.986H65.7005V7.94325H41.2846V237.986Z" fill="black"/>
</svg>
