<svg width="130" height="236" viewBox="0 0 130 236" fill="none" xmlns="http://www.w3.org/2000/svg">
<path fill-rule="evenodd" clip-rule="evenodd" d="M0.130921 235.858C-0.539966 235.609 1.82467 229.633 4.43124 218.567C5.41007 213.855 6.31193 209.467 6.98282 205.102C7.35676 202.616 7.68664 200.109 7.88461 197.267C7.88461 196.964 7.88464 196.305 7.98362 195.408C8.09923 194.193 8.31628 192.989 8.63254 191.809C8.99548 190.426 9.30339 187.778 9.13842 182.31C6.24581 175.634 4.66365 168.48 4.47521 161.226C4.18925 147.815 9.03947 136.727 14.6045 124.008C16.3752 119.944 17.8379 116.605 20.2575 112.185C21.1704 110.521 22.8971 107.473 26.5485 100.881C27.7062 98.9645 28.6959 96.9544 29.507 94.8728C30.8378 91.1877 31.0468 88.3131 31.7067 88.3888C32.0366 88.3888 32.1906 89.2425 33.3014 92.7763C34.1483 95.4456 34.3022 95.759 34.5882 95.813C35.512 95.9859 36.1609 93.0032 38.9874 88.5941C40.2412 86.6057 41.759 84.7361 44.6955 80.9105L46.5652 78.5006C46.9391 78.0251 47.445 77.3659 47.7529 76.9552C49.8346 74.2869 51.6746 71.4447 53.252 68.4611C54.0329 66.5591 55.4517 63.4036 56.4745 63.5981C57.4974 63.7926 57.5743 66.8401 57.6623 69.1095C57.9262 74.3508 57.0464 77.3443 57.5743 77.5388C58.1023 77.7333 59.103 76.1447 62.5455 68.8934L72.3778 54.9419L95.122 32.2477C100.149 25.623 103.736 18.0526 105.658 10.0075C106.391 6.96259 106.88 3.866 107.121 0.746094C110.932 3.6899 114.295 7.15434 117.107 11.0341C120.132 15.071 122.445 19.579 123.948 24.3696C126.021 31.3156 126.286 38.6619 124.718 45.7346C125.213 45.7346 125.939 45.7346 126.819 45.6265C128.677 45.4752 129.018 45.3023 129.293 45.5508C129.843 46.102 128.611 47.6257 127.82 50.295C127.464 51.5509 127.246 52.8407 127.171 54.1422C126.775 57.5463 124.971 61.3071 122.529 66.2782C119.934 71.4654 117.404 76.2204 115.007 80.5539L116.865 80.435L118.427 80.3377C118.234 82.4681 117.829 84.5748 117.217 86.6273C116.004 90.5806 114.087 94.2909 111.553 97.5853C108.463 101.805 104.621 105.44 100.214 108.316C99.9502 109.149 99.7412 110.229 100.291 110.824C100.841 111.418 102.26 110.824 102.92 111.299C104.459 112.466 101.259 118.842 101.259 118.842C98.909 123.82 95.8095 128.421 92.0646 132.491C92.0646 132.491 83.9699 141.277 74.2475 145.999C70.8821 147.621 69.1664 148.269 69.1664 148.269C64.7671 149.955 61.7536 150.279 61.7756 151.089C61.7976 151.9 63.6893 152.246 64.6461 152.505C67.2637 153.197 68.5615 152.689 68.8364 153.154C69.3973 154.083 65.416 158.276 57.4314 163.377C49.7327 168.305 44.8494 169.861 34.5112 174.821C30.9368 176.529 25.8666 179.025 19.8506 182.31C21.7328 168.522 26.1528 155.185 32.8945 142.952C39.6473 130.816 47.3241 122.495 53.791 115.47C65.284 103.01 67.5387 103.918 79.6256 91.1553C88.6991 81.5697 96.5298 73.1729 102.557 60.4101C109.398 45.8858 110.64 32.6368 110.189 32.5179C109.739 32.399 108.122 43.4543 101.094 57.5463C94.6601 70.2875 86.9614 78.6087 77.8329 88.3239C65.273 101.681 63.6783 100.146 49.3697 115.071C39.0754 125.802 33.1474 132.08 27.7033 142.476C23.3967 150.749 20.2272 159.547 18.2779 168.64C17.9479 170.109 16.8701 177.544 14.7035 192.414C13.3287 201.827 12.6138 206.982 10.3042 214.028C9.01877 217.985 7.48716 221.861 5.718 225.634C3.84832 229.719 0.680864 236.052 0.0979616 235.825" fill="black"/>
</svg>
