<svg width="203" height="251" viewBox="0 0 203 251" fill="none" xmlns="http://www.w3.org/2000/svg">
<path d="M101.269 250.115C82.1874 250.222 63.6488 243.876 48.764 232.144C32.9368 219.951 20.5079 204.021 12.6351 185.837C4.19642 166.764 -0.0928991 146.17 0.0421554 125.373C0.046834 109.928 2.4539 94.5747 7.17997 79.8444C11.6326 65.5472 18.4429 52.065 27.3396 39.9351C35.9464 28.2986 46.9718 18.5923 59.6852 11.4594C72.3396 4.19762 86.747 0.409339 101.401 0.490536C120.725 0.490536 138.223 6.43424 154.049 18.3109C169.876 30.1875 181.908 45.5763 190.343 64.4556C198.797 83.5428 203.09 104.158 202.947 124.973C202.877 155.403 193.278 185.074 175.452 209.958C166.98 221.614 156.039 231.328 143.381 238.433C130.63 245.713 116.126 249.501 101.379 249.402L101.269 250.115ZM34.4774 133.403C34.4774 144.67 34.6204 153.809 34.9063 160.819C35.3176 169.231 36.1581 177.616 37.4249 185.945C38.818 195.693 40.7757 203.618 43.2979 209.72C46.0263 216.156 49.7063 222.16 54.2191 227.54C58.9462 233.253 64.9335 237.836 71.7282 240.941C82.0884 244.896 91.8878 246.884 101.269 246.722C111.627 246.67 121.882 244.709 131.503 240.941C138.346 237.774 144.341 233.082 149.012 227.238C153.492 221.721 157.168 215.618 159.933 209.104C162.452 203.02 164.267 195.055 165.531 185.329C166.796 175.603 167.632 167.206 167.907 160.355C168.182 153.503 168.325 144.361 168.325 132.938V121.418C168.325 106.645 167.907 93.85 166.928 83.0324C165.924 72.1519 164.086 61.3614 161.429 50.7527C158.797 40.0828 154.764 31.2501 149.331 24.2546C144.018 17.3512 136.91 11.9829 128.754 8.71447C120.01 5.55438 110.762 3.95506 101.445 3.99192C92.5835 4.09388 83.7952 5.58599 75.4126 8.41188C67.1231 11.5009 59.8565 16.7681 54.4061 23.6386C48.808 30.6413 44.6067 39.6326 41.8022 50.4501C39.0444 61.1446 37.1722 72.041 36.2041 83.0324C35.2253 94.0013 34.8073 106.807 34.8073 121.569V133.165L34.4774 133.403Z" fill="black"/>
</svg>
