<svg width="221" height="240" viewBox="0 0 221 240" fill="none" xmlns="http://www.w3.org/2000/svg">
<path d="M191.591 239.652C184.328 239.832 177.122 238.352 170.54 235.329C164.579 232.433 160.312 228.953 157.562 225.041C154.562 220.643 152.297 215.802 150.854 210.7C149.459 206.463 148.537 202.09 148.104 197.657C147.95 194.609 147.796 191.173 147.796 187.369C147.796 171.158 146.883 158.19 145.058 148.821C143.232 139.451 139.558 132.006 134.059 126.786C128.717 121.632 121.998 118.073 114.681 116.52C107.202 114.931 96.6766 114.056 83.0939 114.056H72.0958V235.091H109.017V238.42H0.552734V235.091H37.4846V4.12945H0.552734V0.973877H111.183C132.234 0.973877 150.238 6.33402 165.195 17.0543C180.153 27.7746 187.628 41.2506 187.62 57.4823C187.62 71.9742 181.373 84.5856 168.858 95.1654C156.342 105.745 140.02 111.97 119.729 113.861C159.85 121.253 179.991 140.093 180.153 170.38C180.153 193.557 181.986 209.767 185.652 219.011C189.314 228.294 196.177 232.93 206.097 232.93C208.847 232.93 213.114 232.206 218.921 230.898L220.142 233.794C210.966 237.421 201.183 239.337 191.294 239.446L191.591 239.652ZM111.029 111.246C125.525 111.246 136.967 105.886 145.355 95.1654C153.746 84.4451 157.87 71.8337 157.87 57.4823C157.87 43.131 153.746 30.9626 145.475 20.3396C137.205 9.71653 125.8 4.55091 110.996 4.55091H72.2717V111.116L111.029 111.246Z" fill="black"/>
</svg>
