<svg width="228" height="247" viewBox="0 0 228 247" fill="none" xmlns="http://www.w3.org/2000/svg">
<path d="M194.59 246.142C186.777 246.308 179.03 244.695 171.956 241.43C165.621 238.34 160.804 234.492 157.659 229.997C154.435 225.281 152 220.09 150.444 214.619C148.962 210.123 147.992 205.481 147.551 200.775C147.397 197.533 147.243 194.075 147.243 190.314C147.243 174.32 146.342 161.579 144.56 152.415C142.866 143.705 139.512 136.918 134.595 132.25C129.747 127.518 123.616 124.258 116.932 122.859C109.52 121.281 99.1374 120.47 86.1376 120.47H78.6698V234.514H115.591V244.878H0V234.557H36.9208V10.6524H0V0.472412H114.183C135.904 0.472412 154.788 6.11353 170.274 17.2337C186.122 28.6024 194.161 43.1698 194.161 60.4606C194.161 76.0007 187.431 89.5632 174.156 100.791C164.873 108.637 153.468 114.235 140.128 117.499C170.922 127.149 186.54 145.888 186.683 173.337C186.683 196.031 188.442 211.96 191.929 220.779C195.03 228.646 200.639 232.472 209.064 232.472C211.352 232.472 215.278 231.834 221.085 230.526L224.022 229.867L227.772 238.793L224.362 240.101C218.85 242.221 213.141 243.81 207.315 244.845L194.546 246.142M190.378 239.01H194.238C196.73 239.007 199.22 238.867 201.695 238.588C194.096 236.632 188.497 231.456 185.286 223.329C181.426 213.603 179.545 197.22 179.545 173.38C179.424 148.049 164.664 131.526 134.529 123.14C136.278 124.393 137.936 125.765 139.49 127.246C145.484 132.941 149.52 140.971 151.5 151.129C153.358 160.715 154.304 173.91 154.304 190.336C154.304 193.945 154.458 197.328 154.612 200.451C155.048 204.611 155.941 208.713 157.274 212.684C158.614 217.43 160.715 221.935 163.499 226.031C165.962 229.543 169.878 232.612 175.124 235.173C179.925 237.415 185.125 238.718 190.433 239.01M43.9926 237.853H71.488V113.511H71.642V7.46437H43.9926V237.853ZM78.8238 110.626L114.018 110.755C127.469 110.755 137.763 105.935 145.517 96.0364C153.27 86.1374 157.274 74.1312 157.274 60.4822C157.274 46.8333 153.512 35.5511 145.693 25.5008C138.126 15.7748 127.777 11.0738 114.029 11.0738H78.8348L78.8238 110.626ZM139.215 10.4578C143.898 13.2875 148.001 16.9527 151.313 21.2646C160.001 32.4171 164.4 45.6122 164.4 60.4822C164.4 75.6657 159.946 89.0553 151.203 100.294C148.255 104.101 144.719 107.431 140.721 110.161C151.322 107.447 161.173 102.444 169.559 95.5177C181.195 85.6836 187.09 73.9042 187.09 60.4822C187.09 45.3528 180.238 32.9899 166.127 22.8748C158.041 17.1057 148.917 12.8926 139.237 10.4578" fill="black"/>
</svg>
