<svg width="634" height="207" viewBox="0 0 634 207" fill="none" xmlns="http://www.w3.org/2000/svg">
<path d="M107.776 0.817848C107.52 0.177845 104.96 0.177845 105.216 1.45785C108.032 15.0258 84.864 60.4658 70.272 79.0259C65.664 84.7859 60.544 90.2899 54.784 94.2579C53.376 95.1539 51.84 96.0499 50.688 96.0499C49.664 96.0499 49.152 95.4099 48.64 93.8739C48 90.6739 48.256 87.0899 48.64 83.5058C49.536 76.3379 51.072 69.1698 52.352 62.0018C52.992 58.4178 53.76 54.8338 54.272 51.1218C54.528 49.3298 54.784 47.5378 55.04 45.6178C55.04 43.6978 55.424 41.9058 54.528 39.4738C54.272 39.0898 54.272 38.7058 53.76 38.4498C53.376 38.0658 52.864 37.8098 52.48 37.8098C51.456 37.6818 50.944 38.0658 50.304 38.1938C49.28 38.7058 48.512 39.3458 47.872 39.9858C46.336 41.2658 45.056 42.6738 43.904 44.0818C41.344 46.8978 39.168 49.7138 36.864 52.6578L23.424 70.0659C18.944 75.9539 14.592 81.7139 9.856 87.3458C7.552 90.0339 5.12 92.8499 2.56 95.1539C2.56 94.5139 2.688 93.7458 2.816 92.9779C3.2 91.1859 3.712 89.5219 4.224 87.7299C8.832 73.9059 14.592 60.4658 20.096 46.8978C25.856 33.4578 31.616 20.0178 37.632 6.70585V6.57785C38.016 5.80985 35.072 4.52985 34.688 5.29785C28.8 18.7378 23.04 32.1778 17.408 45.7458C11.904 59.3138 6.4 73.0099 2.048 87.0899C1.536 88.8819 1.024 90.6739 0.639999 92.4659C0.511999 93.4899 0.256 94.3859 0.256 95.5378C0.256 95.7938 0.383999 96.1779 0.511999 96.5619C0.639999 96.6898 0.768 96.9459 0.895999 97.2019C1.152 97.4579 1.536 97.7139 1.792 97.7139C3.2 97.7139 3.456 97.2019 3.968 96.8179C6.784 94.2579 9.088 91.4419 11.52 88.6259C16.128 82.9939 20.608 77.1059 24.96 71.2178C29.312 65.3298 33.92 59.5698 38.528 53.9378C40.832 51.1218 43.136 48.3058 45.696 45.7458C46.848 44.4658 48.128 43.1858 49.536 42.0338C50.176 41.5218 50.944 41.0098 51.456 40.7538C51.584 40.7538 51.84 40.6258 51.84 40.6258C52.224 41.5218 52.096 43.6978 51.84 45.2338C51.712 47.0258 51.328 48.8178 51.072 50.6098L48.896 61.3618C47.36 68.5299 45.824 75.6979 45.056 83.1219C44.8 86.8339 44.416 90.6739 45.44 94.6418C45.696 95.7938 46.208 96.8179 47.104 97.8419C48 98.8659 49.536 99.3778 50.688 99.3778C53.376 99.1219 54.912 97.8419 56.576 96.8179C62.72 92.0819 67.328 86.3218 71.936 80.5618C87.168 61.7458 112.256 11.4418 107.776 0.817848ZM134.429 61.7458C129.693 66.0978 119.453 73.9059 119.069 67.2498C118.941 63.5378 120.733 58.8018 120.093 56.2418C119.965 55.7298 119.069 54.7058 118.301 54.1938C116.893 53.5538 114.717 55.0898 114.077 55.6018C108.317 59.4418 98.973 75.1859 98.973 75.1859C99.997 71.9859 100.893 68.9138 101.917 65.8418C102.941 62.7698 103.965 59.6978 105.117 56.6258C110.109 48.8178 115.229 41.1378 120.349 33.3298C123.165 28.9778 126.493 24.8818 128.157 19.6338C128.285 18.9938 128.413 18.2258 128.541 17.5858C128.541 16.8178 128.669 16.0498 128.029 15.0258C127.773 14.5138 126.877 14.1298 126.365 14.1298C125.853 14.2578 125.341 14.3858 125.085 14.5138C124.317 14.8978 123.805 15.4098 123.293 15.9218C121.245 17.7138 119.709 19.8898 118.173 22.0658C112.285 30.7698 108.189 40.3698 104.477 50.0978C102.557 54.9618 100.765 59.8258 99.357 64.8178C97.821 69.8098 96.413 75.8259 95.389 80.1779V80.3059C95.389 80.6898 95.517 80.9459 95.901 81.0739C96.285 81.2019 97.309 80.8179 97.309 80.8179C100.381 75.8259 103.197 71.4739 106.653 66.9938C110.237 62.2578 114.333 58.0338 115.485 57.2658C115.869 56.8818 116.381 56.6258 116.893 56.4978C116.893 57.3938 116.125 63.2818 115.869 64.6898C114.461 77.7458 124.317 72.1138 134.941 62.2578C135.197 61.4898 134.429 61.7458 134.429 61.7458ZM120.093 23.3458C121.373 21.1698 122.909 19.1218 124.701 17.4578C125.085 16.9458 125.597 16.5618 125.981 16.4338C126.237 16.3058 126.365 16.1778 126.493 16.1778C126.749 16.5618 126.621 18.0978 126.365 19.1218C125.085 23.9858 121.885 28.2098 119.069 32.5618C115.101 38.5778 111.133 44.7218 107.037 50.8658C110.749 41.3938 114.589 31.9218 120.093 23.3458ZM163.791 61.4898C149.711 70.0659 144.847 70.4499 150.351 57.7778C150.351 57.3938 149.327 56.6258 149.071 56.3698C148.687 56.1138 148.047 56.1138 147.791 56.6258C147.535 56.8818 147.279 57.1378 147.023 57.3938C143.951 55.6018 139.855 57.2658 137.167 59.3138C135.759 60.3378 134.479 61.6178 133.327 63.0258C132.815 63.7938 132.303 64.4338 131.791 65.3298C130.383 68.7859 132.175 69.9378 134.735 69.0419C136.655 68.4018 140.239 65.5858 141.519 64.5618C143.183 63.0258 144.847 61.6178 146.511 60.0818C142.159 70.3218 146.639 73.0099 164.175 62.1298C164.303 62.0018 164.047 61.3618 163.791 61.4898ZM140.623 63.4098C139.343 64.4338 138.063 65.3298 136.655 66.2258C136.015 66.6098 135.247 66.9938 134.607 67.1219C134.479 67.1219 134.479 67.1219 134.479 67.1219C134.479 66.9938 134.607 66.7378 134.735 66.6098C134.991 65.9698 135.375 65.3298 135.759 64.6898C136.655 63.5378 137.679 62.2578 138.831 61.2338C140.879 59.3138 143.567 57.6498 146.383 58.0338C144.591 59.9538 142.671 61.7458 140.623 63.4098ZM205.609 29.7458C198.057 30.3858 190.633 31.4098 183.209 32.8178H183.081C184.617 30.6418 186.025 28.2098 187.689 26.0338C188.841 24.3698 189.993 22.5778 190.889 20.6578C191.401 19.7618 191.785 18.8658 192.169 17.8418C192.297 17.2018 192.553 16.6898 192.553 16.0498C192.553 15.7938 192.553 15.4098 192.425 14.8978C192.297 14.2578 191.145 13.8738 190.761 14.1298C189.225 14.7698 188.713 15.5378 187.945 16.3058C187.305 17.2018 186.665 17.9698 186.025 18.8658C184.873 20.5298 183.721 22.3218 182.697 23.9858C180.777 27.3138 178.985 30.7698 177.193 34.0978C175.529 34.3538 173.865 34.7378 172.201 35.1218C168.489 36.0178 164.905 36.6578 161.193 38.7058C160.809 38.8338 161.705 40.3698 162.089 40.1138L162.217 39.9858C165.161 38.4498 169.001 37.5538 172.585 36.5298C173.737 36.2738 175.017 36.0178 176.297 35.6338C165.801 53.9378 152.617 79.6658 158.889 88.4979C159.913 89.9059 161.577 89.5219 162.729 89.2659C171.177 87.3458 191.145 68.6578 196.009 62.1298C196.137 61.8738 195.497 61.4898 195.369 61.6178C180.009 79.0259 162.345 90.8019 160.425 86.8339C157.865 80.6898 165.033 64.1778 171.305 51.6338C174.377 46.3858 177.577 41.2658 180.905 36.1458C181.161 35.5058 181.673 34.9938 182.057 34.3538C182.441 34.2258 182.953 34.0978 183.465 34.0978C190.761 32.6898 198.185 31.5378 205.609 30.8978C205.993 30.7698 206.249 30.5138 206.249 30.2578C206.121 30.0018 205.865 29.7458 205.609 29.7458ZM179.625 35.2498C178.729 36.5298 177.961 37.9378 177.193 39.2178C177.705 38.0658 178.217 36.9138 178.729 35.7618C178.857 35.5058 178.985 35.2498 179.113 34.9938C179.369 34.9938 179.625 34.8658 179.881 34.8658C179.753 34.9938 179.625 35.1218 179.625 35.2498ZM180.905 33.3298C180.649 33.3298 180.265 33.4578 180.009 33.4578C181.417 30.6418 182.825 27.6978 184.361 25.0098C185.385 23.2178 186.409 21.5538 187.561 19.8898C188.073 18.9938 188.713 18.2258 189.353 17.4578C189.737 16.9458 190.377 16.4338 190.761 16.0498C190.761 16.4338 190.633 16.8178 190.505 17.2018C190.249 18.0978 189.865 19.1218 189.353 19.8898C188.457 21.6818 187.433 23.4738 186.281 25.1378C184.489 27.8258 182.697 30.5138 180.905 33.3298ZM252.977 61.6178C248.625 64.9458 242.993 65.4578 242.993 62.1298C244.401 57.9058 244.401 55.3458 244.017 54.8338C243.505 54.1938 243.121 54.3218 242.225 54.8338C241.585 55.2178 239.281 59.8258 240.817 63.0258C238.897 69.2979 236.209 71.6019 234.545 71.6019C232.241 71.6019 230.833 66.7378 233.393 56.4978V56.3698C233.393 56.1138 232.241 55.2178 231.473 55.6018C230.705 55.9858 218.161 69.0419 218.673 65.4578C219.313 60.4658 222.257 55.6018 223.793 53.8098C224.305 53.2978 223.025 52.0178 221.489 52.7858C218.929 54.1938 215.857 62.3858 215.985 66.8658C215.985 68.5299 217.265 68.6578 217.777 68.5299C220.721 67.8898 229.425 59.8258 229.425 59.8258C228.657 64.3058 228.529 73.0099 232.369 73.5219C237.489 74.2899 240.561 68.7859 242.225 64.1778C244.273 66.3538 249.649 65.0738 253.233 62.0018C253.233 62.0018 253.105 61.6178 252.977 61.6178ZM274.221 60.8498C266.285 67.1219 251.053 72.1138 254.381 64.5618C257.197 63.9218 259.629 63.1538 261.933 61.3618C266.285 58.0338 262.957 56.4978 262.317 56.3698C261.677 56.1138 261.037 56.1138 260.397 56.1138C258.989 56.3698 257.837 56.8818 256.813 57.3938C254.765 58.6738 253.229 60.4658 251.949 62.3858C248.493 68.9138 252.973 70.0659 254.637 70.1938C258.605 70.3218 265.517 68.1458 274.733 61.3618C274.861 61.2338 274.349 60.7218 274.221 60.8498ZM258.349 59.5698C259.117 58.9298 259.885 58.4178 260.653 58.1618C262.189 57.6498 263.853 58.0338 261.037 60.3378C260.269 61.1058 257.965 62.5138 255.021 63.2818C256.045 62.0018 257.197 60.7218 258.349 59.5698ZM323.166 61.4898C309.086 70.0659 304.222 70.4499 309.726 57.7778C309.726 57.3938 308.702 56.6258 308.446 56.3698C308.062 56.1138 307.422 56.1138 307.166 56.6258C306.91 56.8818 306.654 57.1378 306.398 57.3938C303.326 55.6018 299.23 57.2658 296.542 59.3138C295.134 60.3378 293.854 61.6178 292.702 63.0258C292.19 63.7938 291.678 64.4338 291.166 65.3298C289.758 68.7859 291.55 69.9378 294.11 69.0419C296.03 68.4018 299.614 65.5858 300.894 64.5618C302.558 63.0258 304.222 61.6178 305.886 60.0818C301.534 70.3218 306.014 73.0099 323.55 62.1298C323.678 62.0018 323.422 61.3618 323.166 61.4898ZM299.998 63.4098C298.718 64.4338 297.438 65.3298 296.03 66.2258C295.39 66.6098 294.622 66.9938 293.982 67.1219C293.854 67.1219 293.854 67.1219 293.854 67.1219C293.854 66.9938 293.982 66.7378 294.11 66.6098C294.366 65.9698 294.75 65.3298 295.134 64.6898C296.03 63.5378 297.054 62.2578 298.206 61.2338C300.254 59.3138 302.942 57.6498 305.758 58.0338C303.966 59.9538 302.046 61.7458 299.998 63.4098ZM352.568 59.4418C366.008 38.5778 382.392 14.6418 373.048 18.3538C368.952 20.0178 361.4 32.1778 358.2 38.1938C355 44.2098 352.312 50.6098 350.392 57.2658C350.008 58.8018 349.624 60.3378 349.368 61.7458C329.272 86.0659 320.824 80.3059 325.56 61.4898C344.504 37.5538 353.976 23.4738 355.128 15.5378C355.64 12.7218 352.184 9.90585 345.528 17.2018C340.28 23.0898 335.928 29.8738 332.216 36.7858C328.504 43.8258 325.432 51.2498 323.256 59.0578C317.24 80.1779 326.072 91.8259 349.112 63.2818C346.936 77.4899 353.976 82.9939 374.584 62.1298C374.84 62.0018 374.712 61.4898 374.328 61.4898C353.72 81.3299 348.472 75.5698 352.568 59.4418ZM370.616 22.3218C372.024 20.6578 373.432 19.3778 374.072 18.9938C378.168 17.0738 360.248 44.5938 353.08 56.6258C356.792 42.5458 366.52 27.4418 370.616 22.3218ZM346.68 18.3538C348.216 16.5618 350.008 15.0258 350.776 14.5138C352.056 13.4898 354.104 13.4898 353.72 15.2818C352.312 24.4978 336.696 44.8498 326.328 58.2898C330.552 41.9058 341.944 24.3698 346.68 18.3538ZM421.24 61.4898C417.4 62.2578 413.304 63.2818 409.72 64.4338C411.768 61.4898 410.104 54.8338 403.448 56.1138C401.528 56.4978 399.864 57.6498 398.456 58.5458C399.48 56.2418 400.504 53.9378 401.656 51.6338C401.784 51.2498 401.016 49.3298 400.12 50.8658C397.944 54.4498 396.024 58.2898 394.232 62.0018C393.336 62.7698 392.568 63.5378 391.8 64.4338C391.672 64.6898 391.672 64.8178 391.8 64.9458C392.056 65.0738 392.184 65.0738 392.312 64.9458C392.568 64.6898 392.824 64.5618 393.08 64.3058C389.752 71.2178 380.024 98.4818 377.592 111.026C377.592 111.41 379.128 112.178 379.256 111.794C382.456 99.6339 390.776 74.8019 397.56 60.7218C403.448 55.0898 411.384 57.6498 405.496 65.8418C404.6 66.2258 403.832 66.4818 403.064 66.8658C401.528 67.5058 400.12 68.1458 398.712 69.0419C398.072 69.5539 397.432 70.0659 396.92 70.7058C396.28 71.2178 395.64 71.8579 395.512 73.0099C395.512 73.7779 396.536 74.0338 396.792 74.0338C400.12 73.7779 405.624 70.1938 409.08 65.5858C413.048 64.1778 417.144 63.0258 421.24 62.0018C421.368 61.8738 421.368 61.4898 421.24 61.4898ZM403.192 68.6578C402.168 69.8098 401.016 70.8338 399.736 71.7298C399.096 72.1138 398.456 72.4979 397.816 72.8819C397.176 73.1378 394.488 73.6498 399.48 70.0659C400.76 69.2979 402.936 68.0178 404.088 67.6339C403.832 67.8898 403.576 68.2738 403.192 68.6578ZM445.719 61.4898C435.479 68.1458 426.775 70.5779 429.975 65.2018C432.023 61.8738 431.383 60.4658 425.239 59.1858C425.495 58.8018 428.695 55.3458 427.671 53.1698C427.415 52.5298 426.647 52.2738 425.751 52.5298C423.959 53.0418 422.167 55.2178 421.527 56.3698C421.399 56.7538 420.887 57.9058 421.015 58.8018C421.271 59.9538 422.423 60.2098 423.063 60.3378C423.191 60.5938 423.447 60.7218 423.703 60.7218C424.087 60.5938 424.087 60.4658 424.343 60.3378C428.951 61.1058 428.567 62.3858 427.927 63.6658C426.903 65.5858 426.263 66.9938 426.391 68.0178C427.031 73.7779 441.751 64.8178 445.975 62.0018H446.103C446.231 61.8738 445.847 61.3618 445.719 61.4898ZM423.447 58.9298C421.783 58.9298 425.751 53.6818 426.519 54.1938C427.415 54.5778 424.983 58.0338 423.447 58.9298ZM465.706 61.6178C462.634 63.9218 459.69 65.0738 455.978 64.4338C455.978 64.4338 457.77 61.4898 455.978 59.6978C457.386 54.4498 446.89 55.9858 444.458 61.7458C441.13 69.5539 449.962 71.6019 455.466 65.3298C459.818 65.9698 462.25 64.8178 466.218 62.0018C466.346 61.8738 466.09 61.3618 465.706 61.6178ZM446.506 64.4338C446.89 61.7458 449.834 58.9298 452.138 58.0338C453.162 57.6498 455.85 57.3938 455.082 59.6978C452.65 60.0818 452.01 63.0258 454.186 64.6898C452.138 67.7618 445.994 69.9378 446.506 64.4338ZM454.698 63.7938C453.29 63.0258 453.93 60.0818 455.594 60.5938C456.106 60.7218 455.594 62.6418 454.698 63.7938ZM486.087 52.9138C480.583 51.8898 473.671 60.9778 469.191 67.5058C469.063 62.2578 469.831 57.6498 470.855 55.0898C470.855 54.0658 468.039 53.0418 467.783 53.9378C466.759 57.2658 465.991 62.0018 467.015 72.4979C467.015 73.0099 468.039 72.7538 468.295 72.3699C471.239 66.4818 481.351 52.0178 485.959 53.5538C486.343 53.2978 486.599 53.0418 486.087 52.9138ZM506.515 61.6178C500.371 65.7138 492.691 69.5539 491.155 67.1219C491.027 66.3538 491.283 65.0738 491.667 63.9218C492.435 61.6178 493.075 60.8498 494.355 58.6738C494.355 58.5458 494.355 58.5458 494.483 58.4178C494.739 57.6498 493.203 54.0658 491.283 57.3938C490.003 59.6978 489.491 60.8498 488.851 63.6658C488.083 66.3538 488.723 69.1698 491.539 69.4258C494.227 69.6818 500.499 66.7378 506.899 62.1298C507.155 62.0018 506.771 61.4898 506.515 61.6178ZM497.683 52.0178C497.811 51.6338 497.555 49.7138 496.659 50.6098C495.635 51.5058 493.843 52.4018 493.587 52.9138C493.203 53.9378 497.427 53.2978 497.683 52.0178ZM549.743 14.5138C549.743 14.2578 549.487 13.7458 549.103 13.4898C548.847 13.3618 548.591 13.1058 548.207 12.9778C546.671 12.4658 545.519 13.2338 544.751 13.8738C543.855 14.5138 543.215 15.1538 542.575 15.9218C541.295 17.3298 540.143 18.9938 539.247 20.5298C535.279 26.9298 532.079 33.7138 529.391 40.4978C527.599 45.1058 525.935 49.7138 524.271 54.3218C523.247 55.6018 522.351 56.7538 521.327 57.9058C520.175 56.6258 518.511 55.8578 516.719 55.8578C514.543 55.8578 512.495 56.7538 510.959 57.7778C507.631 59.9538 504.559 62.7698 503.407 66.9938C503.151 68.1458 502.895 69.6818 504.175 71.0899C505.711 72.2418 509.295 72.2418 513.263 68.7859C517.487 64.9458 520.815 61.7458 522.479 59.4418C522.223 60.0818 512.879 101.426 545.007 61.8738C545.007 61.7458 544.751 61.6178 544.495 61.4898C513.519 98.6099 526.447 56.1138 527.599 53.0418C530.159 49.8418 532.591 46.5138 534.895 43.1858C539.247 37.1698 543.343 30.8978 546.671 24.3698C547.567 22.7058 548.335 20.9138 548.975 19.1218C549.359 18.3538 549.615 17.3298 549.871 16.3058C549.871 15.7938 549.999 15.2818 549.743 14.5138ZM520.047 59.5698C517.487 62.2578 513.007 67.5058 507.887 69.2979C507.119 69.5539 505.583 70.3218 506.351 67.7618C507.119 64.9458 509.679 62.0018 512.367 60.0818C514.799 58.1618 518.767 56.1138 520.431 58.9298C520.303 59.1858 520.175 59.3138 520.047 59.5698ZM547.311 18.6098C546.671 20.2738 545.903 21.9378 545.007 23.4738C540.783 31.5378 535.791 39.2178 530.287 46.5138C530.927 44.9778 531.567 43.3138 532.207 41.7778C535.279 34.9938 537.967 28.2098 541.423 21.9378C542.319 20.2738 543.215 18.7378 544.367 17.3298C545.263 16.0498 546.927 14.6418 547.567 14.8978C548.335 14.6418 547.951 17.0738 547.311 18.6098ZM565.221 60.8498C557.285 67.1219 542.053 72.1138 545.381 64.5618C548.197 63.9218 550.629 63.1538 552.933 61.3618C557.285 58.0338 553.957 56.4978 553.317 56.3698C552.677 56.1138 552.037 56.1138 551.397 56.1138C549.989 56.3698 548.837 56.8818 547.813 57.3938C545.765 58.6738 544.229 60.4658 542.949 62.3858C539.493 68.9138 543.973 70.0659 545.637 70.1938C549.605 70.3218 556.517 68.1458 565.733 61.3618C565.861 61.2338 565.349 60.7218 565.221 60.8498ZM549.349 59.5698C550.117 58.9298 550.885 58.4178 551.653 58.1618C553.189 57.6498 554.853 58.0338 552.037 60.3378C551.269 61.1058 548.965 62.5138 546.021 63.2818C547.045 62.0018 548.197 60.7218 549.349 59.5698ZM602.39 61.6178C596.246 65.7138 588.566 69.5539 587.03 67.1219C586.902 66.3538 587.158 65.0738 587.542 63.9218C588.31 61.6178 588.95 60.8498 590.23 58.6738C590.23 58.5458 590.23 58.5458 590.358 58.4178C590.614 57.6498 589.078 54.0658 587.158 57.3938C585.878 59.6978 585.366 60.8498 584.726 63.6658C583.958 66.3538 584.598 69.1698 587.414 69.4258C590.102 69.6818 596.374 66.7378 602.774 62.1298C603.03 62.0018 602.646 61.4898 602.39 61.6178ZM593.558 52.0178C593.686 51.6338 593.43 49.7138 592.534 50.6098C591.51 51.5058 589.718 52.4018 589.462 52.9138C589.078 53.9378 593.302 53.2978 593.558 52.0178ZM632.946 61.4898C618.226 73.5219 619.122 69.1698 616.562 62.3858C615.538 59.3138 612.21 55.6018 603.89 64.3058C604.402 62.2578 606.962 58.1618 607.73 57.2658C608.37 56.7538 606.834 55.6018 604.786 56.8818C603.634 57.6498 600.69 64.9458 600.69 68.2738C600.562 69.5539 602.226 69.4258 602.226 69.4258C610.29 57.6498 612.466 59.6978 614.258 65.4578C616.818 74.0338 621.298 71.7298 633.33 62.1298C633.586 62.0018 633.074 61.3618 632.946 61.4898ZM89.728 146.49C86.784 146.618 81.024 147.77 79.36 148.41C82.048 142.01 83.84 135.482 84.736 128.826C85.12 124.858 85.248 120.89 84.352 116.922C83.84 115.002 83.2 112.954 81.408 111.546C79.744 109.882 76.544 110.01 74.496 111.546C74.24 111.674 74.112 111.93 73.856 112.058C71.168 110.01 68.48 107.962 65.408 106.298C61.952 104.506 58.112 103.226 53.888 103.61C49.536 103.866 45.312 105.914 41.984 108.73C38.528 111.546 35.712 114.874 33.28 118.33C28.416 125.242 24.576 132.794 22.784 140.986C22.4 143.034 22.144 145.21 22.528 147.386C22.784 149.434 24.32 151.994 27.008 152.122C29.312 152.506 31.616 151.738 33.536 150.714C35.584 149.946 37.376 148.666 39.168 147.514C46.208 142.65 52.352 136.89 58.368 131.13C61.312 128.186 64.256 125.114 67.072 122.17L71.424 117.562C71.936 117.05 72.448 116.538 72.832 116.026C73.6 116.154 74.24 116.026 74.752 115.386C75.136 114.874 75.264 114.362 75.264 113.85C75.392 113.722 75.52 113.594 75.648 113.594C78.72 111.546 80.896 114.49 81.408 117.946C81.92 121.402 81.792 125.114 81.408 128.954C80.512 135.994 78.464 142.906 75.392 149.69C63.104 153.914 50.816 158.778 39.04 164.922C31.616 168.762 24.448 173.114 17.792 178.234C14.464 180.922 11.392 183.738 8.576 187.066C6.016 190.394 3.2 194.234 3.2 198.714C3.072 201.018 4.224 203.194 5.888 204.346C7.68 205.626 9.728 206.138 11.776 206.138C16 206.522 20.096 205.37 24.064 203.962C32 201.146 38.912 196.026 45.568 190.906C58.624 180.41 70.272 167.354 77.568 152.25C77.952 151.61 78.208 150.842 78.592 150.074C80.64 149.306 86.272 147.77 89.856 147.13C90.24 147.002 90.112 146.49 89.728 146.49ZM69.888 116.154L65.664 120.762C62.72 123.706 59.776 126.65 56.832 129.466C50.816 135.226 44.544 140.858 37.888 145.338C34.56 147.386 30.72 149.562 27.776 149.306C25.088 148.922 25.216 144.698 25.984 141.242C27.648 133.818 31.488 126.522 35.84 119.866C40.32 113.338 46.208 106.554 53.632 106.042C60.672 105.658 66.432 110.138 71.04 114.874C70.656 115.386 70.272 115.77 69.888 116.154ZM44.032 188.858C37.504 193.85 30.72 198.842 23.424 201.53C19.712 202.81 15.872 203.834 12.288 203.578C8.704 203.578 5.504 201.658 5.632 198.33C5.504 195.002 7.936 191.418 10.368 188.346C12.928 185.274 15.872 182.586 19.072 179.898C25.472 174.906 32.512 170.554 39.808 166.714C51.072 160.698 62.72 155.706 74.624 151.482C67.712 165.818 56.576 178.49 44.032 188.858ZM114.594 146.49C104.354 153.146 95.65 155.578 98.85 150.202C100.898 146.874 100.258 145.466 94.114 144.186C94.37 143.802 97.57 140.346 96.546 138.17C96.29 137.53 95.522 137.274 94.626 137.53C92.834 138.042 91.042 140.218 90.402 141.37C90.274 141.754 89.762 142.906 89.89 143.802C90.146 144.954 91.298 145.21 91.938 145.338C92.066 145.594 92.322 145.722 92.578 145.722C92.962 145.594 92.962 145.466 93.218 145.338C97.826 146.106 97.442 147.386 96.802 148.666C95.778 150.586 95.138 151.994 95.266 153.018C95.906 158.778 110.626 149.818 114.85 147.002H114.978C115.106 146.874 114.722 146.362 114.594 146.49ZM92.322 143.93C90.658 143.93 94.626 138.682 95.394 139.194C96.29 139.578 93.858 143.034 92.322 143.93ZM154.037 146.746C151.605 147.77 146.229 148.026 143.413 147.386C143.285 147.002 143.157 146.746 142.901 146.49C142.645 142.65 137.525 143.674 134.709 146.746C134.581 146.746 134.581 146.746 134.581 146.746C131.509 149.05 128.565 150.33 124.853 149.562C124.853 149.562 126.645 146.618 124.853 144.954C126.389 139.706 115.893 141.242 113.333 146.874C110.005 154.81 118.837 156.858 124.341 150.458C128.053 151.098 130.485 150.202 133.557 148.154C133.301 148.666 133.045 149.178 132.917 149.69C131.893 153.274 133.685 155.45 135.989 155.578C141.109 155.962 143.669 151.226 143.541 148.41C146.613 148.794 151.477 148.41 154.165 147.002C154.421 147.002 154.293 146.49 154.037 146.746ZM115.509 149.69C115.765 146.874 118.709 144.058 121.013 143.162C122.165 142.778 124.725 142.65 123.957 144.826C121.525 145.338 121.013 148.154 123.061 149.818C121.013 153.018 114.869 155.066 115.509 149.69ZM123.573 148.922C122.293 148.282 122.805 145.338 124.469 145.85C124.981 145.978 124.469 147.77 123.573 148.922ZM141.493 150.97C140.085 153.914 135.349 156.602 135.221 151.738C135.093 149.306 137.397 146.49 139.317 145.466C140.597 144.698 141.621 145.338 142.005 146.49C141.365 146.49 140.853 147.642 142.005 148.026C142.133 148.026 142.133 148.154 142.133 148.154C142.133 148.922 142.005 149.946 141.493 150.97ZM198.663 146.49C184.327 157.626 184.071 154.426 182.535 147.898C181.895 144.698 178.055 142.138 171.271 148.282C174.343 140.602 171.399 138.938 169.095 139.706C165.255 140.858 158.727 147.258 155.911 150.074C154.887 149.434 158.599 143.418 159.623 140.986C160.007 140.474 158.215 139.066 156.679 140.73C153.735 143.546 151.431 152.122 151.943 153.402C152.455 154.81 153.863 154.426 153.863 154.426C156.679 150.842 161.927 145.722 166.791 142.778C170.631 140.474 170.887 141.882 167.175 151.226C166.791 152.378 169.351 152.506 169.351 152.506C176.263 143.546 179.207 145.466 179.847 149.306C181.511 158.266 187.143 156.73 199.175 147.002C199.303 146.874 198.919 146.362 198.663 146.49ZM215.765 146.618C209.621 150.714 201.941 154.554 200.405 152.122C200.277 151.354 200.533 150.074 200.917 148.922C201.685 146.618 202.325 145.85 203.605 143.674C203.605 143.546 203.605 143.546 203.733 143.418C203.989 142.65 202.453 139.066 200.533 142.394C199.253 144.698 198.741 145.85 198.101 148.666C197.333 151.354 197.973 154.17 200.789 154.426C203.477 154.682 209.749 151.738 216.149 147.13C216.405 147.002 216.021 146.49 215.765 146.618ZM206.933 137.018C207.061 136.634 206.805 134.714 205.909 135.61C204.885 136.506 203.093 137.402 202.837 137.914C202.453 138.938 206.677 138.298 206.933 137.018ZM246.321 146.49C231.601 158.522 232.497 154.17 229.937 147.386C228.913 144.314 225.585 140.602 217.265 149.306C217.777 147.258 220.337 143.162 221.105 142.266C221.745 141.754 220.209 140.602 218.161 141.882C217.009 142.65 214.065 149.946 214.065 153.274C213.937 154.554 215.601 154.426 215.601 154.426C223.665 142.65 225.841 144.698 227.633 150.458C230.193 159.034 234.673 156.73 246.705 147.13C246.961 147.002 246.449 146.362 246.321 146.49ZM275.559 146.362C271.591 148.41 266.855 151.738 263.143 154.554C263.527 153.018 265.063 145.722 265.063 143.418C264.935 142.394 262.375 139.706 261.607 140.73C260.839 141.626 258.407 144.058 258.407 144.186C257.767 143.29 256.999 142.522 255.847 142.266C254.695 141.882 253.415 141.882 252.263 142.266C250.087 142.906 248.295 144.442 246.887 145.978C245.351 147.642 243.943 149.946 243.559 152.25C243.175 154.938 246.503 154.426 247.527 154.042C253.543 151.61 262.247 142.906 262.247 142.906C262.247 142.906 262.247 143.29 262.247 143.418C262.119 145.21 261.607 147.258 261.223 149.05C260.455 152.122 259.559 155.194 258.535 158.266C257.383 159.162 256.231 160.186 255.079 161.21C249.063 166.586 244.583 170.938 239.591 177.338C237.159 180.538 234.727 183.866 232.551 187.322C230.503 190.778 228.327 194.362 227.303 198.586C227.175 199.738 226.919 200.89 227.559 202.298C227.943 203.066 228.583 203.706 229.351 203.962C230.119 204.09 230.631 204.218 231.271 204.218C233.703 204.218 235.751 203.194 237.543 202.042C241.127 199.61 243.815 196.282 246.119 192.954C253.799 181.946 258.791 169.018 262.631 156.474C266.599 153.146 271.463 149.562 275.815 147.002C275.943 146.874 275.687 146.362 275.559 146.362ZM248.935 151.61C248.039 152.122 247.143 152.634 246.375 152.89C246.247 152.89 246.119 152.89 245.991 152.89C245.991 152.89 245.991 152.762 245.991 152.634C246.503 151.226 248.039 149.434 249.063 147.898C251.367 145.338 254.567 142.522 257.767 144.698C254.951 147.258 252.135 149.946 248.935 151.61ZM253.799 171.834C250.727 179.258 248.295 184.762 243.943 191.418C241.639 194.618 239.207 197.818 236.135 199.994C234.599 201.018 232.935 201.786 231.271 201.786C227.175 201.658 232.423 191.802 234.471 188.474C236.519 185.018 238.823 181.818 241.255 178.618C246.119 172.218 250.343 167.866 256.103 162.234C256.743 161.722 257.255 161.21 257.895 160.57C256.615 164.41 255.335 168.122 253.799 171.834Z" fill="#A75B41"/>
</svg>
