<svg width="1072" height="363" viewBox="0 0 1072 363" fill="none" xmlns="http://www.w3.org/2000/svg">
<path opacity="0.05" d="M15 358V310.5L132 188.5C146.667 173.167 157.5 159 164.5 146C171.5 133 175 119.667 175 106C175 89 169.667 76.1667 159 67.5C148.333 58.8333 132.833 54.5 112.5 54.5C96.1667 54.5 80.5 57.5 65.5 63.5C50.5 69.1667 35.8333 78.1667 21.5 90.5L0.500001 42.5C14.8333 29.8333 32.5 19.6667 53.5 12C74.8333 4.33332 97.1667 0.499983 120.5 0.499983C158.5 0.499983 187.667 8.99998 208 26C228.333 43 238.5 67.3333 238.5 99C238.5 121 233.333 142 223 162C212.667 181.667 196.667 202.333 175 224L77.5 321.5V304.5H252.5V358H15ZM425.805 363C384.471 363 352.638 347.333 330.305 316C307.971 284.333 296.805 239.333 296.805 181C296.805 122 307.971 77.1667 330.305 46.5C352.638 15.8333 384.471 0.499983 425.805 0.499983C467.471 0.499983 499.305 15.8333 521.305 46.5C543.638 77.1667 554.805 121.833 554.805 180.5C554.805 239.167 543.638 284.333 521.305 316C499.305 347.333 467.471 363 425.805 363ZM425.805 310C448.471 310 465.305 299.667 476.305 279C487.305 258 492.805 225.167 492.805 180.5C492.805 135.833 487.305 103.5 476.305 83.5C465.305 63.1667 448.471 53 425.805 53C403.471 53 386.638 63.1667 375.305 83.5C364.305 103.5 358.805 135.833 358.805 180.5C358.805 225.167 364.305 258 375.305 279C386.638 299.667 403.471 310 425.805 310ZM614.609 358V310.5L731.609 188.5C746.276 173.167 757.109 159 764.109 146C771.109 133 774.609 119.667 774.609 106C774.609 89 769.276 76.1667 758.609 67.5C747.943 58.8333 732.443 54.5 712.109 54.5C695.776 54.5 680.109 57.5 665.109 63.5C650.109 69.1667 635.443 78.1667 621.109 90.5L600.109 42.5C614.443 29.8333 632.109 19.6667 653.109 12C674.443 4.33332 696.776 0.499983 720.109 0.499983C758.109 0.499983 787.276 8.99998 807.609 26C827.943 43 838.109 67.3333 838.109 99C838.109 121 832.943 142 822.609 162C812.276 181.667 796.276 202.333 774.609 224L677.109 321.5V304.5H852.109V358H614.609ZM1025.41 363C984.081 363 952.247 347.333 929.914 316C907.581 284.333 896.414 239.333 896.414 181C896.414 122 907.581 77.1667 929.914 46.5C952.247 15.8333 984.081 0.499983 1025.41 0.499983C1067.08 0.499983 1098.91 15.8333 1120.91 46.5C1143.25 77.1667 1154.41 121.833 1154.41 180.5C1154.41 239.167 1143.25 284.333 1120.91 316C1098.91 347.333 1067.08 363 1025.41 363ZM1025.41 310C1048.08 310 1064.91 299.667 1075.91 279C1086.91 258 1092.41 225.167 1092.41 180.5C1092.41 135.833 1086.91 103.5 1075.91 83.5C1064.91 63.1667 1048.08 53 1025.41 53C1003.08 53 986.247 63.1667 974.914 83.5C963.914 103.5 958.414 135.833 958.414 180.5C958.414 225.167 963.914 258 974.914 279C986.247 299.667 1003.08 310 1025.41 310Z" fill="black"/>
</svg>
