<svg width="1153" height="363" viewBox="0 0 1153 363" fill="none" xmlns="http://www.w3.org/2000/svg">
<path opacity="0.05" d="M15.1094 358V310.5L132.109 188.5C146.776 173.167 157.609 159 164.609 146C171.609 133 175.109 119.667 175.109 106C175.109 89 169.776 76.1667 159.109 67.5C148.443 58.8333 132.943 54.5 112.609 54.5C96.276 54.5 80.6094 57.5 65.6094 63.5C50.6094 69.1667 35.9427 78.1667 21.6094 90.5L0.609376 42.5C14.9427 29.8333 32.6094 19.6667 53.6094 12C74.9427 4.33332 97.276 0.499983 120.609 0.499983C158.609 0.499983 187.776 8.99998 208.109 26C228.443 43 238.609 67.3333 238.609 99C238.609 121 233.443 142 223.109 162C212.776 181.667 196.776 202.333 175.109 224L77.6094 321.5V304.5H252.609V358H15.1094ZM425.914 363C384.581 363 352.747 347.333 330.414 316C308.081 284.333 296.914 239.333 296.914 181C296.914 122 308.081 77.1667 330.414 46.5C352.747 15.8333 384.581 0.499983 425.914 0.499983C467.581 0.499983 499.414 15.8333 521.414 46.5C543.747 77.1667 554.914 121.833 554.914 180.5C554.914 239.167 543.747 284.333 521.414 316C499.414 347.333 467.581 363 425.914 363ZM425.914 310C448.581 310 465.414 299.667 476.414 279C487.414 258 492.914 225.167 492.914 180.5C492.914 135.833 487.414 103.5 476.414 83.5C465.414 63.1667 448.581 53 425.914 53C403.581 53 386.747 63.1667 375.414 83.5C364.414 103.5 358.914 135.833 358.914 180.5C358.914 225.167 364.414 258 375.414 279C386.747 299.667 403.581 310 425.914 310ZM614.719 358V310.5L731.719 188.5C746.385 173.167 757.219 159 764.219 146C771.219 133 774.719 119.667 774.719 106C774.719 89 769.385 76.1667 758.719 67.5C748.052 58.8333 732.552 54.5 712.219 54.5C695.885 54.5 680.219 57.5 665.219 63.5C650.219 69.1667 635.552 78.1667 621.219 90.5L600.219 42.5C614.552 29.8333 632.219 19.6667 653.219 12C674.552 4.33332 696.885 0.499983 720.219 0.499983C758.219 0.499983 787.385 8.99998 807.719 26C828.052 43 838.219 67.3333 838.219 99C838.219 121 833.052 142 822.719 162C812.385 181.667 796.385 202.333 774.719 224L677.219 321.5V304.5H852.219V358H614.719ZM931.023 358V304.5H1012.02V59.5H1043.02L939.023 121.5V60.5L1030.52 5.49998H1076.52V304.5H1152.52V358H931.023Z" fill="black"/>
</svg>
