<svg width="1224" height="440" viewBox="0 0 1224 440" fill="none" xmlns="http://www.w3.org/2000/svg">
<path opacity="0.1" d="M289.516 355.699V432.164H0.941406C4.06641 403.258 13.4414 375.914 29.0664 350.133C44.6914 324.156 75.5508 289.781 121.645 247.008C158.754 212.438 181.508 189 189.906 176.695C201.234 159.703 206.898 142.906 206.898 126.305C206.898 107.945 201.918 93.8828 191.957 84.1172C182.191 74.1562 168.617 69.1758 151.234 69.1758C134.047 69.1758 120.375 74.3516 110.219 84.7031C100.062 95.0547 94.2031 112.242 92.6406 136.266L10.6094 128.062C15.4922 82.75 30.8242 50.2305 56.6055 30.5039C82.3867 10.7773 114.613 0.914062 153.285 0.914062C195.668 0.914062 228.969 12.3398 253.188 35.1914C277.406 58.043 289.516 86.4609 289.516 120.445C289.516 139.781 286 158.238 278.969 175.816C272.133 193.199 261.195 211.461 246.156 230.602C236.195 243.297 218.227 261.559 192.25 285.387C166.273 309.215 149.77 325.035 142.738 332.848C135.902 340.66 130.336 348.277 126.039 355.699H289.516ZM484.633 0.914062C526.234 0.914062 558.754 15.7578 582.191 45.4453C610.121 80.6016 624.086 138.902 624.086 220.348C624.086 301.598 610.023 359.996 581.898 395.543C558.656 424.84 526.234 439.488 484.633 439.488C442.836 439.488 409.145 423.473 383.559 391.441C357.973 359.215 345.18 301.891 345.18 219.469C345.18 138.609 359.242 80.4062 387.367 44.8594C410.609 15.5625 443.031 0.914062 484.633 0.914062ZM484.633 69.1758C474.672 69.1758 465.785 72.3984 457.973 78.8438C450.16 85.0937 444.105 96.4219 439.809 112.828C434.145 134.117 431.312 169.957 431.312 220.348C431.312 270.738 433.852 305.406 438.93 324.352C444.008 343.102 450.355 355.602 457.973 361.852C465.785 368.102 474.672 371.227 484.633 371.227C494.594 371.227 503.48 368.102 511.293 361.852C519.105 355.406 525.16 343.98 529.457 327.574C535.121 306.48 537.953 270.738 537.953 220.348C537.953 169.957 535.414 135.387 530.336 116.637C525.258 97.6914 518.812 85.0937 511 78.8438C503.383 72.3984 494.594 69.1758 484.633 69.1758ZM957.484 355.699V432.164H668.91C672.035 403.258 681.41 375.914 697.035 350.133C712.66 324.156 743.52 289.781 789.613 247.008C826.723 212.438 849.477 189 857.875 176.695C869.203 159.703 874.867 142.906 874.867 126.305C874.867 107.945 869.887 93.8828 859.926 84.1172C850.16 74.1562 836.586 69.1758 819.203 69.1758C802.016 69.1758 788.344 74.3516 778.188 84.7031C768.031 95.0547 762.172 112.242 760.609 136.266L678.578 128.062C683.461 82.75 698.793 50.2305 724.574 30.5039C750.355 10.7773 782.582 0.914062 821.254 0.914062C863.637 0.914062 896.938 12.3398 921.156 35.1914C945.375 58.043 957.484 86.4609 957.484 120.445C957.484 139.781 953.969 158.238 946.938 175.816C940.102 193.199 929.164 211.461 914.125 230.602C904.164 243.297 886.195 261.559 860.219 285.387C834.242 309.215 817.738 325.035 810.707 332.848C803.871 340.66 798.305 348.277 794.008 355.699H957.484ZM1291.47 355.699V432.164H1002.89C1006.02 403.258 1015.39 375.914 1031.02 350.133C1046.64 324.156 1077.5 289.781 1123.6 247.008C1160.71 212.438 1183.46 189 1191.86 176.695C1203.19 159.703 1208.85 142.906 1208.85 126.305C1208.85 107.945 1203.87 93.8828 1193.91 84.1172C1184.14 74.1562 1170.57 69.1758 1153.19 69.1758C1136 69.1758 1122.33 74.3516 1112.17 84.7031C1102.02 95.0547 1096.16 112.242 1094.59 136.266L1012.56 128.062C1017.45 82.75 1032.78 50.2305 1058.56 30.5039C1084.34 10.7773 1116.57 0.914062 1155.24 0.914062C1197.62 0.914062 1230.92 12.3398 1255.14 35.1914C1279.36 58.043 1291.47 86.4609 1291.47 120.445C1291.47 139.781 1287.95 158.238 1280.92 175.816C1274.09 193.199 1263.15 211.461 1248.11 230.602C1238.15 243.297 1220.18 261.559 1194.2 285.387C1168.23 309.215 1151.72 325.035 1144.69 332.848C1137.86 340.66 1132.29 348.277 1127.99 355.699H1291.47Z" fill="black"/>
</svg>
