<svg width="1076" height="367" viewBox="0 0 1076 367" fill="none" xmlns="http://www.w3.org/2000/svg">
<path opacity="0.05" d="M240.93 296.279V360H0.451172C3.05534 335.911 10.8678 313.125 23.8887 291.641C36.9095 269.993 62.6257 241.348 101.037 205.703C131.962 176.895 150.923 157.363 157.922 147.109C167.362 132.949 172.082 118.952 172.082 105.117C172.082 89.8177 167.932 78.099 159.631 69.9609C151.493 61.6602 140.181 57.5098 125.695 57.5098C111.372 57.5098 99.9792 61.8229 91.5156 70.4492C83.0521 79.0755 78.1693 93.3984 76.8672 113.418L8.50781 106.582C12.5768 68.8216 25.3535 41.722 46.8379 25.2832C68.3223 8.8444 95.1777 0.625 127.404 0.625C162.723 0.625 190.474 10.1465 210.656 29.1895C230.839 48.2324 240.93 71.9141 240.93 100.234C240.93 116.348 238 131.729 232.141 146.377C226.444 160.863 217.329 176.081 204.797 192.031C196.496 202.611 181.522 217.829 159.875 237.686C138.228 257.542 124.475 270.726 118.615 277.236C112.919 283.747 108.28 290.094 104.699 296.279H240.93ZM403.527 0.625C438.195 0.625 465.295 12.9948 484.826 37.7344C508.101 67.0312 519.738 115.615 519.738 183.486C519.738 251.195 508.02 299.86 484.582 329.482C465.214 353.896 438.195 366.104 403.527 366.104C368.697 366.104 340.62 352.757 319.299 326.064C297.977 299.209 287.316 251.439 287.316 182.754C287.316 115.371 299.035 66.8685 322.473 37.2461C341.841 12.832 368.859 0.625 403.527 0.625ZM403.527 57.5098C395.227 57.5098 387.821 60.1953 381.311 65.5664C374.8 70.7747 369.755 80.2148 366.174 93.8867C361.454 111.628 359.094 141.494 359.094 183.486C359.094 225.479 361.21 254.368 365.441 270.156C369.673 285.781 374.963 296.198 381.311 301.406C387.821 306.615 395.227 309.219 403.527 309.219C411.828 309.219 419.234 306.615 425.744 301.406C432.255 296.035 437.3 286.514 440.881 272.842C445.601 255.264 447.961 225.479 447.961 183.486C447.961 141.494 445.845 112.686 441.613 97.0605C437.382 81.2728 432.01 70.7747 425.5 65.5664C419.152 60.1953 411.828 57.5098 403.527 57.5098ZM797.57 296.279V360H557.092C559.696 335.911 567.508 313.125 580.529 291.641C593.55 269.993 619.266 241.348 657.678 205.703C688.602 176.895 707.564 157.363 714.562 147.109C724.003 132.949 728.723 118.952 728.723 105.117C728.723 89.8177 724.572 78.099 716.271 69.9609C708.133 61.6602 696.822 57.5098 682.336 57.5098C668.013 57.5098 656.62 61.8229 648.156 70.4492C639.693 79.0755 634.81 93.3984 633.508 113.418L565.148 106.582C569.217 68.8216 581.994 41.722 603.479 25.2832C624.963 8.8444 651.818 0.625 684.045 0.625C719.364 0.625 747.115 10.1465 767.297 29.1895C787.479 48.2324 797.57 71.9141 797.57 100.234C797.57 116.348 794.641 131.729 788.781 146.377C783.085 160.863 773.97 176.081 761.438 192.031C753.137 202.611 738.163 217.829 716.516 237.686C694.868 257.542 681.115 270.726 675.256 277.236C669.559 283.747 664.921 290.094 661.34 296.279H797.57ZM1075.89 296.279V360H835.412C838.016 335.911 845.829 313.125 858.85 291.641C871.87 269.993 897.587 241.348 935.998 205.703C966.923 176.895 985.884 157.363 992.883 147.109C1002.32 132.949 1007.04 118.952 1007.04 105.117C1007.04 89.8177 1002.89 78.099 994.592 69.9609C986.454 61.6602 975.142 57.5098 960.656 57.5098C946.333 57.5098 934.94 61.8229 926.477 70.4492C918.013 79.0755 913.13 93.3984 911.828 113.418L843.469 106.582C847.538 68.8216 860.314 41.722 881.799 25.2832C903.283 8.8444 930.139 0.625 962.365 0.625C997.684 0.625 1025.43 10.1465 1045.62 29.1895C1065.8 48.2324 1075.89 71.9141 1075.89 100.234C1075.89 116.348 1072.96 131.729 1067.1 146.377C1061.4 160.863 1052.29 176.081 1039.76 192.031C1031.46 202.611 1016.48 217.829 994.836 237.686C973.189 257.542 959.436 270.726 953.576 277.236C947.88 283.747 943.241 290.094 939.66 296.279H1075.89Z" fill="black"/>
</svg>
