<svg width="228" height="78" viewBox="0 0 228 78" fill="none" xmlns="http://www.w3.org/2000/svg">
<path d="M34.4824 77.1895C39.5449 77.1895 44.2324 76.0645 48.5449 73.8145C52.8574 71.5645 56.4199 68.6582 59.2793 65.0488C62.1387 61.4395 64.3887 57.3613 66.0293 52.8145C67.6699 48.2676 68.4668 43.627 68.4668 38.8926C68.4668 32.2832 67.0605 26.0957 64.248 20.2832C61.4355 14.4707 57.4043 9.73633 52.1074 6.08008C46.8105 2.42383 40.9512 0.595703 34.4824 0.595703C29.4668 0.595703 24.8262 1.7207 20.5137 3.9707C16.2012 6.2207 12.5918 9.12695 9.68555 12.7363C6.7793 16.3457 4.5293 20.4238 2.93555 25.0176C1.3418 29.6113 0.544922 34.2988 0.544922 39.0332C0.544922 45.6426 1.95117 51.8301 4.76367 57.6426C7.57617 63.4551 11.6074 68.1895 16.8574 71.8926C22.1074 75.5957 27.9668 77.4238 34.4355 77.4238L34.4824 77.1895ZM12.1699 41.4238V37.8613C12.1699 33.3145 12.3105 29.377 12.6387 26.002C12.9668 22.627 13.5762 19.2988 14.5137 15.9707C15.4512 12.6426 16.8574 9.87695 18.7324 7.7207C20.6074 5.56445 22.9512 4.01758 25.7637 3.0332C28.7637 2.14258 31.6699 1.67383 34.4824 1.67383C37.623 1.67383 40.6699 2.14258 43.623 3.12695C46.3887 4.1582 48.6855 5.75195 50.5137 7.9082C52.3418 10.0645 53.7012 12.7832 54.5918 16.0645C55.4824 19.3457 56.0918 22.6738 56.4199 26.002C56.748 29.3301 56.8887 33.2676 56.8887 37.8145V41.377C56.8887 44.8926 56.8418 47.7051 56.748 49.8145C56.6543 51.9238 56.373 54.502 55.9512 57.502C55.5293 60.502 54.9199 62.9395 54.0762 64.8145C53.2324 66.6895 52.0137 68.5645 50.4199 70.3926C48.8262 72.2207 46.8574 73.627 44.5605 74.6113C41.2324 75.7832 37.8574 76.3926 34.4355 76.3926C31.2949 76.4395 28.0137 75.8301 24.5449 74.6113C22.248 73.627 20.2793 72.2676 18.6855 70.4863C17.0918 68.7051 15.873 66.877 15.0293 65.002C14.1855 63.127 13.5293 60.6895 13.0605 57.6895C12.5918 54.6895 12.3105 52.1113 12.2168 49.9551C12.123 47.7988 12.0762 44.9863 12.0762 41.5176L12.1699 41.4238ZM150.732 1.62695V0.595703H126.076V1.62695H137.889V54.5488C137.889 61.3457 135.498 66.6426 130.717 70.4863C125.936 74.3301 119.842 76.252 112.482 76.252C102.311 76.252 97.2012 68.6582 97.2012 53.5176V1.67383H108.826V0.642578H74.9355V1.67383H86.748V54.5957C86.748 61.5801 89.2324 67.1113 94.2012 71.1895C99.1699 75.2676 105.357 77.2832 112.811 77.2832C120.357 77.2832 126.592 75.2676 131.514 71.1895C136.436 67.1113 138.873 61.5801 138.873 54.5957V1.67383L150.732 1.62695ZM219.029 77.5645C221.889 77.5645 224.842 76.9551 227.889 75.7363L227.514 74.7988C225.732 75.2207 224.42 75.4551 223.576 75.4551C220.529 75.4551 218.42 73.9551 217.295 70.9551C216.17 67.9551 215.607 62.7051 215.607 55.2051C215.561 45.4082 209.373 39.3145 197.045 36.9238C203.279 36.3145 208.295 34.2988 212.139 30.877C215.982 27.4551 217.904 23.377 217.904 18.6895C217.904 13.4395 215.607 9.08008 211.014 5.61133C206.42 2.14258 200.889 0.408203 194.42 0.408203H182.42H171.779H160.436V1.43945H171.779V76.1113H160.436V77.1895H171.779H182.42H193.764V76.1113H182.42V36.9707H185.795C189.967 36.9707 193.201 37.252 195.498 37.7676C197.795 38.2832 199.764 39.4082 201.451 41.0957C203.139 42.7832 204.264 45.1738 204.826 48.2207C205.389 51.2676 205.67 55.4395 205.67 60.6895C205.67 61.9082 205.717 63.0332 205.764 64.0176C205.811 65.002 206.092 66.4082 206.607 68.2363C207.123 70.0645 207.826 71.6113 208.67 72.877C209.514 74.1426 210.826 75.2676 212.654 76.2051C214.482 77.1426 216.639 77.6113 219.123 77.6113L219.029 77.5645ZM182.467 36.0332V1.58008H194.373C198.92 1.58008 202.436 3.26758 204.967 6.68945C207.498 10.1113 208.764 14.0957 208.764 18.6895C208.764 23.3301 207.498 27.4082 204.92 30.877C202.342 34.3457 198.826 36.0801 194.373 36.0801L182.467 36.0332Z" fill="black"/>
</svg>
