<svg width="256" height="170" viewBox="0 0 256 170" fill="none" xmlns="http://www.w3.org/2000/svg">
<path d="M148.93 31.2992C148.53 28.8992 147.33 26.4992 146.73 23.8992C145.13 21.8992 144.33 19.0992 142.13 17.4992L139.13 14.6992L135.73 12.8992C133.53 11.2992 130.73 11.2992 128.33 10.4992C125.73 10.0992 123.33 10.2992 120.73 10.2992C118.13 10.4992 115.73 10.8992 113.33 11.2992C103.73 13.4992 94.5297 16.8992 85.9297 21.6992C84.1297 22.4992 82.1297 23.6992 80.1297 24.6992C83.5297 17.8992 86.7297 11.0992 90.1297 4.29921C90.7297 2.89921 85.5297 0.299217 84.9297 1.69922C80.5297 10.8992 76.3297 20.0992 72.3297 29.0992C59.5297 36.4992 40.1297 50.6992 38.7297 52.6992C37.1297 54.6992 38.9297 56.6992 39.7297 56.0992C49.3297 48.2992 59.3297 40.8992 69.9297 34.4992C63.7297 48.2992 57.7297 62.0992 52.3297 76.0992C45.9297 92.4992 39.9297 108.899 33.9297 125.499C26.1297 128.499 18.3297 132.299 11.7297 137.899C7.92969 141.099 4.52969 144.899 2.32968 149.899C1.32969 152.099 0.729685 155.099 1.32969 157.899C1.72969 160.699 3.52969 163.499 5.72969 165.099C10.3297 168.499 15.7297 168.899 20.7297 169.099C25.7297 169.299 30.7297 168.499 35.5297 167.699C44.9297 165.499 54.5297 162.899 63.3297 158.499C81.1297 150.299 96.7297 137.899 109.93 123.699C116.73 116.499 122.73 108.899 128.13 100.699C133.53 92.6992 138.13 83.8992 141.93 74.8992C145.73 65.8992 148.33 56.2992 149.33 46.4992C149.93 41.4992 149.73 36.4992 148.93 31.2992ZM144.33 45.8992C143.33 55.0992 140.53 64.0992 136.73 72.6992C129.33 89.8992 118.93 106.299 106.13 120.099C93.3297 133.899 78.3297 146.099 61.1297 154.099C52.7297 158.299 43.7297 160.899 34.5297 163.299C29.9297 164.099 25.3297 164.899 20.7297 164.899C16.3297 164.699 11.5297 164.299 8.32969 161.899C4.72969 159.499 4.12969 155.299 5.92969 151.299C7.52969 147.299 10.7297 143.699 14.1297 140.499C19.5297 135.899 25.9297 132.299 32.5297 129.499C29.9297 137.099 27.1297 144.699 24.5297 152.299C24.1297 153.099 27.1297 154.099 27.5297 153.299C30.7297 144.699 33.9297 136.299 37.1297 127.699C37.5297 127.499 38.1297 127.299 38.5297 127.099C56.5297 120.899 75.9297 119.499 94.9297 120.899C95.5297 120.899 95.7297 118.899 95.1297 118.899C76.3297 117.099 56.7297 118.099 38.5297 123.899C44.3297 108.499 50.1297 93.0992 56.5297 77.6992C63.1297 61.4992 70.3297 45.4992 77.9297 29.4992C81.1297 27.6992 84.1297 25.8992 87.3297 24.2992C95.9297 19.8992 104.93 16.6992 113.93 14.8992C122.93 13.0992 133.13 14.0992 138.93 20.4992C140.73 21.8992 141.13 24.0992 142.53 25.8992C142.93 28.0992 144.13 29.8992 144.33 32.2992C144.93 36.6992 144.93 41.2992 144.33 45.8992ZM180.291 98.2992C167.891 108.099 144.091 115.899 149.291 104.099C153.691 103.099 157.491 101.899 161.091 99.0992C167.891 93.8992 162.691 91.4992 161.691 91.2992C160.691 90.8992 159.691 90.8992 158.691 90.8992C156.491 91.2992 154.691 92.0992 153.091 92.8992C149.891 94.8992 147.491 97.6992 145.491 100.699C140.091 110.899 147.091 112.699 149.691 112.899C155.891 113.099 166.691 109.699 181.091 99.0992C181.291 98.8992 180.491 98.0992 180.291 98.2992ZM155.491 96.2992C156.691 95.2992 157.891 94.4992 159.091 94.0992C161.491 93.2992 164.091 93.8992 159.691 97.4992C158.491 98.6992 154.891 100.899 150.291 102.099C151.891 100.099 153.691 98.0992 155.491 96.2992ZM208.131 99.2992C200.531 102.099 192.931 105.299 185.731 109.299V109.099C185.931 106.499 185.931 103.699 185.931 101.099C186.131 97.8992 186.131 94.6992 186.531 91.6992C190.131 89.6992 193.331 87.0992 195.331 83.4992C197.331 80.0992 196.931 75.8992 191.131 78.4992C187.531 80.0992 182.531 84.6992 181.931 92.4992C181.731 92.4992 181.531 92.6992 181.331 92.6992C181.131 92.8992 180.931 93.0992 180.931 93.4992C181.131 93.6992 181.331 93.8992 181.731 93.8992C181.731 93.6992 181.731 93.6992 181.731 93.6992C181.331 96.0992 180.931 108.499 180.931 112.099C179.731 112.899 178.531 113.699 177.531 114.499C175.131 116.099 172.931 117.899 171.131 120.299C170.331 121.499 169.531 122.899 169.531 124.699C169.331 126.299 170.331 128.099 172.131 128.899C175.731 130.299 179.331 128.299 181.531 125.899C183.531 123.499 184.531 120.499 185.331 117.699C185.731 115.299 185.731 113.099 185.731 110.899C193.131 106.699 200.731 103.299 208.531 100.099C208.731 99.8992 208.531 99.0992 208.131 99.2992ZM187.931 85.6992C189.131 81.8992 197.731 75.0992 194.131 82.8992C192.531 86.0992 189.931 88.6992 186.731 90.4992C186.931 88.8992 187.331 87.2992 187.931 85.6992ZM180.931 117.099C180.531 119.499 179.931 122.099 178.731 123.899C177.531 125.899 175.131 127.499 173.131 126.899C171.131 126.299 171.131 123.299 172.531 121.099C173.931 118.899 175.931 117.099 178.331 115.499C179.131 114.899 180.131 114.299 180.931 113.899C180.931 114.899 180.931 116.099 180.931 117.099ZM254.48 99.2992C229.48 121.099 223.68 115.299 219.08 105.299C238.88 95.4992 236.48 88.2992 229.08 90.0992C221.88 91.8992 214.88 96.8992 210.08 104.099C212.08 97.8992 212.88 96.4992 214.68 91.0992C226.08 76.2992 242.08 55.0992 248.28 39.0992C252.48 28.0992 249.68 24.2992 242.48 29.4992C223.08 47.4992 206.08 101.699 203.48 110.299C202.08 114.699 198.88 126.899 198.88 126.899C198.88 126.899 198.68 128.899 198.88 129.099C198.88 129.499 201.28 129.699 201.48 129.099C207.08 110.099 215.48 99.0992 224.68 94.0992C226.28 93.2992 228.28 92.2992 229.68 92.2992C233.88 91.6992 223.48 100.699 215.08 103.499C212.68 104.899 215.28 109.699 216.68 111.899C222.68 121.299 233.68 120.099 255.28 100.099C255.68 99.6992 254.88 99.0992 254.48 99.2992ZM241.88 34.8992C247.68 27.2992 249.88 28.8992 246.28 37.8992C241.68 48.6992 235.88 59.2992 216.48 84.0992C223.68 64.8992 231.28 48.8992 241.88 34.8992Z" fill="#A75B41"/>
</svg>
