<svg width="98" height="98" viewBox="0 0 98 98" fill="none" xmlns="http://www.w3.org/2000/svg">
<path d="M60.7728 1H6.49388C5.11762 1 3.79773 1.54672 2.82457 2.51988C1.8514 3.49304 1.30469 4.81293 1.30469 6.18919V91.8108C1.30469 93.1871 1.8514 94.507 2.82457 95.4801C3.79773 96.4533 5.11762 97 6.49388 97H92.1155C93.4918 97 94.8116 96.4533 95.7848 95.4801C96.758 94.507 97.3047 93.1871 97.3047 91.8108V37.5319" stroke="black" stroke-linecap="round" stroke-linejoin="round"/>
<path d="M49.3052 21.7442L56.4305 41.8012H75.5625L59.9513 53.5812L65.534 74.2528L49.3052 61.8582L33.0794 74.2528L38.6591 53.5812L23.0449 41.8012H42.1769L49.3052 21.7442Z" fill="black"/>
</svg>
