<svg width="98" height="98" viewBox="0 0 98 98" fill="none" xmlns="http://www.w3.org/2000/svg">
<path d="M60.7728 1H6.49388C5.11762 1 3.79773 1.54672 2.82457 2.51988C1.8514 3.49304 1.30469 4.81293 1.30469 6.18919V91.8108C1.30469 93.1871 1.8514 94.507 2.82457 95.4801C3.79773 96.4533 5.11762 97 6.49388 97H92.1155C93.4918 97 94.8116 96.4533 95.7848 95.4801C96.758 94.507 97.3047 93.1871 97.3047 91.8108V37.5319" stroke="black" stroke-linecap="round" stroke-linejoin="round"/>
<path d="M37.6309 46.4054L45.4146 54.1892L58.3876 41.2162" stroke="black" stroke-width="1.5" stroke-linecap="round" stroke-linejoin="round"/>
<path d="M48.0084 72.3514C62.3384 72.3514 73.9544 60.7354 73.9544 46.4055C73.9544 32.0755 62.3384 20.4595 48.0084 20.4595C33.6785 20.4595 22.0625 32.0755 22.0625 46.4055C22.0625 51.1302 23.3261 55.5644 25.5341 59.3784L23.3598 71.0541L35.0355 68.8798C38.9781 71.1606 43.4537 72.3583 48.0084 72.3514V72.3514Z" stroke="black" stroke-width="1.5" stroke-linecap="round" stroke-linejoin="round"/>
</svg>
