<svg width="99" height="99" viewBox="0 0 99 99" fill="none" xmlns="http://www.w3.org/2000/svg">
<path d="M47.9955 56.0541C49.7337 56.0541 51.4008 55.3635 52.6299 54.1344C53.859 52.9053 54.5495 51.2383 54.5495 49.5C54.5495 47.7618 53.859 46.0947 52.6299 44.8656C51.4008 43.6365 49.7337 42.946 47.9955 42.946C46.2572 42.946 44.5902 43.6365 43.361 44.8656C42.1319 46.0947 41.4414 47.7618 41.4414 49.5C41.4414 51.2383 42.1319 52.9053 43.361 54.1344C44.5902 55.3635 46.2572 56.0541 47.9955 56.0541Z" fill="black"/>
<path fill-rule="evenodd" clip-rule="evenodd" d="M66.5317 29.6517C56.2942 19.4143 39.6941 19.4143 29.4593 29.6517C19.2219 39.8891 19.2219 56.4892 29.4593 66.7267L29.5327 66.8001L43.6239 80.8913C44.7837 82.051 46.3567 82.7025 47.9968 82.7025C49.6369 82.7025 51.2099 82.051 52.3697 80.8913L66.5343 66.7267C76.7717 56.4892 76.7717 39.8891 66.5343 29.6517H66.5317ZM32.2382 32.4306C36.4277 28.3018 42.0797 25.9968 47.9617 26.0184C53.8437 26.0399 59.4787 28.3862 63.6377 32.5456C67.7968 36.7051 70.1427 42.3402 70.1637 48.2222C70.1848 54.1043 67.8793 59.756 63.7501 63.9451L49.5855 78.1124C49.1633 78.5341 48.5909 78.7709 47.9942 78.7709C47.3974 78.7709 46.8251 78.5341 46.4029 78.1124L32.3038 64.0133L32.2985 64.0081L32.2382 63.9451C28.0599 59.7662 25.7125 54.0987 25.7125 48.1892C25.7125 42.2797 28.0599 36.6122 32.2382 32.4332V32.4306Z" fill="black"/>
<path d="M60.8923 1H6.04793C4.65734 1 3.3237 1.55241 2.3404 2.53571C1.3571 3.51901 0.804688 4.85265 0.804688 6.24324V92.7568C0.804688 94.1474 1.3571 95.481 2.3404 96.4643C3.3237 97.4476 4.65734 98 6.04793 98H92.5614C93.952 98 95.2857 97.4476 96.269 96.4643C97.2523 95.481 97.8047 94.1474 97.8047 92.7568V37.9124" stroke="black" stroke-linecap="round" stroke-linejoin="round"/>
</svg>
