<svg width="125" height="124" viewBox="0 0 125 124" fill="none" xmlns="http://www.w3.org/2000/svg">
<path d="M70.4542 69.4082C70.5949 69.5489 70.674 69.7396 70.674 69.9386V87.5827V87.5835C70.6737 87.839 70.7238 88.092 70.8214 88.3281C70.919 88.5643 71.0622 88.7788 71.2428 88.9596L70.7122 89.4897L71.2428 88.9596C71.4234 89.1403 71.6378 89.2837 71.8739 89.3816C72.1099 89.4794 72.3629 89.5297 72.6184 89.5297H84.7988H84.7995C85.0552 89.53 85.3084 89.4798 85.5446 89.3821L85.8313 90.0751L85.5446 89.3821C85.7809 89.2844 85.9955 89.141 86.1763 88.9602C86.3571 88.7795 86.5004 88.5648 86.5981 88.3286C86.6959 88.0923 86.746 87.8391 86.7458 87.5835V87.5827V65.5857C86.7458 65.1714 87.0816 64.8357 87.4958 64.8357H91.0295C91.0296 64.8357 91.0297 64.8357 91.0298 64.8357C91.7064 64.8353 92.3667 64.6275 92.9216 64.2402C93.4766 63.8529 93.8994 63.3047 94.1331 62.6696C94.3668 62.0344 94.4 61.3429 94.2284 60.6883L94.9539 60.4981L94.2284 60.6883C94.0568 60.0336 93.6885 59.4474 93.1733 59.0085L65.5369 35.4745C64.7744 34.8253 63.8057 34.4687 62.8043 34.4687C61.8029 34.4687 60.8342 34.8252 60.0717 35.4744C60.0717 35.4744 60.0717 35.4744 60.0717 35.4745L32.4352 59.0086L32.4343 59.0094C31.9179 59.4476 31.5487 60.0338 31.3764 60.6887C31.2041 61.3437 31.2371 62.0357 31.4709 62.6713C31.7047 63.3068 32.1281 63.8553 32.6838 64.2424C33.2394 64.6295 33.9006 64.8366 34.5778 64.8357H34.5788H38.1128C38.527 64.8357 38.8628 65.1714 38.8628 65.5857L38.8628 87.5846L38.8628 87.5853M70.4542 69.4082L55.682 87.5853C55.682 88.2999 55.3982 88.9853 54.8929 89.4906C54.3876 89.9959 53.7022 90.2797 52.9876 90.2797H40.8098C40.095 90.2797 39.4094 89.996 38.9036 89.4907C38.3979 88.9855 38.1135 88.3002 38.1128 87.5853H38.8628M70.4542 69.4082C70.3136 69.2675 70.1228 69.1885 69.9238 69.1886L55.6819 69.1912C55.2677 69.1912 54.932 69.527 54.932 69.9412V87.5853C54.932 88.101 54.7272 88.5956 54.3625 88.9602C53.9979 89.3249 53.5033 89.5297 52.9876 89.5297H40.8098C40.2937 89.5297 39.7988 89.3249 39.4337 88.9601C39.0688 88.5956 38.8635 88.1011 38.8628 87.5853M70.4542 69.4082L38.8628 87.5853" stroke="black" stroke-width="1.5" stroke-linecap="round" stroke-linejoin="round"/>
<path d="M74.2237 14.2083H20.1803C18.8101 14.2083 17.4959 14.7527 16.527 15.7216C15.558 16.6906 15.0137 18.0047 15.0137 19.375V104.625C15.0137 105.995 15.558 107.309 16.527 108.278C17.4959 109.247 18.8101 109.792 20.1803 109.792H105.43C106.801 109.792 108.115 109.247 109.084 108.278C110.053 107.309 110.597 105.995 110.597 104.625V50.5817" stroke="black" stroke-linecap="round" stroke-linejoin="round"/>
</svg>
