<svg width="542" height="183" viewBox="0 0 542 183" fill="none" xmlns="http://www.w3.org/2000/svg">
<path opacity="0.35" fill-rule="evenodd" clip-rule="evenodd" d="M-37.8912 102.822C-38.016 101.123 -23.628 99.2841 1.34841 92.1406C11.8598 88.8228 21.6388 85.7129 31.1567 82.1406C36.5678 80.0899 41.9814 77.9217 47.953 75.0925C48.569 74.7469 49.9109 73.9939 51.8297 73.178C54.4116 72.0339 57.0657 71.1168 59.7651 70.4358C62.9221 69.6212 68.6011 67.2461 79.5769 60.6515C90.448 46.9235 103.522 35.4144 118.111 26.7305C145.142 10.8071 172.271 8.37138 203.395 5.57936C213.331 4.67248 221.503 3.94305 232.775 3.99746C237.021 4.02173 244.848 4.18257 261.699 4.35376C266.69 4.60578 271.712 4.39716 276.712 3.73015C285.464 2.32742 291.512 -0.515601 291.978 0.962686C292.289 1.65862 290.695 2.95867 284.546 9.33849C279.909 14.174 279.416 14.8567 279.575 15.5216C280.091 17.6677 286.773 15.6291 298.405 16.5542C303.632 16.9273 308.864 17.9929 319.412 19.8166L326.076 21.0073C327.395 21.2528 329.212 21.5668 330.338 21.7472C337.727 23.0898 345.242 23.7241 352.798 23.6429C357.404 23.1172 365.161 22.5051 365.727 24.8847C366.292 27.2643 360.161 30.9079 355.625 33.686C345.204 40.2301 338.283 41.7939 338.383 43.1296C338.484 44.4653 342.658 44.7615 360.655 43.7389L398.298 48.5403L465.877 70.5889C484.089 73.6253 502.87 72.542 521.054 67.4063C527.941 65.4737 534.704 62.9679 541.282 59.9119C538.872 71.3133 534.982 82.3639 529.728 92.728C524.355 103.72 517.352 113.748 509.014 122.391C496.824 134.698 482.119 143.649 466.248 148.421C466.713 149.465 467.395 150.996 468.443 152.728C470.498 156.476 471.17 156.997 470.923 157.861C470.318 159.651 466.058 158.793 459.88 160.172C456.989 160.857 454.159 161.871 451.439 163.199C444.137 166.252 434.786 166.744 422.372 167.273C409.373 167.724 397.316 167.82 386.24 167.713L388.23 171.498L389.896 174.681C385.378 176.708 380.709 178.26 375.956 179.314C366.768 181.272 357.412 181.465 348.325 179.885C336.83 178.187 325.818 174.237 315.821 168.226C313.879 168.62 311.482 169.414 310.789 171.253C310.096 173.092 312.64 175.405 312.293 177.34C311.364 181.921 295.377 182.454 295.377 182.454C283.036 183.184 270.755 181.902 258.949 178.653C258.949 178.653 233.455 171.616 214.701 156.503C208.238 151.257 205.305 148.379 205.305 148.379C197.737 141.025 194.244 135.039 192.615 136.012C190.986 136.984 192.061 141.369 192.432 143.683C193.485 149.995 195.739 152.152 195.052 153.263C193.687 155.507 181.409 151.9 163.519 140.885C146.25 130.276 138.492 121.753 118.675 105.614C111.839 100.025 101.991 92.1825 89.6479 83.2462C119.484 71.4653 150.787 65.5531 182.027 65.7983C213.08 66.1783 237.235 72.8647 257.614 78.4807C293.782 88.4886 294.054 94.2811 331.397 105.196C359.44 113.384 383.894 120.309 415.54 118.442C451.536 116.279 479.674 103.765 479.492 102.679C479.31 101.592 455.287 110.811 419.994 112.085C388.01 113.069 363.833 106.336 335.475 98.1804C296.478 86.947 298.102 81.8303 254.271 68.6984C222.749 59.2438 204.395 53.9126 178.115 54.3056C157.227 54.6721 136.338 58.0371 115.997 64.3125C112.695 65.2955 96.5469 71.5155 64.2408 83.9323C43.7881 91.7851 32.623 96.1658 16.1089 99.3433C6.8448 101.153 -2.48528 102.35 -11.8285 102.928C-21.9015 103.651 -37.7701 104.204 -37.8562 102.716" fill="white"/>
</svg>
