<svg width="439" height="224" viewBox="0 0 439 224" fill="none" xmlns="http://www.w3.org/2000/svg">
<path d="M127.757 12.1C115.457 19.9 61.157 77.8 13.757 157.9C20.657 130 49.457 53.5 56.057 37C56.957 34.9 53.057 35.8 50.957 37.9C31.457 80.5 14.057 123.1 1.15703 173.2C0.257029 180.1 1.75703 184 5.65703 183.7C40.157 116.5 99.257 39.7 130.757 16C141.557 9.4 147.857 9.69999 145.157 32.2C144.257 41.2 142.157 49.9 140.057 58.6C135.257 76 129.257 93.1 122.657 110.2L95.357 175.6C92.057 184.3 89.057 193 86.957 202.3C86.357 204.4 86.057 206.8 85.757 209.5C85.757 211.6 85.457 214.9 87.857 217.6C91.457 220.3 103.457 218.5 109.757 213.4L109.157 212.5C107.057 213.4 86.057 223.6 92.657 203.8C95.657 195.4 99.257 187 102.857 178.6C109.757 161.8 124.757 130.9 131.057 113.5C137.657 96.4 143.957 78.7 148.457 60.7C150.557 51.7 152.357 42.4 153.257 33.1C155.657 0.699993 140.057 4.29999 127.757 12.1ZM197.655 127.9C179.055 142.6 143.355 154.3 151.155 136.6C157.755 135.1 163.455 133.3 168.855 129.1C179.055 121.3 171.255 117.7 169.755 117.4C168.255 116.8 166.755 116.8 165.255 116.8C161.955 117.4 159.255 118.6 156.855 119.8C152.055 122.8 148.455 127 145.455 131.5C137.355 146.8 147.855 149.5 151.755 149.8C161.055 150.1 177.255 145 198.855 129.1C199.155 128.8 197.955 127.6 197.655 127.9ZM160.455 124.9C162.255 123.4 164.055 122.2 165.855 121.6C169.455 120.4 173.355 121.3 166.755 126.7C164.955 128.5 159.555 131.8 152.655 133.6C155.055 130.6 157.755 127.6 160.455 124.9ZM265.286 129.4C235.886 149.2 224.486 158.5 212.186 130.3C216.386 126.7 219.986 123.7 224.486 121C233.186 115.3 240.386 115.3 240.386 115.3C241.286 115.3 241.286 111.7 240.386 111.7C233.186 111.7 227.786 115 222.686 118.3C218.186 121.3 214.886 124.3 210.986 127.6C209.486 124.3 207.386 118.6 205.886 115.9C203.786 112 199.286 118.9 200.186 120.4C201.986 124.3 204.086 127.3 205.586 131.8C197.486 139.6 190.286 147.4 183.086 155.8C182.786 156.1 182.786 157 183.386 157.3C183.686 157.6 184.286 157.6 184.586 157C191.786 149.2 198.686 141.7 206.786 134.5C221.486 169 244.886 145.3 265.886 130.6C266.186 130.3 265.586 129.1 265.286 129.4ZM364.97 55C347.27 56.5 329.87 58.9 312.47 62.2H312.17C315.77 57.1 319.07 51.4 322.97 46.3C325.67 42.4 328.37 38.2 330.47 33.7C331.67 31.6 332.57 29.5 333.47 27.1C333.77 25.6 334.37 24.4 334.37 22.9C334.37 22.3 334.37 21.4 334.07 20.2C333.77 18.7 331.07 17.8 330.17 18.4C326.57 19.9 325.37 21.7 323.57 23.5C322.07 25.6 320.57 27.4 319.07 29.5C316.37 33.4 313.67 37.6 311.27 41.5C306.77 49.3 302.57 57.4 298.37 65.2C294.47 65.8 290.57 66.7 286.67 67.6C277.97 69.7 269.57 71.2 260.87 76C259.97 76.3 262.07 79.9 262.97 79.3L263.27 79C270.17 75.4 279.17 73.3 287.57 70.9C290.27 70.3 293.27 69.7 296.27 68.8C271.67 111.7 240.77 172 255.47 192.7C257.87 196 261.77 195.1 264.47 194.5C284.27 190 331.07 146.2 342.47 130.9C342.77 130.3 341.27 129.4 340.97 129.7C304.97 170.5 263.57 198.1 259.07 188.8C253.07 174.4 269.87 135.7 284.57 106.3C291.77 94 299.27 82 307.07 70C307.67 68.5 308.87 67.3 309.77 65.8C310.67 65.5 311.87 65.2 313.07 65.2C330.17 61.9 347.57 59.2 364.97 57.7C365.87 57.4 366.47 56.8 366.47 56.2C366.17 55.6 365.57 55 364.97 55ZM304.07 67.9C301.97 70.9 300.17 74.2 298.37 77.2C299.57 74.5 300.77 71.8 301.97 69.1C302.27 68.5 302.57 67.9 302.87 67.3C303.47 67.3 304.07 67 304.67 67C304.37 67.3 304.07 67.6 304.07 67.9ZM307.07 63.4C306.47 63.4 305.57 63.7 304.97 63.7C308.27 57.1 311.57 50.2 315.17 43.9C317.57 39.7 319.97 35.8 322.67 31.9C323.87 29.8 325.37 28 326.87 26.2C327.77 25 329.27 23.8 330.17 22.9C330.17 23.8 329.87 24.7 329.57 25.6C328.97 27.7 328.07 30.1 326.87 31.9C324.77 36.1 322.37 40.3 319.67 44.2C315.47 50.5 311.27 56.8 307.07 63.4ZM357.135 166.9C355.335 166.3 352.935 165.7 350.835 173.2C348.735 179.8 357.435 180.1 360.435 172.6C361.335 169.9 359.835 167.5 357.135 166.9ZM436.035 47.8C433.935 43.3 428.835 41.2 424.635 40.6C420.135 40 415.935 40.3 411.735 40.9C395.535 44.2 379.935 52.3 369.735 66.1C369.135 67 369.435 68.2 370.335 68.8C371.235 69.4 372.435 69.1 373.035 68.5V68.2C382.035 55.6 397.335 47.8 412.635 45.1C419.835 43.9 429.135 43.9 432.135 49.9C434.835 55.9 430.935 64 427.035 70.3C418.335 83.2 403.935 91.6 391.335 101.8C378.435 112 367.035 124.9 360.135 140.2C358.635 144.1 364.935 145.9 366.135 142.9C372.135 128.5 382.335 116.2 394.935 106.3C406.935 95.8 421.635 87.1 430.935 72.7C433.035 69.1 435.135 65.5 436.335 61.3C437.535 57.4 438.435 52.3 436.035 47.8Z" fill="white"/>
</svg>
