<svg width="542" height="183" viewBox="0 0 542 183" fill="none" xmlns="http://www.w3.org/2000/svg">
<path opacity="0.35" fill-rule="evenodd" clip-rule="evenodd" d="M580.153 102.822C580.278 101.123 565.89 99.2841 540.913 92.1406C530.402 88.8228 520.623 85.7129 511.105 82.1406C505.694 80.0899 500.28 77.9217 494.309 75.0925C493.693 74.7469 492.351 73.9939 490.432 73.178C487.85 72.0339 485.196 71.1168 482.497 70.4358C479.34 69.6212 473.661 67.2461 462.685 60.6515C451.814 46.9235 438.74 35.4144 424.151 26.7305C397.12 10.8071 369.99 8.37138 338.867 5.57936C328.931 4.67248 320.758 3.94305 309.487 3.99746C305.241 4.02173 297.414 4.18257 280.562 4.35376C275.572 4.60578 270.55 4.39716 265.55 3.73015C256.798 2.32742 250.75 -0.515601 250.283 0.962686C249.973 1.65862 251.566 2.95867 257.715 9.33849C262.353 14.174 262.846 14.8567 262.687 15.5216C262.17 17.6677 255.489 15.6291 243.856 16.5542C238.63 16.9273 233.397 17.9929 222.85 19.8166L216.186 21.0073C214.867 21.2528 213.049 21.5668 211.924 21.7472C204.535 23.0898 197.02 23.7241 189.464 23.6429C184.858 23.1172 177.101 22.5051 176.535 24.8847C175.969 27.2643 182.1 30.9079 186.637 33.686C197.058 40.2301 203.979 41.7939 203.878 43.1296C203.778 44.4653 199.603 44.7615 181.606 43.7389L143.963 48.5403L76.3849 70.5889C58.1731 73.6253 39.3913 72.542 21.2076 67.4063C14.3206 65.4737 7.55742 62.9679 0.980174 59.9119C3.38957 71.3133 7.28022 82.3639 12.5338 92.728C17.9071 103.72 24.9095 113.748 33.2479 122.391C45.438 134.698 60.143 143.649 76.014 148.421C75.5487 149.465 74.8663 150.996 73.8192 152.728C71.7638 156.476 71.0913 156.997 71.3387 157.861C71.9437 159.651 76.2034 158.793 82.3813 160.172C85.2723 160.857 88.1023 161.871 90.8227 163.199C98.1243 166.252 107.475 166.744 119.89 167.273C132.889 167.724 144.946 167.82 156.021 167.713L154.032 171.498L152.366 174.681C156.884 176.708 161.553 178.26 166.306 179.314C175.494 181.272 184.849 181.465 193.937 179.885C205.431 178.187 216.444 174.237 226.441 168.226C228.383 168.62 230.779 169.414 231.472 171.253C232.165 173.092 229.622 175.405 229.969 177.34C230.897 181.921 246.885 182.454 246.885 182.454C259.226 183.184 271.506 181.902 283.312 178.653C283.312 178.653 308.807 171.616 327.56 156.503C334.024 151.257 336.957 148.379 336.957 148.379C344.524 141.025 348.017 135.039 349.647 136.012C351.276 136.984 350.201 141.369 349.83 143.683C348.777 149.995 346.523 152.152 347.21 153.263C348.575 155.507 360.853 151.9 378.742 140.885C396.011 130.276 403.77 121.753 423.586 105.614C430.422 100.025 440.271 92.1825 452.614 83.2462C422.777 71.4653 391.474 65.5531 360.234 65.7983C329.182 66.1783 305.026 72.8647 284.648 78.4807C248.479 88.4886 248.207 94.2811 210.864 105.196C182.822 113.384 158.368 120.309 126.722 118.442C90.7253 116.279 62.5874 103.765 62.7694 102.679C62.9513 101.592 86.9752 110.811 122.268 112.085C154.252 113.069 178.428 106.336 206.786 98.1804C245.784 86.947 244.159 81.8303 287.991 68.6984C319.513 59.2438 337.867 53.9126 364.147 54.3056C385.035 54.6721 405.924 58.0371 426.265 64.3125C429.567 65.2955 445.715 71.5155 478.021 83.9323C498.474 91.7851 509.639 96.1658 526.153 99.3433C535.417 101.153 544.747 102.35 554.09 102.928C564.163 103.651 580.032 104.204 580.118 102.716" fill="white"/>
</svg>
