<svg width="287" height="188" viewBox="0 0 287 188" fill="none" xmlns="http://www.w3.org/2000/svg">
<path d="M128.328 37.6832C126.128 41.8832 131.728 44.0832 132.528 39.6832C134.728 29.8832 136.728 23.8832 141.528 11.8832C142.528 10.2832 138.528 9.2832 137.528 11.4832C136.728 15.6832 135.528 19.4832 133.928 22.8832C133.728 19.4832 133.128 15.8832 131.328 12.4832C129.128 8.0832 124.928 4.4832 120.328 2.6832C115.728 0.683201 110.928 0.0831969 105.928 0.0831969C86.9277 0.683201 67.1277 10.8832 58.9277 28.8832C50.5277 47.8832 56.3277 61.2832 67.5277 83.6832C71.7277 92.0832 78.7277 106.083 79.5277 108.083C0.927733 151.683 27.1277 169.083 53.9277 162.683C97.3277 152.083 93.1277 123.883 85.5277 107.683C94.7277 103.083 109.728 97.0832 109.728 97.0832C109.728 97.0832 110.528 95.0832 109.328 95.8832C100.928 98.2832 84.9277 105.883 84.9277 105.883C84.9277 105.883 77.7277 91.4832 72.7277 81.0832C68.7277 72.6832 53.9277 49.4832 63.3277 30.8832C71.3277 15.2832 88.5277 4.6832 106.128 3.8832C114.728 3.4832 124.328 6.4832 128.328 14.0832C132.328 21.8832 128.328 37.6832 128.328 37.6832ZM30.3277 149.883C33.1277 138.683 58.3277 121.483 80.3277 110.283C105.328 162.483 25.7277 170.083 30.3277 149.883ZM185.02 47.2832C173.22 48.2832 161.62 49.8832 150.02 52.0832H149.82C152.22 48.6832 154.42 44.8832 157.02 41.4832C158.82 38.8832 160.62 36.0832 162.02 33.0832C162.82 31.6832 163.42 30.2832 164.02 28.6832C164.22 27.6832 164.62 26.8832 164.62 25.8832C164.62 25.4832 164.62 24.8832 164.42 24.0832C164.22 23.0832 162.42 22.4832 161.82 22.8832C159.42 23.8832 158.62 25.0832 157.42 26.2832C156.42 27.6832 155.42 28.8832 154.42 30.2832C152.62 32.8832 150.82 35.6832 149.22 38.2832C146.22 43.4832 143.42 48.8832 140.62 54.0832C138.02 54.4832 135.42 55.0832 132.82 55.6832C127.02 57.0832 121.42 58.0832 115.62 61.2832C115.02 61.4832 116.42 63.8832 117.02 63.4832L117.22 63.2832C121.82 60.8832 127.82 59.4832 133.42 57.8832C135.22 57.4832 137.22 57.0832 139.22 56.4832C122.82 85.0832 102.22 125.283 112.02 139.083C113.62 141.283 116.22 140.683 118.02 140.283C131.22 137.283 162.42 108.083 170.02 97.8832C170.22 97.4832 169.22 96.8832 169.02 97.0832C145.02 124.283 117.42 142.683 114.42 136.483C110.42 126.883 121.62 101.083 131.42 81.4832C136.22 73.2832 141.22 65.2832 146.42 57.2832C146.82 56.2832 147.62 55.4832 148.22 54.4832C148.82 54.2832 149.62 54.0832 150.42 54.0832C161.82 51.8832 173.42 50.0832 185.02 49.0832C185.62 48.8832 186.02 48.4832 186.02 48.0832C185.82 47.6832 185.42 47.2832 185.02 47.2832ZM144.42 55.8832C143.02 57.8832 141.82 60.0832 140.62 62.0832C141.42 60.2832 142.22 58.4832 143.02 56.6832C143.22 56.2832 143.42 55.8832 143.62 55.4832C144.02 55.4832 144.42 55.2832 144.82 55.2832C144.62 55.4832 144.42 55.6832 144.42 55.8832ZM146.42 52.8832C146.02 52.8832 145.42 53.0832 145.02 53.0832C147.22 48.6832 149.42 44.0832 151.82 39.8832C153.42 37.0832 155.02 34.4832 156.82 31.8832C157.62 30.4832 158.62 29.2832 159.62 28.0832C160.22 27.2832 161.22 26.4832 161.82 25.8832C161.82 26.4832 161.62 27.0832 161.42 27.6832C161.02 29.0832 160.42 30.6832 159.62 31.8832C158.22 34.6832 156.62 37.4832 154.82 40.0832C152.02 44.2832 149.22 48.4832 146.42 52.8832ZM200.796 97.0832C195.996 100.683 191.396 102.483 185.596 101.483C185.596 101.483 188.396 96.8832 185.596 94.0832C187.796 85.8832 171.396 88.2832 167.596 97.2832C162.396 109.483 176.196 112.683 184.796 102.883C191.596 103.883 195.396 102.083 201.596 97.6832C201.796 97.4832 201.396 96.6832 200.796 97.0832ZM170.796 101.483C171.396 97.2832 175.996 92.8832 179.596 91.4832C181.196 90.8832 185.396 90.4832 184.196 94.0832C180.396 94.6832 179.396 99.2832 182.796 101.883C179.596 106.683 169.996 110.083 170.796 101.483ZM183.596 100.483C181.396 99.2832 182.396 94.6832 184.996 95.4832C185.796 95.6832 184.996 98.6832 183.596 100.483ZM239.489 96.8832C223.489 107.283 209.889 111.083 214.889 102.683C218.089 97.4832 217.089 95.2832 207.489 93.2832C207.889 92.6832 212.889 87.2832 211.289 83.8832C210.889 82.8832 209.689 82.4832 208.289 82.8832C205.489 83.6832 202.689 87.0832 201.689 88.8832C201.489 89.4832 200.689 91.2832 200.889 92.6832C201.289 94.4832 203.089 94.8832 204.089 95.0832C204.289 95.4832 204.689 95.6832 205.089 95.6832C205.689 95.4832 205.689 95.2832 206.089 95.0832C213.289 96.2832 212.689 98.2832 211.689 100.283C210.089 103.283 209.089 105.483 209.289 107.083C210.289 116.083 233.289 102.083 239.889 97.6832H240.089C240.289 97.4832 239.689 96.6832 239.489 96.8832ZM204.689 92.8832C202.089 92.8832 208.289 84.6832 209.489 85.4832C210.889 86.0832 207.089 91.4832 204.689 92.8832ZM285.718 96.6832C285.718 96.2832 270.718 106.483 262.118 112.883C263.318 108.883 266.118 96.6832 266.118 96.6832C267.518 90.0832 267.718 88.4832 263.318 88.4832C255.718 98.0832 241.118 109.283 240.518 104.683C241.318 100.283 243.918 96.2832 245.318 92.2832H245.518C245.918 91.2832 241.918 89.2832 241.518 90.4832C238.718 95.8832 234.118 105.883 239.118 108.483C245.118 111.283 263.118 93.0832 263.118 93.0832C262.918 93.8832 256.518 115.883 256.118 117.283C234.318 133.283 212.518 158.283 209.918 174.683C207.918 187.083 220.318 185.883 226.118 181.883C230.318 179.083 233.918 175.483 236.918 171.483C242.718 163.283 246.918 154.283 250.718 145.483C254.318 136.683 258.518 125.483 261.118 116.483C269.318 109.083 286.118 97.6832 286.118 97.6832C286.118 97.6832 285.918 96.8832 285.718 96.6832ZM246.518 143.683C242.918 152.483 238.518 161.083 233.318 168.883C230.718 172.683 229.118 175.283 225.518 177.883C216.918 184.683 209.918 181.883 215.118 168.883C219.318 157.883 234.118 137.683 254.918 121.083C252.518 127.883 249.118 136.883 246.518 143.683Z" fill="#A75B41"/>
</svg>
