<svg width="244" height="156" viewBox="0 0 244 156" fill="none" xmlns="http://www.w3.org/2000/svg">
<path d="M168.648 1.10469C168.248 0.10468 164.248 0.10468 164.648 2.10468C169.048 23.3047 132.848 94.3047 110.048 123.305C102.848 132.305 94.8481 140.905 85.848 147.105C83.6481 148.505 81.248 149.905 79.4481 149.905C77.848 149.905 77.048 148.905 76.2481 146.505C75.248 141.505 75.648 135.905 76.2481 130.305C77.6481 119.105 80.0481 107.905 82.048 96.7047C83.048 91.1047 84.2481 85.5047 85.0481 79.7047C85.4481 76.9047 85.848 74.1047 86.248 71.1047C86.248 68.1047 86.8481 65.3047 85.4481 61.5047C85.0481 60.9047 85.0481 60.3047 84.2481 59.9047C83.6481 59.3047 82.8481 58.9047 82.2481 58.9047C80.648 58.7047 79.848 59.3047 78.848 59.5047C77.2481 60.3047 76.048 61.3047 75.048 62.3047C72.6481 64.3047 70.648 66.5047 68.848 68.7047C64.848 73.1047 61.448 77.5047 57.848 82.1047L36.848 109.305C29.848 118.505 23.048 127.505 15.648 136.305C12.048 140.505 8.24805 144.905 4.24805 148.505C4.24805 147.505 4.44805 146.305 4.64805 145.105C5.24805 142.305 6.04805 139.705 6.84805 136.905C14.048 115.305 23.048 94.3047 31.648 73.1047C40.648 52.1047 49.648 31.1047 59.048 10.3047V10.1047C59.648 8.90469 55.048 6.90468 54.448 8.10468C45.248 29.1047 36.248 50.1047 27.448 71.3047C18.848 92.5047 10.248 113.905 3.44805 135.905C2.64805 138.705 1.84805 141.505 1.24805 144.305C1.04805 145.905 0.648046 147.305 0.648046 149.105C0.648046 149.505 0.848045 150.105 1.04805 150.705C1.24805 150.905 1.44805 151.305 1.64805 151.705C2.04805 152.105 2.64805 152.505 3.04805 152.505C5.24805 152.505 5.64805 151.705 6.44805 151.105C10.848 147.105 14.448 142.705 18.248 138.305C25.448 129.505 32.448 120.305 39.248 111.105C46.048 101.905 53.248 92.9047 60.448 84.1047C64.048 79.7047 67.648 75.3047 71.648 71.3047C73.448 69.3047 75.4481 67.3047 77.6481 65.5047C78.6481 64.7047 79.848 63.9047 80.648 63.5047C80.8481 63.5047 81.248 63.3047 81.248 63.3047C81.8481 64.7047 81.648 68.1047 81.248 70.5047C81.048 73.3047 80.4481 76.1047 80.0481 78.9047L76.648 95.7047C74.248 106.905 71.848 118.105 70.648 129.705C70.248 135.505 69.6481 141.505 71.248 147.705C71.648 149.505 72.4481 151.105 73.848 152.705C75.248 154.305 77.6481 155.105 79.4481 155.105C83.6481 154.705 86.0481 152.705 88.648 151.105C98.248 143.705 105.448 134.705 112.648 125.705C136.448 96.3047 175.648 17.7047 168.648 1.10469ZM210.293 96.3047C202.893 103.105 186.893 115.305 186.293 104.905C186.093 99.1047 188.893 91.7047 187.893 87.7047C187.693 86.9047 186.293 85.3047 185.093 84.5047C182.893 83.5047 179.493 85.9047 178.493 86.7047C169.493 92.7047 154.893 117.305 154.893 117.305C156.493 112.305 157.893 107.505 159.493 102.705C161.093 97.9047 162.693 93.1047 164.493 88.3047C172.293 76.1047 180.293 64.1047 188.293 51.9047C192.693 45.1047 197.893 38.7047 200.493 30.5047C200.693 29.5047 200.893 28.3047 201.093 27.3047C201.093 26.1047 201.293 24.9047 200.293 23.3047C199.893 22.5047 198.493 21.9047 197.693 21.9047C196.893 22.1047 196.093 22.3047 195.693 22.5047C194.493 23.1047 193.693 23.9047 192.893 24.7047C189.693 27.5047 187.293 30.9047 184.893 34.3047C175.693 47.9047 169.293 62.9047 163.493 78.1047C160.493 85.7047 157.693 93.3047 155.493 101.105C153.093 108.905 150.893 118.305 149.293 125.105V125.305C149.293 125.905 149.493 126.305 150.093 126.505C150.693 126.705 152.293 126.105 152.293 126.105C157.093 118.305 161.493 111.505 166.893 104.505C172.493 97.1047 178.893 90.5047 180.693 89.3047C181.293 88.7047 182.093 88.3047 182.893 88.1047C182.893 89.5047 181.693 98.7047 181.293 100.905C179.093 121.305 194.493 112.505 211.093 97.1047C211.493 95.9047 210.293 96.3047 210.293 96.3047ZM187.893 36.3047C189.893 32.9047 192.293 29.7047 195.093 27.1047C195.693 26.3047 196.493 25.7047 197.093 25.5047C197.493 25.3047 197.693 25.1047 197.893 25.1047C198.293 25.7047 198.093 28.1047 197.693 29.7047C195.693 37.3047 190.693 43.9047 186.293 50.7047C180.093 60.1047 173.893 69.7047 167.493 79.3047C173.293 64.5047 179.293 49.7047 187.893 36.3047ZM242.171 96.1047C237.371 99.7047 232.771 101.505 226.971 100.505C226.971 100.505 229.771 95.9047 226.971 93.1047C229.171 84.9047 212.771 87.3047 208.971 96.3047C203.771 108.505 217.571 111.705 226.171 101.905C232.971 102.905 236.771 101.105 242.971 96.7047C243.171 96.5047 242.771 95.7047 242.171 96.1047ZM212.171 100.505C212.771 96.3047 217.371 91.9047 220.971 90.5047C222.571 89.9047 226.771 89.5047 225.571 93.1047C221.771 93.7047 220.771 98.3047 224.171 100.905C220.971 105.705 211.371 109.105 212.171 100.505ZM224.971 99.5047C222.771 98.3047 223.771 93.7047 226.371 94.5047C227.171 94.7047 226.371 97.7047 224.971 99.5047Z" fill="#A75B41"/>
</svg>
