<svg width="686" height="332" viewBox="0 0 686 332" fill="none" xmlns="http://www.w3.org/2000/svg">
<path d="M258.999 186C245.124 185.25 229.749 184.5 216.249 184.125C219.624 173.25 227.124 147.375 227.124 147.375C227.124 147.375 243.249 88.875 247.749 58.875C250.374 43.5 251.499 16.125 247.374 12C243.624 7.49999 234.999 0.374992 206.874 29.25C166.749 75 132.999 125.25 99.2485 175.5C96.6235 178.875 92.8735 186 90.2485 189.75C69.6235 192 50.1235 194.625 29.8735 199.5H29.4985C27.9985 199.875 29.8735 202.875 31.3735 202.875C48.6235 201 65.4985 200.25 82.3735 201C54.9985 243 27.6235 285.375 0.998532 327.75V328.125C0.248533 328.875 5.49853 331.125 6.24853 330C32.8735 286.5 60.6235 243.375 89.1235 200.625C89.8735 200.625 89.8735 201 90.6235 201C110.124 202.5 129.999 205.5 147.249 214.5C164.124 223.5 175.374 241.125 174.249 260.25C174.249 267.75 173.124 275.25 171.249 282.75C167.124 294 163.374 304.875 159.249 315.75V316.5C158.124 319.125 168.624 322.875 169.749 320.25C169.749 319.875 169.749 319.875 169.749 319.875C186.624 276.375 201.624 233.625 215.124 188.625C230.499 188.25 242.874 188.25 257.874 187.875C259.374 187.875 260.499 186 258.999 186ZM181.374 254.625C180.624 251.25 179.874 247.875 179.499 244.5C177.624 239.625 176.124 234.375 172.749 230.25C167.499 220.875 158.499 214.875 149.874 209.625C131.874 200.25 116.124 197.625 96.6235 196.125C98.8735 191.25 189.249 188.625 204.249 188.625C196.749 211.125 189.249 232.125 181.374 254.625ZM205.374 183.75C184.374 183.75 116.499 186 97.7485 188.625C99.6235 186 102.624 180 104.499 177.375C138.624 127.875 172.374 77.25 212.874 32.625C218.124 27.375 223.374 22.125 228.999 17.625C234.624 13.125 238.749 10.875 241.374 14.625C243.999 18 242.874 31.875 242.874 35.625C242.874 42.75 240.999 50.25 240.249 57.75C235.374 87 226.749 116.25 218.124 144.75C214.749 156.75 209.499 172.125 205.374 183.75ZM381.383 95.25C359.258 97.125 337.508 100.125 315.758 104.25H315.383C319.883 97.875 324.008 90.75 328.883 84.375C332.258 79.5 335.633 74.25 338.258 68.625C339.758 66 340.883 63.375 342.008 60.375C342.383 58.5 343.133 57 343.133 55.125C343.133 54.375 343.133 53.25 342.758 51.75C342.383 49.875 339.008 48.75 337.883 49.5C333.383 51.375 331.883 53.625 329.633 55.875C327.758 58.5 325.883 60.75 324.008 63.375C320.633 68.25 317.258 73.5 314.258 78.375C308.633 88.125 303.383 98.25 298.133 108C293.258 108.75 288.383 109.875 283.508 111C272.633 113.625 262.133 115.5 251.258 121.5C250.133 121.875 252.758 126.375 253.883 125.625L254.258 125.25C262.883 120.75 274.133 118.125 284.633 115.125C288.008 114.375 291.758 113.625 295.508 112.5C264.758 166.125 226.133 241.5 244.508 267.375C247.508 271.5 252.383 270.375 255.758 269.625C280.508 264 339.008 209.25 353.258 190.125C353.633 189.375 351.758 188.25 351.383 188.625C306.383 239.625 254.633 274.125 249.008 262.5C241.508 244.5 262.508 196.125 280.883 159.375C289.883 144 299.258 129 309.008 114C309.758 112.125 311.258 110.625 312.383 108.75C313.508 108.375 315.008 108 316.508 108C337.883 103.875 359.633 100.5 381.383 98.625C382.508 98.25 383.258 97.5 383.258 96.75C382.883 96 382.133 95.25 381.383 95.25ZM305.258 111.375C302.633 115.125 300.383 119.25 298.133 123C299.633 119.625 301.133 116.25 302.633 112.875C303.008 112.125 303.383 111.375 303.758 110.625C304.508 110.625 305.258 110.25 306.008 110.25C305.633 110.625 305.258 111 305.258 111.375ZM309.008 105.75C308.258 105.75 307.133 106.125 306.383 106.125C310.508 97.875 314.633 89.25 319.133 81.375C322.133 76.125 325.133 71.25 328.508 66.375C330.008 63.75 331.883 61.5 333.758 59.25C334.883 57.75 336.758 56.25 337.883 55.125C337.883 56.25 337.508 57.375 337.133 58.5C336.383 61.125 335.258 64.125 333.758 66.375C331.133 71.625 328.133 76.875 324.758 81.75C319.508 89.625 314.258 97.5 309.008 105.75ZM412.839 186.375C389.589 204.75 344.964 219.375 354.714 197.25C362.964 195.375 370.089 193.125 376.839 187.875C389.589 178.125 379.839 173.625 377.964 173.25C376.089 172.5 374.214 172.5 372.339 172.5C368.214 173.25 364.839 174.75 361.839 176.25C355.839 180 351.339 185.25 347.589 190.875C337.464 210 350.589 213.375 355.464 213.75C367.089 214.125 387.339 207.75 414.339 187.875C414.714 187.5 413.214 186 412.839 186.375ZM366.339 182.625C368.589 180.75 370.839 179.25 373.089 178.5C377.589 177 382.464 178.125 374.214 184.875C371.964 187.125 365.214 191.25 356.589 193.5C359.589 189.75 362.964 186 366.339 182.625ZM504.416 190.125C504.791 189.75 503.291 188.25 502.916 188.625C426.791 264.375 407.291 244.875 421.541 188.25C476.666 118.5 504.416 76.875 508.166 53.625C509.291 45.375 499.541 37.5 480.041 58.875C464.291 75.75 451.916 95.625 441.041 116.25C430.166 136.875 420.791 158.625 414.416 181.125C396.416 245.25 418.541 280.125 504.416 190.125ZM483.416 62.25C487.916 56.625 492.791 52.125 495.041 50.625C499.166 48 504.791 48 504.041 52.875C499.541 80.25 454.166 139.875 423.416 178.875C436.166 130.875 469.541 79.875 483.416 62.25ZM551.762 188.625C533.762 200.625 511.262 211.875 506.762 204.75C506.387 202.5 507.137 198.75 508.262 195.375C510.512 188.625 512.387 186.375 516.137 180C516.137 179.625 516.137 179.625 516.512 179.25C517.262 177 512.762 166.5 507.137 176.25C503.387 183 501.887 186.375 500.012 194.625C497.762 202.5 499.637 210.75 507.887 211.5C515.762 212.25 534.137 203.625 552.887 190.125C553.637 189.75 552.512 188.25 551.762 188.625ZM525.887 160.5C526.262 159.375 525.512 153.75 522.887 156.375C519.887 159 514.637 161.625 513.887 163.125C512.762 166.125 525.137 164.25 525.887 160.5ZM613.157 186.375C589.907 204.75 545.282 219.375 555.032 197.25C563.282 195.375 570.407 193.125 577.157 187.875C589.907 178.125 580.157 173.625 578.282 173.25C576.407 172.5 574.532 172.5 572.657 172.5C568.532 173.25 565.157 174.75 562.157 176.25C556.157 180 551.657 185.25 547.907 190.875C537.782 210 550.907 213.375 555.782 213.75C567.407 214.125 587.657 207.75 614.657 187.875C615.032 187.5 613.532 186 613.157 186.375ZM566.657 182.625C568.907 180.75 571.157 179.25 573.407 178.5C577.907 177 582.782 178.125 574.532 184.875C572.282 187.125 565.532 191.25 556.907 193.5C559.907 189.75 563.282 186 566.657 182.625ZM684.196 188.25C654.196 207.75 628.696 214.875 638.071 199.125C644.071 189.375 642.196 185.25 624.196 181.5C624.946 180.375 634.321 170.25 631.321 163.875C630.571 162 628.321 161.25 625.696 162C620.446 163.5 615.196 169.875 613.321 173.25C612.946 174.375 611.446 177.75 611.821 180.375C612.571 183.75 615.946 184.5 617.821 184.875C618.196 185.625 618.946 186 619.696 186C620.821 185.625 620.821 185.25 621.571 184.875C635.071 187.125 633.946 190.875 632.071 194.625C629.071 200.25 627.196 204.375 627.571 207.375C629.446 224.25 672.571 198 684.946 189.75H685.321C685.696 189.375 684.571 187.875 684.196 188.25ZM618.946 180.75C614.071 180.75 625.696 165.375 627.946 166.875C630.571 168 623.446 178.125 618.946 180.75Z" fill="black"/>
</svg>
