<svg
            id="atilier"
            width="536.595"
            height="258.2"
            viewBox="0 0 536.595 258.2"
            xmlns="http://www.w3.org/2000/svg"
          >
            <g
              id="svgGroup"
              stroke-linecap="round"
              fill-rule="evenodd"
              font-size="9pt"
              stroke="#000"
              stroke-width="0.25mm"
              fill="#000"
              style="stroke:#000;stroke-width:0.25mm;fill:#000"
            >
              <path
                id="atilierPath"
                d="M 206.775 143.7 L 205.575 144 Q 200.175 144.3 194.625 144.45 Q 189.075 144.6 182.325 144.75 Q 175.575 144.9 171.375 144.9 Q 155.175 198.3 135.075 249.9 L 134.775 249.9 Q 134.775 250.5 133.725 250.65 A 5.086 5.086 0 0 1 133.111 250.699 Q 132.65 250.708 132.139 250.644 A 8.954 8.954 0 0 1 131.325 250.5 Q 129.975 250.2 128.775 249.6 A 9.114 9.114 0 0 1 127.811 249.046 Q 127.317 248.719 126.933 248.355 A 5.418 5.418 0 0 1 126.825 248.25 Q 126.289 247.714 126.289 247.255 A 0.785 0.785 0 0 1 126.375 246.9 L 126.675 246.6 Q 130.388 236.081 133.533 227.548 A 914.078 914.078 0 0 1 136.275 220.2 A 103.586 103.586 0 0 0 137.829 212.309 Q 138.437 208.372 138.608 204.872 A 54.759 54.759 0 0 0 138.675 202.2 A 39.195 39.195 0 0 0 138.73 200.14 A 36.494 36.494 0 0 0 133.275 180.9 Q 127.275 171 116.775 165.3 A 73.613 73.613 0 0 0 103.179 159.801 Q 96.178 157.691 87.752 156.327 A 183.856 183.856 0 0 0 71.775 154.5 L 71.175 154.5 L 70.275 154.5 A 3583.85 3583.85 0 0 0 20.591 231.269 A 3089.095 3089.095 0 0 0 3.975 258 Q 3.675 258.3 2.625 258.15 A 3.748 3.748 0 0 1 1.018 257.51 A 4.634 4.634 0 0 1 0.675 257.25 A 5.181 5.181 0 0 1 0.446 257.048 Q -0.183 256.458 0.075 256.2 A 4696.037 4696.037 0 0 1 48.169 180.544 A 5296.841 5296.841 0 0 1 65.175 154.5 A 284.694 284.694 0 0 0 56.419 154.367 Q 43.36 154.367 29.526 155.53 A 358.645 358.645 0 0 0 24.375 156 Q 22.718 156.276 22.332 154.518 A 4.366 4.366 0 0 1 22.275 154.2 A 0.928 0.928 0 0 1 22.416 153.689 Q 22.566 153.455 22.875 153.3 A 326.901 326.901 0 0 1 38.991 150.094 Q 46.233 148.828 54.354 147.68 A 655.041 655.041 0 0 1 71.475 145.5 Q 72.214 144.269 74.063 141.22 A 4410.726 4410.726 0 0 1 74.925 139.8 A 4160.196 4160.196 0 0 0 76.03 137.98 Q 77.298 135.889 77.999 134.725 A 371.613 371.613 0 0 0 78.375 134.1 A 578890.561 578890.561 0 0 1 87.8 120.304 Q 97.959 105.435 103.919 96.714 A 64255.937 64255.937 0 0 1 107.175 91.95 A 453.184 453.184 0 0 1 111.797 85.331 Q 117.153 77.79 124.942 67.298 A 2129.982 2129.982 0 0 1 132.525 57.15 A 825.343 825.343 0 0 1 148.203 36.92 Q 156.806 26.184 164.775 17.1 Q 170.175 11.7 174.675 7.95 Q 179.175 4.2 182.325 2.55 Q 185.475 0.9 188.025 0.3 A 11.947 11.947 0 0 1 189.244 0.076 Q 190.541 -0.09 191.613 0.106 A 5.568 5.568 0 0 1 192.375 0.3 A 13.742 13.742 0 0 1 193.412 0.69 Q 194.422 1.12 195.033 1.616 A 4.04 4.04 0 0 1 195.075 1.65 A 42.651 42.651 0 0 0 195.92 2.335 Q 196.355 2.679 196.843 3.05 A 71.582 71.582 0 0 0 197.175 3.3 A 11.051 11.051 0 0 1 198.067 5.671 Q 199.225 10.01 199.127 18.706 A 126.182 126.182 0 0 1 199.125 18.9 A 177.557 177.557 0 0 1 198.41 32.939 A 146.818 146.818 0 0 1 197.475 40.8 Q 196.097 49.069 193.4 61.382 A 872.747 872.747 0 0 1 191.625 69.3 A 1376.487 1376.487 0 0 1 188.693 81.858 Q 186.338 91.725 184.275 99.6 L 180.975 111.9 Q 175.173 130.963 172.425 139.849 A 1639.251 1639.251 0 0 1 171.975 141.3 A 691.813 691.813 0 0 1 186.108 141.652 Q 193.095 141.901 199.304 142.287 A 372.736 372.736 0 0 1 206.475 142.8 Q 207.29 142.8 206.875 143.538 A 2.524 2.524 0 0 1 206.775 143.7 Z M 202.575 94.2 L 201.975 94.5 Q 201.706 94.769 201.073 94.071 A 5.522 5.522 0 0 1 200.925 93.9 A 6.722 6.722 0 0 1 200.329 93.07 A 4.857 4.857 0 0 1 199.875 92.1 Q 199.585 91.23 200.136 90.921 A 0.921 0.921 0 0 1 200.175 90.9 A 63.677 63.677 0 0 1 204.159 89.084 A 78.114 78.114 0 0 1 206.775 88.05 Q 210.375 86.7 212.625 85.95 Q 214.875 85.2 219.675 84 L 225.675 82.5 A 60.014 60.014 0 0 0 228.459 81.966 A 68.875 68.875 0 0 0 229.425 81.75 Q 231.375 81.3 233.775 80.85 Q 235.613 80.506 236.747 80.249 A 28.983 28.983 0 0 0 237.375 80.1 Q 245.175 65.7 250.575 56.7 A 115.282 115.282 0 0 1 253.988 50.802 Q 256.181 47.269 258.375 44.4 A 36.606 36.606 0 0 1 260.832 40.972 A 29.58 29.58 0 0 1 262.875 38.7 A 3.155 3.155 0 0 1 263.106 38.317 Q 263.367 37.941 263.808 37.475 A 13.548 13.548 0 0 1 264.075 37.2 L 265.425 35.85 A 5.661 5.661 0 0 1 265.726 35.573 Q 266.031 35.309 266.484 34.972 A 26.613 26.613 0 0 1 266.925 34.65 A 5.924 5.924 0 0 1 268.393 33.896 A 7.781 7.781 0 0 1 269.475 33.6 A 0.59 0.59 0 0 1 269.691 33.467 Q 269.992 33.356 270.538 33.429 A 4.422 4.422 0 0 1 270.675 33.45 Q 271.575 33.6 272.325 34.05 Q 273.075 34.5 273.075 35.4 A 2.207 2.207 0 0 1 273.369 36.075 Q 273.571 36.856 273.387 38.023 A 8.844 8.844 0 0 1 273.375 38.1 Q 273.375 39.3 272.775 42 A 111.985 111.985 0 0 1 271.791 44.377 Q 271.345 45.42 270.841 46.55 A 195.382 195.382 0 0 1 269.775 48.9 Q 266.475 55.2 262.275 61.2 A 245.055 245.055 0 0 0 260.589 63.597 Q 258.129 67.131 253.918 73.345 A 2562.045 2562.045 0 0 0 251.175 77.4 L 251.775 77.4 Q 280.575 72 303.975 69.9 Q 305.147 69.9 305.317 71.187 A 2.997 2.997 0 0 1 305.325 71.25 Q 305.449 72.364 304.653 72.559 A 1.595 1.595 0 0 1 304.275 72.6 A 446.848 446.848 0 0 0 265.951 77.571 A 517.215 517.215 0 0 0 252.375 80.1 A 3.082 3.082 0 0 1 251.941 80.273 Q 251.476 80.422 250.801 80.52 A 12.216 12.216 0 0 1 250.575 80.55 Q 249.519 80.682 248.928 80.93 A 2.534 2.534 0 0 0 248.775 81 Q 248.494 81.563 247.949 82.125 A 6.63 6.63 0 0 1 247.875 82.2 Q 247.275 82.8 246.825 83.55 Q 246.438 84.195 246.162 84.728 A 14.283 14.283 0 0 0 246.075 84.9 Q 234.375 103.5 223.875 121.5 A 627.102 627.102 0 0 0 214.767 140.452 Q 194.529 184.581 197.442 200.51 A 14.887 14.887 0 0 0 198.375 203.7 Q 200.388 208.301 212.046 202.567 A 71.842 71.842 0 0 0 213.075 202.05 A 100.177 100.177 0 0 0 221.536 197.125 Q 230.088 191.625 240.735 182.931 A 350.67 350.67 0 0 0 244.275 180 A 307.814 307.814 0 0 0 274.595 150.685 A 345.947 345.947 0 0 0 279.975 144.6 Q 280.274 144.302 281.018 144.894 A 4.371 4.371 0 0 1 281.025 144.9 Q 281.775 145.5 281.475 145.8 A 117.26 117.26 0 0 1 274.264 154.455 Q 263.381 166.439 243.975 183.15 A 316.802 316.802 0 0 1 232.06 192.953 Q 213.811 207.173 203.475 209.7 Q 200.028 210.521 197.659 209.815 A 6.034 6.034 0 0 1 194.475 207.6 A 19.331 19.331 0 0 1 191.372 199.986 Q 186.374 174.514 224.018 104.321 A 897.752 897.752 0 0 1 235.275 84 Q 234.54 84.245 232.403 84.69 A 130.573 130.573 0 0 1 231.375 84.9 A 272.209 272.209 0 0 1 229.95 85.181 Q 228.558 85.452 227.485 85.643 A 84.75 84.75 0 0 1 226.575 85.8 Q 207.975 91.2 202.575 94.2 Z M 376.965 160.912 A 407.06 407.06 0 0 0 391.875 146.1 A 8.597 8.597 0 0 0 391.796 145.909 Q 391.423 145.038 391.05 144.747 A 0.609 0.609 0 0 0 390.675 144.6 A 447.165 447.165 0 0 1 380.465 154.507 Q 348.218 184.76 333.375 184.5 Q 317.293 184.5 324.244 151.56 A 169.296 169.296 0 0 1 325.875 144.6 A 1855.485 1855.485 0 0 0 340.81 125.322 Q 363.642 95.423 376.275 75.9 A 267.522 267.522 0 0 0 383.175 64.681 Q 393.264 47.258 394.875 36.9 Q 395.475 33 392.775 30.9 A 6.496 6.496 0 0 0 388.978 29.719 Q 383.933 29.719 376.575 36.55 A 75.422 75.422 0 0 0 372.375 40.8 Q 355.875 59.1 341.175 86.7 A 289.575 289.575 0 0 0 335.841 97.303 A 252.29 252.29 0 0 0 320.175 138.9 L 318.375 144.9 A 172.757 172.757 0 0 0 317.813 147.366 Q 310.448 180.863 323.475 188.1 A 12.827 12.827 0 0 0 324.256 188.483 Q 340.073 195.57 376.965 160.912 Z M 163.575 141 A 15754.924 15754.924 0 0 0 166.676 131.585 Q 171.679 116.378 173.245 111.478 A 172.615 172.615 0 0 0 173.775 109.8 Q 186.975 66 191.475 39.9 A 7.06 7.06 0 0 1 191.507 39.363 Q 191.618 38.057 192.127 34.238 A 596.879 596.879 0 0 1 192.375 32.4 A 152.35 152.35 0 0 0 192.769 29.288 Q 193.156 25.928 193.247 23.558 A 35.587 35.587 0 0 0 193.275 22.2 A 265.694 265.694 0 0 0 193.309 20.083 Q 193.436 9.557 192.55 6.453 A 2.962 2.962 0 0 0 192.075 5.4 Q 189.675 2.1 182.475 7.8 Q 176.775 12.3 169.275 20.1 Q 164.175 25.8 159.075 31.8 Q 153.975 37.8 148.425 44.7 A 3309.216 3309.216 0 0 0 144.473 49.622 Q 142.915 51.567 141.503 53.337 A 1806.739 1806.739 0 0 0 138.825 56.7 Q 134.775 61.8 128.775 70.05 Q 124.181 76.366 121.346 80.309 A 843.591 843.591 0 0 0 119.775 82.5 Q 116.775 86.7 110.025 96.3 A 2323.68 2323.68 0 0 0 107.294 100.191 Q 102.816 106.589 101.175 109.05 Q 99.075 112.2 91.725 122.85 Q 84.375 133.5 82.875 135.9 Q 82.093 136.682 80.52 139.386 A 80.156 80.156 0 0 0 80.025 140.25 A 72.742 72.742 0 0 1 79.222 141.637 Q 78.116 143.498 77.444 144.303 A 4.505 4.505 0 0 1 77.175 144.6 Q 85.752 143.62 107.943 142.64 A 2002.298 2002.298 0 0 1 118.575 142.2 Q 148.321 141.045 162.498 141.002 A 353.914 353.914 0 0 1 163.575 141 Z M 375.075 43.5 A 197.682 197.682 0 0 0 367.613 53.859 Q 359.034 66.544 348.825 84.9 A 245.817 245.817 0 0 0 334.729 114.558 A 196.721 196.721 0 0 0 327.375 137.1 Q 343.875 115.5 354.825 100.65 A 410.895 410.895 0 0 0 365.354 85.641 Q 370.706 77.659 376.317 68.608 A 674.927 674.927 0 0 0 377.925 66 Q 390.075 46.2 391.875 36.3 A 6.418 6.418 0 0 0 391.902 35.916 Q 392.007 33.27 389.625 32.85 Q 387.075 32.4 384.675 34.5 A 20.698 20.698 0 0 0 381.933 36.41 Q 378.788 38.963 375.075 43.5 Z M 159.392 154.368 A 2518.984 2518.984 0 0 0 162.675 144.9 Q 147.675 144.6 112.725 146.4 A 771.166 771.166 0 0 0 104.515 146.864 Q 77.625 148.538 76.575 150.9 Q 102.075 152.7 118.875 161.7 Q 132.975 170.1 137.475 178.2 Q 138.975 180 142.875 189.6 Q 142.875 190.8 143.475 193.5 A 38.263 38.263 0 0 1 143.765 194.924 Q 144.075 196.622 144.075 197.7 Q 153.492 171.286 159.392 154.368 Z M 536.325 144.9 A 4.517 4.517 0 0 0 536.296 144.862 Q 535.865 144.3 535.575 144.3 Q 519.052 155.095 508.514 158.448 A 30.898 30.898 0 0 1 501.675 159.9 Q 495.124 160.446 498.259 154.535 A 20.179 20.179 0 0 1 498.975 153.3 A 25.576 25.576 0 0 0 499.519 152.427 Q 502.697 147.078 500.475 144.3 A 5.01 5.01 0 0 0 499.986 143.776 Q 497.827 141.753 491.781 140.162 A 72.388 72.388 0 0 0 487.575 139.2 L 488.475 138.15 Q 489.375 137.1 489.975 136.05 Q 490.359 135.377 490.928 134.52 A 50.071 50.071 0 0 1 491.625 133.5 A 15.915 15.915 0 0 0 491.828 133.203 Q 492.256 132.562 492.571 131.949 A 9.203 9.203 0 0 0 493.125 130.65 A 19.048 19.048 0 0 0 493.49 129.411 A 24.387 24.387 0 0 0 493.875 127.65 A 6.591 6.591 0 0 0 493.93 127.295 Q 494.005 126.698 493.955 126.165 A 3.814 3.814 0 0 0 493.575 124.8 A 4.667 4.667 0 0 0 493.176 124.251 Q 491.915 122.767 489.818 123.124 A 6.222 6.222 0 0 0 489.075 123.3 A 15.133 15.133 0 0 0 486.686 124.378 Q 484.148 125.797 481.975 128.253 A 27.287 27.287 0 0 0 478.875 132.6 A 15.767 15.767 0 0 0 478.362 133.865 Q 477.736 135.634 477.812 137.003 A 4.534 4.534 0 0 0 477.975 138 A 3.175 3.175 0 0 0 478.286 139.067 Q 479.219 140.952 482.775 141.9 A 4.242 4.242 0 0 0 482.889 142.063 Q 483.193 142.476 483.497 142.657 A 0.925 0.925 0 0 0 483.975 142.8 Q 484.275 142.8 485.475 141.9 Q 490.575 142.5 492.825 143.85 A 8.976 8.976 0 0 1 493.339 144.182 Q 494.81 145.207 494.81 146.232 A 1.46 1.46 0 0 1 494.775 146.55 A 22.212 22.212 0 0 1 494.618 147.208 Q 494.473 147.776 494.283 148.413 A 43.151 43.151 0 0 1 493.875 149.7 A 73.009 73.009 0 0 0 493.862 149.724 Q 490.55 156.079 490.552 159.119 A 4.869 4.869 0 0 0 490.575 159.6 A 6.537 6.537 0 0 0 490.907 161.194 A 4.047 4.047 0 0 0 493.575 163.8 A 7.155 7.155 0 0 0 494.753 164.08 Q 497.194 164.455 500.775 163.5 A 58.053 58.053 0 0 0 503.904 162.569 A 69.239 69.239 0 0 0 510.075 160.2 Q 514.875 158.1 520.425 155.1 Q 523.937 153.202 526.668 151.604 A 116.868 116.868 0 0 0 529.575 149.85 Q 533.175 147.6 536.475 145.5 A 0.208 0.208 0 0 0 536.526 145.495 Q 536.706 145.449 536.417 145.027 A 3.771 3.771 0 0 0 536.325 144.9 Z M 479.25 142.947 A 0.609 0.609 0 0 0 478.875 142.8 A 42.219 42.219 0 0 1 476.498 144.783 A 50.996 50.996 0 0 1 471.975 147.9 Q 459.33 155.876 449.083 158.932 A 43.117 43.117 0 0 1 438.675 160.8 A 22.527 22.527 0 0 1 438.596 160.802 Q 429.37 161.041 432.056 153.339 A 18.76 18.76 0 0 1 432.675 151.8 Q 444.375 148.8 450.075 144.3 A 29.465 29.465 0 0 0 451.36 143.214 Q 453.402 141.379 454.321 139.753 A 5.698 5.698 0 0 0 455.025 137.85 A 10.029 10.029 0 0 0 455.027 137.84 Q 455.258 136.367 454.967 135.376 A 2.556 2.556 0 0 0 453.975 133.95 A 31.556 31.556 0 0 0 453.429 133.576 Q 452.839 133.181 452.3 132.862 A 16.508 16.508 0 0 0 451.275 132.3 Q 448.875 131.7 446.475 132 Q 442.575 132.3 438.375 135 A 31.829 31.829 0 0 0 433.915 138.278 A 35.199 35.199 0 0 0 426.975 146.7 Q 423.975 151.8 423.825 155.7 Q 423.675 159.6 425.475 161.4 A 13.03 13.03 0 0 0 427.079 162.774 A 9.566 9.566 0 0 0 429.225 163.95 A 12.202 12.202 0 0 0 430.607 164.392 A 9.621 9.621 0 0 0 432.975 164.7 Q 446.657 165.384 466.754 153.241 A 182.461 182.461 0 0 0 480.075 144.3 A 8.597 8.597 0 0 0 479.996 144.109 Q 479.623 143.238 479.25 142.947 Z M 319.753 144.53 A 1.025 1.025 0 0 0 319.575 144.6 A 203.096 203.096 0 0 1 315.809 147.052 Q 305.407 153.659 296.625 157.35 Q 286.275 161.7 283.875 157.5 A 4.741 4.741 0 0 1 283.772 156.946 Q 283.543 155.137 284.422 152.218 A 30.748 30.748 0 0 1 285.075 150.3 Q 285.764 147.544 288.915 141.622 A 169.608 169.608 0 0 1 291.075 137.7 A 1.01 1.01 0 0 0 291.139 137.698 Q 291.375 137.683 291.375 137.55 L 291.375 137.4 Q 291.856 136.437 291.276 134.895 A 8.424 8.424 0 0 0 290.925 134.1 A 7.211 7.211 0 0 0 290.832 133.921 Q 290.503 133.306 290.104 132.857 A 3.415 3.415 0 0 0 288.075 131.7 A 1.703 1.703 0 0 0 287.795 131.677 Q 286.09 131.677 283.875 135 Q 280.275 141.3 278.175 149.4 A 21.427 21.427 0 0 0 277.871 150.934 Q 277.601 152.632 277.649 154.206 A 13.628 13.628 0 0 0 278.475 158.55 Q 279.975 162.6 284.475 163.2 Q 286.884 163.419 290.492 162.359 A 39.502 39.502 0 0 0 293.325 161.4 A 64.683 64.683 0 0 0 296.017 160.309 Q 298.336 159.31 300.907 158.013 A 129.595 129.595 0 0 0 306.075 155.25 A 141.192 141.192 0 0 0 311.517 152.023 A 167.106 167.106 0 0 0 320.775 145.8 Q 321.075 145.5 320.625 144.9 Q 320.243 144.391 319.753 144.53 Z M 429.853 144.53 A 1.025 1.025 0 0 0 429.675 144.6 A 203.096 203.096 0 0 1 425.909 147.052 Q 415.507 153.659 406.725 157.35 Q 396.375 161.7 393.975 157.5 A 4.741 4.741 0 0 1 393.872 156.946 Q 393.643 155.137 394.522 152.218 A 30.748 30.748 0 0 1 395.175 150.3 Q 395.864 147.544 399.015 141.622 A 169.608 169.608 0 0 1 401.175 137.7 A 1.01 1.01 0 0 0 401.239 137.698 Q 401.475 137.683 401.475 137.55 L 401.475 137.4 Q 401.956 136.437 401.376 134.895 A 8.424 8.424 0 0 0 401.025 134.1 A 7.211 7.211 0 0 0 400.932 133.921 Q 400.603 133.306 400.204 132.857 A 3.415 3.415 0 0 0 398.175 131.7 A 1.703 1.703 0 0 0 397.895 131.677 Q 396.19 131.677 393.975 135 Q 390.375 141.3 388.275 149.4 A 21.427 21.427 0 0 0 387.971 150.934 Q 387.701 152.632 387.749 154.206 A 13.628 13.628 0 0 0 388.575 158.55 Q 390.075 162.6 394.575 163.2 Q 396.984 163.419 400.592 162.359 A 39.502 39.502 0 0 0 403.425 161.4 A 64.683 64.683 0 0 0 406.117 160.309 Q 408.436 159.31 411.007 158.013 A 129.595 129.595 0 0 0 416.175 155.25 A 141.192 141.192 0 0 0 421.617 152.023 A 167.106 167.106 0 0 0 430.875 145.8 Q 431.175 145.5 430.725 144.9 Q 430.343 144.391 429.853 144.53 Z M 245.475 78.6 L 246.075 78.3 A 9788.818 9788.818 0 0 0 250.144 72.263 Q 255.825 63.825 258.975 59.1 Q 263.175 53.1 266.175 47.1 A 67.652 67.652 0 0 0 267.398 44.527 Q 267.97 43.252 268.404 42.115 A 32.665 32.665 0 0 0 268.875 40.8 Q 269.121 39.323 269.367 38.452 A 7.981 7.981 0 0 1 269.475 38.1 A 14.777 14.777 0 0 0 267.788 39.423 Q 266.831 40.284 265.875 41.4 Q 263.775 43.8 261.675 46.8 A 117.692 117.692 0 0 0 258.234 51.977 Q 256.495 54.74 254.692 57.892 A 196.862 196.862 0 0 0 254.175 58.8 Q 250.998 64.865 244.485 77.88 A 3443.924 3443.924 0 0 0 243.975 78.9 A 3.101 3.101 0 0 0 244.423 78.865 Q 244.884 78.797 245.475 78.6 Z M 450.075 136.2 L 447.375 136.8 A 13.179 13.179 0 0 0 444.675 138.075 Q 443.325 138.9 441.975 140.1 A 27.849 27.849 0 0 0 438.806 142.983 Q 437.359 144.503 435.912 146.396 A 56.114 56.114 0 0 0 434.175 148.8 Q 443.665 146.131 448.171 141.996 A 16.682 16.682 0 0 0 448.275 141.9 A 34.148 34.148 0 0 0 449.452 140.793 Q 453.479 136.807 450.612 136.267 A 4.742 4.742 0 0 0 450.075 136.2 Z M 483.375 138.3 A 8.366 8.366 0 0 0 485.081 137.296 Q 485.841 136.728 486.601 135.944 A 18.178 18.178 0 0 0 487.575 134.85 A 29.751 29.751 0 0 0 489.108 132.828 Q 489.838 131.769 490.368 130.767 A 16.012 16.012 0 0 0 490.725 130.05 A 7.577 7.577 0 0 0 490.956 129.503 Q 491.622 127.723 490.575 127.2 Q 489.075 126 484.575 133.2 Q 480.975 138.3 483.375 138.3 Z M 297.36 124.434 A 3.242 3.242 0 0 0 299.175 122.1 A 2.736 2.736 0 0 0 299.195 122.014 Q 299.379 121.163 299.049 120.093 A 7.089 7.089 0 0 0 298.725 119.25 A 2.621 2.621 0 0 0 298.554 118.93 Q 297.908 117.913 296.811 118.796 A 4.21 4.21 0 0 0 296.475 119.1 Q 295.575 119.7 293.925 120.9 A 123.132 123.132 0 0 1 293.707 121.058 Q 292.949 121.607 292.257 122.09 A 75.341 75.341 0 0 1 290.925 123 Q 289.865 123.707 289.637 124.043 A 0.298 0.298 0 0 0 289.575 124.2 Q 289.575 125.4 291.975 125.4 Q 295.546 125.4 297.36 124.434 Z M 407.46 124.434 A 3.242 3.242 0 0 0 409.275 122.1 A 2.736 2.736 0 0 0 409.295 122.014 Q 409.479 121.163 409.149 120.093 A 7.089 7.089 0 0 0 408.825 119.25 A 2.621 2.621 0 0 0 408.654 118.93 Q 408.008 117.913 406.911 118.796 A 4.21 4.21 0 0 0 406.575 119.1 Q 405.675 119.7 404.025 120.9 A 123.132 123.132 0 0 1 403.807 121.058 Q 403.049 121.607 402.357 122.09 A 75.341 75.341 0 0 1 401.025 123 Q 399.965 123.707 399.737 124.043 A 0.298 0.298 0 0 0 399.675 124.2 Q 399.675 125.4 402.075 125.4 Q 405.646 125.4 407.46 124.434 Z M 243.075 83.1 A 2.193 2.193 0 0 0 243.281 82.858 Q 243.478 82.594 243.675 82.2 Q 243.375 82.2 242.925 82.35 A 3.912 3.912 0 0 1 242.658 82.429 Q 242.522 82.464 242.403 82.482 A 1.557 1.557 0 0 1 242.175 82.5 A 2.193 2.193 0 0 0 241.969 82.742 Q 241.87 82.874 241.772 83.039 A 5.478 5.478 0 0 0 241.575 83.4 A 5.307 5.307 0 0 0 241.444 83.681 Q 241.327 83.954 241.291 84.145 A 0.846 0.846 0 0 0 241.275 84.3 A 12.077 12.077 0 0 0 240.239 86.217 A 13.209 13.209 0 0 0 240.225 86.25 Q 239.775 87.3 239.325 88.2 A 34.129 34.129 0 0 0 238.763 89.384 A 41.241 41.241 0 0 0 238.425 90.15 A 12.123 12.123 0 0 1 237.412 92.044 A 11.276 11.276 0 0 1 237.375 92.1 A 1.938 1.938 0 0 0 237.541 91.891 Q 238.052 91.18 239.775 88.35 A 305.556 305.556 0 0 1 240.769 86.728 Q 241.736 85.162 242.463 84.034 A 75.002 75.002 0 0 1 243.075 83.1 Z"
                vector-effect="non-scaling-stroke"
              />
            </g>
          </svg>