<svg width="577" height="521" viewBox="0 0 577 521" fill="none" xmlns="http://www.w3.org/2000/svg">
<path opacity="0.1" fill-rule="evenodd" clip-rule="evenodd" d="M1.08946 520.352C-0.364186 518.917 12.9134 505.304 32.8787 478.096C41.038 466.363 48.6108 455.426 55.5556 444.288C59.4884 437.938 63.3321 431.479 67.2304 423.958C67.5905 423.134 68.375 421.337 69.7005 419.005C71.4478 415.825 73.446 412.791 75.675 409.933C78.2674 406.574 82.221 399.707 88.2979 384.621C88.6999 363.161 93.0868 341.882 101.227 321.903C116.441 285.037 142.282 260.305 171.93 231.933C181.383 222.861 189.17 215.415 200.74 206.104C205.1 202.601 213.229 196.248 230.595 182.41C235.895 178.495 240.868 174.136 245.46 169.38C253.315 160.842 257.281 153.246 258.912 154.197C259.772 154.57 259.158 157.07 257.849 167.954C256.881 176.184 256.91 177.212 257.591 177.682C259.794 179.197 265.036 171.802 277.653 162.981C283.289 158.979 289.471 155.6 301.681 148.493L309.424 144.039C310.965 143.165 313.068 141.941 314.36 141.169C322.963 136.25 331.144 130.584 338.807 124.237V124.237C343.107 119.936 350.562 112.941 352.997 114.626C355.433 116.312 352.007 124.702 349.536 130.985C343.987 145.565 338.131 152.728 339.276 153.854C340.421 154.981 344.921 151.783 362.527 135.913L404.768 109.005L491.082 72.8602C512.075 60.4882 530.435 43.9117 545.022 24.1619C550.556 16.693 555.516 8.80791 559.857 0.578852C566.292 12.9053 570.938 26.144 573.655 39.8926C576.739 54.3096 577.405 69.2055 575.624 83.9571C572.764 105.225 564.713 125.542 552.208 143.042C553.499 143.601 555.391 144.421 557.814 145.121C562.841 146.808 563.936 146.722 564.357 147.71C565.135 149.833 560.11 152.593 554.869 158.972C552.446 161.992 550.344 165.261 548.598 168.722C543.515 177.55 534.337 185.76 522.054 196.547C509.113 207.749 496.859 217.848 485.45 226.948L490.438 228.723L494.626 230.223C491.589 235.81 488.026 241.092 483.987 245.994C476.12 255.396 466.704 263.339 456.178 269.454C443.098 277.461 428.755 283.027 413.84 285.885C412.161 287.854 410.331 290.563 411.057 292.803C411.784 295.044 416.191 295.027 417.346 297.068C419.972 301.988 404.039 315.746 404.039 315.746C391.988 326.654 378.43 335.69 363.821 342.55C363.821 342.55 332.259 357.346 301.287 359.231C290.582 359.846 285.336 359.675 285.336 359.675C271.859 359.299 263.615 356.778 262.708 359.012C261.8 361.245 266.322 364.324 268.508 366.112C274.511 370.953 278.499 371.035 278.663 372.612C279.02 375.778 263.649 382.706 236.758 387.585C210.819 392.315 196.233 391.039 163.372 392.877C152.02 393.491 135.828 394.566 116.231 396.722C137.547 361.278 164.943 329.931 197.08 304.213C229.131 278.773 259.051 264.772 284.273 252.937C329.07 231.968 333.869 236.989 380.574 215.867C415.641 199.998 446.053 185.964 476.956 157.996C512.078 126.148 531.085 91.4505 530.05 90.6172C529.016 89.7839 511.645 118.081 476.55 148.54C444.611 175.989 414.633 189.966 379.269 206.127C330.623 228.334 328.29 222.351 273.219 246.853C233.606 264.464 210.677 274.876 184.109 297.053C163.035 314.73 144.301 335.122 128.398 357.696C125.788 361.328 114.13 380.369 90.7855 418.44C75.9998 442.534 68.0015 455.773 53.5943 472.363C45.5331 481.694 36.9268 490.525 27.8238 498.807C18.0874 507.826 2.29203 521.503 1.04209 520.226" fill="#A75B41"/>
</svg>
