<svg width="1127" height="1018" viewBox="0 0 1127 1018" fill="none" xmlns="http://www.w3.org/2000/svg">
<path opacity="0.1" fill-rule="evenodd" clip-rule="evenodd" d="M0.537482 1017.9C-2.30748 1015.09 23.6783 988.451 62.7529 935.201C78.7217 912.238 93.5425 890.834 107.134 869.035C114.831 856.607 122.354 843.966 129.983 829.247C130.688 827.633 132.224 824.118 134.818 819.553C138.237 813.33 142.148 807.391 146.51 801.797C151.584 795.223 159.322 781.784 171.215 752.259C172.002 710.26 180.587 668.613 196.52 629.513C226.294 557.362 276.869 508.957 334.893 453.43C353.393 435.676 368.635 421.102 391.277 402.88C399.811 396.024 415.721 383.59 449.708 356.508C460.081 348.845 469.813 340.314 478.8 331.006C494.174 314.297 501.935 299.429 505.127 301.292C506.811 302.021 505.608 306.914 503.047 328.215C501.153 344.322 501.209 346.334 502.542 347.254C506.854 350.218 517.112 335.747 541.806 318.483C552.835 310.651 564.935 304.037 588.831 290.128L603.985 281.41C607.001 279.701 611.118 277.304 613.646 275.795C630.484 266.167 646.494 255.079 661.492 242.655V242.655C669.907 234.239 684.497 220.548 689.264 223.846C694.031 227.145 687.326 243.567 682.49 255.864C671.63 284.398 660.169 298.416 662.41 300.62C664.651 302.825 673.458 296.566 707.914 265.507L790.585 212.844L959.512 142.105C1000.6 117.892 1036.53 85.4497 1065.08 46.7969C1075.91 32.1793 1085.62 16.7472 1094.11 0.641955C1106.71 24.7664 1115.8 50.6761 1121.12 77.5838C1127.15 105.8 1128.46 134.953 1124.97 163.823C1119.37 205.448 1103.62 245.209 1079.14 279.46C1081.67 280.554 1085.37 282.159 1090.12 283.528C1099.95 286.83 1102.1 286.662 1102.92 288.595C1104.44 292.75 1094.61 298.153 1084.35 310.637C1079.61 316.547 1075.5 322.945 1072.08 329.718C1062.13 346.996 1044.17 363.064 1020.13 384.176C994.802 406.1 970.818 425.864 948.49 443.673L958.253 447.149L966.449 450.083C960.505 461.018 953.531 471.356 945.627 480.949C930.23 499.35 911.802 514.896 891.201 526.863C865.603 542.533 837.531 553.428 808.34 559.021C805.055 562.875 801.472 568.176 802.894 572.561C804.316 576.947 812.941 576.914 815.202 580.908C820.341 590.536 789.159 617.462 789.159 617.462C765.574 638.811 739.039 656.495 710.448 669.922C710.448 669.922 648.676 698.879 588.06 702.568C567.109 703.772 556.843 703.437 556.843 703.437C530.466 702.701 514.331 697.768 512.556 702.138C510.781 706.509 519.63 712.536 523.909 716.034C535.657 725.51 543.463 725.67 543.784 728.756C544.482 734.953 514.398 748.511 461.769 758.059C411.003 767.318 382.457 764.821 318.145 768.416C295.926 769.62 264.237 771.723 225.884 775.942C267.601 706.573 321.219 645.224 384.115 594.891C446.842 545.102 505.399 517.699 554.761 494.537C642.434 453.499 651.827 463.325 743.235 421.986C811.865 390.929 871.384 363.462 931.866 308.726C1000.6 246.396 1037.8 178.489 1035.78 176.858C1033.75 175.227 999.756 230.608 931.071 290.22C868.562 343.942 809.893 371.296 740.68 402.924C645.474 446.387 640.909 434.677 533.129 482.63C455.601 517.098 410.725 537.475 358.729 580.879C317.485 615.474 280.819 655.384 249.695 699.563C244.589 706.671 221.772 743.938 176.084 818.446C147.146 865.603 131.493 891.512 103.296 923.98C87.5191 942.242 70.6754 959.527 52.8599 975.735C33.8045 993.386 2.89105 1020.15 0.444777 1017.66" fill="#A75B41"/>
</svg>
