<svg width="690" height="281" viewBox="0 0 690 281" fill="none" xmlns="http://www.w3.org/2000/svg">
<path d="M210.997 162.25C210.247 161.875 209.497 161.875 208.747 162.25C189.622 182.125 168.997 200.875 147.622 218.5C126.247 235.75 103.747 252.25 78.9971 263.5C66.6221 269.125 53.1221 273.25 40.3721 272.5C27.6221 272.125 16.7471 263.125 12.9971 251.125C8.87207 239.125 9.62207 225.25 11.4971 212.125C13.7471 199 17.8721 185.875 22.7471 173.125C43.3721 122.875 74.1221 75.25 114.997 38.875C125.122 29.875 135.997 22 147.997 15.25C153.997 11.875 159.997 9.25 166.372 7.74999C172.372 6.24999 177.997 6.99999 179.872 12.625C183.247 24.25 179.122 38.875 175.372 51.625C171.247 64.375 166.747 72.25 160.372 83.875C158.497 88 164.122 95.5 166.372 91C171.997 77.875 176.122 66.625 180.622 53.125C184.372 39.625 189.622 26.125 185.872 10.75C184.372 6.625 181.372 2.49999 176.872 1.375C172.747 0.249989 168.622 0.249989 164.872 1.375C157.372 2.87499 150.997 5.87499 144.622 9.25C132.247 15.625 120.247 23.875 109.747 32.875C66.9971 70 33.9971 117.25 14.1221 169.75C9.24707 183.25 5.12207 196.75 2.87207 211C0.997068 224.875 0.247069 239.875 5.12207 254.125C9.99707 268.75 24.6221 279.625 39.9971 279.625C54.9971 280.375 68.8721 275.125 81.6221 269.125C107.122 256.75 129.247 239.5 150.622 221.875C171.997 203.875 191.872 184.75 210.997 164.125C211.372 163.75 211.372 163 210.997 162.25ZM270.467 159.625C261.467 166.375 252.842 169.75 241.967 167.875C241.967 167.875 247.217 159.25 241.967 154C246.092 138.625 215.342 143.125 208.217 160C198.467 182.875 224.342 188.875 240.467 170.5C253.217 172.375 260.342 169 271.967 160.75C272.342 160.375 271.592 158.875 270.467 159.625ZM214.217 167.875C215.342 160 223.967 151.75 230.717 149.125C233.717 148 241.592 147.25 239.342 154C232.217 155.125 230.342 163.75 236.717 168.625C230.717 177.625 212.717 184 214.217 167.875ZM238.217 166C234.092 163.75 235.967 155.125 240.842 156.625C242.342 157 240.842 162.625 238.217 166ZM442.677 159.625C399.552 194.5 402.177 181.75 395.052 161.875C391.677 153.25 382.302 142 357.927 167.875C359.052 161.875 366.552 149.875 369.177 147.25C370.677 145.375 366.177 142.375 360.552 145.75C359.052 146.875 356.802 150.625 354.552 155.5C333.927 171.25 313.302 182.5 311.427 173.5C310.677 168.25 313.302 159.25 312.177 155.125C309.552 145.75 300.177 142.375 273.177 171.25C274.677 164.875 278.802 153.25 285.552 147.25C287.427 145.75 282.927 142.375 276.927 145.75C273.177 148.375 264.927 169.375 264.927 179.5C264.552 181.75 269.052 182.875 269.802 182.5C278.427 170.875 288.927 161.125 296.802 155.875C308.802 148.75 302.427 164.125 302.427 173.125C302.802 185.125 315.927 186.625 353.052 158.875C350.802 165.25 348.552 172 348.552 177.25C348.177 180.625 353.052 180.625 353.052 180.625C379.677 145.75 384.552 159.25 387.927 170.875C395.052 196.375 408.552 189.625 444.177 161.125C444.552 160.75 443.427 159.25 442.677 159.625ZM501.956 157.375C478.706 175.75 434.081 190.375 443.831 168.25C452.081 166.375 459.206 164.125 465.956 158.875C478.706 149.125 468.956 144.625 467.081 144.25C465.206 143.5 463.331 143.5 461.456 143.5C457.331 144.25 453.956 145.75 450.956 147.25C444.956 151 440.456 156.25 436.706 161.875C426.581 181 439.706 184.375 444.581 184.75C456.206 185.125 476.456 178.75 503.456 158.875C503.831 158.5 502.331 157 501.956 157.375ZM455.456 153.625C457.706 151.75 459.956 150.25 462.206 149.5C466.706 148 471.581 149.125 463.331 155.875C461.081 158.125 454.331 162.25 445.706 164.5C448.706 160.75 452.081 157 455.456 153.625ZM562.782 158.875C550.032 168.25 535.032 175 522.282 179.125C499.407 186.25 500.532 158.5 520.407 144.25C522.657 143.125 525.282 142.375 527.532 143.5C529.407 144.25 530.532 147.25 530.157 149.875C530.157 150.625 530.157 151.375 530.157 152.125C530.157 152.125 530.532 154 532.032 153.625C532.032 153.625 534.657 145 535.782 142.75V142.375C536.157 142.375 536.157 142.375 536.157 142C536.532 140.875 533.907 140.875 533.532 141.625L532.032 144.625C531.282 143.125 530.532 142 529.032 140.875C525.657 138.625 509.157 138.625 497.907 161.125C490.032 176.875 501.657 188.875 523.032 182.125C537.657 177.25 551.907 169.375 564.282 160.375C564.657 160 563.532 158.125 562.782 158.875ZM687.297 66.25C665.172 68.125 643.422 71.125 621.672 75.25H621.297C625.797 68.875 629.922 61.75 634.797 55.375C638.172 50.5 641.547 45.25 644.172 39.625C645.672 37 646.797 34.375 647.922 31.375C648.297 29.5 649.047 28 649.047 26.125C649.047 25.375 649.047 24.25 648.672 22.75C648.297 20.875 644.922 19.75 643.797 20.5C639.297 22.375 637.797 24.625 635.547 26.875C633.672 29.5 631.797 31.75 629.922 34.375C626.547 39.25 623.172 44.5 620.172 49.375C614.547 59.125 609.297 69.25 604.047 79C599.172 79.75 594.297 80.875 589.422 82C578.547 84.625 568.047 86.5 557.172 92.5C556.047 92.875 558.672 97.375 559.797 96.625L560.172 96.25C568.797 91.75 580.047 89.125 590.547 86.125C593.922 85.375 597.672 84.625 601.422 83.5C570.672 137.125 532.047 212.5 550.422 238.375C553.422 242.5 558.297 241.375 561.672 240.625C586.422 235 644.922 180.25 659.172 161.125C659.547 160.375 657.672 159.25 657.297 159.625C612.297 210.625 560.547 245.125 554.922 233.5C547.422 215.5 568.422 167.125 586.797 130.375C595.797 115 605.172 100 614.922 85C615.672 83.125 617.172 81.625 618.297 79.75C619.422 79.375 620.922 79 622.422 79C643.797 74.875 665.547 71.5 687.297 69.625C688.422 69.25 689.172 68.5 689.172 67.75C688.797 67 688.047 66.25 687.297 66.25ZM611.172 82.375C608.547 86.125 606.297 90.25 604.047 94C605.547 90.625 607.047 87.25 608.547 83.875C608.922 83.125 609.297 82.375 609.672 81.625C610.422 81.625 611.172 81.25 611.922 81.25C611.547 81.625 611.172 82 611.172 82.375ZM614.922 76.75C614.172 76.75 613.047 77.125 612.297 77.125C616.422 68.875 620.547 60.25 625.047 52.375C628.047 47.125 631.047 42.25 634.422 37.375C635.922 34.75 637.797 32.5 639.672 30.25C640.797 28.75 642.672 27.25 643.797 26.125C643.797 27.25 643.422 28.375 643.047 29.5C642.297 32.125 641.172 35.125 639.672 37.375C637.047 42.625 634.047 47.875 630.672 52.75C625.422 60.625 620.172 68.5 614.922 76.75Z" fill="#A75B41"/>
</svg>
