<svg width="526" height="395" viewBox="0 0 526 395" fill="none" xmlns="http://www.w3.org/2000/svg">
<path opacity="0.1" fill-rule="evenodd" clip-rule="evenodd" d="M0.446705 394.144C-1.06506 392.842 10.8151 382.429 28.1928 361.146C35.2504 351.936 41.7972 343.348 47.7211 334.548C51.0727 329.528 54.3302 324.412 57.5639 318.413C57.8533 317.75 58.4836 316.307 59.5994 314.455C61.0625 311.926 62.7794 309.536 64.7324 307.309C67.0014 304.691 70.3358 299.242 75.1341 287.084C73.9749 269.199 76.6891 251.749 83.1335 235.655C95.2109 205.97 118.46 187.174 145.133 165.612C153.636 158.716 160.643 153.058 171.178 146.114C175.15 143.501 182.566 138.78 198.391 128.472C203.242 125.583 207.745 122.3 211.851 118.659C218.844 112.094 222.138 106.037 223.786 106.948C224.647 107.32 224.232 109.364 223.75 118.355C223.406 125.156 223.507 126.016 224.201 126.457C226.445 127.879 230.989 122.082 242.575 115.622C247.746 112.685 253.491 110.306 264.806 105.248L271.986 102.084C273.416 101.465 275.365 100.593 276.561 100.042C284.54 96.5514 292.056 92.4073 299.022 87.657V87.657C302.877 84.375 309.594 79.069 312.075 80.6503C314.556 82.2316 311.843 88.9907 309.902 94.0587C305.579 105.832 300.423 111.392 301.613 112.414C302.804 113.436 306.933 111.089 322.843 99.1017L361.821 79.6636L442.829 55.6702C462.273 46.8452 478.863 34.3222 491.568 18.8799C496.39 13.0413 500.627 6.81421 504.238 0.255619C511.361 11.0059 516.817 22.3896 520.441 34.0609C524.47 46.3164 526.19 58.7987 525.529 70.9852C524.293 88.5345 517.96 104.917 507.109 118.631C508.399 119.19 510.292 120.01 512.689 120.767C517.681 122.536 518.735 122.542 519.215 123.397C520.122 125.225 515.453 127.17 510.836 132.119C508.707 134.467 506.906 137.045 505.465 139.809C501.178 146.815 492.879 153.011 481.759 161.136C470.031 169.561 458.888 177.114 448.492 183.893L453.453 185.733L457.618 187.284C455.079 191.731 452.008 195.885 448.45 199.688C441.507 206.973 432.959 212.93 423.203 217.281C411.11 223.028 397.616 226.648 383.374 227.966C381.89 229.49 380.312 231.619 381.178 233.542C382.043 235.464 386.311 235.766 387.577 237.552C390.476 241.847 376.034 252.191 376.034 252.191C365.147 260.434 352.665 267.007 339.008 271.687C339.008 271.687 309.5 281.779 279.632 281.136C269.307 280.883 264.213 280.364 264.213 280.364C251.129 279.086 242.961 276.391 242.243 278.191C241.526 279.99 246.128 282.884 248.375 284.533C254.54 289.004 258.409 289.358 258.682 290.686C259.256 293.354 244.865 298.037 219.167 300.185C194.38 302.277 180.158 300.168 148.457 299.349C137.504 299.05 121.896 298.788 103.067 299.184C121.159 271.123 145.436 246.917 174.713 227.749C203.926 208.807 231.9 199.261 255.48 191.187C297.363 176.89 302.374 181.425 346.096 167.136C378.921 156.399 407.369 146.861 435.288 125.727C467.014 101.656 482.923 74.0522 481.861 73.2825C480.798 72.5129 466.012 94.8908 434.212 117.805C405.252 138.432 377.221 147.953 344.128 158.912C298.605 173.968 295.914 168.806 244.333 185.317C207.229 197.183 185.767 204.233 161.631 220.844C142.491 234.091 125.814 249.773 112.037 267.478C109.772 270.323 99.8522 285.383 79.9844 315.492C67.3996 334.547 60.6067 345.026 47.8471 357.843C40.7113 365.055 33.0113 371.811 24.7906 378.073C16.0093 384.904 1.69476 395.191 0.391756 394.036" fill="#A75B41"/>
</svg>
