<svg width="501" height="82" viewBox="0 0 501 82" fill="none" xmlns="http://www.w3.org/2000/svg">
<path d="M78.6152 80.9023L107.912 2.09375H118.117V1.01953H96.291V2.09375H106.691L82.9121 66.1074L59.377 2.09375H69.7773V1.01953H38.3809V2.09375H48.0977L58.3027 29.584L44.7773 66.1074L21.291 2.09375H31.6914V1.01953H0.294922V2.09375H10.0117L39.3086 80.9023H40.4805L58.8887 31.1953L77.3945 80.9023H78.6152ZM124.367 2.19141H136.184V80.0234H124.367V81.0977H136.184H147.365H159.67V80.0234H147.365V2.19141H159.67V1.11719H124.367V2.19141ZM168.654 19.8184C168.654 18.5 168.703 17.2793 168.85 16.1562C168.996 15.0332 169.484 13.5195 170.363 11.6152C171.242 9.71094 172.414 8.14844 173.928 6.87891C175.441 5.60938 177.736 4.48633 180.812 3.50977C183.889 2.5332 187.551 2.04492 191.799 2.04492H196.389V79.9258H184.572V81.0488H196.389H207.57H219.875V79.9258H207.57V2.04492H212.16C216.359 2.04492 220.021 2.58203 223.146 3.60742C226.271 4.63281 228.566 5.80469 230.08 7.07422C231.594 8.34375 232.766 9.95508 233.645 11.9082C234.523 13.8613 235.012 15.375 235.158 16.498C235.305 17.6211 235.354 18.793 235.354 20.0625V20.7461H236.428V0.970703H167.727V20.7461H168.752L168.654 19.8184ZM325.393 1.99609V0.921875H290.09V1.99609H302.004V40.2773H265.676V1.99609H278.078V0.921875H242.678V1.99609H254.592V79.7793H242.678V80.9023H254.592H265.676H278.078V79.7793H265.676V41.4004H302.004V79.7793H290.09V80.9023H302.004H313.088H325.393V79.7793H313.088V1.99609H325.393ZM444.826 2.19141V1.11719H419.143V2.19141H431.447V57.3184C431.447 64.3984 428.957 69.916 423.977 73.9199C418.996 77.9238 412.648 79.9258 404.982 79.9258C394.387 79.9258 389.064 72.0156 389.064 56.2441V2.24023H401.174V1.16602H365.871V2.24023H378.176V57.3672C378.176 64.6426 380.764 70.4043 385.939 74.6523C391.115 78.9004 397.561 81 405.324 81C413.186 81 419.68 78.9004 424.807 74.6523C429.934 70.4043 432.473 64.6426 432.473 57.3672V2.24023L444.826 2.19141ZM448.342 56.7812V81.293H449.416V80.6094L449.514 81.293C449.514 78.9004 451.369 77.6797 455.031 77.6797C457.473 77.6797 459.963 78.168 462.502 79.1934C465.627 80.6094 468.996 81.293 472.609 81.293C483.352 81.293 490.871 78.2168 495.217 72.0156C498.83 67.4746 500.637 62.2012 500.637 56.1953C500.637 51.9473 499.807 48.334 498.146 45.3555C496.486 42.377 494.289 40.1797 491.604 38.7148C488.918 37.25 485.988 36.0293 482.814 35.0039C479.641 33.9785 476.418 33.0996 473.195 32.3184C469.973 31.5371 467.043 30.6094 464.357 29.5352C461.672 28.4609 459.523 26.8008 457.863 24.6035C456.203 22.4062 455.373 19.623 455.373 16.3027C455.373 13.373 456.301 10.6387 458.205 8.09961C460.109 5.56055 462.404 3.75391 465.139 2.67969C467.629 1.70312 470.266 1.21484 473 1.21484C485.158 1.21484 492.141 8.44141 493.947 22.8945H495.07V0.0917969H493.947C493.947 2.24023 492.336 3.31445 489.162 3.31445C486.916 3.31445 484.621 2.82617 482.277 1.80078C479.689 0.677734 476.711 0.0917969 473.391 0.0917969C469.582 0.0917969 466.164 0.873047 463.088 2.38672C459.23 4.29102 456.203 7.02539 454.006 10.5898C451.809 14.1543 450.686 17.9629 450.686 22.0156C450.686 26.2148 451.516 29.7793 453.176 32.6602C454.836 35.541 456.984 37.6895 459.621 39.1055C462.258 40.5215 465.188 41.6934 468.361 42.6699C471.535 43.6465 474.758 44.5742 477.98 45.4531C481.203 46.332 484.133 47.3574 486.77 48.5293C489.406 49.7012 491.555 51.5566 493.215 54.0469C494.875 56.5371 495.705 59.6621 495.705 63.4219C495.754 69.2812 493.312 73.7246 488.381 76.7031C484.377 79.0469 479.104 80.2188 472.561 80.2188C466.115 80.2188 460.646 78.0703 456.154 73.8223C451.662 69.5742 449.416 64.6914 449.416 59.2227V56.7812H448.342Z" fill="black"/>
</svg>
