<svg width="839" height="130" viewBox="0 0 839 130" fill="none" xmlns="http://www.w3.org/2000/svg">
<path d="M96.9 0.66201C82.2 1.26201 50.1 5.01201 42.9 6.36201C39.3 6.96201 35.7 7.71201 31.95 8.61201C30.15 9.06201 28.35 9.51201 26.55 10.262C25.65 10.712 24.75 10.862 23.4 12.062C22.95 12.662 22.5 13.112 22.65 14.162C22.65 14.762 22.95 15.362 23.1 15.662C23.25 15.962 23.55 16.112 23.7 16.262C24.75 17.012 25.05 16.862 25.65 17.312C26.7 17.762 28.05 14.162 28.05 14.162C29.7 13.562 31.8 12.512 33.45 12.062C36.9 11.162 40.5 10.412 43.95 9.66201C51 8.31201 81.9 3.66201 96.3 2.76201C97.05 2.76201 97.65 0.66201 96.9 0.66201ZM30.3 44.762C34.95 34.712 39.75 24.812 44.7 15.062C45.15 14.012 42.15 11.762 41.7 12.812C36 23.462 30 34.562 25.2 45.512C22.95 45.962 22.95 45.962 20.55 46.262C20.55 46.262 18.3 50.612 19.35 50.312C20.7 50.012 22.05 49.712 23.4 49.412C19.95 56.162 6.6 94.112 0.75 114.962C2.25 116.162 3.75 115.262 4.05 114.512C9.75 98.462 23.55 59.312 28.65 48.212C40.8 45.512 50.4 43.562 63.3 42.212C64.65 42.062 65.4 40.412 64.95 40.412C53.25 41.312 41.85 42.812 30.3 44.762ZM87.5789 62.012C75.5789 69.812 65.3789 72.662 69.1289 66.362C71.5289 62.462 70.7789 60.812 63.5789 59.312C63.8789 58.862 67.6289 54.812 66.4289 52.262C66.1289 51.512 65.2289 51.212 64.1789 51.512C62.0789 52.112 59.9789 54.662 59.2289 56.012C59.0789 56.462 58.4789 57.812 58.6289 58.862C58.9289 60.212 60.2789 60.512 61.0289 60.662C61.1789 60.962 61.4789 61.112 61.7789 61.112C62.2289 60.962 62.2289 60.812 62.5289 60.662C67.9289 61.562 67.4789 63.062 66.7289 64.562C65.5289 66.812 64.7789 68.462 64.9289 69.662C65.6789 76.412 82.9289 65.912 87.8789 62.612H88.0289C88.1789 62.462 87.7289 61.862 87.5789 62.012ZM61.4789 59.012C59.5289 59.012 64.1789 52.862 65.0789 53.462C66.1289 53.912 63.2789 57.962 61.4789 59.012ZM111.751 61.262C102.451 68.612 84.6012 74.462 88.5012 65.612C91.8012 64.862 94.6512 63.962 97.3512 61.862C102.451 57.962 98.5512 56.162 97.8012 56.012C97.0512 55.712 96.3012 55.712 95.5512 55.712C93.9012 56.012 92.5512 56.612 91.3512 57.212C88.9512 58.712 87.1512 60.812 85.6512 63.062C81.6012 70.712 86.8512 72.062 88.8012 72.212C93.4512 72.362 101.551 69.812 112.351 61.862C112.501 61.712 111.901 61.112 111.751 61.262ZM93.1512 59.762C94.0512 59.012 94.9512 58.412 95.8512 58.112C97.6512 57.512 99.6012 57.962 96.3012 60.662C95.4012 61.562 92.7012 63.212 89.2512 64.112C90.4512 62.612 91.8012 61.112 93.1512 59.762ZM118.982 81.962L119.732 80.162C119.732 80.162 138.632 66.362 142.682 62.912C142.682 62.612 142.382 62.312 142.082 62.462C138.482 65.312 123.932 75.812 120.632 77.762C122.432 74.162 126.632 65.462 130.832 57.512H130.982C131.132 57.062 129.782 56.012 129.482 56.312C128.732 57.062 126.632 58.862 125.882 59.462C120.332 49.862 107.432 60.962 108.482 68.162C109.532 72.662 114.182 70.562 114.632 70.262C116.882 68.912 123.332 64.262 125.882 61.862C122.132 67.562 118.982 73.712 116.582 79.712C111.932 83.162 115.082 82.862 115.082 83.312C114.632 84.362 111.032 95.612 110.432 100.262C109.382 108.812 112.082 108.812 112.682 108.812C114.032 108.962 115.682 105.662 116.282 104.612C118.232 100.412 119.732 96.212 120.482 91.562C121.982 83.162 118.982 81.962 118.982 81.962ZM113.732 68.612C112.832 69.062 108.182 71.762 113.732 63.212C120.482 54.512 123.932 58.412 125.132 60.212C120.782 64.412 116.132 67.412 113.732 68.612ZM114.932 104.012C113.432 107.162 112.382 108.062 112.232 106.862C111.932 105.212 112.232 102.962 112.682 100.562C113.732 96.212 114.932 91.862 118.232 83.762C121.382 86.012 116.882 99.962 114.932 104.012ZM169.868 61.862C156.968 71.612 152.768 70.712 154.568 65.462C155.168 63.212 156.668 59.612 157.418 57.212C157.568 56.762 156.218 55.262 155.168 55.862C151.268 62.762 147.968 65.762 142.868 68.612C139.268 70.712 142.868 62.612 145.718 58.862C145.718 58.862 144.068 56.312 143.018 57.062C141.518 58.262 138.068 65.462 137.918 67.412C137.318 74.612 146.918 69.062 151.568 64.112C147.968 74.012 157.868 73.112 170.468 62.462C170.618 62.312 170.168 61.712 169.868 61.862ZM193.636 61.262C184.336 68.612 166.486 74.462 170.386 65.612C173.686 64.862 176.536 63.962 179.236 61.862C184.336 57.962 180.436 56.162 179.686 56.012C178.936 55.712 178.186 55.712 177.436 55.712C175.786 56.012 174.436 56.612 173.236 57.212C170.836 58.712 169.036 60.812 167.536 63.062C163.486 70.712 168.736 72.062 170.686 72.212C175.336 72.362 183.436 69.812 194.236 61.862C194.386 61.712 193.786 61.112 193.636 61.262ZM175.036 59.762C175.936 59.012 176.836 58.412 177.736 58.112C179.536 57.512 181.486 57.962 178.186 60.662C177.286 61.562 174.586 63.212 171.136 64.112C172.336 62.612 173.686 61.112 175.036 59.762ZM228.616 62.012C211.366 76.112 212.416 71.012 209.416 63.062C208.216 59.462 204.316 55.112 194.566 65.312C195.166 62.912 198.166 58.112 199.066 57.062C199.816 56.462 198.016 55.112 195.616 56.612C194.266 57.512 190.816 66.062 190.816 69.962C190.666 71.462 192.616 71.312 192.616 71.312C202.066 57.512 204.616 59.912 206.716 66.662C209.716 76.712 214.966 74.012 229.066 62.762C229.366 62.612 228.766 61.862 228.616 62.012ZM277.88 24.812C269.03 25.562 260.33 26.762 251.63 28.412H251.48C253.28 25.862 254.93 23.012 256.88 20.462C258.23 18.512 259.58 16.412 260.63 14.162C261.23 13.112 261.68 12.062 262.13 10.862C262.28 10.112 262.58 9.51201 262.58 8.76201C262.58 8.46201 262.58 8.01201 262.43 7.41201C262.28 6.66201 260.93 6.21201 260.48 6.51201C258.68 7.26201 258.08 8.16201 257.18 9.06201C256.43 10.112 255.68 11.012 254.93 12.062C253.58 14.012 252.23 16.112 251.03 18.062C248.78 21.962 246.68 26.012 244.58 29.912C242.63 30.212 240.68 30.662 238.73 31.112C234.38 32.162 230.18 32.912 225.83 35.312C225.38 35.462 226.43 37.262 226.88 36.962L227.03 36.812C230.48 35.012 234.98 33.962 239.18 32.762C240.53 32.462 242.03 32.162 243.53 31.712C231.23 53.162 215.78 83.312 223.13 93.662C224.33 95.312 226.28 94.862 227.63 94.562C237.53 92.312 260.93 70.412 266.63 62.762C266.78 62.462 266.03 62.012 265.88 62.162C247.88 82.562 227.18 96.362 224.93 91.712C221.93 84.512 230.33 65.162 237.68 50.462C241.28 44.312 245.03 38.312 248.93 32.312C249.23 31.562 249.83 30.962 250.28 30.212C250.73 30.062 251.33 29.912 251.93 29.912C260.48 28.262 269.18 26.912 277.88 26.162C278.33 26.012 278.63 25.712 278.63 25.412C278.48 25.112 278.18 24.812 277.88 24.812ZM247.43 31.262C246.38 32.762 245.48 34.412 244.58 35.912C245.18 34.562 245.78 33.212 246.38 31.862C246.53 31.562 246.68 31.262 246.83 30.962C247.13 30.962 247.43 30.812 247.73 30.812C247.58 30.962 247.43 31.112 247.43 31.262ZM248.93 29.012C248.63 29.012 248.18 29.162 247.88 29.162C249.53 25.862 251.18 22.412 252.98 19.262C254.18 17.162 255.38 15.212 256.73 13.262C257.33 12.212 258.08 11.312 258.83 10.412C259.28 9.81201 260.03 9.21201 260.48 8.76201C260.48 9.21201 260.33 9.66201 260.18 10.112C259.88 11.162 259.43 12.362 258.83 13.262C257.78 15.362 256.58 17.462 255.23 19.412C253.13 22.562 251.03 25.712 248.93 29.012ZM302.044 62.762C302.194 62.612 301.594 62.012 301.444 62.162C270.994 92.462 263.194 84.662 268.894 62.012C290.944 34.112 302.044 17.462 303.544 8.16201C303.994 4.86201 300.094 1.71201 292.294 10.262C285.994 17.012 281.044 24.962 276.694 33.212C272.344 41.462 268.594 50.162 266.044 59.162C258.844 84.812 267.694 98.762 302.044 62.762ZM293.644 11.612C295.444 9.36201 297.394 7.56201 298.294 6.96201C299.944 5.91201 302.194 5.91201 301.894 7.86201C300.094 18.812 281.944 42.662 269.644 58.262C274.744 39.062 288.094 18.662 293.644 11.612ZM336.265 61.862C336.265 61.562 325.015 69.212 318.565 74.012C319.465 71.012 321.565 61.862 321.565 61.862C322.615 56.912 322.765 55.712 319.465 55.712C313.765 62.912 302.815 71.312 302.365 67.862C302.965 64.562 304.915 61.562 305.965 58.562H306.115C306.415 57.812 303.415 56.312 303.115 57.212C301.015 61.262 297.565 68.762 301.315 70.712C305.815 72.812 319.315 59.162 319.315 59.162C319.165 59.762 314.365 76.262 314.065 77.312C297.715 89.312 281.365 108.062 279.415 120.362C277.915 129.662 287.215 128.762 291.565 125.762C294.715 123.662 297.415 120.962 299.665 117.962C304.015 111.812 307.165 105.062 310.015 98.462C312.715 91.862 315.865 83.462 317.815 76.712C323.965 71.162 336.565 62.612 336.565 62.612C336.565 62.612 336.415 62.012 336.265 61.862ZM306.865 97.112C304.165 103.712 300.865 110.162 296.965 116.012C295.015 118.862 293.815 120.812 291.115 122.762C284.665 127.862 279.415 125.762 283.315 116.012C286.465 107.762 297.565 92.612 313.165 80.162C311.365 85.262 308.815 92.012 306.865 97.112ZM396.83 62.012C393.68 62.612 388.58 64.112 385.13 65.462C385.13 65.162 385.28 65.012 385.43 64.862C385.73 63.662 386.03 62.312 385.88 60.962C385.73 59.462 384.83 58.112 383.63 57.362C381.53 55.562 378.38 55.862 376.28 56.912C374.18 57.962 372.38 59.612 370.73 61.112C365.93 66.212 362.48 71.162 358.88 77.162C360.38 70.262 361.28 66.062 362.93 60.662C369.68 50.762 375.98 41.762 382.43 31.712C385.58 26.612 391.43 14.912 391.58 10.862C391.73 7.71201 388.13 7.71201 386.48 8.31201C384.83 8.91201 381.38 12.662 379.43 15.062C372.23 25.262 367.43 36.662 363.68 48.212C360.08 59.912 356.63 71.612 355.28 83.762C355.13 84.362 355.43 84.812 355.88 85.112C356.48 85.412 357.23 85.112 357.53 84.512C361.43 76.562 365.93 68.762 371.93 62.312C373.43 60.662 375.08 59.312 377.03 58.412C378.83 57.512 380.93 57.662 382.28 59.012C383.63 60.212 383.33 62.012 382.43 63.662C381.68 65.162 380.78 66.662 379.73 68.012C376.58 69.512 373.43 71.162 370.43 73.112C368.48 74.462 366.53 75.662 365.03 77.762C364.73 78.362 363.98 79.262 364.88 80.762C365.93 81.662 366.83 81.662 367.58 81.512C369.08 81.212 370.13 80.612 371.18 80.162C375.23 77.762 378.68 74.612 381.83 71.162C382.73 69.812 383.63 68.312 384.53 66.812C387.98 65.312 393.53 63.662 397.13 62.612C397.43 62.462 397.13 62.012 396.83 62.012ZM366.53 49.262C371.18 38.162 375.68 26.912 382.13 17.012C383.78 14.762 385.73 12.212 387.83 11.012C388.28 10.862 388.73 10.712 389.03 10.712C389.48 10.862 389.18 10.562 389.48 11.012C389.63 11.912 389.18 13.412 388.73 14.762C386.78 20.162 383.78 25.562 380.78 30.662C375.83 38.762 370.43 46.562 364.88 54.062C365.48 52.562 365.93 50.912 366.53 49.262ZM369.68 77.612C368.78 78.212 367.88 78.812 367.13 78.962C367.13 79.112 366.98 78.962 366.98 78.962C367.88 77.312 369.68 75.812 371.33 74.462C373.43 72.962 375.53 71.612 377.63 70.412C375.23 73.112 372.68 75.662 369.68 77.612ZM420.376 62.162C416.776 64.862 413.326 66.212 408.976 65.462C408.976 65.462 411.076 62.012 408.976 59.912C410.626 53.762 398.326 55.562 395.476 62.312C391.576 71.462 401.926 73.862 408.376 66.512C413.476 67.262 416.326 65.912 420.976 62.612C421.126 62.462 420.826 61.862 420.376 62.162ZM397.876 65.462C398.326 62.312 401.776 59.012 404.476 57.962C405.676 57.512 408.826 57.212 407.926 59.912C405.076 60.362 404.326 63.812 406.876 65.762C404.476 69.362 397.276 71.912 397.876 65.462ZM407.476 64.712C405.826 63.812 406.576 60.362 408.526 60.962C409.126 61.112 408.526 63.362 407.476 64.712ZM449.36 61.862C436.46 71.612 432.26 70.712 434.06 65.462C434.66 63.212 436.16 59.612 436.91 57.212C437.06 56.762 435.71 55.262 434.66 55.862C430.76 62.762 427.46 65.762 422.36 68.612C418.76 70.712 422.36 62.612 425.21 58.862C425.21 58.862 423.56 56.312 422.51 57.062C421.01 58.262 417.56 65.462 417.41 67.412C416.81 74.612 426.41 69.062 431.06 64.112C427.46 74.012 437.36 73.112 449.96 62.462C450.11 62.312 449.66 61.712 449.36 61.862ZM483.778 61.862C479.128 64.262 473.578 68.162 469.228 71.462C469.678 69.662 471.478 61.112 471.478 58.412C471.328 57.212 468.328 54.062 467.428 55.262C466.528 56.312 463.678 59.162 463.678 59.312C462.928 58.262 462.028 57.362 460.678 57.062C459.328 56.612 457.828 56.612 456.478 57.062C453.928 57.812 451.828 59.612 450.178 61.412C448.378 63.362 446.728 66.062 446.278 68.762C445.828 71.912 449.728 71.312 450.928 70.862C457.978 68.012 468.178 57.812 468.178 57.812C468.178 57.812 468.178 58.262 468.178 58.412C468.028 60.512 467.428 62.912 466.978 65.012C466.078 68.612 465.028 72.212 463.828 75.812C462.478 76.862 461.128 78.062 459.778 79.262C452.728 85.562 447.478 90.662 441.628 98.162C438.778 101.912 435.928 105.812 433.378 109.862C430.978 113.912 428.428 118.112 427.228 123.062C427.078 124.412 426.778 125.762 427.528 127.412C427.978 128.312 428.728 129.062 429.628 129.362C430.528 129.512 431.128 129.662 431.878 129.662C434.728 129.662 437.128 128.462 439.228 127.112C443.428 124.262 446.578 120.362 449.278 116.462C458.278 103.562 464.128 88.412 468.628 73.712C473.278 69.812 478.978 65.612 484.078 62.612C484.228 62.462 483.928 61.862 483.778 61.862ZM452.578 68.012C451.528 68.612 450.478 69.212 449.578 69.512C449.428 69.512 449.278 69.512 449.128 69.512C449.128 69.512 449.128 69.362 449.128 69.212C449.728 67.562 451.528 65.462 452.728 63.662C455.428 60.662 459.178 57.362 462.928 59.912C459.628 62.912 456.328 66.062 452.578 68.012ZM458.278 91.712C454.678 100.412 451.828 106.862 446.728 114.662C444.028 118.412 441.178 122.162 437.578 124.712C435.778 125.912 433.828 126.812 431.878 126.812C427.078 126.662 433.228 115.112 435.628 111.212C438.028 107.162 440.728 103.412 443.578 99.662C449.278 92.162 454.228 87.062 460.978 80.462C461.728 79.862 462.328 79.262 463.078 78.512C461.578 83.012 460.078 87.362 458.278 91.712ZM524.055 62.312C518.505 67.412 506.505 76.562 506.055 68.762C505.905 64.412 508.005 58.862 507.255 55.862C507.105 55.262 506.055 54.062 505.155 53.462C503.505 52.712 500.955 54.512 500.205 55.112C493.455 59.612 482.505 78.062 482.505 78.062C483.705 74.312 484.755 70.712 485.955 67.112C487.155 63.512 488.355 59.912 489.705 56.312C495.555 47.162 501.555 38.162 507.555 29.012C510.855 23.912 514.755 19.112 516.705 12.962C516.855 12.212 517.005 11.312 517.155 10.562C517.155 9.66201 517.305 8.76201 516.555 7.56201C516.255 6.96201 515.205 6.51201 514.605 6.51201C514.005 6.66201 513.405 6.81201 513.105 6.96201C512.205 7.41201 511.605 8.01201 511.005 8.61201C508.605 10.712 506.805 13.262 505.005 15.812C498.105 26.012 493.305 37.262 488.955 48.662C486.705 54.362 484.605 60.062 482.955 65.912C481.155 71.762 479.505 78.812 478.305 83.912V84.062C478.305 84.512 478.455 84.812 478.905 84.962C479.355 85.112 480.555 84.662 480.555 84.662C484.155 78.812 487.455 73.712 491.505 68.462C495.705 62.912 500.505 57.962 501.855 57.062C502.305 56.612 502.905 56.312 503.505 56.162C503.505 57.212 502.605 64.112 502.305 65.762C500.655 81.062 512.205 74.462 524.655 62.912C524.955 62.012 524.055 62.312 524.055 62.312ZM507.255 17.312C508.755 14.762 510.555 12.362 512.655 10.412C513.105 9.81201 513.705 9.36201 514.155 9.21201C514.455 9.06201 514.605 8.91201 514.755 8.91201C515.055 9.36201 514.905 11.162 514.605 12.362C513.105 18.062 509.355 23.012 506.055 28.112C501.405 35.162 496.755 42.362 491.955 49.562C496.305 38.462 500.805 27.362 507.255 17.312ZM574.364 24.812C565.514 25.562 556.814 26.762 548.114 28.412H547.964C549.764 25.862 551.414 23.012 553.364 20.462C554.714 18.512 556.064 16.412 557.114 14.162C557.714 13.112 558.164 12.062 558.614 10.862C558.764 10.112 559.064 9.51201 559.064 8.76201C559.064 8.46201 559.064 8.01201 558.914 7.41201C558.764 6.66201 557.414 6.21201 556.964 6.51201C555.164 7.26201 554.564 8.16201 553.664 9.06201C552.914 10.112 552.164 11.012 551.414 12.062C550.064 14.012 548.714 16.112 547.514 18.062C545.264 21.962 543.164 26.012 541.064 29.912C539.114 30.212 537.164 30.662 535.214 31.112C530.864 32.162 526.664 32.912 522.314 35.312C521.864 35.462 522.914 37.262 523.364 36.962L523.514 36.812C526.964 35.012 531.464 33.962 535.664 32.762C537.014 32.462 538.514 32.162 540.014 31.712C527.714 53.162 512.264 83.312 519.614 93.662C520.814 95.312 522.764 94.862 524.114 94.562C534.014 92.312 557.414 70.412 563.114 62.762C563.264 62.462 562.514 62.012 562.364 62.162C544.364 82.562 523.664 96.362 521.414 91.712C518.414 84.512 526.814 65.162 534.164 50.462C537.764 44.312 541.514 38.312 545.414 32.312C545.714 31.562 546.314 30.962 546.764 30.212C547.214 30.062 547.814 29.912 548.414 29.912C556.964 28.262 565.664 26.912 574.364 26.162C574.814 26.012 575.114 25.712 575.114 25.412C574.964 25.112 574.664 24.812 574.364 24.812ZM543.914 31.262C542.864 32.762 541.964 34.412 541.064 35.912C541.664 34.562 542.264 33.212 542.864 31.862C543.014 31.562 543.164 31.262 543.314 30.962C543.614 30.962 543.914 30.812 544.214 30.812C544.064 30.962 543.914 31.112 543.914 31.262ZM545.414 29.012C545.114 29.012 544.664 29.162 544.364 29.162C546.014 25.862 547.664 22.412 549.464 19.262C550.664 17.162 551.864 15.212 553.214 13.262C553.814 12.212 554.564 11.312 555.314 10.412C555.764 9.81201 556.514 9.21201 556.964 8.76201C556.964 9.21201 556.814 9.66201 556.664 10.112C556.364 11.162 555.914 12.362 555.314 13.262C554.264 15.362 553.064 17.462 551.714 19.412C549.614 22.562 547.514 25.712 545.414 29.012ZM636.473 24.812C627.623 25.562 618.923 26.762 610.223 28.412H610.073C611.873 25.862 613.523 23.012 615.473 20.462C616.823 18.512 618.173 16.412 619.223 14.162C619.823 13.112 620.273 12.062 620.723 10.862C620.873 10.112 621.173 9.51201 621.173 8.76201C621.173 8.46201 621.173 8.01201 621.023 7.41201C620.873 6.66201 619.523 6.21201 619.073 6.51201C617.273 7.26201 616.673 8.16201 615.773 9.06201C615.023 10.112 614.273 11.012 613.523 12.062C612.173 14.012 610.823 16.112 609.623 18.062C607.373 21.962 605.273 26.012 603.173 29.912C601.223 30.212 599.273 30.662 597.323 31.112C592.973 32.162 588.773 32.912 584.423 35.312C583.973 35.462 585.023 37.262 585.473 36.962L585.623 36.812C589.073 35.012 593.573 33.962 597.773 32.762C599.123 32.462 600.623 32.162 602.123 31.712C589.823 53.162 574.373 83.312 581.723 93.662C582.923 95.312 584.873 94.862 586.223 94.562C596.123 92.312 619.523 70.412 625.223 62.762C625.373 62.462 624.623 62.012 624.473 62.162C606.473 82.562 585.773 96.362 583.523 91.712C580.523 84.512 588.923 65.162 596.273 50.462C599.873 44.312 603.623 38.312 607.523 32.312C607.823 31.562 608.423 30.962 608.873 30.212C609.323 30.062 609.923 29.912 610.523 29.912C619.073 28.262 627.773 26.912 636.473 26.162C636.923 26.012 637.223 25.712 637.223 25.412C637.073 25.112 636.773 24.812 636.473 24.812ZM606.023 31.262C604.973 32.762 604.073 34.412 603.173 35.912C603.773 34.562 604.373 33.212 604.973 31.862C605.123 31.562 605.273 31.262 605.423 30.962C605.723 30.962 606.023 30.812 606.323 30.812C606.173 30.962 606.023 31.112 606.023 31.262ZM607.523 29.012C607.223 29.012 606.773 29.162 606.473 29.162C608.123 25.862 609.773 22.412 611.573 19.262C612.773 17.162 613.973 15.212 615.323 13.262C615.923 12.212 616.673 11.312 617.423 10.412C617.873 9.81201 618.623 9.21201 619.073 8.76201C619.073 9.21201 618.923 9.66201 618.773 10.112C618.473 11.162 618.023 12.362 617.423 13.262C616.373 15.362 615.173 17.462 613.823 19.412C611.723 22.562 609.623 25.712 607.523 29.012ZM648.306 62.162C644.706 64.862 641.256 66.212 636.906 65.462C636.906 65.462 639.006 62.012 636.906 59.912C638.556 53.762 626.256 55.562 623.406 62.312C619.506 71.462 629.856 73.862 636.306 66.512C641.406 67.262 644.256 65.912 648.906 62.612C649.056 62.462 648.756 61.862 648.306 62.162ZM625.806 65.462C626.256 62.312 629.706 59.012 632.406 57.962C633.606 57.512 636.756 57.212 635.856 59.912C633.006 60.362 632.256 63.812 634.806 65.762C632.406 69.362 625.206 71.912 625.806 65.462ZM635.406 64.712C633.756 63.812 634.506 60.362 636.456 60.962C637.056 61.112 636.456 63.362 635.406 64.712ZM683.29 61.862C678.64 64.262 673.09 68.162 668.74 71.462C669.19 69.662 670.99 61.112 670.99 58.412C670.84 57.212 667.84 54.062 666.94 55.262C666.04 56.312 663.19 59.162 663.19 59.312C662.44 58.262 661.54 57.362 660.19 57.062C658.84 56.612 657.34 56.612 655.99 57.062C653.44 57.812 651.34 59.612 649.69 61.412C647.89 63.362 646.24 66.062 645.79 68.762C645.34 71.912 649.24 71.312 650.44 70.862C657.49 68.012 667.69 57.812 667.69 57.812C667.69 57.812 667.69 58.262 667.69 58.412C667.54 60.512 666.94 62.912 666.49 65.012C665.59 68.612 664.54 72.212 663.34 75.812C661.99 76.862 660.64 78.062 659.29 79.262C652.24 85.562 646.99 90.662 641.14 98.162C638.29 101.912 635.44 105.812 632.89 109.862C630.49 113.912 627.94 118.112 626.74 123.062C626.59 124.412 626.29 125.762 627.04 127.412C627.49 128.312 628.24 129.062 629.14 129.362C630.04 129.512 630.64 129.662 631.39 129.662C634.24 129.662 636.64 128.462 638.74 127.112C642.94 124.262 646.09 120.362 648.79 116.462C657.79 103.562 663.64 88.412 668.14 73.712C672.79 69.812 678.49 65.612 683.59 62.612C683.74 62.462 683.44 61.862 683.29 61.862ZM652.09 68.012C651.04 68.612 649.99 69.212 649.09 69.512C648.94 69.512 648.79 69.512 648.64 69.512C648.64 69.512 648.64 69.362 648.64 69.212C649.24 67.562 651.04 65.462 652.24 63.662C654.94 60.662 658.69 57.362 662.44 59.912C659.14 62.912 655.84 66.062 652.09 68.012ZM657.79 91.712C654.19 100.412 651.34 106.862 646.24 114.662C643.54 118.412 640.69 122.162 637.09 124.712C635.29 125.912 633.34 126.812 631.39 126.812C626.59 126.662 632.74 115.112 635.14 111.212C637.54 107.162 640.24 103.412 643.09 99.662C648.79 92.162 653.74 87.062 660.49 80.462C661.24 79.862 661.84 79.262 662.59 78.512C661.09 83.012 659.59 87.362 657.79 91.712ZM706.917 61.262C697.617 68.612 679.767 74.462 683.667 65.612C686.967 64.862 689.817 63.962 692.517 61.862C697.617 57.962 693.717 56.162 692.967 56.012C692.217 55.712 691.467 55.712 690.717 55.712C689.067 56.012 687.717 56.612 686.517 57.212C684.117 58.712 682.317 60.812 680.817 63.062C676.767 70.712 682.017 72.062 683.967 72.212C688.617 72.362 696.717 69.812 707.517 61.862C707.667 61.712 707.067 61.112 706.917 61.262ZM688.317 59.762C689.217 59.012 690.117 58.412 691.017 58.112C692.817 57.512 694.767 57.962 691.467 60.662C690.567 61.562 687.867 63.212 684.417 64.112C685.617 62.612 686.967 61.112 688.317 59.762ZM756.298 24.812C747.448 25.562 738.748 26.762 730.048 28.412H729.898C731.698 25.862 733.348 23.012 735.298 20.462C736.648 18.512 737.998 16.412 739.048 14.162C739.648 13.112 740.098 12.062 740.548 10.862C740.698 10.112 740.998 9.51201 740.998 8.76201C740.998 8.46201 740.998 8.01201 740.848 7.41201C740.698 6.66201 739.348 6.21201 738.898 6.51201C737.098 7.26201 736.498 8.16201 735.598 9.06201C734.848 10.112 734.098 11.012 733.348 12.062C731.998 14.012 730.648 16.112 729.448 18.062C727.198 21.962 725.098 26.012 722.998 29.912C721.048 30.212 719.098 30.662 717.148 31.112C712.798 32.162 708.598 32.912 704.248 35.312C703.798 35.462 704.848 37.262 705.298 36.962L705.448 36.812C708.898 35.012 713.398 33.962 717.598 32.762C718.948 32.462 720.448 32.162 721.948 31.712C709.648 53.162 694.198 83.312 701.548 93.662C702.748 95.312 704.698 94.862 706.048 94.562C715.948 92.312 739.348 70.412 745.048 62.762C745.198 62.462 744.448 62.012 744.298 62.162C726.298 82.562 705.598 96.362 703.348 91.712C700.348 84.512 708.748 65.162 716.098 50.462C719.698 44.312 723.448 38.312 727.348 32.312C727.648 31.562 728.248 30.962 728.698 30.212C729.148 30.062 729.748 29.912 730.348 29.912C738.898 28.262 747.598 26.912 756.298 26.162C756.748 26.012 757.048 25.712 757.048 25.412C756.898 25.112 756.598 24.812 756.298 24.812ZM725.848 31.262C724.798 32.762 723.898 34.412 722.998 35.912C723.598 34.562 724.198 33.212 724.798 31.862C724.948 31.562 725.098 31.262 725.248 30.962C725.548 30.962 725.848 30.812 726.148 30.812C725.998 30.962 725.848 31.112 725.848 31.262ZM727.348 29.012C727.048 29.012 726.598 29.162 726.298 29.162C727.948 25.862 729.598 22.412 731.398 19.262C732.598 17.162 733.798 15.212 735.148 13.262C735.748 12.212 736.498 11.312 737.248 10.412C737.698 9.81201 738.448 9.21201 738.898 8.76201C738.898 9.21201 738.748 9.66201 738.598 10.112C738.298 11.162 737.848 12.362 737.248 13.262C736.198 15.362 734.998 17.462 733.648 19.412C731.548 22.562 729.448 25.712 727.348 29.012ZM784.505 62.312C778.955 67.412 766.955 76.562 766.505 68.762C766.355 64.412 768.455 58.862 767.705 55.862C767.555 55.262 766.505 54.062 765.605 53.462C763.955 52.712 761.405 54.512 760.655 55.112C753.905 59.612 742.955 78.062 742.955 78.062C744.155 74.312 745.205 70.712 746.405 67.112C747.605 63.512 748.805 59.912 750.155 56.312C756.005 47.162 762.005 38.162 768.005 29.012C771.305 23.912 775.205 19.112 777.155 12.962C777.305 12.212 777.455 11.312 777.605 10.562C777.605 9.66201 777.755 8.76201 777.005 7.56201C776.705 6.96201 775.655 6.51201 775.055 6.51201C774.455 6.66201 773.855 6.81201 773.555 6.96201C772.655 7.41201 772.055 8.01201 771.455 8.61201C769.055 10.712 767.255 13.262 765.455 15.812C758.555 26.012 753.755 37.262 749.405 48.662C747.155 54.362 745.055 60.062 743.405 65.912C741.605 71.762 739.955 78.812 738.755 83.912V84.062C738.755 84.512 738.905 84.812 739.355 84.962C739.805 85.112 741.005 84.662 741.005 84.662C744.605 78.812 747.905 73.712 751.955 68.462C756.155 62.912 760.955 57.962 762.305 57.062C762.755 56.612 763.355 56.312 763.955 56.162C763.955 57.212 763.055 64.112 762.755 65.762C761.105 81.062 772.655 74.462 785.105 62.912C785.405 62.012 784.505 62.312 784.505 62.312ZM767.705 17.312C769.205 14.762 771.005 12.362 773.105 10.412C773.555 9.81201 774.155 9.36201 774.605 9.21201C774.905 9.06201 775.055 8.91201 775.205 8.91201C775.505 9.36201 775.355 11.162 775.055 12.362C773.555 18.062 769.805 23.012 766.505 28.112C761.855 35.162 757.205 42.362 752.405 49.562C756.755 38.462 761.255 27.362 767.705 17.312ZM809.163 61.262C799.863 68.612 782.013 74.462 785.913 65.612C789.213 64.862 792.063 63.962 794.763 61.862C799.863 57.962 795.963 56.162 795.213 56.012C794.463 55.712 793.713 55.712 792.963 55.712C791.313 56.012 789.963 56.612 788.763 57.212C786.363 58.712 784.563 60.812 783.063 63.062C779.013 70.712 784.263 72.062 786.213 72.212C790.863 72.362 798.963 69.812 809.763 61.862C809.913 61.712 809.313 61.112 809.163 61.262ZM790.563 59.762C791.463 59.012 792.363 58.412 793.263 58.112C795.063 57.512 797.013 57.962 793.713 60.662C792.813 61.562 790.113 63.212 786.663 64.112C787.863 62.612 789.213 61.112 790.563 59.762ZM837.579 62.012C825.579 69.812 815.379 72.662 819.129 66.362C821.529 62.462 820.779 60.812 813.579 59.312C813.879 58.862 817.629 54.812 816.429 52.262C816.129 51.512 815.229 51.212 814.179 51.512C812.079 52.112 809.979 54.662 809.229 56.012C809.079 56.462 808.479 57.812 808.629 58.862C808.929 60.212 810.279 60.512 811.029 60.662C811.179 60.962 811.479 61.112 811.779 61.112C812.229 60.962 812.229 60.812 812.529 60.662C817.929 61.562 817.479 63.062 816.729 64.562C815.529 66.812 814.779 68.462 814.929 69.662C815.679 76.412 832.929 65.912 837.879 62.612H838.029C838.179 62.462 837.729 61.862 837.579 62.012ZM811.479 59.012C809.529 59.012 814.179 52.862 815.079 53.462C816.129 53.912 813.279 57.962 811.479 59.012Z" fill="black"/>
</svg>
