<svg width="906" height="190" viewBox="0 0 906 190" fill="none" xmlns="http://www.w3.org/2000/svg">
<path d="M69.9828 131.8C79.9828 105 86.3828 83 87.7828 70.6C89.9828 47 76.1828 43 60.7828 59.8C39.9828 82.6 20.9828 114.4 4.98281 150.8C5.58281 143.2 7.18281 135.4 9.18281 128C12.3828 116.2 16.7828 104.8 21.5828 93.6C31.3828 71 42.9828 49.4 55.7828 28.6C53.5828 27.4 51.1828 28.2 49.7828 30.6C36.3828 51.6 27.1828 69 17.1828 91.6C11.9828 102.8 0.382812 132.2 2.38281 155.4C2.58281 158.6 2.58281 160 5.38281 159.6C17.9828 124.8 44.7828 79.2 63.3828 61.2C83.7828 41.2 84.1828 61.2 83.1828 71.2C80.7828 91.6 65.5828 131 59.1828 146.4C57.5828 150 61.5828 149.2 64.1828 149C128.983 33.4 181.383 0.4 139.783 104.8L120.183 156.6C117.983 162.4 116.183 168.2 114.583 174.4C114.183 176 113.983 177.6 113.983 179.2C113.183 189.8 126.583 184.8 129.183 183C129.383 182.8 129.783 182.2 128.983 182.2C126.583 183.2 113.983 188.6 118.383 175.4C120.383 169.8 140.383 118.4 144.983 107C152.583 88.6 157.183 73.4 159.183 61.8C166.783 18.6 131.383 27.8 69.9828 131.8ZM188.556 117.8C183.756 121.4 179.156 123.2 173.356 122.2C173.356 122.2 176.156 117.6 173.356 114.8C175.556 106.6 159.156 109 155.356 118C150.156 130.2 163.956 133.4 172.556 123.6C179.356 124.6 183.156 122.8 189.356 118.4C189.556 118.2 189.156 117.4 188.556 117.8ZM158.556 122.2C159.156 118 163.756 113.6 167.356 112.2C168.956 111.6 173.156 111.2 171.956 114.8C168.156 115.4 167.156 120 170.556 122.6C167.356 127.4 157.756 130.8 158.556 122.2ZM171.356 121.2C169.156 120 170.156 115.4 172.756 116.2C173.556 116.4 172.756 119.4 171.356 121.2ZM217.202 117.6C209.602 120.4 202.002 123.6 194.802 127.6V127.4C195.002 124.8 195.002 122 195.002 119.4C195.202 116.2 195.202 113 195.602 110C199.202 108 202.402 105.4 204.402 101.8C206.402 98.4 206.002 94.2 200.202 96.8C196.602 98.4 191.602 103 191.002 110.8C190.802 110.8 190.602 111 190.402 111C190.202 111.2 190.002 111.4 190.002 111.8C190.202 112 190.402 112.2 190.802 112.2C190.802 112 190.802 112 190.802 112C190.402 114.4 190.002 126.8 190.002 130.4C188.802 131.2 187.602 132 186.602 132.8C184.202 134.4 182.002 136.2 180.202 138.6C179.402 139.8 178.602 141.2 178.602 143C178.402 144.6 179.402 146.4 181.202 147.2C184.802 148.6 188.402 146.6 190.602 144.2C192.602 141.8 193.602 138.8 194.402 136C194.802 133.6 194.802 131.4 194.802 129.2C202.202 125 209.802 121.6 217.602 118.4C217.802 118.2 217.602 117.4 217.202 117.6ZM197.002 104C198.202 100.2 206.802 93.4 203.202 101.2C201.602 104.4 199.002 107 195.802 108.8C196.002 107.2 196.402 105.6 197.002 104ZM190.002 135.4C189.602 137.8 189.002 140.4 187.802 142.2C186.602 144.2 184.202 145.8 182.202 145.2C180.202 144.6 180.202 141.6 181.602 139.4C183.002 137.2 185.002 135.4 187.402 133.8C188.202 133.2 189.202 132.6 190.002 132.2C190.002 133.2 190.002 134.4 190.002 135.4ZM282.741 68C270.941 69 259.341 70.6 247.741 72.8H247.541C249.941 69.4 252.141 65.6 254.741 62.2C256.541 59.6 258.341 56.8 259.741 53.8C260.541 52.4 261.141 51 261.741 49.4C261.941 48.4 262.341 47.6 262.341 46.6C262.341 46.2 262.341 45.6 262.141 44.8C261.941 43.8 260.141 43.2 259.541 43.6C257.141 44.6 256.341 45.8 255.141 47C254.141 48.4 253.141 49.6 252.141 51C250.341 53.6 248.541 56.4 246.941 59C243.941 64.2 241.141 69.6 238.341 74.8C235.741 75.2 233.141 75.8 230.541 76.4C224.741 77.8 219.141 78.8 213.341 82C212.741 82.2 214.141 84.6 214.741 84.2L214.941 84C219.541 81.6 225.541 80.2 231.141 78.6C232.941 78.2 234.941 77.8 236.941 77.2C220.541 105.8 199.941 146 209.741 159.8C211.341 162 213.941 161.4 215.741 161C228.941 158 260.141 128.8 267.741 118.6C267.941 118.2 266.941 117.6 266.741 117.8C242.741 145 215.141 163.4 212.141 157.2C208.141 147.6 219.341 121.8 229.141 102.2C233.941 94 238.941 86 244.141 78C244.541 77 245.341 76.2 245.941 75.2C246.541 75 247.341 74.8 248.141 74.8C259.541 72.6 271.141 70.8 282.741 69.8C283.341 69.6 283.741 69.2 283.741 68.8C283.541 68.4 283.141 68 282.741 68ZM242.141 76.6C240.741 78.6 239.541 80.8 238.341 82.8C239.141 81 239.941 79.2 240.741 77.4C240.941 77 241.141 76.6 241.341 76.2C241.741 76.2 242.141 76 242.541 76C242.341 76.2 242.141 76.4 242.141 76.6ZM244.141 73.6C243.741 73.6 243.141 73.8 242.741 73.8C244.941 69.4 247.141 64.8 249.541 60.6C251.141 57.8 252.741 55.2 254.541 52.6C255.341 51.2 256.341 50 257.341 48.8C257.941 48 258.941 47.2 259.541 46.6C259.541 47.2 259.341 47.8 259.141 48.4C258.741 49.8 258.141 51.4 257.341 52.6C255.941 55.4 254.341 58.2 252.541 60.8C249.741 65 246.941 69.2 244.141 73.6ZM375.153 150.2C355.753 152 312.953 159.2 303.553 161.4C300.953 162 298.553 162.8 295.953 163.4C301.953 132.6 350.953 38.6 361.153 28.6C362.353 27.6 357.153 24.8 356.153 26C344.553 38.4 295.953 131.6 290.953 164.8C290.353 164.8 289.953 165 289.353 165.2C286.953 166 284.553 166.6 282.153 167.8C280.953 168.4 279.553 168.8 277.953 170.4C277.553 171.2 276.953 171.8 277.153 173.4C277.153 174 277.553 174.8 277.953 175.2C278.153 175.4 278.353 175.8 278.753 176C279.953 177 280.353 176.8 281.353 177.2C282.753 177.8 284.353 172.8 284.353 172.8C286.353 172 288.553 171.2 290.953 170.4C295.353 169 300.153 167.6 304.753 166.4C314.153 164.2 356.353 156 375.553 154C376.553 153.8 376.153 150.2 375.153 150.2ZM391.486 117.8C386.686 121.4 382.086 123.2 376.286 122.2C376.286 122.2 379.086 117.6 376.286 114.8C378.486 106.6 362.086 109 358.286 118C353.086 130.2 366.886 133.4 375.486 123.6C382.286 124.6 386.086 122.8 392.286 118.4C392.486 118.2 392.086 117.4 391.486 117.8ZM361.486 122.2C362.086 118 366.686 113.6 370.286 112.2C371.886 111.6 376.086 111.2 374.886 114.8C371.086 115.4 370.086 120 373.486 122.6C370.286 127.4 360.686 130.8 361.486 122.2ZM374.286 121.2C372.086 120 373.086 115.4 375.686 116.2C376.486 116.4 375.686 119.4 374.286 121.2ZM423.331 104.2C414.731 102.6 403.931 116.8 396.931 127C396.731 118.8 397.931 111.6 399.531 107.6C399.531 106 395.131 104.4 394.731 105.8C393.131 111 391.931 118.4 393.531 134.8C393.531 135.6 395.131 135.2 395.531 134.6C400.131 125.4 415.931 102.8 423.131 105.2C423.731 104.8 424.131 104.4 423.331 104.2ZM458.697 116.6C446.297 126.4 422.497 134.2 427.697 122.4C432.097 121.4 435.897 120.2 439.497 117.4C446.297 112.2 441.097 109.8 440.097 109.6C439.097 109.2 438.097 109.2 437.097 109.2C434.897 109.6 433.097 110.4 431.497 111.2C428.297 113.2 425.897 116 423.897 119C418.497 129.2 425.497 131 428.097 131.2C434.297 131.4 445.097 128 459.497 117.4C459.697 117.2 458.897 116.4 458.697 116.6ZM433.897 114.6C435.097 113.6 436.297 112.8 437.497 112.4C439.897 111.6 442.497 112.2 438.097 115.8C436.897 117 433.297 119.2 428.697 120.4C430.297 118.4 432.097 116.4 433.897 114.6ZM525.138 44.2C525.138 43.8 524.738 43 524.138 42.6C523.738 42.4 523.338 42 522.738 41.8C520.338 41 518.538 42.2 517.338 43.2C515.938 44.2 514.938 45.2 513.938 46.4C511.938 48.6 510.138 51.2 508.738 53.6C502.538 63.6 497.538 74.2 493.338 84.8C490.538 92 487.938 99.2 485.337 106.4C483.738 108.4 482.338 110.2 480.738 112C478.938 110 476.338 108.8 473.538 108.8C470.138 108.8 466.938 110.2 464.538 111.8C459.338 115.2 454.537 119.6 452.737 126.2C452.338 128 451.937 130.4 453.937 132.6C456.337 134.4 461.938 134.4 468.138 129C474.738 123 479.938 118 482.538 114.4C482.138 115.4 467.538 180 517.737 118.2C517.737 118 517.338 117.8 516.938 117.6C468.538 175.6 488.738 109.2 490.538 104.4C494.538 99.4 498.338 94.2 501.938 89C508.738 79.6 515.138 69.8 520.338 59.6C521.738 57 522.938 54.2 523.938 51.4C524.538 50.2 524.938 48.6 525.338 47C525.338 46.2 525.538 45.4 525.138 44.2ZM478.738 114.6C474.738 118.8 467.738 127 459.738 129.8C458.537 130.2 456.137 131.4 457.337 127.4C458.537 123 462.538 118.4 466.738 115.4C470.538 112.4 476.738 109.2 479.338 113.6C479.138 114 478.938 114.2 478.738 114.6ZM521.338 50.6C520.338 53.2 519.138 55.8 517.737 58.2C511.138 70.8 503.338 82.8 494.738 94.2C495.738 91.8 496.738 89.2 497.738 86.8C502.538 76.2 506.738 65.6 512.138 55.8C513.538 53.2 514.938 50.8 516.738 48.6C518.138 46.6 520.738 44.4 521.738 44.8C522.938 44.4 522.338 48.2 521.338 50.6ZM614.158 33.4C609.158 34.8 604.158 36.8 599.358 38.8C602.958 32.4 606.758 26.2 610.558 19.8C611.558 18 605.558 14.6 604.558 16.4C599.358 25.4 594.358 34.4 589.558 43.6C579.958 48.6 570.758 54.4 561.958 60.8C561.158 61.4 564.758 63.4 565.558 62.8C572.958 57.4 578.958 53 586.958 48.6C575.958 69.4 565.558 90.6 556.358 112.4C554.758 112.8 553.358 113.2 551.758 113.4C550.358 113.8 551.358 118 552.758 117.8C553.158 117.6 553.558 117.6 553.958 117.4C545.358 138.4 537.758 160.4 531.758 182.2C531.358 183 535.358 182.2 535.758 181.2C542.358 158.6 550.358 138 559.758 116.4C576.158 113.2 593.158 107.4 609.158 100.2C618.158 96 626.758 90.8 634.758 84.6C668.958 57.8 659.158 23.2 614.158 33.4ZM647.958 59.8C644.358 67.8 638.158 75 630.758 80.8C623.358 86.8 615.158 91.6 606.558 95.8C592.558 102.4 577.558 107.2 562.358 111C572.758 88 584.558 65.4 596.958 43.2C602.758 40.4 608.758 37.8 614.958 36.8C624.158 34.8 634.358 34.2 642.158 38.4C645.758 40.2 648.558 43.4 649.558 47.4C650.358 51.2 649.758 55.6 647.958 59.8ZM665.92 117.6C649.92 128 636.32 131.8 641.32 123.4C644.52 118.2 643.52 116 633.92 114C634.32 113.4 639.32 108 637.72 104.6C637.32 103.6 636.12 103.2 634.72 103.6C631.92 104.4 629.12 107.8 628.12 109.6C627.92 110.2 627.12 112 627.32 113.4C627.72 115.2 629.52 115.6 630.52 115.8C630.72 116.2 631.12 116.4 631.52 116.4C632.12 116.2 632.12 116 632.52 115.8C639.72 117 639.12 119 638.12 121C636.52 124 635.52 126.2 635.72 127.8C636.72 136.8 659.72 122.8 666.32 118.4H666.52C666.72 118.2 666.12 117.4 665.92 117.6ZM631.12 113.6C628.52 113.6 634.72 105.4 635.92 106.2C637.32 106.8 633.52 112.2 631.12 113.6ZM697.15 117.8C692.35 121.4 687.75 123.2 681.95 122.2C681.95 122.2 684.75 117.6 681.95 114.8C684.15 106.6 667.75 109 663.95 118C658.75 130.2 672.55 133.4 681.15 123.6C687.95 124.6 691.75 122.8 697.95 118.4C698.15 118.2 697.75 117.4 697.15 117.8ZM667.15 122.2C667.75 118 672.35 113.6 675.95 112.2C677.55 111.6 681.75 111.2 680.55 114.8C676.75 115.4 675.75 120 679.15 122.6C675.95 127.4 666.35 130.8 667.15 122.2ZM679.95 121.2C677.75 120 678.75 115.4 681.35 116.2C682.15 116.4 681.35 119.4 679.95 121.2ZM764.395 44.2C764.395 43.8 763.995 43 763.395 42.6C762.995 42.4 762.595 42 761.995 41.8C759.595 41 757.795 42.2 756.595 43.2C755.195 44.2 754.195 45.2 753.195 46.4C751.195 48.6 749.395 51.2 747.995 53.6C741.795 63.6 736.795 74.2 732.595 84.8C729.795 92 727.195 99.2 724.595 106.4C722.995 108.4 721.595 110.2 719.995 112C718.195 110 715.595 108.8 712.795 108.8C709.395 108.8 706.195 110.2 703.795 111.8C698.595 115.2 693.795 119.6 691.995 126.2C691.595 128 691.195 130.4 693.195 132.6C695.595 134.4 701.195 134.4 707.395 129C713.995 123 719.195 118 721.795 114.4C721.395 115.4 706.795 180 756.995 118.2C756.995 118 756.595 117.8 756.195 117.6C707.795 175.6 727.995 109.2 729.795 104.4C733.795 99.4 737.595 94.2 741.195 89C747.995 79.6 754.395 69.8 759.595 59.6C760.995 57 762.195 54.2 763.195 51.4C763.795 50.2 764.195 48.6 764.595 47C764.595 46.2 764.795 45.4 764.395 44.2ZM717.995 114.6C713.995 118.8 706.995 127 698.995 129.8C697.795 130.2 695.395 131.4 696.595 127.4C697.795 123 701.795 118.4 705.995 115.4C709.795 112.4 715.995 109.2 718.595 113.6C718.395 114 718.195 114.2 717.995 114.6ZM760.595 50.6C759.595 53.2 758.395 55.8 756.995 58.2C750.395 70.8 742.595 82.8 733.995 94.2C734.995 91.8 735.995 89.2 736.995 86.8C741.795 76.2 745.995 65.6 751.395 55.8C752.795 53.2 754.195 50.8 755.995 48.6C757.395 46.6 759.995 44.4 760.995 44.8C762.195 44.4 761.595 48.2 760.595 50.6ZM794.78 117.4C777.58 130.4 771.98 129.2 774.38 122.2C775.18 119.2 777.18 114.4 778.18 111.2C778.38 110.6 776.58 108.6 775.18 109.4C769.98 118.6 765.58 122.6 758.78 126.4C753.98 129.2 758.78 118.4 762.58 113.4C762.58 113.4 760.38 110 758.98 111C756.98 112.6 752.38 122.2 752.18 124.8C751.38 134.4 764.18 127 770.38 120.4C765.58 133.6 778.78 132.4 795.58 118.2C795.78 118 795.18 117.2 794.78 117.4ZM827.27 117.4C820.47 122.4 812.47 126 805.67 128.2C793.47 132 794.07 117.2 804.67 109.6C805.87 109 807.27 108.6 808.47 109.2C809.47 109.6 810.07 111.2 809.87 112.6C809.87 113 809.87 113.4 809.87 113.8C809.87 113.8 810.07 114.8 810.87 114.6C810.87 114.6 812.27 110 812.87 108.8V108.6C813.07 108.6 813.07 108.6 813.07 108.4C813.27 107.8 811.87 107.8 811.67 108.2L810.87 109.8C810.47 109 810.07 108.4 809.27 107.8C807.47 106.6 798.67 106.6 792.67 118.6C788.47 127 794.67 133.4 806.07 129.8C813.87 127.2 821.47 123 828.07 118.2C828.27 118 827.67 117 827.27 117.4ZM893.678 68C881.878 69 870.278 70.6 858.678 72.8H858.478C860.878 69.4 863.078 65.6 865.678 62.2C867.478 59.6 869.278 56.8 870.678 53.8C871.478 52.4 872.078 51 872.678 49.4C872.878 48.4 873.278 47.6 873.278 46.6C873.278 46.2 873.278 45.6 873.078 44.8C872.878 43.8 871.078 43.2 870.478 43.6C868.078 44.6 867.278 45.8 866.078 47C865.078 48.4 864.078 49.6 863.078 51C861.278 53.6 859.478 56.4 857.878 59C854.878 64.2 852.078 69.6 849.278 74.8C846.678 75.2 844.078 75.8 841.478 76.4C835.678 77.8 830.078 78.8 824.278 82C823.678 82.2 825.078 84.6 825.678 84.2L825.878 84C830.478 81.6 836.478 80.2 842.078 78.6C843.878 78.2 845.878 77.8 847.878 77.2C831.478 105.8 810.878 146 820.678 159.8C822.278 162 824.878 161.4 826.678 161C839.878 158 871.078 128.8 878.678 118.6C878.878 118.2 877.878 117.6 877.678 117.8C853.678 145 826.078 163.4 823.078 157.2C819.078 147.6 830.278 121.8 840.078 102.2C844.878 94 849.878 86 855.078 78C855.478 77 856.278 76.2 856.878 75.2C857.478 75 858.278 74.8 859.078 74.8C870.478 72.6 882.078 70.8 893.678 69.8C894.278 69.6 894.678 69.2 894.678 68.8C894.478 68.4 894.078 68 893.678 68ZM853.078 76.6C851.678 78.6 850.478 80.8 849.278 82.8C850.078 81 850.878 79.2 851.678 77.4C851.878 77 852.078 76.6 852.278 76.2C852.678 76.2 853.078 76 853.478 76C853.278 76.2 853.078 76.4 853.078 76.6ZM855.078 73.6C854.678 73.6 854.078 73.8 853.678 73.8C855.878 69.4 858.078 64.8 860.478 60.6C862.078 57.8 863.678 55.2 865.478 52.6C866.278 51.2 867.278 50 868.278 48.8C868.878 48 869.878 47.2 870.478 46.6C870.478 47.2 870.278 47.8 870.078 48.4C869.678 49.8 869.078 51.4 868.278 52.6C866.878 55.4 865.278 58.2 863.478 60.8C860.678 65 857.878 69.2 855.078 73.6ZM904.702 117.6C897.102 120.4 889.502 123.6 882.302 127.6V127.4C882.502 124.8 882.502 122 882.502 119.4C882.702 116.2 882.702 113 883.102 110C886.702 108 889.902 105.4 891.902 101.8C893.902 98.4 893.502 94.2 887.702 96.8C884.102 98.4 879.102 103 878.502 110.8C878.302 110.8 878.102 111 877.902 111C877.702 111.2 877.502 111.4 877.502 111.8C877.702 112 877.902 112.2 878.302 112.2C878.302 112 878.302 112 878.302 112C877.902 114.4 877.502 126.8 877.502 130.4C876.302 131.2 875.102 132 874.102 132.8C871.702 134.4 869.502 136.2 867.702 138.6C866.902 139.8 866.102 141.2 866.102 143C865.902 144.6 866.902 146.4 868.702 147.2C872.302 148.6 875.902 146.6 878.102 144.2C880.102 141.8 881.102 138.8 881.902 136C882.302 133.6 882.302 131.4 882.302 129.2C889.702 125 897.302 121.6 905.102 118.4C905.302 118.2 905.102 117.4 904.702 117.6ZM884.502 104C885.702 100.2 894.302 93.4 890.702 101.2C889.102 104.4 886.502 107 883.302 108.8C883.502 107.2 883.902 105.6 884.502 104ZM877.502 135.4C877.102 137.8 876.502 140.4 875.302 142.2C874.102 144.2 871.702 145.8 869.702 145.2C867.702 144.6 867.702 141.6 869.102 139.4C870.502 137.2 872.502 135.4 874.902 133.8C875.702 133.2 876.702 132.6 877.502 132.2C877.502 133.2 877.502 134.4 877.502 135.4Z" fill="#A75B41"/>
</svg>
