<svg width="530" height="183" viewBox="0 0 530 183" fill="none" xmlns="http://www.w3.org/2000/svg">
<path d="M149.689 9.8C136.889 9.19999 124.089 10.2 111.289 11.6C102.689 12.6 93.8891 14 85.2891 15.4C86.4891 13.4 87.4891 11.4 88.6891 9.4C89.6891 7.79999 83.8891 4.39999 82.8891 6C80.8891 9.59999 79.0891 13.2 77.0891 16.8C75.8891 17 74.6891 17.2 73.4891 17.4C60.8891 19.8 48.4891 22.4 36.0891 25.4C29.8891 27 23.6891 28.8 17.4891 30.8C14.4891 31.6 11.2891 32.8 8.28906 34C6.68906 34.6 5.28906 35.4 3.68906 36.4C2.88906 37 1.88906 37.2 0.889061 39.2C0.289061 40.8 1.28906 42.8 2.08906 43.2C2.88906 43.8 4.08906 44.2 4.08906 44.2C5.48906 44.6 9.08906 39.2 10.2891 38.6C13.0891 37.4 16.0891 36.4 19.0891 35.4C24.8891 33.4 31.0891 31.6 37.0891 30C49.4891 26.6 61.8891 23.8 74.2891 21.4C74.4891 21.2 74.4891 21.2 74.6891 21.2C63.2891 42.6 53.2891 64.8 44.2891 87.2C33.2891 115.2 23.6891 143.6 16.6891 172.8C16.4891 173.8 20.4891 174.8 20.6891 173.8C28.0891 145 37.8891 116.8 49.2891 89.2C59.2891 65.4 70.2891 42.2 82.8891 19.6C92.4891 18 102.089 16.2 111.889 15C124.289 13.4 135.689 12.2 148.289 12.6C149.089 12.6 150.489 9.8 149.689 9.8ZM99.3688 103.8C94.5688 107.4 89.9688 109.2 84.1688 108.2C84.1688 108.2 86.9688 103.6 84.1688 100.8C86.3688 92.6 69.9688 95 66.1687 104C60.9687 116.2 74.7688 119.4 83.3688 109.6C90.1688 110.6 93.9688 108.8 100.169 104.4C100.369 104.2 99.9688 103.4 99.3688 103.8ZM69.3688 108.2C69.9688 104 74.5688 99.6 78.1688 98.2C79.7688 97.6 83.9688 97.2 82.7688 100.8C78.9688 101.4 77.9688 106 81.3688 108.6C78.1688 113.4 68.5687 116.8 69.3688 108.2ZM82.1687 107.2C79.9688 106 80.9688 101.4 83.5688 102.2C84.3688 102.4 83.5688 105.4 82.1687 107.2ZM141.414 103.6C135.414 104.8 129.014 106.4 123.414 108.2C126.614 103.6 124.014 93.2 113.614 95.2C110.614 95.8 108.014 97.6 105.814 99C107.414 95.4 109.014 91.8 110.814 88.2C111.014 87.6 109.814 84.6 108.414 87C105.014 92.6 102.014 98.6 99.2141 104.4C97.8141 105.6 96.6141 106.8 95.4141 108.2C95.2141 108.6 95.2141 108.8 95.4141 109C95.8141 109.2 96.0141 109.2 96.2141 109C96.6141 108.6 97.0141 108.4 97.4141 108C92.2141 118.8 77.0141 161.4 73.2141 181C73.2141 181.6 75.6141 182.8 75.8141 182.2C80.8141 163.2 93.8141 124.4 104.414 102.4C113.614 93.6 126.014 97.6 116.814 110.4C115.414 111 114.214 111.4 113.014 112C110.614 113 108.414 114 106.214 115.4C105.214 116.2 104.214 117 103.414 118C102.414 118.8 101.414 119.8 101.214 121.6C101.214 122.8 102.814 123.2 103.214 123.2C108.414 122.8 117.014 117.2 122.414 110C128.614 107.8 135.014 106 141.414 104.4C141.614 104.2 141.614 103.6 141.414 103.6ZM113.214 114.8C111.614 116.6 109.814 118.2 107.814 119.6C106.814 120.2 105.814 120.8 104.814 121.4C103.814 121.8 99.6141 122.6 107.414 117C109.414 115.8 112.814 113.8 114.614 113.2C114.214 113.6 113.814 114.2 113.214 114.8ZM238.252 19.4C233.252 20.8 228.252 22.8 223.452 24.8C227.052 18.4 230.852 12.2 234.652 5.79999C235.652 4 229.652 0.599996 228.652 2.4C223.452 11.4 218.452 20.4 213.652 29.6C204.052 34.6 194.852 40.4 186.052 46.8C185.252 47.4 188.852 49.4 189.652 48.8C197.052 43.4 203.052 39 211.052 34.6C200.052 55.4 189.652 76.6 180.452 98.4C178.852 98.8 177.452 99.2 175.852 99.4C174.452 99.8 175.452 104 176.852 103.8C177.252 103.6 177.652 103.6 178.052 103.4C169.452 124.4 161.852 146.4 155.852 168.2C155.452 169 159.452 168.2 159.852 167.2C166.452 144.6 174.452 124 183.852 102.4C200.252 99.2 217.252 93.4 233.252 86.2C242.252 82 250.852 76.8 258.852 70.6C293.052 43.8 283.252 9.19999 238.252 19.4ZM272.052 45.8C268.452 53.8 262.252 61 254.852 66.8C247.452 72.8 239.252 77.6 230.652 81.8C216.652 88.4 201.652 93.2 186.452 97C196.852 74 208.652 51.4 221.052 29.2C226.852 26.4 232.852 23.8 239.052 22.8C248.252 20.8 258.452 20.2 266.252 24.4C269.852 26.2 272.652 29.4 273.652 33.4C274.452 37.2 273.852 41.6 272.052 45.8ZM290.014 103.6C274.014 114 260.414 117.8 265.414 109.4C268.614 104.2 267.614 102 258.014 100C258.414 99.4 263.414 94 261.814 90.6C261.414 89.6 260.214 89.2 258.814 89.6C256.014 90.4 253.214 93.8 252.214 95.6C252.014 96.2 251.214 98 251.414 99.4C251.814 101.2 253.614 101.6 254.614 101.8C254.814 102.2 255.214 102.4 255.614 102.4C256.214 102.2 256.214 102 256.614 101.8C263.814 103 263.214 105 262.214 107C260.614 110 259.614 112.2 259.814 113.8C260.814 122.8 283.814 108.8 290.414 104.4H290.614C290.814 104.2 290.214 103.4 290.014 103.6ZM255.214 99.6C252.614 99.6 258.814 91.4 260.014 92.2C261.414 92.8 257.614 98.2 255.214 99.6ZM321.244 103.8C316.444 107.4 311.844 109.2 306.044 108.2C306.044 108.2 308.844 103.6 306.044 100.8C308.244 92.6 291.844 95 288.044 104C282.844 116.2 296.644 119.4 305.244 109.6C312.044 110.6 315.844 108.8 322.044 104.4C322.244 104.2 321.844 103.4 321.244 103.8ZM291.244 108.2C291.844 104 296.444 99.6 300.044 98.2C301.644 97.6 305.844 97.2 304.644 100.8C300.844 101.4 299.844 106 303.244 108.6C300.044 113.4 290.444 116.8 291.244 108.2ZM304.044 107.2C301.844 106 302.844 101.4 305.444 102.2C306.244 102.4 305.444 105.4 304.044 107.2ZM388.489 30.2C388.489 29.8 388.089 29 387.489 28.6C387.089 28.4 386.689 28 386.089 27.8C383.689 27 381.889 28.2 380.689 29.2C379.289 30.2 378.289 31.2 377.289 32.4C375.289 34.6 373.489 37.2 372.089 39.6C365.889 49.6 360.889 60.2 356.689 70.8C353.889 78 351.289 85.2 348.689 92.4C347.089 94.4 345.689 96.2 344.089 98C342.289 96 339.689 94.8 336.889 94.8C333.489 94.8 330.289 96.2 327.889 97.8C322.689 101.2 317.889 105.6 316.089 112.2C315.689 114 315.289 116.4 317.289 118.6C319.689 120.4 325.289 120.4 331.489 115C338.089 109 343.289 104 345.889 100.4C345.489 101.4 330.889 166 381.089 104.2C381.089 104 380.689 103.8 380.289 103.6C331.889 161.6 352.089 95.2 353.889 90.4C357.889 85.4 361.689 80.2 365.289 75C372.089 65.6 378.489 55.8 383.689 45.6C385.089 43 386.289 40.2 387.289 37.4C387.889 36.2 388.289 34.6 388.689 33C388.689 32.2 388.889 31.4 388.489 30.2ZM342.089 100.6C338.089 104.8 331.089 113 323.089 115.8C321.889 116.2 319.489 117.4 320.689 113.4C321.889 109 325.889 104.4 330.089 101.4C333.889 98.4 340.089 95.2 342.689 99.6C342.489 100 342.289 100.2 342.089 100.6ZM384.689 36.6C383.689 39.2 382.489 41.8 381.089 44.2C374.489 56.8 366.689 68.8 358.089 80.2C359.089 77.8 360.089 75.2 361.089 72.8C365.889 62.2 370.089 51.6 375.489 41.8C376.889 39.2 378.289 36.8 380.089 34.6C381.489 32.6 384.089 30.4 385.089 30.8C386.289 30.4 385.689 34.2 384.689 36.6ZM418.873 103.4C401.673 116.4 396.073 115.2 398.473 108.2C399.273 105.2 401.273 100.4 402.273 97.2C402.473 96.6 400.673 94.6 399.273 95.4C394.073 104.6 389.673 108.6 382.873 112.4C378.073 115.2 382.873 104.4 386.673 99.4C386.673 99.4 384.473 96 383.073 97C381.073 98.6 376.473 108.2 376.273 110.8C375.473 120.4 388.273 113 394.473 106.4C389.673 119.6 402.873 118.4 419.673 104.2C419.873 104 419.273 103.2 418.873 103.4ZM451.364 103.4C444.564 108.4 436.564 112 429.764 114.2C417.564 118 418.164 103.2 428.764 95.6C429.964 95 431.364 94.6 432.564 95.2C433.564 95.6 434.164 97.2 433.964 98.6C433.964 99 433.964 99.4 433.964 99.8C433.964 99.8 434.164 100.8 434.964 100.6C434.964 100.6 436.364 96 436.964 94.8V94.6C437.164 94.6 437.164 94.6 437.164 94.4C437.364 93.8 435.964 93.8 435.764 94.2L434.964 95.8C434.564 95 434.164 94.4 433.364 93.8C431.564 92.6 422.764 92.6 416.764 104.6C412.564 113 418.764 119.4 430.164 115.8C437.964 113.2 445.564 109 452.164 104.2C452.364 104 451.764 103 451.364 103.4ZM517.772 54C505.972 55 494.372 56.6 482.772 58.8H482.572C484.972 55.4 487.172 51.6 489.772 48.2C491.572 45.6 493.372 42.8 494.772 39.8C495.572 38.4 496.172 37 496.772 35.4C496.972 34.4 497.372 33.6 497.372 32.6C497.372 32.2 497.372 31.6 497.172 30.8C496.972 29.8 495.172 29.2 494.572 29.6C492.172 30.6 491.372 31.8 490.172 33C489.172 34.4 488.172 35.6 487.172 37C485.372 39.6 483.572 42.4 481.972 45C478.972 50.2 476.172 55.6 473.372 60.8C470.772 61.2 468.172 61.8 465.572 62.4C459.772 63.8 454.172 64.8 448.372 68C447.772 68.2 449.172 70.6 449.772 70.2L449.972 70C454.572 67.6 460.572 66.2 466.172 64.6C467.972 64.2 469.972 63.8 471.972 63.2C455.572 91.8 434.972 132 444.772 145.8C446.372 148 448.972 147.4 450.772 147C463.972 144 495.172 114.8 502.772 104.6C502.972 104.2 501.972 103.6 501.772 103.8C477.772 131 450.172 149.4 447.172 143.2C443.172 133.6 454.372 107.8 464.172 88.2C468.972 80 473.972 72 479.172 64C479.572 63 480.372 62.2 480.972 61.2C481.572 61 482.372 60.8 483.172 60.8C494.572 58.6 506.172 56.8 517.772 55.8C518.372 55.6 518.772 55.2 518.772 54.8C518.572 54.4 518.172 54 517.772 54ZM477.172 62.6C475.772 64.6 474.572 66.8 473.372 68.8C474.172 67 474.972 65.2 475.772 63.4C475.972 63 476.172 62.6 476.372 62.2C476.772 62.2 477.172 62 477.572 62C477.372 62.2 477.172 62.4 477.172 62.6ZM479.172 59.6C478.772 59.6 478.172 59.8 477.772 59.8C479.972 55.4 482.172 50.8 484.572 46.6C486.172 43.8 487.772 41.2 489.572 38.6C490.372 37.2 491.372 36 492.372 34.8C492.972 34 493.972 33.2 494.572 32.6C494.572 33.2 494.372 33.8 494.172 34.4C493.772 35.8 493.172 37.4 492.372 38.6C490.972 41.4 489.372 44.2 487.572 46.8C484.772 51 481.972 55.2 479.172 59.6ZM528.795 103.6C521.195 106.4 513.595 109.6 506.395 113.6V113.4C506.595 110.8 506.595 108 506.595 105.4C506.795 102.2 506.795 99 507.195 96C510.795 94 513.995 91.4 515.995 87.8C517.995 84.4 517.595 80.2 511.795 82.8C508.195 84.4 503.195 89 502.595 96.8C502.395 96.8 502.195 97 501.995 97C501.795 97.2 501.595 97.4 501.595 97.8C501.795 98 501.995 98.2 502.395 98.2C502.395 98 502.395 98 502.395 98C501.995 100.4 501.595 112.8 501.595 116.4C500.395 117.2 499.195 118 498.195 118.8C495.795 120.4 493.595 122.2 491.795 124.6C490.995 125.8 490.195 127.2 490.195 129C489.995 130.6 490.995 132.4 492.795 133.2C496.395 134.6 499.995 132.6 502.195 130.2C504.195 127.8 505.195 124.8 505.995 122C506.395 119.6 506.395 117.4 506.395 115.2C513.795 111 521.395 107.6 529.195 104.4C529.395 104.2 529.195 103.4 528.795 103.6ZM508.595 90C509.795 86.2 518.395 79.4 514.795 87.2C513.195 90.4 510.595 93 507.395 94.8C507.595 93.2 507.995 91.6 508.595 90ZM501.595 121.4C501.195 123.8 500.595 126.4 499.395 128.2C498.195 130.2 495.795 131.8 493.795 131.2C491.795 130.6 491.795 127.6 493.195 125.4C494.595 123.2 496.595 121.4 498.995 119.8C499.795 119.2 500.795 118.6 501.595 118.2C501.595 119.2 501.595 120.4 501.595 121.4Z" fill="#A75B41"/>
</svg>
