<svg width="32" height="52" viewBox="0 0 32 52" fill="none" xmlns="http://www.w3.org/2000/svg">
<path d="M0.804688 0.21582V51.1856H13.9973L16.3172 27.9644L18.6372 51.1856H31.8298V0.21582H0.804688ZM3.02076 2.4319H29.6137V4.64797H26.2896C22.3076 4.64797 19.6803 5.21931 18.0139 5.82526C17.2391 6.1066 16.7111 6.38794 16.3172 6.63032C15.9234 6.38794 15.3953 6.1066 14.6205 5.82526C12.9542 5.21931 10.3269 4.64797 6.34488 4.64797H3.02076V2.4319ZM3.02076 6.86405H6.34488C10.1191 6.86405 12.478 7.40076 13.8588 7.90284C14.5513 8.15821 15.0014 8.40059 15.2611 8.56073C15.5165 8.72521 15.5338 8.75551 15.5338 8.75551L16.3172 9.53893L17.1006 8.75551C17.1006 8.75551 17.118 8.72521 17.3733 8.56073C17.633 8.40059 18.0832 8.15821 18.7757 7.90284C20.1564 7.40076 22.5153 6.86405 26.2896 6.86405H29.6137V9.08013H20.7494V18.6283L26.2896 21.3984L29.6137 19.7363V48.9695H20.6455L17.4209 16.7282L16.3172 16.8364L15.2135 16.7282L11.989 48.9695H3.02076V19.7363L6.34488 21.3984L11.8851 18.6283V9.08013H3.02076V6.86405ZM3.02076 11.2962H9.669V17.2606L6.34488 18.9226L3.02076 17.2606V11.2962ZM22.9655 11.2962H29.6137V17.2606L26.2896 18.9226L22.9655 17.2606V11.2962Z" fill="black"/>
</svg>
