<svg width="24" height="22" viewBox="0 0 24 22" fill="none" xmlns="http://www.w3.org/2000/svg">
<path d="M22.9102 3.6712C21.9232 1.64561 19.08 -0.0116909 15.7727 0.953228C14.1924 1.40971 12.8135 2.38866 11.8615 3.73013C10.9095 2.38866 9.53062 1.40971 7.95026 0.953228C4.63565 0.00304073 1.79982 1.64561 0.812808 3.6712C-0.571961 6.50703 0.00257106 9.69642 2.52167 13.151C4.4957 15.8542 7.3168 18.5943 11.4122 21.7763C11.5416 21.8773 11.701 21.9321 11.8652 21.9321C12.0293 21.9321 12.1887 21.8773 12.3182 21.7763C16.4062 18.6017 19.2346 15.8837 21.2087 13.151C23.7204 9.69642 24.2949 6.50703 22.9102 3.6712Z" fill="#A75B41"/>
</svg>
