<svg width="408" height="254" viewBox="0 0 408 254" fill="none" xmlns="http://www.w3.org/2000/svg">
<path d="M203.128 112.4C196.228 112.7 182.728 115.4 178.828 116.9C185.128 101.9 189.328 86.6 191.428 71C192.328 61.7 192.628 52.4 190.528 43.1C189.328 38.6 187.828 33.8 183.628 30.5C179.728 26.6 172.228 26.9 167.428 30.5C166.828 30.8 166.528 31.4 165.928 31.7C159.628 26.9 153.328 22.1 146.128 18.2C138.028 14 129.028 11 119.128 11.9C108.928 12.5 99.0281 17.3 91.2281 23.9C83.1281 30.5 76.5281 38.3 70.8281 46.4C59.4281 62.6 50.4281 80.3 46.2281 99.5C45.3281 104.3 44.7281 109.4 45.6281 114.5C46.2281 119.3 49.8281 125.3 56.1281 125.6C61.5281 126.5 66.9281 124.7 71.4281 122.3C76.2281 120.5 80.4281 117.5 84.6281 114.8C101.128 103.4 115.528 89.9 129.628 76.4C136.528 69.5 143.428 62.3 150.028 55.4L160.228 44.6C161.428 43.4 162.628 42.2 163.528 41C165.328 41.3 166.828 41 168.028 39.5C168.928 38.3 169.228 37.1 169.228 35.9C169.528 35.6 169.828 35.3 170.128 35.3C177.328 30.5 182.428 37.4 183.628 45.5C184.828 53.6 184.528 62.3 183.628 71.3C181.528 87.8 176.728 104 169.528 119.9C140.728 129.8 111.928 141.2 84.3281 155.6C66.9281 164.6 50.1281 174.8 34.5281 186.8C26.7281 193.1 19.5281 199.7 12.9281 207.5C6.92812 215.3 0.328125 224.3 0.328125 234.8C0.0281239 240.2 2.72812 245.3 6.62812 248C10.8281 251 15.6281 252.2 20.4281 252.2C30.3281 253.1 39.9281 250.4 49.2281 247.1C67.8281 240.5 84.0281 228.5 99.6281 216.5C130.228 191.9 157.528 161.3 174.628 125.9C175.528 124.4 176.128 122.6 177.028 120.8C181.828 119 195.028 115.4 203.428 113.9C204.328 113.6 204.028 112.4 203.128 112.4ZM156.628 41.3L146.728 52.1C139.828 59 132.928 65.9 126.028 72.5C111.928 86 97.2281 99.2 81.6281 109.7C73.8281 114.5 64.8281 119.6 57.9281 119C51.6281 118.1 51.9281 108.2 53.7281 100.1C57.6281 82.7 66.6281 65.6 76.8281 50C87.3281 34.7 101.128 18.8 118.528 17.6C135.028 16.7 148.528 27.2 159.328 38.3C158.428 39.5 157.528 40.4 156.628 41.3ZM96.0281 211.7C80.7281 223.4 64.8281 235.1 47.7281 241.4C39.0281 244.4 30.0281 246.8 21.6281 246.2C13.2281 246.2 5.72812 241.7 6.02812 233.9C5.72812 226.1 11.4281 217.7 17.1281 210.5C23.1281 203.3 30.0281 197 37.5281 190.7C52.5281 179 69.0281 168.8 86.1281 159.8C112.528 145.7 139.828 134 167.728 124.1C151.528 157.7 125.428 187.4 96.0281 211.7ZM241.594 112.7C227.194 122.3 209.194 131.3 205.594 125.6C205.294 123.8 205.894 120.8 206.794 118.1C208.594 112.7 210.094 110.9 213.094 105.8C213.094 105.5 213.094 105.5 213.394 105.2C213.994 103.4 210.394 95 205.894 102.8C202.894 108.2 201.694 110.9 200.194 117.5C198.394 123.8 199.894 130.4 206.494 131C212.794 131.6 227.494 124.7 242.494 113.9C243.094 113.6 242.194 112.4 241.594 112.7ZM220.894 90.2C221.194 89.3 220.594 84.8 218.494 86.9C216.094 89 211.894 91.1 211.294 92.3C210.394 94.7 220.294 93.2 220.894 90.2ZM289.809 112.1C278.409 114.2 266.709 116.6 255.009 119.6C252.009 120.5 249.009 121.4 245.709 122.3C247.509 118.4 249.009 114.5 250.809 110.6C259.509 100.1 268.209 89.6 276.009 78.5C278.409 75.5 280.509 72.5 282.609 69.2C284.409 65.9 286.509 62.9 287.109 57.8C287.109 56.6 286.509 54.8 285.009 53.9C283.509 53 281.709 53 280.509 53.3C278.109 54.2 276.309 55.7 275.109 56.9C272.109 59.9 269.709 62.9 267.609 65.9C255.009 84.5 245.409 104.6 237.009 125C234.609 125.9 231.909 126.8 229.509 128.3C228.009 128.9 226.809 129.8 225.309 131.6C224.709 132.2 224.409 134.6 225.309 135.5C226.209 136.7 227.109 137 227.709 137.6V137.3C228.909 138.2 230.109 139.4 231.009 140.6C230.109 142.7 229.209 144.8 228.609 147.2C223.509 161.3 218.709 175.4 215.109 190.1C213.609 197.6 211.809 205.1 211.209 212.6C210.909 216.8 210.009 220.1 212.109 225.5C212.409 226.4 213.009 227.3 214.209 228.2C215.709 229.1 217.209 228.8 218.409 228.5C220.209 227.9 221.109 227 222.009 226.1C223.509 224.3 224.409 222.8 225.609 221C233.109 207.2 237.909 192.8 240.309 177.8C241.809 170.3 242.109 162.5 240.909 154.7C240.309 151.1 239.409 146.9 237.609 143.6C239.709 137.6 241.809 131.9 244.209 126.2C248.109 124.7 252.009 123.5 255.909 122.3C267.309 119.3 278.709 116.3 290.409 113.6C290.709 113.6 290.409 112.1 289.809 112.1ZM271.809 68.6C273.609 65.6 275.709 62.6 278.109 60.2C279.309 59 280.809 57.8 281.709 57.5C282.909 57.5 282.909 57.2 282.909 58.1C282.909 60.8 281.109 64.4 279.309 67.4C277.509 70.4 275.409 73.7 273.309 76.7C268.209 83.6 262.809 90.5 256.809 97.1C261.609 87.5 266.409 77.9 271.809 68.6ZM229.809 134.3H229.509C228.909 134 228.309 133.7 228.309 133.4C228.309 133.4 228.309 133.7 228.309 133.4C228.909 132.8 230.109 131.9 231.309 131.3C232.509 130.4 234.009 129.8 235.209 129.2C234.309 131.9 233.409 134.3 232.509 136.7C231.609 135.8 230.709 134.9 229.809 134.3ZM235.509 176.9C232.809 191 228.009 205.7 220.209 217.7C219.609 218.6 218.709 219.8 218.109 220.7C217.809 218.6 218.109 215.9 218.409 213.5C219.309 206.3 220.809 199.1 222.609 191.9C225.909 177.5 230.409 163.4 235.209 149.6V149.3C235.809 151.4 236.409 153.2 236.409 155.3C237.309 162.5 236.709 169.7 235.509 176.9ZM389.763 38C372.063 39.5 354.663 41.9 337.263 45.2H336.963C340.563 40.1 343.863 34.4 347.763 29.3C350.463 25.4 353.163 21.2 355.263 16.7C356.463 14.6 357.363 12.5 358.263 10.1C358.563 8.59999 359.163 7.39999 359.163 5.89999C359.163 5.29999 359.163 4.39999 358.863 3.19999C358.563 1.69999 355.863 0.799996 354.963 1.4C351.363 2.9 350.163 4.69999 348.363 6.49999C346.863 8.59999 345.363 10.4 343.863 12.5C341.163 16.4 338.463 20.6 336.063 24.5C331.563 32.3 327.363 40.4 323.163 48.2C319.263 48.8 315.363 49.7 311.463 50.6C302.763 52.7 294.363 54.2 285.663 59C284.763 59.3 286.863 62.9 287.763 62.3L288.063 62C294.963 58.4 303.963 56.3 312.363 53.9C315.063 53.3 318.063 52.7 321.063 51.8C296.463 94.7 265.563 155 280.263 175.7C282.663 179 286.563 178.1 289.263 177.5C309.063 173 355.863 129.2 367.263 113.9C367.563 113.3 366.063 112.4 365.763 112.7C329.763 153.5 288.363 181.1 283.863 171.8C277.863 157.4 294.663 118.7 309.363 89.3C316.563 77 324.063 65 331.863 53C332.463 51.5 333.663 50.3 334.563 48.8C335.463 48.5 336.663 48.2 337.863 48.2C354.963 44.9 372.363 42.2 389.763 40.7C390.663 40.4 391.263 39.8 391.263 39.2C390.963 38.6 390.363 38 389.763 38ZM328.863 50.9C326.763 53.9 324.963 57.2 323.163 60.2C324.363 57.5 325.563 54.8 326.763 52.1C327.063 51.5 327.363 50.9 327.663 50.3C328.263 50.3 328.863 50 329.463 50C329.163 50.3 328.863 50.6 328.863 50.9ZM331.863 46.4C331.263 46.4 330.363 46.7 329.763 46.7C333.063 40.1 336.363 33.2 339.963 26.9C342.363 22.7 344.763 18.8 347.463 14.9C348.663 12.8 350.163 11 351.663 9.2C352.563 7.99999 354.063 6.8 354.963 5.89999C354.963 6.8 354.663 7.7 354.363 8.59999C353.763 10.7 352.863 13.1 351.663 14.9C349.563 19.1 347.163 23.3 344.463 27.2C340.263 33.5 336.063 39.8 331.863 46.4ZM406.298 112.4C394.898 116.6 383.498 121.4 372.698 127.4V127.1C372.998 123.2 372.998 119 372.998 115.1C373.298 110.3 373.298 105.5 373.898 101C379.298 98 384.098 94.1 387.098 88.7C390.098 83.6 389.498 77.3 380.798 81.2C375.398 83.6 367.898 90.5 366.998 102.2C366.698 102.2 366.398 102.5 366.098 102.5C365.798 102.8 365.498 103.1 365.498 103.7C365.798 104 366.098 104.3 366.698 104.3C366.698 104 366.698 104 366.698 104C366.098 107.6 365.498 126.2 365.498 131.6C363.698 132.8 361.898 134 360.398 135.2C356.798 137.6 353.498 140.3 350.798 143.9C349.598 145.7 348.398 147.8 348.398 150.5C348.098 152.9 349.598 155.6 352.298 156.8C357.698 158.9 363.098 155.9 366.398 152.3C369.398 148.7 370.898 144.2 372.098 140C372.698 136.4 372.698 133.1 372.698 129.8C383.798 123.5 395.198 118.4 406.898 113.6C407.198 113.3 406.898 112.1 406.298 112.4ZM375.998 92C377.798 86.3 390.698 76.1 385.298 87.8C382.898 92.6 378.998 96.5 374.198 99.2C374.498 96.8 375.098 94.4 375.998 92ZM365.498 139.1C364.898 142.7 363.998 146.6 362.198 149.3C360.398 152.3 356.798 154.7 353.798 153.8C350.798 152.9 350.798 148.4 352.898 145.1C354.998 141.8 357.998 139.1 361.598 136.7C362.798 135.8 364.298 134.9 365.498 134.3C365.498 135.8 365.498 137.6 365.498 139.1Z" fill="#A75B41"/>
</svg>
