<svg width="23" height="22" viewBox="0 0 23 22" fill="none" xmlns="http://www.w3.org/2000/svg">
<path d="M11.6502 21.6135C11.4976 21.613 11.3495 21.5602 11.2289 21.4634C7.38891 18.3766 4.74371 15.7184 2.89276 13.0961C0.530719 9.74483 -0.00799096 6.65084 1.29044 3.89982C2.21591 1.93482 4.87493 0.327085 7.98288 1.26314C9.4647 1.70598 10.7576 2.65564 11.6502 3.95699C12.5429 2.65564 13.8358 1.70598 15.3176 1.26314C18.4187 0.341376 21.0846 1.93482 22.0101 3.89982C23.3085 6.65084 22.7698 9.74483 20.4077 13.0961C18.5568 15.7184 15.9116 18.3766 12.0715 21.4634C11.951 21.5602 11.8028 21.613 11.6502 21.6135ZM6.2148 2.42786C5.47529 2.39808 4.74189 2.57723 4.09335 2.94608C3.44481 3.31493 2.9056 3.85955 2.53362 4.52148C1.4631 6.79375 1.94656 9.32324 4.01162 12.2457C6.20622 15.1744 8.77603 17.7802 11.6502 19.9914C14.524 17.7824 17.0938 15.179 19.2889 12.2529C21.3608 9.32325 21.8374 6.79375 20.7669 4.52863C20.0762 3.09953 18.0043 1.9634 15.6975 2.63507C14.9578 2.86123 14.2721 3.2451 13.6845 3.76197C13.0969 4.27885 12.6204 4.91728 12.2856 5.63618C12.2336 5.76723 12.1451 5.87933 12.0313 5.95821C11.9176 6.0371 11.7837 6.07922 11.6468 6.07922C11.5099 6.07922 11.376 6.0371 11.2622 5.95821C11.1485 5.87933 11.06 5.76723 11.0079 5.63618C10.6757 4.91548 10.2 4.27555 9.61205 3.75836C9.02407 3.24116 8.33708 2.85837 7.59611 2.63507C7.14717 2.50017 6.68229 2.43043 6.2148 2.42786Z" fill="black"/>
</svg>
