<svg width="54" height="47" viewBox="0 0 54 47" fill="none" xmlns="http://www.w3.org/2000/svg">
<path d="M21.4967 0.415039C21.449 0.419367 21.4014 0.423696 21.3538 0.432352C21.3538 0.432352 21.3538 0.432352 21.3495 0.432352H21.3408C21.2153 0.458322 21.0941 0.501605 20.9859 0.562201L8.4296 5.13286L0.257812 36.6557L10.1176 39.4734L12.68 30.5052V46.97H41.489V30.5052L44.0513 39.4734L53.9154 36.6557L45.7393 5.13286L32.8194 0.432352H21.7174C21.6481 0.419367 21.5746 0.415039 21.4967 0.415039ZM23.0851 2.64843H31.1141L27.2057 15.023L23.0851 2.64843ZM20.8517 2.96872L26.0327 18.5116C26.0457 18.5462 26.0587 18.5765 26.0716 18.6111L25.6734 19.875L19.4797 9.2577L20.6094 7.00267L18.4928 3.82572L20.8517 2.96872ZM33.3345 2.97738L35.6761 3.83005L33.5596 7.00267L34.6763 9.22741L28.1579 19.3686L33.3345 2.97738ZM16.3503 4.60914L18.047 7.16282L16.9606 9.33561L24.9679 23.0562C24.9073 23.5756 24.8684 24.1037 24.8684 24.6274V44.7539H14.896V14.681L8.59407 36.7379L2.94134 35.1235L10.2821 6.81223L16.3503 4.60914ZM37.8186 4.60914L43.8868 6.81223L51.2232 35.1235L45.5748 36.7379L39.2729 14.681V44.7539H27.0845V25.1381L37.2213 9.36591L36.1219 7.16282L37.8186 4.60914ZM29.3005 28.1333C28.6902 28.1333 28.1925 28.6311 28.1925 29.2413C28.1925 29.8516 28.6902 30.3494 29.3005 30.3494C29.9108 30.3494 30.4086 29.8516 30.4086 29.2413C30.4086 28.6311 29.9108 28.1333 29.3005 28.1333ZM29.3005 33.6735C28.6902 33.6735 28.1925 34.1713 28.1925 34.7815C28.1925 35.3918 28.6902 35.8896 29.3005 35.8896C29.9108 35.8896 30.4086 35.3918 30.4086 34.7815C30.4086 34.1713 29.9108 33.6735 29.3005 33.6735ZM29.3005 39.2137C28.6902 39.2137 28.1925 39.7114 28.1925 40.3217C28.1925 40.932 28.6902 41.4298 29.3005 41.4298C29.9108 41.4298 30.4086 40.932 30.4086 40.3217C30.4086 39.7114 29.9108 39.2137 29.3005 39.2137Z" fill="black"/>
</svg>
