<svg width="48" height="48" viewBox="0 0 48 48" fill="none" xmlns="http://www.w3.org/2000/svg">
<path d="M15.4093 0.249053C15.3839 0.248865 15.3585 0.249571 15.3332 0.251168C15.3297 0.251855 15.3261 0.25256 15.3226 0.253283C15.29 0.25534 15.2576 0.258869 15.2253 0.263858C15.1381 0.277396 15.0529 0.301545 14.9715 0.335766C14.784 0.391941 13.315 0.835883 11.5855 1.58147C10.6642 1.97863 9.69629 2.44972 8.84028 3.00061C7.98426 3.5515 7.21696 4.1547 6.75705 5.02462C6.75634 5.02532 6.75564 5.02602 6.75493 5.02673C5.44826 7.50487 0.388927 16.5025 0.388927 16.5025C0.24973 16.7501 0.213404 17.0425 0.28778 17.3167C0.362156 17.5908 0.541278 17.8248 0.786538 17.9681L7.28367 21.7581C7.52979 21.9016 7.82252 21.9423 8.09845 21.8714C8.37437 21.8006 8.61126 21.6238 8.75779 21.3795L10.2848 18.8353L11.0441 27.7011C11.0714 28.066 11.0838 28.4304 11.0779 28.7924C11.066 29.567 10.9764 30.341 10.8135 31.102C10.812 31.1097 10.8106 31.1175 10.8093 31.1252L7.84836 46.6088C7.81849 46.7654 7.82356 46.9267 7.86321 47.0811C7.90285 47.2355 7.9761 47.3792 8.07772 47.5021C8.17934 47.6249 8.30682 47.7238 8.45107 47.7916C8.59531 47.8595 8.75277 47.8947 8.91218 47.8947H39.2321C39.3916 47.8947 39.549 47.8595 39.6933 47.7916C39.8375 47.7238 39.965 47.6249 40.0666 47.5021C40.1682 47.3792 40.2415 47.2355 40.2811 47.0811C40.3208 46.9267 40.3258 46.7654 40.296 46.6088L37.335 31.1252C37.3337 31.1175 37.3323 31.1097 37.3308 31.102C37.1679 30.341 37.0783 29.567 37.0664 28.7924C37.0605 28.4278 37.0721 28.0629 37.1003 27.7011V27.6927L37.8595 18.8353L39.3865 21.3795C39.5331 21.6238 39.77 21.8006 40.0459 21.8714C40.3218 21.9423 40.6145 21.9016 40.8607 21.7581L47.3578 17.9681C47.603 17.8248 47.7822 17.5908 47.8565 17.3167C47.9309 17.0425 47.8946 16.7501 47.7554 16.5025C47.7554 16.5025 42.6961 7.50487 41.3894 5.02673C41.3887 5.02602 41.388 5.02532 41.3873 5.02462C40.9274 4.15468 40.1601 3.5515 39.304 3.00061C38.448 2.44972 37.4801 1.97863 36.5588 1.58147C34.8332 0.837537 33.3703 0.39581 33.177 0.337881C33.0669 0.290687 32.9497 0.262099 32.8302 0.253283C32.7985 0.250478 32.7668 0.249066 32.735 0.249053C32.7301 0.249019 32.7251 0.249019 32.7202 0.249053H24.0722H15.441H15.4093ZM16.8094 2.41476H24.0722H31.3349C31.1331 3.02119 30.8279 3.76867 30.3345 4.53606C29.2544 6.21622 27.5012 7.82904 24.0722 7.82904C20.6431 7.82904 18.8899 6.21622 17.8098 4.53606C17.3165 3.76867 17.0112 3.02119 16.8094 2.41476ZM14.6437 2.76373C14.8833 3.56326 15.2868 4.61899 15.9867 5.70774C17.343 7.81758 19.9212 9.99475 24.0722 9.99475C28.2231 9.99475 30.8013 7.81758 32.1576 5.70774C32.8575 4.61899 33.261 3.56326 33.5006 2.76373C34.0885 2.95438 34.5568 3.0757 35.7023 3.56953C36.5541 3.93673 37.4322 4.371 38.1324 4.82158C38.8325 5.27216 39.3295 5.76573 39.4732 6.03768C40.7353 8.43113 44.6585 15.3967 45.3528 16.6315L40.6936 19.3492L37.9949 14.8528C37.8771 14.6568 37.7003 14.5031 37.4898 14.4137C37.2793 14.3244 37.0459 14.3039 36.8231 14.3554C36.6003 14.4068 36.3995 14.5274 36.2494 14.7C36.0994 14.8725 36.0078 15.0882 35.9878 15.316L34.943 27.515C34.9423 27.5178 34.9416 27.5207 34.9409 27.5235C34.9067 27.9581 34.8958 28.3925 34.9028 28.8263C34.9169 29.7432 35.0215 30.6566 35.2137 31.5546L35.2074 31.5313L37.923 45.729H10.2213L12.9369 31.5313L12.9306 31.5546C13.1229 30.6566 13.2274 29.7432 13.2415 28.8263C13.2485 28.3905 13.2361 27.9563 13.2034 27.5256C13.2027 27.5221 13.202 27.5185 13.2013 27.515L12.1565 15.316C12.1365 15.0882 12.045 14.8725 11.8949 14.7C11.7449 14.5274 11.544 14.4068 11.3212 14.3554C11.0984 14.3039 10.865 14.3244 10.6545 14.4137C10.444 14.5031 10.2672 14.6568 10.1494 14.8528L7.45075 19.3492L2.79151 16.6315C3.48587 15.3967 7.40898 8.43113 8.67108 6.03768C8.81486 5.76573 9.31181 5.27216 10.012 4.82158C10.7121 4.371 11.5903 3.93673 12.442 3.56953C13.5875 3.0757 14.0558 2.95438 14.6437 2.76373Z" fill="black"/>
</svg>
