<svg width="17" height="13" viewBox="0 0 17 13" fill="none" xmlns="http://www.w3.org/2000/svg">
<path d="M4.29584 7.74114L4.10384 6.86621L15.2398 4.76637V1.17913H3.71984V0.304199H15.7198C16.0078 0.304199 16.1998 0.479186 16.1998 0.741667V5.11634C16.1998 5.33507 16.0558 5.51006 15.8158 5.55381L4.29584 7.74114ZM14.2798 12.5533C13.2238 12.5533 12.3598 11.7658 12.3598 10.8034C12.3598 9.84099 13.2238 9.05354 14.2798 9.05354C15.3358 9.05354 16.1998 9.84099 16.1998 10.8034C16.1998 11.7658 15.3358 12.5533 14.2798 12.5533ZM14.2798 9.92848C13.7518 9.92848 13.3198 10.3222 13.3198 10.8034C13.3198 11.2846 13.7518 11.6783 14.2798 11.6783C14.8078 11.6783 15.2398 11.2846 15.2398 10.8034C15.2398 10.3222 14.8078 9.92848 14.2798 9.92848ZM2.75984 12.5533C1.70384 12.5533 0.839844 11.7658 0.839844 10.8034C0.839844 9.84099 1.70384 9.05354 2.75984 9.05354C3.81584 9.05354 4.67984 9.84099 4.67984 10.8034C4.67984 11.7658 3.81584 12.5533 2.75984 12.5533ZM2.75984 9.92848C2.23184 9.92848 1.79984 10.3222 1.79984 10.8034C1.79984 11.2846 2.23184 11.6783 2.75984 11.6783C3.28784 11.6783 3.71984 11.2846 3.71984 10.8034C3.71984 10.3222 3.28784 9.92848 2.75984 9.92848Z" fill="white"/>
</svg>
