<svg width="17" height="14" viewBox="0 0 17 14" fill="none" xmlns="http://www.w3.org/2000/svg">
<path d="M4.06092 8.63038L3.85932 7.71474L15.5521 5.51719V1.76306H3.45612V0.847412H16.0561C16.3585 0.847412 16.5601 1.03054 16.5601 1.30523V5.88345C16.5601 6.11236 16.4089 6.29549 16.1569 6.34127L4.06092 8.63038ZM14.5441 13.6664C13.4353 13.6664 12.5281 12.8423 12.5281 11.8351C12.5281 10.8279 13.4353 10.0038 14.5441 10.0038C15.6529 10.0038 16.5601 10.8279 16.5601 11.8351C16.5601 12.8423 15.6529 13.6664 14.5441 13.6664ZM14.5441 10.9195C13.9897 10.9195 13.5361 11.3315 13.5361 11.8351C13.5361 12.3387 13.9897 12.7508 14.5441 12.7508C15.0985 12.7508 15.5521 12.3387 15.5521 11.8351C15.5521 11.3315 15.0985 10.9195 14.5441 10.9195ZM2.44813 13.6664C1.33933 13.6664 0.432129 12.8423 0.432129 11.8351C0.432129 10.8279 1.33933 10.0038 2.44813 10.0038C3.55692 10.0038 4.46412 10.8279 4.46412 11.8351C4.46412 12.8423 3.55692 13.6664 2.44813 13.6664ZM2.44813 10.9195C1.89373 10.9195 1.44013 11.3315 1.44013 11.8351C1.44013 12.3387 1.89373 12.7508 2.44813 12.7508C3.00252 12.7508 3.45612 12.3387 3.45612 11.8351C3.45612 11.3315 3.00252 10.9195 2.44813 10.9195Z" fill="black"/>
</svg>
