<svg width="16" height="16" viewBox="0 0 16 16" fill="none" xmlns="http://www.w3.org/2000/svg">
<path d="M8.0752 15.0824C7.96643 15.0821 7.86084 15.0448 7.77491 14.9764C5.03791 12.7962 3.15253 10.9187 1.83325 9.06651C0.149701 6.69951 -0.234267 4.5142 0.691195 2.57114C1.35083 1.18324 3.24606 0.0476825 5.46126 0.708828C6.51744 1.0216 7.43893 1.69236 8.0752 2.61151C8.71146 1.69236 9.63295 1.0216 10.6891 0.708828C12.8994 0.0577763 14.7996 1.18324 15.4592 2.57114C16.3847 4.5142 16.0007 6.69951 14.3171 9.06651C12.9979 10.9187 11.1125 12.7962 8.37548 14.9764C8.28955 15.0448 8.18396 15.0821 8.0752 15.0824ZM4.20106 1.53147C3.67396 1.51044 3.15123 1.63698 2.68898 1.8975C2.22673 2.15802 1.84241 2.54269 1.57727 3.01022C0.814262 4.61514 1.15885 6.40174 2.63073 8.46593C4.19494 10.5344 6.02658 12.375 8.0752 13.9368C10.1235 12.3765 11.9551 10.5377 13.5197 8.47098C14.9965 6.40175 15.3361 4.61514 14.5731 3.01527C14.0808 2.00588 12.604 1.20343 10.9599 1.67784C10.4327 1.83757 9.94394 2.1087 9.52512 2.47377C9.1063 2.83884 8.76666 3.28977 8.52808 3.79754C8.49099 3.8901 8.4279 3.96928 8.34682 4.025C8.26575 4.08071 8.17034 4.11046 8.07273 4.11046C7.97513 4.11046 7.87972 4.08071 7.79864 4.025C7.71757 3.96928 7.65447 3.8901 7.61739 3.79754C7.3806 3.2885 7.04155 2.83652 6.62246 2.47122C6.20338 2.10592 5.71372 1.83555 5.18559 1.67784C4.8656 1.58255 4.53426 1.53329 4.20106 1.53147Z" fill="black"/>
</svg>
