<svg width="15" height="14" viewBox="0 0 15 14" fill="none" xmlns="http://www.w3.org/2000/svg">
<path d="M7.5 13.9512C7.39641 13.9508 7.29585 13.9152 7.21402 13.8499C4.60735 11.7665 2.81175 9.97256 1.55529 8.2027C-0.0480894 5.94093 -0.413773 3.85277 0.467619 1.9961C1.09584 0.669903 2.90082 -0.415167 5.01054 0.216585C6.01642 0.515456 6.89404 1.15639 7.5 2.03468C8.10596 1.15639 8.98358 0.515456 9.98946 0.216585C12.0945 -0.405522 13.9042 0.669903 14.5324 1.9961C15.4138 3.85277 15.0481 5.94093 13.4447 8.2027C12.1883 9.97256 10.3927 11.7665 7.78598 13.8499C7.70415 13.9152 7.60359 13.9508 7.5 13.9512ZM3.81034 1.00266C3.30835 0.98256 2.81051 1.10347 2.37027 1.35241C1.93003 1.60135 1.56401 1.96892 1.3115 2.41566C0.584825 3.94922 0.913003 5.6564 2.31479 7.62881C3.80452 9.60537 5.54894 11.3641 7.5 12.8564C9.45075 11.3655 11.1952 9.60849 12.6852 7.63364C14.0917 5.6564 14.4152 3.94922 13.6885 2.42048C13.2197 1.45598 11.8132 0.689193 10.2473 1.14251C9.74523 1.29514 9.27976 1.55422 8.88088 1.90306C8.482 2.2519 8.15854 2.68278 7.93132 3.16797C7.896 3.25642 7.83591 3.33208 7.75869 3.38532C7.68148 3.43856 7.59062 3.46699 7.49766 3.46699C7.4047 3.46699 7.31384 3.43856 7.23662 3.38532C7.1594 3.33208 7.09931 3.25642 7.06399 3.16797C6.83848 2.68157 6.51557 2.24968 6.11644 1.90062C5.71732 1.55156 5.25098 1.29321 4.74799 1.14251C4.44325 1.05146 4.12768 1.00439 3.81034 1.00266Z" fill="white"/>
</svg>
