<svg width="80" height="51" viewBox="0 0 80 51" fill="none" xmlns="http://www.w3.org/2000/svg">
<path d="M17.9074 24.2808C17.2428 24.2978 16.5833 24.1586 15.981 23.8742C15.4355 23.6018 15.045 23.2745 14.7934 22.9066C14.5188 22.4929 14.3115 22.0376 14.1794 21.5577C14.0518 21.1592 13.9674 20.7478 13.9278 20.3309C13.9137 20.0443 13.8996 19.721 13.8996 19.3632C13.8996 17.8386 13.8161 16.6188 13.649 15.7376C13.4819 14.8563 13.1458 14.156 12.6425 13.665C12.1536 13.1803 11.5387 12.8455 10.8691 12.6994C10.1847 12.55 9.22147 12.4677 7.97846 12.4677H6.97198V23.8519H10.3507V24.1649H0.424805V23.8519H3.80458V2.12835H0.424805V1.83154H10.549C12.4754 1.83154 14.123 2.3357 15.4919 3.34402C16.8607 4.35233 17.5448 5.61984 17.5441 7.14655C17.5441 8.50961 16.9724 9.6958 15.827 10.6909C14.6816 11.686 13.188 12.2715 11.3311 12.4494C15.0027 13.1446 16.8459 14.9166 16.8607 17.7654C16.8607 19.9453 17.0284 21.47 17.3639 22.3394C17.6991 23.2125 18.3271 23.6486 19.235 23.6486C19.4866 23.6486 19.8771 23.5805 20.4085 23.4575L20.5203 23.7299C19.6805 24.071 18.7853 24.2513 17.8802 24.2615L17.9074 24.2808ZM10.5349 12.2034C11.8615 12.2034 12.9086 11.6992 13.6762 10.6909C14.4441 9.68259 14.8215 8.49639 14.8215 7.14655C14.8215 5.79671 14.4441 4.65219 13.6872 3.65302C12.9304 2.65385 11.8866 2.16799 10.5319 2.16799H6.98808V12.1912L10.5349 12.2034Z" fill="black"/>
<path d="M17.9073 24.6091C17.1923 24.6247 16.4833 24.473 15.836 24.1659C15.2562 23.8752 14.8154 23.5134 14.5275 23.0905C14.2326 22.647 14.0097 22.1587 13.8673 21.6441C13.7317 21.2213 13.6429 20.7846 13.6026 20.3421C13.5885 20.0371 13.5744 19.7119 13.5744 19.3581C13.5744 17.8538 13.4919 16.6554 13.3288 15.7935C13.1738 14.9742 12.8669 14.3359 12.417 13.8968C11.9733 13.4517 11.4121 13.1451 10.8005 13.0135C10.1222 12.8651 9.17205 12.7888 7.98239 12.7888H7.29899V23.5154H10.6778V24.4902H0.0996094V23.5195H3.47837V2.45969H0.0996094V1.5022H10.5489C12.5367 1.5022 14.2649 2.03278 15.682 3.07871C17.1323 4.14801 17.8681 5.51818 17.8681 7.1445C17.8681 8.60615 17.2521 9.88179 16.0373 10.9379C15.1878 11.6758 14.1441 12.2023 12.9232 12.5093C15.7414 13.417 17.1706 15.1795 17.1837 17.7613C17.1837 19.8958 17.3447 21.3941 17.6638 22.2235C17.9476 22.9635 18.4609 23.3233 19.2319 23.3233C19.4412 23.3233 19.8005 23.2633 20.3319 23.1403L20.6007 23.0783L20.9439 23.9179L20.6319 24.0409C20.1274 24.2403 19.6049 24.3897 19.0718 24.4871L17.9033 24.6091M17.5218 23.9383H17.8751C18.1031 23.938 18.331 23.9248 18.5575 23.8986C17.862 23.7146 17.3497 23.2278 17.0558 22.4634C16.7026 21.5486 16.5305 20.0076 16.5305 17.7654C16.5194 15.3828 15.1687 13.8287 12.4109 13.0399C12.571 13.1578 12.7226 13.2869 12.8648 13.4261C13.4134 13.9618 13.7828 14.717 13.9639 15.6725C14.134 16.5741 14.2206 17.8152 14.2206 19.3602C14.2206 19.6997 14.2347 20.0178 14.2488 20.3116C14.2887 20.7028 14.3703 21.0886 14.4923 21.4622C14.615 21.9085 14.8073 22.3323 15.062 22.7175C15.2874 23.0478 15.6458 23.3365 16.1258 23.5774C16.5653 23.7883 17.0411 23.9108 17.5269 23.9383M4.12554 23.8295H6.64175V12.1342H6.65584V2.15984H4.12554V23.8295ZM7.31308 11.8629L10.5338 11.875C11.7648 11.875 12.7068 11.4217 13.4164 10.4906C14.126 9.55958 14.4923 8.43031 14.4923 7.14653C14.4923 5.86276 14.1481 4.80159 13.4325 3.85629C12.74 2.94149 11.7929 2.49933 10.5348 2.49933H7.31408L7.31308 11.8629ZM12.8397 2.4414C13.2682 2.70754 13.6437 3.05228 13.9468 3.45784C14.7419 4.50682 15.1445 5.7479 15.1445 7.14653C15.1445 8.57464 14.7369 9.83402 13.9367 10.8911C13.667 11.2492 13.3434 11.5624 12.9776 11.8191C13.9477 11.5639 14.8492 11.0933 15.6166 10.4419C16.6814 9.51689 17.2209 8.40896 17.2209 7.14653C17.2209 5.72351 16.5939 4.56069 15.3025 3.60929C14.5626 3.06668 13.7276 2.6704 12.8417 2.4414" fill="black"/>
<path d="M33.344 24.5125C31.5978 24.5225 29.9013 23.9257 28.5391 22.8221C27.0907 21.6754 25.9533 20.177 25.2328 18.4667C24.4605 16.6728 24.068 14.7357 24.0804 12.7796C24.0808 11.3269 24.3011 9.88283 24.7336 8.49734C25.141 7.1526 25.7643 5.8845 26.5785 4.7436C27.3661 3.64911 28.3751 2.73616 29.5385 2.06526C30.6966 1.38224 32.0151 1.02593 33.3561 1.03357C35.1245 1.03357 36.7258 1.59261 38.1741 2.70969C39.6225 3.82677 40.7236 5.27419 41.4955 7.04992C42.2692 8.8452 42.6621 10.7842 42.649 12.742C42.6426 15.6042 41.7641 18.3949 40.1328 20.7354C39.3575 21.8317 38.3562 22.7455 37.1979 23.4137C36.031 24.0984 34.7036 24.4547 33.3541 24.4454L33.344 24.5125ZM27.2317 13.5349C27.2317 14.5947 27.2447 15.4543 27.2709 16.1136C27.3085 16.9047 27.3855 17.6935 27.5014 18.4768C27.6289 19.3937 27.808 20.1391 28.0389 20.713C28.2885 21.3183 28.6253 21.8831 29.0383 22.3891C29.4709 22.9265 30.0188 23.3575 30.6406 23.6495C31.5887 24.0216 32.4855 24.2086 33.344 24.1933C34.2919 24.1884 35.2304 24.004 36.1109 23.6495C36.737 23.3517 37.2857 22.9104 37.7132 22.3607C38.1232 21.8418 38.4596 21.2677 38.7126 20.6551C38.9431 20.0828 39.1092 19.3337 39.2249 18.4189C39.3407 17.5041 39.4172 16.7143 39.4423 16.0699C39.4675 15.4255 39.4806 14.5655 39.4806 13.4912V12.4076C39.4806 11.0181 39.4423 9.81466 39.3527 8.7972C39.2608 7.77381 39.0926 6.75889 38.8495 5.76107C38.6086 4.75749 38.2396 3.92672 37.7424 3.26874C37.2562 2.61943 36.6056 2.1145 35.8592 1.80708C35.0591 1.50986 34.2127 1.35943 33.3601 1.3629C32.5492 1.37249 31.7449 1.51283 30.9778 1.77862C30.2192 2.06917 29.5542 2.56458 29.0554 3.2108C28.5431 3.86946 28.1586 4.71514 27.902 5.73261C27.6496 6.7385 27.4783 7.76338 27.3897 8.7972C27.3001 9.82889 27.2619 11.0334 27.2619 12.4218V13.5125L27.2317 13.5349Z" fill="black"/>
<path d="M33.6156 24.8407H33.3439C31.5253 24.8484 29.759 24.2271 28.3386 23.0802C26.849 21.8974 25.6783 20.3548 24.9347 18.5946C24.146 16.7599 23.7433 14.7797 23.7521 12.7795C23.7531 11.2934 23.9785 9.81616 24.4204 8.39864C24.8394 7.02036 25.4785 5.72047 26.3126 4.55037C27.1277 3.41957 28.1704 2.47564 29.3723 1.78055C30.5818 1.07051 31.957 0.69927 33.356 0.705147C35.1847 0.705147 36.8726 1.29164 38.3713 2.44836C39.8498 3.58983 41.0002 5.09112 41.7933 6.92073C42.5824 8.75571 42.9851 10.7363 42.9759 12.7368C42.9711 15.6671 42.0728 18.5247 40.4034 20.9213C39.6 22.0543 38.5647 22.9996 37.3678 23.6931C36.2311 24.3593 34.9475 24.7276 33.6337 24.7645L33.6156 24.8407ZM30.7683 23.3506C31.6932 23.7124 32.5357 23.8822 33.3378 23.868C34.2434 23.8631 35.1401 23.6876 35.9819 23.3506C36.5582 23.0744 37.0633 22.6669 37.4574 22.1603C37.8488 21.6659 38.1696 21.1184 38.4105 20.534C38.6259 19.9973 38.7869 19.2939 38.9017 18.3812C39.0235 17.4176 39.0939 16.6593 39.1171 16.0606C39.1422 15.4213 39.1553 14.5583 39.1553 13.4951V12.4075C39.1553 10.9662 39.114 9.79423 39.0285 8.82657C38.9394 7.81972 38.7753 6.82111 38.5373 5.83923C38.3058 4.88478 37.9496 4.08687 37.4795 3.46785C37.0268 2.86555 36.4224 2.39694 35.7292 2.11089C34.969 1.8302 34.1654 1.68807 33.356 1.6911C32.5821 1.7013 31.8147 1.83509 31.0823 2.08752C30.3808 2.35612 29.7664 2.81514 29.3069 3.41398C28.8268 4.03096 28.4584 4.83701 28.2128 5.8128C27.9644 6.80193 27.7961 7.80985 27.7096 8.82657C27.624 9.80744 27.5828 10.9845 27.5828 12.4217V13.6415L27.5566 13.6699C27.5566 14.663 27.5707 15.4833 27.5948 16.1094C27.62 16.7549 27.6955 17.5385 27.8233 18.4401C27.9461 19.3265 28.1202 20.0522 28.3407 20.597C28.578 21.1704 28.8971 21.7056 29.2878 22.1857C29.6867 22.6814 30.1915 23.0796 30.7643 23.3506M28.9143 2.86103C28.1172 3.43584 27.4171 4.1367 26.841 4.93662C26.049 6.04967 25.4418 7.28559 25.0434 8.59583C24.6216 9.94995 24.4065 11.361 24.4053 12.7806C24.3952 14.6912 24.7784 16.5832 25.5306 18.3365C26.2327 19.9933 27.3361 21.4452 28.7392 22.5588L28.7875 22.5964C28.355 22.0651 28.002 21.4727 27.7398 20.8379C27.5002 20.2423 27.312 19.4637 27.1812 18.5255C27.0637 17.731 26.9858 16.9311 26.9477 16.1287C26.9215 15.467 26.9084 14.5949 26.9084 13.5368V13.4107L26.9346 13.3823V12.4197C26.9346 10.9621 26.9769 9.7678 27.0634 8.7666C27.1529 7.71485 27.3273 6.67224 27.5848 5.64915C27.8535 4.58493 28.2611 3.69554 28.7976 3.00638C28.8358 2.95556 28.8761 2.90474 28.9164 2.859M37.8308 2.859C37.8882 2.9271 37.9435 2.99622 37.9979 3.06839C38.5232 3.76059 38.9178 4.63982 39.1704 5.68269C39.4165 6.69695 39.5864 7.72853 39.6787 8.76863C39.7652 9.7556 39.8075 10.9459 39.8075 12.4075V13.4961C39.8075 14.5685 39.7944 15.4406 39.7693 16.0881C39.7441 16.7051 39.6686 17.4826 39.5489 18.4655C39.4291 19.4484 39.2519 20.1935 39.0154 20.782C38.7752 21.367 38.4609 21.9181 38.0804 22.4216C38.7663 21.8868 39.37 21.2524 39.8719 20.5391C41.4613 18.2535 42.3165 15.5297 42.3217 12.7368C42.3311 10.826 41.9472 8.93405 41.1945 7.18094C40.4497 5.46009 39.3667 4.04316 37.9737 2.97081C37.9244 2.93218 37.8731 2.89559 37.8258 2.859" fill="black"/>
<path d="M57.6727 1.83057H63.6925V2.13143H61.7621L55.9315 13.9019V23.8834H58.8332V24.1975H50.1553V23.8834H52.8547V14.1347L46.9426 2.13143H44.1758V1.83057H52.8547V2.13143H49.953L55.6749 13.7383L61.4249 2.13143H57.6727V1.83057Z" fill="black"/>
<path d="M59.2969 24.5343H49.9688V23.5636H52.6682V14.2194L46.8799 2.46824H43.9893V1.51074H53.3184V2.46824H50.617L55.8144 13.0129L61.0371 2.46824H57.4862V1.51074H64.1562V2.46824H62.1019L56.4002 13.9876V23.5636H59.3019L59.2969 24.5343ZM53.3184 23.8777H55.745V14.3444L49.7413 2.16838H47.4586L53.3184 14.0659V23.8777Z" fill="black"/>
<path d="M15.8825 35.178V35.1506H15.8583C15.1491 30.6254 13.1452 28.3628 9.84662 28.3628C9.0331 28.362 8.22656 28.5144 7.4683 28.812C6.73397 29.1422 6.10348 29.6696 5.64556 30.3367C5.17251 31.0187 4.84037 31.8909 4.65216 32.9398C4.47369 33.8994 4.35503 34.8693 4.29687 35.8438C4.24957 36.7292 4.23749 37.8472 4.24957 39.1981C4.26165 39.8395 4.26165 40.5347 4.23749 41.2839C4.21897 42.0918 4.26271 42.8999 4.36833 43.701C4.46756 44.5137 4.61749 45.3193 4.81722 46.113C5.00769 46.8619 5.3414 47.566 5.79955 48.1855C6.23519 48.7889 6.81853 49.2677 7.49246 49.575C8.26292 49.8755 9.08211 50.0282 9.90802 50.0253C13.1737 50.0253 15.1619 47.7535 15.8724 43.21H16.1331V49.6573H15.8966V49.6299C15.8845 49.1115 15.5413 48.8527 14.867 48.8533C14.389 48.8516 13.9193 48.9786 13.5062 49.2213C13.0198 49.4964 12.5177 49.7421 12.0025 49.9572C11.4228 50.2022 10.7132 50.3252 9.86071 50.3252C7.50554 50.3252 5.49258 49.2348 3.82181 47.0542C2.15105 44.8736 1.31299 42.2461 1.30762 39.1717V39.1442C1.31969 36.0908 2.15608 33.4738 3.81678 31.2932C5.47748 29.1126 7.49279 28.0219 9.86273 28.0212C10.7273 28.0212 11.4369 28.1442 12.0045 28.3892C12.5152 28.606 13.0132 28.8521 13.4961 29.1261C13.9138 29.3685 14.3873 29.4954 14.869 29.4941C15.5433 29.4941 15.8865 29.2349 15.8986 28.7165H16.1351V35.1628L15.8825 35.178Z" fill="black"/>
<path d="M9.86277 50.6493C7.41299 50.6493 5.29636 49.5058 3.57024 47.2503C1.86123 45.0223 0.989617 42.3033 0.977539 39.1726V39.1442C0.989617 36.0359 1.8562 33.327 3.55414 31.0929C5.26516 28.8374 7.38884 27.6929 9.85875 27.6929C10.7716 27.6929 11.5144 27.822 12.1284 28.0873C12.6503 28.3091 13.1594 28.5606 13.6532 28.8404C14.0207 29.0536 14.4372 29.1655 14.861 29.1647C15.5544 29.1647 15.5655 28.8689 15.5655 28.7093L15.5726 28.3881H16.4522V35.4748L15.5534 35.5246V35.3264L15.5333 35.2014C14.8459 30.8205 12.9849 28.691 9.84265 28.691C9.07238 28.6911 8.30875 28.8348 7.59014 29.1149C6.91181 29.4211 6.32997 29.9099 5.9083 30.5277C5.46545 31.1651 5.14941 31.9975 4.96825 33.0008C4.79238 33.9465 4.6754 34.9025 4.61799 35.8631C4.5737 36.6874 4.55861 37.7781 4.57068 39.196C4.58478 39.9248 4.58075 40.6119 4.55861 41.294C4.54014 42.0835 4.58287 42.8733 4.68643 43.6562C4.78588 44.4553 4.93479 45.2473 5.1323 46.0276C5.3114 46.7353 5.62673 47.4005 6.06028 47.9852C6.46096 48.541 6.99693 48.9828 7.6163 49.268C8.34682 49.5525 9.1231 49.6983 9.90605 49.698C13.0151 49.698 14.861 47.5634 15.5494 43.1591L15.5927 42.8827H16.4562V49.9866H15.5695V49.6309C15.5695 49.4794 15.5585 49.1826 14.865 49.1826C14.4436 49.1807 14.0294 49.2926 13.6653 49.5069C13.1677 49.7892 12.6538 50.0411 12.1264 50.2611C11.5003 50.5253 10.7585 50.6544 9.85875 50.6544M14.865 48.525C15.3028 48.525 15.6027 48.6266 15.8061 48.7689V45.0823C15.388 46.5968 14.7825 47.7864 13.9894 48.651C14.2742 48.5634 14.5703 48.5193 14.868 48.5199M5.55301 29.9189C5.0023 30.3849 4.50563 30.9124 4.07248 31.4913C2.4621 33.6096 1.64282 36.1843 1.63175 39.1442V39.1706C1.64282 42.1518 2.46814 44.7357 4.08455 46.8478C4.51805 47.4231 5.01511 47.9466 5.5661 48.4081L5.5349 48.3766C5.05105 47.7233 4.69884 46.9804 4.49822 46.1902C4.29558 45.383 4.14297 44.5639 4.04127 43.7375C3.9335 42.921 3.88908 42.0972 3.90842 41.2736C3.93056 40.6018 3.93358 39.9258 3.9205 39.2041C3.90741 37.7496 3.9205 36.6783 3.96881 35.8275C4.02709 34.8383 4.1471 33.8538 4.32812 32.8798C4.52942 31.782 4.87867 30.8632 5.37587 30.1466C5.43022 30.0683 5.48759 29.9911 5.54597 29.9169M13.9098 29.6739C14.7452 30.546 15.3773 31.7658 15.8061 33.3331V29.5784C15.6048 29.7237 15.3028 29.8223 14.865 29.8223C14.5407 29.8231 14.2183 29.772 13.9098 29.6709" fill="black"/>
<path d="M36.0595 45.2429V50.3252H19.6045V50.0121H22.6793V28.3211H19.6045V28.0212H28.7917V28.3211H25.5639V50.008H29.5787C30.1911 50.0115 30.803 49.9704 31.4095 49.885C31.9033 49.8214 32.3861 49.6901 32.8448 49.4947C33.2393 49.3179 33.5953 49.1407 33.9127 48.9631C34.2153 48.7995 34.4796 48.5721 34.6877 48.2963C34.889 48.0239 35.056 47.7932 35.1959 47.6021C35.3475 47.3818 35.4504 47.1312 35.4979 46.8672C35.5609 46.5677 35.6116 46.3498 35.6499 46.2136C35.6941 46.0258 35.7241 45.8348 35.7394 45.6424C35.7646 45.3964 35.7777 45.2602 35.7777 45.247L36.0595 45.2429Z" fill="black"/>
<path d="M36.3846 50.6493H19.2744V49.6797H22.3502V28.6493H19.2784V27.6929H29.1168V28.6493H25.889V49.6797H29.5788C30.1754 49.6827 30.7714 49.6426 31.3623 49.5597C31.8261 49.4988 32.2795 49.3743 32.71 49.1897C33.0934 49.0169 33.4437 48.8431 33.7527 48.6713C34.0149 48.5294 34.2441 48.3325 34.425 48.094C34.5592 47.9151 34.6773 47.7538 34.7793 47.6102L34.9313 47.4018C35.0559 47.2186 35.1407 47.0107 35.1799 46.7919C35.2453 46.487 35.2966 46.2624 35.3369 46.118C35.3756 45.9481 35.4018 45.7755 35.4154 45.6017C35.4385 45.3852 35.4506 45.2561 35.4526 45.2266V44.9003L35.7777 44.9145H36.3816L36.3846 50.6493ZM32.4382 49.9927H35.7344V47.2422C35.6712 47.4395 35.5775 47.6255 35.4567 47.7931L35.3067 47.9964C35.201 48.1418 35.0822 48.3014 34.9474 48.4863C34.7117 48.7992 34.4125 49.0574 34.0697 49.2436C33.7446 49.4235 33.3773 49.6065 32.9767 49.7864C32.8015 49.8652 32.6217 49.9331 32.4382 49.9897M23.0044 49.9897H25.2388V28.3525H23.0044V49.9897Z" fill="black"/>
<path d="M40.9477 50.008H43.5444V50.3211H38.1094V50.008H40.6568L47.9679 28.0212H48.2608L55.586 50.008H58.0015V50.3211H50.162V50.008H52.7587L50.6381 43.5993H43.1539V43.4367L40.9477 50.008ZM46.901 32.1734L43.177 43.2944H50.5394L46.901 32.1734Z" fill="black"/>
<path d="M58.3246 50.6493H49.8369V49.6797H52.3068L50.4035 43.9245H43.332L41.4015 49.6797H43.8694V50.6493H37.7822V49.6797H40.4212L47.7343 27.6929H48.4942L55.8194 49.6797H58.3246V50.6493ZM53.0908 49.9927H55.2326L48.1148 28.6128L47.0852 31.7068L50.9903 43.6247L53.0908 49.9927ZM43.6299 42.9681H50.0885L46.8919 33.2102L43.6299 42.9681Z" fill="black"/>
<path d="M76.4627 28.3211H73.6094V28.0487H79.5748V28.3211H76.7224L76.7003 50.3211H76.4396L63.9652 29.4372V50.008H66.8176V50.3211H60.8643V50.008H63.7166V28.3211H60.8643V28.0212H66.2862L76.4396 45.1616L76.4627 28.3211Z" fill="black"/>
<path d="M77.0253 50.6493H76.2563L76.1607 50.4908L64.2903 30.6172V49.6797H67.1426V50.6493H60.5381V49.6797H63.3915V28.6493H60.5381V27.6929H66.4703L76.1164 43.9754L76.1366 28.6493H73.2842V27.7203H79.8998V28.6493H77.0474L77.0253 50.6493ZM64.0417 28.9289L76.3751 49.578V45.6992L66.1019 28.3525H64.0417V28.9289Z" fill="black"/>
<path fill-rule="evenodd" clip-rule="evenodd" d="M67.74 24.1119C67.6786 24.0885 67.895 23.5264 68.1336 22.4856C68.2232 22.0424 68.3057 21.6297 68.3671 21.2191C68.4013 20.9853 68.4315 20.7495 68.4496 20.4822C68.4496 20.4537 68.4496 20.3917 68.4587 20.3073C68.4693 20.193 68.4891 20.0798 68.5181 19.9688C68.5513 19.8387 68.5795 19.5897 68.5644 19.0754C68.2996 18.4474 68.1549 17.7746 68.1376 17.0923C68.1114 15.8309 68.5553 14.788 69.0646 13.5917C69.2266 13.2095 69.3605 12.8954 69.5819 12.4797C69.6654 12.3231 69.8235 12.0365 70.1576 11.4165C70.2636 11.2362 70.3541 11.0471 70.4284 10.8513C70.5501 10.5047 70.5693 10.2343 70.6297 10.2414C70.6599 10.2414 70.6739 10.3217 70.7756 10.6541C70.8531 10.9052 70.8672 10.9347 70.8934 10.9397C70.9779 10.956 71.0373 10.6755 71.296 10.2608C71.4107 10.0737 71.5496 9.89788 71.8183 9.53806L71.9894 9.31139C72.0236 9.26666 72.0699 9.20466 72.0981 9.16604C72.2886 8.91506 72.457 8.64773 72.6014 8.36711C72.6728 8.18821 72.8027 7.89141 72.8963 7.90971C72.9899 7.928 72.9969 8.21464 73.005 8.4281C73.0291 8.92107 72.9486 9.20263 72.9969 9.22092C73.0452 9.23922 73.1368 9.0898 73.4518 8.40777L74.3516 7.09553L76.433 4.96099C76.8931 4.33789 77.2213 3.62584 77.3973 2.86914C77.4643 2.58275 77.5091 2.2915 77.5311 1.99805C77.8799 2.27493 78.1876 2.60079 78.445 2.96571C78.7218 3.3454 78.9335 3.76941 79.071 4.22C79.2608 4.87332 79.285 5.56429 79.1415 6.22952C79.1868 6.22952 79.2532 6.22952 79.3337 6.21935C79.5038 6.20512 79.535 6.18886 79.5602 6.21224C79.6105 6.26408 79.4978 6.4074 79.4253 6.65846C79.3928 6.77658 79.3729 6.8979 79.3659 7.02032C79.3297 7.3405 79.1646 7.69422 78.9412 8.16179C78.7037 8.64968 78.4722 9.09692 78.2528 9.50451L78.4229 9.49333L78.5658 9.48419C78.5482 9.68456 78.5111 9.88271 78.4551 10.0758C78.3441 10.4476 78.1686 10.7966 77.9367 11.1064C77.6539 11.5033 77.3024 11.8453 76.899 12.1158C76.8749 12.194 76.8558 12.2957 76.9061 12.3516C76.9564 12.4075 77.0863 12.3516 77.1466 12.3963C77.2876 12.5061 76.9947 13.1058 76.9947 13.1058C76.7796 13.574 76.496 14.0067 76.1532 14.3896C76.1532 14.3896 75.4125 15.2159 74.5227 15.6601C74.2148 15.8126 74.0577 15.8736 74.0577 15.8736C73.6552 16.0321 73.3794 16.0626 73.3814 16.1389C73.3834 16.2151 73.5565 16.2476 73.6441 16.272C73.8836 16.3371 74.0024 16.2893 74.0276 16.333C74.0789 16.4204 73.7145 16.8148 72.9838 17.2946C72.2793 17.7581 71.8324 17.9044 70.8863 18.371C70.5592 18.5316 70.0952 18.7664 69.5447 19.0754C69.7169 17.7785 70.1214 16.5241 70.7384 15.3735C71.3563 14.232 72.0589 13.4493 72.6507 12.7887C73.7025 11.6167 73.9088 11.7021 75.0149 10.5016C75.8453 9.60006 76.5619 8.81028 77.1134 7.60986C77.7395 6.24375 77.8532 4.99758 77.8119 4.9864C77.7707 4.97522 77.6227 6.01505 76.9796 7.3405C76.3908 8.53889 75.6862 9.32155 74.8509 10.2353C73.7015 11.4917 73.5555 11.3473 72.2461 12.751C71.304 13.7604 70.7615 14.3509 70.2633 15.3288C69.8692 16.1069 69.5791 16.9344 69.4007 17.7896C69.3705 17.9278 69.2719 18.6271 69.0736 20.0258C68.9478 20.9111 68.8824 21.3959 68.671 22.0587C68.5534 22.4309 68.4132 22.7955 68.2513 23.1503C68.0802 23.5345 67.7904 24.1302 67.737 24.1088" fill="black"/>
</svg>
