<svg width="76" height="48" viewBox="0 0 76 48" fill="none" xmlns="http://www.w3.org/2000/svg">
<g clip-path="url(#clip0_2200_1213)">
<path d="M16.9606 22.6741C16.3277 22.6903 15.6996 22.5573 15.126 22.2856C14.6064 22.0253 14.2345 21.7125 13.9949 21.361C13.7334 20.9657 13.536 20.5306 13.4102 20.0721C13.2886 19.6913 13.2082 19.2982 13.1705 18.8998C13.1571 18.6259 13.1437 18.317 13.1437 17.9751C13.1437 16.5183 13.0641 15.3528 12.905 14.5107C12.7459 13.6686 12.4257 12.9994 11.9464 12.5303C11.4809 12.0671 10.8952 11.7472 10.2575 11.6076C9.60566 11.4648 8.68832 11.3861 7.5045 11.3861H6.54595V22.2642H9.76382V22.5634H0.310547V22.2642H3.52938V1.50651H0.310547V1.2229H9.95265C11.7873 1.2229 13.3565 1.70464 14.6601 2.66813C15.9638 3.63162 16.6153 4.84278 16.6146 6.30161C16.6146 7.60406 16.0702 8.73752 14.9793 9.68838C13.8885 10.6392 12.466 11.1987 10.6974 11.3687C14.1943 12.033 15.9497 13.7262 15.9638 16.4483C15.9638 18.5314 16.1235 19.9882 16.443 20.819C16.7622 21.6533 17.3604 22.07 18.225 22.07C18.4646 22.07 18.8365 22.0049 19.3427 21.8874L19.4491 22.1477C18.6493 22.4736 17.7967 22.6458 16.9348 22.6556L16.9606 22.6741ZM9.93923 11.1336C11.2026 11.1336 12.1998 10.6519 12.9309 9.68838C13.6623 8.72489 14.0217 7.59144 14.0217 6.30161C14.0217 5.01178 13.6623 3.91814 12.9414 2.96339C12.2206 2.00865 11.2266 1.54439 9.93636 1.54439H6.56128V11.122L9.93923 11.1336Z" fill="white"/>
<path d="M16.9597 22.9878C16.2787 23.0027 15.6035 22.8578 14.987 22.5643C14.4349 22.2866 14.015 21.9408 13.7409 21.5367C13.46 21.1129 13.2477 20.6463 13.1121 20.1546C12.9829 19.7506 12.8984 19.3334 12.86 18.9105C12.8466 18.6191 12.8331 18.3083 12.8331 17.9703C12.8331 16.5328 12.7545 15.3877 12.5992 14.5641C12.4516 13.7813 12.1593 13.1713 11.7308 12.7517C11.3083 12.3265 10.7738 12.0335 10.1914 11.9077C9.54529 11.7659 8.64042 11.693 7.5074 11.693H6.85654V21.9427H10.0744V22.8742H0V21.9466H3.21787V1.82313H0V0.908203H9.95172C11.8449 0.908203 13.4907 1.4152 14.8404 2.41462C16.2216 3.43639 16.9223 4.74564 16.9223 6.29965C16.9223 7.69632 16.3357 8.91525 15.1787 9.92439C14.3697 10.6295 13.3757 11.1326 12.213 11.426C14.8969 12.2933 16.2581 13.9774 16.2705 16.4444C16.2705 18.4841 16.4239 19.9157 16.7277 20.7083C16.9981 21.4153 17.4869 21.7592 18.2212 21.7592C18.4206 21.7592 18.7628 21.7019 19.2689 21.5843L19.5248 21.5251L19.8517 22.3273L19.5545 22.4449C19.0741 22.6354 18.5765 22.7782 18.0688 22.8713L16.9559 22.9878M16.5926 22.3468H16.929C17.1462 22.3466 17.3632 22.3339 17.5789 22.3089C16.9166 22.1331 16.4287 21.6679 16.1488 20.9375C15.8123 20.0633 15.6484 18.5909 15.6484 16.4483C15.6379 14.1717 14.3515 12.6866 11.725 11.9329C11.8775 12.0456 12.0219 12.1689 12.1574 12.302C12.6798 12.8139 13.0316 13.5355 13.2041 14.4485C13.3661 15.31 13.4485 16.4959 13.4485 17.9722C13.4485 18.2966 13.4619 18.6006 13.4754 18.8813C13.5134 19.2552 13.5912 19.6238 13.7073 19.9808C13.8241 20.4073 14.0073 20.8122 14.2499 21.1803C14.4646 21.496 14.8058 21.7718 15.2631 22.002C15.6816 22.2035 16.1348 22.3206 16.5974 22.3468M3.83422 22.2428H6.23061V11.0676H6.24403V1.53661H3.83422V22.2428ZM6.86996 10.8082L9.93734 10.8199C11.1097 10.8199 12.0069 10.3867 12.6826 9.49703C13.3584 8.60736 13.7073 7.5283 13.7073 6.3016C13.7073 5.0749 13.3795 4.06091 12.698 3.15764C12.0385 2.2835 11.1365 1.86101 9.9383 1.86101H6.87092L6.86996 10.8082ZM12.1334 1.80565C12.5415 2.05996 12.8992 2.38937 13.1878 2.7769C13.9451 3.77924 14.3285 4.96515 14.3285 6.3016C14.3285 7.66621 13.9403 8.8696 13.1782 9.87971C12.9213 10.2219 12.6131 10.5211 12.2647 10.7665C13.1886 10.5225 14.0472 10.0729 14.778 9.45041C15.7922 8.56657 16.306 7.5079 16.306 6.3016C16.306 4.94184 15.7088 3.83072 14.479 2.92162C13.7742 2.40313 12.979 2.02447 12.1353 1.80565" fill="white"/>
<path d="M31.6607 22.8954C29.9976 22.9049 28.3819 22.3347 27.0846 21.2802C25.7051 20.1844 24.6219 18.7527 23.9357 17.1184C23.2002 15.4042 22.8264 13.5533 22.8382 11.6842C22.8386 10.2961 23.0484 8.91615 23.4603 7.59226C23.8483 6.3073 24.4419 5.09558 25.2173 4.00541C25.9674 2.95958 26.9284 2.08722 28.0364 1.44615C29.1393 0.793495 30.395 0.453022 31.6722 0.46032C33.3564 0.46032 34.8814 0.994511 36.2608 2.06192C37.6402 3.12934 38.6888 4.51241 39.424 6.20919C40.1608 7.92465 40.535 9.77741 40.5225 11.6482C40.5164 14.3831 39.6798 17.0498 38.1262 19.2862C37.3878 20.3338 36.4342 21.2069 35.331 21.8455C34.2197 22.4997 32.9556 22.8402 31.6703 22.8313L31.6607 22.8954ZM25.8394 12.4058C25.8394 13.4185 25.8519 14.2399 25.8768 14.8699C25.9126 15.6259 25.9859 16.3795 26.0963 17.1281C26.2177 18.0041 26.3883 18.7164 26.6082 19.2648C26.846 19.8432 27.1667 20.3829 27.56 20.8664C27.972 21.3799 28.4938 21.7917 29.086 22.0708C29.989 22.4263 30.8431 22.605 31.6607 22.5904C32.5634 22.5857 33.4572 22.4095 34.2958 22.0708C34.8921 21.7862 35.4147 21.3645 35.8218 20.8392C36.2123 20.3434 36.5326 19.7949 36.7736 19.2095C36.9931 18.6627 37.1513 17.9468 37.2615 17.0727C37.3718 16.1986 37.4446 15.4439 37.4686 14.8281C37.4925 14.2124 37.505 13.3907 37.505 12.364V11.3287C37.505 10.001 37.4686 8.85101 37.3833 7.87878C37.2957 6.9009 37.1355 5.9311 36.904 4.97764C36.6746 4.01868 36.3231 3.22484 35.8496 2.59611C35.3865 1.97568 34.767 1.4932 34.0561 1.19945C33.2941 0.915434 32.488 0.771695 31.676 0.775007C30.9037 0.784171 30.1377 0.918275 29.4071 1.17225C28.6847 1.44988 28.0513 1.92327 27.5763 2.54075C27.0884 3.17013 26.7222 3.97821 26.4778 4.95044C26.2374 5.91162 26.0743 6.89093 25.9899 7.87878C25.9046 8.86461 25.8682 10.0155 25.8682 11.3423V12.3844L25.8394 12.4058Z" fill="white"/>
<path d="M31.9194 23.2091H31.6606C29.9286 23.2164 28.2464 22.6228 26.8937 21.5268C25.4749 20.3967 24.36 18.9226 23.6518 17.2407C22.9007 15.4875 22.5171 13.5954 22.5255 11.6841C22.5265 10.2641 22.7412 8.8525 23.162 7.498C23.561 6.18099 24.1697 4.9389 24.9641 3.82082C25.7404 2.74029 26.7335 1.83833 27.8781 1.17414C29.03 0.495667 30.3397 0.140934 31.6721 0.14655C33.4138 0.14655 35.0212 0.706965 36.4485 1.81226C37.8567 2.90298 38.9523 4.33753 39.7076 6.08579C40.4591 7.83919 40.8427 9.73174 40.8339 11.6433C40.8293 14.4433 39.9738 17.1739 38.3839 19.4639C37.6187 20.5466 36.6328 21.4499 35.4929 22.1125C34.4103 22.7491 33.1878 23.101 31.9366 23.1362L31.9194 23.2091ZM29.2076 21.7852C30.0885 22.131 30.8908 22.2932 31.6548 22.2796C32.5172 22.2749 33.3712 22.1072 34.1729 21.7852C34.7218 21.5212 35.2028 21.1319 35.5782 20.6479C35.951 20.1754 36.2565 19.6523 36.4859 19.0938C36.6911 18.581 36.8444 17.9089 36.9537 17.0367C37.0697 16.116 37.1368 15.3914 37.1588 14.8193C37.1828 14.2084 37.1953 13.3838 37.1953 12.3679V11.3286C37.1953 9.95139 37.156 8.83153 37.0745 7.9069C36.9897 6.94482 36.8333 5.9906 36.6067 5.05237C36.3862 4.14036 36.0469 3.37792 35.5993 2.78643C35.1681 2.2109 34.5924 1.76313 33.9323 1.4898C33.2083 1.22159 32.443 1.08577 31.6721 1.08867C30.9351 1.09842 30.2042 1.22626 29.5067 1.46746C28.8386 1.72412 28.2535 2.16274 27.8158 2.73495C27.3586 3.3245 27.0077 4.09471 26.7738 5.02712C26.5372 5.97228 26.3769 6.93538 26.2946 7.9069C26.2131 8.84416 26.1738 9.96888 26.1738 11.3422V12.5077L26.1489 12.5349C26.1489 13.4839 26.1623 14.2677 26.1853 14.866C26.2093 15.4827 26.2811 16.2315 26.4029 17.0931C26.5198 17.94 26.6857 18.6335 26.8956 19.1541C27.1216 19.7019 27.4255 20.2134 27.7976 20.6721C28.1776 21.1458 28.6583 21.5263 29.2038 21.7852M27.442 2.20659C26.6828 2.75584 26.016 3.42554 25.4673 4.18989C24.713 5.25346 24.1348 6.43444 23.7554 7.68642C23.3537 8.98034 23.1487 10.3287 23.1476 11.6851C23.138 13.5108 23.5029 15.3187 24.2193 16.994C24.888 18.5772 25.9388 19.9646 27.2752 21.0286L27.3212 21.0645C26.9092 20.5569 26.5731 19.9908 26.3233 19.3842C26.0952 18.8151 25.9159 18.0711 25.7913 17.1746C25.6794 16.4155 25.6052 15.6511 25.5689 14.8844C25.544 14.2521 25.5316 13.4188 25.5316 12.4077V12.2873L25.5565 12.2601V11.3403C25.5565 9.94751 25.5967 8.80628 25.6792 7.84959C25.7644 6.84461 25.9305 5.84835 26.1757 4.87075C26.4316 3.85384 26.8199 3.00399 27.3308 2.34548C27.3672 2.29691 27.4055 2.24835 27.4439 2.20464M35.9338 2.20464C35.9884 2.26972 36.0412 2.33576 36.0929 2.40472C36.5933 3.06615 36.969 3.90629 37.2096 4.9028C37.444 5.87196 37.6059 6.85768 37.6937 7.85154C37.7761 8.79463 37.8164 9.93197 37.8164 11.3286V12.3689C37.8164 13.3935 37.8039 14.2269 37.78 14.8456C37.756 15.4351 37.6841 16.1781 37.57 17.1173C37.456 18.0565 37.2873 18.7685 37.062 19.3308C36.8332 19.8898 36.5339 20.4164 36.1715 20.8975C36.8248 20.3865 37.3997 19.7803 37.8777 19.0987C39.3914 16.9147 40.2059 14.312 40.2109 11.6433C40.2198 9.81745 39.8542 8.0096 39.1373 6.33443C38.428 4.69009 37.3965 3.33616 36.0699 2.31148C36.0229 2.27458 35.9741 2.23961 35.929 2.20464" fill="white"/>
<path d="M54.8308 1.22192H60.5639V1.50942H58.7254L53.1725 12.7566V22.2943H55.936V22.5944H47.6713V22.2943H50.2422V12.979L44.6116 1.50942H41.9766V1.22192H50.2422V1.50942H47.4787L52.9281 12.6002L58.4043 1.50942H54.8308V1.22192Z" fill="white"/>
<path d="M56.3794 22.9162H47.4956V21.9887H50.0664V13.0599L44.5538 1.83118H41.8008V0.91626H50.6856V1.83118H48.1129L53.0628 11.907L58.0368 1.83118H54.655V0.91626H61.0074V1.83118H59.0509L53.6207 12.8384V21.9887H56.3842L56.3794 22.9162ZM50.6856 22.2888H52.9967V13.1794L47.2789 1.54466H45.1049L50.6856 12.9132V22.2888Z" fill="white"/>
<path d="M15.0312 33.0869V33.0607H15.0082C14.3328 28.7367 12.4243 26.5746 9.28277 26.5746C8.50799 26.5739 7.73986 26.7195 7.01771 27.0039C6.31834 27.3194 5.71788 27.8233 5.28176 28.4608C4.83124 29.1125 4.51492 29.9459 4.33567 30.9482C4.1657 31.8651 4.05268 32.7919 3.9973 33.7231C3.95225 34.5691 3.94074 35.6374 3.95225 36.9282C3.96375 37.5411 3.96375 38.2054 3.94074 38.9213C3.9231 39.6933 3.96477 40.4655 4.06536 41.2309C4.15986 42.0075 4.30265 42.7773 4.49287 43.5357C4.67426 44.2513 4.99208 44.9241 5.42842 45.5161C5.84332 46.0927 6.39888 46.5502 7.04071 46.8438C7.77449 47.1309 8.55467 47.2768 9.34124 47.2741C12.4514 47.2741 14.3449 45.1033 15.0216 40.7618H15.2699V46.9225H15.0446V46.8962C15.0331 46.4009 14.7063 46.1536 14.064 46.1542C13.6089 46.1525 13.1615 46.2739 12.7681 46.5058C12.3049 46.7687 11.8267 47.0035 11.336 47.209C10.7839 47.4431 10.1081 47.5606 9.29619 47.5606C7.05317 47.5606 5.13606 46.5188 3.54486 44.4351C1.95366 42.3514 1.1555 39.8407 1.15039 36.903V36.8768C1.16189 33.9591 1.95845 31.4584 3.54007 29.3748C5.12168 27.2911 7.04103 26.2489 9.29811 26.2483C10.1215 26.2483 10.7973 26.3658 11.3379 26.5999C11.8242 26.8071 12.2985 27.0422 12.7585 27.304C13.1562 27.5356 13.6072 27.6569 14.066 27.6556C14.7082 27.6556 15.0351 27.408 15.0466 26.9126H15.2718V33.0723L15.0312 33.0869Z" fill="white"/>
<path d="M9.29806 47.8704C6.96494 47.8704 4.9491 46.7778 3.30518 44.6225C1.67755 42.4935 0.84744 39.8954 0.835938 36.904V36.8768C0.84744 33.9067 1.67276 31.3182 3.28984 29.1834C4.91938 27.0282 6.94193 25.9346 9.29423 25.9346C10.1636 25.9346 10.8711 26.0579 11.4558 26.3114C11.9528 26.5234 12.4377 26.7637 12.908 27.0311C13.2579 27.2348 13.6546 27.3417 14.0582 27.3409C14.7187 27.3409 14.7292 27.0583 14.7292 26.9058L14.7359 26.5989H15.5737V33.3705L14.7177 33.4181V33.2287L14.6986 33.1092C14.0439 28.9231 12.2715 26.8883 9.27889 26.8883C8.5453 26.8884 7.81803 27.0257 7.13364 27.2934C6.48762 27.586 5.93349 28.053 5.5319 28.6434C5.11013 29.2524 4.80915 30.0478 4.63661 31.0065C4.46912 31.9102 4.35771 32.8237 4.30303 33.7415C4.26085 34.5292 4.24648 35.5714 4.25798 36.9263C4.2714 37.6227 4.26756 38.2793 4.24648 38.931C4.22888 39.6854 4.26959 40.4401 4.36821 41.1882C4.46292 41.9517 4.60475 42.7085 4.79285 43.4541C4.96343 44.1304 5.26373 44.766 5.67664 45.3248C6.05824 45.8558 6.56869 46.278 7.15857 46.5505C7.8543 46.8223 8.59361 46.9616 9.33928 46.9613C12.3003 46.9613 14.0582 44.9217 14.7139 40.7132L14.7551 40.449H15.5776V47.2372H14.7331V46.8972C14.7331 46.7525 14.7225 46.4689 14.0621 46.4689C13.6608 46.4671 13.2663 46.574 12.9195 46.7787C12.4457 47.0485 11.9562 47.2892 11.4539 47.4994C10.8576 47.7519 10.1512 47.8753 9.29423 47.8753M14.0621 45.8405C14.4791 45.8405 14.7647 45.9376 14.9583 46.0736V42.5508C14.5602 43.998 13.9835 45.1347 13.2281 45.9609C13.4994 45.8773 13.7814 45.835 14.065 45.8356M5.19353 28.0616C4.66905 28.5069 4.19602 29.011 3.78349 29.5642C2.24981 31.5883 1.46954 34.0485 1.459 36.8768V36.902C1.46954 39.7507 2.25556 42.2196 3.795 44.2379C4.20785 44.7876 4.68124 45.2878 5.20599 45.7288L5.17627 45.6987C4.71547 45.0744 4.38003 44.3646 4.18896 43.6095C3.99597 42.8382 3.85063 42.0555 3.75378 41.2659C3.65113 40.4856 3.60883 39.6985 3.62725 38.9115C3.64834 38.2695 3.65121 37.6237 3.63875 36.9341C3.62629 35.5442 3.63875 34.5205 3.68476 33.7075C3.74027 32.7623 3.85457 31.8216 4.02697 30.8909C4.21868 29.8419 4.5513 28.9639 5.02482 28.2792C5.07658 28.2044 5.13122 28.1306 5.18682 28.0597M13.1524 27.8276C13.948 28.6609 14.55 29.8264 14.9583 31.3241V27.7363C14.7666 27.8751 14.4791 27.9694 14.0621 27.9694C13.7532 27.9701 13.4462 27.9213 13.1524 27.8246" fill="white"/>
<path d="M34.2476 42.7043V47.5606H18.5762V47.2614H21.5046V26.5348H18.5762V26.2483H27.3259V26.5348H24.2518V47.2576H28.0755C28.6587 47.2609 29.2414 47.2216 29.8191 47.14C30.2893 47.0792 30.7492 46.9537 31.186 46.7671C31.5617 46.5981 31.9007 46.4288 32.203 46.2591C32.4912 46.1027 32.7429 45.8855 32.9411 45.622C33.1328 45.3617 33.2919 45.1412 33.4251 44.9586C33.5695 44.7481 33.6675 44.5086 33.7127 44.2564C33.7728 43.9702 33.821 43.762 33.8575 43.6319C33.8996 43.4524 33.9282 43.2699 33.9428 43.086C33.9667 42.851 33.9792 42.7208 33.9792 42.7082L34.2476 42.7043Z" fill="white"/>
<path d="M34.5572 47.8704H18.2617V46.9438H21.1911V26.8485H18.2656V25.9346H27.6354V26.8485H24.5613V46.9438H28.0754C28.6436 46.9468 29.2112 46.9085 29.774 46.8292C30.2157 46.771 30.6475 46.6521 31.0575 46.4757C31.4227 46.3106 31.7563 46.1445 32.0505 45.9804C32.3003 45.8447 32.5185 45.6566 32.6908 45.4287C32.8187 45.2577 32.9311 45.1036 33.0283 44.9664L33.173 44.7673C33.2917 44.5922 33.3724 44.3935 33.4098 44.1845C33.4721 43.8931 33.521 43.6785 33.5593 43.5406C33.5961 43.3782 33.6211 43.2133 33.6341 43.0472C33.6561 42.8403 33.6676 42.7169 33.6695 42.6888V42.377L33.9791 42.3906H34.5543L34.5572 47.8704ZM30.7987 47.243H33.9379V44.6148C33.8777 44.8033 33.7884 44.981 33.6734 45.1412L33.5305 45.3354C33.4299 45.4743 33.3168 45.6268 33.1883 45.8036C32.9639 46.1025 32.6789 46.3492 32.3525 46.5272C32.0429 46.6991 31.693 46.8739 31.3115 47.0458C31.1446 47.1212 30.9734 47.186 30.7987 47.2401M21.8141 47.2401H23.9421V26.5649H21.8141V47.2401Z" fill="white"/>
<path d="M38.9023 47.2576H41.3754V47.5567H36.1992V47.2576H38.6253L45.5883 26.2483H45.8672L52.8436 47.2576H55.1441V47.5567H47.6779V47.2576H50.151L48.1313 41.1338H41.0035V40.9784L38.9023 47.2576ZM44.5722 30.2159L41.0255 40.8424H48.0374L44.5722 30.2159Z" fill="white"/>
<path d="M55.4528 47.8704H47.3693V46.9438H49.7216L47.909 41.4446H41.1741L39.3356 46.9438H41.686V47.8704H35.8887V46.9438H38.402L45.3669 25.9346H46.0906L53.0669 46.9438H55.4528V47.8704ZM50.4683 47.243H52.5081L45.7292 26.8136L44.7486 29.7701L48.4678 41.1581L50.4683 47.243ZM41.4579 40.5306H47.6089L44.5646 31.2066L41.4579 40.5306Z" fill="white"/>
<path d="M72.7268 26.5348H70.0093V26.2745H75.6906V26.5348H72.9741L72.953 47.5567H72.7047L60.8244 27.6013V47.2576H63.5409V47.5567H57.8711V47.2576H60.5876V26.5348H57.8711V26.2483H63.0348L72.7047 42.6266L72.7268 26.5348Z" fill="white"/>
<path d="M73.2626 47.8704H72.5303L72.4392 47.7189L61.134 28.7289V46.9438H63.8506V47.8704H57.5605V46.9438H60.2781V26.8485H57.5605V25.9346H63.2103L72.3971 41.4931L72.4162 26.8485H69.6997V25.9608H76.0003V26.8485H73.2837L73.2626 47.8704ZM60.8973 27.1156L72.6434 46.8467V43.1404L62.8594 26.5649H60.8973V27.1156Z" fill="white"/>
<path fill-rule="evenodd" clip-rule="evenodd" d="M64.4202 22.5128C64.3617 22.4904 64.5678 21.9533 64.795 20.9587C64.8803 20.5353 64.9589 20.1409 65.0174 19.7486C65.05 19.5252 65.0787 19.2998 65.096 19.0444C65.096 19.0172 65.096 18.958 65.1046 18.8773C65.1147 18.7681 65.1336 18.66 65.1612 18.5539C65.1928 18.4296 65.2196 18.1916 65.2053 17.7002C64.9532 17.1001 64.8153 16.4572 64.7988 15.8053C64.7739 14.5999 65.1966 13.6034 65.6817 12.4602C65.836 12.095 65.9635 11.7949 66.1744 11.3977C66.2539 11.2481 66.4044 10.9742 66.7227 10.3818C66.8236 10.2095 66.9098 10.0288 66.9805 9.84173C67.0965 9.51053 67.1147 9.25218 67.1722 9.25898C67.201 9.25898 67.2144 9.33571 67.3112 9.65331C67.385 9.89321 67.3984 9.92137 67.4234 9.92623C67.5039 9.94177 67.5604 9.6737 67.8068 9.27743C67.9161 9.09872 68.0483 8.93069 68.3043 8.58687L68.4672 8.37028C68.4998 8.32754 68.5439 8.26829 68.5707 8.23139C68.7522 7.99157 68.9125 7.73613 69.05 7.46798C69.1181 7.29704 69.2417 7.01343 69.3309 7.03091C69.42 7.04839 69.4267 7.32229 69.4344 7.52625C69.4574 7.99731 69.3807 8.26635 69.4267 8.28383C69.4728 8.30132 69.56 8.15854 69.86 7.50683L70.717 6.25294L72.6992 4.21329C73.1374 3.61789 73.45 2.9375 73.6175 2.21445C73.6814 1.94079 73.724 1.66248 73.745 1.38208C74.0772 1.64666 74.3703 1.95802 74.6154 2.30672C74.8791 2.66953 75.0806 3.07469 75.2116 3.50525C75.3923 4.12952 75.4154 4.78977 75.2787 5.42542C75.3219 5.42542 75.3851 5.42542 75.4618 5.41571C75.6238 5.40211 75.6535 5.38657 75.6775 5.40891C75.7254 5.45845 75.6181 5.59539 75.549 5.83529C75.518 5.94817 75.4991 6.06409 75.4925 6.18106C75.458 6.48701 75.3008 6.82501 75.088 7.27178C74.8618 7.73799 74.6413 8.16534 74.4323 8.55482L74.5943 8.54413L74.7304 8.53539C74.7136 8.72686 74.6783 8.91619 74.625 9.10066C74.5193 9.45597 74.3521 9.78943 74.1313 10.0855C73.862 10.4648 73.5272 10.7915 73.1431 11.05C73.1201 11.1248 73.1018 11.2219 73.1498 11.2753C73.1977 11.3287 73.3214 11.2753 73.3789 11.318C73.5131 11.4229 73.2341 11.996 73.2341 11.996C73.0293 12.4433 72.7592 12.8569 72.4328 13.2227C72.4328 13.2227 71.7273 14.0123 70.8799 14.4368C70.5866 14.5824 70.4371 14.6407 70.4371 14.6407C70.0536 14.7922 69.791 14.8214 69.7929 14.8942C69.7948 14.9671 69.9597 14.9981 70.0431 15.0214C70.2712 15.0836 70.3843 15.038 70.4083 15.0797C70.4572 15.1632 70.1102 15.5401 69.4143 15.9985C68.7433 16.4414 68.3177 16.5813 67.4167 17.0271C67.1051 17.1806 66.6632 17.4049 66.1389 17.7002C66.3029 16.461 66.6882 15.2623 67.2757 14.1629C67.8643 13.0721 68.5334 12.3243 69.097 11.6929C70.0987 10.5731 70.2952 10.6547 71.3486 9.50762C72.1395 8.64611 72.8219 7.89145 73.3472 6.74439C73.9435 5.43902 74.0518 4.24826 74.0125 4.23758C73.9732 4.22689 73.8323 5.22049 73.2197 6.48701C72.659 7.63212 71.988 8.37999 71.1924 9.25315C70.0977 10.4536 69.9587 10.3157 68.7117 11.657C67.8145 12.6215 67.2978 13.1858 66.8233 14.1201C66.448 14.8636 66.1717 15.6543 66.0018 16.4715C65.9731 16.6036 65.8791 17.2718 65.6903 18.6083C65.5705 19.4543 65.5082 19.9176 65.3069 20.5508C65.1948 20.9065 65.0613 21.2549 64.9072 21.5939C64.7442 21.9611 64.4681 22.5302 64.4173 22.5098" fill="white"/>
</g>
<defs>
<clipPath id="clip0_2200_1213">
<rect width="76" height="47.7237" fill="white" transform="translate(0 0.146729)"/>
</clipPath>
</defs>
</svg>
