<svg width="12" height="17" viewBox="0 0 12 17" fill="none" xmlns="http://www.w3.org/2000/svg">
<path d="M6 0.759766C5.11595 0.759766 4.2681 1.10979 3.64298 1.73285C3.01786 2.3559 2.66667 3.20094 2.66667 4.08208V8.73331C2.66667 9.61444 3.01786 10.4595 3.64298 11.0825C4.2681 11.7056 5.11595 12.0556 6 12.0556C6.88406 12.0556 7.7319 11.7056 8.35702 11.0825C8.98214 10.4595 9.33333 9.61444 9.33333 8.73331V4.08208C9.33333 3.20094 8.98214 2.3559 8.35702 1.73285C7.7319 1.10979 6.88406 0.759766 6 0.759766ZM0.666667 8.06885C0.843478 8.06885 1.01305 8.13885 1.13807 8.26347C1.2631 8.38808 1.33333 8.55708 1.33333 8.73331C1.33333 9.9669 1.825 11.15 2.70017 12.0222C3.57534 12.8945 4.76232 13.3845 6 13.3845C7.23768 13.3845 8.42466 12.8945 9.29983 12.0222C10.175 11.15 10.6667 9.9669 10.6667 8.73331C10.6667 8.55708 10.7369 8.38808 10.8619 8.26347C10.987 8.13885 11.1565 8.06885 11.3333 8.06885C11.5101 8.06885 11.6797 8.13885 11.8047 8.26347C11.9298 8.38808 12 8.55708 12 8.73331C12.0003 10.2045 11.4565 11.6242 10.4725 12.7208C9.48858 13.8175 8.13359 14.5141 6.66667 14.6776V16.0424C6.66667 16.2186 6.59643 16.3876 6.47141 16.5122C6.34638 16.6369 6.17681 16.7069 6 16.7069C5.82319 16.7069 5.65362 16.6369 5.5286 16.5122C5.40357 16.3876 5.33333 16.2186 5.33333 16.0424V14.6776C3.86641 14.5141 2.51142 13.8175 1.52748 12.7208C0.543543 11.6242 -0.000283305 10.2045 1.10721e-07 8.73331C1.10721e-07 8.55708 0.0702381 8.38808 0.195262 8.26347C0.320287 8.13885 0.489856 8.06885 0.666667 8.06885Z" fill="black"/>
</svg>
