<svg width="12" height="16" viewBox="0 0 12 16" fill="none" xmlns="http://www.w3.org/2000/svg">
<path d="M6.04827 0.30957C5.20631 0.30957 4.39884 0.644036 3.80349 1.23939C3.20813 1.83474 2.87367 2.64222 2.87367 3.48417V7.92862C2.87367 8.77058 3.20813 9.57805 3.80349 10.1734C4.39884 10.7688 5.20631 11.1032 6.04827 11.1032C6.89023 11.1032 7.6977 10.7688 8.29305 10.1734C8.88841 9.57805 9.22287 8.77058 9.22287 7.92862V3.48417C9.22287 2.64222 8.88841 1.83474 8.29305 1.23939C7.6977 0.644036 6.89023 0.30957 6.04827 0.30957ZM0.968905 7.2937C1.1373 7.2937 1.29879 7.36059 1.41786 7.47966C1.53693 7.59873 1.60383 7.76023 1.60383 7.92862C1.60383 9.10736 2.07208 10.2378 2.90557 11.0713C3.73907 11.9048 4.86953 12.3731 6.04827 12.3731C7.22701 12.3731 8.35747 11.9048 9.19097 11.0713C10.0245 10.2378 10.4927 9.10736 10.4927 7.92862C10.4927 7.76023 10.5596 7.59873 10.6787 7.47966C10.7977 7.36059 10.9592 7.2937 11.1276 7.2937C11.296 7.2937 11.4575 7.36059 11.5766 7.47966C11.6957 7.59873 11.7626 7.76023 11.7626 7.92862C11.7628 9.33439 11.2449 10.6909 10.3078 11.7388C9.37073 12.7867 8.08026 13.4524 6.68319 13.6086V14.9127C6.68319 15.0811 6.6163 15.2426 6.49723 15.3617C6.37816 15.4808 6.21666 15.5477 6.04827 15.5477C5.87988 15.5477 5.71838 15.4808 5.59931 15.3617C5.48024 15.2426 5.41335 15.0811 5.41335 14.9127V13.6086C4.01628 13.4524 2.72581 12.7867 1.78873 11.7388C0.851645 10.6909 0.333715 9.33439 0.333984 7.92862C0.333984 7.76023 0.400878 7.59873 0.519949 7.47966C0.639019 7.36059 0.800514 7.2937 0.968905 7.2937Z" fill="white"/>
</svg>
