<svg width="13" height="13" viewBox="0 0 13 13" fill="none" xmlns="http://www.w3.org/2000/svg">
<path d="M6.49545 6.43691C6.87956 6.43691 7.2599 6.3664 7.61477 6.2294C7.96964 6.0924 8.29208 5.89159 8.56368 5.63845C8.83529 5.38531 9.05074 5.08478 9.19773 4.75403C9.34472 4.42329 9.42037 4.06879 9.42037 3.71079C9.42037 3.35279 9.34472 2.9983 9.19773 2.66755C9.05074 2.3368 8.83529 2.03628 8.56368 1.78313C8.29208 1.52999 7.96964 1.32918 7.61477 1.19218C7.2599 1.05518 6.87956 0.98467 6.49545 0.98467C5.71971 0.98467 4.97575 1.27189 4.42722 1.78313C3.87869 2.29438 3.57053 2.98778 3.57053 3.71079C3.57053 4.4338 3.87869 5.1272 4.42722 5.63845C4.97575 6.1497 5.71971 6.43691 6.49545 6.43691ZM6.5 0.0317385C7.35616 0.0314785 8.18862 0.293815 8.86894 0.77827C9.54926 1.26273 10.0396 1.94238 10.2644 2.71236C10.4891 3.48234 10.4358 4.29986 10.1126 5.03878C9.78937 5.7777 9.21424 6.39696 8.47595 6.801C10.8731 7.47345 12.6735 9.35629 12.9966 11.6947C13.0271 11.917 12.8497 12.1188 12.6001 12.146C12.3511 12.1733 12.1237 12.0158 12.0931 11.7934C11.7421 9.25512 9.38332 7.3438 6.52275 7.3438C3.64657 7.3438 1.25724 9.25875 0.906897 11.7934C0.876348 12.0158 0.648854 12.1733 0.399911 12.146C0.150317 12.1188 -0.0271282 11.917 0.00342102 11.6947C0.325813 9.36598 2.13601 7.48556 4.53705 6.80706C3.79652 6.40485 3.21877 5.78646 2.89314 5.04752C2.56751 4.30857 2.51213 3.49022 2.73557 2.719C2.95901 1.94778 3.44882 1.26664 4.12927 0.780895C4.80971 0.295153 5.6429 0.0318651 6.5 0.0317385Z" fill="white"/>
</svg>
