<svg width="114" height="63" viewBox="0 0 114 63" fill="none" xmlns="http://www.w3.org/2000/svg">
<path d="M48.9 35.44C46.31 35.3 43.44 35.16 40.92 35.09C41.55 33.06 42.95 28.23 42.95 28.23C42.95 28.23 45.96 17.31 46.8 11.71C47.29 8.84 47.5 3.73 46.73 2.96C46.03 2.12 44.42 0.789999 39.17 6.18C31.68 14.72 25.38 24.1 19.08 33.48C18.59 34.11 17.89 35.44 17.4 36.14C13.55 36.56 9.91 37.05 6.13 37.96H6.06C5.78 38.03 6.13 38.59 6.41 38.59C9.63 38.24 12.78 38.1 15.93 38.24C10.82 46.08 5.71 53.99 0.739999 61.9V61.97C0.6 62.11 1.58 62.53 1.72 62.32C6.69 54.2 11.87 46.15 17.19 38.17C17.33 38.17 17.33 38.24 17.47 38.24C21.11 38.52 24.82 39.08 28.04 40.76C31.19 42.44 33.29 45.73 33.08 49.3C33.08 50.7 32.87 52.1 32.52 53.5C31.75 55.6 31.05 57.63 30.28 59.66V59.8C30.07 60.29 32.03 60.99 32.24 60.5C32.24 60.43 32.24 60.43 32.24 60.43C35.39 52.31 38.19 44.33 40.71 35.93C43.58 35.86 45.89 35.86 48.69 35.79C48.97 35.79 49.18 35.44 48.9 35.44ZM34.41 48.25C34.27 47.62 34.13 46.99 34.06 46.36C33.71 45.45 33.43 44.47 32.8 43.7C31.82 41.95 30.14 40.83 28.53 39.85C25.17 38.1 22.23 37.61 18.59 37.33C19.01 36.42 35.88 35.93 38.68 35.93C37.28 40.13 35.88 44.05 34.41 48.25ZM38.89 35.02C34.97 35.02 22.3 35.44 18.8 35.93C19.15 35.44 19.71 34.32 20.06 33.83C26.43 24.59 32.73 15.14 40.29 6.81C41.27 5.83 42.25 4.85 43.3 4.01C44.35 3.17 45.12 2.75 45.61 3.45C46.1 4.08 45.89 6.67 45.89 7.37C45.89 8.7 45.54 10.1 45.4 11.5C44.49 16.96 42.88 22.42 41.27 27.74C40.64 29.98 39.66 32.85 38.89 35.02ZM66.0052 35.86C64.5352 36.14 62.1552 36.84 60.5452 37.47C60.5452 37.33 60.6152 37.26 60.6852 37.19C60.8252 36.63 60.9652 36 60.8952 35.37C60.8252 34.67 60.4052 34.04 59.8452 33.69C58.8652 32.85 57.3952 32.99 56.4152 33.48C55.4352 33.97 54.5952 34.74 53.8252 35.44C51.5852 37.82 49.9752 40.13 48.2952 42.93C48.9952 39.71 49.4152 37.75 50.1852 35.23C53.3352 30.61 56.2752 26.41 59.2852 21.72C60.7552 19.34 63.4852 13.88 63.5552 11.99C63.6252 10.52 61.9452 10.52 61.1752 10.8C60.4052 11.08 58.7952 12.83 57.8852 13.95C54.5252 18.71 52.2852 24.03 50.5352 29.42C48.8552 34.88 47.2452 40.34 46.6152 46.01C46.5452 46.29 46.6852 46.5 46.8952 46.64C47.1752 46.78 47.5252 46.64 47.6652 46.36C49.4852 42.65 51.5852 39.01 54.3852 36C55.0852 35.23 55.8552 34.6 56.7652 34.18C57.6052 33.76 58.5852 33.83 59.2152 34.46C59.8452 35.02 59.7052 35.86 59.2852 36.63C58.9352 37.33 58.5152 38.03 58.0252 38.66C56.5552 39.36 55.0852 40.13 53.6852 41.04C52.7752 41.67 51.8652 42.23 51.1652 43.21C51.0252 43.49 50.6752 43.91 51.0952 44.61C51.5852 45.03 52.0052 45.03 52.3552 44.96C53.0552 44.82 53.5452 44.54 54.0352 44.33C55.9252 43.21 57.5352 41.74 59.0052 40.13C59.4252 39.5 59.8452 38.8 60.2652 38.1C61.8752 37.4 64.4652 36.63 66.1452 36.14C66.2852 36.07 66.1452 35.86 66.0052 35.86ZM51.8652 29.91C54.0352 24.73 56.1352 19.48 59.1452 14.86C59.9152 13.81 60.8252 12.62 61.8052 12.06C62.0152 11.99 62.2252 11.92 62.3652 11.92C62.5752 11.99 62.4352 11.85 62.5752 12.06C62.6452 12.48 62.4352 13.18 62.2252 13.81C61.3152 16.33 59.9152 18.85 58.5152 21.23C56.2052 25.01 53.6852 28.65 51.0952 32.15C51.3752 31.45 51.5852 30.68 51.8652 29.91ZM53.3352 43.14C52.9152 43.42 52.4952 43.7 52.1452 43.77C52.1452 43.84 52.0752 43.77 52.0752 43.77C52.4952 43 53.3352 42.3 54.1052 41.67C55.0852 40.97 56.0652 40.34 57.0452 39.78C55.9252 41.04 54.7352 42.23 53.3352 43.14ZM76.9935 35.93C75.3135 37.19 73.7035 37.82 71.6735 37.47C71.6735 37.47 72.6535 35.86 71.6735 34.88C72.4435 32.01 66.7035 32.85 65.3735 36C63.5535 40.27 68.3835 41.39 71.3935 37.96C73.7735 38.31 75.1035 37.68 77.2735 36.14C77.3435 36.07 77.2035 35.79 76.9935 35.93ZM66.4935 37.47C66.7035 36 68.3135 34.46 69.5735 33.97C70.1335 33.76 71.6035 33.62 71.1835 34.88C69.8535 35.09 69.5035 36.7 70.6935 37.61C69.5735 39.29 66.2135 40.48 66.4935 37.47ZM70.9735 37.12C70.2035 36.7 70.5535 35.09 71.4635 35.37C71.7435 35.44 71.4635 36.49 70.9735 37.12ZM90.5194 35.79C84.4994 40.34 82.5394 39.92 83.3794 37.47C83.6594 36.42 84.3594 34.74 84.7094 33.62C84.7794 33.41 84.1494 32.71 83.6594 32.99C81.8394 36.21 80.2994 37.61 77.9194 38.94C76.2394 39.92 77.9194 36.14 79.2494 34.39C79.2494 34.39 78.4794 33.2 77.9894 33.55C77.2894 34.11 75.6794 37.47 75.6094 38.38C75.3294 41.74 79.8094 39.15 81.9794 36.84C80.2994 41.46 84.9194 41.04 90.7994 36.07C90.8694 36 90.6594 35.72 90.5194 35.79ZM113.581 18.5C109.451 18.85 105.391 19.41 101.331 20.18H101.261C102.101 18.99 102.871 17.66 103.781 16.47C104.411 15.56 105.041 14.58 105.531 13.53C105.811 13.04 106.021 12.55 106.231 11.99C106.301 11.64 106.441 11.36 106.441 11.01C106.441 10.87 106.441 10.66 106.371 10.38C106.301 10.03 105.671 9.82 105.461 9.96C104.621 10.31 104.341 10.73 103.921 11.15C103.571 11.64 103.221 12.06 102.871 12.55C102.241 13.46 101.611 14.44 101.051 15.35C100.001 17.17 99.0211 19.06 98.0411 20.88C97.1311 21.02 96.2211 21.23 95.3111 21.44C93.2811 21.93 91.3211 22.28 89.2911 23.4C89.0811 23.47 89.5711 24.31 89.7811 24.17L89.8511 24.1C91.4611 23.26 93.5611 22.77 95.5211 22.21C96.1511 22.07 96.8511 21.93 97.5511 21.72C91.8111 31.73 84.6011 45.8 88.0311 50.63C88.5911 51.4 89.5011 51.19 90.1311 51.05C94.7511 50 105.671 39.78 108.331 36.21C108.401 36.07 108.051 35.86 107.981 35.93C99.5811 45.45 89.9211 51.89 88.8711 49.72C87.4711 46.36 91.3911 37.33 94.8211 30.47C96.5011 27.6 98.2511 24.8 100.071 22C100.211 21.65 100.491 21.37 100.701 21.02C100.911 20.95 101.191 20.88 101.471 20.88C105.461 20.11 109.521 19.48 113.581 19.13C113.791 19.06 113.931 18.92 113.931 18.78C113.861 18.64 113.721 18.5 113.581 18.5ZM99.3711 21.51C98.8811 22.21 98.4611 22.98 98.0411 23.68C98.3211 23.05 98.6011 22.42 98.8811 21.79C98.9511 21.65 99.0211 21.51 99.0911 21.37C99.2311 21.37 99.3711 21.3 99.5111 21.3C99.4411 21.37 99.3711 21.44 99.3711 21.51ZM100.071 20.46C99.9311 20.46 99.7211 20.53 99.5811 20.53C100.351 18.99 101.121 17.38 101.961 15.91C102.521 14.93 103.081 14.02 103.711 13.11C103.991 12.62 104.341 12.2 104.691 11.78C104.901 11.5 105.251 11.22 105.461 11.01C105.461 11.22 105.391 11.43 105.321 11.64C105.181 12.13 104.971 12.69 104.691 13.11C104.201 14.09 103.641 15.07 103.011 15.98C102.031 17.45 101.051 18.92 100.071 20.46Z" fill="white"/>
</svg>
