<svg width="43" height="45" viewBox="0 0 43 45" fill="none" xmlns="http://www.w3.org/2000/svg">
<path d="M21.6844 0C16.2352 0 10.9828 1.69102 7.0875 5.23125C3.19219 8.77148 0.703125 14.1398 0.703125 21.3188C0.703125 33.0328 9.77695 45 22.6687 45H22.8656C24.3 44.9754 25.6957 44.7012 26.9789 44.1844C26.4797 43.7555 26.0191 43.2809 25.6043 42.7676C24.7324 43.0348 23.8008 43.1824 22.8375 43.2H22.6687C10.8984 43.2 2.50312 32.1012 2.50312 21.3188C2.50312 14.5477 4.78828 9.7418 8.29688 6.55312C11.8055 3.36445 16.6043 1.8 21.6844 1.8C28.5223 1.8 32.9344 3.85664 35.6625 6.32812C38.3906 8.79961 39.4031 11.7844 39.4031 13.4156C39.4453 19.473 36.7383 21.7195 34.1156 23.625C33.2578 24.2473 32.4 24.8098 31.6582 25.4566C32.4141 25.2879 33.198 25.2 34.0031 25.2C34.3301 25.2 34.65 25.2141 34.9699 25.2422C35.0402 25.193 35.1141 25.1402 35.1844 25.0875C37.916 23.1012 41.2488 20.0461 41.2031 13.4156C41.2031 11.0883 39.9234 7.79766 36.8438 5.00625C33.7641 2.21484 28.8879 0 21.6844 0ZM21.8531 4.5C20.6719 4.5 19.6348 5.13984 18.9281 6.04688C18.2215 6.95391 17.8031 8.14219 17.8031 9.45C17.8031 10.7578 18.2215 11.9461 18.9281 12.8531C19.6348 13.7602 20.6719 14.4 21.8531 14.4C23.0344 14.4 24.0715 13.7602 24.7781 12.8531C25.4848 11.9461 25.9031 10.7578 25.9031 9.45C25.9031 8.14219 25.4848 6.95391 24.7781 6.04688C24.0715 5.13984 23.0344 4.5 21.8531 4.5ZM21.8531 6.3C22.4086 6.3 22.9359 6.58477 23.3719 7.14375C23.8078 7.70273 24.1031 8.52187 24.1031 9.45C24.1031 10.3781 23.8078 11.1973 23.3719 11.7562C22.9359 12.3152 22.4086 12.6 21.8531 12.6C21.2977 12.6 20.7668 12.3117 20.3344 11.7562C19.8984 11.1973 19.6031 10.3781 19.6031 9.45C19.6031 8.52187 19.8984 7.69922 20.3344 7.14375C20.7668 6.58477 21.2977 6.3 21.8531 6.3ZM11.9531 9C10.7719 9 9.73477 9.63984 9.02812 10.5469C8.32148 11.4539 7.90312 12.6422 7.90312 13.95C7.90312 15.2578 8.32148 16.4461 9.02812 17.3531C9.73477 18.2602 10.7719 18.9 11.9531 18.9C13.1344 18.9 14.1715 18.2602 14.8781 17.3531C15.5848 16.4461 16.0031 15.2578 16.0031 13.95C16.0031 12.6422 15.5848 11.4539 14.8781 10.5469C14.1715 9.63984 13.1344 9 11.9531 9ZM31.7531 9C30.5719 9 29.5348 9.63984 28.8281 10.5469C28.1215 11.4539 27.7031 12.6422 27.7031 13.95C27.7031 15.2578 28.1215 16.4461 28.8281 17.3531C29.5348 18.2602 30.5719 18.9 31.7531 18.9C32.9344 18.9 33.9715 18.2602 34.6781 17.3531C35.3848 16.4461 35.8031 15.2578 35.8031 13.95C35.8031 12.6422 35.3848 11.4539 34.6781 10.5469C33.9715 9.63984 32.9344 9 31.7531 9ZM11.9531 10.8C12.5086 10.8 13.0395 11.0883 13.4719 11.6437C13.9078 12.2027 14.2031 13.0219 14.2031 13.95C14.2031 14.8781 13.9078 15.6973 13.4719 16.2563C13.0359 16.8152 12.5086 17.1 11.9531 17.1C11.3977 17.1 10.8703 16.8152 10.4344 16.2563C9.99844 15.6973 9.70312 14.8781 9.70312 13.95C9.70312 13.0219 9.99844 12.1992 10.4344 11.6437C10.8668 11.0848 11.3977 10.8 11.9531 10.8ZM31.7531 10.8C32.3086 10.8 32.8395 11.0883 33.2719 11.6437C33.7078 12.2027 34.0031 13.0219 34.0031 13.95C34.0031 14.8781 33.7078 15.6973 33.2719 16.2563C32.8359 16.8152 32.3086 17.1 31.7531 17.1C31.1977 17.1 30.6703 16.8152 30.2344 16.2563C29.7984 15.6973 29.5031 14.8781 29.5031 13.95C29.5031 13.0219 29.7984 12.1992 30.2344 11.6437C30.6668 11.0848 31.1977 10.8 31.7531 10.8ZM11.0531 20.7C9.87187 20.7 8.83477 21.3398 8.12812 22.2469C7.42148 23.1539 7.00312 24.3422 7.00312 25.65C7.00312 26.9578 7.42148 28.1461 8.12812 29.0531C8.83477 29.9602 9.87187 30.6 11.0531 30.6C12.2344 30.6 13.2715 29.9602 13.9781 29.0531C14.6848 28.1461 15.1031 26.9578 15.1031 25.65C15.1031 24.3422 14.6848 23.1539 13.9781 22.2469C13.2715 21.3398 12.2344 20.7 11.0531 20.7ZM11.0531 22.5C11.6086 22.5 12.1359 22.7848 12.5719 23.3438C13.0078 23.9027 13.3031 24.7219 13.3031 25.65C13.3031 26.5781 13.0078 27.3973 12.5719 27.9562C12.1359 28.5152 11.6086 28.8 11.0531 28.8C10.4977 28.8 9.97031 28.5152 9.53438 27.9562C9.09844 27.3973 8.80312 26.5781 8.80312 25.65C8.80312 24.7219 9.09844 23.8992 9.53438 23.3438C9.9668 22.7848 10.4977 22.5 11.0531 22.5ZM34.0031 27C29.0531 27 25.0031 31.05 25.0031 36C25.0031 40.95 29.0531 45 34.0031 45C38.9531 45 43.0031 40.95 43.0031 36C43.0031 31.05 38.9531 27 34.0031 27ZM34.0031 28.8C37.9617 28.8 41.2031 32.0414 41.2031 36C41.2031 39.9586 37.9617 43.2 34.0031 43.2C30.0445 43.2 26.8031 39.9586 26.8031 36C26.8031 32.0414 30.0445 28.8 34.0031 28.8ZM22.3031 29.7C19.3113 29.7 16.9031 32.1082 16.9031 35.1C16.9031 38.0918 19.3113 40.5 22.3031 40.5C22.9184 40.5 23.5125 40.398 24.0609 40.2082C23.8289 39.6668 23.6391 39.0973 23.4984 38.5102C23.1293 38.6332 22.725 38.7 22.3031 38.7C20.2535 38.7 18.7031 37.1496 18.7031 35.1C18.7031 33.0504 20.2535 31.5 22.3031 31.5C22.9289 31.5 23.509 31.6441 24.0152 31.9078C24.2402 31.3523 24.5145 30.825 24.8273 30.3187C24.075 29.925 23.2172 29.7 22.3031 29.7ZM33.7324 30.0621V31.4121C32.9238 31.4121 31.2152 32.0379 31.2152 33.9293C31.2152 37.0793 35.2652 36.2707 35.2652 38.25C35.2652 38.4293 35.2617 39.3293 34.091 39.3293C32.741 39.3293 32.741 38.0707 32.741 37.8H30.941C30.941 40.5 33.2824 40.7707 33.641 40.7707V42.0293H34.6324V40.7707C34.991 40.7707 37.1531 40.5 37.1531 38.25C37.1531 35.1 33.1031 35.8207 33.1031 33.9293C33.1031 33.75 33.1031 32.85 34.091 32.7621C35.1738 32.7621 35.2652 33.75 35.2652 34.2879H37.0652C37.0652 31.95 35.3531 31.5 34.7238 31.4121V30.0621H33.7324Z" fill="black"/>
</svg>
