<svg width="1498" height="759" viewBox="0 0 1498 759" fill="none" xmlns="http://www.w3.org/2000/svg">
<path opacity="0.07" fill-rule="evenodd" clip-rule="evenodd" d="M-94.9661 1.50429C-93.0034 -2.72033 -52.3995 10.5149 23.4183 24.0224C55.7468 28.9606 85.8542 33.4991 115.894 36.6092C132.999 38.3301 150.269 39.7723 169.91 40.3147C172.008 40.2416 176.58 40.0826 182.765 40.4804C191.15 40.9045 199.42 41.9612 207.492 43.6394C216.956 45.5582 235.208 46.8301 273.19 44.4852C320.523 24.9165 370.697 13.3672 421.072 10.4454C514.183 5.431 589.352 32.8609 675.584 64.3342C703.134 74.3446 725.771 82.6178 755.563 96.5701C766.78 101.835 787.301 111.817 831.718 132.891C844.6 139.615 858.188 145.273 872.336 149.805C897.419 157.176 917.28 157.779 916.521 161.894C916.403 163.942 910.428 165.104 885.524 172.853C866.711 178.754 864.483 179.786 864.006 181.574C862.478 187.351 882.932 190.658 912.505 207.139C925.848 214.442 938.274 223.412 963.76 240.716L979.807 251.741C982.972 253.947 987.364 256.928 990.102 258.74C1007.87 271.018 1026.92 281.754 1047.05 290.825C1059.97 295.213 1081.34 303.258 1079.63 309.654C1077.92 316.05 1056.76 317.264 1040.99 318.358C1004.54 321.263 984.095 316.524 982.558 319.848C981.021 323.172 991.682 329.001 1040.75 348.619L1134 406.284L1283.29 541.989C1327.45 571.597 1378.67 592.032 1433.78 602.022C1454.64 605.835 1475.94 608.123 1497.49 608.865C1475.72 633.233 1450.5 654.945 1422.59 673.34C1393.51 693.094 1361.43 708.538 1327.67 719.027C1278.76 733.573 1227.71 736.991 1179.22 728.966C1179.05 732.039 1178.79 736.544 1179.22 741.98C1179.61 753.481 1180.69 755.556 1178.87 757.323C1174.85 760.87 1164.72 753.591 1146.49 749.321C1137.91 747.415 1129.04 746.376 1120.04 746.222C1096.57 744.586 1071.13 734.298 1037.53 720.342C1002.48 705.483 970.4 690.929 941.2 677.092L941.363 688.602L941.481 698.273C926.775 697.591 912.31 695.585 898.293 692.282C871.307 685.708 846.258 674.699 824.313 659.769C796.15 641.605 772.304 618.636 753.928 591.972C748.251 590.535 740.83 589.499 736.512 593.056C732.195 596.613 735.812 605.277 732.279 609.488C723.636 619.328 680.557 601.001 680.557 601.001C646.874 587.615 616.067 569.486 589.172 547.222C589.172 547.222 531.122 499.096 501.832 439.884C491.788 419.385 487.902 408.891 487.902 408.891C477.776 381.989 476.601 363.361 470.972 363.693C465.343 364.026 462.271 375.852 460.132 381.855C454.403 398.27 457.464 406.204 454.143 408.023C447.498 411.729 419.836 388.027 387.304 339.694C355.869 293.094 346.815 263.157 316.095 200.18C305.526 178.404 290.018 147.533 269.376 110.982C364.331 119.335 455.249 143.552 537.69 182.446C619.451 221.434 674.427 267.078 720.841 305.525C803.163 373.859 796.064 388.074 880.274 460.022C943.521 514.031 998.967 560.613 1085.33 594.943C1183.63 633.9 1275.07 638.415 1276.06 635.587C1277.04 632.759 1200.94 625.393 1105.72 585.171C1019.64 548.309 964.676 502.529 900.548 448.21C812.385 373.47 823.595 363.2 725.188 277.983C654.43 216.672 612.997 181.39 542.836 150.107C486.997 125.371 427.109 107.821 364.744 97.9171C354.669 96.224 303.489 91.3292 201.133 81.4713C136.344 75.2109 100.848 72.0183 52.8051 59.3831C25.8171 52.3594 -0.519351 43.7881 -26.0554 33.7172C-53.7197 23.0977 -96.5109 4.96508 -94.7295 1.29186" fill="white"/>
</svg>
