<svg width="482" height="188" viewBox="0 0 482 188" fill="none" xmlns="http://www.w3.org/2000/svg">
<rect x="5" y="11" width="477" height="177" rx="88.5" fill="white"/>
<mask id="mask0_933_7760" style="mask-type:alpha" maskUnits="userSpaceOnUse" x="5" y="11" width="477" height="177">
<rect x="5" y="11" width="477" height="177" rx="88.5" fill="white"/>
</mask>
<g mask="url(#mask0_933_7760)">
<g opacity="0.1">
<g clip-path="url(#clip0_933_7760)">
<path d="M36.3149 12.9192C35.9317 12.9859 35.5518 13.0726 35.1708 13.185C34.4039 13.4107 33.592 13.8022 33.0236 14.5945L11.9986 43.6793C10.9064 45.1903 11.2513 47.3347 12.7622 48.427L21.1977 54.5601C21.2672 54.6103 21.3458 54.6539 21.4228 54.6876C21.446 54.7043 21.4859 54.6979 21.509 54.7147C21.5264 54.7272 21.538 54.7356 21.5554 54.7481C21.5959 54.7774 21.6139 54.8257 21.6544 54.855L43.8848 70.9251C45.3958 72.0173 47.5402 71.6724 48.6325 70.1614L69.6575 41.0767C70.2224 40.2951 70.348 39.3899 70.3226 38.5958C70.2972 37.8018 70.1537 37.037 70.0366 36.3089L70.011 36.1493C69.9917 36.0297 69.9636 35.8551 69.9275 35.6307C69.9043 35.4861 69.861 35.2168 69.8313 35.0322C69.7703 34.6532 69.715 34.3091 69.6324 33.7955C69.3869 32.2694 69.0556 30.2098 68.7276 28.1701C68.0714 24.0907 67.4145 20.0063 67.3992 19.9115C67.0431 17.6973 64.9308 16.1748 62.7216 16.5301L59.091 17.1141L58.5071 13.4835C58.1509 11.2693 56.0437 9.74595 53.8294 10.1021L37.432 12.7395C37.078 12.7964 36.6981 12.8524 36.3149 12.9192ZM36.7655 15.4661C37.0897 15.414 37.4637 15.3538 37.8427 15.2928L54.2401 12.6555C55.073 12.5215 55.8198 13.0614 55.9537 13.8942L56.5377 17.5248L51.7501 18.2948C51.6914 18.248 51.6285 18.2069 51.5648 18.1609C50.7023 17.5373 49.6547 17.3221 48.6722 17.4801C47.6898 17.6382 46.7625 18.171 46.1389 19.0336C46.0929 19.0973 46.0461 19.156 46.005 19.2188C45.3808 19.3141 44.7176 19.4208 44.0629 19.6131C43.296 19.8387 42.4841 20.2302 41.9158 21.0226L20.8908 50.1073C20.7234 50.3389 20.5775 50.5772 20.4748 50.8291L14.2688 46.3429C13.8867 46.0667 13.8107 45.5622 14.0827 45.1859L35.1077 16.1011C35.2207 15.9448 35.4558 15.7842 35.9341 15.6408C36.1737 15.5715 36.4414 15.5182 36.7655 15.4661ZM45.6577 21.8941L63.1323 19.0835C63.9651 18.9495 64.7119 19.4894 64.8459 20.3222C64.8587 20.402 65.5181 24.5014 66.1742 28.5808C66.5023 30.6205 66.8335 32.6801 67.079 34.2061C67.2017 34.9692 67.3028 35.5975 67.3742 36.0414C67.4103 36.2658 67.4383 36.4403 67.4576 36.56C67.4672 36.6199 67.472 36.6498 67.4768 36.6797C67.4817 36.7096 67.4833 36.7196 67.4833 36.7196C67.6076 37.4926 67.7448 38.1868 67.7578 38.6809C67.7708 39.1751 67.6906 39.408 67.5734 39.5701L46.5484 68.6549C46.2722 69.037 45.7677 69.113 45.3914 68.841L23.161 52.7709C22.7789 52.4947 22.7029 51.9902 22.9749 51.6139L43.9999 22.5291C44.1129 22.3728 44.348 22.2122 44.8263 22.0688C45.0658 21.9996 45.3335 21.9463 45.6577 21.8941ZM57.5644 23.9082C56.5819 24.0662 55.6547 24.599 55.0311 25.4616C53.784 27.1868 54.1786 29.6404 55.9038 30.8875C57.629 32.1346 60.0826 31.74 61.3297 30.0148C62.5768 28.2896 62.1822 25.836 60.457 24.5889C59.5944 23.9654 58.5468 23.7502 57.5644 23.9082ZM57.9751 26.4615C58.2992 26.4094 58.6552 26.4596 58.9504 26.673C59.5409 27.0999 59.6725 27.9177 59.2456 28.5082C58.8188 29.0987 58.0009 29.2303 57.4104 28.8034C56.8199 28.3766 56.6883 27.5587 57.1152 26.9682C57.3286 26.6729 57.6509 26.5137 57.9751 26.4615Z" fill="black" stroke="white"/>
</g>
<g clip-path="url(#clip1_933_7760)">
<path d="M109.268 1.18576C108.885 1.25251 108.505 1.33921 108.124 1.45164C107.357 1.67732 106.545 2.06882 105.977 2.86113L84.9517 31.9459C83.8595 33.4569 84.2044 35.6013 85.7154 36.6936L94.1508 42.8267C94.2203 42.8769 94.2989 42.9205 94.376 42.9542C94.3991 42.9709 94.439 42.9645 94.4622 42.9813C94.4795 42.9938 94.4911 43.0022 94.5085 43.0147C94.549 43.044 94.567 43.0923 94.6075 43.1216L116.838 59.1917C118.349 60.2839 120.493 59.939 121.586 58.428L142.611 29.3433C143.176 28.5617 143.301 27.6565 143.276 26.8625C143.25 26.0684 143.107 25.3036 142.99 24.5755L142.964 24.4159C142.945 24.2963 142.917 24.1217 142.881 23.8973C142.857 23.7527 142.814 23.4834 142.784 23.2988C142.723 22.9198 142.668 22.5757 142.585 22.0621C142.34 20.536 142.009 18.4764 141.681 16.4367C141.025 12.3573 140.368 8.27289 140.352 8.17814C139.996 5.96389 137.884 4.44138 135.675 4.79672L132.044 5.38067L131.46 1.75011C131.104 -0.46414 128.997 -1.98745 126.783 -1.63131L110.385 1.00608C110.031 1.06303 109.651 1.11901 109.268 1.18576ZM109.719 3.7327C110.043 3.68057 110.417 3.62041 110.796 3.55945L127.193 0.922059C128.026 0.788104 128.773 1.32796 128.907 2.16079L129.491 5.79136L124.703 6.5614C124.645 6.51456 124.582 6.47352 124.518 6.42748C123.655 5.80393 122.608 5.58872 121.625 5.74674C120.643 5.90476 119.716 6.43761 119.092 7.30019C119.046 7.36388 118.999 7.42257 118.958 7.48545C118.334 7.58073 117.671 7.68741 117.016 7.87967C116.249 8.10535 115.437 8.49685 114.869 9.28916L93.8439 38.3739C93.6765 38.6055 93.5307 38.8438 93.4279 39.0957L87.2219 34.6095C86.8399 34.3333 86.7638 33.8288 87.0358 33.4525L108.061 4.3677C108.174 4.21139 108.409 4.0508 108.887 3.90736C109.127 3.83813 109.394 3.78484 109.719 3.7327ZM118.611 10.1607L136.085 7.35009C136.918 7.21613 137.665 7.75599 137.799 8.58882C137.812 8.66862 138.471 12.768 139.127 16.8474C139.455 18.8871 139.787 20.9467 140.032 22.4727C140.155 23.2358 140.256 23.8641 140.327 24.308C140.363 24.5324 140.391 24.7069 140.411 24.8266C140.42 24.8865 140.425 24.9164 140.43 24.9463C140.435 24.9762 140.436 24.9862 140.436 24.9862C140.561 25.7592 140.698 26.4534 140.711 26.9476C140.724 27.4417 140.644 27.6746 140.527 27.8367L119.501 56.9215C119.225 57.3036 118.721 57.3796 118.344 57.1076L96.1141 41.0375C95.732 40.7613 95.656 40.2568 95.928 39.8805L116.953 10.7957C117.066 10.6394 117.301 10.4788 117.779 10.3354C118.019 10.2662 118.287 10.2129 118.611 10.1607ZM130.518 12.1748C129.535 12.3328 128.608 12.8656 127.984 13.7282C126.737 15.4534 127.132 17.907 128.857 19.1541C130.582 20.4012 133.036 20.0066 134.283 18.2814C135.53 16.5562 135.135 14.1026 133.41 12.8555C132.548 12.232 131.5 12.0168 130.518 12.1748ZM130.928 14.7281C131.252 14.676 131.608 14.7262 131.904 14.9396C132.494 15.3665 132.626 16.1843 132.199 16.7748C131.772 17.3653 130.954 17.4969 130.364 17.07C129.773 16.6432 129.641 15.8253 130.068 15.2348C130.282 14.9395 130.604 14.7803 130.928 14.7281Z" fill="black" stroke="white"/>
</g>
<g clip-path="url(#clip2_933_7760)">
<path d="M182.221 -10.5486C181.838 -10.4819 181.458 -10.3952 181.077 -10.2827C180.31 -10.0571 179.498 -9.66556 178.93 -8.87324L157.905 20.2115C156.813 21.7225 157.158 23.8669 158.668 24.9592L167.104 31.0923C167.173 31.1425 167.252 31.1862 167.329 31.2198C167.352 31.2366 167.392 31.2301 167.415 31.2469C167.433 31.2594 167.444 31.2678 167.462 31.2804C167.502 31.3097 167.52 31.3579 167.561 31.3872L189.791 47.4573C191.302 48.5496 193.446 48.2046 194.539 46.6937L215.564 17.6089C216.129 16.8274 216.254 15.9221 216.229 15.1281C216.203 14.3341 216.06 13.5693 215.943 12.8412L215.917 12.6816C215.898 12.5619 215.87 12.3873 215.834 12.1629C215.811 12.0183 215.767 11.749 215.738 11.5645C215.677 11.1855 215.621 10.8413 215.539 10.3277C215.293 8.80165 214.962 6.742 214.634 4.7023C213.978 0.622902 213.321 -3.46148 213.305 -3.55624C212.949 -5.77048 210.837 -7.29299 208.628 -6.93765L204.997 -6.3537L204.413 -9.98427C204.057 -12.1985 201.95 -13.7218 199.736 -13.3657L183.338 -10.7283C182.984 -10.6713 182.604 -10.6154 182.221 -10.5486ZM182.672 -8.00167C182.996 -8.05381 183.37 -8.11397 183.749 -8.17493L200.146 -10.8123C200.979 -10.9463 201.726 -10.4064 201.86 -9.57358L202.444 -5.94302L197.656 -5.17298C197.598 -5.21981 197.535 -5.26086 197.471 -5.30689C196.609 -5.93044 195.561 -6.14565 194.578 -5.98763C193.596 -5.82962 192.669 -5.29677 192.045 -4.43418C191.999 -4.3705 191.952 -4.31181 191.911 -4.24893C191.287 -4.15365 190.624 -4.04697 189.969 -3.8547C189.202 -3.62903 188.39 -3.23752 187.822 -2.44521L166.797 26.6396C166.63 26.8711 166.484 27.1095 166.381 27.3613L160.175 22.8751C159.793 22.5989 159.717 22.0944 159.989 21.7181L181.014 -7.36667C181.127 -7.52298 181.362 -7.68358 181.84 -7.82702C182.08 -7.89624 182.348 -7.94953 182.672 -8.00167ZM191.564 -1.57364L209.039 -4.38429C209.871 -4.51824 210.618 -3.97839 210.752 -3.14555C210.765 -3.06576 211.424 1.03359 212.08 5.11299C212.409 7.15269 212.74 9.21234 212.985 10.7384C213.108 11.5014 213.209 12.1298 213.28 12.5736C213.317 12.798 213.345 12.9726 213.364 13.0923C213.373 13.1521 213.378 13.182 213.383 13.2119C213.388 13.2419 213.39 13.2518 213.39 13.2518C213.514 14.0248 213.651 14.719 213.664 15.2132C213.677 15.7073 213.597 15.9402 213.48 16.1023L192.455 45.1871C192.178 45.5692 191.674 45.6452 191.298 45.3732L169.067 29.3031C168.685 29.0269 168.609 28.5224 168.881 28.1461L189.906 -0.938642C190.019 -1.09495 190.254 -1.25555 190.733 -1.39899C190.972 -1.46821 191.24 -1.5215 191.564 -1.57364ZM203.471 0.440396C202.488 0.598415 201.561 1.13126 200.937 1.99385C199.69 3.71902 200.085 6.17265 201.81 7.41975C203.535 8.66686 205.989 8.27221 207.236 6.54704C208.483 4.82187 208.088 2.36824 206.363 1.12114C205.501 0.497585 204.453 0.282378 203.471 0.440396ZM203.881 2.99376C204.205 2.94162 204.561 2.99181 204.857 3.20524C205.447 3.6321 205.579 4.44997 205.152 5.04047C204.725 5.63096 203.907 5.76251 203.317 5.33565C202.726 4.90879 202.595 4.09091 203.021 3.50042C203.235 3.20517 203.557 3.0459 203.881 2.99376Z" fill="black" stroke="white"/>
</g>
<g clip-path="url(#clip3_933_7760)">
<path d="M253.659 -22.0379C253.275 -21.9711 252.896 -21.8844 252.515 -21.772C251.748 -21.5463 250.936 -21.1548 250.367 -20.3625L229.342 8.72227C228.25 10.2332 228.595 12.3777 230.106 13.4699L238.541 19.6031C238.611 19.6533 238.69 19.6969 238.767 19.7306C238.79 19.7473 238.83 19.7409 238.853 19.7576C238.87 19.7702 238.882 19.7786 238.899 19.7911C238.94 19.8204 238.958 19.8687 238.998 19.898L261.229 35.968C262.74 37.0603 264.884 36.7154 265.976 35.2044L287.001 6.11965C287.566 5.33811 287.692 4.43284 287.666 3.63882C287.641 2.8448 287.497 2.08 287.38 1.35189L287.355 1.19231C287.335 1.07262 287.307 0.898073 287.271 0.673656C287.248 0.529032 287.205 0.259731 287.175 0.0752113C287.114 -0.303804 287.059 -0.647909 286.976 -1.16157C286.731 -2.68761 286.399 -4.74726 286.071 -6.78696C285.415 -10.8664 284.758 -14.9507 284.743 -15.0455C284.387 -17.2597 282.275 -18.7822 280.065 -18.4269L276.435 -17.843L275.851 -21.4735C275.495 -23.6878 273.387 -25.2111 271.173 -24.8549L254.776 -22.2176C254.422 -22.1606 254.042 -22.1046 253.659 -22.0379ZM254.109 -19.4909C254.433 -19.5431 254.807 -19.6032 255.186 -19.6642L271.584 -22.3016C272.417 -22.4355 273.164 -21.8957 273.297 -21.0628L273.881 -17.4323L269.094 -16.6622C269.035 -16.7091 268.972 -16.7501 268.909 -16.7962C268.046 -17.4197 266.998 -17.6349 266.016 -17.4769C265.034 -17.3189 264.106 -16.786 263.483 -15.9234C263.437 -15.8598 263.39 -15.8011 263.349 -15.7382C262.725 -15.6429 262.061 -15.5362 261.407 -15.344C260.64 -15.1183 259.828 -14.7268 259.26 -13.9345L238.235 15.1503C238.067 15.3819 237.921 15.6202 237.819 15.8721L231.613 11.3858C231.23 11.1096 231.154 10.6051 231.426 10.2288L252.451 -18.8559C252.564 -19.0122 252.8 -19.1728 253.278 -19.3163C253.517 -19.3855 253.785 -19.4388 254.109 -19.4909ZM263.001 -13.0629L280.476 -15.8735C281.309 -16.0075 282.056 -15.4676 282.19 -14.6348C282.202 -14.555 282.862 -10.4557 283.518 -6.37627C283.846 -4.33657 284.177 -2.27692 284.423 -0.750887C284.545 0.01213 284.647 0.640498 284.718 1.08434C284.754 1.30876 284.782 1.48331 284.801 1.603C284.811 1.66284 284.816 1.69276 284.821 1.72269C284.825 1.75261 284.827 1.76258 284.827 1.76258C284.951 2.53557 285.089 3.22975 285.102 3.72392C285.115 4.21809 285.034 4.45098 284.917 4.61308L263.892 33.6978C263.616 34.0799 263.111 34.156 262.735 33.8839L240.505 17.8139C240.123 17.5377 240.047 17.0332 240.319 16.6569L261.344 -12.4279C261.457 -12.5842 261.692 -12.7448 262.17 -12.8882C262.41 -12.9575 262.677 -13.0108 263.001 -13.0629ZM274.908 -11.0489C273.926 -10.8908 272.998 -10.358 272.375 -9.49541C271.128 -7.77024 271.522 -5.31661 273.248 -4.06951C274.973 -2.8224 277.426 -3.21705 278.673 -4.94222C279.921 -6.66739 279.526 -9.12101 277.801 -10.3681C276.938 -10.9917 275.891 -11.2069 274.908 -11.0489ZM275.319 -8.4955C275.643 -8.54763 275.999 -8.49745 276.294 -8.28402C276.885 -7.85716 277.016 -7.03928 276.589 -6.44879C276.163 -5.85829 275.345 -5.72675 274.754 -6.15361C274.164 -6.58047 274.032 -7.39834 274.459 -7.98884C274.672 -8.28409 274.995 -8.44336 275.319 -8.4955Z" fill="black" stroke="white"/>
</g>
<g clip-path="url(#clip4_933_7760)">
<path d="M326.612 -33.7723C326.229 -33.7055 325.849 -33.6188 325.468 -33.5064C324.701 -33.2807 323.889 -32.8892 323.321 -32.0969L302.295 -3.01211C301.203 -1.50113 301.548 0.643294 303.059 1.73556L311.495 7.86869C311.564 7.91891 311.643 7.96254 311.72 7.99619C311.743 8.01293 311.783 8.00651 311.806 8.02325C311.823 8.03581 311.835 8.04418 311.852 8.05673C311.893 8.08603 311.911 8.13429 311.951 8.16359L334.182 24.2337C335.693 25.3259 337.837 24.981 338.929 23.47L359.954 -5.61473C360.519 -6.39627 360.645 -7.30154 360.619 -8.09556C360.594 -8.88958 360.451 -9.65437 360.333 -10.3825L360.308 -10.5421C360.289 -10.6618 360.261 -10.8363 360.224 -11.0607C360.201 -11.2053 360.158 -11.4746 360.128 -11.6592C360.067 -12.0382 360.012 -12.3823 359.929 -12.8959C359.684 -14.422 359.352 -16.4816 359.024 -18.5213C358.368 -22.6007 357.711 -26.6851 357.696 -26.7799C357.34 -28.9941 355.228 -30.5166 353.018 -30.1613L349.388 -29.5773L348.804 -33.2079C348.448 -35.4221 346.341 -36.9455 344.126 -36.5893L327.729 -33.9519C327.375 -33.895 326.995 -33.839 326.612 -33.7723ZM327.062 -31.2253C327.387 -31.2774 327.761 -31.3376 328.14 -31.3986L344.537 -34.0359C345.37 -34.1699 346.117 -33.6301 346.251 -32.7972L346.835 -29.1666L342.047 -28.3966C341.988 -28.4434 341.925 -28.4845 341.862 -28.5305C340.999 -29.1541 339.952 -29.3693 338.969 -29.2113C337.987 -29.0532 337.059 -28.5204 336.436 -27.6578C336.39 -27.5941 336.343 -27.5354 336.302 -27.4726C335.678 -27.3773 335.014 -27.2706 334.36 -27.0783C333.593 -26.8527 332.781 -26.4612 332.213 -25.6688L311.188 3.41592C311.02 3.64749 310.874 3.88582 310.772 4.13769L304.566 -0.348543C304.184 -0.624747 304.108 -1.12924 304.38 -1.50554L325.405 -30.5903C325.518 -30.7466 325.753 -30.9072 326.231 -31.0507C326.471 -31.1199 326.738 -31.1732 327.062 -31.2253ZM335.955 -24.7973L353.429 -27.6079C354.262 -27.7419 355.009 -27.202 355.143 -26.3692C355.156 -26.2894 355.815 -22.19 356.471 -18.1106C356.799 -16.0709 357.13 -14.0113 357.376 -12.4853C357.499 -11.7222 357.6 -11.0939 357.671 -10.65C357.707 -10.4256 357.735 -10.2511 357.754 -10.1314C357.764 -10.0715 357.769 -10.0416 357.774 -10.0117C357.779 -9.98177 357.78 -9.97179 357.78 -9.97179C357.904 -9.1988 358.042 -8.50463 358.055 -8.01046C358.068 -7.51629 357.987 -7.28339 357.87 -7.1213L336.845 21.9635C336.569 22.3456 336.065 22.4216 335.688 22.1496L313.458 6.07949C313.076 5.80328 313 5.29879 313.272 4.92249L334.297 -24.1623C334.41 -24.3186 334.645 -24.4792 335.123 -24.6226C335.363 -24.6918 335.63 -24.7451 335.955 -24.7973ZM347.861 -22.7832C346.879 -22.6252 345.952 -22.0924 345.328 -21.2298C344.081 -19.5046 344.476 -17.051 346.201 -15.8039C347.926 -14.5568 350.379 -14.9514 351.627 -16.6766C352.874 -18.4018 352.479 -20.8554 350.754 -22.1025C349.891 -22.726 348.844 -22.9413 347.861 -22.7832ZM348.272 -20.2299C348.596 -20.282 348.952 -20.2318 349.247 -20.0184C349.838 -19.5915 349.969 -18.7737 349.542 -18.1832C349.116 -17.5927 348.298 -17.4611 347.707 -17.888C347.117 -18.3148 346.985 -19.1327 347.412 -19.7232C347.626 -20.0185 347.948 -20.1777 348.272 -20.2299Z" fill="black" stroke="white"/>
</g>
<g clip-path="url(#clip5_933_7760)">
<path d="M399.565 -45.5056C399.182 -45.4389 398.802 -45.3522 398.421 -45.2398C397.654 -45.0141 396.842 -44.6226 396.274 -43.8303L375.249 -14.7455C374.156 -13.2345 374.501 -11.0901 376.012 -9.99784L384.448 -3.86471C384.517 -3.81449 384.596 -3.77086 384.673 -3.73721C384.696 -3.72047 384.736 -3.72689 384.759 -3.71015C384.776 -3.69759 384.788 -3.68922 384.805 -3.67667C384.846 -3.64737 384.864 -3.59911 384.904 -3.56981L407.135 12.5003C408.646 13.5925 410.79 13.2476 411.882 11.7366L432.907 -17.3481C433.472 -18.1297 433.598 -19.0349 433.573 -19.829C433.547 -20.623 433.404 -21.3878 433.287 -22.1159L433.261 -22.2755C433.242 -22.3952 433.214 -22.5697 433.178 -22.7941C433.154 -22.9387 433.111 -23.208 433.081 -23.3926C433.02 -23.7716 432.965 -24.1157 432.882 -24.6293C432.637 -26.1554 432.306 -28.215 431.978 -30.2547C431.321 -34.3341 430.664 -38.4185 430.649 -38.5133C430.293 -40.7275 428.181 -42.25 425.972 -41.8947L422.341 -41.3107L421.757 -44.9413C421.401 -47.1555 419.294 -48.6789 417.079 -48.3227L400.682 -45.6853C400.328 -45.6284 399.948 -45.5724 399.565 -45.5056ZM400.016 -42.9587C400.34 -43.0108 400.714 -43.071 401.093 -43.132L417.49 -45.7693C418.323 -45.9033 419.07 -45.3634 419.204 -44.5306L419.788 -40.9L415 -40.13C414.941 -40.1768 414.879 -40.2179 414.815 -40.2639C413.952 -40.8875 412.905 -41.1027 411.922 -40.9447C410.94 -40.7866 410.012 -40.2538 409.389 -39.3912C409.343 -39.3275 409.296 -39.2688 409.255 -39.206C408.631 -39.1107 407.968 -39.004 407.313 -38.8117C406.546 -38.5861 405.734 -38.1946 405.166 -37.4022L384.141 -8.31747C383.973 -8.08591 383.828 -7.84757 383.725 -7.59571L377.519 -12.0819C377.137 -12.3581 377.061 -12.8626 377.333 -13.2389L398.358 -42.3237C398.471 -42.48 398.706 -42.6406 399.184 -42.784C399.424 -42.8533 399.691 -42.9066 400.016 -42.9587ZM408.908 -36.5307L426.382 -39.3413C427.215 -39.4753 427.962 -38.9354 428.096 -38.1026C428.109 -38.0228 428.768 -33.9234 429.424 -29.844C429.752 -27.8043 430.084 -25.7447 430.329 -24.2187C430.452 -23.4556 430.553 -22.8273 430.624 -22.3834C430.66 -22.159 430.688 -21.9845 430.708 -21.8648C430.717 -21.8049 430.722 -21.775 430.727 -21.7451C430.732 -21.7152 430.733 -21.7052 430.733 -21.7052C430.858 -20.9322 430.995 -20.238 431.008 -19.7439C431.021 -19.2497 430.941 -19.0168 430.823 -18.8547L409.798 10.2301C409.522 10.6122 409.018 10.6882 408.641 10.4162L386.411 -5.65391C386.029 -5.93011 385.953 -6.43461 386.225 -6.8109L407.25 -35.8957C407.363 -36.052 407.598 -36.2126 408.076 -36.356C408.316 -36.4252 408.584 -36.4785 408.908 -36.5307ZM420.814 -34.5166C419.832 -34.3586 418.905 -33.8258 418.281 -32.9632C417.034 -31.238 417.429 -28.7844 419.154 -27.5373C420.879 -26.2902 423.333 -26.6848 424.58 -28.41C425.827 -30.1352 425.432 -32.5888 423.707 -33.8359C422.844 -34.4594 421.797 -34.6747 420.814 -34.5166ZM421.225 -31.9633C421.549 -32.0154 421.905 -31.9652 422.2 -31.7518C422.791 -31.3249 422.922 -30.5071 422.496 -29.9166C422.069 -29.3261 421.251 -29.1945 420.66 -29.6214C420.07 -30.0482 419.938 -30.8661 420.365 -31.4566C420.579 -31.7519 420.901 -31.9111 421.225 -31.9633Z" fill="black" stroke="white"/>
</g>
<g clip-path="url(#clip6_933_7760)">
<path d="M-1.66162 82.1731C-2.04482 82.2398 -2.42481 82.3265 -2.80578 82.4389C-3.5727 82.6646 -4.38458 83.0561 -4.95292 83.8484L-25.9779 112.933C-27.0702 114.444 -26.7253 116.589 -25.2143 117.681L-16.7789 123.814C-16.7094 123.864 -16.6308 123.908 -16.5537 123.942C-16.5306 123.958 -16.4907 123.952 -16.4675 123.969C-16.4501 123.981 -16.4386 123.989 -16.4212 124.002C-16.3807 124.031 -16.3627 124.08 -16.3222 124.109L5.90824 140.179C7.41921 141.271 9.56364 140.926 10.6559 139.415L31.6809 110.331C32.2459 109.549 32.3714 108.644 32.346 107.85C32.3206 107.056 32.1772 106.291 32.0601 105.563L32.0344 105.403C32.0151 105.284 31.9871 105.109 31.951 104.885C31.9277 104.74 31.8844 104.471 31.8547 104.286C31.7938 103.907 31.7384 103.563 31.6558 103.049C31.4103 101.523 31.0791 99.4637 30.751 97.424C30.0949 93.3446 29.4379 89.2602 29.4227 89.1654C29.0665 86.9512 26.9543 85.4287 24.745 85.784L21.1145 86.368L20.5305 82.7374C20.1744 80.5232 18.0671 78.9999 15.8529 79.356L-0.544522 81.9934C-0.898602 82.0503 -1.27842 82.1063 -1.66162 82.1731ZM-1.21103 84.72C-0.886878 84.6679 -0.512849 84.6077 -0.133834 84.5468L16.2636 81.9094C17.0964 81.7754 17.8432 82.3153 17.9771 83.1481L18.5611 86.7787L13.7735 87.5487C13.7148 87.5019 13.652 87.4608 13.5883 87.4148C12.7257 86.7912 11.6781 86.576 10.6957 86.734C9.71321 86.8921 8.78594 87.4249 8.16238 88.2875C8.11635 88.3512 8.06951 88.4099 8.02847 88.4728C7.40428 88.568 6.74101 88.6747 6.08638 88.867C5.31946 89.0927 4.50758 89.4842 3.93924 90.2765L-17.0858 119.361C-17.2532 119.593 -17.399 119.831 -17.5018 120.083L-23.7077 115.597C-24.0898 115.321 -24.1659 114.816 -23.8938 114.44L-2.86882 85.355C-2.75583 85.1987 -2.52074 85.0381 -2.04244 84.8947C-1.80289 84.8254 -1.53519 84.7721 -1.21103 84.72ZM7.68112 91.148L25.1557 88.3374C25.9886 88.2034 26.7354 88.7433 26.8693 89.5761C26.8821 89.6559 27.5415 93.7553 28.1976 97.8347C28.5257 99.8744 28.857 101.934 29.1024 103.46C29.2251 104.223 29.3262 104.851 29.3976 105.295C29.4337 105.52 29.4618 105.694 29.481 105.814C29.4907 105.874 29.4955 105.904 29.5003 105.934C29.5051 105.964 29.5067 105.974 29.5067 105.974C29.631 106.747 29.7683 107.441 29.7812 107.935C29.7942 108.429 29.714 108.662 29.5968 108.824L8.5718 137.909C8.2956 138.291 7.7911 138.367 7.41481 138.095L-14.8156 122.025C-15.1977 121.749 -15.2737 121.244 -15.0017 120.868L6.02333 91.783C6.13633 91.6267 6.37142 91.4661 6.84972 91.3227C7.08927 91.2535 7.35697 91.2002 7.68112 91.148ZM19.5878 93.1621C18.6054 93.3201 17.6781 93.8529 17.0545 94.7155C15.8074 96.4407 16.2021 98.8943 17.9273 100.141C19.6524 101.389 22.106 100.994 23.3532 99.2687C24.6003 97.5435 24.2056 95.0899 22.4804 93.8428C21.6179 93.2193 20.5703 93.0041 19.5878 93.1621ZM19.9985 95.7154C20.3227 95.6633 20.6786 95.7135 20.9739 95.9269C21.5644 96.3538 21.6959 97.1717 21.2691 97.7621C20.8422 98.3526 20.0243 98.4842 19.4338 98.0573C18.8433 97.6305 18.7118 96.8126 19.1386 96.2221C19.3521 95.9269 19.6743 95.7676 19.9985 95.7154Z" fill="black" stroke="white"/>
</g>
<g clip-path="url(#clip7_933_7760)">
<path d="M71.2915 70.4397C70.9083 70.5064 70.5283 70.5931 70.1473 70.7055C69.3804 70.9312 68.5685 71.3227 68.0002 72.115L46.9752 101.2C45.8829 102.711 46.2278 104.855 47.7388 105.947L56.1742 112.081C56.2437 112.131 56.3224 112.174 56.3994 112.208C56.4226 112.225 56.4625 112.218 56.4856 112.235C56.503 112.248 56.5146 112.256 56.5319 112.269C56.5724 112.298 56.5904 112.346 56.631 112.376L78.8614 128.446C80.3723 129.538 82.5168 129.193 83.609 127.682L104.634 98.5972C105.199 97.8156 105.325 96.9104 105.299 96.1164C105.274 95.3223 105.13 94.5575 105.013 93.8294L104.988 93.6698C104.968 93.5502 104.94 93.3756 104.904 93.1512C104.881 93.0066 104.838 92.7373 104.808 92.5528C104.747 92.1737 104.692 91.8296 104.609 91.316C104.363 89.7899 104.032 87.7303 103.704 85.6906C103.048 81.6112 102.391 77.5268 102.376 77.432C102.02 75.2178 99.9074 73.6953 97.6982 74.0506L94.0676 74.6346L93.4836 71.004C93.1275 68.7898 91.0202 67.2665 88.806 67.6226L72.4086 70.26C72.0545 70.3169 71.6747 70.3729 71.2915 70.4397ZM71.7421 72.9866C72.0662 72.9345 72.4403 72.8743 72.8193 72.8134L89.2167 70.176C90.0495 70.042 90.7963 70.5819 90.9303 71.4147L91.5142 75.0453L86.7267 75.8153C86.668 75.7685 86.6051 75.7274 86.5414 75.6814C85.6788 75.0578 84.6312 74.8426 83.6488 75.0006C82.6663 75.1587 81.7391 75.6915 81.1155 76.5541C81.0695 76.6178 81.0226 76.6765 80.9816 76.7394C80.3574 76.8346 79.6941 76.9413 79.0395 77.1336C78.2726 77.3593 77.4607 77.7508 76.8924 78.5431L55.8673 107.628C55.6999 107.859 55.5541 108.098 55.4514 108.35L49.2454 103.863C48.8633 103.587 48.7873 103.083 49.0593 102.706L70.0843 73.6216C70.1973 73.4653 70.4324 73.3047 70.9107 73.1613C71.1502 73.092 71.4179 73.0387 71.7421 72.9866ZM80.6342 79.4146L98.1088 76.604C98.9417 76.47 99.6885 77.0099 99.8224 77.8427C99.8353 77.9225 100.495 82.0219 101.151 86.1013C101.479 88.141 101.81 90.2006 102.056 91.7267C102.178 92.4897 102.279 93.118 102.351 93.5619C102.387 93.7863 102.415 93.9608 102.434 94.0805C102.444 94.1404 102.449 94.1703 102.453 94.2002C102.458 94.2301 102.46 94.2401 102.46 94.2401C102.584 95.0131 102.721 95.7073 102.734 96.2015C102.747 96.6956 102.667 96.9285 102.55 97.0906L81.5249 126.175C81.2487 126.557 80.7442 126.633 80.3679 126.361L58.1375 110.291C57.7555 110.015 57.6794 109.511 57.9514 109.134L78.9765 80.0496C79.0895 79.8933 79.3245 79.7327 79.8028 79.5893C80.0424 79.5201 80.3101 79.4668 80.6342 79.4146ZM92.5409 81.4287C91.5585 81.5867 90.6312 82.1195 90.0077 82.9821C88.7606 84.7073 89.1552 87.1609 90.8804 88.408C92.6056 89.6551 95.0592 89.2605 96.3063 87.5353C97.5534 85.8101 97.1587 83.3565 95.4336 82.1094C94.571 81.4859 93.5234 81.2707 92.5409 81.4287ZM92.9516 83.982C93.2758 83.9299 93.6317 83.9801 93.927 84.1935C94.5175 84.6204 94.649 85.4383 94.2222 86.0287C93.7953 86.6192 92.9774 86.7508 92.3869 86.3239C91.7965 85.8971 91.6649 85.0792 92.0918 84.4887C92.3052 84.1935 92.6275 84.0342 92.9516 83.982Z" fill="black" stroke="white"/>
</g>
<g clip-path="url(#clip8_933_7760)">
<path d="M144.245 58.7053C143.861 58.772 143.481 58.8587 143.1 58.9712C142.334 59.1968 141.522 59.5884 140.953 60.3807L119.928 89.4654C118.836 90.9764 119.181 93.1208 120.692 94.2131L129.127 100.346C129.197 100.396 129.275 100.44 129.353 100.474C129.376 100.49 129.416 100.484 129.439 100.501C129.456 100.513 129.468 100.522 129.485 100.534C129.526 100.564 129.544 100.612 129.584 100.641L151.814 116.711C153.325 117.803 155.47 117.459 156.562 115.948L177.587 86.8628C178.152 86.0813 178.278 85.176 178.252 84.382C178.227 83.588 178.083 82.8232 177.966 82.0951L177.941 81.9355C177.921 81.8158 177.893 81.6412 177.857 81.4168C177.834 81.2722 177.791 81.0029 177.761 80.8184C177.7 80.4394 177.645 80.0953 177.562 79.5816C177.317 78.0556 176.985 75.9959 176.657 73.9562C176.001 69.8768 175.344 65.7924 175.329 65.6977C174.973 63.4834 172.861 61.9609 170.651 62.3163L167.021 62.9002L166.437 59.2696C166.081 57.0554 163.973 55.5321 161.759 55.8882L145.362 58.5256C145.008 58.5826 144.628 58.6385 144.245 58.7053ZM144.695 61.2522C145.019 61.2001 145.393 61.1399 145.772 61.079L162.17 58.4416C163.003 58.3076 163.749 58.8475 163.883 59.6803L164.467 63.3109L159.68 64.0809C159.621 64.0341 159.558 63.993 159.495 63.947C158.632 63.3235 157.584 63.1083 156.602 63.2663C155.619 63.4243 154.692 63.9571 154.069 64.8197C154.023 64.8834 153.976 64.9421 153.935 65.005C153.311 65.1003 152.647 65.2069 151.993 65.3992C151.226 65.6249 150.414 66.0164 149.845 66.8087L128.82 95.8935C128.653 96.125 128.507 96.3634 128.404 96.6152L122.199 92.129C121.816 91.8528 121.74 91.3483 122.012 90.972L143.037 61.8872C143.15 61.7309 143.386 61.5703 143.864 61.4269C144.103 61.3577 144.371 61.3044 144.695 61.2522ZM153.587 67.6803L171.062 64.8696C171.895 64.7357 172.642 65.2755 172.776 66.1084C172.788 66.1881 173.448 70.2875 174.104 74.3669C174.432 76.4066 174.763 78.4662 175.009 79.9923C175.131 80.7553 175.232 81.3837 175.304 81.8275C175.34 82.0519 175.368 82.2265 175.387 82.3462C175.397 82.406 175.402 82.4359 175.407 82.4658C175.411 82.4958 175.413 82.5057 175.413 82.5057C175.537 83.2787 175.675 83.9729 175.687 84.4671C175.7 84.9613 175.62 85.1941 175.503 85.3562L154.478 114.441C154.202 114.823 153.697 114.899 153.321 114.627L131.091 98.557C130.709 98.2808 130.633 97.7763 130.905 97.4L151.93 68.3153C152.043 68.159 152.278 67.9984 152.756 67.8549C152.996 67.7857 153.263 67.7324 153.587 67.6803ZM165.494 69.6943C164.512 69.8523 163.584 70.3852 162.961 71.2478C161.714 72.9729 162.108 75.4266 163.834 76.6737C165.559 77.9208 168.012 77.5261 169.259 75.8009C170.507 74.0758 170.112 71.6221 168.387 70.375C167.524 69.7515 166.477 69.5363 165.494 69.6943ZM165.905 72.2477C166.229 72.1955 166.585 72.2457 166.88 72.4591C167.471 72.886 167.602 73.7039 167.175 74.2944C166.748 74.8849 165.931 75.0164 165.34 74.5896C164.75 74.1627 164.618 73.3448 165.045 72.7543C165.258 72.4591 165.581 72.2998 165.905 72.2477Z" fill="black" stroke="white"/>
</g>
<g clip-path="url(#clip9_933_7760)">
<path d="M215.682 47.216C215.299 47.2828 214.919 47.3695 214.538 47.4819C213.771 47.7076 212.959 48.0991 212.391 48.8914L191.366 77.9762C190.274 79.4871 190.618 81.6316 192.129 82.7238L200.565 88.857C200.634 88.9072 200.713 88.9508 200.79 88.9845C200.813 89.0012 200.853 88.9948 200.876 89.0115C200.894 89.0241 200.905 89.0325 200.923 89.045C200.963 89.0743 200.981 89.1226 201.022 89.1519L223.252 105.222C224.763 106.314 226.907 105.969 228 104.458L249.025 75.3736C249.59 74.592 249.715 73.6867 249.69 72.8927C249.664 72.0987 249.521 71.3339 249.404 70.6058L249.378 70.4462C249.359 70.3265 249.331 70.152 249.295 69.9276C249.271 69.7829 249.228 69.5136 249.198 69.3291C249.138 68.9501 249.082 68.606 249 68.0923C248.754 66.5663 248.423 64.5066 248.095 62.4669C247.439 58.3876 246.782 54.3032 246.766 54.2084C246.41 51.9942 244.298 50.4717 242.089 50.827L238.458 51.4109L237.874 47.7804C237.518 45.5661 235.411 44.0428 233.197 44.399L216.799 47.0364C216.445 47.0933 216.065 47.1493 215.682 47.216ZM216.133 49.763C216.457 49.7108 216.831 49.6507 217.21 49.5897L233.607 46.9523C234.44 46.8184 235.187 47.3582 235.321 48.1911L235.905 51.8216L231.117 52.5917C231.059 52.5448 230.996 52.5038 230.932 52.4578C230.069 51.8342 229.022 51.619 228.039 51.777C227.057 51.935 226.13 52.4679 225.506 53.3305C225.46 53.3941 225.413 53.4528 225.372 53.5157C224.748 53.611 224.085 53.7177 223.43 53.9099C222.663 54.1356 221.851 54.5271 221.283 55.3194L200.258 84.4042C200.091 84.6358 199.945 84.8741 199.842 85.126L193.636 80.6397C193.254 80.3635 193.178 79.859 193.45 79.4827L214.475 50.398C214.588 50.2417 214.823 50.0811 215.301 49.9376C215.541 49.8684 215.809 49.8151 216.133 49.763ZM225.025 56.191L242.499 53.3804C243.332 53.2464 244.079 53.7863 244.213 54.6191C244.226 54.6989 244.885 58.7982 245.541 62.8776C245.869 64.9173 246.201 66.977 246.446 68.503C246.569 69.266 246.67 69.8944 246.741 70.3383C246.777 70.5627 246.806 70.7372 246.825 70.8569C246.834 70.9167 246.839 70.9467 246.844 70.9766C246.849 71.0065 246.85 71.0165 246.85 71.0165C246.975 71.7895 247.112 72.4837 247.125 72.9778C247.138 73.472 247.058 73.7049 246.941 73.867L225.916 102.952C225.639 103.334 225.135 103.41 224.759 103.138L202.528 87.0678C202.146 86.7916 202.07 86.2871 202.342 85.9108L223.367 56.826C223.48 56.6697 223.715 56.5091 224.193 56.3657C224.433 56.2964 224.701 56.2431 225.025 56.191ZM236.932 58.205C235.949 58.3631 235.022 58.8959 234.398 59.7585C233.151 61.4837 233.546 63.9373 235.271 65.1844C236.996 66.4315 239.45 66.0369 240.697 64.3117C241.944 62.5865 241.549 60.1329 239.824 58.8858C238.962 58.2622 237.914 58.047 236.932 58.205ZM237.342 60.7584C237.666 60.7063 238.022 60.7565 238.318 60.9699C238.908 61.3967 239.04 62.2146 238.613 62.8051C238.186 63.3956 237.368 63.5272 236.778 63.1003C236.187 62.6734 236.056 61.8556 236.482 61.2651C236.696 60.9698 237.018 60.8105 237.342 60.7584Z" fill="black" stroke="white"/>
</g>
<g clip-path="url(#clip10_933_7760)">
<path d="M288.635 35.4817C288.252 35.5484 287.872 35.6351 287.491 35.7475C286.724 35.9732 285.912 36.3647 285.344 37.157L264.319 66.2418C263.227 67.7528 263.572 69.8972 265.083 70.9895L273.518 77.1226C273.587 77.1728 273.666 77.2164 273.743 77.2501C273.766 77.2668 273.806 77.2604 273.829 77.2772C273.847 77.2897 273.858 77.2981 273.876 77.3106C273.916 77.3399 273.934 77.3882 273.975 77.4175L296.205 93.4876C297.716 94.5798 299.861 94.2349 300.953 92.7239L321.978 63.6392C322.543 62.8576 322.668 61.9524 322.643 61.1583C322.618 60.3643 322.474 59.5995 322.357 58.8714L322.331 58.7118C322.312 58.5922 322.284 58.4176 322.248 58.1932C322.225 58.0486 322.181 57.7793 322.152 57.5947C322.091 57.2157 322.035 56.8716 321.953 56.358C321.707 54.8319 321.376 52.7723 321.048 50.7326C320.392 46.6532 319.735 42.5688 319.72 42.474C319.363 40.2598 317.251 38.7373 315.042 39.0926L311.411 39.6766L310.827 36.046C310.471 33.8318 308.364 32.3084 306.15 32.6646L289.752 35.302C289.398 35.3589 289.018 35.4149 288.635 35.4817ZM289.086 38.0286C289.41 37.9765 289.784 37.9163 290.163 37.8553L306.56 35.218C307.393 35.084 308.14 35.6239 308.274 36.4567L308.858 40.0873L304.07 40.8573C304.012 40.8105 303.949 40.7694 303.885 40.7234C303.023 40.0998 301.975 39.8846 300.993 40.0426C300.01 40.2007 299.083 40.7335 298.459 41.5961C298.413 41.6598 298.366 41.7185 298.325 41.7813C297.701 41.8766 297.038 41.9833 296.383 42.1756C295.616 42.4012 294.804 42.7927 294.236 43.5851L273.211 72.6698C273.044 72.9014 272.898 73.1397 272.795 73.3916L266.589 68.9054C266.207 68.6292 266.131 68.1247 266.403 67.7484L287.428 38.6636C287.541 38.5073 287.776 38.3467 288.254 38.2033C288.494 38.134 288.762 38.0807 289.086 38.0286ZM297.978 44.4566L315.453 41.646C316.285 41.512 317.032 42.0519 317.166 42.8847C317.179 42.9645 317.838 47.0639 318.495 51.1433C318.823 53.183 319.154 55.2426 319.399 56.7686C319.522 57.5317 319.623 58.16 319.694 58.6039C319.731 58.8283 319.759 59.0028 319.778 59.1225C319.788 59.1824 319.792 59.2123 319.797 59.2422C319.802 59.2721 319.804 59.2821 319.804 59.2821C319.928 60.0551 320.065 60.7493 320.078 61.2434C320.091 61.7376 320.011 61.9705 319.894 62.1326L298.869 91.2174C298.592 91.5995 298.088 91.6755 297.712 91.4035L275.481 75.3334C275.099 75.0572 275.023 74.5527 275.295 74.1764L296.32 45.0916C296.433 44.9353 296.668 44.7747 297.147 44.6313C297.386 44.5621 297.654 44.5088 297.978 44.4566ZM309.885 46.4707C308.902 46.6287 307.975 47.1615 307.351 48.0241C306.104 49.7493 306.499 52.2029 308.224 53.45C309.949 54.6971 312.403 54.3025 313.65 52.5773C314.897 50.8521 314.502 48.3985 312.777 47.1514C311.915 46.5279 310.867 46.3127 309.885 46.4707ZM310.295 49.024C310.62 48.9719 310.975 49.0221 311.271 49.2355C311.861 49.6624 311.993 50.4802 311.566 51.0707C311.139 51.6612 310.321 51.7928 309.731 51.3659C309.14 50.9391 309.009 50.1212 309.436 49.5307C309.649 49.2354 309.971 49.0762 310.295 49.024Z" fill="black" stroke="white"/>
</g>
<g clip-path="url(#clip11_933_7760)">
<path d="M361.588 23.7483C361.205 23.815 360.825 23.9017 360.444 24.0141C359.677 24.2398 358.865 24.6313 358.297 25.4236L337.272 54.5084C336.18 56.0194 336.525 58.1638 338.036 59.2561L346.471 65.3892C346.541 65.4394 346.619 65.483 346.696 65.5167C346.719 65.5334 346.759 65.527 346.782 65.5438C346.8 65.5563 346.811 65.5647 346.829 65.5772C346.869 65.6065 346.887 65.6548 346.928 65.6841L369.158 81.7542C370.669 82.8464 372.814 82.5015 373.906 80.9905L394.931 51.9058C395.496 51.1242 395.621 50.219 395.596 49.425C395.571 48.6309 395.427 47.8661 395.31 47.138L395.284 46.9784C395.265 46.8588 395.237 46.6842 395.201 46.4598C395.178 46.3152 395.134 46.0459 395.105 45.8613C395.044 45.4823 394.988 45.1382 394.906 44.6246C394.66 43.0985 394.329 41.0389 394.001 38.9992C393.345 34.9198 392.688 30.8354 392.673 30.7406C392.317 28.5264 390.204 27.0039 387.995 27.3592L384.364 27.9432L383.781 24.3126C383.424 22.0984 381.317 20.5751 379.103 20.9312L362.705 23.5686C362.351 23.6255 361.972 23.6815 361.588 23.7483ZM362.039 26.2952C362.363 26.2431 362.737 26.1829 363.116 26.1219L379.514 23.4846C380.346 23.3506 381.093 23.8905 381.227 24.7233L381.811 28.3539L377.024 29.1239C376.965 29.0771 376.902 29.036 376.838 28.99C375.976 28.3664 374.928 28.1512 373.946 28.3092C372.963 28.4673 372.036 29.0001 371.412 29.8627C371.366 29.9264 371.32 29.9851 371.278 30.0479C370.654 30.1432 369.991 30.2499 369.336 30.4422C368.569 30.6678 367.758 31.0594 367.189 31.8517L346.164 60.9364C345.997 61.168 345.851 61.4063 345.748 61.6582L339.542 57.172C339.16 56.8958 339.084 56.3913 339.356 56.015L360.381 26.9302C360.494 26.7739 360.729 26.6133 361.208 26.4699C361.447 26.4006 361.715 26.3473 362.039 26.2952ZM370.931 32.7232L388.406 29.9126C389.239 29.7786 389.985 30.3185 390.119 31.1513C390.132 31.2311 390.791 35.3305 391.448 39.4099C391.776 41.4496 392.107 43.5092 392.352 45.0352C392.475 45.7983 392.576 46.4266 392.648 46.8705C392.684 47.0949 392.712 47.2694 392.731 47.3891C392.741 47.449 392.745 47.4789 392.75 47.5088C392.755 47.5387 392.757 47.5487 392.757 47.5487C392.881 48.3217 393.018 49.0159 393.031 49.5101C393.044 50.0042 392.964 50.2371 392.847 50.3992L371.822 79.484C371.546 79.8661 371.041 79.9421 370.665 79.6701L348.434 63.6C348.052 63.3238 347.976 62.8193 348.248 62.443L369.273 33.3582C369.386 33.2019 369.621 33.0413 370.1 32.8979C370.339 32.8287 370.607 32.7754 370.931 32.7232ZM382.838 34.7373C381.855 34.8953 380.928 35.4281 380.305 36.2907C379.057 38.0159 379.452 40.4695 381.177 41.7166C382.902 42.9637 385.356 42.5691 386.603 40.8439C387.85 39.1187 387.456 36.6651 385.73 35.418C384.868 34.7945 383.82 34.5793 382.838 34.7373ZM383.249 37.2906C383.573 37.2385 383.929 37.2887 384.224 37.5021C384.814 37.929 384.946 38.7468 384.519 39.3373C384.092 39.9278 383.274 40.0594 382.684 39.6325C382.093 39.2057 381.962 38.3878 382.389 37.7973C382.602 37.502 382.924 37.3428 383.249 37.2906Z" fill="black" stroke="white"/>
</g>
<g clip-path="url(#clip12_933_7760)">
<path d="M434.542 12.0139C434.158 12.0806 433.778 12.1673 433.397 12.2798C432.63 12.5054 431.819 12.8969 431.25 13.6893L410.225 42.774C409.133 44.285 409.478 46.4294 410.989 47.5217L419.424 53.6548C419.494 53.705 419.572 53.7487 419.649 53.7823C419.673 53.7991 419.712 53.7926 419.736 53.8094C419.753 53.8219 419.765 53.8303 419.782 53.8429C419.822 53.8722 419.84 53.9204 419.881 53.9497L442.111 70.0198C443.622 71.1121 445.767 70.7671 446.859 69.2562L467.884 40.1714C468.449 39.3899 468.575 38.4846 468.549 37.6906C468.524 36.8966 468.38 36.1318 468.263 35.4037L468.238 35.2441C468.218 35.1244 468.19 34.9498 468.154 34.7254C468.131 34.5808 468.088 34.3115 468.058 34.127C467.997 33.748 467.942 33.4038 467.859 32.8902C467.613 31.3641 467.282 29.3045 466.954 27.2648C466.298 23.1854 465.641 19.101 465.626 19.0063C465.27 16.792 463.157 15.2695 460.948 15.6248L457.318 16.2088L456.734 12.5782C456.377 10.364 454.27 8.84068 452.056 9.19682L435.659 11.8342C435.305 11.8912 434.925 11.9471 434.542 12.0139ZM434.992 14.5608C435.316 14.5087 435.69 14.4485 436.069 14.3876L452.467 11.7502C453.3 11.6162 454.046 12.1561 454.18 12.9889L454.764 16.6195L449.977 17.3895C449.918 17.3427 449.855 17.3016 449.791 17.2556C448.929 16.6321 447.881 16.4168 446.899 16.5749C445.916 16.7329 444.989 17.2657 444.366 18.1283C444.319 18.192 444.273 18.2507 444.232 18.3136C443.607 18.4089 442.944 18.5155 442.29 18.7078C441.523 18.9335 440.711 19.325 440.142 20.1173L419.117 49.2021C418.95 49.4336 418.804 49.672 418.701 49.9238L412.495 45.4376C412.113 45.1614 412.037 44.6569 412.309 44.2806L433.334 15.1958C433.447 15.0395 433.682 14.8789 434.161 14.7355C434.4 14.6663 434.668 14.613 434.992 14.5608ZM443.884 20.9889L461.359 18.1782C462.192 18.0443 462.938 18.5841 463.072 19.4169C463.085 19.4967 463.745 23.5961 464.401 27.6755C464.729 29.7152 465.06 31.7748 465.306 33.3009C465.428 34.0639 465.529 34.6923 465.601 35.1361C465.637 35.3605 465.665 35.5351 465.684 35.6548C465.694 35.7146 465.699 35.7445 465.703 35.7744C465.708 35.8044 465.71 35.8143 465.71 35.8143C465.834 36.5873 465.971 37.2815 465.984 37.7757C465.997 38.2698 465.917 38.5027 465.8 38.6648L444.775 67.7496C444.499 68.1317 443.994 68.2077 443.618 67.9357L421.388 51.8656C421.005 51.5894 420.929 51.0849 421.201 50.7086L442.226 21.6239C442.339 21.4676 442.575 21.307 443.053 21.1635C443.292 21.0943 443.56 21.041 443.884 20.9889ZM455.791 23.0029C454.808 23.1609 453.881 23.6938 453.258 24.5563C452.011 26.2815 452.405 28.7351 454.13 29.9822C455.856 31.2294 458.309 30.8347 459.556 29.1095C460.803 27.3844 460.409 24.9307 458.684 23.6836C457.821 23.0601 456.773 22.8449 455.791 23.0029ZM456.202 25.5563C456.526 25.5041 456.882 25.5543 457.177 25.7677C457.767 26.1946 457.899 27.0125 457.472 27.603C457.045 28.1935 456.227 28.325 455.637 27.8982C455.046 27.4713 454.915 26.6534 455.342 26.0629C455.555 25.7677 455.877 25.6084 456.202 25.5563Z" fill="black" stroke="white"/>
</g>
<g clip-path="url(#clip13_933_7760)">
<path d="M33.4087 138.982C33.0255 139.048 32.6455 139.135 32.2645 139.248C31.4976 139.473 30.6857 139.865 30.1174 140.657L9.09237 169.742C8.00011 171.253 8.34502 173.397 9.85599 174.489L18.2914 180.623C18.3609 180.673 18.4395 180.716 18.5166 180.75C18.5397 180.767 18.5796 180.76 18.6028 180.777C18.6202 180.79 18.6317 180.798 18.6491 180.811C18.6896 180.84 18.7076 180.888 18.7482 180.917L40.9785 196.988C42.4895 198.08 44.6339 197.735 45.7262 196.224L66.7512 167.139C67.3162 166.358 67.4417 165.452 67.4163 164.658C67.391 163.864 67.2475 163.1 67.1304 162.371L67.1047 162.212C67.0855 162.092 67.0574 161.918 67.0213 161.693C66.998 161.549 66.9547 161.279 66.925 161.095C66.8641 160.716 66.8087 160.372 66.7261 159.858C66.4807 158.332 66.1494 156.272 65.8213 154.233C65.1652 150.153 64.5082 146.069 64.493 145.974C64.1368 143.76 62.0246 142.237 59.8153 142.593L56.1848 143.177L55.6008 139.546C55.2447 137.332 53.1374 135.808 50.9232 136.165L34.5258 138.802C34.1717 138.859 33.7919 138.915 33.4087 138.982ZM33.8593 141.529C34.1834 141.476 34.5575 141.416 34.9365 141.355L51.3339 138.718C52.1667 138.584 52.9135 139.124 53.0475 139.957L53.6314 143.587L48.8438 144.357C48.7852 144.31 48.7223 144.269 48.6586 144.223C47.796 143.6 46.7484 143.385 45.766 143.543C44.7835 143.701 43.8562 144.234 43.2327 145.096C43.1867 145.16 43.1398 145.218 43.0988 145.281C42.4746 145.377 41.8113 145.483 41.1567 145.676C40.3898 145.901 39.5779 146.293 39.0095 147.085L17.9845 176.17C17.8171 176.401 17.6713 176.64 17.5685 176.892L11.3626 172.405C10.9805 172.129 10.9045 171.625 11.1765 171.248L32.2015 142.164C32.3145 142.007 32.5496 141.847 33.0279 141.703C33.2674 141.634 33.5351 141.581 33.8593 141.529ZM42.7514 147.957L60.226 145.146C61.0589 145.012 61.8057 145.552 61.9396 146.385C61.9525 146.465 62.6118 150.564 63.2679 154.643C63.596 156.683 63.9273 158.743 64.1727 160.269C64.2955 161.032 64.3965 161.66 64.4679 162.104C64.504 162.328 64.5321 162.503 64.5513 162.623C64.561 162.682 64.5658 162.712 64.5706 162.742C64.5754 162.772 64.577 162.782 64.577 162.782C64.7013 163.555 64.8386 164.249 64.8515 164.743C64.8645 165.238 64.7843 165.471 64.6671 165.633L43.6421 194.717C43.3659 195.099 42.8614 195.175 42.4851 194.903L20.2547 178.833C19.8726 178.557 19.7966 178.053 20.0686 177.676L41.0936 148.592C41.2066 148.435 41.4417 148.275 41.92 148.131C42.1596 148.062 42.4273 148.009 42.7514 147.957ZM54.6581 149.971C53.6757 150.129 52.7484 150.662 52.1249 151.524C50.8778 153.249 51.2724 155.703 52.9976 156.95C54.7227 158.197 57.1764 157.802 58.4235 156.077C59.6706 154.352 59.2759 151.899 57.5508 150.651C56.6882 150.028 55.6406 149.813 54.6581 149.971ZM55.0688 152.524C55.393 152.472 55.7489 152.522 56.0442 152.736C56.6347 153.162 56.7662 153.98 56.3394 154.571C55.9125 155.161 55.0946 155.293 54.5041 154.866C53.9136 154.439 53.7821 153.621 54.209 153.031C54.4224 152.735 54.7447 152.576 55.0688 152.524Z" fill="black" stroke="white"/>
</g>
<g clip-path="url(#clip14_933_7760)">
<path d="M106.362 127.247C105.979 127.314 105.599 127.401 105.218 127.513C104.451 127.739 103.639 128.13 103.071 128.923L82.0455 158.007C80.9532 159.518 81.2981 161.663 82.8091 162.755L91.2446 168.888C91.314 168.938 91.3927 168.982 91.4697 169.016C91.4929 169.032 91.5328 169.026 91.5559 169.043C91.5733 169.055 91.5849 169.064 91.6022 169.076C91.6428 169.106 91.6608 169.154 91.7013 169.183L113.932 185.253C115.443 186.345 117.587 186.001 118.679 184.49L139.704 155.405C140.269 154.623 140.395 153.718 140.369 152.924C140.344 152.13 140.201 151.365 140.083 150.637L140.058 150.477C140.039 150.358 140.011 150.183 139.974 149.959C139.951 149.814 139.908 149.545 139.878 149.36C139.817 148.981 139.762 148.637 139.679 148.124C139.434 146.598 139.102 144.538 138.774 142.498C138.118 138.419 137.461 134.334 137.446 134.24C137.09 132.025 134.978 130.503 132.768 130.858L129.138 131.442L128.554 127.812C128.198 125.597 126.091 124.074 123.876 124.43L107.479 127.068C107.125 127.125 106.745 127.181 106.362 127.247ZM106.812 129.794C107.137 129.742 107.511 129.682 107.89 129.621L124.287 126.984C125.12 126.85 125.867 127.389 126.001 128.222L126.585 131.853L121.797 132.623C121.738 132.576 121.675 132.535 121.612 132.489C120.749 131.865 119.702 131.65 118.719 131.808C117.737 131.966 116.809 132.499 116.186 133.362C116.14 133.425 116.093 133.484 116.052 133.547C115.428 133.642 114.764 133.749 114.11 133.941C113.343 134.167 112.531 134.558 111.963 135.351L90.9377 164.435C90.7703 164.667 90.6244 164.905 90.5217 165.157L84.3157 160.671C83.9336 160.395 83.8576 159.89 84.1296 159.514L105.155 130.429C105.268 130.273 105.503 130.112 105.981 129.969C106.221 129.9 106.488 129.846 106.812 129.794ZM115.705 136.222L133.179 133.412C134.012 133.278 134.759 133.818 134.893 134.65C134.906 134.73 135.565 138.829 136.221 142.909C136.549 144.949 136.88 147.008 137.126 148.534C137.249 149.297 137.35 149.926 137.421 150.37C137.457 150.594 137.485 150.768 137.504 150.888C137.514 150.948 137.519 150.978 137.524 151.008C137.529 151.038 137.53 151.048 137.53 151.048C137.654 151.821 137.792 152.515 137.805 153.009C137.818 153.503 137.737 153.736 137.62 153.898L116.595 182.983C116.319 183.365 115.815 183.441 115.438 183.169L93.2078 167.099C92.8258 166.823 92.7497 166.318 93.0218 165.942L114.047 136.857C114.16 136.701 114.395 136.54 114.873 136.397C115.113 136.328 115.38 136.274 115.705 136.222ZM127.611 138.236C126.629 138.394 125.702 138.927 125.078 139.79C123.831 141.515 124.226 143.969 125.951 145.216C127.676 146.463 130.129 146.068 131.377 144.343C132.624 142.618 132.229 140.164 130.504 138.917C129.641 138.293 128.594 138.078 127.611 138.236ZM128.022 140.79C128.346 140.738 128.702 140.788 128.997 141.001C129.588 141.428 129.719 142.246 129.292 142.836C128.866 143.427 128.048 143.558 127.457 143.132C126.867 142.705 126.735 141.887 127.162 141.296C127.376 141.001 127.698 140.842 128.022 140.79Z" fill="black" stroke="white"/>
</g>
<g clip-path="url(#clip15_933_7760)">
<path d="M179.315 115.514C178.932 115.581 178.552 115.667 178.171 115.78C177.404 116.005 176.592 116.397 176.024 117.189L154.999 146.274C153.906 147.785 154.251 149.929 155.762 151.022L164.198 157.155C164.267 157.205 164.346 157.249 164.423 157.282C164.446 157.299 164.486 157.293 164.509 157.309C164.526 157.322 164.538 157.33 164.555 157.343C164.596 157.372 164.614 157.42 164.654 157.45L186.885 173.52C188.396 174.612 190.54 174.267 191.632 172.756L212.657 143.671C213.222 142.89 213.348 141.985 213.323 141.191C213.297 140.397 213.154 139.632 213.037 138.904L213.011 138.744C212.992 138.624 212.964 138.45 212.928 138.225C212.904 138.081 212.861 137.811 212.831 137.627C212.77 137.248 212.715 136.904 212.632 136.39C212.387 134.864 212.056 132.805 211.728 130.765C211.071 126.685 210.414 122.601 210.399 122.506C210.043 120.292 207.931 118.77 205.722 119.125L202.091 119.709L201.507 116.078C201.151 113.864 199.044 112.341 196.829 112.697L180.432 115.334C180.078 115.391 179.698 115.447 179.315 115.514ZM179.766 118.061C180.09 118.009 180.464 117.949 180.843 117.888L197.24 115.25C198.073 115.116 198.82 115.656 198.954 116.489L199.538 120.119L194.75 120.89C194.691 120.843 194.629 120.802 194.565 120.756C193.702 120.132 192.655 119.917 191.672 120.075C190.69 120.233 189.762 120.766 189.139 121.628C189.093 121.692 189.046 121.751 189.005 121.814C188.381 121.909 187.718 122.016 187.063 122.208C186.296 122.433 185.484 122.825 184.916 123.617L163.891 152.702C163.723 152.934 163.578 153.172 163.475 153.424L157.269 148.938C156.887 148.661 156.811 148.157 157.083 147.781L178.108 118.696C178.221 118.54 178.456 118.379 178.934 118.235C179.174 118.166 179.441 118.113 179.766 118.061ZM188.658 124.489L206.132 121.678C206.965 121.544 207.712 122.084 207.846 122.917C207.859 122.997 208.518 127.096 209.174 131.175C209.502 133.215 209.834 135.275 210.079 136.801C210.202 137.564 210.303 138.192 210.374 138.636C210.41 138.861 210.438 139.035 210.458 139.155C210.467 139.215 210.472 139.245 210.477 139.274C210.482 139.304 210.483 139.314 210.483 139.314C210.608 140.087 210.745 140.782 210.758 141.276C210.771 141.77 210.691 142.003 210.573 142.165L189.548 171.25C189.272 171.632 188.768 171.708 188.391 171.436L166.161 155.366C165.779 155.089 165.703 154.585 165.975 154.209L187 125.124C187.113 124.968 187.348 124.807 187.826 124.664C188.066 124.594 188.334 124.541 188.658 124.489ZM200.564 126.503C199.582 126.661 198.655 127.194 198.031 128.056C196.784 129.782 197.179 132.235 198.904 133.482C200.629 134.729 203.083 134.335 204.33 132.61C205.577 130.884 205.182 128.431 203.457 127.184C202.594 126.56 201.547 126.345 200.564 126.503ZM200.975 129.056C201.299 129.004 201.655 129.054 201.95 129.268C202.541 129.695 202.672 130.512 202.246 131.103C201.819 131.693 201.001 131.825 200.41 131.398C199.82 130.971 199.688 130.153 200.115 129.563C200.329 129.268 200.651 129.108 200.975 129.056Z" fill="black" stroke="white"/>
</g>
<g clip-path="url(#clip16_933_7760)">
<path d="M252.268 103.78C251.885 103.846 251.505 103.933 251.124 104.045C250.357 104.271 249.545 104.663 248.977 105.455L227.952 134.54C226.859 136.051 227.204 138.195 228.715 139.287L237.151 145.42C237.22 145.471 237.299 145.514 237.376 145.548C237.399 145.565 237.439 145.558 237.462 145.575C237.48 145.588 237.491 145.596 237.508 145.608C237.549 145.638 237.567 145.686 237.608 145.715L259.838 161.785C261.349 162.878 263.493 162.533 264.586 161.022L285.611 131.937C286.176 131.155 286.301 130.25 286.276 129.456C286.25 128.662 286.107 127.897 285.99 127.169L285.964 127.01C285.945 126.89 285.917 126.715 285.881 126.491C285.857 126.346 285.814 126.077 285.784 125.893C285.723 125.514 285.668 125.169 285.585 124.656C285.34 123.13 285.009 121.07 284.681 119.03C284.025 114.951 283.368 110.867 283.352 110.772C282.996 108.558 280.884 107.035 278.675 107.39L275.044 107.974L274.46 104.344C274.104 102.13 271.997 100.606 269.783 100.962L253.385 103.6C253.031 103.657 252.651 103.713 252.268 103.78ZM252.719 106.326C253.043 106.274 253.417 106.214 253.796 106.153L270.193 103.516C271.026 103.382 271.773 103.922 271.907 104.755L272.491 108.385L267.703 109.155C267.645 109.108 267.582 109.067 267.518 109.021C266.655 108.398 265.608 108.182 264.625 108.34C263.643 108.499 262.716 109.031 262.092 109.894C262.046 109.958 261.999 110.016 261.958 110.079C261.334 110.174 260.671 110.281 260.016 110.473C259.249 110.699 258.437 111.091 257.869 111.883L236.844 140.968C236.677 141.199 236.531 141.438 236.428 141.689L230.222 137.203C229.84 136.927 229.764 136.423 230.036 136.046L251.061 106.961C251.174 106.805 251.409 106.645 251.887 106.501C252.127 106.432 252.394 106.379 252.719 106.326ZM261.611 112.754L279.085 109.944C279.918 109.81 280.665 110.35 280.799 111.183C280.812 111.262 281.471 115.362 282.127 119.441C282.455 121.481 282.787 123.54 283.032 125.066C283.155 125.83 283.256 126.458 283.327 126.902C283.363 127.126 283.391 127.301 283.411 127.42C283.42 127.48 283.425 127.51 283.43 127.54C283.435 127.57 283.436 127.58 283.436 127.58C283.561 128.353 283.698 129.047 283.711 129.541C283.724 130.035 283.644 130.268 283.527 130.43L262.501 159.515C262.225 159.897 261.721 159.973 261.344 159.701L239.114 143.631C238.732 143.355 238.656 142.851 238.928 142.474L259.953 113.389C260.066 113.233 260.301 113.073 260.779 112.929C261.019 112.86 261.287 112.807 261.611 112.754ZM273.518 114.769C272.535 114.927 271.608 115.459 270.984 116.322C269.737 118.047 270.132 120.501 271.857 121.748C273.582 122.995 276.036 122.6 277.283 120.875C278.53 119.15 278.135 116.696 276.41 115.449C275.548 114.826 274.5 114.611 273.518 114.769ZM273.928 117.322C274.252 117.27 274.608 117.32 274.904 117.533C275.494 117.96 275.626 118.778 275.199 119.369C274.772 119.959 273.954 120.091 273.364 119.664C272.773 119.237 272.641 118.419 273.068 117.829C273.282 117.533 273.604 117.374 273.928 117.322Z" fill="black" stroke="white"/>
</g>
<g clip-path="url(#clip17_933_7760)">
<path d="M323.706 92.2902C323.322 92.357 322.942 92.4437 322.561 92.5561C321.794 92.7818 320.983 93.1733 320.414 93.9656L299.389 123.05C298.297 124.561 298.642 126.706 300.153 127.798L308.588 133.931C308.658 133.981 308.736 134.025 308.813 134.059C308.837 134.075 308.877 134.069 308.9 134.086C308.917 134.098 308.929 134.107 308.946 134.119C308.987 134.149 309.005 134.197 309.045 134.226L331.275 150.296C332.786 151.388 334.931 151.044 336.023 149.533L357.048 120.448C357.613 119.666 357.739 118.761 357.713 117.967C357.688 117.173 357.544 116.408 357.427 115.68L357.402 115.52C357.382 115.401 357.354 115.226 357.318 115.002C357.295 114.857 357.252 114.588 357.222 114.403C357.161 114.024 357.106 113.68 357.023 113.167C356.778 111.641 356.446 109.581 356.118 107.541C355.462 103.462 354.805 99.3774 354.79 99.2826C354.434 97.0684 352.321 95.5459 350.112 95.9012L346.482 96.4852L345.898 92.8546C345.542 90.6404 343.434 89.117 341.22 89.4732L324.823 92.1106C324.469 92.1675 324.089 92.2235 323.706 92.2902ZM324.156 94.8372C324.48 94.7851 324.854 94.7249 325.233 94.6639L341.631 92.0266C342.464 91.8926 343.21 92.4324 343.344 93.2653L343.928 96.8959L339.141 97.6659C339.082 97.6191 339.019 97.578 338.955 97.532C338.093 96.9084 337.045 96.6932 336.063 96.8512C335.08 97.0093 334.153 97.5421 333.53 98.4047C333.484 98.4684 333.437 98.5271 333.396 98.5899C332.771 98.6852 332.108 98.7919 331.454 98.9842C330.687 99.2098 329.875 99.6013 329.306 100.394L308.281 129.478C308.114 129.71 307.968 129.948 307.865 130.2L301.659 125.714C301.277 125.438 301.201 124.933 301.473 124.557L322.498 95.4722C322.611 95.3159 322.846 95.1553 323.325 95.0118C323.564 94.9426 323.832 94.8893 324.156 94.8372ZM333.048 101.265L350.523 98.4546C351.356 98.3206 352.103 98.8605 352.236 99.6933C352.249 99.7731 352.909 103.872 353.565 107.952C353.893 109.992 354.224 112.051 354.47 113.577C354.592 114.34 354.693 114.969 354.765 115.412C354.801 115.637 354.829 115.811 354.848 115.931C354.858 115.991 354.863 116.021 354.867 116.051C354.872 116.081 354.874 116.091 354.874 116.091C354.998 116.864 355.135 117.558 355.148 118.052C355.161 118.546 355.081 118.779 354.964 118.941L333.939 148.026C333.663 148.408 333.158 148.484 332.782 148.212L310.552 132.142C310.17 131.866 310.093 131.361 310.366 130.985L331.391 101.9C331.504 101.744 331.739 101.583 332.217 101.44C332.456 101.371 332.724 101.317 333.048 101.265ZM344.955 103.279C343.973 103.437 343.045 103.97 342.422 104.833C341.175 106.558 341.569 109.012 343.294 110.259C345.02 111.506 347.473 111.111 348.72 109.386C349.967 107.661 349.573 105.207 347.848 103.96C346.985 103.336 345.937 103.121 344.955 103.279ZM345.366 105.833C345.69 105.78 346.046 105.831 346.341 106.044C346.932 106.471 347.063 107.289 346.636 107.879C346.209 108.47 345.392 108.601 344.801 108.175C344.211 107.748 344.079 106.93 344.506 106.339C344.719 106.044 345.042 105.885 345.366 105.833Z" fill="black" stroke="white"/>
</g>
<g clip-path="url(#clip18_933_7760)">
<path d="M396.659 80.5559C396.275 80.6226 395.896 80.7093 395.515 80.8218C394.748 81.0474 393.936 81.4389 393.367 82.2312L372.342 111.316C371.25 112.827 371.595 114.971 373.106 116.064L381.541 122.197C381.611 122.247 381.69 122.291 381.767 122.324C381.79 122.341 381.83 122.335 381.853 122.351C381.87 122.364 381.882 122.372 381.899 122.385C381.94 122.414 381.958 122.462 381.998 122.492L404.229 138.562C405.74 139.654 407.884 139.309 408.976 137.798L430.001 108.713C430.566 107.932 430.692 107.027 430.666 106.233C430.641 105.439 430.497 104.674 430.38 103.946L430.355 103.786C430.335 103.666 430.307 103.492 430.271 103.267C430.248 103.123 430.205 102.853 430.175 102.669C430.114 102.29 430.059 101.946 429.976 101.432C429.731 99.9061 429.399 97.8465 429.071 95.8068C428.415 91.7274 427.758 87.643 427.743 87.5483C427.387 85.334 425.275 83.8115 423.065 84.1668L419.435 84.7508L418.851 81.1202C418.495 78.906 416.387 77.3827 414.173 77.7388L397.776 80.3762C397.422 80.4331 397.042 80.4891 396.659 80.5559ZM397.109 83.1028C397.433 83.0507 397.807 82.9905 398.186 82.9296L414.584 80.2922C415.417 80.1582 416.164 80.6981 416.297 81.5309L416.881 85.1615L412.094 85.9315C412.035 85.8847 411.972 85.8436 411.909 85.7976C411.046 85.174 409.998 84.9588 409.016 85.1169C408.034 85.2749 407.106 85.8077 406.483 86.6703C406.437 86.734 406.39 86.7927 406.349 86.8556C405.725 86.9508 405.061 87.0575 404.407 87.2498C403.64 87.4755 402.828 87.867 402.26 88.6593L381.235 117.744C381.067 117.976 380.921 118.214 380.819 118.466L374.613 113.98C374.23 113.703 374.154 113.199 374.426 112.823L395.451 83.7378C395.564 83.5815 395.8 83.4209 396.278 83.2775C396.517 83.2082 396.785 83.155 397.109 83.1028ZM406.001 89.5309L423.476 86.7202C424.309 86.5863 425.056 87.1261 425.19 87.9589C425.202 88.0387 425.862 92.1381 426.518 96.2175C426.846 98.2572 427.177 100.317 427.423 101.843C427.545 102.606 427.647 103.234 427.718 103.678C427.754 103.903 427.782 104.077 427.801 104.197C427.811 104.257 427.816 104.287 427.821 104.316C427.825 104.346 427.827 104.356 427.827 104.356C427.951 105.129 428.089 105.823 428.102 106.318C428.115 106.812 428.034 107.045 427.917 107.207L406.892 136.292C406.616 136.674 406.111 136.75 405.735 136.478L383.505 120.408C383.123 120.131 383.047 119.627 383.319 119.251L404.344 90.1659C404.457 90.0095 404.692 89.8489 405.17 89.7055C405.41 89.6363 405.677 89.583 406.001 89.5309ZM417.908 91.5449C416.926 91.7029 415.998 92.2358 415.375 93.0983C414.128 94.8235 414.522 97.2771 416.248 98.5242C417.973 99.7713 420.426 99.3767 421.673 97.6515C422.921 95.9264 422.526 93.4727 420.801 92.2256C419.938 91.6021 418.891 91.3869 417.908 91.5449ZM418.319 94.0983C418.643 94.0461 418.999 94.0963 419.294 94.3097C419.885 94.7366 420.016 95.5545 419.589 96.145C419.163 96.7355 418.345 96.867 417.754 96.4401C417.164 96.0133 417.032 95.1954 417.459 94.6049C417.672 94.3097 417.995 94.1504 418.319 94.0983Z" fill="black" stroke="white"/>
</g>
<g clip-path="url(#clip19_933_7760)">
<path d="M469.612 68.8225C469.229 68.8892 468.849 68.9759 468.468 69.0884C467.701 69.314 466.889 69.7055 466.321 70.4979L445.295 99.5826C444.203 101.094 444.548 103.238 446.059 104.33L454.495 110.463C454.564 110.514 454.643 110.557 454.72 110.591C454.743 110.608 454.783 110.601 454.806 110.618C454.823 110.631 454.835 110.639 454.852 110.651C454.893 110.681 454.911 110.729 454.951 110.758L477.182 126.828C478.693 127.921 480.837 127.576 481.929 126.065L502.954 96.98C503.519 96.1985 503.645 95.2932 503.619 94.4992C503.594 93.7051 503.451 92.9404 503.333 92.2122L503.308 92.0527C503.289 91.933 503.261 91.7584 503.224 91.534C503.201 91.3894 503.158 91.1201 503.128 90.9356C503.067 90.5565 503.012 90.2124 502.929 89.6988C502.684 88.1727 502.352 86.1131 502.024 84.0734C501.368 79.994 500.711 75.9096 500.696 75.8149C500.34 73.6006 498.228 72.0781 496.018 72.4334L492.388 73.0174L491.804 69.3868C491.448 67.1726 489.341 65.6493 487.126 66.0054L470.729 68.6428C470.375 68.6998 469.995 68.7557 469.612 68.8225ZM470.062 71.3694C470.387 71.3173 470.761 71.2571 471.14 71.1962L487.537 68.5588C488.37 68.4248 489.117 68.9647 489.251 69.7975L489.835 73.4281L485.047 74.1981C484.988 74.1513 484.925 74.1102 484.862 74.0642C483.999 73.4406 482.952 73.2254 481.969 73.3835C480.987 73.5415 480.059 74.0743 479.436 74.9369C479.39 75.0006 479.343 75.0593 479.302 75.1222C478.678 75.2174 478.014 75.3241 477.36 75.5164C476.593 75.7421 475.781 76.1336 475.213 76.9259L454.188 106.011C454.02 106.242 453.874 106.481 453.772 106.732L447.566 102.246C447.184 101.97 447.108 101.465 447.38 101.089L468.405 72.0044C468.518 71.8481 468.753 71.6875 469.231 71.5441C469.471 71.4749 469.738 71.4216 470.062 71.3694ZM478.955 77.7975L496.429 74.9868C497.262 74.8529 498.009 75.3927 498.143 76.2255C498.156 76.3053 498.815 80.4047 499.471 84.4841C499.799 86.5238 500.13 88.5834 500.376 90.1095C500.499 90.8725 500.6 91.5008 500.671 91.9447C500.707 92.1691 500.735 92.3437 500.754 92.4633C500.764 92.5232 500.769 92.5531 500.774 92.583C500.779 92.613 500.78 92.6229 500.78 92.6229C500.904 93.3959 501.042 94.0901 501.055 94.5843C501.068 95.0784 500.987 95.3113 500.87 95.4734L479.845 124.558C479.569 124.94 479.065 125.016 478.688 124.744L456.458 108.674C456.076 108.398 456 107.894 456.272 107.517L477.297 78.4325C477.41 78.2761 477.645 78.1155 478.123 77.9721C478.363 77.9029 478.63 77.8496 478.955 77.7975ZM490.861 79.8115C489.879 79.9695 488.952 80.5024 488.328 81.3649C487.081 83.0901 487.476 85.5437 489.201 86.7908C490.926 88.0379 493.379 87.6433 494.627 85.9181C495.874 84.193 495.479 81.7393 493.754 80.4922C492.891 79.8687 491.844 79.6535 490.861 79.8115ZM491.272 82.3649C491.596 82.3127 491.952 82.3629 492.247 82.5763C492.838 83.0032 492.969 83.8211 492.542 84.4116C492.116 85.0021 491.298 85.1336 490.707 84.7067C490.117 84.2799 489.985 83.462 490.412 82.8715C490.626 82.5763 490.948 82.417 491.272 82.3649Z" fill="black" stroke="white"/>
</g>
<g clip-path="url(#clip20_933_7760)">
<path d="M141.338 184.768C140.955 184.835 140.575 184.921 140.194 185.034C139.427 185.259 138.615 185.651 138.047 186.443L117.022 215.528C115.93 217.039 116.275 219.183 117.786 220.276L126.221 226.409C126.291 226.459 126.369 226.503 126.446 226.536C126.469 226.553 126.509 226.547 126.532 226.563C126.55 226.576 126.561 226.584 126.579 226.597C126.619 226.626 126.637 226.674 126.678 226.704L148.908 242.774C150.419 243.866 152.564 243.521 153.656 242.01L174.681 212.925C175.246 212.144 175.371 211.239 175.346 210.444C175.321 209.65 175.177 208.886 175.06 208.158L175.034 207.998C175.015 207.878 174.987 207.704 174.951 207.479C174.928 207.335 174.884 207.065 174.855 206.881C174.794 206.502 174.738 206.158 174.656 205.644C174.41 204.118 174.079 202.058 173.751 200.019C173.095 195.939 172.438 191.855 172.423 191.76C172.067 189.546 169.954 188.023 167.745 188.379L164.114 188.963L163.531 185.332C163.174 183.118 161.067 181.595 158.853 181.951L142.455 184.588C142.101 184.645 141.722 184.701 141.338 184.768ZM141.789 187.315C142.113 187.263 142.487 187.202 142.866 187.141L159.264 184.504C160.096 184.37 160.843 184.91 160.977 185.743L161.561 189.373L156.774 190.143C156.715 190.097 156.652 190.056 156.588 190.01C155.726 189.386 154.678 189.171 153.696 189.329C152.713 189.487 151.786 190.02 151.162 190.882C151.116 190.946 151.07 191.005 151.028 191.067C150.404 191.163 149.741 191.269 149.086 191.462C148.319 191.687 147.508 192.079 146.939 192.871L125.914 221.956C125.747 222.188 125.601 222.426 125.498 222.678L119.292 218.191C118.91 217.915 118.834 217.411 119.106 217.035L140.131 187.95C140.244 187.793 140.479 187.633 140.958 187.489C141.197 187.42 141.465 187.367 141.789 187.315ZM150.681 193.743L168.156 190.932C168.989 190.798 169.735 191.338 169.869 192.171C169.882 192.251 170.541 196.35 171.198 200.429C171.526 202.469 171.857 204.529 172.102 206.055C172.225 206.818 172.326 207.446 172.398 207.89C172.434 208.114 172.462 208.289 172.481 208.409C172.491 208.469 172.495 208.498 172.5 208.528C172.505 208.558 172.507 208.568 172.507 208.568C172.631 209.341 172.768 210.035 172.781 210.53C172.794 211.024 172.714 211.257 172.597 211.419L151.572 240.504C151.296 240.886 150.791 240.962 150.415 240.69L128.184 224.62C127.802 224.343 127.726 223.839 127.998 223.463L149.023 194.378C149.136 194.221 149.371 194.061 149.85 193.917C150.089 193.848 150.357 193.795 150.681 193.743ZM162.588 195.757C161.605 195.915 160.678 196.448 160.055 197.31C158.807 199.035 159.202 201.489 160.927 202.736C162.652 203.983 165.106 203.589 166.353 201.863C167.6 200.138 167.206 197.685 165.48 196.438C164.618 195.814 163.57 195.599 162.588 195.757ZM162.999 198.31C163.323 198.258 163.679 198.308 163.974 198.522C164.564 198.949 164.696 199.766 164.269 200.357C163.842 200.947 163.024 201.079 162.434 200.652C161.843 200.225 161.712 199.407 162.139 198.817C162.352 198.522 162.674 198.362 162.999 198.31Z" fill="black" stroke="white"/>
</g>
<g clip-path="url(#clip21_933_7760)">
<path d="M214.292 173.033C213.908 173.1 213.528 173.187 213.147 173.299C212.38 173.525 211.569 173.916 211 174.709L189.975 203.794C188.883 205.305 189.228 207.449 190.739 208.541L199.174 214.674C199.244 214.725 199.322 214.768 199.399 214.802C199.423 214.819 199.462 214.812 199.486 214.829C199.503 214.841 199.515 214.85 199.532 214.862C199.572 214.892 199.59 214.94 199.631 214.969L221.861 231.039C223.372 232.132 225.517 231.787 226.609 230.276L247.634 201.191C248.199 200.409 248.325 199.504 248.299 198.71C248.274 197.916 248.13 197.151 248.013 196.423L247.988 196.264C247.968 196.144 247.94 195.969 247.904 195.745C247.881 195.6 247.838 195.331 247.808 195.147C247.747 194.767 247.692 194.423 247.609 193.91C247.363 192.384 247.032 190.324 246.704 188.284C246.048 184.205 245.391 180.121 245.376 180.026C245.02 177.812 242.907 176.289 240.698 176.644L237.068 177.228L236.484 173.598C236.127 171.384 234.02 169.86 231.806 170.216L215.409 172.854C215.055 172.911 214.675 172.967 214.292 173.033ZM214.742 175.58C215.066 175.528 215.44 175.468 215.819 175.407L232.217 172.77C233.05 172.636 233.796 173.176 233.93 174.008L234.514 177.639L229.727 178.409C229.668 178.362 229.605 178.321 229.541 178.275C228.679 177.652 227.631 177.436 226.649 177.594C225.666 177.752 224.739 178.285 224.116 179.148C224.069 179.212 224.023 179.27 223.982 179.333C223.357 179.428 222.694 179.535 222.04 179.727C221.273 179.953 220.461 180.345 219.892 181.137L198.867 210.222C198.7 210.453 198.554 210.691 198.451 210.943L192.245 206.457C191.863 206.181 191.787 205.676 192.059 205.3L213.084 176.215C213.197 176.059 213.432 175.898 213.911 175.755C214.15 175.686 214.418 175.632 214.742 175.58ZM223.634 182.008L241.109 179.198C241.942 179.064 242.688 179.604 242.822 180.436C242.835 180.516 243.495 184.616 244.151 188.695C244.479 190.735 244.81 192.794 245.056 194.32C245.178 195.083 245.279 195.712 245.351 196.156C245.387 196.38 245.415 196.555 245.434 196.674C245.444 196.734 245.449 196.764 245.453 196.794C245.458 196.824 245.46 196.834 245.46 196.834C245.584 197.607 245.721 198.301 245.734 198.795C245.747 199.289 245.667 199.522 245.55 199.684L224.525 228.769C224.249 229.151 223.744 229.227 223.368 228.955L201.138 212.885C200.755 212.609 200.679 212.104 200.951 211.728L221.976 182.643C222.089 182.487 222.325 182.326 222.803 182.183C223.042 182.114 223.31 182.061 223.634 182.008ZM235.541 184.022C234.558 184.18 233.631 184.713 233.008 185.576C231.761 187.301 232.155 189.755 233.88 191.002C235.606 192.249 238.059 191.854 239.306 190.129C240.553 188.404 240.159 185.95 238.434 184.703C237.571 184.08 236.523 183.864 235.541 184.022ZM235.952 186.576C236.276 186.524 236.632 186.574 236.927 186.787C237.517 187.214 237.649 188.032 237.222 188.622C236.795 189.213 235.977 189.345 235.387 188.918C234.796 188.491 234.665 187.673 235.092 187.082C235.305 186.787 235.627 186.628 235.952 186.576Z" fill="black" stroke="white"/>
</g>
<g clip-path="url(#clip22_933_7760)">
<path d="M285.729 161.544C285.346 161.611 284.966 161.698 284.585 161.81C283.818 162.036 283.006 162.427 282.438 163.22L261.413 192.304C260.32 193.815 260.665 195.96 262.176 197.052L270.612 203.185C270.681 203.235 270.76 203.279 270.837 203.313C270.86 203.329 270.9 203.323 270.923 203.34C270.94 203.352 270.952 203.361 270.969 203.373C271.01 203.402 271.028 203.451 271.068 203.48L293.299 219.55C294.81 220.642 296.954 220.297 298.047 218.786L319.072 189.702C319.637 188.92 319.762 188.015 319.737 187.221C319.711 186.427 319.568 185.662 319.451 184.934L319.425 184.774C319.406 184.655 319.378 184.48 319.342 184.256C319.318 184.111 319.275 183.842 319.245 183.657C319.184 183.278 319.129 182.934 319.046 182.42C318.801 180.894 318.47 178.835 318.142 176.795C317.485 172.716 316.829 168.631 316.813 168.537C316.457 166.322 314.345 164.8 312.136 165.155L308.505 165.739L307.921 162.109C307.565 159.894 305.458 158.371 303.243 158.727L286.846 161.364C286.492 161.421 286.112 161.477 285.729 161.544ZM286.18 164.091C286.504 164.039 286.878 163.979 287.257 163.918L303.654 161.28C304.487 161.147 305.234 161.686 305.368 162.519L305.952 166.15L301.164 166.92C301.105 166.873 301.043 166.832 300.979 166.786C300.116 166.162 299.069 165.947 298.086 166.105C297.104 166.263 296.177 166.796 295.553 167.659C295.507 167.722 295.46 167.781 295.419 167.844C294.795 167.939 294.132 168.046 293.477 168.238C292.71 168.464 291.898 168.855 291.33 169.648L270.305 198.732C270.137 198.964 269.992 199.202 269.889 199.454L263.683 194.968C263.301 194.692 263.225 194.187 263.497 193.811L284.522 164.726C284.635 164.57 284.87 164.409 285.348 164.266C285.588 164.197 285.855 164.143 286.18 164.091ZM295.072 170.519L312.546 167.708C313.379 167.575 314.126 168.114 314.26 168.947C314.273 169.027 314.932 173.126 315.588 177.206C315.916 179.245 316.248 181.305 316.493 182.831C316.616 183.594 316.717 184.223 316.788 184.666C316.824 184.891 316.852 185.065 316.872 185.185C316.881 185.245 316.886 185.275 316.891 185.305C316.896 185.335 316.897 185.345 316.897 185.345C317.022 186.118 317.159 186.812 317.172 187.306C317.185 187.8 317.105 188.033 316.987 188.195L295.962 217.28C295.686 217.662 295.182 217.738 294.805 217.466L272.575 201.396C272.193 201.12 272.117 200.615 272.389 200.239L293.414 171.154C293.527 170.998 293.762 170.837 294.24 170.694C294.48 170.625 294.748 170.571 295.072 170.519ZM306.978 172.533C305.996 172.691 305.069 173.224 304.445 174.087C303.198 175.812 303.593 178.265 305.318 179.513C307.043 180.76 309.497 180.365 310.744 178.64C311.991 176.915 311.596 174.461 309.871 173.214C309.008 172.59 307.961 172.375 306.978 172.533ZM307.389 175.087C307.713 175.034 308.069 175.085 308.364 175.298C308.955 175.725 309.087 176.543 308.66 177.133C308.233 177.724 307.415 177.855 306.824 177.428C306.234 177.002 306.102 176.184 306.529 175.593C306.743 175.298 307.065 175.139 307.389 175.087Z" fill="black" stroke="white"/>
</g>
<g clip-path="url(#clip23_933_7760)">
<path d="M358.682 149.81C358.299 149.877 357.919 149.963 357.538 150.076C356.771 150.301 355.959 150.693 355.391 151.485L334.366 180.57C333.274 182.081 333.618 184.225 335.129 185.318L343.565 191.451C343.634 191.501 343.713 191.545 343.79 191.578C343.813 191.595 343.853 191.589 343.876 191.605C343.894 191.618 343.905 191.626 343.923 191.639C343.963 191.668 343.981 191.716 344.022 191.746L366.252 207.816C367.763 208.908 369.907 208.563 371 207.052L392.025 177.967C392.59 177.186 392.715 176.28 392.69 175.486C392.664 174.692 392.521 173.928 392.404 173.2L392.378 173.04C392.359 172.92 392.331 172.746 392.295 172.521C392.271 172.377 392.228 172.107 392.198 171.923C392.138 171.544 392.082 171.2 392 170.686C391.754 169.16 391.423 167.1 391.095 165.061C390.439 160.981 389.782 156.897 389.766 156.802C389.41 154.588 387.298 153.065 385.089 153.421L381.458 154.005L380.874 150.374C380.518 148.16 378.411 146.637 376.197 146.993L359.799 149.63C359.445 149.687 359.065 149.743 358.682 149.81ZM359.133 152.357C359.457 152.305 359.831 152.244 360.21 152.183L376.607 149.546C377.44 149.412 378.187 149.952 378.321 150.785L378.905 154.415L374.117 155.185C374.059 155.139 373.996 155.098 373.932 155.052C373.069 154.428 372.022 154.213 371.039 154.371C370.057 154.529 369.13 155.062 368.506 155.924C368.46 155.988 368.413 156.047 368.372 156.109C367.748 156.205 367.085 156.311 366.43 156.504C365.663 156.729 364.851 157.121 364.283 157.913L343.258 186.998C343.091 187.23 342.945 187.468 342.842 187.72L336.636 183.233C336.254 182.957 336.178 182.453 336.45 182.076L357.475 152.992C357.588 152.835 357.823 152.675 358.301 152.531C358.541 152.462 358.809 152.409 359.133 152.357ZM368.025 158.785L385.499 155.974C386.332 155.84 387.079 156.38 387.213 157.213C387.226 157.293 387.885 161.392 388.541 165.471C388.869 167.511 389.201 169.571 389.446 171.097C389.569 171.86 389.67 172.488 389.741 172.932C389.777 173.156 389.806 173.331 389.825 173.451C389.834 173.51 389.839 173.54 389.844 173.57C389.849 173.6 389.85 173.61 389.85 173.61C389.975 174.383 390.112 175.077 390.125 175.572C390.138 176.066 390.058 176.299 389.941 176.461L368.916 205.546C368.639 205.928 368.135 206.004 367.759 205.732L345.528 189.662C345.146 189.385 345.07 188.881 345.342 188.505L366.367 159.42C366.48 159.263 366.715 159.103 367.193 158.959C367.433 158.89 367.701 158.837 368.025 158.785ZM379.932 160.799C378.949 160.957 378.022 161.49 377.398 162.352C376.151 164.077 376.546 166.531 378.271 167.778C379.996 169.025 382.45 168.631 383.697 166.905C384.944 165.18 384.549 162.727 382.824 161.48C381.962 160.856 380.914 160.641 379.932 160.799ZM380.342 163.352C380.666 163.3 381.022 163.35 381.318 163.564C381.908 163.99 382.04 164.808 381.613 165.399C381.186 165.989 380.368 166.121 379.778 165.694C379.187 165.267 379.056 164.449 379.482 163.859C379.696 163.564 380.018 163.404 380.342 163.352Z" fill="black" stroke="white"/>
</g>
<g clip-path="url(#clip24_933_7760)">
<path d="M431.635 138.076C431.252 138.143 430.872 138.23 430.491 138.342C429.724 138.568 428.912 138.959 428.344 139.752L407.319 168.837C406.227 170.347 406.572 172.492 408.083 173.584L416.518 179.717C416.587 179.768 416.666 179.811 416.743 179.845C416.766 179.862 416.806 179.855 416.829 179.872C416.847 179.884 416.858 179.893 416.876 179.905C416.916 179.935 416.934 179.983 416.975 180.012L439.205 196.082C440.716 197.175 442.861 196.83 443.953 195.319L464.978 166.234C465.543 165.452 465.668 164.547 465.643 163.753C465.618 162.959 465.474 162.194 465.357 161.466L465.331 161.307C465.312 161.187 465.284 161.012 465.248 160.788C465.225 160.643 465.181 160.374 465.152 160.189C465.091 159.81 465.035 159.466 464.953 158.953C464.707 157.427 464.376 155.367 464.048 153.327C463.392 149.248 462.735 145.164 462.72 145.069C462.363 142.855 460.251 141.332 458.042 141.687L454.411 142.271L453.827 138.641C453.471 136.426 451.364 134.903 449.15 135.259L432.752 137.897C432.398 137.954 432.018 138.01 431.635 138.076ZM432.086 140.623C432.41 140.571 432.784 140.511 433.163 140.45L449.56 137.813C450.393 137.679 451.14 138.219 451.274 139.051L451.858 142.682L447.07 143.452C447.012 143.405 446.949 143.364 446.885 143.318C446.023 142.695 444.975 142.479 443.993 142.637C443.01 142.795 442.083 143.328 441.459 144.191C441.413 144.255 441.366 144.313 441.325 144.376C440.701 144.471 440.038 144.578 439.383 144.77C438.616 144.996 437.804 145.387 437.236 146.18L416.211 175.265C416.044 175.496 415.898 175.734 415.795 175.986L409.589 171.5C409.207 171.224 409.131 170.719 409.403 170.343L430.428 141.258C430.541 141.102 430.776 140.941 431.254 140.798C431.494 140.729 431.762 140.675 432.086 140.623ZM440.978 147.051L458.453 144.241C459.285 144.107 460.032 144.647 460.166 145.479C460.179 145.559 460.838 149.659 461.495 153.738C461.823 155.778 462.154 157.837 462.399 159.363C462.522 160.126 462.623 160.755 462.694 161.199C462.731 161.423 462.759 161.598 462.778 161.717C462.788 161.777 462.792 161.807 462.797 161.837C462.802 161.867 462.804 161.877 462.804 161.877C462.928 162.65 463.065 163.344 463.078 163.838C463.091 164.332 463.011 164.565 462.894 164.727L441.869 193.812C441.592 194.194 441.088 194.27 440.712 193.998L418.481 177.928C418.099 177.652 418.023 177.147 418.295 176.771L439.32 147.686C439.433 147.53 439.668 147.369 440.147 147.226C440.386 147.157 440.654 147.103 440.978 147.051ZM452.885 149.065C451.902 149.223 450.975 149.756 450.351 150.619C449.104 152.344 449.499 154.798 451.224 156.045C452.949 157.292 455.403 156.897 456.65 155.172C457.897 153.447 457.502 150.993 455.777 149.746C454.915 149.123 453.867 148.907 452.885 149.065ZM453.295 151.619C453.62 151.567 453.975 151.617 454.271 151.83C454.861 152.257 454.993 153.075 454.566 153.665C454.139 154.256 453.321 154.388 452.731 153.961C452.14 153.534 452.009 152.716 452.436 152.125C452.649 151.83 452.971 151.671 453.295 151.619Z" fill="black" stroke="white"/>
</g>
<g clip-path="url(#clip25_933_7760)">
<path d="M504.588 126.342C504.205 126.409 503.825 126.495 503.444 126.608C502.677 126.834 501.865 127.225 501.297 128.017L480.272 157.102C479.18 158.613 479.525 160.758 481.036 161.85L489.471 167.983C489.541 168.033 489.619 168.077 489.696 168.11C489.719 168.127 489.759 168.121 489.782 168.138C489.8 168.15 489.811 168.158 489.829 168.171C489.869 168.2 489.887 168.249 489.928 168.278L512.158 184.348C513.669 185.44 515.814 185.095 516.906 183.584L537.931 154.5C538.496 153.718 538.621 152.813 538.596 152.019C538.571 151.225 538.427 150.46 538.31 149.732L538.284 149.572C538.265 149.453 538.237 149.278 538.201 149.054C538.178 148.909 538.134 148.64 538.105 148.455C538.044 148.076 537.988 147.732 537.906 147.218C537.66 145.692 537.329 143.633 537.001 141.593C536.345 137.514 535.688 133.429 535.673 133.334C535.317 131.12 533.204 129.598 530.995 129.953L527.364 130.537L526.781 126.906C526.424 124.692 524.317 123.169 522.103 123.525L505.705 126.162C505.351 126.219 504.972 126.275 504.588 126.342ZM505.039 128.889C505.363 128.837 505.737 128.777 506.116 128.716L522.514 126.078C523.346 125.944 524.093 126.484 524.227 127.317L524.811 130.948L520.024 131.718C519.965 131.671 519.902 131.63 519.838 131.584C518.976 130.96 517.928 130.745 516.946 130.903C515.963 131.061 515.036 131.594 514.412 132.456C514.366 132.52 514.32 132.579 514.278 132.642C513.654 132.737 512.991 132.844 512.336 133.036C511.569 133.262 510.758 133.653 510.189 134.445L489.164 163.53C488.997 163.762 488.851 164 488.748 164.252L482.542 159.766C482.16 159.49 482.084 158.985 482.356 158.609L503.381 129.524C503.494 129.368 503.729 129.207 504.208 129.064C504.447 128.994 504.715 128.941 505.039 128.889ZM513.931 135.317L531.406 132.506C532.239 132.372 532.985 132.912 533.119 133.745C533.132 133.825 533.791 137.924 534.448 142.004C534.776 144.043 535.107 146.103 535.352 147.629C535.475 148.392 535.576 149.02 535.648 149.464C535.684 149.689 535.712 149.863 535.731 149.983C535.741 150.043 535.745 150.073 535.75 150.103C535.755 150.132 535.757 150.142 535.757 150.142C535.881 150.915 536.018 151.61 536.031 152.104C536.044 152.598 535.964 152.831 535.847 152.993L514.822 182.078C514.546 182.46 514.041 182.536 513.665 182.264L491.434 166.194C491.052 165.918 490.976 165.413 491.248 165.037L512.273 135.952C512.386 135.796 512.621 135.635 513.1 135.492C513.339 135.422 513.607 135.369 513.931 135.317ZM525.838 137.331C524.855 137.489 523.928 138.022 523.305 138.884C522.057 140.61 522.452 143.063 524.177 144.31C525.902 145.557 528.356 145.163 529.603 143.438C530.85 141.712 530.456 139.259 528.73 138.012C527.868 137.388 526.82 137.173 525.838 137.331ZM526.249 139.884C526.573 139.832 526.929 139.882 527.224 140.096C527.814 140.523 527.946 141.341 527.519 141.931C527.092 142.522 526.274 142.653 525.684 142.226C525.093 141.799 524.962 140.982 525.389 140.391C525.602 140.096 525.924 139.937 526.249 139.884Z" fill="black" stroke="white"/>
</g>
</g>
</g>
<path d="M247.82 101.152C247.436 101.28 236.3 102.048 235.916 102.176C236.3 100 236.428 97.696 236.3 95.392C235.916 92.32 234.38 89.376 231.948 87.328C229.644 85.408 226.828 84.384 224.012 83.744C218.38 82.592 212.748 82.72 207.244 83.232C199.436 83.872 194.7 85.28 187.148 87.072C194.572 82.208 210.06 71.2 214.028 68.128C220.684 63.008 229.644 54.048 226.956 48.672C225.42 45.216 221.58 44.96 218.892 45.088C215.18 45.472 211.852 46.496 208.652 47.904C211.212 44.32 213.644 40.608 216.332 37.024C216.716 36.384 214.54 34.848 214.156 35.488C210.572 40.224 207.116 45.216 203.66 50.208C194.828 54.688 180.748 64.672 179.98 65.696C179.084 66.72 180.62 67.232 181.132 66.976C187.66 61.728 193.676 57.76 201.1 53.664C193.164 64.8 188.428 75.936 181.004 87.456C179.724 88.096 178.572 88.864 177.291 89.632C176.779 89.888 176.395 90.528 176.651 91.168C176.907 91.808 177.547 92.064 178.188 91.936C172.427 102.304 164.747 120.224 164.747 120.224C164.747 120.224 165.771 122.528 166.667 120.608C172.171 108.704 173.835 104.992 182.668 90.528C191.628 87.712 198.028 85.792 207.372 84.896C212.876 84.512 218.38 84.512 223.5 85.92C228.62 87.072 233.1 90.656 233.228 95.776C233.484 97.952 233.1 100.256 232.588 102.56C216.844 104.736 201.484 108.576 186.764 114.464C181.644 116.64 176.523 119.072 171.915 122.272C169.611 123.808 167.307 125.6 165.387 127.776C163.595 129.952 161.675 132.768 162.059 136.096C162.443 139.552 165.131 141.984 167.819 143.264C170.507 144.544 173.451 144.928 176.395 145.056C182.156 145.184 187.66 143.904 193.036 142.24C203.66 138.784 213.772 133.152 221.964 125.6C228.236 119.712 233.868 112.032 235.788 103.328C235.788 103.328 247.052 102.176 247.564 102.176C248.332 102.048 248.844 101.152 247.82 101.152ZM206.348 50.976C232.844 40.736 223.756 54.56 222.476 56.352C216.716 63.776 192.268 80.928 186.892 84C194.06 72.864 198.796 61.856 206.348 50.976ZM229.516 110.624C227.084 115.232 223.628 119.456 219.788 123.168C211.979 130.464 202.38 135.968 192.14 139.424C187.02 141.088 181.644 142.24 176.395 142.24C173.835 142.24 171.147 141.856 168.843 140.832C166.795 139.808 164.747 138.016 164.491 135.84C164.235 133.536 165.515 131.232 167.179 129.312C168.843 127.264 171.019 125.6 173.195 124.064C177.547 120.992 182.411 118.432 187.404 116.256C201.74 110.24 216.844 106.144 232.204 103.84C231.564 106.144 230.668 108.448 229.516 110.624ZM273.752 99.616C262.744 107.936 259.16 107.168 260.696 102.688C261.208 100.768 262.488 97.696 263.128 95.648C263.256 95.264 262.104 93.984 261.208 94.496C257.88 100.384 255.064 102.944 250.712 105.376C247.639 107.168 250.712 100.256 253.144 97.056C253.144 97.056 251.736 94.88 250.84 95.52C249.559 96.544 246.615 102.688 246.487 104.352C245.975 110.496 254.168 105.76 258.135 101.536C255.064 109.984 263.512 109.216 274.264 100.128C274.392 100 274.008 99.488 273.752 99.616ZM302.994 99.616C302.994 99.36 293.394 105.888 287.89 109.984C288.658 107.424 290.45 99.616 290.45 99.616C291.346 95.392 291.474 94.368 288.658 94.368C283.794 100.512 274.45 107.68 274.066 104.736C274.578 101.92 276.242 99.36 277.138 96.8H277.266C277.522 96.16 274.962 94.88 274.706 95.648C272.913 99.104 269.969 105.504 273.169 107.168C277.01 108.96 288.53 97.312 288.53 97.312C288.402 97.824 284.306 111.904 284.05 112.8C270.097 123.04 256.145 139.04 254.481 149.536C253.201 157.472 261.137 156.704 264.849 154.144C267.537 152.352 269.841 150.048 271.761 147.488C275.474 142.24 278.161 136.48 280.594 130.848C282.898 125.216 285.586 118.048 287.25 112.288C292.498 107.552 303.25 100.256 303.25 100.256C303.25 100.256 303.122 99.744 302.994 99.616ZM277.906 129.696C275.602 135.328 272.785 140.832 269.457 145.824C267.793 148.256 266.769 149.92 264.465 151.584C258.961 155.936 254.481 154.144 257.809 145.824C260.497 138.784 269.969 125.856 283.282 115.232C281.746 119.584 279.57 125.344 277.906 129.696Z" fill="black"/>
<defs>
<clipPath id="clip0_933_7760">
<rect width="64.6545" height="64.6545" fill="white" transform="translate(3.82812 15.5254) rotate(-9.1373)"/>
</clipPath>
<clipPath id="clip1_933_7760">
<rect width="64.6545" height="64.6545" fill="white" transform="translate(76.7812 3.79199) rotate(-9.1373)"/>
</clipPath>
<clipPath id="clip2_933_7760">
<rect width="64.6545" height="64.6545" fill="white" transform="translate(149.734 -7.94238) rotate(-9.1373)"/>
</clipPath>
<clipPath id="clip3_933_7760">
<rect width="64.6545" height="64.6545" fill="white" transform="translate(221.172 -19.4316) rotate(-9.1373)"/>
</clipPath>
<clipPath id="clip4_933_7760">
<rect width="64.6545" height="64.6545" fill="white" transform="translate(294.125 -31.166) rotate(-9.1373)"/>
</clipPath>
<clipPath id="clip5_933_7760">
<rect width="64.6545" height="64.6545" fill="white" transform="translate(367.078 -42.8994) rotate(-9.1373)"/>
</clipPath>
<clipPath id="clip6_933_7760">
<rect width="64.6545" height="64.6545" fill="white" transform="translate(-34.1484 84.7793) rotate(-9.1373)"/>
</clipPath>
<clipPath id="clip7_933_7760">
<rect width="64.6545" height="64.6545" fill="white" transform="translate(38.8047 73.0459) rotate(-9.1373)"/>
</clipPath>
<clipPath id="clip8_933_7760">
<rect width="64.6545" height="64.6545" fill="white" transform="translate(111.758 61.3115) rotate(-9.1373)"/>
</clipPath>
<clipPath id="clip9_933_7760">
<rect width="64.6545" height="64.6545" fill="white" transform="translate(183.195 49.8223) rotate(-9.1373)"/>
</clipPath>
<clipPath id="clip10_933_7760">
<rect width="64.6545" height="64.6545" fill="white" transform="translate(256.148 38.0879) rotate(-9.1373)"/>
</clipPath>
<clipPath id="clip11_933_7760">
<rect width="64.6545" height="64.6545" fill="white" transform="translate(329.102 26.3545) rotate(-9.1373)"/>
</clipPath>
<clipPath id="clip12_933_7760">
<rect width="64.6545" height="64.6545" fill="white" transform="translate(402.055 14.6201) rotate(-9.1373)"/>
</clipPath>
<clipPath id="clip13_933_7760">
<rect width="64.6545" height="64.6545" fill="white" transform="translate(0.921875 141.588) rotate(-9.1373)"/>
</clipPath>
<clipPath id="clip14_933_7760">
<rect width="64.6545" height="64.6545" fill="white" transform="translate(73.875 129.854) rotate(-9.1373)"/>
</clipPath>
<clipPath id="clip15_933_7760">
<rect width="64.6545" height="64.6545" fill="white" transform="translate(146.828 118.12) rotate(-9.1373)"/>
</clipPath>
<clipPath id="clip16_933_7760">
<rect width="64.6545" height="64.6545" fill="white" transform="translate(219.781 106.386) rotate(-9.1373)"/>
</clipPath>
<clipPath id="clip17_933_7760">
<rect width="64.6545" height="64.6545" fill="white" transform="translate(291.219 94.8965) rotate(-9.1373)"/>
</clipPath>
<clipPath id="clip18_933_7760">
<rect width="64.6545" height="64.6545" fill="white" transform="translate(364.172 83.1621) rotate(-9.1373)"/>
</clipPath>
<clipPath id="clip19_933_7760">
<rect width="64.6545" height="64.6545" fill="white" transform="translate(437.125 71.4287) rotate(-9.1373)"/>
</clipPath>
<clipPath id="clip20_933_7760">
<rect width="64.6545" height="64.6545" fill="white" transform="translate(108.852 187.374) rotate(-9.1373)"/>
</clipPath>
<clipPath id="clip21_933_7760">
<rect width="64.6545" height="64.6545" fill="white" transform="translate(181.805 175.64) rotate(-9.1373)"/>
</clipPath>
<clipPath id="clip22_933_7760">
<rect width="64.6545" height="64.6545" fill="white" transform="translate(253.242 164.15) rotate(-9.1373)"/>
</clipPath>
<clipPath id="clip23_933_7760">
<rect width="64.6545" height="64.6545" fill="white" transform="translate(326.195 152.416) rotate(-9.1373)"/>
</clipPath>
<clipPath id="clip24_933_7760">
<rect width="64.6545" height="64.6545" fill="white" transform="translate(399.148 140.683) rotate(-9.1373)"/>
</clipPath>
<clipPath id="clip25_933_7760">
<rect width="64.6545" height="64.6545" fill="white" transform="translate(472.102 128.948) rotate(-9.1373)"/>
</clipPath>
</defs>
</svg>
