<svg width="158" height="158" viewBox="0 0 158 158" fill="none" xmlns="http://www.w3.org/2000/svg">
<g clip-path="url(#clip0_933_7861)">
<path d="M52.2248 116.98C49.0023 118.295 45.3238 116.749 44.0086 113.526C42.6934 110.304 44.2396 106.625 47.462 105.31C50.6845 103.995 54.3631 105.541 55.6783 108.764C56.9935 111.986 55.4473 115.665 52.2248 116.98Z" fill="#C98E00"/>
<path d="M90.5631 122.253L49.1825 117.387L49.8887 104.841L84.6896 106.454L90.5631 122.253Z" fill="#C98E00"/>
<path d="M37.9616 118.718C36.6461 115.494 38.1918 111.817 41.415 110.501C42.2086 110.178 43.0305 110.03 43.8361 110.036L43.8375 110.033L43.868 110.034C43.8736 110.034 43.8792 110.035 43.8848 110.035L78.6384 111.646L81.1868 107.883C77.9636 109.198 74.286 107.653 72.9706 104.429C72.0847 102.259 72.5204 99.8974 73.8673 98.1742L73.8427 98.1407L99.163 69.1126L99.2213 69.0888C100.419 67.8211 101.878 66.7656 103.598 66.0636C105.274 65.3797 107.008 65.0993 108.711 65.1478L108.762 65.1269L130.748 65.8738L143.131 96.215L120.708 95.2435L89.7718 125.589L89.7695 125.59C89.1806 126.195 88.4688 126.692 87.6402 127.031C86.625 127.445 85.5691 127.546 84.5492 127.429L84.5086 127.443L43.129 122.58L43.1294 122.574C40.9023 122.334 38.8684 120.94 37.9616 118.718Z" fill="url(#paint0_linear_933_7861)"/>
<path d="M80.2318 105.549C78.2983 106.338 76.0911 105.41 75.302 103.477C74.5129 101.543 75.4406 99.3361 77.3741 98.547C79.3076 97.7579 81.5147 98.6856 82.3038 100.619C83.0929 102.553 82.1653 104.76 80.2318 105.549Z" fill="#FFDE87"/>
<path d="M78.6413 111.646L81.1659 107.898C84.0378 106.562 85.9528 104.67 102.352 89.6865L105.696 97.881L83.2461 119.933C83.2461 119.933 82.9806 113.825 78.6413 111.646Z" fill="url(#paint1_linear_933_7861)"/>
<path d="M60.9435 91.6407C46.12 97.6906 29.1988 90.5783 23.1489 75.7548C17.099 60.9314 24.2113 44.0101 39.0348 37.9602C53.8582 31.9103 70.7794 39.0226 76.8294 53.8461C82.8793 68.6695 75.7669 85.5908 60.9435 91.6407Z" fill="url(#paint2_linear_933_7861)"/>
<path d="M58.8915 86.608C46.8471 91.5237 33.0982 85.7448 28.1825 73.7004C23.2668 61.656 29.0458 47.9072 41.0902 42.9915C53.1345 38.0758 66.8834 43.8547 71.7991 55.8991C76.7148 67.9435 70.9358 81.6923 58.8915 86.608Z" fill="#F5BE00"/>
<path d="M44.1581 73.0629C41.0023 65.3306 53.0325 62.185 51.1683 57.6175C50.1958 55.2345 47.4617 56.2007 46.6238 56.5426C44.6096 57.3647 42.8832 58.6982 41.6859 60.001C41.3087 60.4109 40.6395 60.3055 40.429 59.7897L39.5107 57.5398C39.203 56.786 39.3049 56.2216 39.6853 55.8595C40.5419 55.0497 41.8825 54.165 44.0104 53.2148L42.9998 50.7385C42.8788 50.4421 43.0211 50.1036 43.3175 49.9826L44.3911 49.5444C44.6875 49.4234 45.026 49.5657 45.147 49.8621L46.1739 52.3781C49.6554 51.3356 53.8999 51.8087 55.6936 56.2035C58.9646 64.2182 46.903 67.2868 48.6252 71.5065C49.1663 72.8322 50.4802 73.6301 53.1526 72.5394C55.839 71.443 57.923 69.4979 59.0035 68.2428C59.3671 67.8195 60.0477 67.9392 60.2591 68.4573L61.3041 71.0177C61.5041 71.5078 61.3868 72.0676 61.0121 72.4437C59.6747 73.79 57.7143 75.1973 55.8694 76.1273L56.9857 78.8626C57.1067 79.159 56.9644 79.4976 56.668 79.6185L55.5944 80.0567C55.298 80.1777 54.9595 80.0354 54.8385 79.739L53.724 77.0083C48.5459 78.637 45.3659 76.0223 44.1581 73.0629Z" fill="#FEE119"/>
</g>
<defs>
<linearGradient id="paint0_linear_933_7861" x1="136.463" y1="79.8774" x2="38.4378" y2="119.885" gradientUnits="userSpaceOnUse">
<stop stop-color="#FFCF54"/>
<stop offset="0.261" stop-color="#FDCB4D"/>
<stop offset="0.639" stop-color="#F7C13A"/>
<stop offset="1" stop-color="#F0B421"/>
</linearGradient>
<linearGradient id="paint1_linear_933_7861" x1="94.5429" y1="106.158" x2="87.4406" y2="100.67" gradientUnits="userSpaceOnUse">
<stop stop-color="#F0B421" stop-opacity="0"/>
<stop offset="0.512" stop-color="#E9AB12" stop-opacity="0.512"/>
<stop offset="1" stop-color="#E09F00"/>
</linearGradient>
<linearGradient id="paint2_linear_933_7861" x1="60.8924" y1="38.8602" x2="38.7792" y2="91.4703" gradientUnits="userSpaceOnUse">
<stop stop-color="#FEDE00"/>
<stop offset="1" stop-color="#FFD000"/>
</linearGradient>
<clipPath id="clip0_933_7861">
<rect width="121" height="121" fill="white" transform="matrix(-0.925858 0.377872 0.377872 0.925858 112.031 0)"/>
</clipPath>
</defs>
</svg>
