<svg width="74" height="74" viewBox="0 0 74 74" fill="none" xmlns="http://www.w3.org/2000/svg">
<path d="M61.6667 36.9997V30.833H55.5V26.208H49.3333V21.583H24.6667V26.208H18.5V30.833H12.3333V36.9997H9.25V47.7913H12.3333V58.583H16.9583V61.6663H21.5833V64.7497H27.75V66.2913H46.25V64.7497H52.4167V61.6663H57.0417V58.583H61.6667V47.7913H64.75V36.9997H61.6667Z" fill="url(#paint0_linear_933_7487)"/>
<path d="M23.125 18.5003V15.417H21.5833V12.3337H20.0417V9.25033H16.9583V6.16699H13.875V30.8337H26.2083V18.5003H23.125Z" fill="url(#paint1_linear_933_7487)"/>
<path d="M50.8724 18.5003V15.417H52.4141V12.3337H53.9557V9.25033H57.0391V6.16699H60.1224V30.8337H47.7891V18.5003H50.8724Z" fill="url(#paint2_linear_933_7487)"/>
<path d="M20.0443 46.25H3.08594V49.3333H20.0443V46.25Z" fill="url(#paint3_linear_933_7487)"/>
<path d="M23.1224 52.417H6.16406V55.5003H23.1224V52.417Z" fill="url(#paint4_linear_933_7487)"/>
<path d="M70.9193 46.25H53.9609V49.3333H70.9193V46.25Z" fill="url(#paint5_linear_933_7487)"/>
<path d="M67.8333 52.417H50.875V55.5003H67.8333V52.417Z" fill="url(#paint6_linear_933_7487)"/>
<path d="M40.0807 46.25H33.9141V49.3333H40.0807V46.25Z" fill="#D9414F"/>
<path d="M24.6667 35.458H18.5V40.083H24.6667V35.458Z" fill="url(#paint7_linear_933_7487)"/>
<path d="M33.9167 35.458H27.75V40.083H33.9167V35.458Z" fill="url(#paint8_linear_933_7487)"/>
<path d="M30.8359 33.917H21.5859V41.6253H30.8359V33.917Z" fill="url(#paint9_linear_933_7487)"/>
<path d="M46.2526 35.458H40.0859V40.083H46.2526V35.458Z" fill="url(#paint10_linear_933_7487)"/>
<path d="M55.5026 35.458H49.3359V40.083H55.5026V35.458Z" fill="url(#paint11_linear_933_7487)"/>
<path d="M52.4141 33.917H43.1641V41.6253H52.4141V33.917Z" fill="url(#paint12_linear_933_7487)"/>
<path d="M38.5443 49.333H35.4609V53.958H38.5443V49.333Z" fill="url(#paint13_linear_933_7487)"/>
<path d="M35.4609 53.958H30.8359V57.0413H35.4609V53.958Z" fill="url(#paint14_linear_933_7487)"/>
<path d="M43.1641 53.958H38.5391V57.0413H43.1641V53.958Z" fill="url(#paint15_linear_933_7487)"/>
<path d="M30.8333 50.875H27.75V53.9583H30.8333V50.875Z" fill="url(#paint16_linear_933_7487)"/>
<path d="M46.2474 50.875H43.1641V53.9583H46.2474V50.875Z" fill="url(#paint17_linear_933_7487)"/>
<path d="M20.0443 21.5837V18.5003H18.5026V15.417H16.9609V18.5003V26.2087H18.5026H20.0443H23.1276V21.5837H20.0443Z" fill="#D9414F"/>
<path d="M55.5 15.417V18.5003H53.9583V21.5837H50.875V26.2087H53.9583H55.5H57.0417V18.5003V15.417H55.5Z" fill="#D9414F"/>
<path d="M27.7474 35.458H24.6641V40.083H27.7474V35.458Z" fill="url(#paint18_linear_933_7487)"/>
<path d="M49.3333 35.458H46.25V40.083H49.3333V35.458Z" fill="url(#paint19_linear_933_7487)"/>
<defs>
<linearGradient id="paint0_linear_933_7487" x1="37" y1="2.76543" x2="37" y2="82.485" gradientUnits="userSpaceOnUse">
<stop stop-color="#AFB6BC"/>
<stop offset="0.925" stop-color="#9AA0A5"/>
</linearGradient>
<linearGradient id="paint1_linear_933_7487" x1="20.0417" y1="2.53945" x2="20.0417" y2="87.5732" gradientUnits="userSpaceOnUse">
<stop stop-color="#AFB6BC"/>
<stop offset="0.925" stop-color="#9AA0A5"/>
</linearGradient>
<linearGradient id="paint2_linear_933_7487" x1="53.9557" y1="2.53945" x2="53.9557" y2="87.5732" gradientUnits="userSpaceOnUse">
<stop stop-color="#AFB6BC"/>
<stop offset="0.925" stop-color="#9AA0A5"/>
</linearGradient>
<linearGradient id="paint3_linear_933_7487" x1="11.5651" y1="30.7424" x2="11.5651" y2="43.4411" gradientUnits="userSpaceOnUse">
<stop stop-color="#889097"/>
<stop offset="1" stop-color="#4C5963"/>
</linearGradient>
<linearGradient id="paint4_linear_933_7487" x1="14.6432" y1="30.7427" x2="14.6432" y2="43.4414" gradientUnits="userSpaceOnUse">
<stop stop-color="#889097"/>
<stop offset="1" stop-color="#4C5963"/>
</linearGradient>
<linearGradient id="paint5_linear_933_7487" x1="62.4401" y1="30.7424" x2="62.4401" y2="43.4411" gradientUnits="userSpaceOnUse">
<stop stop-color="#889097"/>
<stop offset="1" stop-color="#4C5963"/>
</linearGradient>
<linearGradient id="paint6_linear_933_7487" x1="59.3542" y1="30.7427" x2="59.3542" y2="43.4414" gradientUnits="userSpaceOnUse">
<stop stop-color="#889097"/>
<stop offset="1" stop-color="#4C5963"/>
</linearGradient>
<linearGradient id="paint7_linear_933_7487" x1="21.5833" y1="19.7685" x2="21.5833" y2="49.0694" gradientUnits="userSpaceOnUse">
<stop stop-color="#FFCF54"/>
<stop offset="0.261" stop-color="#FDCB4D"/>
<stop offset="0.639" stop-color="#F7C13A"/>
<stop offset="1" stop-color="#F0B421"/>
</linearGradient>
<linearGradient id="paint8_linear_933_7487" x1="30.8333" y1="19.7685" x2="30.8333" y2="49.0694" gradientUnits="userSpaceOnUse">
<stop stop-color="#FFCF54"/>
<stop offset="0.261" stop-color="#FDCB4D"/>
<stop offset="0.639" stop-color="#F7C13A"/>
<stop offset="1" stop-color="#F0B421"/>
</linearGradient>
<linearGradient id="paint9_linear_933_7487" x1="26.2109" y1="19.7691" x2="26.2109" y2="49.07" gradientUnits="userSpaceOnUse">
<stop stop-color="#FFCF54"/>
<stop offset="0.261" stop-color="#FDCB4D"/>
<stop offset="0.639" stop-color="#F7C13A"/>
<stop offset="1" stop-color="#F0B421"/>
</linearGradient>
<linearGradient id="paint10_linear_933_7487" x1="43.1693" y1="19.7685" x2="43.1693" y2="49.0694" gradientUnits="userSpaceOnUse">
<stop stop-color="#FFCF54"/>
<stop offset="0.261" stop-color="#FDCB4D"/>
<stop offset="0.639" stop-color="#F7C13A"/>
<stop offset="1" stop-color="#F0B421"/>
</linearGradient>
<linearGradient id="paint11_linear_933_7487" x1="52.4193" y1="19.7685" x2="52.4193" y2="49.0694" gradientUnits="userSpaceOnUse">
<stop stop-color="#FFCF54"/>
<stop offset="0.261" stop-color="#FDCB4D"/>
<stop offset="0.639" stop-color="#F7C13A"/>
<stop offset="1" stop-color="#F0B421"/>
</linearGradient>
<linearGradient id="paint12_linear_933_7487" x1="47.7891" y1="19.7691" x2="47.7891" y2="49.07" gradientUnits="userSpaceOnUse">
<stop stop-color="#FFCF54"/>
<stop offset="0.261" stop-color="#FDCB4D"/>
<stop offset="0.639" stop-color="#F7C13A"/>
<stop offset="1" stop-color="#F0B421"/>
</linearGradient>
<linearGradient id="paint13_linear_933_7487" x1="37.0026" y1="30.742" x2="37.0026" y2="43.4408" gradientUnits="userSpaceOnUse">
<stop stop-color="#889097"/>
<stop offset="1" stop-color="#4C5963"/>
</linearGradient>
<linearGradient id="paint14_linear_933_7487" x1="33.1484" y1="30.7421" x2="33.1484" y2="43.4408" gradientUnits="userSpaceOnUse">
<stop stop-color="#889097"/>
<stop offset="1" stop-color="#4C5963"/>
</linearGradient>
<linearGradient id="paint15_linear_933_7487" x1="40.8516" y1="30.7421" x2="40.8516" y2="43.4408" gradientUnits="userSpaceOnUse">
<stop stop-color="#889097"/>
<stop offset="1" stop-color="#4C5963"/>
</linearGradient>
<linearGradient id="paint16_linear_933_7487" x1="29.2917" y1="30.7424" x2="29.2917" y2="43.4411" gradientUnits="userSpaceOnUse">
<stop stop-color="#889097"/>
<stop offset="1" stop-color="#4C5963"/>
</linearGradient>
<linearGradient id="paint17_linear_933_7487" x1="44.7057" y1="30.7424" x2="44.7057" y2="43.4411" gradientUnits="userSpaceOnUse">
<stop stop-color="#889097"/>
<stop offset="1" stop-color="#4C5963"/>
</linearGradient>
<linearGradient id="paint18_linear_933_7487" x1="26.2057" y1="28.6562" x2="26.2057" y2="37.0074" gradientUnits="userSpaceOnUse">
<stop stop-color="#889097"/>
<stop offset="1" stop-color="#4C5963"/>
</linearGradient>
<linearGradient id="paint19_linear_933_7487" x1="47.7917" y1="28.6562" x2="47.7917" y2="37.0074" gradientUnits="userSpaceOnUse">
<stop stop-color="#889097"/>
<stop offset="1" stop-color="#4C5963"/>
</linearGradient>
</defs>
</svg>
