<svg width="38" height="39" viewBox="0 0 38 39" fill="none" xmlns="http://www.w3.org/2000/svg">
<path d="M18.75 0.75C8.39438 0.75 0 9.14438 0 19.5C0 29.8556 8.39438 38.25 18.75 38.25C29.1056 38.25 37.5 29.8556 37.5 19.5C37.5 9.14438 29.1056 0.75 18.75 0.75ZM18.75 15.75C20.8181 15.75 22.5 17.4319 22.5 19.5C22.5 21.5681 20.8181 23.25 18.75 23.25C16.6819 23.25 15 21.5681 15 19.5C15 17.4319 16.6819 15.75 18.75 15.75ZM18.75 17.625C18.2527 17.625 17.7758 17.8225 17.4242 18.1742C17.0725 18.5258 16.875 19.0027 16.875 19.5C16.875 19.9973 17.0725 20.4742 17.4242 20.8258C17.7758 21.1775 18.2527 21.375 18.75 21.375C19.2473 21.375 19.7242 21.1775 20.0758 20.8258C20.4275 20.4742 20.625 19.9973 20.625 19.5C20.625 19.0027 20.4275 18.5258 20.0758 18.1742C19.7242 17.8225 19.2473 17.625 18.75 17.625ZM2.86011 20.4375H12.2626C12.7201 23.6124 15.4513 26.0625 18.75 26.0625C22.0487 26.0625 24.7799 23.6124 25.2374 20.4375H34.6399C34.1506 28.7887 27.2218 35.4375 18.75 35.4375C10.2782 35.4375 3.34939 28.7887 2.86011 20.4375Z" fill="black"/>
</svg>
