<svg width="99" height="99" viewBox="0 0 99 99" fill="none" xmlns="http://www.w3.org/2000/svg">
<path d="M60.7126 0.773438H5.86824C4.47765 0.773438 3.14401 1.32585 2.16071 2.30915C1.17741 3.29245 0.625 4.62609 0.625 6.01668V92.5302C0.625 93.9208 1.17741 95.2544 2.16071 96.2377C3.14401 97.221 4.47765 97.7734 5.86824 97.7734H92.3818C93.7724 97.7734 95.106 97.221 96.0893 96.2377C97.0726 95.2544 97.625 93.9208 97.625 92.5302V37.6859" stroke="black" stroke-linecap="round" stroke-linejoin="round"/>
<path d="M42.025 56.7734H54.225V53.7734H50.1583V39.7734H46.5365L41.8344 44.0547L44.2807 46.5547C45.1703 45.7839 45.7528 45.1901 46.0281 44.7734H46.0917V53.7734H42.025V56.7734ZM58.2917 48.7734C58.2917 50.2318 58.0693 51.7109 57.6245 53.2109C57.1797 54.7109 56.5496 56.1068 55.7341 57.3984C54.9187 58.6901 53.8438 59.7422 52.5094 60.5547C51.175 61.3672 49.7135 61.7734 48.125 61.7734C46.5365 61.7734 45.075 61.3672 43.7406 60.5547C42.4062 59.7422 41.3313 58.6901 40.5159 57.3984C39.7004 56.1068 39.0703 54.7109 38.6255 53.2109C38.1807 51.7109 37.9583 50.2318 37.9583 48.7734C37.9583 47.3151 38.1807 45.8359 38.6255 44.3359C39.0703 42.8359 39.7004 41.4401 40.5159 40.1484C41.3313 38.8568 42.4062 37.8047 43.7406 36.9922C45.075 36.1797 46.5365 35.7734 48.125 35.7734C49.7135 35.7734 51.175 36.1797 52.5094 36.9922C53.8438 37.8047 54.9187 38.8568 55.7341 40.1484C56.5496 41.4401 57.1797 42.8359 57.6245 44.3359C58.0693 45.8359 58.2917 47.3151 58.2917 48.7734ZM74.5583 56.7734V40.7734C72.3132 40.7734 70.3964 39.9922 68.8078 38.4297C67.2193 36.8672 66.425 34.9818 66.425 32.7734H29.825C29.825 34.9818 29.0307 36.8672 27.4422 38.4297C25.8536 39.9922 23.9368 40.7734 21.6917 40.7734V56.7734C23.9368 56.7734 25.8536 57.5547 27.4422 59.1172C29.0307 60.6797 29.825 62.5651 29.825 64.7734H66.425C66.425 62.5651 67.2193 60.6797 68.8078 59.1172C70.3964 57.5547 72.3132 56.7734 74.5583 56.7734ZM78.625 30.7734V66.7734C78.625 67.3151 78.4238 67.7839 78.0214 68.1797C77.6189 68.5755 77.1424 68.7734 76.5917 68.7734H19.6583C19.1076 68.7734 18.6311 68.5755 18.2286 68.1797C17.8262 67.7839 17.625 67.3151 17.625 66.7734V30.7734C17.625 30.2318 17.8262 29.763 18.2286 29.3672C18.6311 28.9714 19.1076 28.7734 19.6583 28.7734H76.5917C77.1424 28.7734 77.6189 28.9714 78.0214 29.3672C78.4238 29.763 78.625 30.2318 78.625 30.7734Z" fill="#A75B41"/>
</svg>
