<svg width="97" height="97" viewBox="0 0 97 97" fill="none" xmlns="http://www.w3.org/2000/svg">
<path d="M88.9193 48.4997C88.9193 70.8198 70.8227 88.9163 48.5026 88.9163C26.1825 88.9163 8.08594 70.8198 8.08594 48.4997C8.08594 26.1796 26.1825 8.08301 48.5026 8.08301C70.8227 8.08301 88.9193 26.1796 88.9193 48.4997Z" fill="url(#paint0_linear_933_7650)"/>
<path d="M48.0378 69.7346C48.5026 71.1148 48.0378 72.9598 47.575 73.8874C47.1204 75.2697 46.6576 77.1147 45.73 78.0321C44.8126 78.9597 43.885 79.4245 42.9675 79.8852C41.5853 80.8027 40.6598 82.6477 39.2775 84.038C39.2775 84.4927 37.4325 86.8389 36.9697 86.8389C36.7979 86.9299 36.6343 87.0127 36.4685 87.0956C33.7445 86.2468 31.1578 85.099 28.7146 83.7228C28.6984 83.6743 28.6803 83.6278 28.6621 83.5773C28.6621 83.1145 28.2074 80.344 28.2074 79.8873C27.7446 78.4989 27.2798 76.6539 26.8191 75.2717C25.9016 72.9639 24.0566 70.6561 24.0566 67.8936C24.0566 65.5838 24.5113 63.2861 23.129 61.433C21.284 59.1252 17.594 59.1252 15.7489 57.743C12.9764 55.8979 10.2139 53.1355 8.83162 50.3629C8.50223 49.8173 8.27994 49.31 8.09806 48.8109C8.10008 48.7038 8.08594 48.6048 8.08594 48.4997C8.08594 37.6761 12.3661 27.867 19.2975 20.6122C23.0886 17.5466 30.4828 16.136 34.9711 17.49C36.3534 17.9447 41.3266 20.9193 41.3266 22.3016C41.3266 22.7644 41.3266 22.7644 40.8639 23.2292C40.4092 23.6919 39.9444 23.6919 39.4816 23.6919C38.0994 23.6919 33.7445 22.6876 33.2797 22.2228C30.5071 21.2972 26.3624 27.2951 25.9016 29.1401C25.4388 30.5284 25.4388 31.7348 27.7466 32.1976C29.1289 32.1976 35.45 30.7749 36.3776 30.3122C40.0676 29.8575 42.9231 31.0963 43.8506 34.3316C45.2329 38.0217 37.4345 41.5884 34.6619 42.516C33.7445 42.9788 33.2817 42.0532 32.3541 42.516C30.0544 43.4334 28.6944 45.4947 28.4196 48.2531C28.1872 50.5872 29.9776 52.8627 29.5229 55.1704C29.0602 55.1704 28.1124 55.1644 28.1124 54.7016V53.7842C28.1124 52.3918 25.6288 50.5488 24.2465 50.086C23.7838 49.6334 23.131 50.3609 22.6683 50.3609C21.286 50.3609 19.9058 48.9725 18.5235 49.8981C17.596 50.8155 16.6785 52.2059 16.6785 53.5881C16.6785 54.0529 16.6785 54.5157 17.1332 54.9704C18.0608 55.4332 18.9782 54.5157 19.9058 54.9704C20.8233 54.9704 20.8233 55.8979 20.8233 56.3587C21.7508 57.7409 22.6683 59.586 24.0566 60.0487H33.2797C34.6619 60.5115 36.9697 60.9662 37.8953 61.8938C38.3479 62.8112 38.3479 63.7388 38.8127 64.6562C41.1205 66.964 43.883 66.964 46.6535 67.8896C47.575 68.3523 48.0398 68.807 48.0378 69.7346ZM73.8115 17.0151C73.6074 17.0757 73.4033 17.1303 73.2033 17.2172C71.821 17.6799 68.2138 24.3406 67.2903 25.7208C66.8275 26.1836 66.3728 27.1031 66.8275 27.5659C66.8275 28.0286 67.2903 28.0286 67.7551 28.0286C68.6725 28.4914 68.7978 28.6834 69.7234 29.1381C70.1861 29.1381 70.6408 29.6008 70.1861 30.0656C70.1861 30.0656 70.1861 30.5284 69.7234 30.5284C67.4156 32.8362 65.1078 34.6812 62.8061 36.9809C62.3413 37.4477 62.0321 38.3753 62.0321 38.828C62.0321 39.2907 62.3413 39.2907 62.3413 39.7555C62.3413 40.2203 61.8785 40.2183 61.4137 40.673C60.4963 41.1358 59.5687 41.6005 59.1059 42.0613C58.6512 42.9788 59.1059 44.3691 58.6512 45.2886C58.1864 47.5964 56.7981 49.4414 55.8786 51.7492C54.9511 53.1314 54.1246 54.5117 53.197 55.902C53.197 57.747 52.7342 59.1293 53.6598 60.5095C55.9676 63.7428 60.5872 60.6489 63.8145 62.0292C64.7319 62.4919 65.5221 62.5768 66.1223 63.4114C67.2681 65.0018 67.4075 68.3523 67.8723 69.7427C68.327 71.5877 68.7898 73.4327 69.7173 75.2777C70.176 77.5653 71.0814 79.8509 71.5482 81.6777C82.0404 74.3744 88.9193 62.2474 88.9193 48.4997C88.9193 35.7664 83.0164 24.4235 73.8115 17.0151ZM57.8146 18.9086C59.1888 18.0255 60.1083 16.2654 60.569 14.9458C61.0197 14.0606 62.4019 12.3025 61.9432 10.9829C61.5855 10.2958 60.1305 9.88357 59.0675 9.52588C55.6927 8.61449 52.1644 8.08301 48.5026 8.08301C47.573 8.08301 46.6616 8.1598 45.7482 8.22244C44.9783 8.48919 44.3154 8.94186 44.0649 9.66532C43.6041 11.866 45.439 11.4234 47.2699 11.866C47.2699 11.866 47.7306 15.3863 47.7306 15.8289C48.1914 18.0295 46.8112 21.37 46.8112 23.5646C46.8112 24.8903 46.8112 27.091 47.7306 27.97H48.1914C48.6522 27.97 49.1028 27.5275 50.0243 27.095C51.3985 26.2099 52.7787 22.8735 54.1508 21.9884C55.523 21.1113 56.8951 19.7857 57.8146 18.9086Z" fill="url(#paint1_linear_933_7650)"/>
<path opacity="0.05" d="M48.5 24.25C35.1281 24.25 24.25 35.1281 24.25 48.5C24.25 61.8719 35.1281 72.75 48.5 72.75C61.8719 72.75 72.75 61.8719 72.75 48.5C72.75 35.1281 61.8719 24.25 48.5 24.25Z" fill="black"/>
<path opacity="0.07" d="M48.4974 25.2607C35.6833 25.2607 25.2578 35.6862 25.2578 48.5003C25.2578 61.3144 35.6833 71.7399 48.4974 71.7399C61.3115 71.7399 71.737 61.3144 71.737 48.5003C71.737 35.6862 61.3115 25.2607 48.4974 25.2607Z" fill="black"/>
<path d="M48.5026 70.7288C60.7794 70.7288 70.7318 60.7765 70.7318 48.4997C70.7318 36.2228 60.7794 26.2705 48.5026 26.2705C36.2258 26.2705 26.2734 36.2228 26.2734 48.4997C26.2734 60.7765 36.2258 70.7288 48.5026 70.7288Z" fill="url(#paint2_linear_933_7650)"/>
<path d="M55.5703 46.4795C57.2444 46.4795 58.6016 45.1224 58.6016 43.4482C58.6016 41.7741 57.2444 40.417 55.5703 40.417C53.8962 40.417 52.5391 41.7741 52.5391 43.4482C52.5391 45.1224 53.8962 46.4795 55.5703 46.4795Z" fill="#343434"/>
<path d="M41.4297 46.4795C43.1038 46.4795 44.4609 45.1224 44.4609 43.4482C44.4609 41.7741 43.1038 40.417 41.4297 40.417C39.7556 40.417 38.3984 41.7741 38.3984 43.4482C38.3984 45.1224 39.7556 46.4795 41.4297 46.4795Z" fill="#343434"/>
<path d="M48.4968 62.6455C43.1982 62.6455 38.2411 60.0528 35.2341 55.7121C34.5996 54.7946 34.8279 53.5356 35.7454 52.8991C36.6629 52.2625 37.9198 52.4929 38.5584 53.4103C40.8076 56.6639 44.5239 58.6039 48.4968 58.6039C52.4698 58.6039 56.1861 56.6639 58.4353 53.4124C59.0678 52.4949 60.3268 52.2645 61.2483 52.9011C62.1658 53.5356 62.3941 54.7966 61.7596 55.7141C58.7526 60.0528 53.7955 62.6455 48.4968 62.6455Z" fill="#343434"/>
<defs>
<linearGradient id="paint0_linear_933_7650" x1="19.924" y1="19.921" x2="77.5763" y2="77.5734" gradientUnits="userSpaceOnUse">
<stop stop-color="#00BFFE"/>
<stop offset="1" stop-color="#1D55C4"/>
</linearGradient>
<linearGradient id="paint1_linear_933_7650" x1="20.6232" y1="19.5634" x2="78.0553" y2="76.9954" gradientUnits="userSpaceOnUse">
<stop stop-color="#3FEB73"/>
<stop offset="1" stop-color="#00E48B"/>
</linearGradient>
<linearGradient id="paint2_linear_933_7650" x1="32.9765" y1="32.9736" x2="64.1863" y2="64.1834" gradientUnits="userSpaceOnUse">
<stop stop-color="#FEDE00"/>
<stop offset="0.519" stop-color="#FECC00"/>
<stop offset="1" stop-color="#FFB700"/>
</linearGradient>
</defs>
</svg>
