<svg width="37" height="41" viewBox="0 0 37 41" fill="none" xmlns="http://www.w3.org/2000/svg">
<path d="M10.8438 0.59375V6.8623L10.8916 7.00586L12.2314 13.7051C10.132 15.2004 0.125 22.9703 0.125 35.8125V36.4346L0.555664 36.9131C0.555664 36.9131 0.998292 37.2839 1.6084 37.6309C2.21851 37.9778 3.13965 38.4144 4.47949 38.8271C7.15918 39.6526 11.4957 40.4062 18.5 40.4062C25.5043 40.4062 29.8408 39.6526 32.5205 38.8271C33.8604 38.4144 34.7815 37.9778 35.3916 37.6309C36.0017 37.2839 36.4443 36.9131 36.4443 36.9131L36.875 36.4346V35.8125C36.875 22.9703 26.868 15.2004 24.7686 13.7051L26.1084 7.00586L26.1562 6.8623V0.59375H23.0938V3.75195C21.2216 4.02112 19.8279 4.76282 18.8828 5.52246C18.6555 5.70191 18.5837 5.86939 18.4043 6.04883C17.4772 5.1217 16.1134 4.08691 13.9062 3.75195V0.59375H10.8438ZM23.0459 6.8623L21.6104 14.0879L21.3711 15.0928L22.2324 15.667C22.2324 15.667 33.2323 23.1199 33.7168 35.0469C33.3041 35.2682 32.7059 35.5374 31.6592 35.8604C30.9773 36.0697 30.098 36.285 29.0752 36.4824C28.6984 33.719 27.7354 30.83 26.8262 28.3955C25.6478 25.2493 24.4814 22.8926 24.4814 22.8926L21.7061 24.2324C21.7061 24.2324 22.8365 26.5054 23.9551 29.4961C24.8224 31.8049 25.6718 34.5624 26.0127 36.9131C23.973 37.1464 21.5386 37.3438 18.5 37.3438C15.4614 37.3438 13.027 37.1464 10.9873 36.9131C11.3223 34.5205 12.1776 31.7571 13.0449 29.4482C14.1635 26.4755 15.2939 24.2324 15.2939 24.2324L12.5186 22.8926C12.5186 22.8926 11.3522 25.2134 10.1738 28.3477C9.25867 30.7821 8.29566 33.6771 7.9248 36.4824C6.90198 36.285 6.02271 36.0697 5.34082 35.8604C4.29407 35.5374 3.69592 35.2682 3.2832 35.0469C3.7677 23.1199 14.7676 15.667 14.7676 15.667L15.6289 15.0928L15.3896 14.0879L13.9541 6.91016C16.3287 7.43054 17.0645 8.96777 17.0645 8.96777L17.4951 9.78125H19.457L19.8877 8.91992C19.9116 8.86609 19.8877 8.8302 20.0312 8.63281C20.1748 8.43543 20.444 8.19617 20.7969 7.91504C21.2874 7.52026 21.9991 7.08362 23.0459 6.8623Z" fill="black"/>
</svg>
