<svg width="61" height="61" viewBox="0 0 61 61" fill="none" xmlns="http://www.w3.org/2000/svg">
<path d="M25.4141 16.5212V21.6045L27.9557 24.1182H35.5947L43.2057 31.7712H48.2751L50.8307 29.2295V24.1462L44.4766 17.792H43.2057V8.89616L40.7352 6.35449H35.5096L25.4141 16.5212Z" fill="#5BC8EF"/>
<path d="M15.25 49.5625H11.4375V53.375H15.25V49.5625Z" fill="#BF6415"/>
<path d="M30.5 34.3125H26.6875V38.125H30.5V34.3125Z" fill="#BF6415"/>
<path d="M34.3125 30.5H30.5V34.3125H34.3125V30.5Z" fill="#BF6415"/>
<path d="M45.75 15.25H48.2917C48.9932 15.25 49.5625 15.8193 49.5625 16.5208V19.0625H45.75V15.25Z" fill="#BF6415"/>
<path d="M38.125 26.6875H34.3125V30.5H38.125V26.6875Z" fill="#BF6415"/>
<path d="M19.0625 45.75H15.25V49.5625H19.0625V45.75Z" fill="#BF6415"/>
<path d="M22.875 41.9375H19.0625V45.75H22.875V41.9375Z" fill="#BF6415"/>
<path d="M26.6875 38.125H22.875V41.9375H26.6875V38.125Z" fill="#BF6415"/>
<path d="M15.25 49.5625H19.0625V52.1042C19.0625 52.8057 18.4932 53.375 17.7917 53.375H15.25V49.5625Z" fill="#323538"/>
<path d="M34.3125 30.5H38.125V33.0417C38.125 33.7432 37.5557 34.3125 36.8542 34.3125H34.3125V30.5Z" fill="#323538"/>
<path d="M30.5 34.3125H34.3125V36.8542C34.3125 37.5557 33.7432 38.125 33.0417 38.125H30.5V34.3125Z" fill="#323538"/>
<path d="M41.9375 26.6875H38.125V30.5H41.9375V26.6875Z" fill="#323538"/>
<path d="M11.4375 53.375V49.5625H8.89583C8.19433 49.5625 7.625 50.1318 7.625 50.8333V55.9167C7.625 56.6182 8.19433 57.1875 8.89583 57.1875H13.9792C14.6807 57.1875 15.25 56.6182 15.25 55.9167V53.375H11.4375Z" fill="#323538"/>
<path d="M12.7083 45.75H15.25V49.5625H11.4375V47.0208C11.4375 46.3193 12.0068 45.75 12.7083 45.75Z" fill="#323538"/>
<path d="M27.9583 30.5H30.5V34.3125H26.6875V31.7708C26.6875 31.0693 27.2568 30.5 27.9583 30.5Z" fill="#323538"/>
<path d="M31.7708 26.6875H34.3125V30.5H30.5V27.9583C30.5 27.2568 31.0693 26.6875 31.7708 26.6875Z" fill="#323538"/>
<path d="M38.125 22.875H34.3125V26.6875H38.125V22.875Z" fill="#323538"/>
<path d="M45.75 15.25H41.9375V19.0625H45.75V15.25Z" fill="#323538"/>
<path d="M49.5625 19.0625H45.75V22.875H49.5625V19.0625Z" fill="#323538"/>
<path d="M22.875 41.9375H26.6875V44.4792C26.6875 45.1807 26.1182 45.75 25.4167 45.75H22.875V41.9375Z" fill="#323538"/>
<path d="M19.0625 45.75H22.875V48.2917C22.875 48.9932 22.3057 49.5625 21.6042 49.5625H19.0625V45.75Z" fill="#323538"/>
<path d="M26.6875 38.125H30.5V40.6667C30.5 41.3682 29.9307 41.9375 29.2292 41.9375H26.6875V38.125Z" fill="#323538"/>
<path d="M16.5208 41.9375H19.0625V45.75H15.25V43.2083C15.25 42.5068 15.8193 41.9375 16.5208 41.9375Z" fill="#323538"/>
<path d="M20.3333 38.125H22.875V41.9375H19.0625V39.3958C19.0625 38.6943 19.6318 38.125 20.3333 38.125Z" fill="#323538"/>
<path d="M24.1458 34.3125H26.6875V38.125H22.875V35.5833C22.875 34.8818 23.4443 34.3125 24.1458 34.3125Z" fill="#323538"/>
<path d="M44.4792 7.625C45.1807 7.625 45.75 8.19433 45.75 8.89583V11.4375V15.25H41.9375V11.4375V7.625H44.4792ZM49.5625 22.875V26.6875V30.5H52.1042C52.8057 30.5 53.375 29.9307 53.375 29.2292V26.6875V24.1458C53.375 23.4443 52.8057 22.875 52.1042 22.875H49.5625ZM41.9375 5.08333C41.9375 4.38183 41.3682 3.8125 40.6667 3.8125H38.125H35.5833C34.8818 3.8125 34.3125 4.38183 34.3125 5.08333V7.625H38.125H41.9375V5.08333ZM34.3125 22.875H30.5H26.6875V25.4167C26.6875 26.1182 27.2568 26.6875 27.9583 26.6875H30.5H34.3125V22.875ZM49.5625 30.5H45.75H41.9375V33.0417C41.9375 33.7432 42.5068 34.3125 43.2083 34.3125H45.75H48.2917C48.9932 34.3125 49.5625 33.7432 49.5625 33.0417V30.5ZM26.6875 22.875V19.0625V15.25H24.1458C23.4443 15.25 22.875 15.8193 22.875 16.5208V19.0625V21.6042C22.875 22.3057 23.4443 22.875 24.1458 22.875H26.6875ZM34.3125 7.625H31.7708C31.0693 7.625 30.5 8.19433 30.5 8.89583V11.4375H34.3125V7.625ZM30.5 11.4375H27.9583C27.2568 11.4375 26.6875 12.0068 26.6875 12.7083V15.25H30.5V11.4375Z" fill="url(#paint0_linear_933_7546)"/>
<defs>
<linearGradient id="paint0_linear_933_7546" x1="26.6799" y1="7.58942" x2="50.6681" y2="31.6641" gradientUnits="userSpaceOnUse">
<stop stop-color="#2AA4F4"/>
<stop offset="1" stop-color="#007AD9"/>
</linearGradient>
</defs>
</svg>
