<svg width="64" height="64" viewBox="0 0 64 64" fill="none" xmlns="http://www.w3.org/2000/svg">
<path d="M14.6641 12L6.66406 20V28L30.6641 52H33.3307L57.3307 28V19.94L49.3307 12H41.3307L34.6641 18.6667H29.3307L22.6641 12H14.6641Z" fill="url(#paint0_linear_933_7519)"/>
<path d="M7.9974 29.3337H3.9974C3.2614 29.3337 2.66406 28.7363 2.66406 28.0003V20.0003C2.66406 19.2643 3.2614 18.667 3.9974 18.667H7.9974V29.3337Z" fill="url(#paint1_linear_933_7519)"/>
<path d="M13.3333 18.6663H8V14.6663C8 13.9303 8.59733 13.333 9.33333 13.333H13.3333V18.6663Z" fill="url(#paint2_linear_933_7519)"/>
<path d="M29.3333 18.6663H24V13.333H28C28.736 13.333 29.3333 13.9303 29.3333 14.6663V18.6663Z" fill="url(#paint3_linear_933_7519)"/>
<path d="M18.6693 18.667H13.3359V24.0003H18.6693V18.667Z" fill="white"/>
<path d="M34.6693 18.667H29.3359V24.0003H34.6693V18.667Z" fill="url(#paint4_linear_933_7519)"/>
<path d="M39.9974 18.6663H34.6641V14.6663C34.6641 13.9303 35.2614 13.333 35.9974 13.333H39.9974V18.6663Z" fill="url(#paint5_linear_933_7519)"/>
<path d="M13.3333 34.6663H9.33333C8.59733 34.6663 8 34.069 8 33.333V29.333H13.3333V34.6663Z" fill="url(#paint6_linear_933_7519)"/>
<path d="M18.6693 40.0003H14.6693C13.9333 40.0003 13.3359 39.403 13.3359 38.667V34.667H18.6693V40.0003Z" fill="url(#paint7_linear_933_7519)"/>
<path d="M23.9974 45.3333H19.9974C19.2614 45.3333 18.6641 44.736 18.6641 44V40H23.9974V45.3333Z" fill="url(#paint8_linear_933_7519)"/>
<path d="M29.3333 50.6663H25.3333C24.5973 50.6663 24 50.069 24 49.333V45.333H29.3333V50.6663Z" fill="url(#paint9_linear_933_7519)"/>
<path d="M33.3359 56.0003H30.6693C29.9333 56.0003 29.3359 55.403 29.3359 54.667V50.667H34.6693V54.667C34.6693 55.403 34.0719 56.0003 33.3359 56.0003Z" fill="url(#paint10_linear_933_7519)"/>
<path d="M56 29.3337H60C60.736 29.3337 61.3333 28.7363 61.3333 28.0003V20.0003C61.3333 19.2643 60.736 18.667 60 18.667H56V29.3337Z" fill="url(#paint11_linear_933_7519)"/>
<path d="M50.6641 34.6663H54.6641C55.4001 34.6663 55.9974 34.069 55.9974 33.333V29.333H50.6641V34.6663Z" fill="url(#paint12_linear_933_7519)"/>
<path d="M45.3359 40.0003H49.3359C50.0719 40.0003 50.6693 39.403 50.6693 38.667V34.667H45.3359V40.0003Z" fill="url(#paint13_linear_933_7519)"/>
<path d="M40 45.3333H44C44.736 45.3333 45.3333 44.736 45.3333 44V40H40V45.3333Z" fill="url(#paint14_linear_933_7519)"/>
<path d="M34.6641 50.6663H38.6641C39.4001 50.6663 39.9974 50.069 39.9974 49.333V45.333H34.6641V50.6663Z" fill="url(#paint15_linear_933_7519)"/>
<path d="M30.6693 56.0003H33.3359C34.0719 56.0003 34.6693 55.403 34.6693 54.667V50.667H29.3359V54.667C29.3359 55.403 29.9333 56.0003 30.6693 56.0003Z" fill="url(#paint16_linear_933_7519)"/>
<path d="M24.0026 13.3333H13.3359V9.33333C13.3359 8.59733 13.9333 8 14.6693 8H22.6693C23.4053 8 24.0026 8.59733 24.0026 9.33333V13.3333Z" fill="url(#paint17_linear_933_7519)"/>
<path d="M50.6641 18.6663H55.9974V14.6663C55.9974 13.9303 55.4001 13.333 54.6641 13.333H50.6641V18.6663Z" fill="url(#paint18_linear_933_7519)"/>
<path d="M40 13.3333H50.6667V9.33333C50.6667 8.59733 50.0693 8 49.3333 8H41.3333C40.5973 8 40 8.59733 40 9.33333V13.3333Z" fill="url(#paint19_linear_933_7519)"/>
<defs>
<linearGradient id="paint0_linear_933_7519" x1="29.4281" y1="9.39733" x2="36.8307" y2="51.3827" gradientUnits="userSpaceOnUse">
<stop stop-color="#F44F5A"/>
<stop offset="0.443" stop-color="#EE3D4A"/>
<stop offset="1" stop-color="#E52030"/>
</linearGradient>
<linearGradient id="paint1_linear_933_7519" x1="4.5094" y1="18.7363" x2="6.30273" y2="28.903" gradientUnits="userSpaceOnUse">
<stop stop-color="#636363"/>
<stop offset="1" stop-color="#444444"/>
</linearGradient>
<linearGradient id="paint2_linear_933_7519" x1="10.1667" y1="13.165" x2="11.2027" y2="19.0423" gradientUnits="userSpaceOnUse">
<stop stop-color="#636363"/>
<stop offset="1" stop-color="#444444"/>
</linearGradient>
<linearGradient id="paint3_linear_933_7519" x1="26.0267" y1="12.9757" x2="27.0987" y2="19.061" gradientUnits="userSpaceOnUse">
<stop stop-color="#636363"/>
<stop offset="1" stop-color="#444444"/>
</linearGradient>
<linearGradient id="paint4_linear_933_7519" x1="31.4666" y1="18.291" x2="32.5386" y2="24.3763" gradientUnits="userSpaceOnUse">
<stop stop-color="#636363"/>
<stop offset="1" stop-color="#444444"/>
</linearGradient>
<linearGradient id="paint5_linear_933_7519" x1="36.8307" y1="13.165" x2="37.8667" y2="19.0423" gradientUnits="userSpaceOnUse">
<stop stop-color="#636363"/>
<stop offset="1" stop-color="#444444"/>
</linearGradient>
<linearGradient id="paint6_linear_933_7519" x1="10.2347" y1="28.9383" x2="11.3067" y2="35.0237" gradientUnits="userSpaceOnUse">
<stop stop-color="#636363"/>
<stop offset="1" stop-color="#444444"/>
</linearGradient>
<linearGradient id="paint7_linear_933_7519" x1="15.5706" y1="34.2723" x2="16.6426" y2="40.3577" gradientUnits="userSpaceOnUse">
<stop stop-color="#636363"/>
<stop offset="1" stop-color="#444444"/>
</linearGradient>
<linearGradient id="paint8_linear_933_7519" x1="20.8987" y1="39.6053" x2="21.9707" y2="45.6907" gradientUnits="userSpaceOnUse">
<stop stop-color="#636363"/>
<stop offset="1" stop-color="#444444"/>
</linearGradient>
<linearGradient id="paint9_linear_933_7519" x1="26.2347" y1="44.9397" x2="27.3067" y2="51.0237" gradientUnits="userSpaceOnUse">
<stop stop-color="#636363"/>
<stop offset="1" stop-color="#444444"/>
</linearGradient>
<linearGradient id="paint10_linear_933_7519" x1="31.5706" y1="50.2737" x2="32.6066" y2="56.1497" gradientUnits="userSpaceOnUse">
<stop stop-color="#636363"/>
<stop offset="1" stop-color="#444444"/>
</linearGradient>
<linearGradient id="paint11_linear_933_7519" x1="59.488" y1="18.7363" x2="57.6947" y2="28.903" gradientUnits="userSpaceOnUse">
<stop stop-color="#636363"/>
<stop offset="1" stop-color="#444444"/>
</linearGradient>
<linearGradient id="paint12_linear_933_7519" x1="53.7627" y1="28.9383" x2="52.6907" y2="35.0237" gradientUnits="userSpaceOnUse">
<stop stop-color="#636363"/>
<stop offset="1" stop-color="#444444"/>
</linearGradient>
<linearGradient id="paint13_linear_933_7519" x1="48.4346" y1="34.2723" x2="47.3626" y2="40.3577" gradientUnits="userSpaceOnUse">
<stop stop-color="#636363"/>
<stop offset="1" stop-color="#444444"/>
</linearGradient>
<linearGradient id="paint14_linear_933_7519" x1="43.0987" y1="39.6053" x2="42.0267" y2="45.6907" gradientUnits="userSpaceOnUse">
<stop stop-color="#636363"/>
<stop offset="1" stop-color="#444444"/>
</linearGradient>
<linearGradient id="paint15_linear_933_7519" x1="37.7627" y1="44.9397" x2="36.6907" y2="51.0237" gradientUnits="userSpaceOnUse">
<stop stop-color="#636363"/>
<stop offset="1" stop-color="#444444"/>
</linearGradient>
<linearGradient id="paint16_linear_933_7519" x1="32.4346" y1="50.2737" x2="31.3986" y2="56.1497" gradientUnits="userSpaceOnUse">
<stop stop-color="#636363"/>
<stop offset="1" stop-color="#444444"/>
</linearGradient>
<linearGradient id="paint17_linear_933_7519" x1="18.0959" y1="8.02" x2="18.9386" y2="12.8" gradientUnits="userSpaceOnUse">
<stop stop-color="#636363"/>
<stop offset="1" stop-color="#444444"/>
</linearGradient>
<linearGradient id="paint18_linear_933_7519" x1="53.8307" y1="13.165" x2="52.7947" y2="19.0423" gradientUnits="userSpaceOnUse">
<stop stop-color="#636363"/>
<stop offset="1" stop-color="#444444"/>
</linearGradient>
<linearGradient id="paint19_linear_933_7519" x1="45.9067" y1="8.02" x2="45.064" y2="12.8" gradientUnits="userSpaceOnUse">
<stop stop-color="#636363"/>
<stop offset="1" stop-color="#444444"/>
</linearGradient>
</defs>
</svg>
