<svg width="37" height="39" viewBox="0 0 37 39" fill="none" xmlns="http://www.w3.org/2000/svg">
<path d="M19.7163 0.623691C16.2579 0.702725 11.9314 2.57431 8.21118 5.50895C7.40391 6.14574 6.62618 6.83649 5.89429 7.57315C4.21988 7.25048 3.02319 7.24601 3.02319 7.24601C2.94037 7.24483 2.85815 7.26014 2.78129 7.29102C2.70444 7.3219 2.63449 7.36775 2.5755 7.42591C2.51652 7.48406 2.46969 7.55335 2.43772 7.62976C2.40575 7.70617 2.38929 7.78818 2.38929 7.87101C2.38929 7.95383 2.40575 8.03584 2.43772 8.11225C2.46969 8.18866 2.51652 8.25795 2.5755 8.31611C2.63449 8.37426 2.70444 8.42011 2.78129 8.45099C2.85815 8.48188 2.94037 8.49718 3.02319 8.49601C3.02319 8.49601 3.76823 8.50444 4.87744 8.66935C2.29269 11.6241 0.5 15.2072 0.5 19.1003C0.5 29.547 4.35132 38.0712 4.35132 38.0712C4.38333 38.1486 4.43056 38.2188 4.49022 38.2776C4.54988 38.3363 4.62074 38.3825 4.6986 38.4134C4.77646 38.4443 4.85973 38.4592 4.94346 38.4572C5.02719 38.4553 5.10968 38.4365 5.18602 38.4021C5.26236 38.3676 5.331 38.3182 5.38786 38.2567C5.44473 38.1952 5.48865 38.1229 5.51703 38.0441C5.5454 37.9653 5.55765 37.8816 5.55305 37.798C5.54845 37.7143 5.52709 37.6325 5.49023 37.5573C5.49023 37.5573 4.78873 35.9463 3.99731 33.3727C4.47975 33.9869 5.02131 34.6436 5.66724 35.3393C5.72257 35.4014 5.78975 35.4519 5.86484 35.4877C5.93993 35.5236 6.02142 35.544 6.10453 35.548C6.18765 35.5519 6.27071 35.5392 6.34885 35.5106C6.42699 35.482 6.49863 35.4381 6.55958 35.3815C6.62053 35.3248 6.66956 35.2566 6.70379 35.1808C6.73802 35.1049 6.75676 35.023 6.75892 34.9398C6.76108 34.8567 6.74661 34.7739 6.71636 34.6964C6.68611 34.6189 6.64069 34.5482 6.58276 34.4884C4.49435 32.2392 3.2417 30.1623 3.2417 30.1623C3.19812 30.0876 3.13951 30.0227 3.06958 29.9718C2.35069 26.9135 1.75 23.1593 1.75 19.1003C1.75 15.3644 3.62074 11.8317 6.31543 8.94522C8.37318 9.42652 10.9791 10.4288 12.8962 12.5255C12.0887 12.1083 11.1456 11.7981 10.0984 11.7736C9.60907 11.7621 9.09791 11.8125 8.56763 11.9433C7.49534 12.2078 6.69527 12.7696 6.16895 13.4789C5.64262 14.1882 5.38099 15.0205 5.2522 15.8459C4.99461 17.4966 5.24487 19.2053 5.24487 20.0353C5.24487 21.1823 5.90492 22.1661 6.93188 22.6C7.95885 23.0339 9.28877 23.0011 10.8101 22.5011C12.5466 21.9304 13.743 20.1549 14.6028 18.5802C15.4023 17.116 15.8396 15.8688 15.9028 15.6859C15.9516 15.6033 15.9808 15.5106 15.988 15.4149C15.9952 15.3192 15.9802 15.2232 15.9443 15.1342C14.2574 10.6994 10.4062 8.76006 7.34448 7.91007C7.87085 7.41337 8.41843 6.9374 8.98511 6.49039C13.0368 3.29426 17.9585 1.51595 20.9663 1.93961C21.6779 2.03979 22.4533 2.33428 23.2551 2.76725C20.9112 4.13661 19.521 5.89738 18.7153 7.48526C18.7728 6.90353 18.8759 6.40414 18.9949 5.99356C19.2953 4.95666 19.6516 4.50919 19.6516 4.50919C19.7234 4.41876 19.7687 4.31021 19.7826 4.19559C19.7964 4.08097 19.7783 3.96475 19.7301 3.85982C19.6819 3.75489 19.6056 3.66536 19.5097 3.60114C19.4137 3.53692 19.3019 3.50053 19.1865 3.49601C19.085 3.492 18.984 3.51281 18.8923 3.55663C18.8007 3.60044 18.7211 3.66595 18.6604 3.74747C18.6604 3.74747 18.1456 4.431 17.7937 5.64566C17.4476 6.84008 17.2297 8.59736 17.6533 10.8776C17.5995 11.3038 17.5813 11.6137 17.5813 11.6137C17.5801 11.6965 17.5954 11.7787 17.6263 11.8556C17.6572 11.9324 17.703 12.0024 17.7612 12.0614C17.8194 12.1204 17.8886 12.1672 17.9651 12.1992C18.0415 12.2311 18.1235 12.2476 18.2063 12.2476C18.2891 12.2476 18.3711 12.2311 18.4475 12.1992C18.524 12.1672 18.5932 12.1204 18.6514 12.0614C18.7096 12.0024 18.7554 11.9324 18.7863 11.8556C18.8172 11.7787 18.8325 11.6965 18.8313 11.6137C18.8313 11.6137 18.8458 11.3727 18.8862 11.0412C18.9029 10.9833 18.9111 10.9232 18.9106 10.8629C19.0009 10.2513 19.2024 9.33998 19.7188 8.25797C20.473 6.67747 21.8518 4.86289 24.4661 3.52408C25.9203 4.55837 27.4189 6.0435 28.7971 7.92228C31.344 11.3942 33.4956 16.1129 34.4062 21.3573C34.4103 21.3804 34.4156 21.4032 34.4221 21.4257V21.4269L34.4233 21.4281C34.451 21.5211 34.5 21.6063 34.5663 21.6771C34.6326 21.7478 34.7145 21.8022 34.8054 21.8358C34.8058 21.8359 34.8062 21.8359 34.8066 21.8358C34.8754 21.8614 34.9481 21.8746 35.0215 21.8749C35.0219 21.8749 35.0223 21.8749 35.0227 21.8749C35.1197 21.8746 35.2154 21.8517 35.302 21.8081C35.3887 21.7645 35.464 21.7012 35.522 21.6234C35.573 21.5554 35.6096 21.4776 35.6296 21.3949C35.6495 21.3122 35.6524 21.2263 35.6379 21.1425C34.6923 15.6963 32.4714 10.8184 29.8042 7.18253C28.5426 5.46273 27.1847 4.02371 25.7979 2.92838C25.8711 2.90002 25.9404 2.87058 26.0151 2.84293C26.1542 2.79392 26.2715 2.69729 26.3463 2.57014C26.421 2.44299 26.4484 2.29351 26.4235 2.14812C26.3987 2.00274 26.3233 1.87082 26.2105 1.7757C26.0978 1.68058 25.9551 1.62838 25.8076 1.62833C25.7303 1.62849 25.6538 1.64298 25.5818 1.67105C25.2416 1.79687 24.9201 1.93253 24.6077 2.07267C23.4478 1.33856 22.2799 0.862181 21.1409 0.701816C20.6865 0.637821 20.2104 0.612401 19.7163 0.623691ZM24.8494 7.24601C24.7523 7.24598 24.6566 7.26855 24.5698 7.31192C24.5698 7.31192 22.9669 8.10185 21.634 9.39078C20.9676 10.0352 20.3511 10.8128 20.0581 11.7406C19.7651 12.6684 19.8522 13.7613 20.5354 14.7716C20.5358 14.7716 20.5362 14.7716 20.5366 14.7716C22.5287 17.7175 24.9018 18.5155 26.9453 18.5155C27.9671 18.5155 29.1596 18.3616 30.0972 17.882C30.566 17.6422 30.9945 17.3033 31.2202 16.7956C31.446 16.2878 31.3976 15.6601 31.1006 15.0744C30.6257 14.139 29.669 12.2492 28.575 10.5712C28.0279 9.73219 27.4499 8.94472 26.8513 8.33854C26.2528 7.73235 25.632 7.24601 24.8494 7.24601ZM24.9275 8.54728C25.1177 8.57589 25.498 8.74685 25.9614 9.21622C26.2037 9.46155 26.4578 9.76182 26.7146 10.0963C26.5245 10.0329 26.3254 10.0003 26.125 9.99991C25.6277 9.99991 25.1508 10.1975 24.7992 10.5491C24.4475 10.9007 24.25 11.3776 24.25 11.8749C24.25 12.3722 24.4475 12.8491 24.7992 13.2007C25.1508 13.5524 25.6277 13.7499 26.125 13.7499C26.5988 13.7499 27.0551 13.5705 27.402 13.2478C27.749 12.9251 27.9609 12.483 27.9951 12.0104C28.8424 13.4046 29.5841 14.8479 29.9861 15.6396C30.1635 15.9895 30.1411 16.145 30.0776 16.2878C30.0142 16.4305 29.8393 16.609 29.5271 16.7687C28.9027 17.0881 27.8217 17.2655 26.9453 17.2655C25.1926 17.2655 23.3759 16.7389 21.5718 14.071C21.0778 13.3404 21.0516 12.7434 21.2495 12.1166C21.4475 11.4898 21.9264 10.847 22.5032 10.2892C23.5247 9.30131 24.6499 8.69372 24.9275 8.54728ZM10.0862 13.0309C12.6106 13.1211 14.3142 15.1442 14.6113 15.5053C14.5132 15.7829 14.2083 16.6957 13.5066 17.9809C12.7059 19.4473 11.5297 20.9485 10.4194 21.3134C9.09384 21.749 8.05154 21.7155 7.41772 21.4477C6.78391 21.1799 6.49487 20.7596 6.49487 20.0353C6.49487 19.3386 6.40233 18.4039 6.40088 17.4474C6.6826 17.8565 7.15306 18.1249 7.6875 18.1249C8.55062 18.1249 9.25 17.4255 9.25 16.5624C9.25 15.6993 8.55062 14.9999 7.6875 14.9999C7.27375 14.9999 6.9001 15.1635 6.62061 15.4259C6.74328 14.9751 6.91985 14.5638 7.17236 14.2235C7.53566 13.7339 8.04117 13.3603 8.8667 13.1567C9.28533 13.0534 9.69331 13.0169 10.0862 13.0309ZM20.1033 18.2189C19.9296 18.21 19.756 18.2111 19.5833 18.2238C19.0757 18.2187 18.5977 18.2824 18.1538 18.4142C17.5672 18.5884 17.0494 18.875 16.595 19.237C15.7572 19.8316 14.8056 20.8475 14.4392 22.5341C13.9744 23.8826 13.7861 25.3305 13.7861 26.5856C13.7861 30.0112 11.0664 33.6925 11.0664 33.6925L10.6318 34.2638L11.2568 34.6154C14.8304 36.6291 18.4479 35.3559 21.3655 33.6779C22.8243 32.8389 24.1411 31.8926 25.2485 31.1742C26.356 30.4559 27.2925 30.0182 27.696 30.0182C29.2565 30.0182 30.4415 29.4883 31.0603 28.5729C31.6791 27.6575 31.651 26.4529 31.1006 25.3673C30.1992 23.59 27.8887 21.5237 24.3647 19.779C24.3494 19.7668 24.3335 19.7554 24.3171 19.7448C24.3171 19.7448 23.3598 19.1263 22.1321 18.6791C21.5182 18.4555 20.8125 18.2555 20.1033 18.2189ZM19.9849 19.4958C20.4716 19.5465 21.0103 19.6761 21.6145 19.9145V19.9157C22.2452 20.1644 22.837 20.4286 23.4028 20.7006C23.4455 20.8754 23.536 21.1925 23.4626 21.6039C23.4159 21.8665 23.3207 22.0733 23.1379 22.2301C22.9552 22.387 22.6479 22.5304 22.0417 22.5304C20.9037 22.5304 20.1947 21.772 19.698 20.8971C19.3535 20.2903 19.3126 19.9922 19.2256 19.6728C19.4695 19.5982 19.6989 19.502 19.9849 19.4958ZM17.8132 19.9743C17.9564 20.3659 18.1424 20.7925 18.304 21.6686C18.4152 22.2721 18.4615 22.8914 18.3906 23.3459C18.3197 23.8003 18.1826 24.0284 17.9304 24.1527C17.5979 24.3166 17.3817 24.3019 17.1333 24.2077C16.8849 24.1135 16.6158 23.9006 16.3813 23.6364C15.9952 23.2012 15.8225 22.8121 15.7454 22.6464C15.961 22.0785 16.2225 21.5456 16.5449 21.0961C16.8062 20.7317 17.0976 20.4196 17.425 20.1684C17.5622 20.0922 17.7 20.0189 17.8132 19.9743ZM24.7371 21.3879C27.5716 22.9663 29.374 24.7257 29.9861 25.9325C30.3845 26.7182 30.3553 27.3851 30.0251 27.8734C29.8904 28.0728 29.6875 28.2569 29.4124 28.4069C29.2941 28.1144 29.0586 27.5728 28.5981 26.9567C28.2917 26.5467 27.9081 26.1404 27.3884 25.8898C27.1286 25.7645 26.8269 25.6915 26.512 25.6884C26.197 25.6853 25.8683 25.7513 25.5525 25.9069C24.3179 26.515 23.8263 27.8463 23.5859 28.9367C23.5445 29.1247 23.5756 29.1137 23.5481 29.2895C23.245 28.9899 22.8784 28.6966 22.3958 28.5485C21.8823 28.391 21.2588 28.4181 20.6575 28.7145C19.4494 29.31 18.9994 30.6292 18.7666 31.7602C18.5275 31.3959 18.2816 31.0227 17.8816 30.7763C17.3831 30.4691 16.6735 30.3882 16.0322 30.7043C14.3651 31.526 13.3896 33.1894 13.0122 33.9513C12.84 33.8904 12.6672 33.8229 12.4946 33.7463C13.1276 32.8628 15.0361 30.053 15.0361 26.5856C15.0361 25.8627 15.1189 25.0561 15.2827 24.2553C15.3388 24.3258 15.3846 24.3957 15.4463 24.4652C15.7653 24.8248 16.1675 25.1777 16.6902 25.3759C17.2128 25.5741 17.8668 25.5785 18.4834 25.2746C19.1803 24.9311 19.5177 24.2235 19.6248 23.5375C19.6605 23.3082 19.6708 23.0744 19.6711 22.8393C20.2774 23.38 21.0572 23.7804 22.0417 23.7804C22.859 23.7804 23.5047 23.5627 23.9521 23.1786C24.3996 22.7945 24.6114 22.2811 24.6931 21.8224C24.7197 21.6733 24.7309 21.5288 24.7371 21.3879ZM35.3523 23.1029L34.8506 23.3532L34.7529 23.9049L35.135 24.3139L35.3523 24.3529L35.8528 24.1015L35.9517 23.5497L35.5684 23.1408L35.3523 23.1029ZM35.4902 25.5981L34.9897 25.8483L34.8909 26.4001L35.2742 26.809L35.4902 26.8481L35.9907 26.5966L36.0896 26.0461L35.7075 25.6371L35.4902 25.5981ZM26.5034 26.9189C26.6183 26.9205 26.7241 26.9569 26.8452 27.0153C27.0874 27.1321 27.3626 27.3911 27.5972 27.705C27.8835 28.088 28.0704 28.4607 28.1978 28.7438C28.0403 28.7587 27.8753 28.7682 27.696 28.7682C26.7077 28.7682 25.7713 29.3485 24.6711 30.0609C24.6997 29.7998 24.7381 29.5159 24.8066 29.2052C25.0111 28.2776 25.4407 27.3562 26.1055 27.0287C26.2645 26.9504 26.3885 26.9172 26.5034 26.9189ZM35.4304 28.0956L34.9299 28.3471L34.8311 28.8976L35.2131 29.3078L35.4304 29.3456L35.9309 29.0954L36.0298 28.5436L35.6477 28.1347L35.4304 28.0956ZM21.6609 29.6984C21.7925 29.6875 21.9109 29.7072 22.0295 29.7436C22.2669 29.8164 22.5105 29.9879 22.7253 30.2087C23.0023 30.4933 23.1731 30.775 23.2856 30.9801C22.4802 31.5204 21.6412 32.0766 20.7417 32.5939C20.438 32.7686 20.1308 32.934 19.8213 33.0907C19.8459 32.802 19.8809 32.4867 19.947 32.1422C20.1396 31.1387 20.5717 30.1512 21.2104 29.8363C21.3843 29.7506 21.5293 29.7093 21.6609 29.6984ZM35.1289 30.5749L34.6284 30.8263L34.5295 31.3769L34.9128 31.7858L35.1289 31.8249L35.6306 31.5734L35.7283 31.0229L35.3462 30.6139L35.1289 30.5749ZM16.9404 31.7272C17.0358 31.7337 17.1194 31.775 17.2261 31.8407C17.4394 31.9722 17.6943 32.2715 17.9023 32.6305C18.1177 33.0021 18.2784 33.4028 18.3882 33.7157C17.0537 34.2167 15.68 34.4694 14.2842 34.2638C14.6937 33.5497 15.498 32.3602 16.584 31.8249C16.7379 31.749 16.845 31.7207 16.9404 31.7272ZM34.4331 32.9748L33.9326 33.225L33.8337 33.7768L34.2158 34.1857L34.4331 34.2248L34.9336 33.9733L35.0325 33.4228L34.6492 33.0138L34.4331 32.9748ZM33.5798 35.3246L33.0793 35.5749L32.9805 36.1266L33.3638 36.5356L33.5798 36.5746L34.0803 36.3232L34.1792 35.7726L33.7971 35.3625L33.5798 35.3246ZM7.91455 36.0326L7.41406 36.2829L7.31519 36.8346L7.69727 37.2436L7.91455 37.2826L8.41504 37.0312L8.51392 36.4806L8.13184 36.0717L7.91455 36.0326ZM9.87134 37.5854L9.36963 37.8368L9.27197 38.3886L9.65405 38.7975L9.87134 38.8354L10.3718 38.5851L10.4707 38.0334L10.0874 37.6244L9.87134 37.5854ZM32.6448 37.6427L32.1443 37.8942L32.0454 38.4447L32.4287 38.8537L32.6448 38.8927L33.1465 38.6413L33.2441 38.0907L32.8621 37.6818L32.6448 37.6427Z" fill="black"/>
</svg>
