<svg width="40" height="41" viewBox="0 0 40 41" fill="none" xmlns="http://www.w3.org/2000/svg">
<path d="M24.2138 0.599609C23.5624 0.599609 23.0201 0.82653 22.6119 1.1293C22.2036 1.43206 21.9079 1.7872 21.6052 2.09961C20.9999 2.72443 20.4485 3.23516 18.9509 3.23516C18.14 3.23516 17.5989 3.01531 16.9834 2.75469C16.3678 2.49407 15.6689 2.18047 14.7416 2.18047C13.7374 2.18047 12.6367 2.49072 11.8048 3.35234C11.0227 4.16252 10.5588 5.45914 10.5017 7.22539C10.4125 7.17125 10.3376 7.1148 10.2451 7.06133C8.8162 6.23511 7.67049 5.90301 6.73765 5.92813C5.8048 5.95324 5.07851 6.38799 4.72671 6.99922C4.40174 7.56356 4.32691 8.14665 4.38452 8.65156C4.44217 9.15678 4.60088 9.59102 4.71968 10.0098C4.95727 10.8473 5.12331 11.5802 4.37397 12.8797C3.96817 13.5834 3.50673 13.9444 2.97358 14.348C2.44043 14.7517 1.82084 15.1998 1.35757 16.0039C0.855761 16.8745 0.57273 17.9844 0.901709 19.1363C1.21111 20.2197 2.10072 21.2713 3.60054 22.2043C3.50894 22.2547 3.42245 22.2913 3.32983 22.3449C1.90099 23.1711 1.04144 23.9988 0.597021 24.8199C0.152606 25.6411 0.164871 26.4872 0.517334 27.098C0.842814 27.6627 1.30989 28.0191 1.77593 28.2219C2.24196 28.4246 2.69628 28.5035 3.11772 28.6098C3.96061 28.8224 4.67728 29.0446 5.42632 30.3441C5.83212 31.0478 5.91455 31.6276 5.99702 32.2918C6.07949 32.956 6.15721 33.719 6.62046 34.523C7.12232 35.3937 7.93994 36.1929 9.10132 36.4836C10.1928 36.7568 11.547 36.5112 13.1021 35.6785C13.0999 35.7829 13.088 35.8764 13.088 35.9832C13.088 37.6354 13.3736 38.7942 13.8615 39.5902C14.3494 40.3863 15.0878 40.7996 15.7927 40.7996C16.4441 40.7996 16.9864 40.5727 17.3947 40.2699C17.8029 39.9672 18.0987 39.612 18.4013 39.2996C19.0067 38.6748 19.5581 38.1641 21.0556 38.1641C21.8665 38.1641 22.4076 38.3839 23.0232 38.6445C23.6388 38.9052 24.3376 39.2188 25.265 39.2188C26.2691 39.2188 27.3699 38.9085 28.2017 38.0469C28.9839 37.2367 29.4477 35.9401 29.5048 34.1738C29.594 34.228 29.669 34.2844 29.7615 34.3379C31.1903 35.1641 32.3361 35.4962 33.2689 35.4711C34.2017 35.446 34.928 35.0112 35.2798 34.4C35.6048 33.8357 35.6796 33.2526 35.622 32.7477C35.5644 32.2424 35.4057 31.8082 35.2869 31.3895C35.0493 30.552 34.8832 29.8191 35.6326 28.5195C36.0384 27.8158 36.4998 27.4548 37.033 27.0512C37.5661 26.6475 38.1857 26.1994 38.649 25.3953C39.1508 24.5247 39.4338 23.4149 39.1048 22.2629C38.7954 21.1795 37.9058 20.1279 36.406 19.1949C36.4976 19.1445 36.5841 19.1079 36.6767 19.0543C38.1056 18.2281 38.9651 17.4004 39.4095 16.5793C39.8539 15.7582 39.8417 14.912 39.4892 14.3012C39.1637 13.7365 38.6967 13.3801 38.2306 13.1773C37.7646 12.9746 37.3103 12.8957 36.8888 12.7895C36.0459 12.5769 35.3293 12.3546 34.5802 11.0551C34.1744 10.3514 34.092 9.77164 34.0095 9.10742C33.9271 8.4432 33.8493 7.6802 33.3861 6.87617C32.8842 6.00548 32.0666 5.20635 30.9052 4.91563C29.8138 4.6424 28.4595 4.88803 26.9044 5.7207C26.9067 5.61633 26.9185 5.52285 26.9185 5.41602C26.9185 3.76382 26.633 2.605 26.1451 1.80898C25.6572 1.01296 24.9187 0.599609 24.2138 0.599609ZM24.2138 1.79961C24.4881 1.79961 24.8023 1.91436 25.122 2.43594C25.4417 2.95752 25.7185 3.90621 25.7185 5.41602C25.7185 5.87439 25.6939 6.31255 25.6587 6.74609C25.5729 7.81571 25.3938 8.77274 25.1724 9.60547C24.9509 10.4381 24.6876 11.1476 24.4353 11.723C24.1635 12.3429 23.922 12.7761 23.7404 13.073C22.6109 12.5157 21.3455 12.1941 20.0033 12.1941C18.6773 12.1941 17.4264 12.5083 16.3072 13.0531C15.9373 12.3827 15.188 11.1818 13.8509 9.83633C13.2566 9.23823 12.5141 8.62426 11.69 8.03047C11.6756 7.86059 11.6583 7.68948 11.6583 7.52305C11.6583 5.78239 12.1011 4.77322 12.6685 4.18555C13.2359 3.59787 13.9757 3.38047 14.7416 3.38047C15.4036 3.38047 15.8852 3.59329 16.5146 3.85977C17.144 4.12624 17.912 4.43516 18.9509 4.43516C20.7666 4.43516 21.7954 3.62793 22.4666 2.93516C22.8021 2.58885 23.0687 2.28508 23.3267 2.09375C23.5847 1.90242 23.8128 1.79961 24.2138 1.79961ZM29.9619 5.99727C30.1991 6.00016 30.4156 6.02977 30.6134 6.0793C31.4049 6.27742 31.9635 6.81146 32.3466 7.47617C32.6778 8.05094 32.7346 8.5759 32.8189 9.25508C32.9032 9.93426 33.0214 10.7532 33.5408 11.6539C34.4483 13.2284 35.6599 13.7174 36.5947 13.9531C37.0621 14.071 37.4581 14.1497 37.7525 14.2777C38.0469 14.4058 38.249 14.5529 38.4498 14.9012C38.5875 15.1399 38.646 15.4706 38.3548 16.0086C38.0637 16.5466 37.3821 17.26 36.0767 18.0148V18.016H36.0755C35.6795 18.2453 35.2889 18.4436 34.8966 18.6301C31.9196 20.0462 29.4619 20.1543 28.4689 20.1289C28.2898 17.447 26.8723 15.0996 24.7763 13.6684C24.973 13.3373 25.2327 12.8626 25.5052 12.2457C25.7853 11.6119 26.0762 10.8348 26.3209 9.92891C26.5407 9.11484 26.6999 8.16469 26.8013 7.15391C26.9408 7.05636 27.0786 6.95611 27.2232 6.87266H27.2244C28.353 6.22004 29.2501 5.98859 29.9619 5.99727ZM6.76929 7.12813C7.37964 7.11169 8.33856 7.34483 9.6439 8.09961C10.0411 8.32921 10.4082 8.56973 10.7654 8.8168H10.7666C11.6483 9.42608 12.385 10.06 12.9943 10.6684C13.6035 11.2767 14.0854 11.8587 14.4568 12.3652C14.8529 12.9054 15.1082 13.3319 15.2748 13.6379C13.1684 15.0568 11.7369 17.3965 11.5412 20.075C11.156 20.0699 10.6141 20.0825 9.94272 20.1547C9.2547 20.2287 8.43758 20.364 7.53218 20.6047C6.71742 20.8213 5.81546 21.1592 4.8896 21.5773C4.7362 21.5052 4.58203 21.4347 4.43726 21.3512C2.93217 20.481 2.28053 19.5932 2.05601 18.807C1.83148 18.0208 2.01383 17.2687 2.39702 16.6039C2.72815 16.0292 3.15392 15.717 3.69897 15.3043C4.24402 14.8916 4.89403 14.3804 5.41343 13.4797C6.32129 11.9052 6.13738 10.6101 5.87397 9.68164C5.74227 9.21741 5.6128 8.83535 5.57632 8.51563C5.53984 8.1959 5.56543 7.94629 5.76616 7.59805V7.59688C5.90336 7.35851 6.15893 7.14456 6.76929 7.12813ZM19.3388 7.81016L18.8584 8.05156L18.7634 8.58008L19.1314 8.97266L19.3388 9.01016L19.8193 8.76992L19.9142 8.24023L19.5474 7.84766L19.3388 7.81016ZM19.5228 10.2031L19.0423 10.4445L18.9474 10.973L19.3142 11.3656L19.5228 11.4031L20.0033 11.1629L20.0982 10.6332L19.7314 10.2406L19.5228 10.2031ZM30.7388 13.2184L30.2584 13.4598L30.1634 13.9895L30.5314 14.382L30.7388 14.4184L31.2193 14.1781L31.3142 13.6484L30.9474 13.2559L30.7388 13.2184ZM20.0033 13.3941C24.038 13.3941 27.297 16.6572 27.297 20.6996C27.297 24.742 24.038 28.0051 20.0033 28.0051C15.9685 28.0051 12.7095 24.742 12.7095 20.6996C12.7095 16.6572 15.9685 13.3941 20.0033 13.3941ZM9.13882 13.8195L8.65835 14.0609L8.56343 14.5906L8.9314 14.9832L9.13882 15.0195L9.61929 14.7793L9.71421 14.2496L9.34741 13.857L9.13882 13.8195ZM28.7431 14.552L28.2626 14.7922L28.1677 15.3219L28.5345 15.7145L28.7431 15.752L29.2236 15.5105L29.3185 14.9809L28.9517 14.5883L28.7431 14.552ZM20.0033 15.0922L19.5228 15.3336L19.4279 15.8621L19.7947 16.2559L20.0033 16.2922L20.0466 16.2711L20.2306 16.3039L20.7111 16.0637L20.806 15.534L20.438 15.1414L20.2306 15.1039L20.1873 15.125L20.0033 15.0922ZM11.1345 15.1531L10.6541 15.3934L10.5591 15.923L10.9271 16.3156L11.1345 16.3531L11.6162 16.1117L11.7099 15.582L11.3431 15.1895L11.1345 15.1531ZM17.6947 15.6605L17.2142 15.902L17.1193 16.4305L17.4873 16.823L17.6947 16.8605L18.1763 16.6203L18.2701 16.0906L17.9033 15.698L17.6947 15.6605ZM22.5087 15.7719L22.0283 16.0133L21.9334 16.5418L22.3013 16.9344L22.5087 16.9719L22.9904 16.7305L23.0841 16.202L22.7173 15.8094L22.5087 15.7719ZM15.9099 17.2297L15.4294 17.4711L15.3345 17.9996L15.7025 18.3922L15.9099 18.4297L16.3904 18.1895L16.4853 17.6598L16.1185 17.2672L15.9099 17.2297ZM24.2209 17.4195L23.7404 17.6598L23.6455 18.1895L24.0134 18.582L24.2209 18.6195L24.7013 18.3781L24.7962 17.8496L24.4294 17.457L24.2209 17.4195ZM15.0521 19.4445L14.5705 19.6859L14.4767 20.2156L14.8435 20.6082L15.0521 20.6445L15.5326 20.4043L15.6275 19.8746L15.2595 19.482L15.0521 19.4445ZM24.9814 19.6707L24.4998 19.9109L24.406 20.4406L24.7728 20.8332L24.9814 20.8707L25.4619 20.6293L25.5568 20.1008L25.1888 19.7082L24.9814 19.6707ZM35.1169 19.8219C35.2704 19.894 35.4245 19.9645 35.5693 20.048C37.0744 20.9182 37.726 21.806 37.9505 22.5922C38.1751 23.3784 37.9927 24.1305 37.6095 24.7953C37.2784 25.37 36.8526 25.6823 36.3076 26.0949C35.7625 26.5076 35.1125 27.0188 34.5931 27.9195C33.6853 29.494 33.8692 30.7891 34.1326 31.7176C34.2643 32.1818 34.3937 32.5639 34.4302 32.8836C34.4667 33.2033 34.4411 33.4529 34.2404 33.8012V33.8023C34.1032 34.0407 33.8476 34.2547 33.2373 34.2711C32.6269 34.2875 31.668 34.0544 30.3626 33.2996C29.9654 33.07 29.5983 32.8295 29.2412 32.5824H29.24C28.3581 31.9731 27.6215 31.3392 27.0123 30.7309C26.4033 30.1227 25.9211 29.5404 25.5498 29.034V29.0328C25.1549 28.4942 24.8997 28.067 24.733 27.7613C26.8389 26.3424 28.2696 24.0024 28.4654 21.3242C28.8505 21.3294 29.3924 21.3167 30.0638 21.2445C30.7518 21.1705 31.569 21.0353 32.4744 20.7945C33.2891 20.5779 34.1911 20.2401 35.1169 19.8219ZM11.4966 21.268C11.5231 21.2684 11.513 21.2697 11.5376 21.2703C11.7167 23.9522 13.1342 26.2996 15.2302 27.7309C15.0335 28.062 14.7739 28.5366 14.5013 29.1535C14.2213 29.7871 13.9303 30.5637 13.6857 31.4691C13.4657 32.2835 13.3067 33.234 13.2052 34.2453C13.0657 34.3429 12.9279 34.4431 12.7833 34.5266H12.7822C11.2774 35.3967 10.1846 35.518 9.39312 35.3199C8.60168 35.1218 8.04305 34.5878 7.65991 33.923C7.32876 33.3483 7.27197 32.8233 7.18765 32.1441C7.10332 31.465 6.98517 30.646 6.46577 29.7453C5.55821 28.1708 4.34663 27.6819 3.41186 27.4461C2.94448 27.3282 2.54842 27.2496 2.25405 27.1215C1.95968 26.9934 1.75751 26.8463 1.55679 26.498C1.41905 26.2593 1.36052 25.9286 1.65171 25.3906C1.94289 24.8526 2.62448 24.1392 3.92983 23.3844V23.3832H3.93101C4.32704 23.154 4.71764 22.9556 5.10991 22.7691C8.0131 21.3881 10.4563 21.2504 11.4966 21.268ZM15.3087 21.807L14.8283 22.0473L14.7333 22.577L15.1001 22.9695L15.3087 23.007L15.7892 22.7656L15.8841 22.2371L15.5162 21.8445L15.3087 21.807ZM24.6205 22.0203L24.1388 22.2605L24.0451 22.7902L24.4119 23.1828L24.6205 23.2203L25.1009 22.9789L25.1959 22.4504L24.8279 22.0578L24.6205 22.0203ZM16.6259 23.7828L16.1455 24.0242L16.0505 24.5539L16.4173 24.9465L16.6259 24.9828L17.1064 24.7426L17.2013 24.2129L16.8333 23.8203L16.6259 23.7828ZM23.213 23.9363L22.7326 24.1777L22.6376 24.7063L23.0044 25.0988L23.213 25.1363L23.6935 24.8949L23.7884 24.3664L23.4205 23.9738L23.213 23.9363ZM28.5931 24.7637L28.1126 25.0039L28.0177 25.5336L28.3845 25.9262L28.5931 25.9637L29.0736 25.7223L29.1685 25.1938L28.8017 24.8L28.5931 24.7637ZM18.706 24.9301L18.2244 25.1715L18.1306 25.7L18.4974 26.0926L18.706 26.1301L19.1865 25.8898L19.2814 25.3602L18.9134 24.9676L18.706 24.9301ZM21.0814 24.9863L20.5998 25.2277L20.506 25.7574L20.8728 26.15L21.0814 26.1863L21.5619 25.9461L21.6568 25.4164L21.2888 25.0238L21.0814 24.9863ZM11.6115 25.5395L11.131 25.7797L11.0361 26.3094L11.4041 26.702L11.6115 26.7395L12.0931 26.498L12.188 25.9695L11.8201 25.577L11.6115 25.5395ZM30.7388 25.8383L30.2584 26.0785L30.1634 26.6082L30.5314 27.0008L30.7388 27.0383L31.2193 26.7969L31.3142 26.2684L30.9474 25.8758L30.7388 25.8383ZM9.73882 27.0395L9.25835 27.2809L9.16343 27.8094L9.5314 28.202L9.73882 28.2395L10.2193 27.9992L10.3142 27.4695L9.94741 27.077L9.73882 27.0395ZM16.272 28.3285C17.4001 28.8841 18.6633 29.2051 20.0033 29.2051C21.3289 29.2051 22.5792 28.8906 23.6982 28.3461C24.2601 29.333 25.6758 31.466 28.3166 33.3688C28.331 33.5386 28.3482 33.7097 28.3482 33.8762C28.3482 35.6168 27.9054 36.626 27.338 37.2137C26.7707 37.8013 26.0309 38.0188 25.265 38.0188C24.6029 38.0188 24.1214 37.8059 23.4919 37.5395C22.8625 37.273 22.0945 36.9641 21.0556 36.9641C19.2399 36.9641 18.2112 37.7713 17.54 38.4641C17.2044 38.8105 16.9378 39.1141 16.6798 39.3055C16.4219 39.4968 16.1937 39.5996 15.7927 39.5996C15.5184 39.5996 15.2042 39.4849 14.8845 38.9633C14.5648 38.4417 14.288 37.493 14.288 35.9832C14.288 35.5248 14.3126 35.0867 14.3478 34.6531C14.4336 33.5835 14.6127 32.6265 14.8341 31.7938C15.2962 30.0567 15.9229 28.8983 16.272 28.3285ZM20.5388 30.0477L20.0584 30.2891L19.9634 30.8188L20.3314 31.2113L20.5388 31.2477L21.0193 31.0074L21.1142 30.4777L20.7474 30.0852L20.5388 30.0477ZM20.5388 32.4477L20.0584 32.6891L19.9634 33.2188L20.3314 33.6113L20.5388 33.6477L21.0193 33.4074L21.1142 32.8777L20.7474 32.4852L20.5388 32.4477Z" fill="black"/>
</svg>
