<svg width="38" height="41" viewBox="0 0 38 41" fill="none" xmlns="http://www.w3.org/2000/svg">
<path d="M32.8701 0.625C32.5466 0.625 32.2231 0.663819 31.8997 0.728516L14.4961 4.45508C12.2058 4.94678 10.5625 6.99121 10.5625 9.32031V28.0566C9.5791 27.4873 8.46631 27.125 7.25 27.125C3.61401 27.125 0.625 30.114 0.625 33.75C0.625 37.386 3.61401 40.375 7.25 40.375C10.886 40.375 13.875 37.386 13.875 33.75V15.2207L33.75 10.9507V24.7441C32.7666 24.1748 31.6538 23.8125 30.4375 23.8125C26.8015 23.8125 23.8125 26.8015 23.8125 30.4375C23.8125 34.0735 26.8015 37.0625 30.4375 37.0625C34.0735 37.0625 37.0625 34.0735 37.0625 30.4375V4.90796C37.0625 3.5752 36.4932 2.32007 35.5227 1.53076C34.7852 0.948485 33.8535 0.625 32.8701 0.625ZM33.116 3.96338C33.2583 3.98926 33.3489 4.04102 33.4395 4.11865C33.6077 4.24805 33.75 4.46802 33.75 4.90796V7.56055L13.875 11.8306V9.32031C13.875 8.53101 14.4055 7.87109 15.1819 7.70288L32.5984 3.96338C32.8054 3.92456 32.9736 3.92456 33.116 3.96338ZM30.4375 27.125C32.2878 27.125 33.75 28.5872 33.75 30.4375C33.75 32.2878 32.2878 33.75 30.4375 33.75C28.5872 33.75 27.125 32.2878 27.125 30.4375C27.125 28.5872 28.5872 27.125 30.4375 27.125ZM7.25 30.4375C9.10034 30.4375 10.5625 31.8997 10.5625 33.75C10.5625 35.6003 9.10034 37.0625 7.25 37.0625C5.39966 37.0625 3.9375 35.6003 3.9375 33.75C3.9375 31.8997 5.39966 30.4375 7.25 30.4375Z" fill="black"/>
</svg>
