<svg width="991" height="178" viewBox="0 0 991 178" fill="none" xmlns="http://www.w3.org/2000/svg">
<path d="M160.23 1.56C159.85 0.609993 156.05 0.609993 156.43 2.51C160.61 22.65 126.22 90.1 104.56 117.65C97.72 126.2 90.12 134.37 81.57 140.26C79.48 141.59 77.2 142.92 75.49 142.92C73.97 142.92 73.21 141.97 72.45 139.69C71.5 134.94 71.88 129.62 72.45 124.3C73.78 113.66 76.06 103.02 77.96 92.38C78.91 87.06 80.05 81.74 80.81 76.23C81.19 73.57 81.57 70.91 81.95 68.06C81.95 65.21 82.52 62.55 81.19 58.94C80.81 58.37 80.81 57.8 80.05 57.42C79.48 56.85 78.72 56.47 78.15 56.47C76.63 56.28 75.87 56.85 74.92 57.04C73.4 57.8 72.26 58.75 71.31 59.7C69.03 61.6 67.13 63.69 65.42 65.78C61.62 69.96 58.39 74.14 54.97 78.51L35.02 104.35C28.37 113.09 21.91 121.64 14.88 130C11.46 133.99 7.85 138.17 4.05 141.59C4.05 140.64 4.24 139.5 4.43 138.36C5 135.7 5.76 133.23 6.52 130.57C13.36 110.05 21.91 90.1 30.08 69.96C38.63 50.01 47.18 30.06 56.11 10.3V10.11C56.68 8.97 52.31 7.06999 51.74 8.21C43 28.16 34.45 48.11 26.09 68.25C17.92 88.39 9.75 108.72 3.29 129.62C2.53 132.28 1.77 134.94 1.2 137.6C1.01 139.12 0.629999 140.45 0.629999 142.16C0.629999 142.54 0.819998 143.11 1.01 143.68C1.2 143.87 1.39 144.25 1.58 144.63C1.96 145.01 2.53 145.39 2.91 145.39C5 145.39 5.38 144.63 6.14 144.06C10.32 140.26 13.74 136.08 17.35 131.9C24.19 123.54 30.84 114.8 37.3 106.06C43.76 97.32 50.6 88.77 57.44 80.41C60.86 76.23 64.28 72.05 68.08 68.25C69.79 66.35 71.69 64.45 73.78 62.74C74.73 61.98 75.87 61.22 76.63 60.84C76.82 60.84 77.2 60.65 77.2 60.65C77.77 61.98 77.58 65.21 77.2 67.49C77.01 70.15 76.44 72.81 76.06 75.47L72.83 91.43C70.55 102.07 68.27 112.71 67.13 123.73C66.75 129.24 66.18 134.94 67.7 140.83C68.08 142.54 68.84 144.06 70.17 145.58C71.5 147.1 73.78 147.86 75.49 147.86C79.48 147.48 81.76 145.58 84.23 144.06C93.35 137.03 100.19 128.48 107.03 119.93C129.64 92 166.88 17.33 160.23 1.56ZM199.793 92C192.763 98.46 177.563 110.05 176.993 100.17C176.803 94.66 179.463 87.63 178.513 83.83C178.323 83.07 176.993 81.55 175.853 80.79C173.763 79.84 170.533 82.12 169.583 82.88C161.033 88.58 147.163 111.95 147.163 111.95C148.683 107.2 150.013 102.64 151.533 98.08C153.053 93.52 154.573 88.96 156.283 84.4C163.693 72.81 171.293 61.41 178.893 49.82C183.073 43.36 188.013 37.28 190.483 29.49C190.673 28.54 190.863 27.4 191.053 26.45C191.053 25.31 191.243 24.17 190.293 22.65C189.913 21.89 188.583 21.32 187.823 21.32C187.063 21.51 186.303 21.7 185.923 21.89C184.783 22.46 184.023 23.22 183.263 23.98C180.223 26.64 177.943 29.87 175.663 33.1C166.923 46.02 160.843 60.27 155.333 74.71C152.483 81.93 149.823 89.15 147.733 96.56C145.453 103.97 143.363 112.9 141.843 119.36V119.55C141.843 120.12 142.033 120.5 142.603 120.69C143.173 120.88 144.693 120.31 144.693 120.31C149.253 112.9 153.433 106.44 158.563 99.79C163.883 92.76 169.963 86.49 171.673 85.35C172.243 84.78 173.003 84.4 173.763 84.21C173.763 85.54 172.623 94.28 172.243 96.37C170.153 115.75 184.783 107.39 200.553 92.76C200.933 91.62 199.793 92 199.793 92ZM178.513 35C180.413 31.77 182.693 28.73 185.353 26.26C185.923 25.5 186.683 24.93 187.253 24.74C187.633 24.55 187.823 24.36 188.013 24.36C188.393 24.93 188.203 27.21 187.823 28.73C185.923 35.95 181.173 42.22 176.993 48.68C171.103 57.61 165.213 66.73 159.133 75.85C164.643 61.79 170.343 47.73 178.513 35ZM244.327 91.43C244.327 91.05 230.077 100.74 221.907 106.82C223.047 103.02 225.707 91.43 225.707 91.43C227.037 85.16 227.227 83.64 223.047 83.64C215.827 92.76 201.957 103.4 201.387 99.03C202.147 94.85 204.617 91.05 205.947 87.25H206.137C206.517 86.3 202.717 84.4 202.337 85.54C199.677 90.67 195.307 100.17 200.057 102.64C205.757 105.3 222.857 88.01 222.857 88.01C222.667 88.77 216.587 109.67 216.207 111C195.497 126.2 174.787 149.95 172.317 165.53C170.417 177.31 182.197 176.17 187.707 172.37C191.697 169.71 195.117 166.29 197.967 162.49C203.477 154.7 207.467 146.15 211.077 137.79C214.497 129.43 218.487 118.79 220.957 110.24C228.747 103.21 244.707 92.38 244.707 92.38C244.707 92.38 244.517 91.62 244.327 91.43ZM207.087 136.08C203.667 144.44 199.487 152.61 194.547 160.02C192.077 163.63 190.557 166.1 187.137 168.57C178.967 175.03 172.317 172.37 177.257 160.02C181.247 149.57 195.307 130.38 215.067 114.61C212.787 121.07 209.557 129.62 207.087 136.08ZM313.253 91.62C307.553 92.76 301.473 94.28 296.153 95.99C299.193 91.62 296.723 81.74 286.843 83.64C283.993 84.21 281.523 85.92 279.433 87.25C280.953 83.83 282.473 80.41 284.183 76.99C284.373 76.42 283.233 73.57 281.903 75.85C278.673 81.17 275.823 86.87 273.163 92.38C271.833 93.52 270.693 94.66 269.553 95.99C269.363 96.37 269.363 96.56 269.553 96.75C269.933 96.94 270.123 96.94 270.313 96.75C270.693 96.37 271.073 96.18 271.453 95.8C266.513 106.06 252.073 146.53 248.463 165.15C248.463 165.72 250.743 166.86 250.933 166.29C255.683 148.24 268.033 111.38 278.103 90.48C286.843 82.12 298.623 85.92 289.883 98.08C288.553 98.65 287.413 99.03 286.273 99.6C283.993 100.55 281.903 101.5 279.813 102.83C278.863 103.59 277.913 104.35 277.153 105.3C276.203 106.06 275.253 107.01 275.063 108.72C275.063 109.86 276.583 110.24 276.963 110.24C281.903 109.86 290.073 104.54 295.203 97.7C301.093 95.61 307.173 93.9 313.253 92.38C313.443 92.19 313.443 91.62 313.253 91.62ZM286.463 102.26C284.943 103.97 283.233 105.49 281.333 106.82C280.383 107.39 279.433 107.96 278.483 108.53C277.533 108.91 273.543 109.67 280.953 104.35C282.853 103.21 286.083 101.31 287.793 100.74C287.413 101.12 287.033 101.69 286.463 102.26ZM358.324 92.57C358.514 92.38 357.754 91.62 357.564 91.81C318.994 130.19 309.114 120.31 316.334 91.62C344.264 56.28 358.324 35.19 360.224 23.41C360.794 19.23 355.854 15.24 345.974 26.07C337.994 34.62 331.724 44.69 326.214 55.14C320.704 65.59 315.954 76.61 312.724 88.01C303.604 120.5 314.814 138.17 358.324 92.57ZM347.684 27.78C349.964 24.93 352.434 22.65 353.574 21.89C355.664 20.56 358.514 20.56 358.134 23.03C355.854 36.9 332.864 67.11 317.284 86.87C323.744 62.55 340.654 36.71 347.684 27.78ZM400.721 91.62C379.821 104.35 372.601 104.92 380.771 86.11C380.771 85.54 379.251 84.4 378.871 84.02C378.301 83.64 377.351 83.64 376.971 84.4C376.591 84.78 376.211 85.16 375.831 85.54C371.271 82.88 365.191 85.35 361.201 88.39C359.111 89.91 357.211 91.81 355.501 93.9C354.741 95.04 353.981 95.99 353.221 97.32C351.131 102.45 353.791 104.16 357.591 102.83C360.441 101.88 365.761 97.7 367.661 96.18C370.131 93.9 372.601 91.81 375.071 89.53C368.611 104.73 375.261 108.72 401.291 92.57C401.481 92.38 401.101 91.43 400.721 91.62ZM366.331 94.47C364.431 95.99 362.531 97.32 360.441 98.65C359.491 99.22 358.351 99.79 357.401 99.98C357.211 99.98 357.211 99.98 357.211 99.98C357.211 99.79 357.401 99.41 357.591 99.22C357.971 98.27 358.541 97.32 359.111 96.37C360.441 94.66 361.961 92.76 363.671 91.24C366.711 88.39 370.701 85.92 374.881 86.49C372.221 89.34 369.371 92 366.331 94.47ZM444.555 91.62C422.705 109.48 424.035 103.02 420.235 92.95C418.715 88.39 413.775 82.88 401.425 95.8C402.185 92.76 405.985 86.68 407.125 85.35C408.075 84.59 405.795 82.88 402.755 84.78C401.045 85.92 396.675 96.75 396.675 101.69C396.485 103.59 398.955 103.4 398.955 103.4C410.925 85.92 414.155 88.96 416.815 97.51C420.615 110.24 427.265 106.82 445.125 92.57C445.505 92.38 444.745 91.43 444.555 91.62ZM504.709 90.67C492.929 99.98 470.319 107.39 475.259 96.18C479.439 95.23 483.049 94.09 486.469 91.43C492.929 86.49 487.989 84.21 487.039 84.02C486.089 83.64 485.139 83.64 484.189 83.64C482.099 84.02 480.389 84.78 478.869 85.54C475.829 87.44 473.549 90.1 471.649 92.95C466.519 102.64 473.169 104.35 475.639 104.54C481.529 104.73 491.789 101.5 505.469 91.43C505.659 91.24 504.899 90.48 504.709 90.67ZM481.149 88.77C482.289 87.82 483.429 87.06 484.569 86.68C486.849 85.92 489.319 86.49 485.139 89.91C483.999 91.05 480.579 93.14 476.209 94.28C477.729 92.38 479.439 90.48 481.149 88.77ZM534.198 78.89C526.028 77.37 515.768 90.86 509.118 100.55C508.928 92.76 510.068 85.92 511.588 82.12C511.588 80.6 507.408 79.08 507.028 80.41C505.508 85.35 504.367 92.38 505.888 107.96C505.888 108.72 507.408 108.34 507.788 107.77C512.158 99.03 527.168 77.56 534.008 79.84C534.578 79.46 534.958 79.08 534.198 78.89ZM567.795 90.67C556.015 99.98 533.405 107.39 538.345 96.18C542.525 95.23 546.135 94.09 549.555 91.43C556.015 86.49 551.075 84.21 550.125 84.02C549.175 83.64 548.225 83.64 547.275 83.64C545.185 84.02 543.475 84.78 541.955 85.54C538.915 87.44 536.635 90.1 534.735 92.95C529.605 102.64 536.255 104.35 538.725 104.54C544.615 104.73 554.875 101.5 568.555 91.43C568.745 91.24 567.985 90.48 567.795 90.67ZM544.235 88.77C545.375 87.82 546.515 87.06 547.655 86.68C549.935 85.92 552.405 86.49 548.225 89.91C547.085 91.05 543.665 93.14 539.295 94.28C540.815 92.38 542.525 90.48 544.235 88.77ZM612.103 91.62C590.253 109.48 591.583 103.02 587.783 92.95C586.263 88.39 581.323 82.88 568.973 95.8C569.733 92.76 573.533 86.68 574.673 85.35C575.623 84.59 573.343 82.88 570.303 84.78C568.593 85.92 564.223 96.75 564.223 101.69C564.033 103.59 566.503 103.4 566.503 103.4C578.473 85.92 581.703 88.96 584.363 97.51C588.163 110.24 594.813 106.82 612.673 92.57C613.053 92.38 612.293 91.43 612.103 91.62ZM674.504 44.5C663.294 45.45 652.274 46.97 641.254 49.06H641.064C643.344 45.83 645.434 42.22 647.904 38.99C649.614 36.52 651.324 33.86 652.654 31.01C653.414 29.68 653.984 28.35 654.554 26.83C654.744 25.88 655.124 25.12 655.124 24.17C655.124 23.79 655.124 23.22 654.934 22.46C654.744 21.51 653.034 20.94 652.464 21.32C650.184 22.27 649.424 23.41 648.284 24.55C647.334 25.88 646.384 27.02 645.434 28.35C643.724 30.82 642.014 33.48 640.494 35.95C637.644 40.89 634.984 46.02 632.324 50.96C629.854 51.34 627.384 51.91 624.914 52.48C619.404 53.81 614.084 54.76 608.574 57.8C608.004 57.99 609.334 60.27 609.904 59.89L610.094 59.7C614.464 57.42 620.164 56.09 625.484 54.57C627.194 54.19 629.094 53.81 630.994 53.24C615.414 80.41 595.844 118.6 605.154 131.71C606.674 133.8 609.144 133.23 610.854 132.85C623.394 130 653.034 102.26 660.254 92.57C660.444 92.19 659.494 91.62 659.304 91.81C636.504 117.65 610.284 135.13 607.434 129.24C603.634 120.12 614.274 95.61 623.584 76.99C628.144 69.2 632.894 61.6 637.834 54C638.214 53.05 638.974 52.29 639.544 51.34C640.114 51.15 640.874 50.96 641.634 50.96C652.464 48.87 663.484 47.16 674.504 46.21C675.074 46.02 675.454 45.64 675.454 45.26C675.264 44.88 674.884 44.5 674.504 44.5ZM635.934 52.67C634.604 54.57 633.464 56.66 632.324 58.56C633.084 56.85 633.844 55.14 634.604 53.43C634.794 53.05 634.984 52.67 635.174 52.29C635.554 52.29 635.934 52.1 636.314 52.1C636.124 52.29 635.934 52.48 635.934 52.67ZM637.834 49.82C637.454 49.82 636.884 50.01 636.504 50.01C638.594 45.83 640.684 41.46 642.964 37.47C644.484 34.81 646.004 32.34 647.714 29.87C648.474 28.54 649.424 27.4 650.374 26.26C650.944 25.5 651.894 24.74 652.464 24.17C652.464 24.74 652.274 25.31 652.084 25.88C651.704 27.21 651.134 28.73 650.374 29.87C649.044 32.53 647.524 35.19 645.814 37.66C643.154 41.65 640.494 45.64 637.834 49.82ZM684.976 91.62C677.756 94.28 670.536 97.32 663.696 101.12V100.93C663.886 98.46 663.886 95.8 663.886 93.33C664.076 90.29 664.076 87.25 664.456 84.4C667.876 82.5 670.916 80.03 672.816 76.61C674.716 73.38 674.336 69.39 668.826 71.86C665.406 73.38 660.656 77.75 660.086 85.16C659.896 85.16 659.706 85.35 659.516 85.35C659.326 85.54 659.136 85.73 659.136 86.11C659.326 86.3 659.516 86.49 659.896 86.49C659.896 86.3 659.896 86.3 659.896 86.3C659.516 88.58 659.136 100.36 659.136 103.78C657.996 104.54 656.856 105.3 655.906 106.06C653.626 107.58 651.536 109.29 649.826 111.57C649.066 112.71 648.306 114.04 648.306 115.75C648.116 117.27 649.066 118.98 650.776 119.74C654.196 121.07 657.616 119.17 659.706 116.89C661.606 114.61 662.556 111.76 663.316 109.1C663.696 106.82 663.696 104.73 663.696 102.64C670.726 98.65 677.946 95.42 685.356 92.38C685.546 92.19 685.356 91.43 684.976 91.62ZM665.786 78.7C666.926 75.09 675.096 68.63 671.676 76.04C670.156 79.08 667.686 81.55 664.646 83.26C664.836 81.74 665.216 80.22 665.786 78.7ZM659.136 108.53C658.756 110.81 658.186 113.28 657.046 114.99C655.906 116.89 653.626 118.41 651.726 117.84C649.826 117.27 649.826 114.42 651.156 112.33C652.486 110.24 654.386 108.53 656.666 107.01C657.426 106.44 658.376 105.87 659.136 105.49C659.136 106.44 659.136 107.58 659.136 108.53ZM770.05 91.81C763.59 96.75 755.23 97.51 755.23 92.57C757.32 86.3 757.32 82.5 756.75 81.74C755.99 80.79 755.42 80.98 754.09 81.74C753.14 82.31 749.72 89.15 752 93.9C749.15 103.21 745.16 106.63 742.69 106.63C739.27 106.63 737.18 99.41 740.98 84.21V84.02C740.98 83.64 739.27 82.31 738.13 82.88C736.99 83.45 718.37 102.83 719.13 97.51C720.08 90.1 724.45 82.88 726.73 80.22C727.49 79.46 725.59 77.56 723.31 78.7C719.51 80.79 714.95 92.95 715.14 99.6C715.14 102.07 717.04 102.26 717.8 102.07C722.17 101.12 735.09 89.15 735.09 89.15C733.95 95.8 733.76 108.72 739.46 109.48C747.06 110.62 751.62 102.45 754.09 95.61C757.13 98.84 765.11 96.94 770.43 92.38C770.43 92.38 770.24 91.81 770.05 91.81ZM797.011 91.81C787.891 97.89 776.491 103.59 774.211 99.98C774.021 98.84 774.401 96.94 774.971 95.23C776.111 91.81 777.061 90.67 778.961 87.44C778.961 87.25 778.961 87.25 779.151 87.06C779.531 85.92 777.251 80.6 774.401 85.54C772.501 88.96 771.741 90.67 770.791 94.85C769.651 98.84 770.601 103.02 774.781 103.4C778.771 103.78 788.081 99.41 797.581 92.57C797.961 92.38 797.391 91.62 797.011 91.81ZM783.901 77.56C784.091 76.99 783.711 74.14 782.381 75.47C780.861 76.8 778.201 78.13 777.821 78.89C777.251 80.41 783.521 79.46 783.901 77.56ZM860.607 44.5C849.397 45.45 838.377 46.97 827.357 49.06H827.167C829.447 45.83 831.537 42.22 834.007 38.99C835.717 36.52 837.427 33.86 838.757 31.01C839.517 29.68 840.087 28.35 840.657 26.83C840.847 25.88 841.227 25.12 841.227 24.17C841.227 23.79 841.227 23.22 841.037 22.46C840.847 21.51 839.137 20.94 838.567 21.32C836.287 22.27 835.527 23.41 834.387 24.55C833.437 25.88 832.487 27.02 831.537 28.35C829.827 30.82 828.117 33.48 826.597 35.95C823.747 40.89 821.087 46.02 818.427 50.96C815.957 51.34 813.487 51.91 811.017 52.48C805.507 53.81 800.187 54.76 794.677 57.8C794.107 57.99 795.437 60.27 796.007 59.89L796.197 59.7C800.567 57.42 806.267 56.09 811.587 54.57C813.297 54.19 815.197 53.81 817.097 53.24C801.517 80.41 781.947 118.6 791.257 131.71C792.777 133.8 795.247 133.23 796.957 132.85C809.497 130 839.137 102.26 846.357 92.57C846.547 92.19 845.597 91.62 845.407 91.81C822.607 117.65 796.387 135.13 793.537 129.24C789.737 120.12 800.377 95.61 809.687 76.99C814.247 69.2 818.997 61.6 823.937 54C824.317 53.05 825.077 52.29 825.647 51.34C826.217 51.15 826.977 50.96 827.737 50.96C838.567 48.87 849.587 47.16 860.607 46.21C861.177 46.02 861.557 45.64 861.557 45.26C861.367 44.88 860.987 44.5 860.607 44.5ZM822.037 52.67C820.707 54.57 819.567 56.66 818.427 58.56C819.187 56.85 819.947 55.14 820.707 53.43C820.897 53.05 821.087 52.67 821.277 52.29C821.657 52.29 822.037 52.1 822.417 52.1C822.227 52.29 822.037 52.48 822.037 52.67ZM823.937 49.82C823.557 49.82 822.987 50.01 822.607 50.01C824.697 45.83 826.787 41.46 829.067 37.47C830.587 34.81 832.107 32.34 833.817 29.87C834.577 28.54 835.527 27.4 836.477 26.26C837.047 25.5 837.997 24.74 838.567 24.17C838.567 24.74 838.377 25.31 838.187 25.88C837.807 27.21 837.237 28.73 836.477 29.87C835.147 32.53 833.627 35.19 831.917 37.66C829.257 41.65 826.597 45.64 823.937 49.82ZM896.336 92C889.306 98.46 874.106 110.05 873.536 100.17C873.346 94.66 876.006 87.63 875.056 83.83C874.866 83.07 873.536 81.55 872.396 80.79C870.306 79.84 867.076 82.12 866.126 82.88C857.576 88.58 843.706 111.95 843.706 111.95C845.226 107.2 846.556 102.64 848.076 98.08C849.596 93.52 851.116 88.96 852.826 84.4C860.236 72.81 867.836 61.41 875.436 49.82C879.616 43.36 884.556 37.28 887.026 29.49C887.216 28.54 887.406 27.4 887.596 26.45C887.596 25.31 887.786 24.17 886.836 22.65C886.456 21.89 885.126 21.32 884.366 21.32C883.606 21.51 882.846 21.7 882.466 21.89C881.326 22.46 880.566 23.22 879.806 23.98C876.766 26.64 874.486 29.87 872.206 33.1C863.466 46.02 857.386 60.27 851.876 74.71C849.026 81.93 846.366 89.15 844.276 96.56C841.996 103.97 839.906 112.9 838.386 119.36V119.55C838.386 120.12 838.576 120.5 839.146 120.69C839.716 120.88 841.236 120.31 841.236 120.31C845.796 112.9 849.976 106.44 855.106 99.79C860.426 92.76 866.506 86.49 868.216 85.35C868.786 84.78 869.546 84.4 870.306 84.21C870.306 85.54 869.166 94.28 868.786 96.37C866.696 115.75 881.326 107.39 897.096 92.76C897.476 91.62 896.336 92 896.336 92ZM875.056 35C876.956 31.77 879.236 28.73 881.896 26.26C882.466 25.5 883.226 24.93 883.796 24.74C884.176 24.55 884.366 24.36 884.556 24.36C884.936 24.93 884.746 27.21 884.366 28.73C882.466 35.95 877.716 42.22 873.536 48.68C867.646 57.61 861.756 66.73 855.676 75.85C861.186 61.79 866.886 47.73 875.056 35ZM963.704 91.43C947.364 103.78 942.044 102.64 944.324 95.99C945.084 93.14 946.984 88.58 947.934 85.54C948.124 84.97 946.414 83.07 945.084 83.83C940.144 92.57 935.964 96.37 929.504 99.98C924.944 102.64 929.504 92.38 933.114 87.63C933.114 87.63 931.024 84.4 929.694 85.35C927.794 86.87 923.424 95.99 923.234 98.46C922.474 107.58 934.634 100.55 940.524 94.28C935.964 106.82 948.504 105.68 964.464 92.19C964.654 92 964.084 91.24 963.704 91.43ZM990.2 91.62C982.98 94.28 975.76 97.32 968.92 101.12V100.93C969.11 98.46 969.11 95.8 969.11 93.33C969.3 90.29 969.3 87.25 969.68 84.4C973.1 82.5 976.14 80.03 978.04 76.61C979.94 73.38 979.56 69.39 974.05 71.86C970.63 73.38 965.88 77.75 965.31 85.16C965.12 85.16 964.93 85.35 964.74 85.35C964.55 85.54 964.36 85.73 964.36 86.11C964.55 86.3 964.74 86.49 965.12 86.49C965.12 86.3 965.12 86.3 965.12 86.3C964.74 88.58 964.36 100.36 964.36 103.78C963.22 104.54 962.08 105.3 961.13 106.06C958.85 107.58 956.76 109.29 955.05 111.57C954.29 112.71 953.53 114.04 953.53 115.75C953.34 117.27 954.29 118.98 956 119.74C959.42 121.07 962.84 119.17 964.93 116.89C966.83 114.61 967.78 111.76 968.54 109.1C968.92 106.82 968.92 104.73 968.92 102.64C975.95 98.65 983.17 95.42 990.58 92.38C990.77 92.19 990.58 91.43 990.2 91.62ZM971.01 78.7C972.15 75.09 980.32 68.63 976.9 76.04C975.38 79.08 972.91 81.55 969.87 83.26C970.06 81.74 970.44 80.22 971.01 78.7ZM964.36 108.53C963.98 110.81 963.41 113.28 962.27 114.99C961.13 116.89 958.85 118.41 956.95 117.84C955.05 117.27 955.05 114.42 956.38 112.33C957.71 110.24 959.61 108.53 961.89 107.01C962.65 106.44 963.6 105.87 964.36 105.49C964.36 106.44 964.36 107.58 964.36 108.53Z" fill="#A75B41"/>
</svg>
