<svg width="174" height="174" viewBox="0 0 174 174" fill="none" xmlns="http://www.w3.org/2000/svg">
<g clip-path="url(#clip0_933_7856)">
<path d="M34.7453 99.7189L98.6144 139.393C104.317 142.935 111.812 141.184 115.355 135.481L143.037 90.9162C146.58 85.2134 144.828 77.7184 139.126 74.1759L75.2565 34.5019C72.5391 32.814 69.2598 32.2732 66.1467 33.0007L29.8936 41.472C23.4325 42.9818 19.3814 49.5034 20.8912 55.9646L29.3618 92.2147C30.0899 95.3307 32.0243 98.0286 34.7453 99.7189ZM45.7588 56.3482C46.5137 59.5788 44.4882 62.8397 41.2576 63.5946C38.027 64.3495 34.7662 62.3239 34.0113 59.0933C33.2564 55.8627 35.2819 52.6019 38.5125 51.847C41.7431 51.0921 45.0039 53.1177 45.7588 56.3482Z" fill="url(#paint0_linear_933_7856)"/>
<path opacity="0.05" d="M111.882 98.3215C108.019 104.539 101.964 108.46 95.2691 109.076C92.7025 109.372 90.052 109.137 87.3957 108.373L87.0806 108.88C85.8765 110.819 83.3185 111.416 81.3831 110.212L79.4628 109.019C78.6222 108.497 78.0292 107.722 77.7295 106.85C76.8183 106.967 75.8607 106.779 75.023 106.256L73.1028 105.063C71.1644 103.859 70.5673 101.304 71.7714 99.3656L72.2305 98.6265C70.3113 96.2719 68.8985 93.672 68.0286 90.8772C66.1831 84.6493 67.095 78.1333 70.5857 72.5138C72.8318 68.8979 75.392 66.5466 77.1457 65.2107C78.8092 63.9393 81.1781 64.1229 82.653 65.6366L86.2317 69.3007C87.5829 70.6822 87.8181 72.7891 86.8001 74.4239C86.5503 74.8261 86.2368 75.1812 85.8687 75.4747C84.9124 76.2464 83.5541 77.5115 82.5503 79.1275C81.5172 80.7905 81.1271 82.3683 81.3642 83.9266L86.4034 75.8143C87.6075 73.8759 90.1655 73.2782 92.101 74.483L94.0212 75.6758C94.8618 76.198 95.4519 76.9737 95.7516 77.8453C96.6686 77.727 97.6233 77.9159 98.4603 78.4358L100.381 79.6286C102.319 80.8327 102.916 83.3878 101.712 85.3262L96.5017 93.7138C98.4929 93.0627 99.8799 91.4036 100.724 90.045C101.525 88.7551 102.207 87.0069 102.547 85.3727C102.649 84.8812 102.834 84.4166 103.098 83.9956C104.149 82.3036 106.188 81.5888 108.056 82.2548L112.665 83.9003C114.509 84.5535 115.639 86.3831 115.414 88.3468C115.038 91.6806 113.75 95.3172 111.882 98.3215Z" fill="black"/>
<path opacity="0.07" d="M110.602 97.527C106.992 103.339 101.353 107.004 95.1317 107.578C92.39 107.893 89.5624 107.563 86.7324 106.586L85.8006 108.086C85.0354 109.318 83.4113 109.697 82.1795 108.932L80.2592 107.739C79.107 107.023 78.6995 105.558 79.2805 104.36C78.4626 105.406 76.968 105.69 75.8194 104.976L73.8992 103.783C72.6673 103.018 72.2871 101.391 73.053 100.162L74.095 98.4847C71.9397 96.0739 70.3851 93.3709 69.4691 90.4319C67.7516 84.6325 68.6061 78.5604 71.868 73.3134C73.9925 69.8932 76.4073 67.6749 78.0604 66.4121C79.1198 65.604 80.6315 65.7246 81.5764 66.6932L85.158 70.3566C86.0208 71.239 86.1742 72.5845 85.5238 73.6316C85.3662 73.8852 85.1652 74.1119 84.9304 74.2999C83.8777 75.1499 82.3873 76.5388 81.2739 78.3352C79.7705 80.7555 79.4107 83.1656 80.2065 85.4977C80.3799 86.0674 80.672 86.6681 81.0643 87.2733L87.6857 76.614C88.4509 75.3821 90.075 75.0026 91.3069 75.7678L93.2271 76.9606C94.3757 77.6741 94.7819 79.134 94.2148 80.3257C95.0348 79.2886 96.5213 79.0094 97.6662 79.7206L99.5865 80.9134C100.818 81.6786 101.199 83.3057 100.433 84.5346L93.6965 95.3787C94.5204 95.5114 95.2687 95.5193 95.9633 95.4034C98.9377 94.8911 100.893 92.641 102.009 90.8439C102.898 89.4127 103.652 87.4835 104.027 85.683C104.093 85.3673 104.215 85.0663 104.384 84.7945C105.056 83.7112 106.361 83.2514 107.555 83.6788L112.161 85.3279C113.343 85.7455 114.067 86.9206 113.921 88.1782C113.562 91.2943 112.355 94.7045 110.602 97.527Z" fill="black"/>
<path d="M111.65 86.7421C112.17 86.9272 112.482 87.4521 112.418 87.9998C112.142 90.4244 111.204 93.7006 109.32 96.7302C106.036 102.016 100.861 105.533 94.9917 106.075C92.2566 106.392 89.2641 106.032 86.1039 104.741L84.5194 107.292C84.1908 107.821 83.5007 107.982 82.9746 107.653L81.0544 106.46C80.5254 106.132 80.3641 105.441 80.6934 104.915L81.9447 102.901C81.6766 102.734 81.3505 102.532 81.0281 102.331C80.4882 101.996 79.9821 101.606 79.4423 101.271L78.1594 103.336C77.8308 103.865 77.1407 104.027 76.6146 103.697L74.6943 102.504C74.1653 102.176 74.0041 101.486 74.3333 100.96L75.9876 98.2966C73.5112 95.7842 71.8328 92.9491 70.9106 89.9836C69.3663 84.7664 69.999 79.1766 73.1506 74.1071C74.9331 71.2376 77.0832 69.0534 78.979 67.6099C79.4417 67.2571 80.0939 67.3309 80.5001 67.7439L84.0817 71.4073C84.5657 71.9012 84.5213 72.6921 83.9843 73.1242C82.676 74.1795 81.1481 75.6732 79.9943 77.5348C78.3873 80.1217 77.7755 83.0306 78.7841 85.9819C79.1754 87.2719 80.0513 88.6344 81.2171 89.8859L88.9705 77.4041C89.2991 76.8751 89.9893 76.7138 90.5153 77.0431L92.4356 78.2359C92.9646 78.5645 93.1259 79.2547 92.7966 79.7807L84.5413 93.0705C85.0474 93.4602 85.6387 93.83 86.1785 94.1653C86.5046 94.3679 86.7184 94.5007 87.0408 94.701L95.3276 81.3605C95.6562 80.8315 96.3464 80.6702 96.8724 80.9995L98.7927 82.1923C99.3217 82.5209 99.483 83.2111 99.1537 83.7371L91.335 96.324C93.1879 96.9503 94.7969 97.1287 96.2177 96.8866C99.2303 96.3653 101.614 94.3339 103.292 91.6376C104.451 89.7717 105.171 87.5932 105.503 85.9888C105.65 85.2822 106.367 84.8514 107.048 85.0982L111.65 86.7421Z" fill="#FFE357"/>
</g>
<defs>
<linearGradient id="paint0_linear_933_7856" x1="20.6719" y1="102.445" x2="138.884" y2="74.8218" gradientUnits="userSpaceOnUse">
<stop stop-color="#0176D0"/>
<stop offset="1" stop-color="#16538C"/>
</linearGradient>
<clipPath id="clip0_933_7856">
<rect width="144.768" height="144.768" fill="white" transform="translate(32.9375 173.912) rotate(-103.152)"/>
</clipPath>
</defs>
</svg>
