<svg width="649" height="605" viewBox="0 0 649 605" fill="none" xmlns="http://www.w3.org/2000/svg">
<path opacity="0.2" fill-rule="evenodd" clip-rule="evenodd" d="M718.405 604.212C720.174 602.163 703.565 586.186 678.475 553.41C668.212 539.22 658.685 525.988 649.93 512.414C644.971 504.672 640.12 496.777 635.184 487.511C634.726 486.486 633.728 484.254 632.053 481.396C629.844 477.49 627.328 473.806 624.53 470.38C621.275 466.35 616.282 457.94 608.53 439.129C607.671 411.32 601.899 384.253 591.519 359.355C572.128 313.435 539.832 284.624 502.78 251.575C490.966 241.004 481.233 232.331 466.804 221.721C461.366 217.729 451.23 210.519 429.574 194.771C422.97 190.365 416.762 185.34 411.017 179.753C401.182 169.671 396.162 160.315 394.166 161.758C393.111 162.352 393.912 165.52 395.71 179.483C397.044 190.044 397.026 191.382 396.193 192.08C393.501 194.328 386.91 185.397 371.197 175.556C364.177 171.08 356.494 167.482 341.312 159.814L331.685 155.02C329.769 154.083 327.154 152.761 325.547 151.925C314.851 146.637 304.664 140.326 295.103 133.063C289.727 128.029 280.412 119.899 277.436 122.398C274.46 124.897 278.828 135.353 281.983 143.195C289.075 161.415 296.42 169.967 295.026 171.575C293.633 173.184 288.028 169.607 266.042 151.251L213.479 121.711L106.394 85.8064C80.2884 72.4247 57.3586 53.2482 39.0314 29.4697C32.0781 20.4796 25.8258 10.8758 20.332 0.746327C12.603 17.5714 7.09565 35.3525 3.97708 53.5492C0.416329 72.6605 -0.152806 92.0849 2.29369 111.009C6.18147 138.257 16.4576 163.605 32.1794 184.729C30.5969 185.62 28.2759 186.926 25.299 188.143C19.1267 190.976 17.7747 191.004 17.2719 192.341C16.348 195.196 22.5936 198.138 29.167 205.75C32.2062 209.362 34.8547 213.337 37.0668 217.608C43.4868 228.421 54.948 237.907 70.2815 250.344C86.4346 263.235 101.722 274.781 115.95 285.138L109.827 288.081L104.686 290.562C108.527 297.428 113.012 303.831 118.077 309.679C127.94 320.881 139.69 329.991 152.779 336.586C169.048 345.311 186.836 350.706 205.283 352.512C207.387 354.854 209.691 358.137 208.833 361.139C207.974 364.141 202.538 364.682 201.148 367.479C197.991 374.201 217.879 390.029 217.879 390.029C232.929 402.652 249.806 412.652 267.943 419.693C267.943 419.693 307.128 434.872 345.366 433.364C358.581 432.796 365.049 431.904 365.049 431.904C381.668 429.695 391.795 425.369 392.952 428.153C394.109 430.936 388.583 435.512 385.916 438.112C378.594 445.164 373.675 445.78 373.5 447.848C373.113 452.004 392.192 459.035 425.446 461.935C457.524 464.765 475.494 461.246 516.061 459.435C530.076 458.783 550.067 458.111 574.278 458.407C547.383 415.112 513.058 377.913 472.979 348.628C433.013 319.692 395.867 305.334 364.554 293.19C308.939 271.687 303.105 278.818 245.133 257.359C201.607 241.235 163.855 226.898 125.26 194.534C81.3961 157.671 57.3626 115.05 58.6244 113.837C59.8863 112.623 81.7941 147.142 125.602 182.206C165.465 213.764 202.68 228.082 246.578 244.547C306.962 267.167 309.738 259.102 378.086 283.88C427.249 301.686 455.711 312.276 488.858 337.676C515.154 357.934 538.609 382.017 558.609 409.293C561.889 413.675 576.592 436.908 606.034 483.354C624.681 512.748 634.771 528.914 652.824 548.613C662.926 559.698 673.692 570.065 685.062 579.655C697.225 590.12 716.941 605.86 718.461 604.043" fill="#A75B41"/>
</svg>
