<svg width="125" height="125" viewBox="0 0 125 125" fill="none" xmlns="http://www.w3.org/2000/svg">
<path d="M74.0459 14.9814H20.0026C18.6323 14.9814 17.3182 15.5258 16.3492 16.4947C15.3803 17.4637 14.8359 18.7778 14.8359 20.1481V105.398C14.8359 106.768 15.3803 108.083 16.3492 109.052C17.3182 110.02 18.6323 110.565 20.0026 110.565H105.253C106.623 110.565 107.937 110.02 108.906 109.052C109.875 108.083 110.419 106.768 110.419 105.398V51.3548" stroke="black" stroke-linecap="round" stroke-linejoin="round"/>
<path d="M95.2075 62.8559L66.51 34.1584C65.3075 32.9559 63.65 32.2734 61.9275 32.2734H38.625C35.05 32.2734 32.125 35.1984 32.125 38.7734V62.0759C32.125 63.7984 32.8075 65.4559 34.0425 66.6584L62.74 95.3559C65.275 97.8909 69.4025 97.8909 71.9375 95.3559L95.24 72.0534C97.775 69.5184 97.775 65.4234 95.2075 62.8559ZM67.3225 90.7734L38.625 62.0759V38.7734H61.9275L90.625 67.4709L67.3225 90.7734Z" fill="#A75B41"/>
<path d="M46.75 51.7734C49.4424 51.7734 51.625 49.5908 51.625 46.8984C51.625 44.206 49.4424 42.0234 46.75 42.0234C44.0576 42.0234 41.875 44.206 41.875 46.8984C41.875 49.5908 44.0576 51.7734 46.75 51.7734Z" fill="#A75B41"/>
</svg>
