<svg width="365" height="213" viewBox="0 0 365 213" fill="none" xmlns="http://www.w3.org/2000/svg">
<path d="M159.5 47.5C156.75 52.75 163.75 55.5 164.75 50C167.5 37.75 170 30.25 176 15.25C177.25 13.25 172.25 12 171 14.75C170 20 168.5 24.75 166.5 29C166.25 24.75 165.5 20.25 163.25 16C160.5 10.5 155.25 6 149.5 3.75C143.75 1.25 137.75 0.499992 131.5 0.499992C107.75 1.25 83 14 72.75 36.5C62.25 60.25 69.5 77 83.5 105C88.75 115.5 97.5 133 98.5 135.5C0.249998 190 33 211.75 66.5 203.75C120.75 190.5 115.5 155.25 106 135C117.5 129.25 136.25 121.75 136.25 121.75C136.25 121.75 137.25 119.25 135.75 120.25C125.25 123.25 105.25 132.75 105.25 132.75C105.25 132.75 96.25 114.75 90 101.75C85 91.25 66.5 62.25 78.25 39C88.25 19.5 109.75 6.24999 131.75 5.25C142.5 4.75 154.5 8.49999 159.5 18C164.5 27.75 159.5 47.5 159.5 47.5ZM37 187.75C40.5 173.75 72 152.25 99.5 138.25C130.75 203.5 31.25 213 37 187.75ZM183.709 120.25C168.209 132.5 138.459 142.25 144.959 127.5C150.459 126.25 155.209 124.75 159.709 121.25C168.209 114.75 161.709 111.75 160.459 111.5C159.209 111 157.959 111 156.709 111C153.959 111.5 151.709 112.5 149.709 113.5C145.709 116 142.709 119.5 140.209 123.25C133.459 136 142.209 138.25 145.459 138.5C153.209 138.75 166.709 134.5 184.709 121.25C184.959 121 183.959 120 183.709 120.25ZM152.709 117.75C154.209 116.5 155.709 115.5 157.209 115C160.209 114 163.459 114.75 157.959 119.25C156.459 120.75 151.959 123.5 146.209 125C148.209 122.5 150.459 120 152.709 117.75ZM241.76 117.5C268.01 76.75 300.01 30 281.76 37.25C273.76 40.5 259.01 64.25 252.76 76C246.51 87.75 241.26 100.25 237.51 113.25C236.76 116.25 236.01 119.25 235.51 122C196.26 169.5 179.76 158.25 189.01 121.5C226.01 74.75 244.51 47.25 246.76 31.75C247.76 26.25 241.01 20.75 228.01 35C217.76 46.5 209.26 59.75 202.01 73.25C194.76 87 188.76 101.5 184.51 116.75C172.76 158 190.01 180.75 235.01 125C230.76 152.75 244.51 163.5 284.76 122.75C285.26 122.5 285.01 121.5 284.26 121.5C244.01 160.25 233.76 149 241.76 117.5ZM277.01 45C279.76 41.75 282.51 39.25 283.76 38.5C291.76 34.75 256.76 88.5 242.76 112C250.01 84.5 269.01 55 277.01 45ZM230.26 37.25C233.26 33.75 236.76 30.75 238.26 29.75C240.76 27.75 244.76 27.75 244.01 31.25C241.26 49.25 210.76 89 190.51 115.25C198.76 83.25 221.01 49 230.26 37.25ZM296.59 152.75C295.09 152.25 293.09 151.75 291.34 158C289.59 163.5 296.84 163.75 299.34 157.5C300.09 155.25 298.84 153.25 296.59 152.75ZM362.34 53.5C360.59 49.75 356.34 48 352.84 47.5C349.09 47 345.59 47.25 342.09 47.75C328.59 50.5 315.59 57.25 307.09 68.75C306.59 69.5 306.84 70.5 307.59 71C308.34 71.5 309.34 71.25 309.84 70.75V70.5C317.34 60 330.09 53.5 342.84 51.25C348.84 50.25 356.59 50.25 359.09 55.25C361.34 60.25 358.09 67 354.84 72.25C347.59 83 335.59 90 325.09 98.5C314.34 107 304.84 117.75 299.09 130.5C297.84 133.75 303.09 135.25 304.09 132.75C309.09 120.75 317.59 110.5 328.09 102.25C338.09 93.5 350.34 86.25 358.09 74.25C359.84 71.25 361.59 68.25 362.59 64.75C363.59 61.5 364.34 57.25 362.34 53.5Z" fill="#A75B41"/>
</svg>
