<svg width="43" height="43" viewBox="0 0 43 43" fill="none" xmlns="http://www.w3.org/2000/svg">
<path d="M8.0625 0.335938C3.80281 0.335938 0.335938 3.80281 0.335938 8.0625V28.2188C0.335938 32.4784 3.80281 35.9453 8.0625 35.9453H26.2031C26.7608 35.9453 27.2109 35.4952 27.2109 34.9375C27.2109 34.3798 26.7608 33.9297 26.2031 33.9297H8.0625C4.91477 33.9297 2.35156 31.3665 2.35156 28.2188V15.7891H40.6484V22.1719C40.6484 22.7295 41.0986 23.1797 41.6562 23.1797C42.2139 23.1797 42.6641 22.7295 42.6641 22.1719V8.0625C42.6641 3.80281 39.1972 0.335938 34.9375 0.335938H8.0625ZM8.0625 2.35156H34.9375C37.7426 2.35156 40.0776 4.38398 40.5546 7.05469H2.44539C2.92242 4.38398 5.25742 2.35156 8.0625 2.35156ZM2.35156 9.07031H40.6484V13.7734H2.35156V9.07031ZM30.9062 20.4922C30.3486 20.4922 29.8984 20.9423 29.8984 21.5V23.8516H28.8906C28.333 23.8516 27.8828 24.3017 27.8828 24.8594C27.8828 25.417 28.333 25.8672 28.8906 25.8672H29.8984V37.2891H28.8906C28.333 37.2891 27.8828 37.7392 27.8828 38.2969C27.8828 38.8545 28.333 39.3047 28.8906 39.3047H29.8984V41.6562C29.8984 42.2139 30.3486 42.6641 30.9062 42.6641C31.4639 42.6641 31.9141 42.2139 31.9141 41.6562V39.3047H34.6016V41.6562C34.6016 42.2139 35.0517 42.6641 35.6094 42.6641C36.167 42.6641 36.6172 42.2139 36.6172 41.6562V39.3047H38.2969C40.7055 39.3047 42.6641 37.3462 42.6641 34.9375C42.6641 33.0462 41.4549 31.4402 39.7718 30.8321C40.3194 30.1031 40.6484 29.1997 40.6484 28.2188C40.6484 25.9243 38.868 24.0399 36.6172 23.8686V21.5C36.6172 20.9423 36.167 20.4922 35.6094 20.4922C35.0517 20.4922 34.6016 20.9423 34.6016 21.5V23.8516H31.9141V21.5C31.9141 20.9423 31.4639 20.4922 30.9062 20.4922ZM31.9141 25.8672H36.2812C37.578 25.8672 38.6328 26.922 38.6328 28.2188C38.6328 29.5155 37.578 30.5703 36.2812 30.5703H31.9141V25.8672ZM6.38281 27.2109C5.82516 27.2109 5.375 27.6611 5.375 28.2188C5.375 28.7764 5.82516 29.2266 6.38281 29.2266H16.4609C17.0186 29.2266 17.4688 28.7764 17.4688 28.2188C17.4688 27.6611 17.0186 27.2109 16.4609 27.2109H6.38281ZM23.1797 27.2109C22.622 27.2109 22.1719 27.6611 22.1719 28.2188C22.1719 28.7764 22.622 29.2266 23.1797 29.2266H26.5391C27.0967 29.2266 27.5469 28.7764 27.5469 28.2188C27.5469 27.6611 27.0967 27.2109 26.5391 27.2109H23.1797ZM31.9141 32.5859H36.2812H38.2969C39.5936 32.5859 40.6484 33.6408 40.6484 34.9375C40.6484 36.2342 39.5936 37.2891 38.2969 37.2891H31.9141V32.5859Z" fill="black"/>
</svg>
