<svg width="27" height="18" viewBox="0 0 27 18" fill="none" xmlns="http://www.w3.org/2000/svg">
<path d="M21.9791 6.38506C20.682 2.96397 17.3771 0.53125 13.5057 0.53125C9.63428 0.53125 6.3293 2.96113 5.03223 6.38223C2.60518 7.01943 0.8125 9.23125 0.8125 11.8594C0.8125 14.9888 3.34717 17.5234 6.47373 17.5234H7.60938C7.73398 17.5234 7.83594 17.4215 7.83594 17.2969V15.5977C7.83594 15.473 7.73398 15.3711 7.60938 15.3711H6.47373C5.51934 15.3711 4.62158 14.9916 3.95322 14.3034C3.2877 13.6181 2.93369 12.6948 2.96484 11.7376C2.99033 10.9899 3.24521 10.2876 3.70684 9.6957C4.17979 9.09248 4.84248 8.65352 5.57881 8.45811L6.65215 8.17773L7.0458 7.14121C7.28936 6.49551 7.6292 5.89229 8.05684 5.3457C8.47901 4.80396 8.9791 4.32773 9.54082 3.93252C10.7048 3.11406 12.0755 2.68076 13.5057 2.68076C14.9358 2.68076 16.3065 3.11406 17.4705 3.93252C18.0341 4.329 18.5325 4.80479 18.9545 5.3457C19.3821 5.89229 19.722 6.49834 19.9655 7.14121L20.3563 8.1749L21.4269 8.45811C22.9618 8.87158 24.0352 10.2678 24.0352 11.8594C24.0352 12.7968 23.6698 13.6804 23.0071 14.3431C22.6821 14.67 22.2955 14.9291 21.8697 15.1056C21.4438 15.2821 20.9872 15.3723 20.5263 15.3711H19.3906C19.266 15.3711 19.1641 15.473 19.1641 15.5977V17.2969C19.1641 17.4215 19.266 17.5234 19.3906 17.5234H20.5263C23.6528 17.5234 26.1875 14.9888 26.1875 11.8594C26.1875 9.23408 24.4005 7.0251 21.9791 6.38506Z" fill="#665E2F"/>
</svg>
