<svg width="37" height="37" viewBox="0 0 37 37" fill="none" xmlns="http://www.w3.org/2000/svg">
<path d="M32.4906 0.71721C32.4588 0.722992 32.427 0.731663 32.3981 0.740335C32.0541 0.818382 31.8113 1.12768 31.82 1.48033C31.82 2.88518 31.1696 3.65698 29.97 4.41721C28.7704 5.17744 27.036 5.79315 25.2525 6.54471C23.469 7.29627 21.6219 8.20104 20.1881 9.71284C18.8845 11.0888 17.9797 12.9792 17.8294 15.5172C16.4968 15.4074 15.6672 14.9796 14.7769 14.5228C13.69 13.9649 12.447 13.3203 10.36 13.3203C5.90555 13.3203 0 23.4462 0 31.0803C0 34.5664 1.82687 37.0003 4.44 37.0003C8.36547 37.0003 11.0306 34.8699 13.3894 32.9997C15.1931 31.5688 16.7627 30.3403 18.5 30.3403C20.2373 30.3403 21.8069 31.5688 23.6106 32.9997C25.9694 34.8699 28.6345 37.0003 32.56 37.0003C35.1731 37.0003 37 34.5664 37 31.0803C37 23.4462 31.0945 13.3203 26.64 13.3203C24.553 13.3203 23.31 13.9649 22.2231 14.5228C21.3704 14.9622 20.5697 15.364 19.3325 15.4941C19.477 13.3174 20.2026 11.8606 21.275 10.7303C22.4717 9.46713 24.1078 8.6144 25.8306 7.88596C27.5534 7.15752 29.3254 6.57073 30.7563 5.66596C32.1871 4.76119 33.3 3.40549 33.3 1.48033C33.3087 1.26643 33.222 1.06119 33.0688 0.916663C32.9127 0.769242 32.7016 0.696975 32.4906 0.71721ZM27.38 19.9803C28.198 19.9803 28.86 20.6423 28.86 21.4603C28.86 22.2784 28.198 22.9403 27.38 22.9403C26.562 22.9403 25.9 22.2784 25.9 21.4603C25.9 20.6423 26.562 19.9803 27.38 19.9803ZM8.88 20.7203H11.1V22.9403H13.32V25.1603H11.1V27.3803H8.88V25.1603H6.66V22.9403H8.88V20.7203ZM24.42 22.9403C25.238 22.9403 25.9 23.6023 25.9 24.4203C25.9 25.2384 25.238 25.9003 24.42 25.9003C23.602 25.9003 22.94 25.2384 22.94 24.4203C22.94 23.6023 23.602 22.9403 24.42 22.9403ZM30.34 22.9403C31.158 22.9403 31.82 23.6023 31.82 24.4203C31.82 25.2384 31.158 25.9003 30.34 25.9003C29.522 25.9003 28.86 25.2384 28.86 24.4203C28.86 23.6023 29.522 22.9403 30.34 22.9403ZM27.38 25.9003C28.198 25.9003 28.86 26.5623 28.86 27.3803C28.86 28.1984 28.198 28.8603 27.38 28.8603C26.562 28.8603 25.9 28.1984 25.9 27.3803C25.9 26.5623 26.562 25.9003 27.38 25.9003Z" fill="black"/>
</svg>
