<svg width="549" height="116" viewBox="0 0 549 116" fill="none" xmlns="http://www.w3.org/2000/svg">
<path d="M89.0209 65.976C84.2849 65.72 79.0369 65.464 74.4289 65.336C75.5809 61.624 78.1409 52.792 78.1409 52.792C78.1409 52.792 83.6449 32.824 85.1809 22.584C86.0769 17.336 86.4609 7.992 85.0529 6.584C83.7729 5.048 80.8289 2.616 71.2289 12.472C57.5329 28.088 46.0129 45.24 34.4929 62.392C33.5969 63.544 32.3169 65.976 31.4209 67.256C24.3809 68.024 17.7249 68.92 10.8129 70.584H10.6849C10.1729 70.712 10.8129 71.736 11.3249 71.736C17.2129 71.096 22.9729 70.84 28.7329 71.096C19.3889 85.432 10.0449 99.896 0.956882 114.36V114.488C0.700882 114.744 2.49288 115.512 2.74888 115.128C11.8369 100.28 21.3089 85.56 31.0369 70.968C31.2929 70.968 31.2929 71.096 31.5489 71.096C38.2049 71.608 44.9889 72.632 50.8769 75.704C56.6369 78.776 60.4769 84.792 60.0929 91.32C60.0929 93.88 59.7089 96.44 59.0689 99C57.6609 102.84 56.3809 106.552 54.9729 110.264V110.52C54.5889 111.416 58.1729 112.696 58.5569 111.8C58.5569 111.672 58.5569 111.672 58.5569 111.672C64.3169 96.824 69.4369 82.232 74.0449 66.872C79.2929 66.744 83.5169 66.744 88.6369 66.616C89.1489 66.616 89.5329 65.976 89.0209 65.976ZM62.5249 89.4C62.2689 88.248 62.0129 87.096 61.8849 85.944C61.2449 84.28 60.7329 82.488 59.5809 81.08C57.7889 77.88 54.7169 75.832 51.7729 74.04C45.6289 70.84 40.2529 69.944 33.5969 69.432C34.3649 67.768 65.2129 66.872 70.3329 66.872C67.7729 74.552 65.2129 81.72 62.5249 89.4ZM70.7169 65.208C63.5489 65.208 40.3809 65.976 33.9809 66.872C34.6209 65.976 35.6449 63.928 36.2849 63.032C47.9329 46.136 59.4529 28.856 73.2769 13.624C75.0689 11.832 76.8609 10.04 78.7809 8.504C80.7009 6.968 82.1089 6.2 83.0049 7.48C83.9009 8.632 83.5169 13.368 83.5169 14.648C83.5169 17.08 82.8769 19.64 82.6209 22.2C80.9569 32.184 78.0129 42.168 75.0689 51.896C73.9169 55.992 72.1249 61.24 70.7169 65.208ZM120.391 66.744C117.703 67.256 113.351 68.536 110.407 69.688C110.407 69.432 110.535 69.304 110.663 69.176C110.919 68.152 111.175 67 111.047 65.848C110.919 64.568 110.151 63.416 109.127 62.776C107.335 61.24 104.647 61.496 102.855 62.392C101.063 63.288 99.5269 64.696 98.1189 65.976C94.0229 70.328 91.0789 74.552 88.0069 79.672C89.2869 73.784 90.0549 70.2 91.4629 65.592C97.2229 57.144 102.599 49.464 108.103 40.888C110.791 36.536 115.783 26.552 115.911 23.096C116.039 20.408 112.967 20.408 111.559 20.92C110.151 21.432 107.207 24.632 105.543 26.68C99.3989 35.384 95.3029 45.112 92.1029 54.968C89.0309 64.952 86.0869 74.936 84.9349 85.304C84.8069 85.816 85.0629 86.2 85.4469 86.456C85.9589 86.712 86.5989 86.456 86.8549 85.944C90.1829 79.16 94.0229 72.504 99.1429 67C100.423 65.592 101.831 64.44 103.495 63.672C105.031 62.904 106.823 63.032 107.975 64.184C109.127 65.208 108.871 66.744 108.103 68.152C107.463 69.432 106.695 70.712 105.799 71.864C103.111 73.144 100.423 74.552 97.8629 76.216C96.1989 77.368 94.5349 78.392 93.2549 80.184C92.9989 80.696 92.3589 81.464 93.1269 82.744C94.0229 83.512 94.7909 83.512 95.4309 83.384C96.7109 83.128 97.6069 82.616 98.5029 82.232C101.959 80.184 104.903 77.496 107.591 74.552C108.359 73.4 109.127 72.12 109.895 70.84C112.839 69.56 117.575 68.152 120.647 67.256C120.903 67.128 120.647 66.744 120.391 66.744ZM94.5349 55.864C98.5029 46.392 102.343 36.792 107.847 28.344C109.255 26.424 110.919 24.248 112.711 23.224C113.095 23.096 113.479 22.968 113.735 22.968C114.119 23.096 113.863 22.84 114.119 23.224C114.247 23.992 113.863 25.272 113.479 26.424C111.815 31.032 109.255 35.64 106.695 39.992C102.471 46.904 97.8629 53.56 93.1269 59.96C93.6389 58.68 94.0229 57.272 94.5349 55.864ZM97.2229 80.056C96.4549 80.568 95.6869 81.08 95.0469 81.208C95.0469 81.336 94.9189 81.208 94.9189 81.208C95.6869 79.8 97.2229 78.52 98.6309 77.368C100.423 76.088 102.215 74.936 104.007 73.912C101.959 76.216 99.7829 78.392 97.2229 80.056ZM140.576 66.872C137.504 69.176 134.56 70.328 130.848 69.688C130.848 69.688 132.64 66.744 130.848 64.952C132.256 59.704 121.76 61.24 119.328 67C116 74.808 124.832 76.856 130.336 70.584C134.688 71.224 137.12 70.072 141.088 67.256C141.216 67.128 140.96 66.616 140.576 66.872ZM121.376 69.688C121.76 67 124.704 64.184 127.008 63.288C128.032 62.904 130.72 62.648 129.952 64.952C127.52 65.336 126.88 68.28 129.056 69.944C127.008 73.016 120.864 75.192 121.376 69.688ZM129.568 69.048C128.16 68.28 128.8 65.336 130.464 65.848C130.976 65.976 130.464 67.896 129.568 69.048ZM165.401 66.616C154.393 74.936 150.809 74.168 152.345 69.688C152.857 67.768 154.137 64.696 154.777 62.648C154.905 62.264 153.753 60.984 152.857 61.496C149.529 67.384 146.713 69.944 142.361 72.376C139.289 74.168 142.361 67.256 144.793 64.056C144.793 64.056 143.385 61.88 142.489 62.52C141.209 63.544 138.265 69.688 138.137 71.352C137.625 77.496 145.817 72.76 149.785 68.536C146.713 76.984 155.161 76.216 165.913 67.128C166.041 67 165.657 66.488 165.401 66.616ZM207.663 35C200.111 35.64 192.687 36.664 185.263 38.072H185.135C186.671 35.896 188.079 33.464 189.743 31.288C190.895 29.624 192.047 27.832 192.943 25.912C193.455 25.016 193.839 24.12 194.223 23.096C194.351 22.456 194.607 21.944 194.607 21.304C194.607 21.048 194.607 20.664 194.479 20.152C194.351 19.512 193.199 19.128 192.815 19.384C191.279 20.024 190.767 20.792 189.999 21.56C189.359 22.456 188.719 23.224 188.079 24.12C186.927 25.784 185.775 27.576 184.751 29.24C182.831 32.568 181.039 36.024 179.247 39.352C177.583 39.608 175.919 39.992 174.255 40.376C170.543 41.272 166.959 41.912 163.247 43.96C162.863 44.088 163.759 45.624 164.143 45.368L164.271 45.24C167.215 43.704 171.055 42.808 174.639 41.784C175.791 41.528 177.071 41.272 178.351 40.888C167.855 59.192 154.671 84.92 160.943 93.752C161.967 95.16 163.631 94.776 164.783 94.52C173.231 92.6 193.199 73.912 198.063 67.384C198.191 67.128 197.551 66.744 197.423 66.872C182.063 84.28 164.399 96.056 162.479 92.088C159.919 85.944 167.087 69.432 173.359 56.888C176.431 51.64 179.631 46.52 182.959 41.4C183.215 40.76 183.727 40.248 184.111 39.608C184.495 39.48 185.007 39.352 185.519 39.352C192.815 37.944 200.239 36.792 207.663 36.152C208.047 36.024 208.303 35.768 208.303 35.512C208.175 35.256 207.919 35 207.663 35ZM181.679 40.504C180.783 41.784 180.015 43.192 179.247 44.472C179.759 43.32 180.271 42.168 180.783 41.016C180.911 40.76 181.039 40.504 181.167 40.248C181.423 40.248 181.679 40.12 181.935 40.12C181.807 40.248 181.679 40.376 181.679 40.504ZM182.959 38.584C182.703 38.584 182.319 38.712 182.063 38.712C183.471 35.896 184.879 32.952 186.415 30.264C187.439 28.472 188.463 26.808 189.615 25.144C190.127 24.248 190.767 23.48 191.407 22.712C191.791 22.2 192.431 21.688 192.815 21.304C192.815 21.688 192.687 22.072 192.559 22.456C192.303 23.352 191.919 24.376 191.407 25.144C190.511 26.936 189.487 28.728 188.335 30.392C186.543 33.08 184.751 35.768 182.959 38.584ZM260.847 35C253.295 35.64 245.871 36.664 238.447 38.072H238.319C239.855 35.896 241.263 33.464 242.927 31.288C244.079 29.624 245.231 27.832 246.127 25.912C246.639 25.016 247.023 24.12 247.407 23.096C247.535 22.456 247.791 21.944 247.791 21.304C247.791 21.048 247.791 20.664 247.663 20.152C247.535 19.512 246.383 19.128 245.999 19.384C244.463 20.024 243.951 20.792 243.183 21.56C242.543 22.456 241.903 23.224 241.263 24.12C240.111 25.784 238.959 27.576 237.935 29.24C236.015 32.568 234.223 36.024 232.431 39.352C230.767 39.608 229.103 39.992 227.439 40.376C223.727 41.272 220.143 41.912 216.431 43.96C216.047 44.088 216.943 45.624 217.327 45.368L217.455 45.24C220.399 43.704 224.239 42.808 227.823 41.784C228.975 41.528 230.255 41.272 231.535 40.888C221.039 59.192 207.855 84.92 214.127 93.752C215.151 95.16 216.815 94.776 217.967 94.52C226.415 92.6 246.383 73.912 251.247 67.384C251.375 67.128 250.735 66.744 250.607 66.872C235.247 84.28 217.583 96.056 215.663 92.088C213.103 85.944 220.271 69.432 226.543 56.888C229.615 51.64 232.815 46.52 236.143 41.4C236.399 40.76 236.911 40.248 237.295 39.608C237.679 39.48 238.191 39.352 238.703 39.352C245.999 37.944 253.423 36.792 260.847 36.152C261.231 36.024 261.487 35.768 261.487 35.512C261.359 35.256 261.103 35 260.847 35ZM234.863 40.504C233.967 41.784 233.199 43.192 232.431 44.472C232.943 43.32 233.455 42.168 233.967 41.016C234.095 40.76 234.223 40.504 234.351 40.248C234.607 40.248 234.863 40.12 235.119 40.12C234.991 40.248 234.863 40.376 234.863 40.504ZM236.143 38.584C235.887 38.584 235.503 38.712 235.247 38.712C236.655 35.896 238.063 32.952 239.599 30.264C240.623 28.472 241.647 26.808 242.799 25.144C243.311 24.248 243.951 23.48 244.591 22.712C244.975 22.2 245.615 21.688 245.999 21.304C245.999 21.688 245.871 22.072 245.743 22.456C245.487 23.352 245.103 24.376 244.591 25.144C243.695 26.936 242.671 28.728 241.519 30.392C239.727 33.08 237.935 35.768 236.143 38.584ZM285.009 67C280.273 71.352 270.033 79.16 269.649 72.504C269.521 68.792 271.313 64.056 270.673 61.496C270.545 60.984 269.649 59.96 268.881 59.448C267.473 58.808 265.297 60.344 264.657 60.856C258.897 64.696 249.553 80.44 249.553 80.44C250.577 77.24 251.473 74.168 252.497 71.096C253.521 68.024 254.545 64.952 255.697 61.88C260.689 54.072 265.809 46.392 270.929 38.584C273.745 34.232 277.073 30.136 278.737 24.888C278.865 24.248 278.993 23.48 279.121 22.84C279.121 22.072 279.249 21.304 278.609 20.28C278.353 19.768 277.457 19.384 276.945 19.384C276.433 19.512 275.921 19.64 275.665 19.768C274.897 20.152 274.385 20.664 273.873 21.176C271.825 22.968 270.289 25.144 268.753 27.32C262.865 36.024 258.769 45.624 255.057 55.352C253.137 60.216 251.345 65.08 249.937 70.072C248.401 75.064 246.993 81.08 245.969 85.432V85.56C245.969 85.944 246.097 86.2 246.481 86.328C246.865 86.456 247.889 86.072 247.889 86.072C250.961 81.08 253.777 76.728 257.233 72.248C260.817 67.512 264.913 63.288 266.065 62.52C266.449 62.136 266.961 61.88 267.473 61.752C267.473 62.648 266.705 68.536 266.449 69.944C265.041 83 274.897 77.368 285.521 67.512C285.777 66.744 285.009 67 285.009 67ZM270.673 28.6C271.953 26.424 273.489 24.376 275.281 22.712C275.665 22.2 276.177 21.816 276.561 21.688C276.817 21.56 276.945 21.432 277.073 21.432C277.329 21.816 277.201 23.352 276.945 24.376C275.665 29.24 272.465 33.464 269.649 37.816C265.681 43.832 261.713 49.976 257.617 56.12C261.329 46.648 265.169 37.176 270.673 28.6ZM306.143 66.104C298.207 72.376 282.975 77.368 286.303 69.816C289.119 69.176 291.551 68.408 293.855 66.616C298.207 63.288 294.879 61.752 294.239 61.624C293.599 61.368 292.959 61.368 292.319 61.368C290.911 61.624 289.759 62.136 288.735 62.648C286.687 63.928 285.151 65.72 283.871 67.64C280.415 74.168 284.895 75.32 286.559 75.448C290.527 75.576 297.439 73.4 306.655 66.616C306.783 66.488 306.271 65.976 306.143 66.104ZM290.271 64.824C291.039 64.184 291.807 63.672 292.575 63.416C294.111 62.904 295.775 63.288 292.959 65.592C292.191 66.36 289.887 67.768 286.943 68.536C287.967 67.256 289.119 65.976 290.271 64.824ZM368.072 12.856C364.872 13.752 361.672 15.032 358.6 16.312C360.904 12.216 363.336 8.248 365.768 4.152C366.408 3 362.568 0.823997 361.928 1.976C358.6 7.736 355.4 13.496 352.328 19.384C346.184 22.584 340.296 26.296 334.664 30.392C334.152 30.776 336.456 32.056 336.968 31.672C341.704 28.216 345.544 25.4 350.664 22.584C343.624 35.896 336.968 49.464 331.08 63.416C330.056 63.672 329.16 63.928 328.136 64.056C327.24 64.312 327.88 67 328.776 66.872C329.032 66.744 329.288 66.744 329.544 66.616C324.04 80.056 319.176 94.136 315.336 108.088C315.08 108.6 317.64 108.088 317.896 107.448C322.12 92.984 327.24 79.8 333.256 65.976C343.752 63.928 354.632 60.216 364.872 55.608C370.632 52.92 376.136 49.592 381.256 45.624C403.144 28.472 396.872 6.328 368.072 12.856ZM389.704 29.752C387.4 34.872 383.432 39.48 378.696 43.192C373.96 47.032 368.712 50.104 363.208 52.792C354.248 57.016 344.648 60.088 334.92 62.52C341.576 47.8 349.128 33.336 357.064 19.128C360.776 17.336 364.616 15.672 368.584 15.032C374.472 13.752 381 13.368 385.992 16.056C388.296 17.208 390.088 19.256 390.728 21.816C391.24 24.248 390.856 27.064 389.704 29.752ZM401.292 66.744C391.052 73.4 382.348 75.832 385.548 70.456C387.596 67.128 386.956 65.72 380.812 64.44C381.068 64.056 384.268 60.6 383.244 58.424C382.988 57.784 382.22 57.528 381.324 57.784C379.532 58.296 377.74 60.472 377.1 61.624C376.972 62.008 376.46 63.16 376.588 64.056C376.844 65.208 377.996 65.464 378.636 65.592C378.764 65.848 379.02 65.976 379.276 65.976C379.66 65.848 379.66 65.72 379.916 65.592C384.524 66.36 384.14 67.64 383.5 68.92C382.476 70.84 381.836 72.248 381.964 73.272C382.604 79.032 397.324 70.072 401.548 67.256H401.676C401.804 67.128 401.42 66.616 401.292 66.744ZM379.02 64.184C377.356 64.184 381.324 58.936 382.092 59.448C382.988 59.832 380.556 63.288 379.02 64.184ZM421.371 66.872C418.299 69.176 415.355 70.328 411.643 69.688C411.643 69.688 413.435 66.744 411.643 64.952C413.051 59.704 402.555 61.24 400.123 67C396.795 74.808 405.627 76.856 411.131 70.584C415.483 71.224 417.915 70.072 421.883 67.256C422.011 67.128 421.755 66.616 421.371 66.872ZM402.171 69.688C402.555 67 405.499 64.184 407.803 63.288C408.827 62.904 411.515 62.648 410.747 64.952C408.315 65.336 407.675 68.28 409.851 69.944C407.803 73.016 401.659 75.192 402.171 69.688ZM410.363 69.048C408.955 68.28 409.595 65.336 411.259 65.848C411.771 65.976 411.259 67.896 410.363 69.048ZM464.5 19.768C464.5 19.512 464.244 19 463.86 18.744C463.604 18.616 463.348 18.36 462.964 18.232C461.428 17.72 460.276 18.488 459.508 19.128C458.612 19.768 457.972 20.408 457.332 21.176C456.052 22.584 454.9 24.248 454.004 25.784C450.036 32.184 446.836 38.968 444.148 45.752C442.356 50.36 440.692 54.968 439.028 59.576C438.004 60.856 437.108 62.008 436.084 63.16C434.932 61.88 433.268 61.112 431.476 61.112C429.3 61.112 427.252 62.008 425.716 63.032C422.388 65.208 419.316 68.024 418.164 72.248C417.908 73.4 417.652 74.936 418.932 76.344C420.468 77.496 424.052 77.496 428.02 74.04C432.244 70.2 435.572 67 437.236 64.696C436.98 65.336 427.636 106.68 459.764 67.128C459.764 67 459.508 66.872 459.252 66.744C428.276 103.864 441.204 61.368 442.356 58.296C444.916 55.096 447.348 51.768 449.652 48.44C454.004 42.424 458.1 36.152 461.428 29.624C462.324 27.96 463.092 26.168 463.732 24.376C464.116 23.608 464.372 22.584 464.628 21.56C464.628 21.048 464.756 20.536 464.5 19.768ZM434.804 64.824C432.244 67.512 427.764 72.76 422.644 74.552C421.876 74.808 420.34 75.576 421.108 73.016C421.876 70.2 424.436 67.256 427.124 65.336C429.556 63.416 433.524 61.368 435.188 64.184C435.06 64.44 434.932 64.568 434.804 64.824ZM462.068 23.864C461.428 25.528 460.66 27.192 459.764 28.728C455.54 36.792 450.548 44.472 445.044 51.768C445.684 50.232 446.324 48.568 446.964 47.032C450.036 40.248 452.724 33.464 456.18 27.192C457.076 25.528 457.972 23.992 459.124 22.584C460.02 21.304 461.684 19.896 462.324 20.152C463.092 19.896 462.708 22.328 462.068 23.864ZM484.038 66.616C473.03 74.936 469.446 74.168 470.982 69.688C471.494 67.768 472.774 64.696 473.414 62.648C473.542 62.264 472.39 60.984 471.494 61.496C468.166 67.384 465.35 69.944 460.998 72.376C457.926 74.168 460.998 67.256 463.43 64.056C463.43 64.056 462.022 61.88 461.126 62.52C459.846 63.544 456.902 69.688 456.774 71.352C456.262 77.496 464.454 72.76 468.422 68.536C465.35 76.984 473.798 76.216 484.55 67.128C484.678 67 484.294 66.488 484.038 66.616ZM504.924 66.616C500.572 69.816 495.452 72.12 491.1 73.528C483.292 75.96 483.676 66.488 490.46 61.624C491.228 61.24 492.124 60.984 492.892 61.368C493.532 61.624 493.916 62.648 493.788 63.544C493.788 63.8 493.788 64.056 493.788 64.312C493.788 64.312 493.916 64.952 494.428 64.824C494.428 64.824 495.324 61.88 495.708 61.112V60.984C495.836 60.984 495.836 60.984 495.836 60.856C495.964 60.472 495.068 60.472 494.94 60.728L494.428 61.752C494.172 61.24 493.916 60.856 493.404 60.472C492.252 59.704 486.62 59.704 482.78 67.384C480.092 72.76 484.06 76.856 491.356 74.552C496.348 72.888 501.212 70.2 505.436 67.128C505.564 67 505.18 66.36 504.924 66.616ZM547.517 35C539.965 35.64 532.541 36.664 525.117 38.072H524.989C526.525 35.896 527.933 33.464 529.597 31.288C530.749 29.624 531.901 27.832 532.797 25.912C533.309 25.016 533.693 24.12 534.077 23.096C534.205 22.456 534.461 21.944 534.461 21.304C534.461 21.048 534.461 20.664 534.333 20.152C534.205 19.512 533.053 19.128 532.669 19.384C531.133 20.024 530.621 20.792 529.853 21.56C529.213 22.456 528.573 23.224 527.933 24.12C526.781 25.784 525.629 27.576 524.605 29.24C522.685 32.568 520.893 36.024 519.101 39.352C517.437 39.608 515.773 39.992 514.109 40.376C510.397 41.272 506.813 41.912 503.101 43.96C502.717 44.088 503.613 45.624 503.997 45.368L504.125 45.24C507.069 43.704 510.909 42.808 514.493 41.784C515.645 41.528 516.925 41.272 518.205 40.888C507.709 59.192 494.525 84.92 500.797 93.752C501.821 95.16 503.485 94.776 504.637 94.52C513.085 92.6 533.053 73.912 537.917 67.384C538.045 67.128 537.405 66.744 537.277 66.872C521.917 84.28 504.253 96.056 502.333 92.088C499.773 85.944 506.941 69.432 513.213 56.888C516.285 51.64 519.485 46.52 522.813 41.4C523.069 40.76 523.581 40.248 523.965 39.608C524.349 39.48 524.861 39.352 525.373 39.352C532.669 37.944 540.093 36.792 547.517 36.152C547.901 36.024 548.157 35.768 548.157 35.512C548.029 35.256 547.773 35 547.517 35ZM521.533 40.504C520.637 41.784 519.869 43.192 519.101 44.472C519.613 43.32 520.125 42.168 520.637 41.016C520.765 40.76 520.893 40.504 521.021 40.248C521.277 40.248 521.533 40.12 521.789 40.12C521.661 40.248 521.533 40.376 521.533 40.504ZM522.813 38.584C522.557 38.584 522.173 38.712 521.917 38.712C523.325 35.896 524.733 32.952 526.269 30.264C527.293 28.472 528.317 26.808 529.469 25.144C529.981 24.248 530.621 23.48 531.261 22.712C531.645 22.2 532.285 21.688 532.669 21.304C532.669 21.688 532.541 22.072 532.413 22.456C532.157 23.352 531.773 24.376 531.261 25.144C530.365 26.936 529.341 28.728 528.189 30.392C526.397 33.08 524.605 35.768 522.813 38.584Z" fill="#A75B41"/>
</svg>
