<svg width="23" height="23" viewBox="0 0 23 23" fill="none" xmlns="http://www.w3.org/2000/svg">
<path d="M15.3428 18.6161L8.33977 11.6162L15.3428 4.61633C15.4681 4.49126 15.5383 4.32337 15.5383 4.14855C15.5383 3.97372 15.4681 3.80583 15.3428 3.68077C15.2819 3.62021 15.2092 3.5721 15.129 3.53926C15.0488 3.50642 14.9626 3.4895 14.8756 3.4895C14.7886 3.4895 14.7025 3.50642 14.6223 3.53926C14.542 3.5721 14.4694 3.62021 14.4085 3.68077L6.957 11.1274C6.82617 11.2582 6.75296 11.4336 6.75296 11.6162C6.75296 11.7988 6.82617 11.9742 6.957 12.105L14.407 19.5517C14.468 19.6127 14.5408 19.6611 14.6213 19.6942C14.7018 19.7273 14.7883 19.7444 14.8756 19.7444C14.963 19.7444 15.0494 19.7273 15.1299 19.6942C15.2104 19.6611 15.2833 19.6127 15.3442 19.5517C15.4696 19.4266 15.5398 19.2587 15.5398 19.0839C15.5398 18.9091 15.4696 18.7412 15.3442 18.6161L15.3428 18.6161Z" fill="black"/>
</svg>
