<svg width="602" height="130" viewBox="0 0 602 130" fill="none" xmlns="http://www.w3.org/2000/svg">
<path d="M84.7221 70.9C84.4221 70.75 84.1221 70.75 83.8221 70.9C76.1721 78.85 67.9221 86.35 59.3721 93.4C50.8221 100.3 41.8221 106.9 31.9221 111.4C26.9721 113.65 21.5721 115.3 16.4721 115C11.3721 114.85 7.02207 111.25 5.52207 106.45C3.87207 101.65 4.17207 96.1 4.92207 90.85C5.82207 85.6 7.47207 80.35 9.42207 75.25C17.6721 55.15 29.9721 36.1 46.3221 21.55C50.3721 17.95 54.7221 14.8 59.5221 12.1C61.9221 10.75 64.3221 9.7 66.8721 9.1C69.2721 8.5 71.5221 8.8 72.2721 11.05C73.6221 15.7 71.9721 21.55 70.4721 26.65C68.8221 31.75 67.0221 34.9 64.4721 39.55C63.7221 41.2 65.9721 44.2 66.8721 42.4C69.1221 37.15 70.7721 32.65 72.5721 27.25C74.0721 21.85 76.1721 16.45 74.6721 10.3C74.0721 8.65 72.8721 7 71.0721 6.55C69.4221 6.1 67.7721 6.1 66.2721 6.55C63.2721 7.15 60.7221 8.35 58.1721 9.7C53.2221 12.25 48.4221 15.55 44.2221 19.15C27.1221 34 13.9221 52.9 5.97207 73.9C4.02207 79.3 2.37207 84.7 1.47207 90.4C0.722069 95.95 0.42207 101.95 2.37207 107.65C4.32207 113.5 10.1721 117.85 16.3221 117.85C22.3221 118.15 27.8721 116.05 32.9721 113.65C43.1721 108.7 52.0221 101.8 60.5721 94.75C69.1221 87.55 77.0721 79.9 84.7221 71.65C84.8721 71.5 84.8721 71.2 84.7221 70.9ZM108.51 69.85C104.91 72.55 101.46 73.9 97.11 73.15C97.11 73.15 99.21 69.7 97.11 67.6C98.76 61.45 86.46 63.25 83.61 70C79.71 79.15 90.06 81.55 96.51 74.2C101.61 74.95 104.46 73.6 109.11 70.3C109.26 70.15 108.96 69.55 108.51 69.85ZM86.01 73.15C86.46 70 89.91 66.7 92.61 65.65C93.81 65.2 96.96 64.9 96.06 67.6C93.21 68.05 92.46 71.5 95.01 73.45C92.61 77.05 85.41 79.6 86.01 73.15ZM95.61 72.4C93.96 71.5 94.71 68.05 96.66 68.65C97.26 68.8 96.66 71.05 95.61 72.4ZM161.194 69.7C144.394 82.75 144.094 79 142.294 71.35C141.544 67.6 137.044 64.6 129.094 71.8C132.694 62.8 129.244 60.85 126.544 61.75C122.044 63.1 114.394 70.6 111.094 73.9C109.894 73.15 114.244 66.1 115.444 63.25C115.894 62.65 113.794 61 111.994 62.95C108.544 66.25 105.844 76.3 106.444 77.8C107.044 79.45 108.694 79 108.694 79C111.994 74.8 118.144 68.8 123.844 65.35C128.344 62.65 128.644 64.3 124.294 75.25C123.844 76.6 126.844 76.75 126.844 76.75C134.944 66.25 138.394 68.5 139.144 73C141.094 83.5 147.694 81.7 161.794 70.3C161.944 70.15 161.494 69.55 161.194 69.7ZM192.485 69.7C187.985 70.6 183.185 71.8 178.985 73.15C181.385 69.7 179.435 61.9 171.635 63.4C169.385 63.85 167.435 65.2 165.785 66.25C166.985 63.55 168.185 60.85 169.535 58.15C169.685 57.7 168.785 55.45 167.735 57.25C165.185 61.45 162.935 65.95 160.835 70.3C159.785 71.2 158.885 72.1 157.985 73.15C157.835 73.45 157.835 73.6 157.985 73.75C158.285 73.9 158.435 73.9 158.585 73.75C158.885 73.45 159.185 73.3 159.485 73C155.585 81.1 144.185 113.05 141.335 127.75C141.335 128.2 143.135 129.1 143.285 128.65C147.035 114.4 156.785 85.3 164.735 68.8C171.635 62.2 180.935 65.2 174.035 74.8C172.985 75.25 172.085 75.55 171.185 76C169.385 76.75 167.735 77.5 166.085 78.55C165.335 79.15 164.585 79.75 163.985 80.5C163.235 81.1 162.485 81.85 162.335 83.2C162.335 84.1 163.535 84.4 163.835 84.4C167.735 84.1 174.185 79.9 178.235 74.5C182.885 72.85 187.685 71.5 192.485 70.3C192.635 70.15 192.635 69.7 192.485 69.7ZM171.335 78.1C170.135 79.45 168.785 80.65 167.285 81.7C166.535 82.15 165.785 82.6 165.035 83.05C164.285 83.35 161.135 83.95 166.985 79.75C168.485 78.85 171.035 77.35 172.385 76.9C172.085 77.2 171.785 77.65 171.335 78.1ZM228.068 70.45C228.218 70.3 227.618 69.7 227.468 69.85C197.018 100.15 189.218 92.35 194.918 69.7C216.968 41.8 228.068 25.15 229.568 15.85C230.018 12.55 226.118 9.4 218.318 17.95C212.018 24.7 207.068 32.65 202.718 40.9C198.368 49.15 194.618 57.85 192.068 66.85C184.868 92.5 193.718 106.45 228.068 70.45ZM219.668 19.3C221.468 17.05 223.418 15.25 224.318 14.65C225.968 13.6 228.218 13.6 227.918 15.55C226.118 26.5 207.968 50.35 195.668 65.95C200.768 46.75 214.118 26.35 219.668 19.3ZM251.789 68.95C242.489 76.3 224.639 82.15 228.539 73.3C231.839 72.55 234.689 71.65 237.389 69.55C242.489 65.65 238.589 63.85 237.839 63.7C237.089 63.4 236.339 63.4 235.589 63.4C233.939 63.7 232.589 64.3 231.389 64.9C228.989 66.4 227.189 68.5 225.689 70.75C221.639 78.4 226.889 79.75 228.839 79.9C233.489 80.05 241.589 77.5 252.389 69.55C252.539 69.4 251.939 68.8 251.789 68.95ZM233.189 67.45C234.089 66.7 234.989 66.1 235.889 65.8C237.689 65.2 239.639 65.65 236.339 68.35C235.439 69.25 232.739 70.9 229.289 71.8C230.489 70.3 231.839 68.8 233.189 67.45ZM301.17 32.5C292.32 33.25 283.62 34.45 274.92 36.1H274.77C276.57 33.55 278.22 30.7 280.17 28.15C281.52 26.2 282.87 24.1 283.92 21.85C284.52 20.8 284.97 19.75 285.42 18.55C285.57 17.8 285.87 17.2 285.87 16.45C285.87 16.15 285.87 15.7 285.72 15.1C285.57 14.35 284.22 13.9 283.77 14.2C281.97 14.95 281.37 15.85 280.47 16.75C279.72 17.8 278.97 18.7 278.22 19.75C276.87 21.7 275.52 23.8 274.32 25.75C272.07 29.65 269.97 33.7 267.87 37.6C265.92 37.9 263.97 38.35 262.02 38.8C257.67 39.85 253.47 40.6 249.12 43C248.67 43.15 249.72 44.95 250.17 44.65L250.32 44.5C253.77 42.7 258.27 41.65 262.47 40.45C263.82 40.15 265.32 39.85 266.82 39.4C254.52 60.85 239.07 91 246.42 101.35C247.62 103 249.57 102.55 250.92 102.25C260.82 100 284.22 78.1 289.92 70.45C290.07 70.15 289.32 69.7 289.17 69.85C271.17 90.25 250.47 104.05 248.22 99.4C245.22 92.2 253.62 72.85 260.97 58.15C264.57 52 268.32 46 272.22 40C272.52 39.25 273.12 38.65 273.57 37.9C274.02 37.75 274.62 37.6 275.22 37.6C283.77 35.95 292.47 34.6 301.17 33.85C301.62 33.7 301.92 33.4 301.92 33.1C301.77 32.8 301.47 32.5 301.17 32.5ZM270.72 38.95C269.67 40.45 268.77 42.1 267.87 43.6C268.47 42.25 269.07 40.9 269.67 39.55C269.82 39.25 269.97 38.95 270.12 38.65C270.42 38.65 270.72 38.5 271.02 38.5C270.87 38.65 270.72 38.8 270.72 38.95ZM272.22 36.7C271.92 36.7 271.47 36.85 271.17 36.85C272.82 33.55 274.47 30.1 276.27 26.95C277.47 24.85 278.67 22.9 280.02 20.95C280.62 19.9 281.37 19 282.12 18.1C282.57 17.5 283.32 16.9 283.77 16.45C283.77 16.9 283.62 17.35 283.47 17.8C283.17 18.85 282.72 20.05 282.12 20.95C281.07 23.05 279.87 25.15 278.52 27.1C276.42 30.25 274.32 33.4 272.22 36.7ZM313.752 68.95C304.452 76.3 286.602 82.15 290.502 73.3C293.802 72.55 296.652 71.65 299.352 69.55C304.452 65.65 300.552 63.85 299.802 63.7C299.052 63.4 298.302 63.4 297.552 63.4C295.902 63.7 294.552 64.3 293.352 64.9C290.952 66.4 289.152 68.5 287.652 70.75C283.602 78.4 288.852 79.75 290.802 79.9C295.452 80.05 303.552 77.5 314.352 69.55C314.502 69.4 313.902 68.8 313.752 68.95ZM295.152 67.45C296.052 66.7 296.952 66.1 297.852 65.8C299.652 65.2 301.602 65.65 298.302 68.35C297.402 69.25 294.702 70.9 291.252 71.8C292.452 70.3 293.802 68.8 295.152 67.45ZM387.01 32.5C378.16 33.25 369.46 34.45 360.76 36.1H360.61C362.41 33.55 364.06 30.7 366.01 28.15C367.36 26.2 368.71 24.1 369.76 21.85C370.36 20.8 370.81 19.75 371.26 18.55C371.41 17.8 371.71 17.2 371.71 16.45C371.71 16.15 371.71 15.7 371.56 15.1C371.41 14.35 370.06 13.9 369.61 14.2C367.81 14.95 367.21 15.85 366.31 16.75C365.56 17.8 364.81 18.7 364.06 19.75C362.71 21.7 361.36 23.8 360.16 25.75C357.91 29.65 355.81 33.7 353.71 37.6C351.76 37.9 349.81 38.35 347.86 38.8C343.51 39.85 339.31 40.6 334.96 43C334.51 43.15 335.56 44.95 336.01 44.65L336.16 44.5C339.61 42.7 344.11 41.65 348.31 40.45C349.66 40.15 351.16 39.85 352.66 39.4C340.36 60.85 324.91 91 332.26 101.35C333.46 103 335.41 102.55 336.76 102.25C346.66 100 370.06 78.1 375.76 70.45C375.91 70.15 375.16 69.7 375.01 69.85C357.01 90.25 336.31 104.05 334.06 99.4C331.06 92.2 339.46 72.85 346.81 58.15C350.41 52 354.16 46 358.06 40C358.36 39.25 358.96 38.65 359.41 37.9C359.86 37.75 360.46 37.6 361.06 37.6C369.61 35.95 378.31 34.6 387.01 33.85C387.46 33.7 387.76 33.4 387.76 33.1C387.61 32.8 387.31 32.5 387.01 32.5ZM356.56 38.95C355.51 40.45 354.61 42.1 353.71 43.6C354.31 42.25 354.91 40.9 355.51 39.55C355.66 39.25 355.81 38.95 355.96 38.65C356.26 38.65 356.56 38.5 356.86 38.5C356.71 38.65 356.56 38.8 356.56 38.95ZM358.06 36.7C357.76 36.7 357.31 36.85 357.01 36.85C358.66 33.55 360.31 30.1 362.11 26.95C363.31 24.85 364.51 22.9 365.86 20.95C366.46 19.9 367.21 19 367.96 18.1C368.41 17.5 369.16 16.9 369.61 16.45C369.61 16.9 369.46 17.35 369.31 17.8C369.01 18.85 368.56 20.05 367.96 20.95C366.91 23.05 365.71 25.15 364.36 27.1C362.26 30.25 360.16 33.4 358.06 36.7ZM415.217 70C409.667 75.1 397.667 84.25 397.217 76.45C397.067 72.1 399.167 66.55 398.417 63.55C398.267 62.95 397.217 61.75 396.317 61.15C394.667 60.4 392.117 62.2 391.367 62.8C384.617 67.3 373.667 85.75 373.667 85.75C374.867 82 375.917 78.4 377.117 74.8C378.317 71.2 379.517 67.6 380.867 64C386.717 54.85 392.717 45.85 398.717 36.7C402.017 31.6 405.917 26.8 407.867 20.65C408.017 19.9 408.167 19 408.317 18.25C408.317 17.35 408.467 16.45 407.717 15.25C407.417 14.65 406.367 14.2 405.767 14.2C405.167 14.35 404.567 14.5 404.267 14.65C403.367 15.1 402.767 15.7 402.167 16.3C399.767 18.4 397.967 20.95 396.167 23.5C389.267 33.7 384.467 44.95 380.117 56.35C377.867 62.05 375.767 67.75 374.117 73.6C372.317 79.45 370.667 86.5 369.467 91.6V91.75C369.467 92.2 369.617 92.5 370.067 92.65C370.517 92.8 371.717 92.35 371.717 92.35C375.317 86.5 378.617 81.4 382.667 76.15C386.867 70.6 391.667 65.65 393.017 64.75C393.467 64.3 394.067 64 394.667 63.85C394.667 64.9 393.767 71.8 393.467 73.45C391.817 88.75 403.367 82.15 415.817 70.6C416.117 69.7 415.217 70 415.217 70ZM398.417 25C399.917 22.45 401.717 20.05 403.817 18.1C404.267 17.5 404.867 17.05 405.317 16.9C405.617 16.75 405.767 16.6 405.917 16.6C406.217 17.05 406.067 18.85 405.767 20.05C404.267 25.75 400.517 30.7 397.217 35.8C392.567 42.85 387.917 50.05 383.117 57.25C387.467 46.15 391.967 35.05 398.417 25ZM439.875 68.95C430.575 76.3 412.725 82.15 416.625 73.3C419.925 72.55 422.775 71.65 425.475 69.55C430.575 65.65 426.675 63.85 425.925 63.7C425.175 63.4 424.425 63.4 423.675 63.4C422.025 63.7 420.675 64.3 419.475 64.9C417.075 66.4 415.275 68.5 413.775 70.75C409.725 78.4 414.975 79.75 416.925 79.9C421.575 80.05 429.675 77.5 440.475 69.55C440.625 69.4 440.025 68.8 439.875 68.95ZM421.275 67.45C422.175 66.7 423.075 66.1 423.975 65.8C425.775 65.2 427.725 65.65 424.425 68.35C423.525 69.25 420.825 70.9 417.375 71.8C418.575 70.3 419.925 68.8 421.275 67.45ZM520.333 94.15C505.783 95.5 473.683 100.9 466.633 102.55C464.683 103 462.883 103.6 460.933 104.05C465.433 80.95 502.183 10.45 509.833 2.95C510.733 2.2 506.833 0.0999969 506.083 0.999999C497.383 10.3 460.933 80.2 457.183 105.1C456.733 105.1 456.433 105.25 455.983 105.4C454.183 106 452.383 106.45 450.583 107.35C449.683 107.8 448.633 108.1 447.433 109.3C447.133 109.9 446.683 110.35 446.833 111.55C446.833 112 447.133 112.6 447.433 112.9C447.583 113.05 447.733 113.35 448.033 113.5C448.933 114.25 449.233 114.1 449.983 114.4C451.033 114.85 452.233 111.1 452.233 111.1C453.733 110.5 455.383 109.9 457.183 109.3C460.483 108.25 464.083 107.2 467.533 106.3C474.583 104.65 506.233 98.5 520.633 97C521.383 96.85 521.083 94.15 520.333 94.15ZM565.343 70C562.493 71.2 556.193 71.5 552.893 70.75C552.743 70.3 552.593 70 552.293 69.7C551.993 65.2 545.993 66.4 542.693 70C542.543 70 542.543 70 542.543 70C538.943 72.7 535.493 74.2 531.143 73.3C531.143 73.3 533.243 69.85 531.143 67.9C532.943 61.75 520.643 63.55 517.643 70.15C513.743 79.45 524.093 81.85 530.543 74.35C534.893 75.1 537.743 74.05 541.343 71.65C541.043 72.25 540.743 72.85 540.593 73.45C539.393 77.65 541.493 80.2 544.193 80.35C550.193 80.8 553.193 75.25 553.043 71.95C556.643 72.4 562.343 71.95 565.493 70.3C565.793 70.3 565.643 69.7 565.343 70ZM520.193 73.45C520.493 70.15 523.943 66.85 526.643 65.8C527.993 65.35 530.993 65.2 530.093 67.75C527.243 68.35 526.643 71.65 529.043 73.6C526.643 77.35 519.443 79.75 520.193 73.45ZM529.643 72.55C528.143 71.8 528.743 68.35 530.693 68.95C531.293 69.1 530.693 71.2 529.643 72.55ZM550.643 74.95C548.993 78.4 543.443 81.55 543.293 75.85C543.143 73 545.843 69.7 548.093 68.5C549.593 67.6 550.793 68.35 551.243 69.7C550.493 69.7 549.893 71.05 551.243 71.5C551.393 71.5 551.393 71.65 551.393 71.65C551.393 72.55 551.243 73.75 550.643 74.95ZM600.839 69.7C582.089 86.05 577.739 81.7 574.289 74.2C589.139 66.85 587.339 61.45 581.789 62.8C576.389 64.15 571.139 67.9 567.539 73.3C569.039 68.65 569.639 67.6 570.989 63.55C579.539 52.45 591.539 36.55 596.189 24.55C599.339 16.3 597.239 13.45 591.839 17.35C577.289 30.85 564.539 71.5 562.589 77.95C561.539 81.25 559.139 90.4 559.139 90.4C559.139 90.4 558.989 91.9 559.139 92.05C559.139 92.35 560.939 92.5 561.089 92.05C565.289 77.8 571.589 69.55 578.489 65.8C579.689 65.2 581.189 64.45 582.239 64.45C585.389 64 577.589 70.75 571.289 72.85C569.489 73.9 571.439 77.5 572.489 79.15C576.989 86.2 585.239 85.3 601.439 70.3C601.739 70 601.139 69.55 600.839 69.7ZM591.389 21.4C595.739 15.7 597.389 16.9 594.689 23.65C591.239 31.75 586.889 39.7 572.339 58.3C577.739 43.9 583.439 31.9 591.389 21.4Z" fill="black"/>
</svg>
