<svg width="103" height="33" viewBox="0 0 103 33" fill="none" xmlns="http://www.w3.org/2000/svg">
<rect x="0.5" y="0.5" width="102" height="32" rx="16" stroke="#A75B41"/>
<rect x="25.5" y="0.5" width="52" height="32" stroke="#A75B41"/>
<path d="M19.75 15.25L19.75 17.5L16 17.5L16 21.25L13.75 21.25L13.75 17.5L10 17.5L10 15.25L13.75 15.25L13.75 11.5L16 11.5L16 15.25L19.75 15.25Z" fill="#A75B41"/>
<path d="M84.2 16.2L93.8 16.2L93.8 17.8L84.2 17.8L84.2 16.2Z" fill="#A75B41"/>
<path d="M53.498 21L51.7144 21L51.7144 14.2778C51.0627 14.8872 50.2946 15.3379 49.4102 15.6299L49.4102 14.0112C49.8756 13.8589 50.3813 13.5711 50.9272 13.1479C51.4731 12.7205 51.8477 12.2233 52.0508 11.6562L53.498 11.6562L53.498 21Z" fill="black"/>
</svg>
