<svg width="26" height="25" viewBox="0 0 26 25" fill="none" xmlns="http://www.w3.org/2000/svg">
<path d="M12.7937 24.7209C12.617 24.7204 12.4454 24.6596 12.3058 24.5482C7.85931 20.9944 4.79633 17.9342 2.65305 14.9151C-0.0820318 11.0569 -0.705823 7.49493 0.797673 4.32778C1.86931 2.06552 4.94828 0.214589 8.54708 1.29224C10.2629 1.80206 11.76 2.89539 12.7937 4.39359C13.8273 2.89539 15.3244 1.80206 17.0402 1.29224C20.631 0.231042 23.718 2.06552 24.7896 4.32778C26.2931 7.49493 25.6693 11.0569 22.9343 14.9151C20.791 17.9342 17.728 20.9944 13.2815 24.5482C13.1419 24.6596 12.9704 24.7204 12.7937 24.7209ZM6.49976 2.63314C5.64345 2.59886 4.79423 2.80511 4.04326 3.22976C3.29229 3.6544 2.66793 4.28141 2.23719 5.04347C0.997606 7.65946 1.55742 10.5716 3.94862 13.9362C6.48982 17.3078 9.4655 20.3078 12.7937 22.8536C16.1213 20.3104 19.0969 17.3131 21.6387 13.9444C24.0379 10.5716 24.5897 7.65946 23.3501 5.0517C22.5504 3.40642 20.1512 2.09843 17.4801 2.87171C16.6236 3.13207 15.8296 3.57401 15.1492 4.16907C14.4688 4.76413 13.917 5.49914 13.5294 6.32678C13.4692 6.47766 13.3667 6.60671 13.2349 6.69753C13.1032 6.78835 12.9482 6.83685 12.7897 6.83685C12.6311 6.83685 12.4761 6.78835 12.3444 6.69753C12.2127 6.60671 12.1102 6.47766 12.0499 6.32678C11.6652 5.49706 11.1144 4.76034 10.4336 4.16491C9.75271 3.56948 8.95722 3.12878 8.09923 2.87171C7.57938 2.71639 7.04108 2.63611 6.49976 2.63314Z" fill="black"/>
</svg>
