<svg width="166" height="86" viewBox="0 0 166 86" fill="none" xmlns="http://www.w3.org/2000/svg">
<path d="M40.7051 0.564353C40.6091 0.324352 39.6491 0.324352 39.7451 0.804353C40.8011 5.89235 32.1131 22.9324 26.6411 29.8924C24.9131 32.0524 22.9931 34.1164 20.8331 35.6044C20.3051 35.9404 19.7291 36.2764 19.2971 36.2764C18.9131 36.2764 18.7211 36.0364 18.5291 35.4604C18.2891 34.2604 18.3851 32.9164 18.5291 31.5724C18.8651 28.8844 19.4411 26.1964 19.9211 23.5084C20.1611 22.1644 20.4491 20.8204 20.6411 19.4284C20.7371 18.7564 20.8331 18.0844 20.9291 17.3644C20.9291 16.6444 21.0731 15.9724 20.7371 15.0604C20.6411 14.9164 20.6411 14.7724 20.4491 14.6764C20.3051 14.5324 20.1131 14.4364 19.9691 14.4364C19.5851 14.3884 19.3931 14.5324 19.1531 14.5804C18.7691 14.7724 18.4811 15.0124 18.2411 15.2524C17.6651 15.7324 17.1851 16.2604 16.7531 16.7884C15.7931 17.8444 14.9771 18.9004 14.1131 20.0044L9.07306 26.5324C7.39306 28.7404 5.76106 30.9004 3.98506 33.0124C3.12106 34.0204 2.20906 35.0764 1.24906 35.9404C1.24906 35.7004 1.29706 35.4124 1.34506 35.1244C1.48906 34.4524 1.68106 33.8284 1.87306 33.1564C3.60106 27.9724 5.76106 22.9324 7.82506 17.8444C9.98506 12.8044 12.1451 7.76435 14.4011 2.77235V2.72435C14.5451 2.43635 13.4411 1.95635 13.2971 2.24435C11.0891 7.28435 8.92906 12.3244 6.81706 17.4124C4.75306 22.5004 2.68906 27.6364 1.05706 32.9164C0.865062 33.5884 0.673062 34.2604 0.529062 34.9324C0.481062 35.3164 0.385062 35.6524 0.385062 36.0844C0.385062 36.1804 0.433062 36.3244 0.481062 36.4684C0.529062 36.5164 0.577062 36.6124 0.625062 36.7084C0.721062 36.8044 0.865062 36.9004 0.961062 36.9004C1.48906 36.9004 1.58506 36.7084 1.77706 36.5644C2.83306 35.6044 3.69706 34.5484 4.60906 33.4924C6.33706 31.3804 8.01706 29.1724 9.64906 26.9644C11.2811 24.7564 13.0091 22.5964 14.7371 20.4844C15.6011 19.4284 16.4651 18.3724 17.4251 17.4124C17.8571 16.9324 18.3371 16.4524 18.8651 16.0204C19.1051 15.8284 19.3931 15.6364 19.5851 15.5404C19.6331 15.5404 19.7291 15.4924 19.7291 15.4924C19.8731 15.8284 19.8251 16.6444 19.7291 17.2204C19.6811 17.8924 19.5371 18.5644 19.4411 19.2364L18.6251 23.2684C18.0491 25.9564 17.4731 28.6444 17.1851 31.4284C17.0891 32.8204 16.9451 34.2604 17.3291 35.7484C17.4251 36.1804 17.6171 36.5644 17.9531 36.9484C18.2891 37.3324 18.8651 37.5244 19.2971 37.5244C20.3051 37.4284 20.8811 36.9484 21.5051 36.5644C23.8091 34.7884 25.5371 32.6284 27.2651 30.4684C32.9771 23.4124 42.3851 4.54835 40.7051 0.564353ZM45.1319 23.3644C43.9799 24.2284 42.8759 24.6604 41.4839 24.4204C41.4839 24.4204 42.1559 23.3164 41.4839 22.6444C42.0119 20.6764 38.0759 21.2524 37.1639 23.4124C35.9159 26.3404 39.2279 27.1084 41.2919 24.7564C42.9239 24.9964 43.8359 24.5644 45.3239 23.5084C45.3719 23.4604 45.2759 23.2684 45.1319 23.3644ZM37.9319 24.4204C38.0759 23.4124 39.1799 22.3564 40.0439 22.0204C40.4279 21.8764 41.4359 21.7804 41.1479 22.6444C40.2359 22.7884 39.9959 23.8924 40.8119 24.5164C40.0439 25.6684 37.7399 26.4844 37.9319 24.4204ZM41.0039 24.1804C40.4759 23.8924 40.7159 22.7884 41.3399 22.9804C41.5319 23.0284 41.3399 23.7484 41.0039 24.1804ZM59.0148 23.3644C57.3828 24.6124 55.2708 24.8044 55.2708 23.5564C55.7988 21.9724 55.7988 21.0124 55.6548 20.8204C55.4628 20.5804 55.3188 20.6284 54.9828 20.8204C54.7428 20.9644 53.8788 22.6924 54.4548 23.8924C53.7348 26.2444 52.7268 27.1084 52.1028 27.1084C51.2388 27.1084 50.7108 25.2844 51.6708 21.4444V21.3964C51.6708 21.3004 51.2388 20.9644 50.9508 21.1084C50.6628 21.2524 45.9588 26.1484 46.1508 24.8044C46.3908 22.9324 47.4948 21.1084 48.0708 20.4364C48.2628 20.2444 47.7828 19.7644 47.2068 20.0524C46.2468 20.5804 45.0948 23.6524 45.1428 25.3324C45.1428 25.9564 45.6228 26.0044 45.8148 25.9564C46.9188 25.7164 50.1828 22.6924 50.1828 22.6924C49.8948 24.3724 49.8468 27.6364 51.2868 27.8284C53.2068 28.1164 54.3588 26.0524 54.9828 24.3244C55.7508 25.1404 57.7668 24.6604 59.1108 23.5084C59.1108 23.5084 59.0628 23.3644 59.0148 23.3644ZM61.0672 29.6524C60.7792 29.5084 60.3952 29.4604 60.0112 30.6124C59.6272 31.6684 61.0672 31.7644 61.5472 30.5644C61.7392 30.1804 61.4992 29.7484 61.0672 29.6524ZM70.9552 7.62035C70.7152 7.47635 70.3312 7.52435 70.1392 7.81235C66.4912 13.3324 63.7552 19.4284 61.6912 25.7164C61.6432 25.9084 62.3632 26.1484 62.4112 25.9564C64.5232 19.7644 67.4032 13.8124 71.1472 8.43635C71.2912 8.19635 71.2432 7.81235 70.9552 7.62035ZM114.299 0.564353C114.203 0.324352 113.243 0.324352 113.339 0.804353C114.395 5.89235 105.707 22.9324 100.235 29.8924C98.5068 32.0524 96.5868 34.1164 94.4268 35.6044C93.8988 35.9404 93.3228 36.2764 92.8908 36.2764C92.5068 36.2764 92.3148 36.0364 92.1228 35.4604C91.8828 34.2604 91.9788 32.9164 92.1228 31.5724C92.4588 28.8844 93.0348 26.1964 93.5148 23.5084C93.7548 22.1644 94.0428 20.8204 94.2348 19.4284C94.3308 18.7564 94.4268 18.0844 94.5228 17.3644C94.5228 16.6444 94.6668 15.9724 94.3308 15.0604C94.2348 14.9164 94.2348 14.7724 94.0428 14.6764C93.8988 14.5324 93.7068 14.4364 93.5628 14.4364C93.1788 14.3884 92.9868 14.5324 92.7468 14.5804C92.3628 14.7724 92.0748 15.0124 91.8348 15.2524C91.2588 15.7324 90.7788 16.2604 90.3468 16.7884C89.3868 17.8444 88.5708 18.9004 87.7068 20.0044L82.6668 26.5324C80.9868 28.7404 79.3548 30.9004 77.5788 33.0124C76.7148 34.0204 75.8028 35.0764 74.8428 35.9404C74.8428 35.7004 74.8908 35.4124 74.9388 35.1244C75.0828 34.4524 75.2748 33.8284 75.4668 33.1564C77.1948 27.9724 79.3548 22.9324 81.4188 17.8444C83.5788 12.8044 85.7388 7.76435 87.9948 2.77235V2.72435C88.1388 2.43635 87.0348 1.95635 86.8908 2.24435C84.6828 7.28435 82.5228 12.3244 80.4108 17.4124C78.3468 22.5004 76.2828 27.6364 74.6508 32.9164C74.4588 33.5884 74.2668 34.2604 74.1228 34.9324C74.0748 35.3164 73.9788 35.6524 73.9788 36.0844C73.9788 36.1804 74.0268 36.3244 74.0748 36.4684C74.1228 36.5164 74.1708 36.6124 74.2188 36.7084C74.3148 36.8044 74.4588 36.9004 74.5548 36.9004C75.0828 36.9004 75.1788 36.7084 75.3708 36.5644C76.4268 35.6044 77.2908 34.5484 78.2028 33.4924C79.9308 31.3804 81.6108 29.1724 83.2428 26.9644C84.8748 24.7564 86.6028 22.5964 88.3308 20.4844C89.1948 19.4284 90.0588 18.3724 91.0188 17.4124C91.4508 16.9324 91.9308 16.4524 92.4588 16.0204C92.6988 15.8284 92.9868 15.6364 93.1788 15.5404C93.2268 15.5404 93.3228 15.4924 93.3228 15.4924C93.4668 15.8284 93.4188 16.6444 93.3228 17.2204C93.2748 17.8924 93.1308 18.5644 93.0348 19.2364L92.2188 23.2684C91.6428 25.9564 91.0668 28.6444 90.7788 31.4284C90.6828 32.8204 90.5388 34.2604 90.9228 35.7484C91.0188 36.1804 91.2108 36.5644 91.5468 36.9484C91.8828 37.3324 92.4588 37.5244 92.8908 37.5244C93.8988 37.4284 94.4748 36.9484 95.0988 36.5644C97.4028 34.7884 99.1308 32.6284 100.859 30.4684C106.571 23.4124 115.979 4.54835 114.299 0.564353ZM124.294 23.4124C122.518 25.0444 118.678 27.9724 118.534 25.4764C118.486 24.0844 119.158 22.3084 118.918 21.3484C118.87 21.1564 118.534 20.7724 118.246 20.5804C117.718 20.3404 116.902 20.9164 116.662 21.1084C114.502 22.5484 110.998 28.4524 110.998 28.4524C111.382 27.2524 111.718 26.1004 112.102 24.9484C112.486 23.7964 112.87 22.6444 113.302 21.4924C115.174 18.5644 117.094 15.6844 119.014 12.7564C120.07 11.1244 121.318 9.58835 121.942 7.62035C121.99 7.38035 122.038 7.09235 122.086 6.85235C122.086 6.56435 122.134 6.27635 121.894 5.89235C121.798 5.70035 121.462 5.55635 121.27 5.55635C121.078 5.60435 120.886 5.65235 120.79 5.70035C120.502 5.84435 120.31 6.03635 120.118 6.22835C119.35 6.90035 118.774 7.71635 118.198 8.53235C115.99 11.7964 114.454 15.3964 113.062 19.0444C112.342 20.8684 111.67 22.6924 111.142 24.5644C110.566 26.4364 110.038 28.6924 109.654 30.3244V30.3724C109.654 30.5164 109.702 30.6124 109.846 30.6604C109.99 30.7084 110.374 30.5644 110.374 30.5644C111.526 28.6924 112.582 27.0604 113.878 25.3804C115.222 23.6044 116.758 22.0204 117.19 21.7324C117.334 21.5884 117.526 21.4924 117.718 21.4444C117.718 21.7804 117.43 23.9884 117.334 24.5164C116.806 29.4124 120.502 27.3004 124.486 23.6044C124.582 23.3164 124.294 23.4124 124.294 23.4124ZM118.918 9.01235C119.398 8.19635 119.974 7.42835 120.646 6.80435C120.79 6.61235 120.982 6.46835 121.126 6.42035C121.222 6.37235 121.27 6.32435 121.318 6.32435C121.414 6.46835 121.366 7.04435 121.27 7.42835C120.79 9.25235 119.59 10.8364 118.534 12.4684C117.046 14.7244 115.558 17.0284 114.022 19.3324C115.414 15.7804 116.854 12.2284 118.918 9.01235ZM135.304 23.3164C130.024 26.5324 128.2 26.6764 130.264 21.9244C130.264 21.7804 129.88 21.4924 129.784 21.3964C129.64 21.3004 129.4 21.3004 129.304 21.4924C129.208 21.5884 129.112 21.6844 129.016 21.7804C127.864 21.1084 126.328 21.7324 125.32 22.5004C124.792 22.8844 124.312 23.3644 123.88 23.8924C123.688 24.1804 123.496 24.4204 123.304 24.7564C122.776 26.0524 123.448 26.4844 124.408 26.1484C125.128 25.9084 126.472 24.8524 126.952 24.4684C127.576 23.8924 128.2 23.3644 128.824 22.7884C127.192 26.6284 128.872 27.6364 135.448 23.5564C135.496 23.5084 135.4 23.2684 135.304 23.3164ZM126.616 24.0364C126.136 24.4204 125.656 24.7564 125.128 25.0924C124.888 25.2364 124.6 25.3804 124.36 25.4284C124.312 25.4284 124.312 25.4284 124.312 25.4284C124.312 25.3804 124.36 25.2844 124.408 25.2364C124.504 24.9964 124.648 24.7564 124.792 24.5164C125.128 24.0844 125.512 23.6044 125.944 23.2204C126.712 22.5004 127.72 21.8764 128.776 22.0204C128.104 22.7404 127.384 23.4124 126.616 24.0364ZM150.986 11.4124C148.154 11.6524 145.37 12.0364 142.586 12.5644H142.538C143.114 11.7484 143.642 10.8364 144.266 10.0204C144.698 9.39635 145.13 8.72435 145.466 8.00435C145.658 7.66835 145.802 7.33235 145.946 6.94835C145.994 6.70835 146.09 6.51635 146.09 6.27635C146.09 6.18035 146.09 6.03635 146.042 5.84435C145.994 5.60435 145.562 5.46035 145.418 5.55635C144.842 5.79635 144.65 6.08435 144.362 6.37235C144.122 6.70835 143.882 6.99635 143.642 7.33235C143.21 7.95635 142.778 8.62835 142.394 9.25235C141.674 10.5004 141.002 11.7964 140.33 13.0444C139.706 13.1404 139.082 13.2844 138.458 13.4284C137.066 13.7644 135.722 14.0044 134.33 14.7724C134.186 14.8204 134.522 15.3964 134.666 15.3004L134.714 15.2524C135.818 14.6764 137.258 14.3404 138.602 13.9564C139.034 13.8604 139.514 13.7644 139.994 13.6204C136.058 20.4844 131.114 30.1324 133.466 33.4444C133.85 33.9724 134.474 33.8284 134.906 33.7324C138.074 33.0124 145.562 26.0044 147.386 23.5564C147.434 23.4604 147.194 23.3164 147.146 23.3644C141.386 29.8924 134.762 34.3084 134.042 32.8204C133.082 30.5164 135.77 24.3244 138.122 19.6204C139.274 17.6524 140.474 15.7324 141.722 13.8124C141.818 13.5724 142.01 13.3804 142.154 13.1404C142.298 13.0924 142.49 13.0444 142.682 13.0444C145.418 12.5164 148.202 12.0844 150.986 11.8444C151.13 11.7964 151.226 11.7004 151.226 11.6044C151.178 11.5084 151.082 11.4124 150.986 11.4124ZM141.242 13.4764C140.906 13.9564 140.618 14.4844 140.33 14.9644C140.522 14.5324 140.714 14.1004 140.906 13.6684C140.954 13.5724 141.002 13.4764 141.05 13.3804C141.146 13.3804 141.242 13.3324 141.338 13.3324C141.29 13.3804 141.242 13.4284 141.242 13.4764ZM141.722 12.7564C141.626 12.7564 141.482 12.8044 141.386 12.8044C141.914 11.7484 142.442 10.6444 143.018 9.63635C143.402 8.96435 143.786 8.34035 144.218 7.71635C144.41 7.38035 144.65 7.09235 144.89 6.80435C145.034 6.61235 145.274 6.42035 145.418 6.27635C145.418 6.42035 145.37 6.56435 145.322 6.70835C145.226 7.04435 145.082 7.42835 144.89 7.71635C144.554 8.38835 144.17 9.06035 143.738 9.68435C143.066 10.6924 142.394 11.7004 141.722 12.7564ZM165.773 23.3164C160.493 26.5324 158.669 26.6764 160.733 21.9244C160.733 21.7804 160.349 21.4924 160.253 21.3964C160.109 21.3004 159.869 21.3004 159.773 21.4924C159.677 21.5884 159.581 21.6844 159.485 21.7804C158.333 21.1084 156.797 21.7324 155.789 22.5004C155.261 22.8844 154.781 23.3644 154.349 23.8924C154.157 24.1804 153.965 24.4204 153.773 24.7564C153.245 26.0524 153.917 26.4844 154.877 26.1484C155.597 25.9084 156.941 24.8524 157.421 24.4684C158.045 23.8924 158.669 23.3644 159.293 22.7884C157.661 26.6284 159.341 27.6364 165.917 23.5564C165.965 23.5084 165.869 23.2684 165.773 23.3164ZM157.085 24.0364C156.605 24.4204 156.125 24.7564 155.597 25.0924C155.357 25.2364 155.069 25.3804 154.829 25.4284C154.781 25.4284 154.781 25.4284 154.781 25.4284C154.781 25.3804 154.829 25.2844 154.877 25.2364C154.973 24.9964 155.117 24.7564 155.261 24.5164C155.597 24.0844 155.981 23.6044 156.413 23.2204C157.181 22.5004 158.189 21.8764 159.245 22.0204C158.573 22.7404 157.853 23.4124 157.085 24.0364ZM36.2409 64.2684C34.7529 65.0364 32.9769 66.2844 31.5849 67.3404C31.7289 66.7644 32.3049 64.0284 32.3049 63.1644C32.2569 62.7804 31.2969 61.7724 31.0089 62.1564C30.7209 62.4924 29.8089 63.4044 29.8089 63.4524C29.5689 63.1164 29.2809 62.8284 28.8489 62.7324C28.4169 62.5884 27.9369 62.5884 27.5049 62.7324C26.6889 62.9724 26.0169 63.5484 25.4889 64.1244C24.9129 64.7484 24.3849 65.6124 24.2409 66.4764C24.0969 67.4844 25.3449 67.2924 25.7289 67.1484C27.9849 66.2364 31.2489 62.9724 31.2489 62.9724C31.2489 62.9724 31.2489 63.1164 31.2489 63.1644C31.2009 63.8364 31.0089 64.6044 30.8649 65.2764C30.5769 66.4284 30.2409 67.5804 29.8569 68.7324C29.4249 69.0684 28.9929 69.4524 28.5609 69.8364C26.3049 71.8524 24.6249 73.4844 22.7529 75.8844C21.8409 77.0844 20.9289 78.3324 20.1129 79.6284C19.3449 80.9244 18.5289 82.2684 18.1449 83.8524C18.0969 84.2844 18.0009 84.7164 18.2409 85.2444C18.3849 85.5324 18.6249 85.7724 18.9129 85.8684C19.2009 85.9164 19.3929 85.9644 19.6329 85.9644C20.5449 85.9644 21.3129 85.5804 21.9849 85.1484C23.3289 84.2364 24.3369 82.9884 25.2009 81.7404C28.0809 77.6124 29.9529 72.7644 31.3929 68.0604C32.8809 66.8124 34.7049 65.4684 36.3369 64.5084C36.3849 64.4604 36.2889 64.2684 36.2409 64.2684ZM26.2569 66.2364C25.9209 66.4284 25.5849 66.6204 25.2969 66.7164C25.2489 66.7164 25.2009 66.7164 25.1529 66.7164C25.1529 66.7164 25.1529 66.6684 25.1529 66.6204C25.3449 66.0924 25.9209 65.4204 26.3049 64.8444C27.1689 63.8844 28.3689 62.8284 29.5689 63.6444C28.5129 64.6044 27.4569 65.6124 26.2569 66.2364ZM28.0809 73.8204C26.9289 76.6044 26.0169 78.6684 24.3849 81.1644C23.5209 82.3644 22.6089 83.5644 21.4569 84.3804C20.8809 84.7644 20.2569 85.0524 19.6329 85.0524C18.0969 85.0044 20.0649 81.3084 20.8329 80.0604C21.6009 78.7644 22.4649 77.5644 23.3769 76.3644C25.2009 73.9644 26.7849 72.3324 28.9449 70.2204C29.1849 70.0284 29.3769 69.8364 29.6169 69.5964C29.1369 71.0364 28.6569 72.4284 28.0809 73.8204ZM45.3009 64.3164C41.4609 66.8124 38.1969 67.7244 39.3969 65.7084C40.1649 64.4604 39.9249 63.9324 37.6209 63.4524C37.7169 63.3084 38.9169 62.0124 38.5329 61.1964C38.4369 60.9564 38.1489 60.8604 37.8129 60.9564C37.1409 61.1484 36.4689 61.9644 36.2289 62.3964C36.1809 62.5404 35.9889 62.9724 36.0369 63.3084C36.1329 63.7404 36.5649 63.8364 36.8049 63.8844C36.8529 63.9804 36.9489 64.0284 37.0449 64.0284C37.1889 63.9804 37.1889 63.9324 37.2849 63.8844C39.0129 64.1724 38.8689 64.6524 38.6289 65.1324C38.2449 65.8524 38.0049 66.3804 38.0529 66.7644C38.2929 68.9244 43.8129 65.5644 45.3969 64.5084H45.4449C45.4929 64.4604 45.3489 64.2684 45.3009 64.3164ZM36.9489 63.3564C36.3249 63.3564 37.8129 61.3884 38.1009 61.5804C38.4369 61.7244 37.5249 63.0204 36.9489 63.3564ZM53.036 64.0764C50.06 66.4284 44.348 68.3004 45.596 65.4684C46.652 65.2284 47.564 64.9404 48.428 64.2684C50.06 63.0204 48.812 62.4444 48.572 62.3964C48.332 62.3004 48.092 62.3004 47.852 62.3004C47.324 62.3964 46.892 62.5884 46.508 62.7804C45.74 63.2604 45.164 63.9324 44.684 64.6524C43.388 67.1004 45.068 67.5324 45.692 67.5804C47.18 67.6284 49.772 66.8124 53.228 64.2684C53.276 64.2204 53.084 64.0284 53.036 64.0764ZM47.084 63.5964C47.372 63.3564 47.66 63.1644 47.948 63.0684C48.524 62.8764 49.148 63.0204 48.092 63.8844C47.804 64.1724 46.94 64.7004 45.836 64.9884C46.22 64.5084 46.652 64.0284 47.084 63.5964ZM63.7498 64.3164C58.4698 67.5324 56.6458 67.6764 58.7098 62.9244C58.7098 62.7804 58.3258 62.4924 58.2298 62.3964C58.0858 62.3004 57.8458 62.3004 57.7498 62.4924C57.6538 62.5884 57.5578 62.6844 57.4618 62.7804C56.3098 62.1084 54.7738 62.7324 53.7658 63.5004C53.2378 63.8844 52.7577 64.3644 52.3257 64.8924C52.1337 65.1804 51.9417 65.4204 51.7497 65.7564C51.2217 67.0524 51.8937 67.4844 52.8537 67.1484C53.5738 66.9084 54.9178 65.8524 55.3978 65.4684C56.0218 64.8924 56.6458 64.3644 57.2698 63.7884C55.6378 67.6284 57.3178 68.6364 63.8938 64.5564C63.9418 64.5084 63.8458 64.2684 63.7498 64.3164ZM55.0618 65.0364C54.5818 65.4204 54.1018 65.7564 53.5738 66.0924C53.3338 66.2364 53.0457 66.3804 52.8057 66.4284C52.7577 66.4284 52.7577 66.4284 52.7577 66.4284C52.7577 66.3804 52.8057 66.2844 52.8537 66.2364C52.9497 65.9964 53.0938 65.7564 53.2378 65.5164C53.5738 65.0844 53.9578 64.6044 54.3898 64.2204C55.1578 63.5004 56.1658 62.8764 57.2218 63.0204C56.5498 63.7404 55.8298 64.4124 55.0618 65.0364ZM79.4315 52.4124C76.5995 52.6524 73.8155 53.0364 71.0315 53.5644H70.9835C71.5595 52.7484 72.0875 51.8364 72.7115 51.0204C73.1435 50.3964 73.5755 49.7244 73.9115 49.0044C74.1035 48.6684 74.2475 48.3324 74.3915 47.9484C74.4395 47.7084 74.5355 47.5164 74.5355 47.2764C74.5355 47.1804 74.5355 47.0364 74.4875 46.8444C74.4395 46.6044 74.0075 46.4604 73.8635 46.5564C73.2875 46.7964 73.0955 47.0844 72.8075 47.3724C72.5675 47.7084 72.3275 47.9964 72.0875 48.3324C71.6555 48.9564 71.2235 49.6284 70.8395 50.2524C70.1195 51.5004 69.4475 52.7964 68.7755 54.0444C68.1515 54.1404 67.5275 54.2844 66.9035 54.4284C65.5115 54.7644 64.1675 55.0044 62.7755 55.7724C62.6315 55.8204 62.9675 56.3964 63.1115 56.3004L63.1595 56.2524C64.2635 55.6764 65.7035 55.3404 67.0475 54.9564C67.4795 54.8604 67.9595 54.7644 68.4395 54.6204C64.5035 61.4844 59.5595 71.1324 61.9115 74.4444C62.2955 74.9724 62.9195 74.8284 63.3515 74.7324C66.5195 74.0124 74.0075 67.0044 75.8315 64.5564C75.8795 64.4604 75.6395 64.3164 75.5915 64.3644C69.8315 70.8924 63.2075 75.3084 62.4875 73.8204C61.5275 71.5164 64.2155 65.3244 66.5675 60.6204C67.7195 58.6524 68.9195 56.7324 70.1675 54.8124C70.2635 54.5724 70.4555 54.3804 70.5995 54.1404C70.7435 54.0924 70.9355 54.0444 71.1275 54.0444C73.8635 53.5164 76.6475 53.0844 79.4315 52.8444C79.5755 52.7964 79.6715 52.7004 79.6715 52.6044C79.6235 52.5084 79.5275 52.4124 79.4315 52.4124ZM69.6875 54.4764C69.3515 54.9564 69.0635 55.4844 68.7755 55.9644C68.9675 55.5324 69.1595 55.1004 69.3515 54.6684C69.3995 54.5724 69.4475 54.4764 69.4955 54.3804C69.5915 54.3804 69.6875 54.3324 69.7835 54.3324C69.7355 54.3804 69.6875 54.4284 69.6875 54.4764ZM70.1675 53.7564C70.0715 53.7564 69.9275 53.8044 69.8315 53.8044C70.3595 52.7484 70.8875 51.6444 71.4635 50.6364C71.8475 49.9644 72.2315 49.3404 72.6635 48.7164C72.8555 48.3804 73.0955 48.0924 73.3355 47.8044C73.4795 47.6124 73.7195 47.4204 73.8635 47.2764C73.8635 47.4204 73.8155 47.5644 73.7675 47.7084C73.6715 48.0444 73.5275 48.4284 73.3355 48.7164C72.9995 49.3884 72.6155 50.0604 72.1835 50.6844C71.5115 51.6924 70.8395 52.7004 70.1675 53.7564ZM91.2905 64.2684C89.6585 65.4684 87.7385 66.3324 86.1065 66.8604C83.1785 67.7724 83.3225 64.2204 85.8665 62.3964C86.1545 62.2524 86.4905 62.1564 86.7785 62.3004C87.0185 62.3964 87.1625 62.7804 87.1145 63.1164C87.1145 63.2124 87.1145 63.3084 87.1145 63.4044C87.1145 63.4044 87.1625 63.6444 87.3545 63.5964C87.3545 63.5964 87.6905 62.4924 87.8345 62.2044V62.1564C87.8825 62.1564 87.8825 62.1564 87.8825 62.1084C87.9305 61.9644 87.5945 61.9644 87.5465 62.0604L87.3545 62.4444C87.2585 62.2524 87.1625 62.1084 86.9705 61.9644C86.5385 61.6764 84.4265 61.6764 82.9865 64.5564C81.9785 66.5724 83.4665 68.1084 86.2025 67.2444C88.0745 66.6204 89.8985 65.6124 91.4825 64.4604C91.5305 64.4124 91.3865 64.1724 91.2905 64.2684ZM104.348 64.4124C102.572 66.0444 98.7324 68.9724 98.5884 66.4764C98.5404 65.0844 99.2124 63.3084 98.9724 62.3484C98.9244 62.1564 98.5884 61.7724 98.3004 61.5804C97.7724 61.3404 96.9564 61.9164 96.7164 62.1084C94.5564 63.5484 91.0524 69.4524 91.0524 69.4524C91.4364 68.2524 91.7724 67.1004 92.1564 65.9484C92.5404 64.7964 92.9244 63.6444 93.3564 62.4924C95.2284 59.5644 97.1484 56.6844 99.0684 53.7564C100.124 52.1244 101.372 50.5884 101.996 48.6204C102.044 48.3804 102.092 48.0924 102.14 47.8524C102.14 47.5644 102.188 47.2764 101.948 46.8924C101.852 46.7004 101.516 46.5564 101.324 46.5564C101.132 46.6044 100.94 46.6524 100.844 46.7004C100.556 46.8444 100.364 47.0364 100.172 47.2284C99.4044 47.9004 98.8284 48.7164 98.2524 49.5324C96.0444 52.7964 94.5084 56.3964 93.1164 60.0444C92.3964 61.8684 91.7244 63.6924 91.1964 65.5644C90.6204 67.4364 90.0924 69.6924 89.7084 71.3244V71.3724C89.7084 71.5164 89.7564 71.6124 89.9004 71.6604C90.0444 71.7084 90.4284 71.5644 90.4284 71.5644C91.5804 69.6924 92.6364 68.0604 93.9324 66.3804C95.2764 64.6044 96.8124 63.0204 97.2444 62.7324C97.3884 62.5884 97.5804 62.4924 97.7724 62.4444C97.7724 62.7804 97.4844 64.9884 97.3884 65.5164C96.8604 70.4124 100.556 68.3004 104.54 64.6044C104.636 64.3164 104.348 64.4124 104.348 64.4124ZM98.9724 50.0124C99.4524 49.1964 100.028 48.4284 100.7 47.8044C100.844 47.6124 101.036 47.4684 101.18 47.4204C101.276 47.3724 101.324 47.3244 101.372 47.3244C101.468 47.4684 101.42 48.0444 101.324 48.4284C100.844 50.2524 99.6444 51.8364 98.5884 53.4684C97.1004 55.7244 95.6124 58.0284 94.0764 60.3324C95.4684 56.7804 96.9084 53.2284 98.9724 50.0124ZM111.999 64.3644C110.847 65.2284 109.743 65.6604 108.351 65.4204C108.351 65.4204 109.023 64.3164 108.351 63.6444C108.879 61.6764 104.943 62.2524 104.031 64.4124C102.783 67.3404 106.095 68.1084 108.159 65.7564C109.791 65.9964 110.703 65.5644 112.191 64.5084C112.239 64.4604 112.143 64.2684 111.999 64.3644ZM104.799 65.4204C104.943 64.4124 106.047 63.3564 106.911 63.0204C107.295 62.8764 108.303 62.7804 108.015 63.6444C107.103 63.7884 106.863 64.8924 107.679 65.5164C106.911 66.6684 104.607 67.4844 104.799 65.4204ZM107.871 65.1804C107.343 64.8924 107.583 63.7884 108.207 63.9804C108.399 64.0284 108.207 64.7484 107.871 65.1804ZM118.49 64.3644C116.186 65.9004 113.306 67.3404 112.73 66.4284C112.682 66.1404 112.778 65.6604 112.922 65.2284C113.21 64.3644 113.45 64.0764 113.93 63.2604C113.93 63.2124 113.93 63.2124 113.978 63.1644C114.074 62.8764 113.498 61.5324 112.778 62.7804C112.298 63.6444 112.106 64.0764 111.866 65.1324C111.578 66.1404 111.818 67.1964 112.874 67.2924C113.882 67.3884 116.234 66.2844 118.634 64.5564C118.73 64.5084 118.586 64.3164 118.49 64.3644ZM115.178 60.7644C115.226 60.6204 115.13 59.9004 114.794 60.2364C114.41 60.5724 113.738 60.9084 113.642 61.1004C113.498 61.4844 115.082 61.2444 115.178 60.7644ZM126.541 64.2684C124.909 65.4684 122.989 66.3324 121.357 66.8604C118.428 67.7724 118.572 64.2204 121.117 62.3964C121.405 62.2524 121.741 62.1564 122.029 62.3004C122.269 62.3964 122.413 62.7804 122.365 63.1164C122.365 63.2124 122.365 63.3084 122.365 63.4044C122.365 63.4044 122.413 63.6444 122.605 63.5964C122.605 63.5964 122.941 62.4924 123.085 62.2044V62.1564C123.133 62.1564 123.133 62.1564 123.133 62.1084C123.181 61.9644 122.845 61.9644 122.797 62.0604L122.605 62.4444C122.509 62.2524 122.413 62.1084 122.221 61.9644C121.789 61.6764 119.677 61.6764 118.236 64.5564C117.229 66.5724 118.716 68.1084 121.453 67.2444C123.325 66.6204 125.148 65.6124 126.733 64.4604C126.781 64.4124 126.637 64.1724 126.541 64.2684ZM134.27 64.0764C131.294 66.4284 125.582 68.3004 126.83 65.4684C127.886 65.2284 128.798 64.9404 129.662 64.2684C131.294 63.0204 130.046 62.4444 129.806 62.3964C129.566 62.3004 129.326 62.3004 129.086 62.3004C128.558 62.3964 128.126 62.5884 127.742 62.7804C126.974 63.2604 126.398 63.9324 125.918 64.6524C124.622 67.1004 126.302 67.5324 126.926 67.5804C128.414 67.6284 131.006 66.8124 134.462 64.2684C134.51 64.2204 134.318 64.0284 134.27 64.0764ZM128.318 63.5964C128.606 63.3564 128.894 63.1644 129.182 63.0684C129.758 62.8764 130.382 63.0204 129.326 63.8844C129.038 64.1724 128.174 64.7004 127.07 64.9884C127.454 64.5084 127.886 64.0284 128.318 63.5964ZM135.528 70.6524C135.24 70.5084 134.856 70.4604 134.472 71.6124C134.088 72.6684 135.528 72.7644 136.008 71.5644C136.2 71.1804 135.96 70.7484 135.528 70.6524ZM145.416 48.6204C145.176 48.4764 144.792 48.5244 144.6 48.8124C140.952 54.3324 138.216 60.4284 136.152 66.7164C136.104 66.9084 136.824 67.1484 136.872 66.9564C138.984 60.7644 141.864 54.8124 145.608 49.4364C145.752 49.1964 145.704 48.8124 145.416 48.6204Z" fill="#A75B41"/>
</svg>
