<svg width="14" height="13" viewBox="0 0 14 13" fill="none" xmlns="http://www.w3.org/2000/svg">
<path d="M6.65037 12.6517C6.56043 12.6514 6.47312 12.6203 6.40207 12.5632C4.13885 10.7439 2.57983 9.1773 1.48892 7.63173C0.0967966 5.65659 -0.220706 3.83307 0.544556 2.21169C1.09001 1.05357 2.65717 0.106008 4.48891 0.657698C5.36227 0.918693 6.12425 1.4784 6.65037 2.24538C7.1765 1.4784 7.93848 0.918693 8.81183 0.657698C10.6395 0.114431 12.2107 1.05357 12.7562 2.21169C13.5215 3.83307 13.2039 5.65659 11.8118 7.63173C10.7209 9.1773 9.1619 10.7439 6.89868 12.5632C6.82763 12.6203 6.74031 12.6514 6.65037 12.6517ZM3.44685 1.34415C3.011 1.3266 2.57876 1.43219 2.19652 1.64958C1.81429 1.86697 1.49649 2.18796 1.27725 2.57808C0.64632 3.9173 0.931258 5.40812 2.14835 7.13057C3.44179 8.85664 4.95638 10.3925 6.65037 11.6957C8.3441 10.3937 9.85867 8.85936 11.1524 7.13479C12.3736 5.40812 12.6544 3.9173 12.0235 2.58229C11.6164 1.74002 10.3953 1.07041 9.03571 1.46628C8.59977 1.59957 8.19564 1.82581 7.84931 2.13045C7.50299 2.43508 7.22215 2.81135 7.02486 3.23506C6.9942 3.3123 6.94203 3.37836 6.87498 3.42486C6.80794 3.47135 6.72905 3.49618 6.64834 3.49618C6.56763 3.49618 6.48874 3.47135 6.42169 3.42486C6.35465 3.37836 6.30248 3.3123 6.27181 3.23506C6.07601 2.81029 5.79565 2.43314 5.44911 2.12832C5.10257 1.82349 4.69767 1.59789 4.26096 1.46628C3.99637 1.38677 3.72238 1.34567 3.44685 1.34415Z" fill="black"/>
</svg>
