<svg width="237" height="104" viewBox="0 0 237 104" fill="none" xmlns="http://www.w3.org/2000/svg">
<path d="M60.16 91.48C52.72 87.28 38.32 64.72 32.08 58.24C60.16 51.88 74.08 36.88 78.16 28.72C86.2 12.28 76.84 0.159999 47.08 16C49.96 11.44 53.08 6.16 53.08 6.16C53.56 5.44 51.16 2.92 50.68 3.64C46.72 10 44.92 13.24 41.08 19.6C35.32 23.44 29.8 27.64 24.28 31.96C24.04 32.2 24.88 33.28 25.24 33.04C29.56 29.92 34 26.8 38.56 23.92C33.4 33.04 33.76 31.48 29.08 40.72C27.04 44.68 25.36 47.92 23.32 51.88C22.24 51.4 17.68 49.84 15.28 52.96C14.2 54.88 15.28 56.68 16.36 57.52C17.56 58.36 18.76 58.84 20.08 59.08C14.68 70.6 4.96 90.52 0.399999 102.4C0.279999 103 2.2 103.72 2.44 103.12C7.24 91 17.2 70.96 22.84 59.2C25.24 59.08 26.44 59.08 28.72 58.72C36.4 66.04 49.12 87.76 57.16 92.44C58.36 93.28 60.04 92.44 60.16 91.48ZM31.48 42.04C37.36 31 38.08 30.88 44.44 20.32C46.72 19 49 17.68 51.28 16.48C55.84 14.08 60.52 12.04 65.44 10.84C76.72 8.2 83.2 15.16 73.84 30.28C66.28 42.4 48.16 52 30.16 56.2C28.96 55.24 27.28 53.92 25.84 52.96C27.76 49 29.44 46 31.48 42.04ZM20.68 57.16C19.6 57.04 18.4 56.68 17.56 55.96C16.72 55.36 16.24 54.4 16.6 53.92C16.96 53.44 18.16 53.2 19.24 53.44C20.32 53.56 21.28 53.92 22.24 54.4C21.76 55.36 21.4 56.2 21.04 57.04C20.92 57.04 20.8 57.16 20.68 57.16ZM23.92 57.04C24.16 56.56 24.4 56.08 24.64 55.6C25.24 55.96 25.96 56.32 26.68 56.68C25.72 56.8 24.88 56.92 23.92 57.04ZM83.4025 63.16C75.9625 69.04 61.6825 73.72 64.8025 66.64C67.4425 66.04 69.7225 65.32 71.8825 63.64C75.9625 60.52 72.8425 59.08 72.2425 58.96C71.6425 58.72 71.0425 58.72 70.4425 58.72C69.1225 58.96 68.0425 59.44 67.0825 59.92C65.1625 61.12 63.7225 62.8 62.5225 64.6C59.2825 70.72 63.4825 71.8 65.0425 71.92C68.7625 72.04 75.2425 70 83.8825 63.64C84.0025 63.52 83.5225 63.04 83.4025 63.16ZM68.5225 61.96C69.2425 61.36 69.9625 60.88 70.6825 60.64C72.1225 60.16 73.6825 60.52 71.0425 62.68C70.3225 63.4 68.1625 64.72 65.4025 65.44C66.3625 64.24 67.4425 63.04 68.5225 61.96ZM111.387 63.76C97.5869 75.04 98.4269 70.96 96.0269 64.6C95.0669 61.72 91.9469 58.24 84.1469 66.4C84.6269 64.48 87.0269 60.64 87.7469 59.8C88.3469 59.32 86.9069 58.24 84.9869 59.44C83.9069 60.16 81.1469 67 81.1469 70.12C81.0269 71.32 82.5869 71.2 82.5869 71.2C90.1469 60.16 92.1869 62.08 93.8669 67.48C96.2669 75.52 100.467 73.36 111.747 64.36C111.987 64.24 111.507 63.64 111.387 63.76ZM150.798 34C143.718 34.6 136.758 35.56 129.798 36.88H129.678C131.118 34.84 132.438 32.56 133.998 30.52C135.078 28.96 136.158 27.28 136.998 25.48C137.478 24.64 137.838 23.8 138.198 22.84C138.318 22.24 138.558 21.76 138.558 21.16C138.558 20.92 138.558 20.56 138.438 20.08C138.318 19.48 137.238 19.12 136.878 19.36C135.438 19.96 134.958 20.68 134.238 21.4C133.638 22.24 133.038 22.96 132.438 23.8C131.358 25.36 130.278 27.04 129.318 28.6C127.518 31.72 125.838 34.96 124.158 38.08C122.598 38.32 121.038 38.68 119.478 39.04C115.998 39.88 112.638 40.48 109.157 42.4C108.797 42.52 109.637 43.96 109.997 43.72L110.117 43.6C112.878 42.16 116.478 41.32 119.838 40.36C120.918 40.12 122.118 39.88 123.318 39.52C113.478 56.68 101.117 80.8 106.997 89.08C107.957 90.4 109.517 90.04 110.597 89.8C118.518 88 137.238 70.48 141.798 64.36C141.918 64.12 141.318 63.76 141.198 63.88C126.798 80.2 110.237 91.24 108.437 87.52C106.037 81.76 112.758 66.28 118.638 54.52C121.518 49.6 124.518 44.8 127.638 40C127.878 39.4 128.358 38.92 128.718 38.32C129.077 38.2 129.558 38.08 130.038 38.08C136.878 36.76 143.838 35.68 150.798 35.08C151.158 34.96 151.398 34.72 151.398 34.48C151.278 34.24 151.038 34 150.798 34ZM126.438 39.16C125.598 40.36 124.878 41.68 124.158 42.88C124.638 41.8 125.118 40.72 125.598 39.64C125.718 39.4 125.838 39.16 125.958 38.92C126.198 38.92 126.438 38.8 126.678 38.8C126.558 38.92 126.438 39.04 126.438 39.16ZM127.638 37.36C127.398 37.36 127.038 37.48 126.798 37.48C128.118 34.84 129.438 32.08 130.878 29.56C131.838 27.88 132.798 26.32 133.878 24.76C134.358 23.92 134.958 23.2 135.558 22.48C135.918 22 136.518 21.52 136.878 21.16C136.878 21.52 136.758 21.88 136.638 22.24C136.398 23.08 136.038 24.04 135.558 24.76C134.718 26.44 133.758 28.12 132.678 29.68C130.998 32.2 129.318 34.72 127.638 37.36ZM176.725 63.88C170.965 67.72 163.765 71.32 162.325 69.04C162.205 68.32 162.445 67.12 162.805 66.04C163.525 63.88 164.125 63.16 165.325 61.12C165.325 61 165.325 61 165.445 60.88C165.685 60.16 164.245 56.8 162.445 59.92C161.245 62.08 160.765 63.16 160.165 65.8C159.445 68.32 160.045 70.96 162.685 71.2C165.205 71.44 171.085 68.68 177.085 64.36C177.325 64.24 176.965 63.76 176.725 63.88ZM168.445 54.88C168.565 54.52 168.325 52.72 167.485 53.56C166.525 54.4 164.845 55.24 164.605 55.72C164.245 56.68 168.205 56.08 168.445 54.88ZM216.891 34C209.811 34.6 202.851 35.56 195.891 36.88H195.771C197.211 34.84 198.531 32.56 200.091 30.52C201.171 28.96 202.251 27.28 203.091 25.48C203.571 24.64 203.931 23.8 204.291 22.84C204.411 22.24 204.651 21.76 204.651 21.16C204.651 20.92 204.651 20.56 204.531 20.08C204.411 19.48 203.331 19.12 202.971 19.36C201.531 19.96 201.051 20.68 200.331 21.4C199.731 22.24 199.131 22.96 198.531 23.8C197.451 25.36 196.371 27.04 195.411 28.6C193.611 31.72 191.931 34.96 190.251 38.08C188.691 38.32 187.131 38.68 185.571 39.04C182.091 39.88 178.731 40.48 175.251 42.4C174.891 42.52 175.731 43.96 176.091 43.72L176.211 43.6C178.971 42.16 182.571 41.32 185.931 40.36C187.011 40.12 188.211 39.88 189.411 39.52C179.571 56.68 167.211 80.8 173.091 89.08C174.051 90.4 175.611 90.04 176.691 89.8C184.611 88 203.331 70.48 207.891 64.36C208.011 64.12 207.411 63.76 207.291 63.88C192.891 80.2 176.331 91.24 174.531 87.52C172.131 81.76 178.851 66.28 184.731 54.52C187.611 49.6 190.611 44.8 193.731 40C193.971 39.4 194.451 38.92 194.811 38.32C195.171 38.2 195.651 38.08 196.131 38.08C202.971 36.76 209.931 35.68 216.891 35.08C217.251 34.96 217.491 34.72 217.491 34.48C217.371 34.24 217.131 34 216.891 34ZM192.531 39.16C191.691 40.36 190.971 41.68 190.251 42.88C190.731 41.8 191.211 40.72 191.691 39.64C191.811 39.4 191.931 39.16 192.051 38.92C192.291 38.92 192.531 38.8 192.771 38.8C192.651 38.92 192.531 39.04 192.531 39.16ZM193.731 37.36C193.491 37.36 193.131 37.48 192.891 37.48C194.211 34.84 195.531 32.08 196.971 29.56C197.931 27.88 198.891 26.32 199.971 24.76C200.451 23.92 201.051 23.2 201.651 22.48C202.011 22 202.611 21.52 202.971 21.16C202.971 21.52 202.851 21.88 202.731 22.24C202.491 23.08 202.131 24.04 201.651 24.76C200.811 26.44 199.851 28.12 198.771 29.68C197.091 32.2 195.411 34.72 193.731 37.36ZM211.117 79.6C210.397 79.24 209.437 79.12 208.477 82C207.517 84.64 211.117 84.88 212.317 81.88C212.797 80.92 212.197 79.84 211.117 79.6ZM235.837 24.52C235.237 24.16 234.277 24.28 233.797 25C224.677 38.8 217.837 54.04 212.677 69.76C212.557 70.24 214.357 70.84 214.477 70.36C219.757 54.88 226.957 40 236.317 26.56C236.677 25.96 236.557 25 235.837 24.52Z" fill="#A75B41"/>
</svg>
