<svg width="24" height="25" viewBox="0 0 24 25" fill="none" xmlns="http://www.w3.org/2000/svg">
<path d="M19.8133 17.348C19.3167 17.3499 18.8256 17.4521 18.3695 17.6485C17.9134 17.8449 17.5017 18.1314 17.159 18.4908L8.17144 13.9933C8.39253 13.323 8.39253 12.5993 8.17144 11.9289L17.1738 7.35034C17.8186 8.02985 18.6931 8.44533 19.6271 8.51604C20.5612 8.58674 21.4882 8.30762 22.228 7.73291C22.9678 7.15821 23.4674 6.32898 23.6298 5.40641C23.7923 4.48384 23.6059 3.53383 23.1069 2.74103C22.6079 1.94824 21.8319 1.36929 20.9298 1.11673C20.0278 0.864161 19.064 0.956019 18.2259 1.37445C17.3878 1.79287 16.7352 2.50797 16.3949 3.38076C16.0547 4.25355 16.0511 5.22166 16.3849 6.09694L7.47102 10.6313C6.9896 10.0425 6.33787 9.61706 5.60516 9.41323C4.87245 9.20939 4.09463 9.23717 3.37832 9.49274C2.66202 9.74831 2.04229 10.2192 1.60409 10.8408C1.16589 11.4624 0.930664 12.2043 0.930664 12.9648C0.930664 13.7254 1.16589 14.4673 1.60409 15.0889C2.04229 15.7105 2.66202 16.1813 3.37832 16.4369C4.09463 16.6925 4.87245 16.7202 5.60516 16.5164C6.33787 16.3126 6.9896 15.8871 7.47102 15.2983L16.3628 19.7737C16.2125 20.1771 16.1351 20.604 16.1342 21.0345C16.1342 21.7636 16.3504 22.4763 16.7555 23.0826C17.1606 23.6888 17.7363 24.1613 18.4099 24.4403C19.0835 24.7193 19.8248 24.7924 20.5399 24.6501C21.255 24.5079 21.9118 24.1568 22.4274 23.6412C22.943 23.1256 23.2941 22.4688 23.4363 21.7537C23.5786 21.0386 23.5056 20.2973 23.2265 19.6237C22.9475 18.9501 22.475 18.3744 21.8688 17.9693C21.2625 17.5642 20.5498 17.348 19.8207 17.348H19.8133ZM19.8133 2.60218C20.2508 2.60218 20.6784 2.7319 21.0422 2.97494C21.4059 3.21799 21.6894 3.56344 21.8568 3.9676C22.0242 4.37177 22.068 4.81651 21.9827 5.24557C21.8973 5.67463 21.6867 6.06875 21.3773 6.37809C21.068 6.68742 20.6739 6.89808 20.2448 6.98343C19.8158 7.06878 19.371 7.02497 18.9669 6.85756C18.5627 6.69015 18.2172 6.40665 17.9742 6.04291C17.7312 5.67916 17.6014 5.25152 17.6014 4.81405C17.6014 4.22743 17.8345 3.66483 18.2493 3.25002C18.6641 2.83521 19.2267 2.60218 19.8133 2.60218ZM4.67667 15.1361C4.23921 15.1361 3.81156 15.0064 3.44782 14.7634C3.08408 14.5203 2.80058 14.1749 2.63316 13.7707C2.46575 13.3665 2.42195 12.9218 2.50729 12.4928C2.59264 12.0637 2.8033 11.6696 3.11264 11.3602C3.42198 11.0509 3.81609 10.8402 4.24516 10.7549C4.67422 10.6695 5.11896 10.7133 5.52312 10.8808C5.92729 11.0482 6.27274 11.3317 6.51578 11.6954C6.75883 12.0592 6.88855 12.4868 6.88855 12.9243C6.88855 13.5109 6.65552 14.0735 6.24071 14.4883C5.8259 14.9031 5.2633 15.1361 4.67667 15.1361ZM19.8133 23.2464C19.3758 23.2464 18.9482 23.1166 18.5845 22.8736C18.2207 22.6306 17.9372 22.2851 17.7698 21.8809C17.6024 21.4768 17.5586 21.032 17.6439 20.603C17.7293 20.1739 17.9399 19.7798 18.2493 19.4705C18.5586 19.1611 18.9527 18.9505 19.3818 18.8651C19.8109 18.7798 20.2556 18.8236 20.6598 18.991C21.0639 19.1584 21.4094 19.4419 21.6524 19.8056C21.8955 20.1694 22.0252 20.597 22.0252 21.0345C22.0252 21.6211 21.7921 22.1837 21.3773 22.5985C20.9625 23.0133 20.3999 23.2464 19.8133 23.2464Z" fill="black"/>
</svg>
