<svg width="568" height="135" viewBox="0 0 568 135" fill="none" xmlns="http://www.w3.org/2000/svg">
<path d="M95.5289 67.45C85.9289 67.15 76.4789 68.8 67.3289 71.65C71.3789 63.25 74.8289 54.55 78.1289 45.7C81.2789 36.85 83.9789 27.85 86.0789 18.55C86.9789 13.75 88.1789 9.4 87.7289 3.84999C87.5789 3.25 87.5789 2.35 86.3789 1.3C84.8789 0.249997 83.5289 0.849998 82.9289 1.15C81.5789 1.75 80.6789 2.65 79.6289 3.4C77.8289 5.05 76.1789 6.85 74.6789 8.5C62.0789 22.75 50.8289 37.6 37.0289 50.35C30.1289 56.65 22.9289 62.65 14.8289 66.85C12.7289 67.9 10.6289 68.95 8.52891 69.4C6.42891 69.85 4.62891 69.7 4.17891 68.2C3.27891 64.6 4.92891 59.65 6.42891 55.6C13.3289 38.35 23.2289 22.3 33.2789 6.55V6.4C33.8789 5.35 30.2789 3.25 29.6789 4.15C19.9289 20.35 10.3289 36.55 3.57891 54.4C2.82891 56.65 2.07891 59.05 1.47891 61.45C1.02891 63.85 0.578906 66.25 1.47891 69.25C2.07891 70.6 3.57891 71.95 5.07891 72.25C6.57891 72.55 7.92891 72.25 9.12891 71.95C11.6789 71.35 13.7789 70.3 16.0289 69.1C24.4289 64.6 31.7789 58.45 38.6789 52C52.3289 38.95 64.4789 24.55 77.0789 10.75C78.5789 9.1 80.2289 7.45 81.8789 5.95C82.6289 5.2 83.5289 4.6 84.2789 4.3V4.45C84.5789 8.35 83.5289 13.3 82.4789 17.65C80.3789 26.65 77.3789 35.65 74.2289 44.35C70.6289 54.25 66.5789 64 62.0789 73.45C55.0289 76.15 48.2789 79.45 41.8289 83.35C33.7289 88.15 26.0789 93.85 19.3289 100.45C15.8789 103.9 12.7289 107.5 10.0289 111.4C8.67891 113.5 7.47891 115.6 6.72891 118.15C5.97891 120.4 5.52891 123.85 8.07891 126.25C10.6289 128.35 13.4789 128.35 15.8789 128.2C18.4289 128.05 20.8289 127.6 23.2289 126.85C28.0289 125.05 32.0789 122.2 35.6789 119.05C43.0289 112.6 48.5789 104.8 53.6789 96.85C58.4789 89.35 62.5289 81.7 66.2789 73.75C75.7289 70.45 85.4789 68.35 95.5289 68.5C95.8289 68.5 95.8289 67.45 95.5289 67.45ZM50.5289 94.9C45.5789 102.7 40.0289 110.35 33.2789 116.5C29.9789 119.5 26.2289 122.2 22.1789 123.7C18.2789 124.9 12.7289 125.95 10.1789 124C8.97891 123.1 8.97891 121 9.57891 119.05C10.1789 116.95 11.2289 115 12.5789 113.05C14.9789 109.3 17.9789 105.7 21.2789 102.4C27.7289 95.95 35.2289 90.1 43.0289 85.15C48.7289 81.7 54.5789 78.55 60.8789 75.85C57.5789 82.3 54.2789 88.75 50.5289 94.9ZM118.431 66.85C114.831 69.55 111.381 70.9 107.031 70.15C107.031 70.15 109.131 66.7 107.031 64.6C108.681 58.45 96.3809 60.25 93.5309 67C89.6309 76.15 99.9809 78.55 106.431 71.2C111.531 71.95 114.381 70.6 119.031 67.3C119.181 67.15 118.881 66.55 118.431 66.85ZM95.9309 70.15C96.3809 67 99.8309 63.7 102.531 62.65C103.731 62.2 106.881 61.9 105.981 64.6C103.131 65.05 102.381 68.5 104.931 70.45C102.531 74.05 95.3309 76.6 95.9309 70.15ZM105.531 69.4C103.881 68.5 104.631 65.05 106.581 65.65C107.181 65.8 106.581 68.05 105.531 69.4ZM147.415 66.55C134.515 76.3 130.315 75.4 132.115 70.15C132.715 67.9 134.215 64.3 134.965 61.9C135.115 61.45 133.765 59.95 132.715 60.55C128.815 67.45 125.515 70.45 120.415 73.3C116.815 75.4 120.415 67.3 123.265 63.55C123.265 63.55 121.615 61 120.565 61.75C119.065 62.95 115.615 70.15 115.465 72.1C114.865 79.3 124.465 73.75 129.115 68.8C125.515 78.7 135.415 77.8 148.015 67.15C148.165 67 147.715 66.4 147.415 66.55ZM223.41 66.7C206.61 79.75 206.31 76 204.51 68.35C203.76 64.6 199.26 61.6 191.31 68.8C194.91 59.8 191.46 57.85 188.76 58.75C184.26 60.1 176.61 67.6 173.31 70.9C172.11 70.15 176.46 63.1 177.66 60.25C178.11 59.65 176.01 58 174.21 59.95C170.76 63.25 168.06 73.3 168.66 74.8C169.26 76.45 170.91 76 170.91 76C174.21 71.8 180.36 65.8 186.06 62.35C190.56 59.65 190.86 61.3 186.51 72.25C186.06 73.6 189.06 73.75 189.06 73.75C197.16 63.25 200.61 65.5 201.36 70C203.31 80.5 209.91 78.7 224.01 67.3C224.16 67.15 223.71 66.55 223.41 66.7ZM257.251 66.7C240.751 76.75 235.051 77.2 241.501 62.35C241.501 61.9 240.301 61 240.001 60.7C239.551 60.4 238.801 60.4 238.501 61C238.201 61.3 237.901 61.6 237.601 61.9C234.001 59.8 229.201 61.75 226.051 64.15C224.401 65.35 222.901 66.85 221.551 68.5C220.951 69.4 220.351 70.15 219.751 71.2C218.101 75.25 220.201 76.6 223.201 75.55C225.451 74.8 229.651 71.5 231.151 70.3C233.101 68.5 235.051 66.85 237.001 65.05C231.901 77.05 237.151 80.2 257.701 67.45C257.851 67.3 257.551 66.55 257.251 66.7ZM230.101 68.95C228.601 70.15 227.101 71.2 225.451 72.25C224.701 72.7 223.801 73.15 223.051 73.3C222.901 73.3 222.901 73.3 222.901 73.3C222.901 73.15 223.051 72.85 223.201 72.7C223.501 71.95 223.951 71.2 224.401 70.45C225.451 69.1 226.651 67.6 228.001 66.4C230.401 64.15 233.551 62.2 236.851 62.65C234.751 64.9 232.501 67 230.101 68.95ZM291.107 66.55C291.107 66.25 279.857 73.9 273.407 78.7C274.307 75.7 276.407 66.55 276.407 66.55C277.457 61.6 277.607 60.4 274.307 60.4C268.607 67.6 257.657 76 257.207 72.55C257.807 69.25 259.757 66.25 260.807 63.25H260.957C261.257 62.5 258.257 61 257.957 61.9C255.857 65.95 252.407 73.45 256.157 75.4C260.657 77.5 274.157 63.85 274.157 63.85C274.007 64.45 269.207 80.95 268.907 82C252.557 94 236.207 112.75 234.257 125.05C232.757 134.35 242.057 133.45 246.407 130.45C249.557 128.35 252.257 125.65 254.507 122.65C258.857 116.5 262.007 109.75 264.857 103.15C267.557 96.55 270.707 88.15 272.657 81.4C278.807 75.85 291.407 67.3 291.407 67.3C291.407 67.3 291.257 66.7 291.107 66.55ZM261.707 101.8C259.007 108.4 255.707 114.85 251.807 120.7C249.857 123.55 248.657 125.5 245.957 127.45C239.507 132.55 234.257 130.45 238.157 120.7C241.307 112.45 252.407 97.3 268.007 84.85C266.207 89.95 263.657 96.7 261.707 101.8ZM348.071 66.7C331.571 76.75 325.871 77.2 332.321 62.35C332.321 61.9 331.121 61 330.821 60.7C330.371 60.4 329.621 60.4 329.321 61C329.021 61.3 328.721 61.6 328.421 61.9C324.821 59.8 320.021 61.75 316.871 64.15C315.221 65.35 313.721 66.85 312.371 68.5C311.771 69.4 311.171 70.15 310.571 71.2C308.921 75.25 311.021 76.6 314.021 75.55C316.271 74.8 320.471 71.5 321.971 70.3C323.921 68.5 325.871 66.85 327.821 65.05C322.721 77.05 327.971 80.2 348.521 67.45C348.671 67.3 348.371 66.55 348.071 66.7ZM320.921 68.95C319.421 70.15 317.921 71.2 316.271 72.25C315.521 72.7 314.621 73.15 313.871 73.3C313.721 73.3 313.721 73.3 313.721 73.3C313.721 73.15 313.871 72.85 314.021 72.7C314.321 71.95 314.771 71.2 315.221 70.45C316.271 69.1 317.471 67.6 318.821 66.4C321.221 64.15 324.371 62.2 327.671 62.65C325.571 64.9 323.321 67 320.921 68.95ZM384.327 67.45C384.477 67.3 383.877 66.7 383.727 66.85C353.277 97.15 345.477 89.35 351.177 66.7C373.227 38.8 384.327 22.15 385.827 12.85C386.277 9.55 382.377 6.4 374.577 14.95C368.277 21.7 363.327 29.65 358.977 37.9C354.627 46.15 350.877 54.85 348.327 63.85C341.127 89.5 349.977 103.45 384.327 67.45ZM375.927 16.3C377.727 14.05 379.677 12.25 380.577 11.65C382.227 10.6 384.477 10.6 384.177 12.55C382.377 23.5 364.227 47.35 351.927 62.95C357.027 43.75 370.377 23.35 375.927 16.3ZM403.733 66.7C398.033 68.8 392.333 71.2 386.933 74.2V74.05C387.083 72.1 387.083 70 387.083 68.05C387.233 65.65 387.233 63.25 387.533 61C390.233 59.5 392.633 57.55 394.133 54.85C395.633 52.3 395.333 49.15 390.983 51.1C388.283 52.3 384.533 55.75 384.083 61.6C383.933 61.6 383.783 61.75 383.633 61.75C383.483 61.9 383.333 62.05 383.333 62.35C383.483 62.5 383.633 62.65 383.933 62.65C383.933 62.5 383.933 62.5 383.933 62.5C383.633 64.3 383.333 73.6 383.333 76.3C382.433 76.9 381.533 77.5 380.783 78.1C378.983 79.3 377.333 80.65 375.983 82.45C375.383 83.35 374.783 84.4 374.783 85.75C374.633 86.95 375.383 88.3 376.733 88.9C379.433 89.95 382.133 88.45 383.783 86.65C385.283 84.85 386.033 82.6 386.633 80.5C386.933 78.7 386.933 77.05 386.933 75.4C392.483 72.25 398.183 69.7 404.033 67.3C404.183 67.15 404.033 66.55 403.733 66.7ZM388.583 56.5C389.483 53.65 395.933 48.55 393.233 54.4C392.033 56.8 390.083 58.75 387.683 60.1C387.833 58.9 388.133 57.7 388.583 56.5ZM383.333 80.05C383.033 81.85 382.583 83.8 381.683 85.15C380.783 86.65 378.983 87.85 377.483 87.4C375.983 86.95 375.983 84.7 377.033 83.05C378.083 81.4 379.583 80.05 381.383 78.85C381.983 78.4 382.733 77.95 383.333 77.65C383.333 78.4 383.333 79.3 383.333 80.05ZM427.22 66.85C423.62 69.55 420.17 70.9 415.82 70.15C415.82 70.15 417.92 66.7 415.82 64.6C417.47 58.45 405.17 60.25 402.32 67C398.42 76.15 408.77 78.55 415.22 71.2C420.32 71.95 423.17 70.6 427.82 67.3C427.97 67.15 427.67 66.55 427.22 66.85ZM404.72 70.15C405.17 67 408.62 63.7 411.32 62.65C412.52 62.2 415.67 61.9 414.77 64.6C411.92 65.05 411.17 68.5 413.72 70.45C411.32 74.05 404.12 76.6 404.72 70.15ZM414.32 69.4C412.67 68.5 413.42 65.05 415.37 65.65C415.97 65.8 415.37 68.05 414.32 69.4ZM488.331 67.45C488.481 67.3 487.881 66.7 487.731 66.85C457.281 97.15 449.481 89.35 455.181 66.7C477.231 38.8 488.331 22.15 489.831 12.85C490.281 9.55 486.381 6.4 478.581 14.95C472.281 21.7 467.331 29.65 462.981 37.9C458.631 46.15 454.881 54.85 452.331 63.85C445.131 89.5 453.981 103.45 488.331 67.45ZM479.931 16.3C481.731 14.05 483.681 12.25 484.581 11.65C486.231 10.6 488.481 10.6 488.181 12.55C486.381 23.5 468.231 47.35 455.931 62.95C461.031 43.75 474.381 23.35 479.931 16.3ZM507.27 66.85C500.07 71.65 491.07 76.15 489.27 73.3C489.12 72.4 489.42 70.9 489.87 69.55C490.77 66.85 491.52 65.95 493.02 63.4C493.02 63.25 493.02 63.25 493.17 63.1C493.47 62.2 491.67 58 489.42 61.9C487.92 64.6 487.32 65.95 486.57 69.25C485.67 72.4 486.42 75.7 489.72 76C492.87 76.3 500.22 72.85 507.72 67.45C508.02 67.3 507.57 66.7 507.27 66.85ZM496.92 55.6C497.07 55.15 496.77 52.9 495.72 53.95C494.52 55 492.42 56.05 492.12 56.65C491.67 57.85 496.62 57.1 496.92 55.6ZM542.352 66.7C523.602 83.05 519.252 78.7 515.802 71.2C530.652 63.85 528.852 58.45 523.302 59.8C517.902 61.15 512.652 64.9 509.052 70.3C510.552 65.65 511.152 64.6 512.502 60.55C521.052 49.45 533.052 33.55 537.702 21.55C540.852 13.3 538.752 10.45 533.352 14.35C518.802 27.85 506.052 68.5 504.102 74.95C503.052 78.25 500.652 87.4 500.652 87.4C500.652 87.4 500.502 88.9 500.652 89.05C500.652 89.35 502.452 89.5 502.602 89.05C506.802 74.8 513.102 66.55 520.002 62.8C521.202 62.2 522.702 61.45 523.752 61.45C526.902 61 519.102 67.75 512.802 69.85C511.002 70.9 512.952 74.5 514.002 76.15C518.502 83.2 526.752 82.3 542.952 67.3C543.252 67 542.652 66.55 542.352 66.7ZM532.902 18.4C537.252 12.7 538.902 13.9 536.202 20.65C532.752 28.75 528.402 36.7 513.852 55.3C519.252 40.9 524.952 28.9 532.902 18.4ZM566.691 65.95C557.391 73.3 539.541 79.15 543.441 70.3C546.741 69.55 549.591 68.65 552.291 66.55C557.391 62.65 553.491 60.85 552.741 60.7C551.991 60.4 551.241 60.4 550.491 60.4C548.841 60.7 547.491 61.3 546.291 61.9C543.891 63.4 542.091 65.5 540.591 67.75C536.541 75.4 541.791 76.75 543.741 76.9C548.391 77.05 556.491 74.5 567.291 66.55C567.441 66.4 566.841 65.8 566.691 65.95ZM548.091 64.45C548.991 63.7 549.891 63.1 550.791 62.8C552.591 62.2 554.541 62.65 551.241 65.35C550.341 66.25 547.641 67.9 544.191 68.8C545.391 67.3 546.741 65.8 548.091 64.45Z" fill="black"/>
</svg>
