<svg width="1512" height="1585" viewBox="0 0 1512 1585" fill="none" xmlns="http://www.w3.org/2000/svg">
<path opacity="0.07" fill-rule="evenodd" clip-rule="evenodd" d="M-379.717 1.07911C-375.298 -4.7129 -317.737 29.1584 -206.486 75.2901C-158.773 93.7059 -114.317 110.764 -69.4845 125.619C-43.9398 134 -18.0487 142.012 11.7653 149.446C14.995 150.041 22.0309 151.336 31.3438 154.024C44.0072 157.492 56.2823 161.887 68.045 167.165C81.8537 173.279 109.302 181.361 168.1 190.555C246.972 176.589 327.487 175.827 405.405 188.309C549.298 211.969 654.874 279.146 775.987 356.219C814.696 380.774 846.487 401.024 887.294 432.354C902.655 444.167 930.637 466.316 991.386 513.442C1008.8 528.043 1027.65 541.255 1047.73 552.936C1083.56 572.63 1113.69 580.231 1111.15 586.26C1110.28 589.348 1100.76 589.113 1060.12 592.572C1029.4 595.257 1025.65 596.083 1024.32 598.653C1020.05 606.962 1050.17 618.893 1089.79 654.011C1107.72 669.653 1123.68 687.532 1156.78 722.533L1177.58 744.767C1181.67 749.202 1187.38 755.232 1190.95 758.921C1213.95 783.647 1239.44 806.453 1267.14 827.078C1285.38 838.123 1315.33 857.601 1310.56 866.794C1305.79 875.986 1273.06 870.722 1248.61 867.089C1191.97 859.266 1162.34 845.152 1158.87 849.712C1155.41 854.271 1169.73 866.759 1238.07 913.224L1361.1 1032.66L1543.46 1290.14C1600.94 1350.21 1672.3 1398.65 1753.11 1432.44C1783.68 1445.28 1815.44 1455.94 1848.1 1464.32C1806.65 1494.21 1760.83 1518.89 1712.02 1537.6C1660.97 1557.99 1606.77 1570.78 1551.68 1575.45C1472.09 1581.21 1392.98 1569.26 1321.62 1540.69C1320.32 1545.33 1318.41 1552.12 1317.25 1560.57C1313.97 1578.27 1314.92 1581.8 1311.54 1583.88C1304.21 1587.95 1291.19 1573.43 1264.79 1560.77C1252.32 1554.97 1239.12 1550.4 1225.43 1547.14C1190.14 1536.75 1154.75 1512.48 1108.12 1479.86C1059.58 1445.38 1015.49 1412.36 975.547 1381.41L971.925 1399.04L968.853 1413.85C946.622 1407.86 925.203 1399.93 904.907 1390.17C865.904 1371.06 831.351 1345.82 802.856 1315.63C765.953 1278.42 737.259 1235.32 718.163 1188.42C709.976 1184.31 698.992 1180.23 691.201 1184.21C683.41 1188.19 686.02 1202.64 679.208 1207.89C662.699 1220.01 603.069 1177.53 603.069 1177.53C556.129 1145.75 515.176 1107.7 481.589 1064.65C481.589 1064.65 409.119 971.626 384.301 871.342C375.856 836.655 373.451 819.321 373.451 819.321C367.035 774.83 371.506 745.984 362.797 744.598C354.089 743.212 345.419 760.241 340.133 768.689C325.862 791.833 327.868 804.979 322.185 806.64C310.789 810.066 276.514 764.563 243.086 679.802C210.75 598.058 206.992 549.291 181.258 442.774C172.441 405.961 159.14 353.598 139.908 290.831C282.119 335.528 412.831 403.094 525.657 490.226C637.415 577.272 706.026 665.474 763.979 739.805C866.722 871.86 851.1 891.182 955.51 1029.39C1033.94 1133.15 1102.95 1222.94 1223.31 1304.42C1360.33 1396.98 1498.47 1434.64 1500.92 1430.65C1503.38 1426.66 1389.64 1389.82 1257.73 1296.36C1138.67 1211.11 1070.12 1122.7 990.447 1018.17C880.938 874.367 901.514 862.452 779.882 699.203C692.439 581.765 641.026 513.943 544.394 442.566C467.433 386.006 381.872 339.059 289.955 302.955C275.137 296.981 198.618 272.29 45.6087 222.806C-51.2365 191.452 -104.373 174.637 -173.498 139.18C-212.354 119.375 -249.694 97.4259 -285.306 73.4557C-323.986 47.9316 -383.24 5.84504 -379.284 0.83424" fill="white"/>
</svg>
