<svg width="350" height="430" viewBox="0 0 350 430" fill="none" xmlns="http://www.w3.org/2000/svg">
<path opacity="0.1" fill-rule="evenodd" clip-rule="evenodd" d="M0.911286 0.546115C1.92335 -0.835023 11.7513 8.66717 31.3395 22.1704C39.7826 27.6173 47.6523 32.6672 55.6608 37.1691C60.2264 39.7136 64.8688 42.171 70.2696 44.5503C70.8611 44.7549 72.1498 45.2008 73.8256 46.036C76.11 47.1246 78.2926 48.4399 80.3514 49.9683C82.7709 51.7419 87.7052 54.2435 98.5241 57.5607C113.844 55.3963 129.069 56.5806 143.397 61.0513C169.838 69.461 187.709 88.1599 208.209 109.613C214.764 116.45 220.145 122.086 226.887 130.663C229.425 133.896 234.028 139.945 244.051 152.835C246.89 156.805 250.043 160.45 253.476 163.731C259.636 169.296 265.092 171.723 264.427 173.195C264.168 173.957 262.378 173.735 254.599 173.911C248.717 174.061 247.983 174.205 247.653 174.828C246.591 176.845 251.913 180.36 258.315 189.869C261.219 194.11 263.683 198.879 268.859 208.247L272.103 214.195C272.739 215.38 273.631 216.994 274.193 217.983C277.776 224.594 281.889 230.765 286.484 236.426C289.59 239.515 294.646 244.926 293.464 247.156C292.281 249.387 286.263 247.503 281.758 246.172C271.305 243.237 266.143 239.18 265.349 240.268C264.555 241.355 266.875 244.741 278.351 257.594L297.913 289.735L324.439 357.605C333.446 373.695 345.432 387.097 359.652 396.977C365.029 400.728 370.699 403.952 376.609 406.618C367.865 413.428 358.455 418.85 348.665 422.721C338.401 426.977 327.775 429.268 317.231 429.499C302.027 429.589 287.459 425.232 274.862 416.828C274.474 417.971 273.905 419.647 273.426 421.752C272.264 426.147 272.335 427.051 271.633 427.518C270.124 428.415 268.112 424.54 263.515 420.906C261.339 419.235 258.988 417.86 256.503 416.806C250.159 413.589 244.222 406.881 236.419 397.881C228.314 388.379 221.003 379.321 214.412 370.854L213.187 375.227L212.152 378.899C208.139 377.013 204.338 374.653 200.806 371.851C194.029 366.377 188.28 359.439 183.827 351.361C178.002 341.371 173.908 330.041 171.742 317.919C170.322 316.746 168.374 315.533 166.781 316.401C165.187 317.269 165.237 320.947 163.789 322.149C160.3 324.916 150.346 313.213 150.346 313.213C142.459 304.42 135.895 294.15 130.876 282.75C130.876 282.75 120.049 258.115 118.442 232.47C117.913 223.602 117.991 219.202 117.991 219.202C118.146 207.903 119.875 200.725 118.274 200.227C116.672 199.73 114.512 203.864 113.255 205.899C109.85 211.475 109.825 214.816 108.701 215.137C106.444 215.803 101.37 203.774 97.6609 181.885C94.0656 160.775 94.8533 148.446 93.2648 121.217C92.7303 111.808 91.8267 98.412 90.1227 82.2978C115.6 95.9692 138.205 115.196 156.832 139.037C175.26 162.839 185.506 186.194 194.166 205.878C209.51 240.845 205.967 245.438 221.437 281.981C233.059 309.416 243.332 333.178 263.554 355.727C286.582 381.347 311.507 393.178 312.093 392.217C312.679 391.256 292.336 380.046 270.3 354.286C250.439 330.812 240.21 307.406 228.377 279.756C212.117 241.719 216.367 239.074 198.415 195.939C185.511 164.909 177.886 146.974 161.833 127.371C149.039 111.831 134.326 98.562 118.08 87.9113C115.466 86.1554 101.777 78.6382 74.4071 63.5783C57.0849 54.0378 47.5687 48.9008 35.6062 38.8021C28.8782 33.1573 22.5022 26.999 16.5142 20.362C9.99513 13.2818 0.0997172 1.68451 1.00053 0.491935" fill="white"/>
</svg>
