<svg width="286" height="541" viewBox="0 0 286 541" fill="none" xmlns="http://www.w3.org/2000/svg">
<path opacity="0.1" fill-rule="evenodd" clip-rule="evenodd" d="M-33.7209 540.908C-35.36 540.336 -29.4935 526.589 -22.9685 501.133C-20.5109 490.294 -18.246 480.201 -16.5468 470.158C-15.599 464.441 -14.7588 458.673 -14.2371 452.135C-14.2332 451.439 -14.2245 449.923 -13.9705 447.859C-13.6717 445.065 -13.1246 442.296 -12.3351 439.581C-11.4286 436.399 -10.6403 430.309 -10.9728 417.73C-17.9667 402.372 -21.7465 385.916 -22.1132 369.23C-22.6383 338.379 -10.6207 312.874 3.16815 283.614C7.55573 274.267 11.1799 266.586 17.1606 256.418C19.4169 252.59 23.6836 245.58 32.708 230.415C35.5668 226.006 38.0158 221.382 40.0286 216.594C43.3343 208.117 43.8833 201.504 45.4977 201.678C46.3054 201.678 46.6712 203.642 49.3443 211.771C51.3826 217.911 51.7554 218.632 52.4547 218.756C54.714 219.154 56.3413 212.293 63.318 202.15C66.4131 197.576 70.1529 193.276 77.3912 184.475L81.9995 178.932C82.9211 177.838 84.168 176.322 84.9272 175.377C90.0578 169.239 94.5992 162.701 98.4994 155.838C100.436 151.462 103.95 144.203 106.451 144.651C108.953 145.098 109.101 152.109 109.287 157.329C109.865 169.386 107.672 176.272 108.962 176.719C110.252 177.167 112.722 173.512 121.244 156.832L145.495 124.739L201.467 72.5341C213.861 57.2948 222.739 39.8803 227.549 21.3737C229.383 14.3694 230.621 7.24621 231.251 0.0693359C240.542 6.84112 248.729 14.8105 255.563 23.7354C262.915 33.0216 268.518 43.3917 272.135 54.4117C277.119 70.3899 277.671 87.2889 273.741 103.558C274.953 103.558 276.729 103.558 278.885 103.31C283.437 102.962 284.273 102.564 284.943 103.136C286.282 104.404 283.247 107.909 281.274 114.049C280.386 116.938 279.837 119.905 279.635 122.899C278.622 130.73 274.157 139.381 268.116 150.816C261.694 162.748 255.44 173.687 249.514 183.655L254.066 183.382L257.89 183.158C257.391 188.059 256.371 192.905 254.846 197.626C251.826 206.72 247.083 215.255 240.838 222.833C233.218 232.54 223.767 240.903 212.941 247.519C212.284 249.433 211.758 251.919 213.096 253.286C214.435 254.653 217.916 253.286 219.525 254.38C223.279 257.065 215.361 271.731 215.361 271.731C209.544 283.181 201.896 293.766 192.676 303.129C192.676 303.129 172.746 323.339 148.884 334.203C140.625 337.932 136.416 339.423 136.416 339.423C125.625 343.301 118.244 344.047 118.287 345.912C118.331 347.776 122.957 348.572 125.296 349.168C131.694 350.759 134.878 349.591 135.545 350.66C136.906 352.798 127.105 362.443 107.493 374.177C88.5824 385.512 76.6082 389.092 51.236 400.503C42.4638 404.43 30.0197 410.173 15.2501 417.73C20.0374 386.012 31.0312 355.333 47.694 327.193C64.3829 299.276 83.2836 280.134 99.2058 263.975C127.503 235.313 133.01 237.401 162.765 208.042C185.101 185.992 204.38 166.676 219.3 137.317C236.235 103.907 239.45 73.4291 238.348 73.1556C237.246 72.8822 233.144 98.3132 215.756 130.73C199.84 160.039 180.886 179.18 158.413 201.529C127.493 232.255 123.609 228.725 88.388 263.056C63.0482 287.741 48.4549 302.184 34.9925 326.099C24.3422 345.129 16.4686 365.367 11.5784 386.283C10.7515 389.664 8.01611 406.767 2.5184 440.973C-0.9697 462.626 -2.7869 474.484 -8.53259 490.692C-11.7309 499.795 -15.5307 508.712 -19.9107 517.391C-24.5409 526.788 -32.3772 541.355 -33.8012 540.833" fill="white"/>
</svg>
