<svg width="461" height="520" viewBox="0 0 461 520" fill="none" xmlns="http://www.w3.org/2000/svg">
<path opacity="0.1" fill-rule="evenodd" clip-rule="evenodd" d="M0.54801 0.380738C1.79247 -1.21267 14.7557 10.4058 40.3847 27.1359C51.4172 33.9056 61.6993 40.1836 72.1385 45.8191C78.089 49.0058 84.1346 52.0925 91.1493 55.1166C91.9154 55.3816 93.5845 55.9591 95.7648 57.012C98.7351 58.3884 101.584 60.0287 104.281 61.9161C107.451 64.1076 113.873 67.2581 127.869 71.6026C147.426 69.642 166.989 71.6369 185.528 77.4823C219.747 88.458 243.373 111.264 270.476 137.429C279.141 145.769 286.255 152.643 295.228 163.046C298.604 166.968 304.737 174.299 318.08 189.931C321.873 194.735 326.055 199.168 330.581 203.181C338.692 210.002 345.778 213.084 344.982 214.799C344.679 215.69 342.377 215.358 332.411 215.261C324.876 215.209 323.941 215.35 323.542 216.075C322.257 218.417 329.214 222.782 337.787 234.274C341.672 239.401 345.014 245.136 352.008 256.414L356.395 263.573C357.256 264.999 358.461 266.942 359.219 268.133C364.066 276.09 369.576 283.547 375.684 290.419C379.784 294.193 386.472 300.787 385.042 303.378C383.612 305.969 375.825 303.507 369.998 301.757C356.486 297.878 349.713 292.881 348.737 294.136C347.76 295.391 350.865 299.484 366.068 315.129L392.378 353.893L428.986 435.173C441.15 454.548 457.029 470.862 475.637 483.098C482.674 487.744 490.066 491.777 497.745 495.16C486.797 502.869 474.942 508.913 462.54 513.107C449.545 517.737 436.011 520.031 422.503 519.893C403.015 519.405 384.172 513.685 367.702 503.257C367.248 504.593 366.583 506.553 366.05 509.022C364.729 514.173 364.854 515.245 363.972 515.769C362.073 516.771 359.344 512.111 353.312 507.635C350.458 505.574 347.392 503.857 344.166 502.513C335.91 498.463 328.041 490.299 317.693 479.353C306.939 467.802 297.219 456.808 288.445 446.54L287.042 451.662L285.856 455.963C280.639 453.577 275.677 450.638 271.041 447.188C262.143 440.45 254.507 432.023 248.489 422.298C240.638 410.259 234.955 396.704 231.714 382.287C229.849 380.845 227.305 379.335 225.296 380.299C223.287 381.263 223.491 385.613 221.682 386.978C217.315 390.113 204.106 375.888 204.106 375.888C193.658 365.184 184.849 352.785 177.977 339.11C177.977 339.11 163.153 309.562 160.11 279.178C159.091 268.673 159.023 263.473 159.023 263.473C158.788 250.12 160.73 241.701 158.658 241.05C156.585 240.4 153.975 245.204 152.441 247.56C148.29 254.02 148.386 257.969 146.958 258.304C144.09 259.004 137.124 244.583 131.53 218.56C126.111 193.46 126.648 178.914 123.568 146.659C122.522 135.514 120.85 119.64 118.047 100.521C151.233 117.68 180.948 141.295 205.741 170.211C230.277 199.071 244.308 227.085 256.164 250.696C277.175 292.637 272.81 297.929 294.042 341.738C309.993 374.63 324.074 403.125 350.863 430.575C381.366 461.765 413.772 476.726 414.487 475.613C415.201 474.499 388.692 460.451 359.455 429.135C333.094 400.605 319.084 372.532 302.855 339.379C280.551 293.772 285.898 290.811 261.23 239.11C243.498 201.92 233.036 180.417 211.705 156.613C194.707 137.74 175.337 121.477 154.103 108.25C150.684 106.072 132.847 96.6498 97.183 77.7752C74.611 65.8188 62.2147 59.3735 46.4922 46.9665C37.6506 40.0297 29.2408 32.4996 21.3101 24.4187C12.6814 15.7931 -0.448746 1.69497 0.660309 0.320156" fill="white"/>
</svg>
