<svg width="35" height="36" viewBox="0 0 35 36" fill="none" xmlns="http://www.w3.org/2000/svg">
<path d="M34.5085 4.39806C34.7308 4.62101 34.8556 4.92297 34.8556 5.23777C34.8556 5.55257 34.7308 5.85453 34.5085 6.07748L32.0274 8.56093L27.2699 3.80337L29.7509 1.31992C29.974 1.09694 30.2765 0.97168 30.5918 0.97168C30.9072 0.97168 31.2097 1.09694 31.4327 1.31992L34.5085 4.39568V4.39806ZM30.3456 10.2403L25.5881 5.48279L9.38144 21.6918C9.25052 21.8227 9.15196 21.9823 9.0936 22.158L7.17869 27.9004C7.14396 28.0051 7.13903 28.1174 7.16444 28.2247C7.18986 28.3321 7.24463 28.4302 7.32262 28.5082C7.40061 28.5862 7.49876 28.6409 7.60608 28.6664C7.71341 28.6918 7.82569 28.6868 7.93038 28.6521L13.6728 26.7372C13.8482 26.6795 14.0079 26.5818 14.139 26.4517L30.3456 10.2427V10.2403Z" fill="white"/>
<path fill-rule="evenodd" clip-rule="evenodd" d="M0.015625 31.8969C0.015625 32.8432 0.391557 33.7508 1.06072 34.42C1.72988 35.0891 2.63746 35.4651 3.5838 35.4651H29.7504C30.6967 35.4651 31.6043 35.0891 32.2735 34.42C32.9426 33.7508 33.3186 32.8432 33.3186 31.8969V17.6242C33.3186 17.3087 33.1933 17.0062 32.9702 16.7832C32.7472 16.5601 32.4446 16.4348 32.1292 16.4348C31.8137 16.4348 31.5112 16.5601 31.2882 16.7832C31.0651 17.0062 30.9398 17.3087 30.9398 17.6242V31.8969C30.9398 32.2123 30.8145 32.5149 30.5914 32.7379C30.3684 32.961 30.0658 33.0863 29.7504 33.0863H3.5838C3.26835 33.0863 2.96583 32.961 2.74277 32.7379C2.51972 32.5149 2.39441 32.2123 2.39441 31.8969V5.73028C2.39441 5.41484 2.51972 5.11231 2.74277 4.88926C2.96583 4.6662 3.26835 4.54089 3.5838 4.54089H19.0459C19.3613 4.54089 19.6639 4.41558 19.8869 4.19253C20.11 3.96947 20.2353 3.66695 20.2353 3.3515C20.2353 3.03605 20.11 2.73353 19.8869 2.51047C19.6639 2.28742 19.3613 2.16211 19.0459 2.16211H3.5838C2.63746 2.16211 1.72988 2.53804 1.06072 3.2072C0.391557 3.87637 0.015625 4.78394 0.015625 5.73028V31.8969Z" fill="white"/>
</svg>
