<svg width="933" height="372" viewBox="0 0 933 372" fill="none" xmlns="http://www.w3.org/2000/svg">
<path d="M171.322 167.879C157.372 175.079 140.722 186.779 127.672 196.679C129.022 191.279 134.422 165.629 134.422 157.529C133.972 153.929 124.972 144.479 122.272 148.079C119.572 151.229 111.022 159.779 111.022 160.229C108.772 157.079 106.072 154.379 102.022 153.479C97.9717 152.129 93.4717 152.129 89.4217 153.479C81.7717 155.729 75.4717 161.129 70.5217 166.529C65.1217 172.379 60.1717 180.479 58.8217 188.579C57.4717 198.029 69.1717 196.229 72.7717 194.879C93.9217 186.329 124.522 155.729 124.522 155.729C124.522 155.729 124.522 157.079 124.522 157.529C124.072 163.829 122.272 171.029 120.922 177.329C118.222 188.129 115.072 198.929 111.472 209.729C107.422 212.879 103.372 216.479 99.3217 220.079C78.1717 238.979 62.4217 254.279 44.8717 276.779C36.3217 288.029 27.7717 299.729 20.1217 311.879C12.9217 324.029 5.27168 336.629 1.67168 351.479C1.22168 355.529 0.321675 359.579 2.57168 364.529C3.92168 367.229 6.17167 369.479 8.87168 370.379C11.5717 370.829 13.3717 371.279 15.6217 371.279C24.1717 371.279 31.3717 367.679 37.6717 363.629C50.2717 355.079 59.7217 343.379 67.8217 331.679C94.8217 292.979 112.372 247.529 125.872 203.429C139.822 191.729 156.922 179.129 172.222 170.129C172.672 169.679 171.772 167.879 171.322 167.879ZM77.7217 186.329C74.5717 188.129 71.4217 189.929 68.7217 190.829C68.2717 190.829 67.8217 190.829 67.3717 190.829C67.3717 190.829 67.3717 190.379 67.3717 189.929C69.1717 184.979 74.5717 178.679 78.1717 173.279C86.2717 164.279 97.5217 154.379 108.772 162.029C98.8717 171.029 88.9717 180.479 77.7217 186.329ZM94.8217 257.429C84.0217 283.529 75.4717 302.879 60.1717 326.279C52.0717 337.529 43.5217 348.779 32.7217 356.429C27.3217 360.029 21.4717 362.729 15.6217 362.729C1.22168 362.279 19.6717 327.629 26.8717 315.929C34.0717 303.779 42.1717 292.529 50.7217 281.279C67.8217 258.779 82.6717 243.479 102.922 223.679C105.172 221.879 106.972 220.079 109.222 217.829C104.722 231.329 100.222 244.379 94.8217 257.429ZM242.204 166.079C214.304 188.129 160.754 205.679 172.454 179.129C182.354 176.879 190.904 174.179 199.004 167.879C214.304 156.179 202.604 150.779 200.354 150.329C198.104 149.429 195.854 149.429 193.604 149.429C188.654 150.329 184.604 152.129 181.004 153.929C173.804 158.429 168.404 164.729 163.904 171.479C151.754 194.429 167.504 198.479 173.354 198.929C187.304 199.379 211.604 191.729 244.004 167.879C244.454 167.429 242.654 165.629 242.204 166.079ZM186.404 161.579C189.104 159.329 191.804 157.529 194.504 156.629C199.904 154.829 205.754 156.179 195.854 164.279C193.154 166.979 185.054 171.929 174.704 174.629C178.304 170.129 182.354 165.629 186.404 161.579ZM390.345 56.7285C363.795 58.9785 337.695 62.5785 311.595 67.5285H311.145C316.545 59.8785 321.495 51.3285 327.345 43.6785C331.395 37.8285 335.445 31.5285 338.595 24.7785C340.395 21.6285 341.745 18.4785 343.095 14.8785C343.545 12.6285 344.445 10.8285 344.445 8.57851C344.445 7.6785 344.445 6.32851 343.995 4.5285C343.545 2.27851 339.495 0.92851 338.145 1.82851C332.745 4.07851 330.945 6.7785 328.245 9.47851C325.995 12.6285 323.745 15.3285 321.495 18.4785C317.445 24.3285 313.395 30.6285 309.795 36.4785C303.045 48.1785 296.745 60.3285 290.445 72.0285C284.595 72.9285 278.745 74.2785 272.895 75.6285C259.845 78.7785 247.245 81.0285 234.195 88.2285C232.845 88.6785 235.995 94.0785 237.345 93.1785L237.795 92.7285C248.145 87.3285 261.645 84.1785 274.245 80.5785C278.295 79.6785 282.795 78.7785 287.295 77.4285C250.395 141.779 204.045 232.229 226.095 263.279C229.695 268.229 235.545 266.879 239.595 265.979C269.295 259.229 339.495 193.529 356.595 170.579C357.045 169.679 354.795 168.329 354.345 168.779C300.345 229.979 238.245 271.379 231.495 257.429C222.495 235.829 247.695 177.779 269.745 133.679C280.545 115.229 291.795 97.2285 303.495 79.2285C304.395 76.9785 306.195 75.1785 307.545 72.9285C308.895 72.4785 310.695 72.0285 312.495 72.0285C338.145 67.0785 364.245 63.0285 390.345 60.7785C391.695 60.3285 392.595 59.4285 392.595 58.5285C392.145 57.6285 391.245 56.7285 390.345 56.7285ZM298.995 76.0785C295.845 80.5785 293.145 85.5285 290.445 90.0285C292.245 85.9785 294.045 81.9285 295.845 77.8785C296.295 76.9785 296.745 76.0785 297.195 75.1785C298.095 75.1785 298.995 74.7285 299.895 74.7285C299.445 75.1785 298.995 75.6285 298.995 76.0785ZM303.495 69.3285C302.595 69.3285 301.245 69.7785 300.345 69.7785C305.295 59.8785 310.245 49.5285 315.645 40.0785C319.245 33.7785 322.845 27.9285 326.895 22.0785C328.695 18.9285 330.945 16.2285 333.195 13.5285C334.545 11.7285 336.795 9.92851 338.145 8.57851C338.145 9.92851 337.695 11.2785 337.245 12.6285C336.345 15.7785 334.995 19.3785 333.195 22.0785C330.045 28.3785 326.445 34.6785 322.395 40.5285C316.095 49.9785 309.795 59.4285 303.495 69.3285ZM457.342 168.329C407.842 198.479 390.742 199.829 410.092 155.279C410.092 153.929 406.492 151.229 405.592 150.329C404.242 149.429 401.992 149.429 401.092 151.229C400.192 152.129 399.292 153.029 398.392 153.929C387.592 147.629 373.192 153.479 363.742 160.679C358.792 164.279 354.292 168.779 350.242 173.729C348.442 176.429 346.642 178.679 344.842 181.829C339.892 193.979 346.192 198.029 355.192 194.879C361.942 192.629 374.542 182.729 379.042 179.129C384.892 173.729 390.742 168.779 396.592 163.379C381.292 199.379 397.042 208.829 458.692 170.579C459.142 170.129 458.242 167.879 457.342 168.329ZM375.892 175.079C371.392 178.679 366.892 181.829 361.942 184.979C359.692 186.329 356.992 187.679 354.742 188.129C354.292 188.129 354.292 188.129 354.292 188.129C354.292 187.679 354.742 186.779 355.192 186.329C356.092 184.079 357.442 181.829 358.792 179.579C361.942 175.529 365.542 171.029 369.592 167.429C376.792 160.679 386.242 154.829 396.142 156.179C389.842 162.929 383.092 169.229 375.892 175.079ZM584.559 168.779C569.259 180.479 549.459 182.279 549.459 170.579C554.409 155.729 554.409 146.729 553.059 144.929C551.259 142.679 549.909 143.129 546.759 144.929C544.509 146.279 536.409 162.479 541.809 173.729C535.059 195.779 525.609 203.879 519.759 203.879C511.659 203.879 506.709 186.779 515.709 150.779V150.329C515.709 149.429 511.659 146.279 508.959 147.629C506.259 148.979 462.159 194.879 463.959 182.279C466.209 164.729 476.559 147.629 481.959 141.329C483.759 139.529 479.259 135.029 473.859 137.729C464.859 142.679 454.059 171.479 454.509 187.229C454.509 193.079 459.009 193.529 460.809 193.079C471.159 190.829 501.759 162.479 501.759 162.479C499.059 178.229 498.609 208.829 512.109 210.629C530.109 213.329 540.909 193.979 546.759 177.779C553.959 185.429 572.859 180.929 585.459 170.129C585.459 170.129 585.009 168.779 584.559 168.779ZM688.055 168.329C638.555 198.479 621.455 199.829 640.805 155.279C640.805 153.929 637.205 151.229 636.305 150.329C634.955 149.429 632.705 149.429 631.805 151.229C630.905 152.129 630.005 153.029 629.105 153.929C618.305 147.629 603.905 153.479 594.455 160.679C589.505 164.279 585.005 168.779 580.955 173.729C579.155 176.429 577.355 178.679 575.555 181.829C570.605 193.979 576.905 198.029 585.905 194.879C592.655 192.629 605.255 182.729 609.755 179.129C615.605 173.729 621.455 168.779 627.305 163.379C612.005 199.379 627.755 208.829 689.405 170.579C689.855 170.129 688.955 167.879 688.055 168.329ZM606.605 175.079C602.105 178.679 597.605 181.829 592.655 184.979C590.405 186.329 587.705 187.679 585.455 188.129C585.005 188.129 585.005 188.129 585.005 188.129C585.005 187.679 585.455 186.779 585.905 186.329C586.805 184.079 588.155 181.829 589.505 179.579C592.655 175.529 596.255 171.029 600.305 167.429C607.505 160.679 616.955 154.829 626.855 156.179C620.555 162.929 613.805 169.229 606.605 175.079ZM789.622 167.879C789.622 166.979 755.872 189.929 736.522 204.329C739.222 195.329 745.522 167.879 745.522 167.879C748.672 153.029 749.122 149.429 739.222 149.429C722.122 171.029 689.272 196.229 687.922 185.879C689.722 175.979 695.572 166.979 698.722 157.979H699.172C700.072 155.729 691.072 151.229 690.172 153.929C683.872 166.079 673.522 188.579 684.772 194.429C698.272 200.729 738.772 159.779 738.772 159.779C738.322 161.579 723.922 211.079 723.022 214.229C673.972 250.229 624.922 306.479 619.072 343.379C614.572 371.279 642.472 368.579 655.522 359.579C664.972 353.279 673.072 345.179 679.822 336.179C692.872 317.729 702.322 297.479 710.872 277.679C718.972 257.879 728.422 232.679 734.272 212.429C752.722 195.779 790.522 170.129 790.522 170.129C790.522 170.129 790.072 168.329 789.622 167.879ZM701.422 273.629C693.322 293.429 683.422 312.779 671.722 330.329C665.872 338.879 662.272 344.729 654.172 350.579C634.822 365.879 619.072 359.579 630.772 330.329C640.222 305.579 673.522 260.129 720.322 222.779C714.922 238.079 707.272 258.329 701.422 273.629ZM810.135 224.579C807.435 223.679 803.835 222.779 800.685 234.029C797.535 243.929 810.585 244.379 815.085 233.129C816.435 229.079 814.185 225.479 810.135 224.579ZM928.485 45.9285C925.335 39.1785 917.685 36.0285 911.385 35.1285C904.635 34.2285 898.335 34.6785 892.035 35.5785C867.735 40.5285 844.335 52.6785 829.035 73.3785C828.135 74.7285 828.585 76.5285 829.935 77.4285C831.285 78.3285 833.085 77.8785 833.985 76.9785V76.5285C847.485 57.6285 870.435 45.9285 893.385 41.8785C904.185 40.0785 918.135 40.0785 922.635 49.0785C926.685 58.0785 920.835 70.2285 914.985 79.6785C901.935 99.0285 880.335 111.629 861.435 126.929C842.085 142.229 824.985 161.579 814.635 184.529C812.385 190.379 821.835 193.079 823.635 188.579C832.635 166.979 847.935 148.529 866.835 133.679C884.835 117.929 906.885 104.879 920.835 83.2785C923.985 77.8785 927.135 72.4785 928.935 66.1785C930.735 60.3285 932.085 52.6785 928.485 45.9285Z" fill="#A75B41"/>
</svg>
