<svg width="26" height="25" viewBox="0 0 26 25" fill="none" xmlns="http://www.w3.org/2000/svg">
<path d="M8.36242 23.2271L20.809 10.7805L14.8971 4.86862L2.45053 17.3152C2.27918 17.4868 2.15746 17.7015 2.09828 17.9367L0.71875 24.9589L7.73962 23.5793C7.97535 23.5204 8.19098 23.3985 8.36242 23.2271ZM24.827 6.76246C25.3292 6.26013 25.6113 5.57891 25.6113 4.86862C25.6113 4.15832 25.3292 3.47711 24.827 2.97478L22.7028 0.850571C22.2005 0.348392 21.5193 0.0662842 20.809 0.0662842C20.0987 0.0662842 19.4175 0.348392 18.9152 0.850571L16.7909 2.97478L22.7028 8.88667L24.827 6.76246Z" fill="#665E2F"/>
</svg>
