<svg width="944" height="1616" viewBox="0 0 944 1616" fill="none" xmlns="http://www.w3.org/2000/svg">
<path opacity="0.1" fill-rule="evenodd" clip-rule="evenodd" d="M0.841015 1616C-4.0527 1614.29 13.1959 1573.22 32.2092 1497.15C39.3492 1464.77 45.9277 1434.61 50.8214 1404.6C53.549 1387.52 55.9554 1370.29 57.3994 1350.75C57.3994 1348.67 57.3996 1344.14 58.1216 1337.98C58.9649 1329.63 60.5482 1321.35 62.8551 1313.24C65.5025 1303.73 67.7485 1285.54 66.5452 1247.95C45.4454 1202.06 33.9045 1152.89 32.5299 1103.03C30.4441 1010.85 65.8234 934.645 106.417 847.219C119.333 819.29 130.003 796.338 147.652 765.958C154.311 754.52 166.907 733.573 193.541 688.263C201.985 675.088 209.205 661.272 215.122 646.964C224.829 621.636 226.353 601.878 231.167 602.397C233.573 602.397 234.697 608.265 242.799 632.555C248.977 650.901 250.1 653.055 252.185 653.427C258.924 654.615 263.658 634.114 284.275 603.809C293.421 590.142 304.492 577.291 325.912 550.997L339.55 534.433C342.278 531.165 345.968 526.634 348.214 523.811C363.399 505.471 376.821 485.935 388.327 465.428C394.023 452.355 404.372 430.666 411.833 432.003C419.294 433.34 419.855 454.286 420.497 469.885C422.422 505.91 416.005 526.485 419.855 527.822C423.706 529.159 431.006 518.24 456.117 468.399L527.838 372.506L693.743 216.521C730.415 170.987 756.576 118.953 770.598 63.6566C775.944 42.728 779.511 21.4442 781.268 0C809.068 20.2338 833.597 44.046 854.112 70.713C876.178 98.4598 893.047 129.445 904.012 162.372C919.134 210.115 921.065 260.608 909.628 309.221C913.238 309.221 918.533 309.221 924.951 308.478C938.509 307.438 940.995 306.25 943.001 307.958C947.012 311.746 938.027 322.22 932.251 340.566C929.656 349.198 928.069 358.064 927.518 367.009C924.63 390.407 911.473 416.256 893.663 450.424C874.73 486.078 856.278 518.76 838.789 548.546L852.347 547.729L863.739 547.06C862.334 561.703 859.378 576.183 854.914 590.29C846.067 617.463 832.078 642.965 813.598 665.608C791.057 694.611 763.035 719.599 730.887 739.367C728.961 745.086 727.437 752.514 731.448 756.599C735.46 760.685 745.809 756.599 750.622 759.868C761.854 767.89 738.508 811.714 738.508 811.714C721.367 845.926 698.757 877.552 671.44 905.528C671.44 905.528 612.395 965.916 541.476 998.375C516.927 1009.52 504.412 1013.97 504.412 1013.97C472.322 1025.56 450.34 1027.79 450.501 1033.36C450.661 1038.93 464.46 1041.31 471.44 1043.09C490.533 1047.84 500 1044.35 502.006 1047.55C506.097 1053.94 477.056 1082.76 418.812 1117.82C362.655 1151.69 327.035 1162.38 251.624 1196.48C225.551 1208.21 188.567 1225.37 144.684 1247.95C158.414 1153.18 190.655 1061.51 239.831 977.429C289.089 894.014 345.086 836.82 392.258 788.539C476.093 702.896 492.539 709.135 580.706 621.413C646.892 555.528 704.011 497.814 747.975 410.091C797.874 310.261 806.94 219.195 803.651 218.378C800.361 217.561 788.568 293.548 737.305 390.407C690.373 477.981 634.216 535.176 567.629 601.952C476.013 693.76 464.38 683.212 360.008 785.791C284.917 859.549 241.676 902.705 201.965 974.161C170.55 1031.02 147.431 1091.49 133.212 1153.99C130.805 1164.09 122.943 1215.19 107.139 1317.4C97.1108 1382.1 91.8962 1417.53 75.049 1465.96C65.6724 1493.16 54.5002 1519.8 41.5953 1545.73C27.9571 1573.81 4.85251 1617.34 0.600595 1615.78" fill="white"/>
</svg>
