<svg width="302" height="166" viewBox="0 0 302 166" fill="none" xmlns="http://www.w3.org/2000/svg">
<path d="M84.375 128.77C73.897 122.855 53.617 91.0833 44.829 81.9573C84.375 73.0003 103.979 51.8753 109.725 40.3833C121.048 17.2303 107.866 0.161335 65.954 22.4693C70.01 16.0473 74.404 8.61133 74.404 8.61133C75.08 7.59733 71.7 4.04834 71.024 5.06233C65.447 14.0193 62.912 18.5823 57.504 27.5393C49.392 32.9473 41.618 38.8623 33.844 44.9463C33.506 45.2843 34.689 46.8053 35.196 46.4673C41.28 42.0733 47.533 37.6793 53.955 33.6233C46.688 46.4673 47.195 44.2703 40.604 57.2833C37.731 62.8603 35.365 67.4233 32.492 73.0003C30.971 72.3243 24.549 70.1273 21.169 74.5213C19.648 77.2253 21.169 79.7603 22.69 80.9433C24.38 82.1263 26.07 82.8023 27.929 83.1403C20.324 99.3643 6.63501 127.418 0.213007 144.149C0.0440068 144.994 2.74801 146.008 3.08601 145.163C9.84601 128.094 23.873 99.8713 31.816 83.3093C35.196 83.1403 36.886 83.1403 40.097 82.6333C50.913 92.9423 68.827 123.531 80.15 130.122C81.84 131.305 84.206 130.122 84.375 128.77ZM43.984 59.1423C52.265 43.5943 53.279 43.4253 62.236 28.5533C65.447 26.6943 68.658 24.8353 71.869 23.1453C78.291 19.7653 84.882 16.8923 91.811 15.2023C107.697 11.4843 116.823 21.2863 103.641 42.5803C92.994 59.6493 67.475 73.1693 42.125 79.0843C40.435 77.7323 38.069 75.8733 36.041 74.5213C38.745 68.9443 41.111 64.7193 43.984 59.1423ZM28.774 80.4363C27.253 80.2673 25.563 79.7603 24.38 78.7463C23.197 77.9013 22.521 76.5493 23.028 75.8733C23.535 75.1973 25.225 74.8593 26.746 75.1973C28.267 75.3663 29.619 75.8733 30.971 76.5493C30.295 77.9013 29.788 79.0843 29.281 80.2673C29.112 80.2673 28.943 80.4363 28.774 80.4363ZM33.337 80.2673C33.675 79.5913 34.013 78.9153 34.351 78.2393C35.196 78.7463 36.21 79.2533 37.224 79.7603C35.872 79.9293 34.689 80.0983 33.337 80.2673ZM116.263 89.9003C112.207 92.9423 108.32 94.4633 103.419 93.6183C103.419 93.6183 105.785 89.7313 103.419 87.3653C105.278 80.4363 91.4202 82.4643 88.2092 90.0693C83.8152 100.378 95.4762 103.082 102.743 94.8013C108.489 95.6463 111.7 94.1253 116.939 90.4073C117.108 90.2383 116.77 89.5623 116.263 89.9003ZM90.9132 93.6183C91.4202 90.0693 95.3072 86.3513 98.3492 85.1683C99.7012 84.6613 103.25 84.3233 102.236 87.3653C99.0252 87.8723 98.1802 91.7593 101.053 93.9563C98.3492 98.0123 90.2372 100.885 90.9132 93.6183ZM101.729 92.7733C99.8702 91.7593 100.715 87.8723 102.912 88.5483C103.588 88.7173 102.912 91.2523 101.729 92.7733ZM155.509 89.5623C155.509 89.2243 142.834 97.8433 135.567 103.251C136.581 99.8713 138.947 89.5623 138.947 89.5623C140.13 83.9853 140.299 82.6333 136.581 82.6333C130.159 90.7453 117.822 100.209 117.315 96.3223C117.991 92.6043 120.188 89.2243 121.371 85.8443H121.54C121.878 84.9993 118.498 83.3093 118.16 84.3233C115.794 88.8863 111.907 97.3363 116.132 99.5333C121.202 101.899 136.412 86.5203 136.412 86.5203C136.243 87.1963 130.835 105.786 130.497 106.969C112.076 120.489 93.6555 141.614 91.4585 155.472C89.7685 165.95 100.246 164.936 105.147 161.556C108.696 159.19 111.738 156.148 114.273 152.768C119.174 145.839 122.723 138.234 125.934 130.798C128.976 123.362 132.525 113.898 134.722 106.293C141.651 100.04 155.847 90.4073 155.847 90.4073C155.847 90.4073 155.678 89.7313 155.509 89.5623ZM122.385 129.277C119.343 136.713 115.625 143.98 111.231 150.571C109.034 153.782 107.682 155.979 104.64 158.176C97.3735 163.922 91.4585 161.556 95.8525 150.571C99.4015 141.276 111.907 124.207 129.483 110.18C127.455 115.926 124.582 123.531 122.385 129.277ZM182.48 89.5623C176.734 93.7873 169.974 96.8293 164.228 98.6883C153.919 101.899 154.426 89.3933 163.383 82.9713C164.397 82.4643 165.58 82.1263 166.594 82.6333C167.439 82.9713 167.946 84.3233 167.777 85.5063C167.777 85.8443 167.777 86.1823 167.777 86.5203C167.777 86.5203 167.946 87.3653 168.622 87.1963C168.622 87.1963 169.805 83.3093 170.312 82.2953V82.1263C170.481 82.1263 170.481 82.1263 170.481 81.9573C170.65 81.4503 169.467 81.4503 169.298 81.7883L168.622 83.1403C168.284 82.4643 167.946 81.9573 167.27 81.4503C165.749 80.4363 158.313 80.4363 153.243 90.5763C149.694 97.6743 154.933 103.082 164.566 100.04C171.157 97.8433 177.579 94.2943 183.156 90.2383C183.325 90.0693 182.818 89.2243 182.48 89.5623ZM224.229 90.5763C224.398 90.4073 223.722 89.7313 223.553 89.9003C189.246 124.038 180.458 115.25 186.88 89.7313C211.723 58.2973 224.229 39.5383 225.919 29.0603C226.426 25.3423 222.032 21.7933 213.244 31.4263C206.146 39.0313 200.569 47.9883 195.668 57.2833C190.767 66.5783 186.542 76.3803 183.669 86.5203C175.557 115.419 185.528 131.136 224.229 90.5763ZM214.765 32.9473C216.793 30.4123 218.99 28.3843 220.004 27.7083C221.863 26.5253 224.398 26.5253 224.06 28.7223C222.032 41.0593 201.583 67.9303 187.725 85.5063C193.471 63.8743 208.512 40.8903 214.765 32.9473ZM261.94 89.7313C243.35 101.054 236.928 101.561 244.195 84.8303C244.195 84.3233 242.843 83.3093 242.505 82.9713C241.998 82.6333 241.153 82.6333 240.815 83.3093C240.477 83.6473 240.139 83.9853 239.801 84.3233C235.745 81.9573 230.337 84.1543 226.788 86.8583C224.929 88.2103 223.239 89.9003 221.718 91.7593C221.042 92.7733 220.366 93.6183 219.69 94.8013C217.831 99.3643 220.197 100.885 223.577 99.7023C226.112 98.8573 230.844 95.1393 232.534 93.7873C234.731 91.7593 236.928 89.9003 239.125 87.8723C233.379 101.392 239.294 104.941 262.447 90.5763C262.616 90.4073 262.278 89.5623 261.94 89.7313ZM231.351 92.2663C229.661 93.6183 227.971 94.8013 226.112 95.9843C225.267 96.4913 224.253 96.9983 223.408 97.1673C223.239 97.1673 223.239 97.1673 223.239 97.1673C223.239 96.9983 223.408 96.6603 223.577 96.4913C223.915 95.6463 224.422 94.8013 224.929 93.9563C226.112 92.4353 227.464 90.7453 228.985 89.3933C231.689 86.8583 235.238 84.6613 238.956 85.1683C236.59 87.7033 234.055 90.0693 231.351 92.2663ZM300.929 89.7313C281.494 105.617 282.677 99.8713 279.297 90.9143C277.945 86.8583 273.551 81.9573 262.566 93.4493C263.242 90.7453 266.622 85.3373 267.636 84.1543C268.481 83.4783 266.453 81.9573 263.749 83.6473C262.228 84.6613 258.341 94.2943 258.341 98.6883C258.172 100.378 260.369 100.209 260.369 100.209C271.016 84.6613 273.889 87.3653 276.255 94.9703C279.635 106.293 285.55 103.251 301.436 90.5763C301.774 90.4073 301.098 89.5623 300.929 89.7313Z" fill="white"/>
</svg>
