<svg width="740" height="46" viewBox="0 0 740 46" fill="none" xmlns="http://www.w3.org/2000/svg">
<path d="M20.6973 1.01074H0.34082V1.60156H6.83984V44.3823H0.501953V44.9463H6.83984V45H12.936V44.9463H19.9185V44.3823H12.936V1.60156H18.9248C22.0132 1.60156 24.4302 2.72949 26.1489 4.9585C27.8677 7.1875 28.7271 9.81934 28.7271 12.854C28.7271 15.8887 27.8408 18.5205 26.0952 20.7227C24.3496 22.9248 21.9058 24.0259 18.7905 24.0259H12.9092V24.6167H20.6704C25.0479 24.6167 28.4854 23.3813 30.9829 20.9106C33.4805 18.4399 34.7158 15.5127 34.7158 12.1558C34.7158 10.1147 34.2056 8.31543 33.2119 6.78467C32.2183 5.25391 30.9292 4.09912 29.3716 3.32031C27.814 2.5415 26.3101 1.97754 24.833 1.60156C23.356 1.22559 21.9863 1.0376 20.6973 1.0376V1.01074ZM80.6387 1.65527V1.06445H66.5127V1.65527H73.2803V31.9751C73.2803 35.8691 71.9106 38.9038 69.1714 41.106C66.4321 43.3081 62.9409 44.4092 58.7246 44.4092C52.897 44.4092 49.9697 40.0586 49.9697 31.3843V1.68213H56.6299V1.09131H37.2134V1.68213H43.981V32.002C43.981 36.0034 45.4043 39.1724 48.251 41.5088C51.0977 43.8452 54.6426 45 58.9126 45C63.2363 45 66.8081 43.8452 69.6279 41.5088C72.4478 39.1724 73.8442 36.0034 73.8442 32.002V1.68213L80.6387 1.65527ZM117.296 45.1611C118.935 45.1611 120.626 44.812 122.372 44.1138L122.157 43.5767C121.137 43.8184 120.385 43.9526 119.901 43.9526C118.156 43.9526 116.947 43.0933 116.303 41.3745C115.658 39.6558 115.336 36.6479 115.336 32.3511C115.309 26.7383 111.764 23.2471 104.701 21.8774C108.273 21.5283 111.146 20.3735 113.349 18.4131C115.551 16.4526 116.652 14.1162 116.652 11.4307C116.652 8.42285 115.336 5.92529 112.704 3.93799C110.072 1.95068 106.903 0.957031 103.197 0.957031H96.3223H90.2261H83.7271V1.54785H90.2261V44.3286H83.7271V44.9463H90.2261H96.3223H102.821V44.3286H96.3223V21.9043H98.2559C100.646 21.9043 102.499 22.0654 103.815 22.3608C105.131 22.6562 106.259 23.3008 107.226 24.2676C108.192 25.2344 108.837 26.604 109.159 28.3496C109.481 30.0952 109.643 32.4854 109.643 35.4932C109.643 36.1914 109.669 36.8359 109.696 37.3999C109.723 37.9639 109.884 38.7695 110.18 39.8169C110.475 40.8643 110.878 41.7505 111.361 42.4756C111.845 43.2007 112.597 43.8452 113.644 44.3823C114.691 44.9194 115.927 45.188 117.35 45.188L117.296 45.1611ZM96.3491 21.3672V1.62842H103.17C105.775 1.62842 107.79 2.59521 109.24 4.55566C110.69 6.51611 111.415 8.79883 111.415 11.4307C111.415 14.0894 110.69 16.4258 109.213 18.4131C107.736 20.4004 105.722 21.394 103.17 21.394L96.3491 21.3672ZM155.512 15.1904V2.48779H154.975C154.948 3.5083 154.169 4.01855 152.638 4.01855C151.537 4.01855 150.49 3.77686 149.523 3.29346C148.556 2.81006 147.428 2.32666 146.139 1.84326C144.85 1.35986 143.239 1.11816 141.278 1.11816C135.88 1.11816 131.315 3.2666 127.555 7.56348C123.795 11.8604 121.889 17.0166 121.862 23.0322V23.0859C121.889 29.1284 123.795 34.3115 127.582 38.6084C131.369 42.9053 135.934 45.0537 141.278 45.0537C143.212 45.0537 144.823 44.812 146.139 44.3286C147.455 43.8452 148.583 43.3618 149.55 42.8784C150.517 42.395 151.537 42.1533 152.638 42.1533C154.169 42.1533 154.948 42.6636 154.975 43.6841V43.7378H155.512V31.0352H154.975H154.921C153.31 39.978 148.798 44.4629 141.386 44.4629C139.479 44.4629 137.653 44.1675 135.907 43.5767C134.403 42.9858 133.114 42.0728 132.067 40.8374C131.02 39.6021 130.268 38.2324 129.838 36.7554C129.408 35.2783 129.059 33.6938 128.817 32.002C128.576 30.3101 128.468 28.7256 128.522 27.2485C128.576 25.7715 128.576 24.4019 128.549 23.1396C128.522 20.481 128.549 18.2788 128.656 16.5332C128.764 14.7876 129.032 12.8809 129.462 10.813C129.892 8.74512 130.644 7.02637 131.718 5.68359C132.792 4.34082 134.162 3.34717 135.854 2.67578C137.599 2.08496 139.398 1.78955 141.251 1.78955C148.744 1.78955 153.283 6.24756 154.894 15.1636H154.948V15.2173L155.512 15.1904ZM205.248 1.54785V0.957031H185.832V1.54785H192.384V22.6025H172.404V1.54785H179.225V0.957031H159.755V1.54785H166.308V44.3286H159.755V44.9463H166.308H172.404H179.225V44.3286H172.404V23.2202H192.384V44.3286H185.832V44.9463H192.384H198.48H205.248V44.3286H198.48V1.54785H205.248ZM219.052 31.4111V31.7334H235.541L240.241 44.3823H234.521V45H251.789V44.3823H246.444L230.331 1.01074H229.66L213.546 44.3823H207.934V45H219.938V44.3823H214.218L219.052 31.4111ZM235.326 31.1426H219.105L227.296 9.20166L235.326 31.1426ZM256.166 31.6797V45.1611H256.757V44.7852L256.811 45.1611C256.811 43.8452 257.831 43.1738 259.845 43.1738C261.188 43.1738 262.558 43.4424 263.954 44.0063C265.673 44.7852 267.526 45.1611 269.513 45.1611C275.421 45.1611 279.557 43.4692 281.947 40.0586C283.935 37.561 284.928 34.6606 284.928 31.3574C284.928 29.021 284.472 27.0337 283.559 25.3955C282.646 23.7573 281.437 22.5488 279.96 21.7432C278.483 20.9375 276.872 20.2661 275.126 19.7021C273.38 19.1382 271.608 18.6548 269.835 18.2251C268.063 17.7954 266.452 17.2852 264.975 16.6943C263.498 16.1035 262.316 15.1904 261.403 13.9819C260.49 12.7734 260.033 11.2427 260.033 9.4165C260.033 7.80518 260.543 6.30127 261.591 4.90479C262.638 3.5083 263.9 2.51465 265.404 1.92383C266.774 1.38672 268.224 1.11816 269.728 1.11816C276.415 1.11816 280.255 5.09277 281.249 13.042H281.867V0.500488H281.249C281.249 1.68213 280.363 2.27295 278.617 2.27295C277.382 2.27295 276.12 2.00439 274.831 1.44043C273.407 0.822754 271.769 0.500488 269.943 0.500488C267.848 0.500488 265.968 0.930176 264.276 1.7627C262.155 2.81006 260.49 4.31396 259.281 6.27441C258.073 8.23486 257.455 10.3296 257.455 12.5586C257.455 14.8682 257.912 16.8286 258.825 18.4131C259.738 19.9976 260.919 21.1792 262.37 21.958C263.82 22.7368 265.431 23.3813 267.177 23.9185C268.922 24.4556 270.695 24.9658 272.467 25.4492C274.24 25.9326 275.851 26.4966 277.301 27.1411C278.751 27.7856 279.933 28.8062 280.846 30.1758C281.759 31.5454 282.216 33.2642 282.216 35.332C282.243 38.5547 280.9 40.9985 278.188 42.6367C275.985 43.9258 273.085 44.5703 269.486 44.5703C265.941 44.5703 262.934 43.3887 260.463 41.0522C257.992 38.7158 256.757 36.0303 256.757 33.0225V31.6797H256.166ZM325.319 34.9292H324.701V34.9829V34.9292C324.701 35.6006 324.674 36.1914 324.621 36.6748C324.567 37.1582 324.298 37.937 323.842 38.9844C323.385 40.0317 322.741 40.918 321.908 41.6162C321.076 42.3145 319.76 42.959 317.987 43.5229C316.215 44.0869 314.093 44.3823 311.649 44.3823H301.015V23.2739H305.526C308.776 23.2739 311.085 23.8379 312.482 24.939C313.878 26.04 314.577 27.9468 314.577 30.6592V30.7935H315.194V15.2173H314.577C314.577 17.876 313.905 19.7827 312.562 20.9106C311.22 22.0386 308.991 22.6294 305.902 22.6562H300.988V1.60156H309.42C311.515 1.60156 313.341 1.78955 314.926 2.13867C316.51 2.48779 317.746 2.99805 318.632 3.64258C319.518 4.28711 320.27 4.93164 320.861 5.54932C321.452 6.16699 321.854 6.89209 322.042 7.75146C322.23 8.61084 322.365 9.22852 322.418 9.63135C322.472 10.0342 322.499 10.5176 322.499 11.0815H323.117V1.09131H288.339V1.68213H294.838V44.4629H288.339V45.0806H325.319V34.9292ZM349.999 31.6797V45.1611H350.59V44.7852L350.644 45.1611C350.644 43.8452 351.664 43.1738 353.678 43.1738C355.021 43.1738 356.391 43.4424 357.787 44.0063C359.506 44.7852 361.359 45.1611 363.346 45.1611C369.254 45.1611 373.39 43.4692 375.78 40.0586C377.768 37.561 378.761 34.6606 378.761 31.3574C378.761 29.021 378.305 27.0337 377.392 25.3955C376.479 23.7573 375.27 22.5488 373.793 21.7432C372.316 20.9375 370.705 20.2661 368.959 19.7021C367.213 19.1382 365.441 18.6548 363.668 18.2251C361.896 17.7954 360.285 17.2852 358.808 16.6943C357.331 16.1035 356.149 15.1904 355.236 13.9819C354.323 12.7734 353.866 11.2427 353.866 9.4165C353.866 7.80518 354.376 6.30127 355.424 4.90479C356.471 3.5083 357.733 2.51465 359.237 1.92383C360.607 1.38672 362.057 1.11816 363.561 1.11816C370.248 1.11816 374.088 5.09277 375.082 13.042H375.7V0.500488H375.082C375.082 1.68213 374.196 2.27295 372.45 2.27295C371.215 2.27295 369.953 2.00439 368.664 1.44043C367.24 0.822754 365.602 0.500488 363.776 0.500488C361.681 0.500488 359.801 0.930176 358.109 1.7627C355.988 2.81006 354.323 4.31396 353.114 6.27441C351.906 8.23486 351.288 10.3296 351.288 12.5586C351.288 14.8682 351.745 16.8286 352.658 18.4131C353.571 19.9976 354.752 21.1792 356.203 21.958C357.653 22.7368 359.264 23.3813 361.01 23.9185C362.755 24.4556 364.528 24.9658 366.3 25.4492C368.073 25.9326 369.684 26.4966 371.134 27.1411C372.584 27.7856 373.766 28.8062 374.679 30.1758C375.592 31.5454 376.049 33.2642 376.049 35.332C376.076 38.5547 374.733 40.9985 372.021 42.6367C369.818 43.9258 366.918 44.5703 363.319 44.5703C359.774 44.5703 356.767 43.3887 354.296 41.0522C351.825 38.7158 350.59 36.0303 350.59 33.0225V31.6797H349.999ZM425.194 1.65527V1.06445H411.068V1.65527H417.836V31.9751C417.836 35.8691 416.466 38.9038 413.727 41.106C410.988 43.3081 407.497 44.4092 403.28 44.4092C397.453 44.4092 394.525 40.0586 394.525 31.3843V1.68213H401.186V1.09131H381.769V1.68213H388.537V32.002C388.537 36.0034 389.96 39.1724 392.807 41.5088C395.653 43.8452 399.198 45 403.468 45C407.792 45 411.364 43.8452 414.184 41.5088C417.003 39.1724 418.4 36.0034 418.4 32.002V1.68213L425.194 1.65527ZM458.603 15.1904V2.48779H458.065C458.039 3.5083 457.26 4.01855 455.729 4.01855C454.628 4.01855 453.581 3.77686 452.614 3.29346C451.647 2.81006 450.519 2.32666 449.23 1.84326C447.941 1.35986 446.33 1.11816 444.369 1.11816C438.971 1.11816 434.406 3.2666 430.646 7.56348C426.886 11.8604 424.979 17.0166 424.953 23.0322V23.0859C424.979 29.1284 426.886 34.3115 430.673 38.6084C434.459 42.9053 439.025 45.0537 444.369 45.0537C446.303 45.0537 447.914 44.812 449.23 44.3286C450.546 43.8452 451.674 43.3618 452.641 42.8784C453.607 42.395 454.628 42.1533 455.729 42.1533C457.26 42.1533 458.039 42.6636 458.065 43.6841V43.7378H458.603V31.0352H458.065H458.012C456.4 39.978 451.889 44.4629 444.477 44.4629C442.57 44.4629 440.744 44.1675 438.998 43.5767C437.494 42.9858 436.205 42.0728 435.158 40.8374C434.11 39.6021 433.358 38.2324 432.929 36.7554C432.499 35.2783 432.15 33.6938 431.908 32.002C431.667 30.3101 431.559 28.7256 431.613 27.2485C431.667 25.7715 431.667 24.4019 431.64 23.1396C431.613 20.481 431.64 18.2788 431.747 16.5332C431.854 14.7876 432.123 12.8809 432.553 10.813C432.982 8.74512 433.734 7.02637 434.809 5.68359C435.883 4.34082 437.252 3.34717 438.944 2.67578C440.69 2.08496 442.489 1.78955 444.342 1.78955C451.835 1.78955 456.374 6.24756 457.985 15.1636H458.039V15.2173L458.603 15.1904ZM497.274 15.1904V2.48779H496.737C496.71 3.5083 495.932 4.01855 494.401 4.01855C493.3 4.01855 492.252 3.77686 491.286 3.29346C490.319 2.81006 489.191 2.32666 487.902 1.84326C486.613 1.35986 485.001 1.11816 483.041 1.11816C477.643 1.11816 473.078 3.2666 469.318 7.56348C465.558 11.8604 463.651 17.0166 463.625 23.0322V23.0859C463.651 29.1284 465.558 34.3115 469.345 38.6084C473.131 42.9053 477.697 45.0537 483.041 45.0537C484.975 45.0537 486.586 44.812 487.902 44.3286C489.218 43.8452 490.346 43.3618 491.312 42.8784C492.279 42.395 493.3 42.1533 494.401 42.1533C495.932 42.1533 496.71 42.6636 496.737 43.6841V43.7378H497.274V31.0352H496.737H496.684C495.072 39.978 490.561 44.4629 483.148 44.4629C481.242 44.4629 479.416 44.1675 477.67 43.5767C476.166 42.9858 474.877 42.0728 473.83 40.8374C472.782 39.6021 472.03 38.2324 471.601 36.7554C471.171 35.2783 470.822 33.6938 470.58 32.002C470.338 30.3101 470.231 28.7256 470.285 27.2485C470.338 25.7715 470.338 24.4019 470.312 23.1396C470.285 20.481 470.312 18.2788 470.419 16.5332C470.526 14.7876 470.795 12.8809 471.225 10.813C471.654 8.74512 472.406 7.02637 473.48 5.68359C474.555 4.34082 475.924 3.34717 477.616 2.67578C479.362 2.08496 481.161 1.78955 483.014 1.78955C490.507 1.78955 495.045 6.24756 496.657 15.1636H496.71V15.2173L497.274 15.1904ZM538.766 34.9292H538.148V34.9829V34.9292C538.148 35.6006 538.122 36.1914 538.068 36.6748C538.014 37.1582 537.746 37.937 537.289 38.9844C536.833 40.0317 536.188 40.918 535.355 41.6162C534.523 42.3145 533.207 42.959 531.435 43.5229C529.662 44.0869 527.541 44.3823 525.097 44.3823H514.462V23.2739H518.974C522.223 23.2739 524.533 23.8379 525.929 24.939C527.326 26.04 528.024 27.9468 528.024 30.6592V30.7935H528.642V15.2173H528.024C528.024 17.876 527.353 19.7827 526.01 20.9106C524.667 22.0386 522.438 22.6294 519.35 22.6562H514.435V1.60156H522.868C524.962 1.60156 526.789 1.78955 528.373 2.13867C529.958 2.48779 531.193 2.99805 532.079 3.64258C532.965 4.28711 533.717 4.93164 534.308 5.54932C534.899 6.16699 535.302 6.89209 535.49 7.75146C535.678 8.61084 535.812 9.22852 535.866 9.63135C535.919 10.0342 535.946 10.5176 535.946 11.0815H536.564V1.09131H501.786V1.68213H508.285V44.4629H501.786V45.0806H538.766V34.9292ZM544.057 31.6797V45.1611H544.647V44.7852L544.701 45.1611C544.701 43.8452 545.722 43.1738 547.736 43.1738C549.079 43.1738 550.448 43.4424 551.845 44.0063C553.563 44.7852 555.417 45.1611 557.404 45.1611C563.312 45.1611 567.448 43.4692 569.838 40.0586C571.825 37.561 572.819 34.6606 572.819 31.3574C572.819 29.021 572.362 27.0337 571.449 25.3955C570.536 23.7573 569.328 22.5488 567.851 21.7432C566.374 20.9375 564.762 20.2661 563.017 19.7021C561.271 19.1382 559.499 18.6548 557.726 18.2251C555.954 17.7954 554.342 17.2852 552.865 16.6943C551.388 16.1035 550.207 15.1904 549.293 13.9819C548.38 12.7734 547.924 11.2427 547.924 9.4165C547.924 7.80518 548.434 6.30127 549.481 4.90479C550.529 3.5083 551.791 2.51465 553.295 1.92383C554.665 1.38672 556.115 1.11816 557.619 1.11816C564.306 1.11816 568.146 5.09277 569.14 13.042H569.757V0.500488H569.14C569.14 1.68213 568.253 2.27295 566.508 2.27295C565.272 2.27295 564.01 2.00439 562.721 1.44043C561.298 0.822754 559.66 0.500488 557.833 0.500488C555.739 0.500488 553.859 0.930176 552.167 1.7627C550.045 2.81006 548.38 4.31396 547.172 6.27441C545.963 8.23486 545.346 10.3296 545.346 12.5586C545.346 14.8682 545.802 16.8286 546.715 18.4131C547.628 19.9976 548.81 21.1792 550.26 21.958C551.71 22.7368 553.322 23.3813 555.067 23.9185C556.813 24.4556 558.585 24.9658 560.358 25.4492C562.13 25.9326 563.742 26.4966 565.192 27.1411C566.642 27.7856 567.824 28.8062 568.737 30.1758C569.65 31.5454 570.106 33.2642 570.106 35.332C570.133 38.5547 568.791 40.9985 566.078 42.6367C563.876 43.9258 560.976 44.5703 557.377 44.5703C553.832 44.5703 550.824 43.3887 548.354 41.0522C545.883 38.7158 544.647 36.0303 544.647 33.0225V31.6797H544.057ZM577.519 31.6797V45.1611H578.109V44.7852L578.163 45.1611C578.163 43.8452 579.184 43.1738 581.198 43.1738C582.541 43.1738 583.91 43.4424 585.307 44.0063C587.025 44.7852 588.878 45.1611 590.866 45.1611C596.774 45.1611 600.91 43.4692 603.3 40.0586C605.287 37.561 606.281 34.6606 606.281 31.3574C606.281 29.021 605.824 27.0337 604.911 25.3955C603.998 23.7573 602.79 22.5488 601.312 21.7432C599.835 20.9375 598.224 20.2661 596.479 19.7021C594.733 19.1382 592.96 18.6548 591.188 18.2251C589.416 17.7954 587.804 17.2852 586.327 16.6943C584.85 16.1035 583.668 15.1904 582.755 13.9819C581.842 12.7734 581.386 11.2427 581.386 9.4165C581.386 7.80518 581.896 6.30127 582.943 4.90479C583.991 3.5083 585.253 2.51465 586.757 1.92383C588.126 1.38672 589.577 1.11816 591.081 1.11816C597.768 1.11816 601.608 5.09277 602.602 13.042H603.219V0.500488H602.602C602.602 1.68213 601.715 2.27295 599.97 2.27295C598.734 2.27295 597.472 2.00439 596.183 1.44043C594.76 0.822754 593.122 0.500488 591.295 0.500488C589.201 0.500488 587.321 0.930176 585.629 1.7627C583.507 2.81006 581.842 4.31396 580.634 6.27441C579.425 8.23486 578.808 10.3296 578.808 12.5586C578.808 14.8682 579.264 16.8286 580.177 18.4131C581.09 19.9976 582.272 21.1792 583.722 21.958C585.172 22.7368 586.784 23.3813 588.529 23.9185C590.275 24.4556 592.047 24.9658 593.82 25.4492C595.592 25.9326 597.204 26.4966 598.654 27.1411C600.104 27.7856 601.286 28.8062 602.199 30.1758C603.112 31.5454 603.568 33.2642 603.568 35.332C603.595 38.5547 602.252 40.9985 599.54 42.6367C597.338 43.9258 594.438 44.5703 590.839 44.5703C587.294 44.5703 584.286 43.3887 581.815 41.0522C579.345 38.7158 578.109 36.0303 578.109 33.0225V31.6797H577.519ZM643.744 10.9473V0.957031H608.939V1.54785H615.465V44.3823H608.939V45H628.356V44.3823H621.588V23.2202H626.154C629.376 23.2202 631.686 23.7842 633.109 24.8853C634.533 25.9863 635.231 27.8931 635.231 30.6055V30.7935H635.822V15.2173H635.231C635.231 17.8491 634.56 19.729 633.19 20.8569C631.82 21.9849 629.591 22.5757 626.476 22.6562H621.588V1.521H629.994C632.089 1.521 633.942 1.70898 635.526 2.05811C637.111 2.40723 638.346 2.91748 639.232 3.56201C640.119 4.20654 640.871 4.85107 641.461 5.46875C642.052 6.08643 642.455 6.81152 642.643 7.6709C642.831 8.53027 642.965 9.14795 643.019 9.55078C643.073 9.95361 643.1 10.437 643.1 11.001L643.744 10.9473ZM689.721 1.65527V1.06445H675.595V1.65527H682.362V31.9751C682.362 35.8691 680.993 38.9038 678.253 41.106C675.514 43.3081 672.023 44.4092 667.807 44.4092C661.979 44.4092 659.052 40.0586 659.052 31.3843V1.68213H665.712V1.09131H646.295V1.68213H653.063V32.002C653.063 36.0034 654.486 39.1724 657.333 41.5088C660.18 43.8452 663.725 45 667.995 45C672.318 45 675.89 43.8452 678.71 41.5088C681.53 39.1724 682.926 36.0034 682.926 32.002V1.68213L689.721 1.65527ZM727.318 34.9292C727.318 34.9561 727.292 35.2246 727.238 35.708C727.184 36.1914 727.13 36.5674 727.05 36.8359C726.969 37.1045 726.862 37.5342 726.728 38.125C726.593 38.7158 726.378 39.1992 726.083 39.5752C725.788 39.9512 725.438 40.4077 725.009 40.9448C724.579 41.4819 724.042 41.9116 723.371 42.2607C722.699 42.6099 721.947 42.959 721.115 43.3081C720.282 43.6572 719.262 43.9258 718.08 44.0869C716.898 44.248 715.609 44.3286 714.213 44.3286H705.727V1.54785H712.548V0.957031H693.131V1.54785H699.63V44.3286H693.131V44.9463H699.63H705.727H727.909V34.9292H727.318ZM737.067 33.6133L739.43 3.64258C739.43 2.91748 739.162 2.2998 738.651 1.78955C738.141 1.2793 737.523 1.0376 736.798 1.0376C736.073 1.0376 735.429 1.30615 734.892 1.81641C734.354 2.32666 734.086 2.94434 734.086 3.66943L736.342 33.6401L737.067 33.6133ZM736.959 39.3066C736.154 39.3066 735.482 39.6021 734.918 40.166C734.354 40.73 734.086 41.4014 734.086 42.1802C734.086 42.9858 734.354 43.6572 734.918 44.1943C735.482 44.7314 736.154 45 736.959 45C737.738 45 738.383 44.7314 738.92 44.1943C739.457 43.6572 739.726 42.9858 739.726 42.1802C739.726 41.4014 739.457 40.73 738.92 40.166C738.383 39.6021 737.711 39.3335 736.933 39.3335L736.959 39.3066Z" fill="black"/>
</svg>
