<svg width="357" height="118" viewBox="0 0 357 118" fill="none" xmlns="http://www.w3.org/2000/svg">
<path d="M62.492 2.095C58.972 1.93 55.452 2.205 51.932 2.59C49.567 2.865 47.147 3.25 44.782 3.635C45.112 3.085 45.387 2.535 45.717 1.985C45.992 1.545 44.397 0.609999 44.122 1.05C43.572 2.04 43.077 3.03 42.527 4.02C42.197 4.075 41.867 4.13 41.537 4.185C38.072 4.845 34.662 5.56 31.252 6.385C29.547 6.825 27.842 7.32 26.137 7.87C25.312 8.09 24.432 8.42 23.607 8.75C23.167 8.915 22.782 9.135 22.342 9.41C22.122 9.575 21.847 9.63 21.572 10.18C21.407 10.62 21.682 11.17 21.902 11.28C22.122 11.445 22.452 11.555 22.452 11.555C22.837 11.665 23.827 10.18 24.157 10.015C24.927 9.685 25.752 9.41 26.577 9.135C28.172 8.585 29.877 8.09 31.527 7.65C34.937 6.715 38.347 5.945 41.757 5.285C41.812 5.23 41.812 5.23 41.867 5.23C38.732 11.115 35.982 17.22 33.507 23.38C30.482 31.08 27.842 38.89 25.917 46.92C25.862 47.195 26.962 47.47 27.017 47.195C29.052 39.275 31.747 31.52 34.882 23.93C37.632 17.385 40.657 11.005 44.122 4.79C46.762 4.35 49.402 3.855 52.097 3.525C55.507 3.085 58.642 2.755 62.107 2.865C62.327 2.865 62.712 2.095 62.492 2.095ZM56.7207 28C54.6857 29.87 50.2857 33.225 50.1207 30.365C50.0657 28.77 50.8357 26.735 50.5607 25.635C50.5057 25.415 50.1207 24.975 49.7907 24.755C49.1857 24.48 48.2507 25.14 47.9757 25.36C45.5007 27.01 41.4857 33.775 41.4857 33.775C41.9257 32.4 42.3107 31.08 42.7507 29.76C43.1907 28.44 43.6307 27.12 44.1257 25.8C46.2707 22.445 48.4707 19.145 50.6707 15.79C51.8807 13.92 53.3107 12.16 54.0257 9.905C54.0807 9.63 54.1357 9.3 54.1907 9.025C54.1907 8.695 54.2457 8.365 53.9707 7.925C53.8607 7.705 53.4757 7.54 53.2557 7.54C53.0357 7.595 52.8157 7.65 52.7057 7.705C52.3757 7.87 52.1557 8.09 51.9357 8.31C51.0557 9.08 50.3957 10.015 49.7357 10.95C47.2057 14.69 45.4457 18.815 43.8507 22.995C43.0257 25.085 42.2557 27.175 41.6507 29.32C40.9907 31.465 40.3857 34.05 39.9457 35.92V35.975C39.9457 36.14 40.0007 36.25 40.1657 36.305C40.3307 36.36 40.7707 36.195 40.7707 36.195C42.0907 34.05 43.3007 32.18 44.7857 30.255C46.3257 28.22 48.0857 26.405 48.5807 26.075C48.7457 25.91 48.9657 25.8 49.1857 25.745C49.1857 26.13 48.8557 28.66 48.7457 29.265C48.1407 34.875 52.3757 32.455 56.9407 28.22C57.0507 27.89 56.7207 28 56.7207 28ZM50.5607 11.5C51.1107 10.565 51.7707 9.685 52.5407 8.97C52.7057 8.75 52.9257 8.585 53.0907 8.53C53.2007 8.475 53.2557 8.42 53.3107 8.42C53.4207 8.585 53.3657 9.245 53.2557 9.685C52.7057 11.775 51.3307 13.59 50.1207 15.46C48.4157 18.045 46.7107 20.685 44.9507 23.325C46.5457 19.255 48.1957 15.185 50.5607 11.5ZM68.9291 27.89C62.8791 31.575 60.7891 31.74 63.1541 26.295C63.1541 26.13 62.7141 25.8 62.6041 25.69C62.4391 25.58 62.1641 25.58 62.0541 25.8C61.9441 25.91 61.8341 26.02 61.7241 26.13C60.4041 25.36 58.6441 26.075 57.4891 26.955C56.8841 27.395 56.3341 27.945 55.8391 28.55C55.6191 28.88 55.3991 29.155 55.1791 29.54C54.5741 31.025 55.3441 31.52 56.4441 31.135C57.2691 30.86 58.8091 29.65 59.3591 29.21C60.0741 28.55 60.7891 27.945 61.5041 27.285C59.6341 31.685 61.5591 32.84 69.0941 28.165C69.1491 28.11 69.0391 27.835 68.9291 27.89ZM58.9741 28.715C58.4241 29.155 57.8741 29.54 57.2691 29.925C56.9941 30.09 56.6641 30.255 56.3891 30.31C56.3341 30.31 56.3341 30.31 56.3341 30.31C56.3341 30.255 56.3891 30.145 56.4441 30.09C56.5541 29.815 56.7191 29.54 56.8841 29.265C57.2691 28.77 57.7091 28.22 58.2041 27.78C59.0841 26.955 60.2391 26.24 61.4491 26.405C60.6791 27.23 59.8541 28 58.9741 28.715ZM81.2098 27.89C74.8848 33.06 75.2698 31.19 74.1698 28.275C73.7298 26.955 72.2998 25.36 68.7248 29.1C68.9448 28.22 70.0448 26.46 70.3748 26.075C70.6498 25.855 69.9898 25.36 69.1098 25.91C68.6148 26.24 67.3498 29.375 67.3498 30.805C67.2948 31.355 68.0098 31.3 68.0098 31.3C71.4748 26.24 72.4098 27.12 73.1798 29.595C74.2798 33.28 76.2048 32.29 81.3748 28.165C81.4848 28.11 81.2648 27.835 81.2098 27.89ZM93.695 27.89C86.82 33.885 85.225 32.29 83.96 29.54C89.405 26.845 88.745 24.865 86.71 25.36C84.73 25.855 82.805 27.23 81.485 29.21C82.035 27.505 82.255 27.12 82.75 25.635C85.885 21.565 90.285 15.735 91.99 11.335C93.145 8.31 92.375 7.265 90.395 8.695C85.06 13.645 80.385 28.55 79.67 30.915C79.285 32.125 78.405 35.48 78.405 35.48C78.405 35.48 78.35 36.03 78.405 36.085C78.405 36.195 79.065 36.25 79.12 36.085C80.66 30.86 82.97 27.835 85.5 26.46C85.94 26.24 86.49 25.965 86.875 25.965C88.03 25.8 85.17 28.275 82.86 29.045C82.2 29.43 82.915 30.75 83.3 31.355C84.95 33.94 87.975 33.61 93.915 28.11C94.025 28 93.805 27.835 93.695 27.89ZM90.23 10.18C91.825 8.09 92.43 8.53 91.44 11.005C90.175 13.975 88.58 16.89 83.245 23.71C85.225 18.43 87.315 14.03 90.23 10.18ZM114.408 27.835C114.408 27.725 110.283 30.53 107.918 32.29C108.248 31.19 109.018 27.835 109.018 27.835C109.403 26.02 109.458 25.58 108.248 25.58C106.158 28.22 102.143 31.3 101.978 30.035C102.198 28.825 102.913 27.725 103.298 26.625H103.353C103.463 26.35 102.363 25.8 102.253 26.13C101.483 27.615 100.218 30.365 101.593 31.08C103.243 31.85 108.193 26.845 108.193 26.845C108.138 27.065 106.378 33.115 106.268 33.5C100.273 37.9 94.2781 44.775 93.5631 49.285C93.0131 52.695 96.4231 52.365 98.0181 51.265C99.1731 50.495 100.163 49.505 100.988 48.405C102.583 46.15 103.738 43.675 104.783 41.255C105.773 38.835 106.928 35.755 107.643 33.28C109.898 31.245 114.518 28.11 114.518 28.11C114.518 28.11 114.463 27.89 114.408 27.835ZM103.628 40.76C102.638 43.18 101.428 45.545 99.9981 47.69C99.2831 48.735 98.8431 49.45 97.8531 50.165C95.4881 52.035 93.5631 51.265 94.9931 47.69C96.1481 44.665 100.218 39.11 105.938 34.545C105.278 36.415 104.343 38.89 103.628 40.76ZM122.282 27.945C120.962 28.935 119.697 29.43 118.102 29.155C118.102 29.155 118.872 27.89 118.102 27.12C118.707 24.865 114.197 25.525 113.152 28C111.722 31.355 115.517 32.235 117.882 29.54C119.752 29.815 120.797 29.32 122.502 28.11C122.557 28.055 122.447 27.835 122.282 27.945ZM114.032 29.155C114.197 28 115.462 26.79 116.452 26.405C116.892 26.24 118.047 26.13 117.717 27.12C116.672 27.285 116.397 28.55 117.332 29.265C116.452 30.585 113.812 31.52 114.032 29.155ZM117.552 28.88C116.947 28.55 117.222 27.285 117.937 27.505C118.157 27.56 117.937 28.385 117.552 28.88ZM132.502 27.835C127.772 31.41 126.232 31.08 126.892 29.155C127.112 28.33 127.662 27.01 127.937 26.13C127.992 25.965 127.497 25.415 127.112 25.635C125.682 28.165 124.472 29.265 122.602 30.31C121.282 31.08 122.602 28.11 123.647 26.735C123.647 26.735 123.042 25.8 122.657 26.075C122.107 26.515 120.842 29.155 120.787 29.87C120.567 32.51 124.087 30.475 125.792 28.66C124.472 32.29 128.102 31.96 132.722 28.055C132.777 28 132.612 27.78 132.502 27.835ZM148.991 27.835C146.901 28.22 144.756 28.66 142.611 29.21C142.061 29.375 141.511 29.54 140.906 29.705C141.236 28.99 141.511 28.275 141.841 27.56C143.436 25.635 145.031 23.71 146.461 21.675C146.901 21.125 147.286 20.575 147.671 19.97C148.001 19.365 148.386 18.815 148.496 17.88C148.496 17.66 148.386 17.33 148.111 17.165C147.836 17 147.506 17 147.286 17.055C146.846 17.22 146.516 17.495 146.296 17.715C145.746 18.265 145.306 18.815 144.921 19.365C142.611 22.775 140.851 26.46 139.311 30.2C138.871 30.365 138.376 30.53 137.936 30.805C137.661 30.915 137.441 31.08 137.166 31.41C137.056 31.52 137.001 31.96 137.166 32.125C137.331 32.345 137.496 32.4 137.606 32.51V32.455C137.826 32.62 138.046 32.84 138.211 33.06C138.046 33.445 137.881 33.83 137.771 34.27C136.836 36.855 135.956 39.44 135.296 42.135C135.021 43.51 134.691 44.885 134.581 46.26C134.526 47.03 134.361 47.635 134.746 48.625C134.801 48.79 134.911 48.955 135.131 49.12C135.406 49.285 135.681 49.23 135.901 49.175C136.231 49.065 136.396 48.9 136.561 48.735C136.836 48.405 137.001 48.13 137.221 47.8C138.596 45.27 139.476 42.63 139.916 39.88C140.191 38.505 140.246 37.075 140.026 35.645C139.916 34.985 139.751 34.215 139.421 33.61C139.806 32.51 140.191 31.465 140.631 30.42C141.346 30.145 142.061 29.925 142.776 29.705C144.866 29.155 146.956 28.605 149.101 28.11C149.156 28.11 149.101 27.835 148.991 27.835ZM145.691 19.86C146.021 19.31 146.406 18.76 146.846 18.32C147.066 18.1 147.341 17.88 147.506 17.825C147.726 17.825 147.726 17.77 147.726 17.935C147.726 18.43 147.396 19.09 147.066 19.64C146.736 20.19 146.351 20.795 145.966 21.345C145.031 22.61 144.041 23.875 142.941 25.085C143.821 23.325 144.701 21.565 145.691 19.86ZM137.991 31.905H137.936C137.826 31.85 137.716 31.795 137.716 31.74C137.716 31.74 137.716 31.795 137.716 31.74C137.826 31.63 138.046 31.465 138.266 31.355C138.486 31.19 138.761 31.08 138.981 30.97C138.816 31.465 138.651 31.905 138.486 32.345C138.321 32.18 138.156 32.015 137.991 31.905ZM139.036 39.715C138.541 42.3 137.661 44.995 136.231 47.195C136.121 47.36 135.956 47.58 135.846 47.745C135.791 47.36 135.846 46.865 135.901 46.425C136.066 45.105 136.341 43.785 136.671 42.465C137.276 39.825 138.101 37.24 138.981 34.71V34.655C139.091 35.04 139.201 35.37 139.201 35.755C139.366 37.075 139.256 38.395 139.036 39.715ZM157.227 27.945C155.907 28.935 154.642 29.43 153.047 29.155C153.047 29.155 153.817 27.89 153.047 27.12C153.652 24.865 149.142 25.525 148.097 28C146.667 31.355 150.462 32.235 152.827 29.54C154.697 29.815 155.742 29.32 157.447 28.11C157.502 28.055 157.392 27.835 157.227 27.945ZM148.977 29.155C149.142 28 150.407 26.79 151.397 26.405C151.837 26.24 152.992 26.13 152.662 27.12C151.617 27.285 151.342 28.55 152.277 29.265C151.397 30.585 148.757 31.52 148.977 29.155ZM152.497 28.88C151.892 28.55 152.167 27.285 152.882 27.505C153.102 27.56 152.882 28.385 152.497 28.88ZM167.46 27.89C163.06 30.75 159.32 31.795 160.695 29.485C161.575 28.055 161.3 27.45 158.66 26.9C158.77 26.735 160.145 25.25 159.705 24.315C159.595 24.04 159.265 23.93 158.88 24.04C158.11 24.26 157.34 25.195 157.065 25.69C157.01 25.855 156.79 26.35 156.845 26.735C156.955 27.23 157.45 27.34 157.725 27.395C157.78 27.505 157.89 27.56 158 27.56C158.165 27.505 158.165 27.45 158.275 27.395C160.255 27.725 160.09 28.275 159.815 28.825C159.375 29.65 159.1 30.255 159.155 30.695C159.43 33.17 165.755 29.32 167.57 28.11H167.625C167.68 28.055 167.515 27.835 167.46 27.89ZM157.89 26.79C157.175 26.79 158.88 24.535 159.21 24.755C159.595 24.92 158.55 26.405 157.89 26.79ZM189.157 27.89C188.002 28.11 186.132 28.66 184.867 29.155C184.867 29.045 184.922 28.99 184.977 28.935C185.087 28.495 185.197 28 185.142 27.505C185.087 26.955 184.757 26.46 184.317 26.185C183.547 25.525 182.392 25.635 181.622 26.02C180.852 26.405 180.192 27.01 179.587 27.56C177.827 29.43 176.562 31.245 175.242 33.445C175.792 30.915 176.122 29.375 176.727 27.395C179.202 23.765 181.512 20.465 183.877 16.78C185.032 14.91 187.177 10.62 187.232 9.135C187.287 7.98 185.967 7.98 185.362 8.2C184.757 8.42 183.492 9.795 182.777 10.675C180.137 14.415 178.377 18.595 177.002 22.83C175.682 27.12 174.417 31.41 173.922 35.865C173.867 36.085 173.977 36.25 174.142 36.36C174.362 36.47 174.637 36.36 174.747 36.14C176.177 33.225 177.827 30.365 180.027 28C180.577 27.395 181.182 26.9 181.897 26.57C182.557 26.24 183.327 26.295 183.822 26.79C184.317 27.23 184.207 27.89 183.877 28.495C183.602 29.045 183.272 29.595 182.887 30.09C181.732 30.64 180.577 31.245 179.477 31.96C178.762 32.455 178.047 32.895 177.497 33.665C177.387 33.885 177.112 34.215 177.442 34.765C177.827 35.095 178.157 35.095 178.432 35.04C178.982 34.93 179.367 34.71 179.752 34.545C181.237 33.665 182.502 32.51 183.657 31.245C183.987 30.75 184.317 30.2 184.647 29.65C185.912 29.1 187.947 28.495 189.267 28.11C189.377 28.055 189.267 27.89 189.157 27.89ZM178.047 23.215C179.752 19.145 181.402 15.02 183.767 11.39C184.372 10.565 185.087 9.63 185.857 9.19C186.022 9.135 186.187 9.08 186.297 9.08C186.462 9.135 186.352 9.025 186.462 9.19C186.517 9.52 186.352 10.07 186.187 10.565C185.472 12.545 184.372 14.525 183.272 16.395C181.457 19.365 179.477 22.225 177.442 24.975C177.662 24.425 177.827 23.82 178.047 23.215ZM179.202 33.61C178.872 33.83 178.542 34.05 178.267 34.105C178.267 34.16 178.212 34.105 178.212 34.105C178.542 33.5 179.202 32.95 179.807 32.455C180.577 31.905 181.347 31.41 182.117 30.97C181.237 31.96 180.302 32.895 179.202 33.61ZM199.363 27.835C194.633 31.41 193.093 31.08 193.753 29.155C193.973 28.33 194.523 27.01 194.798 26.13C194.853 25.965 194.358 25.415 193.973 25.635C192.543 28.165 191.333 29.265 189.463 30.31C188.143 31.08 189.463 28.11 190.508 26.735C190.508 26.735 189.903 25.8 189.518 26.075C188.968 26.515 187.703 29.155 187.648 29.87C187.428 32.51 190.948 30.475 192.653 28.66C191.333 32.29 194.963 31.96 199.583 28.055C199.638 28 199.473 27.78 199.363 27.835ZM211.519 27.835C211.519 27.725 207.394 30.53 205.029 32.29C205.359 31.19 206.129 27.835 206.129 27.835C206.514 26.02 206.569 25.58 205.359 25.58C203.269 28.22 199.254 31.3 199.089 30.035C199.309 28.825 200.024 27.725 200.409 26.625H200.464C200.574 26.35 199.474 25.8 199.364 26.13C198.594 27.615 197.329 30.365 198.704 31.08C200.354 31.85 205.304 26.845 205.304 26.845C205.249 27.065 203.489 33.115 203.379 33.5C197.384 37.9 191.389 44.775 190.674 49.285C190.124 52.695 193.534 52.365 195.129 51.265C196.284 50.495 197.274 49.505 198.099 48.405C199.694 46.15 200.849 43.675 201.894 41.255C202.884 38.835 204.039 35.755 204.754 33.28C207.009 31.245 211.629 28.11 211.629 28.11C211.629 28.11 211.574 27.89 211.519 27.835ZM200.739 40.76C199.749 43.18 198.539 45.545 197.109 47.69C196.394 48.735 195.954 49.45 194.964 50.165C192.599 52.035 190.674 51.265 192.104 47.69C193.259 44.665 197.329 39.11 203.049 34.545C202.389 36.415 201.454 38.89 200.739 40.76ZM218.184 27.945C215.544 29.705 212.244 31.355 211.584 30.31C211.529 29.98 211.639 29.43 211.804 28.935C212.134 27.945 212.409 27.615 212.959 26.68C212.959 26.625 212.959 26.625 213.014 26.57C213.124 26.24 212.464 24.7 211.639 26.13C211.089 27.12 210.869 27.615 210.594 28.825C210.264 29.98 210.539 31.19 211.749 31.3C212.904 31.41 215.599 30.145 218.349 28.165C218.459 28.11 218.294 27.89 218.184 27.945ZM214.389 23.82C214.444 23.655 214.334 22.83 213.949 23.215C213.509 23.6 212.739 23.985 212.629 24.205C212.464 24.645 214.279 24.37 214.389 23.82ZM230.905 27.89C224.58 33.06 224.965 31.19 223.865 28.275C223.425 26.955 221.995 25.36 218.42 29.1C218.64 28.22 219.74 26.46 220.07 26.075C220.345 25.855 219.685 25.36 218.805 25.91C218.31 26.24 217.045 29.375 217.045 30.805C216.99 31.355 217.705 31.3 217.705 31.3C221.17 26.24 222.105 27.12 222.875 29.595C223.975 33.28 225.9 32.29 231.07 28.165C231.18 28.11 230.96 27.835 230.905 27.89ZM243.06 27.835C241.355 28.715 239.32 30.145 237.725 31.355C237.89 30.695 238.55 27.56 238.55 26.57C238.495 26.13 237.395 24.975 237.065 25.415C236.735 25.8 235.69 26.845 235.69 26.9C235.415 26.515 235.085 26.185 234.59 26.075C234.095 25.91 233.545 25.91 233.05 26.075C232.115 26.35 231.345 27.01 230.74 27.67C230.08 28.385 229.475 29.375 229.31 30.365C229.145 31.52 230.575 31.3 231.015 31.135C233.6 30.09 237.34 26.35 237.34 26.35C237.34 26.35 237.34 26.515 237.34 26.57C237.285 27.34 237.065 28.22 236.9 28.99C236.57 30.31 236.185 31.63 235.745 32.95C235.25 33.335 234.755 33.775 234.26 34.215C231.675 36.525 229.75 38.395 227.605 41.145C226.56 42.52 225.515 43.95 224.58 45.435C223.7 46.92 222.765 48.46 222.325 50.275C222.27 50.77 222.16 51.265 222.435 51.87C222.6 52.2 222.875 52.475 223.205 52.585C223.535 52.64 223.755 52.695 224.03 52.695C225.075 52.695 225.955 52.255 226.725 51.76C228.265 50.715 229.42 49.285 230.41 47.855C233.71 43.125 235.855 37.57 237.505 32.18C239.21 30.75 241.3 29.21 243.17 28.11C243.225 28.055 243.115 27.835 243.06 27.835ZM231.62 30.09C231.235 30.31 230.85 30.53 230.52 30.64C230.465 30.64 230.41 30.64 230.355 30.64C230.355 30.64 230.355 30.585 230.355 30.53C230.575 29.925 231.235 29.155 231.675 28.495C232.665 27.395 234.04 26.185 235.415 27.12C234.205 28.22 232.995 29.375 231.62 30.09ZM233.71 38.78C232.39 41.97 231.345 44.335 229.475 47.195C228.485 48.57 227.44 49.945 226.12 50.88C225.46 51.32 224.745 51.65 224.03 51.65C222.27 51.595 224.525 47.36 225.405 45.93C226.285 44.445 227.275 43.07 228.32 41.695C230.41 38.945 232.225 37.075 234.7 34.655C234.975 34.435 235.195 34.215 235.47 33.94C234.92 35.59 234.37 37.185 233.71 38.78ZM266.648 27.945C264.778 29.375 262.358 29.595 262.358 28.165C262.963 26.35 262.963 25.25 262.798 25.03C262.578 24.755 262.413 24.81 262.028 25.03C261.753 25.195 260.763 27.175 261.423 28.55C260.598 31.245 259.443 32.235 258.728 32.235C257.738 32.235 257.133 30.145 258.233 25.745V25.69C258.233 25.58 257.738 25.195 257.408 25.36C257.078 25.525 251.688 31.135 251.908 29.595C252.183 27.45 253.448 25.36 254.108 24.59C254.328 24.37 253.778 23.82 253.118 24.15C252.018 24.755 250.698 28.275 250.753 30.2C250.753 30.915 251.303 30.97 251.523 30.915C252.788 30.64 256.528 27.175 256.528 27.175C256.198 29.1 256.143 32.84 257.793 33.06C259.993 33.39 261.313 31.025 262.028 29.045C262.908 29.98 265.218 29.43 266.758 28.11C266.758 28.11 266.703 27.945 266.648 27.945ZM274.044 27.945C271.404 29.705 268.104 31.355 267.444 30.31C267.389 29.98 267.499 29.43 267.664 28.935C267.994 27.945 268.269 27.615 268.819 26.68C268.819 26.625 268.819 26.625 268.874 26.57C268.984 26.24 268.324 24.7 267.499 26.13C266.949 27.12 266.729 27.615 266.454 28.825C266.124 29.98 266.399 31.19 267.609 31.3C268.764 31.41 271.459 30.145 274.209 28.165C274.319 28.11 274.154 27.89 274.044 27.945ZM270.249 23.82C270.304 23.655 270.194 22.83 269.809 23.215C269.369 23.6 268.599 23.985 268.489 24.205C268.324 24.645 270.139 24.37 270.249 23.82ZM292.046 14.25C288.801 14.525 285.611 14.965 282.421 15.57H282.366C283.026 14.635 283.631 13.59 284.346 12.655C284.841 11.94 285.336 11.17 285.721 10.345C285.941 9.96 286.106 9.575 286.271 9.135C286.326 8.86 286.436 8.64 286.436 8.365C286.436 8.255 286.436 8.09 286.381 7.87C286.326 7.595 285.831 7.43 285.666 7.54C285.006 7.815 284.786 8.145 284.456 8.475C284.181 8.86 283.906 9.19 283.631 9.575C283.136 10.29 282.641 11.06 282.201 11.775C281.376 13.205 280.606 14.69 279.836 16.12C279.121 16.23 278.406 16.395 277.691 16.56C276.096 16.945 274.556 17.22 272.961 18.1C272.796 18.155 273.181 18.815 273.346 18.705L273.401 18.65C274.666 17.99 276.316 17.605 277.856 17.165C278.351 17.055 278.901 16.945 279.451 16.78C274.941 24.645 269.276 35.7 271.971 39.495C272.411 40.1 273.126 39.935 273.621 39.825C277.251 39 285.831 30.97 287.921 28.165C287.976 28.055 287.701 27.89 287.646 27.945C281.046 35.425 273.456 40.485 272.631 38.78C271.531 36.14 274.611 29.045 277.306 23.655C278.626 21.4 280.001 19.2 281.431 17C281.541 16.725 281.761 16.505 281.926 16.23C282.091 16.175 282.311 16.12 282.531 16.12C285.666 15.515 288.856 15.02 292.046 14.745C292.211 14.69 292.321 14.58 292.321 14.47C292.266 14.36 292.156 14.25 292.046 14.25ZM280.881 16.615C280.496 17.165 280.166 17.77 279.836 18.32C280.056 17.825 280.276 17.33 280.496 16.835C280.551 16.725 280.606 16.615 280.661 16.505C280.771 16.505 280.881 16.45 280.991 16.45C280.936 16.505 280.881 16.56 280.881 16.615ZM281.431 15.79C281.321 15.79 281.156 15.845 281.046 15.845C281.651 14.635 282.256 13.37 282.916 12.215C283.356 11.445 283.796 10.73 284.291 10.015C284.511 9.63 284.786 9.3 285.061 8.97C285.226 8.75 285.501 8.53 285.666 8.365C285.666 8.53 285.611 8.695 285.556 8.86C285.446 9.245 285.281 9.685 285.061 10.015C284.676 10.785 284.236 11.555 283.741 12.27C282.971 13.425 282.201 14.58 281.431 15.79ZM301.98 28C299.945 29.87 295.545 33.225 295.38 30.365C295.325 28.77 296.095 26.735 295.82 25.635C295.765 25.415 295.38 24.975 295.05 24.755C294.445 24.48 293.51 25.14 293.235 25.36C290.76 27.01 286.745 33.775 286.745 33.775C287.185 32.4 287.57 31.08 288.01 29.76C288.45 28.44 288.89 27.12 289.385 25.8C291.53 22.445 293.73 19.145 295.93 15.79C297.14 13.92 298.57 12.16 299.285 9.905C299.34 9.63 299.395 9.3 299.45 9.025C299.45 8.695 299.505 8.365 299.23 7.925C299.12 7.705 298.735 7.54 298.515 7.54C298.295 7.595 298.075 7.65 297.965 7.705C297.635 7.87 297.415 8.09 297.195 8.31C296.315 9.08 295.655 10.015 294.995 10.95C292.465 14.69 290.705 18.815 289.11 22.995C288.285 25.085 287.515 27.175 286.91 29.32C286.25 31.465 285.645 34.05 285.205 35.92V35.975C285.205 36.14 285.26 36.25 285.425 36.305C285.59 36.36 286.03 36.195 286.03 36.195C287.35 34.05 288.56 32.18 290.045 30.255C291.585 28.22 293.345 26.405 293.84 26.075C294.005 25.91 294.225 25.8 294.445 25.745C294.445 26.13 294.115 28.66 294.005 29.265C293.4 34.875 297.635 32.455 302.2 28.22C302.31 27.89 301.98 28 301.98 28ZM295.82 11.5C296.37 10.565 297.03 9.685 297.8 8.97C297.965 8.75 298.185 8.585 298.35 8.53C298.46 8.475 298.515 8.42 298.57 8.42C298.68 8.585 298.625 9.245 298.515 9.685C297.965 11.775 296.59 13.59 295.38 15.46C293.675 18.045 291.97 20.685 290.21 23.325C291.805 19.255 293.455 15.185 295.82 11.5ZM320.666 27.835C315.936 31.41 314.396 31.08 315.056 29.155C315.276 28.33 315.826 27.01 316.101 26.13C316.156 25.965 315.661 25.415 315.276 25.635C313.846 28.165 312.636 29.265 310.766 30.31C309.446 31.08 310.766 28.11 311.811 26.735C311.811 26.735 311.206 25.8 310.821 26.075C310.271 26.515 309.006 29.155 308.951 29.87C308.731 32.51 312.251 30.475 313.956 28.66C312.636 32.29 316.266 31.96 320.886 28.055C320.941 28 320.776 27.78 320.666 27.835ZM327.928 27.89C325.838 28.66 323.748 29.54 321.768 30.64V30.585C321.823 29.87 321.823 29.1 321.823 28.385C321.878 27.505 321.878 26.625 321.988 25.8C322.978 25.25 323.858 24.535 324.408 23.545C324.958 22.61 324.848 21.455 323.253 22.17C322.263 22.61 320.888 23.875 320.723 26.02C320.668 26.02 320.613 26.075 320.558 26.075C320.503 26.13 320.448 26.185 320.448 26.295C320.503 26.35 320.558 26.405 320.668 26.405C320.668 26.35 320.668 26.35 320.668 26.35C320.558 27.01 320.448 30.42 320.448 31.41C320.118 31.63 319.788 31.85 319.513 32.07C318.853 32.51 318.248 33.005 317.753 33.665C317.533 33.995 317.313 34.38 317.313 34.875C317.258 35.315 317.533 35.81 318.028 36.03C319.018 36.415 320.008 35.865 320.613 35.205C321.163 34.545 321.438 33.72 321.658 32.95C321.768 32.29 321.768 31.685 321.768 31.08C323.803 29.925 325.893 28.99 328.038 28.11C328.093 28.055 328.038 27.835 327.928 27.89ZM322.373 24.15C322.703 23.105 325.068 21.235 324.078 23.38C323.638 24.26 322.923 24.975 322.043 25.47C322.098 25.03 322.208 24.59 322.373 24.15ZM320.448 32.785C320.338 33.445 320.173 34.16 319.843 34.655C319.513 35.205 318.853 35.645 318.303 35.48C317.753 35.315 317.753 34.49 318.138 33.885C318.523 33.28 319.073 32.785 319.733 32.345C319.953 32.18 320.228 32.015 320.448 31.905C320.448 32.18 320.448 32.51 320.448 32.785ZM329.146 35.15C328.816 34.985 328.376 34.93 327.936 36.25C327.496 37.46 329.146 37.57 329.696 36.195C329.916 35.755 329.641 35.26 329.146 35.15ZM340.476 9.905C340.201 9.74 339.761 9.795 339.541 10.125C335.361 16.45 332.226 23.435 329.861 30.64C329.806 30.86 330.631 31.135 330.686 30.915C333.106 23.82 336.406 17 340.696 10.84C340.861 10.565 340.806 10.125 340.476 9.905ZM36.3463 70.505C33.3763 70.23 30.4613 70.56 27.5463 70.89C28.0413 70.23 28.4813 69.515 28.9213 68.855C29.2513 68.415 27.6563 67.37 27.3813 67.81C26.6113 68.91 25.8963 70.12 25.1263 71.275C22.1013 71.77 19.1313 72.32 16.1613 73.035L15.7213 73.145C15.2813 73.31 16.1063 74.63 16.5463 74.52C19.0763 73.805 21.6613 73.2 24.2463 72.65C17.7563 83.155 12.7513 94.54 9.1763 106.365C5.8763 107.135 2.3013 108.29 0.7063 111.26C0.5413 111.645 1.9163 112.14 2.1363 111.755C3.5663 108.95 7.3063 108.07 8.8463 107.685C8.5163 108.785 8.1313 109.885 7.8563 111.04C7.7463 111.37 8.9563 111.7 9.0663 111.37C9.4513 109.995 9.8363 108.675 10.2763 107.355C13.5763 106.695 16.9863 106.42 20.3963 106.365C20.6163 106.365 20.6163 105.54 20.3963 105.54C17.1513 105.485 13.8513 105.65 10.6063 106.145C14.5113 94.155 19.8463 82.66 26.7763 72.1C29.9113 71.55 33.1563 71.055 36.2913 71.22H36.3463C36.5113 71.22 36.5663 70.56 36.3463 70.505ZM36.527 92.89C30.202 98.06 30.587 96.19 29.487 93.275C29.047 91.955 27.617 90.36 24.042 94.1C24.262 93.22 25.362 91.46 25.692 91.075C25.967 90.855 25.307 90.36 24.427 90.91C23.932 91.24 22.667 94.375 22.667 95.805C22.612 96.355 23.327 96.3 23.327 96.3C26.792 91.24 27.727 92.12 28.497 94.595C29.597 98.28 31.522 97.29 36.692 93.165C36.802 93.11 36.582 92.835 36.527 92.89ZM44.1825 89.205C41.8175 88.765 38.8475 92.67 36.9225 95.475C36.8675 93.22 37.1975 91.24 37.6375 90.14C37.6375 89.7 36.4275 89.26 36.3175 89.645C35.8775 91.075 35.5475 93.11 35.9875 97.62C35.9875 97.84 36.4275 97.73 36.5375 97.565C37.8025 95.035 42.1475 88.82 44.1275 89.48C44.2925 89.37 44.4025 89.26 44.1825 89.205ZM53.225 92.945C51.905 93.935 50.64 94.43 49.045 94.155C49.045 94.155 49.815 92.89 49.045 92.12C49.65 89.865 45.14 90.525 44.095 93C42.665 96.355 46.46 97.235 48.825 94.54C50.695 94.815 51.74 94.32 53.445 93.11C53.5 93.055 53.39 92.835 53.225 92.945ZM44.975 94.155C45.14 93 46.405 91.79 47.395 91.405C47.835 91.24 48.99 91.13 48.66 92.12C47.615 92.285 47.34 93.55 48.275 94.265C47.395 95.585 44.755 96.52 44.975 94.155ZM48.495 93.88C47.89 93.55 48.165 92.285 48.88 92.505C49.1 92.56 48.88 93.385 48.495 93.88ZM60.2545 92.945C57.6145 94.705 54.3145 96.355 53.6545 95.31C53.5995 94.98 53.7095 94.43 53.8745 93.935C54.2045 92.945 54.4795 92.615 55.0295 91.68C55.0295 91.625 55.0295 91.625 55.0845 91.57C55.1945 91.24 54.5345 89.7 53.7095 91.13C53.1595 92.12 52.9395 92.615 52.6645 93.825C52.3345 94.98 52.6095 96.19 53.8195 96.3C54.9745 96.41 57.6695 95.145 60.4195 93.165C60.5295 93.11 60.3645 92.89 60.2545 92.945ZM56.4595 88.82C56.5145 88.655 56.4045 87.83 56.0195 88.215C55.5795 88.6 54.8095 88.985 54.6995 89.205C54.5345 89.645 56.3495 89.37 56.4595 88.82ZM69.071 92.835C67.201 94.21 65.001 95.2 63.131 95.805C59.776 96.85 59.941 92.78 62.856 90.69C63.186 90.525 63.571 90.415 63.901 90.58C64.176 90.69 64.341 91.13 64.286 91.515C64.286 91.625 64.286 91.735 64.286 91.845C64.286 91.845 64.341 92.12 64.561 92.065C64.561 92.065 64.946 90.8 65.111 90.47V90.415C65.166 90.415 65.166 90.415 65.166 90.36C65.221 90.195 64.836 90.195 64.781 90.305L64.561 90.745C64.451 90.525 64.341 90.36 64.121 90.195C63.626 89.865 61.206 89.865 59.556 93.165C58.401 95.475 60.106 97.235 63.241 96.245C65.386 95.53 67.476 94.375 69.291 93.055C69.346 93 69.181 92.725 69.071 92.835ZM77.5202 92.615C74.1102 95.31 67.5652 97.455 68.9952 94.21C70.2052 93.935 71.2502 93.605 72.2402 92.835C74.1102 91.405 72.6802 90.745 72.4052 90.69C72.1302 90.58 71.8552 90.58 71.5802 90.58C70.9752 90.69 70.4802 90.91 70.0402 91.13C69.1602 91.68 68.5002 92.45 67.9502 93.275C66.4652 96.08 68.3902 96.575 69.1052 96.63C70.8102 96.685 73.7802 95.75 77.7402 92.835C77.7952 92.78 77.5752 92.56 77.5202 92.615ZM70.7002 92.065C71.0302 91.79 71.3602 91.57 71.6902 91.46C72.3502 91.24 73.0652 91.405 71.8552 92.395C71.5252 92.725 70.5352 93.33 69.2702 93.66C69.7102 93.11 70.2052 92.56 70.7002 92.065ZM93.1152 92.89C91.0252 93.66 88.9352 94.54 86.9552 95.64V95.585C87.0102 94.87 87.0102 94.1 87.0102 93.385C87.0652 92.505 87.0652 91.625 87.1752 90.8C88.1652 90.25 89.0452 89.535 89.5952 88.545C90.1452 87.61 90.0352 86.455 88.4402 87.17C87.4502 87.61 86.0752 88.875 85.9102 91.02C85.8552 91.02 85.8002 91.075 85.7452 91.075C85.6902 91.13 85.6352 91.185 85.6352 91.295C85.6902 91.35 85.7452 91.405 85.8552 91.405C85.8552 91.35 85.8552 91.35 85.8552 91.35C85.7452 92.01 85.6352 95.42 85.6352 96.41C85.3052 96.63 84.9752 96.85 84.7002 97.07C84.0402 97.51 83.4352 98.005 82.9402 98.665C82.7202 98.995 82.5002 99.38 82.5002 99.875C82.4452 100.315 82.7202 100.81 83.2152 101.03C84.2052 101.415 85.1952 100.865 85.8002 100.205C86.3502 99.545 86.6252 98.72 86.8452 97.95C86.9552 97.29 86.9552 96.685 86.9552 96.08C88.9902 94.925 91.0802 93.99 93.2252 93.11C93.2802 93.055 93.2252 92.835 93.1152 92.89ZM87.5602 89.15C87.8902 88.105 90.2552 86.235 89.2652 88.38C88.8252 89.26 88.1102 89.975 87.2302 90.47C87.2852 90.03 87.3952 89.59 87.5602 89.15ZM85.6352 97.785C85.5252 98.445 85.3602 99.16 85.0302 99.655C84.7002 100.205 84.0402 100.645 83.4902 100.48C82.9402 100.315 82.9402 99.49 83.3252 98.885C83.7102 98.28 84.2602 97.785 84.9202 97.345C85.1402 97.18 85.4152 97.015 85.6352 96.905C85.6352 97.18 85.6352 97.51 85.6352 97.785ZM101.594 92.615C98.184 95.31 91.639 97.455 93.069 94.21C94.279 93.935 95.324 93.605 96.314 92.835C98.184 91.405 96.754 90.745 96.479 90.69C96.204 90.58 95.929 90.58 95.654 90.58C95.049 90.69 94.554 90.91 94.114 91.13C93.234 91.68 92.574 92.45 92.024 93.275C90.539 96.08 92.464 96.575 93.179 96.63C94.884 96.685 97.854 95.75 101.814 92.835C101.869 92.78 101.649 92.56 101.594 92.615ZM94.774 92.065C95.104 91.79 95.434 91.57 95.764 91.46C96.424 91.24 97.139 91.405 95.929 92.395C95.599 92.725 94.609 93.33 93.344 93.66C93.784 93.11 94.279 92.56 94.774 92.065ZM114.012 92.89C107.687 98.06 108.072 96.19 106.972 93.275C106.532 91.955 105.102 90.36 101.527 94.1C101.747 93.22 102.847 91.46 103.177 91.075C103.452 90.855 102.792 90.36 101.912 90.91C101.417 91.24 100.152 94.375 100.152 95.805C100.097 96.355 100.812 96.3 100.812 96.3C104.277 91.24 105.212 92.12 105.982 94.595C107.082 98.28 109.007 97.29 114.177 93.165C114.287 93.11 114.067 92.835 114.012 92.89ZM131.667 79.25C128.422 79.525 125.232 79.965 122.042 80.57H121.987C122.647 79.635 123.252 78.59 123.967 77.655C124.462 76.94 124.957 76.17 125.342 75.345C125.562 74.96 125.727 74.575 125.892 74.135C125.947 73.86 126.057 73.64 126.057 73.365C126.057 73.255 126.057 73.09 126.002 72.87C125.947 72.595 125.452 72.43 125.287 72.54C124.627 72.815 124.407 73.145 124.077 73.475C123.802 73.86 123.527 74.19 123.252 74.575C122.757 75.29 122.262 76.06 121.822 76.775C120.997 78.205 120.227 79.69 119.457 81.12C118.742 81.23 118.027 81.395 117.312 81.56C115.717 81.945 114.177 82.22 112.582 83.1C112.417 83.155 112.802 83.815 112.967 83.705L113.022 83.65C114.287 82.99 115.937 82.605 117.477 82.165C117.972 82.055 118.522 81.945 119.072 81.78C114.562 89.645 108.897 100.7 111.592 104.495C112.032 105.1 112.747 104.935 113.242 104.825C116.872 104 125.452 95.97 127.542 93.165C127.597 93.055 127.322 92.89 127.267 92.945C120.667 100.425 113.077 105.485 112.252 103.78C111.152 101.14 114.232 94.045 116.927 88.655C118.247 86.4 119.622 84.2 121.052 82C121.162 81.725 121.382 81.505 121.547 81.23C121.712 81.175 121.932 81.12 122.152 81.12C125.287 80.515 128.477 80.02 131.667 79.745C131.832 79.69 131.942 79.58 131.942 79.47C131.887 79.36 131.777 79.25 131.667 79.25ZM120.502 81.615C120.117 82.165 119.787 82.77 119.457 83.32C119.677 82.825 119.897 82.33 120.117 81.835C120.172 81.725 120.227 81.615 120.282 81.505C120.392 81.505 120.502 81.45 120.612 81.45C120.557 81.505 120.502 81.56 120.502 81.615ZM121.052 80.79C120.942 80.79 120.777 80.845 120.667 80.845C121.272 79.635 121.877 78.37 122.537 77.215C122.977 76.445 123.417 75.73 123.912 75.015C124.132 74.63 124.407 74.3 124.682 73.97C124.847 73.75 125.122 73.53 125.287 73.365C125.287 73.53 125.232 73.695 125.177 73.86C125.067 74.245 124.902 74.685 124.682 75.015C124.297 75.785 123.857 76.555 123.362 77.27C122.592 78.425 121.822 79.58 121.052 80.79ZM153.625 79.25C150.38 79.525 147.19 79.965 144 80.57H143.945C144.605 79.635 145.21 78.59 145.925 77.655C146.42 76.94 146.915 76.17 147.3 75.345C147.52 74.96 147.685 74.575 147.85 74.135C147.905 73.86 148.015 73.64 148.015 73.365C148.015 73.255 148.015 73.09 147.96 72.87C147.905 72.595 147.41 72.43 147.245 72.54C146.585 72.815 146.365 73.145 146.035 73.475C145.76 73.86 145.485 74.19 145.21 74.575C144.715 75.29 144.22 76.06 143.78 76.775C142.955 78.205 142.185 79.69 141.415 81.12C140.7 81.23 139.985 81.395 139.27 81.56C137.675 81.945 136.135 82.22 134.54 83.1C134.375 83.155 134.76 83.815 134.925 83.705L134.98 83.65C136.245 82.99 137.895 82.605 139.435 82.165C139.93 82.055 140.48 81.945 141.03 81.78C136.52 89.645 130.855 100.7 133.55 104.495C133.99 105.1 134.705 104.935 135.2 104.825C138.83 104 147.41 95.97 149.5 93.165C149.555 93.055 149.28 92.89 149.225 92.945C142.625 100.425 135.035 105.485 134.21 103.78C133.11 101.14 136.19 94.045 138.885 88.655C140.205 86.4 141.58 84.2 143.01 82C143.12 81.725 143.34 81.505 143.505 81.23C143.67 81.175 143.89 81.12 144.11 81.12C147.245 80.515 150.435 80.02 153.625 79.745C153.79 79.69 153.9 79.58 153.9 79.47C153.845 79.36 153.735 79.25 153.625 79.25ZM142.46 81.615C142.075 82.165 141.745 82.77 141.415 83.32C141.635 82.825 141.855 82.33 142.075 81.835C142.13 81.725 142.185 81.615 142.24 81.505C142.35 81.505 142.46 81.45 142.57 81.45C142.515 81.505 142.46 81.56 142.46 81.615ZM143.01 80.79C142.9 80.79 142.735 80.845 142.625 80.845C143.23 79.635 143.835 78.37 144.495 77.215C144.935 76.445 145.375 75.73 145.87 75.015C146.09 74.63 146.365 74.3 146.64 73.97C146.805 73.75 147.08 73.53 147.245 73.365C147.245 73.53 147.19 73.695 147.135 73.86C147.025 74.245 146.86 74.685 146.64 75.015C146.255 75.785 145.815 76.555 145.32 77.27C144.55 78.425 143.78 79.58 143.01 80.79ZM157.555 92.945C156.235 93.935 154.97 94.43 153.375 94.155C153.375 94.155 154.145 92.89 153.375 92.12C153.98 89.865 149.47 90.525 148.425 93C146.995 96.355 150.79 97.235 153.155 94.54C155.025 94.815 156.07 94.32 157.775 93.11C157.83 93.055 157.72 92.835 157.555 92.945ZM149.305 94.155C149.47 93 150.735 91.79 151.725 91.405C152.165 91.24 153.32 91.13 152.99 92.12C151.945 92.285 151.67 93.55 152.605 94.265C151.725 95.585 149.085 96.52 149.305 94.155ZM152.825 93.88C152.22 93.55 152.495 92.285 153.21 92.505C153.43 92.56 153.21 93.385 152.825 93.88ZM178.267 92.835C178.267 92.725 174.142 95.53 171.777 97.29C172.107 96.19 172.877 92.835 172.877 92.835C173.262 91.02 173.317 90.58 172.107 90.58C170.017 93.22 166.002 96.3 165.837 95.035C166.057 93.825 166.772 92.725 167.157 91.625H167.212C167.322 91.35 166.222 90.8 166.112 91.13C165.342 92.615 164.077 95.365 165.452 96.08C167.102 96.85 172.052 91.845 172.052 91.845C171.997 92.065 170.237 98.115 170.127 98.5C164.132 102.9 158.137 109.775 157.422 114.285C156.872 117.695 160.282 117.365 161.877 116.265C163.032 115.495 164.022 114.505 164.847 113.405C166.442 111.15 167.597 108.675 168.642 106.255C169.632 103.835 170.787 100.755 171.502 98.28C173.757 96.245 178.377 93.11 178.377 93.11C178.377 93.11 178.322 92.89 178.267 92.835ZM167.487 105.76C166.497 108.18 165.287 110.545 163.857 112.69C163.142 113.735 162.702 114.45 161.712 115.165C159.347 117.035 157.422 116.265 158.852 112.69C160.007 109.665 164.077 104.11 169.797 99.545C169.137 101.415 168.202 103.89 167.487 105.76ZM186.141 92.945C184.821 93.935 183.556 94.43 181.961 94.155C181.961 94.155 182.731 92.89 181.961 92.12C182.566 89.865 178.056 90.525 177.011 93C175.581 96.355 179.376 97.235 181.741 94.54C183.611 94.815 184.656 94.32 186.361 93.11C186.416 93.055 186.306 92.835 186.141 92.945ZM177.891 94.155C178.056 93 179.321 91.79 180.311 91.405C180.751 91.24 181.906 91.13 181.576 92.12C180.531 92.285 180.256 93.55 181.191 94.265C180.311 95.585 177.671 96.52 177.891 94.155ZM181.411 93.88C180.806 93.55 181.081 92.285 181.796 92.505C182.016 92.56 181.796 93.385 181.411 93.88ZM196.36 92.835C191.63 96.41 190.09 96.08 190.75 94.155C190.97 93.33 191.52 92.01 191.795 91.13C191.85 90.965 191.355 90.415 190.97 90.635C189.54 93.165 188.33 94.265 186.46 95.31C185.14 96.08 186.46 93.11 187.505 91.735C187.505 91.735 186.9 90.8 186.515 91.075C185.965 91.515 184.7 94.155 184.645 94.87C184.425 97.51 187.945 95.475 189.65 93.66C188.33 97.29 191.96 96.96 196.58 93.055C196.635 93 196.47 92.78 196.36 92.835ZM206.385 92.89C201.985 95.75 198.245 96.795 199.62 94.485C200.5 93.055 200.225 92.45 197.585 91.9C197.695 91.735 199.07 90.25 198.63 89.315C198.52 89.04 198.19 88.93 197.805 89.04C197.035 89.26 196.265 90.195 195.99 90.69C195.935 90.855 195.715 91.35 195.77 91.735C195.88 92.23 196.375 92.34 196.65 92.395C196.705 92.505 196.815 92.56 196.925 92.56C197.09 92.505 197.09 92.45 197.2 92.395C199.18 92.725 199.015 93.275 198.74 93.825C198.3 94.65 198.025 95.255 198.08 95.695C198.355 98.17 204.68 94.32 206.495 93.11H206.55C206.605 93.055 206.44 92.835 206.385 92.89ZM196.815 91.79C196.1 91.79 197.805 89.535 198.135 89.755C198.52 89.92 197.475 91.405 196.815 91.79ZM223.187 92.615C219.777 95.31 213.232 97.455 214.662 94.21C215.872 93.935 216.917 93.605 217.907 92.835C219.777 91.405 218.347 90.745 218.072 90.69C217.797 90.58 217.522 90.58 217.247 90.58C216.642 90.69 216.147 90.91 215.707 91.13C214.827 91.68 214.167 92.45 213.617 93.275C212.132 96.08 214.057 96.575 214.772 96.63C216.477 96.685 219.447 95.75 223.407 92.835C223.462 92.78 223.242 92.56 223.187 92.615ZM216.367 92.065C216.697 91.79 217.027 91.57 217.357 91.46C218.017 91.24 218.732 91.405 217.522 92.395C217.192 92.725 216.202 93.33 214.937 93.66C215.377 93.11 215.872 92.56 216.367 92.065ZM241.875 92.89C235.715 97.675 235.605 96.3 234.945 93.495C234.67 92.12 233.02 91.02 230.105 93.66C231.425 90.36 230.16 89.645 229.17 89.975C227.52 90.47 224.715 93.22 223.505 94.43C223.065 94.155 224.66 91.57 225.1 90.525C225.265 90.305 224.495 89.7 223.835 90.415C222.57 91.625 221.58 95.31 221.8 95.86C222.02 96.465 222.625 96.3 222.625 96.3C223.835 94.76 226.09 92.56 228.18 91.295C229.83 90.305 229.94 90.91 228.345 94.925C228.18 95.42 229.28 95.475 229.28 95.475C232.25 91.625 233.515 92.45 233.79 94.1C234.505 97.95 236.925 97.29 242.095 93.11C242.15 93.055 241.985 92.835 241.875 92.89ZM253.876 92.89C247.826 96.575 245.736 96.74 248.101 91.295C248.101 91.13 247.661 90.8 247.551 90.69C247.386 90.58 247.111 90.58 247.001 90.8C246.891 90.91 246.781 91.02 246.671 91.13C245.351 90.36 243.591 91.075 242.436 91.955C241.831 92.395 241.281 92.945 240.786 93.55C240.566 93.88 240.346 94.155 240.126 94.54C239.521 96.025 240.291 96.52 241.391 96.135C242.216 95.86 243.756 94.65 244.306 94.21C245.021 93.55 245.736 92.945 246.451 92.285C244.581 96.685 246.506 97.84 254.041 93.165C254.096 93.11 253.986 92.835 253.876 92.89ZM243.921 93.715C243.371 94.155 242.821 94.54 242.216 94.925C241.941 95.09 241.611 95.255 241.336 95.31C241.281 95.31 241.281 95.31 241.281 95.31C241.281 95.255 241.336 95.145 241.391 95.09C241.501 94.815 241.666 94.54 241.831 94.265C242.216 93.77 242.656 93.22 243.151 92.78C244.031 91.955 245.186 91.24 246.396 91.405C245.626 92.23 244.801 93 243.921 93.715ZM260.547 92.945C257.907 94.705 254.607 96.355 253.947 95.31C253.892 94.98 254.002 94.43 254.167 93.935C254.497 92.945 254.772 92.615 255.322 91.68C255.322 91.625 255.322 91.625 255.377 91.57C255.487 91.24 254.827 89.7 254.002 91.13C253.452 92.12 253.232 92.615 252.957 93.825C252.627 94.98 252.902 96.19 254.112 96.3C255.267 96.41 257.962 95.145 260.712 93.165C260.822 93.11 260.657 92.89 260.547 92.945ZM256.752 88.82C256.807 88.655 256.697 87.83 256.312 88.215C255.872 88.6 255.102 88.985 254.992 89.205C254.827 89.645 256.642 89.37 256.752 88.82ZM273.39 93.165C273.445 93.11 273.225 92.89 273.17 92.945C262.005 104.055 259.145 101.195 261.235 92.89C269.32 82.66 273.39 76.555 273.94 73.145C274.105 71.935 272.675 70.78 269.815 73.915C267.505 76.39 265.69 79.305 264.095 82.33C262.5 85.355 261.125 88.545 260.19 91.845C257.55 101.25 260.795 106.365 273.39 93.165ZM270.31 74.41C270.97 73.585 271.685 72.925 272.015 72.705C272.62 72.32 273.445 72.32 273.335 73.035C272.675 77.05 266.02 85.795 261.51 91.515C263.38 84.475 268.275 76.995 270.31 74.41ZM293.601 92.89C287.551 96.575 285.461 96.74 287.826 91.295C287.826 91.13 287.386 90.8 287.276 90.69C287.111 90.58 286.836 90.58 286.726 90.8C286.616 90.91 286.506 91.02 286.396 91.13C285.076 90.36 283.316 91.075 282.161 91.955C281.556 92.395 281.006 92.945 280.511 93.55C280.291 93.88 280.071 94.155 279.851 94.54C279.246 96.025 280.016 96.52 281.116 96.135C281.941 95.86 283.481 94.65 284.031 94.21C284.746 93.55 285.461 92.945 286.176 92.285C284.306 96.685 286.231 97.84 293.766 93.165C293.821 93.11 293.711 92.835 293.601 92.89ZM283.646 93.715C283.096 94.155 282.546 94.54 281.941 94.925C281.666 95.09 281.336 95.255 281.061 95.31C281.006 95.31 281.006 95.31 281.006 95.31C281.006 95.255 281.061 95.145 281.116 95.09C281.226 94.815 281.391 94.54 281.556 94.265C281.941 93.77 282.381 93.22 282.876 92.78C283.756 91.955 284.911 91.24 286.121 91.405C285.351 92.23 284.526 93 283.646 93.715ZM322.877 72.76C322.822 72.65 322.712 72.43 322.602 72.32C322.492 72.265 322.327 72.155 322.217 72.1C321.557 71.88 321.007 72.21 320.677 72.485C320.292 72.705 320.017 73.035 319.742 73.365C319.192 73.97 318.752 74.685 318.312 75.345C316.662 78.095 315.287 81.01 314.077 83.925C313.307 85.905 312.592 87.885 311.877 89.865C311.492 90.415 311.052 90.91 310.667 91.405C310.117 90.855 309.402 90.525 308.632 90.525C307.697 90.525 306.817 90.91 306.157 91.35C304.782 92.285 303.407 93.495 302.912 95.31C302.857 95.805 302.747 96.465 303.297 97.07C303.902 97.565 305.497 97.565 307.147 96.08C309.017 94.43 310.392 93.055 311.107 92.065C310.997 92.34 306.982 110.105 320.842 93.11C320.787 93.055 320.732 93 320.622 92.945C307.257 108.895 312.812 90.635 313.362 89.315C314.407 87.94 315.507 86.51 316.497 85.08C318.312 82.495 320.072 79.8 321.557 76.995C321.887 76.28 322.217 75.51 322.547 74.74C322.657 74.355 322.822 73.97 322.877 73.53C322.932 73.31 322.932 73.09 322.877 72.76ZM310.062 92.12C309.017 93.275 307.037 95.53 304.837 96.3C304.562 96.41 303.847 96.74 304.177 95.64C304.562 94.43 305.607 93.165 306.817 92.34C307.862 91.515 309.567 90.635 310.282 91.845C310.172 91.955 310.117 92.01 310.062 92.12ZM321.832 74.52C321.557 75.235 321.227 75.95 320.842 76.61C318.972 80.075 316.827 83.32 314.517 86.51C314.792 85.85 315.067 85.135 315.342 84.475C316.607 81.56 317.762 78.645 319.302 75.95C319.687 75.235 320.072 74.575 320.512 73.97C320.952 73.42 321.612 72.815 321.887 72.925C322.217 72.815 322.052 73.86 321.832 74.52ZM309.182 77.655C310.062 75.4 308.577 74.135 306.652 76.335C305.057 78.095 302.032 83.87 300.162 89.865C299.722 90.36 298.787 91.46 298.402 91.955C295.597 88.655 290.537 94.265 292.572 95.915C294.552 97.455 298.952 92.56 299.337 92.065C299.282 92.23 298.127 97.84 299.887 99.545C300.162 99.545 299.997 99.545 300.162 99.325C298.842 97.07 301.317 90.085 301.647 89.37C304.012 86.62 308.302 79.91 309.182 77.655ZM308.852 75.895C309.677 76.775 304.397 84.75 302.032 87.83C302.307 87.17 307.642 74.685 308.852 75.895ZM297.797 92.67C296.697 93.77 292.847 96.52 293.067 95.2C293.287 93.935 296.752 90.03 297.962 92.395C297.907 92.505 297.852 92.56 297.797 92.67ZM331.373 92.89C326.973 95.75 323.233 96.795 324.608 94.485C325.488 93.055 325.213 92.45 322.573 91.9C322.683 91.735 324.058 90.25 323.618 89.315C323.508 89.04 323.178 88.93 322.793 89.04C322.023 89.26 321.253 90.195 320.978 90.69C320.923 90.855 320.703 91.35 320.758 91.735C320.868 92.23 321.363 92.34 321.638 92.395C321.693 92.505 321.803 92.56 321.913 92.56C322.078 92.505 322.078 92.45 322.188 92.395C324.168 92.725 324.003 93.275 323.728 93.825C323.288 94.65 323.013 95.255 323.068 95.695C323.343 98.17 329.668 94.32 331.483 93.11H331.538C331.593 93.055 331.428 92.835 331.373 92.89ZM321.803 91.79C321.088 91.79 322.793 89.535 323.123 89.755C323.508 89.92 322.463 91.405 321.803 91.79ZM339.828 92.615C336.418 95.31 329.873 97.455 331.303 94.21C332.513 93.935 333.558 93.605 334.548 92.835C336.418 91.405 334.988 90.745 334.713 90.69C334.438 90.58 334.163 90.58 333.888 90.58C333.283 90.69 332.788 90.91 332.348 91.13C331.468 91.68 330.808 92.45 330.258 93.275C328.773 96.08 330.698 96.575 331.413 96.63C333.118 96.685 336.088 95.75 340.048 92.835C340.103 92.78 339.883 92.56 339.828 92.615ZM333.008 92.065C333.338 91.79 333.668 91.57 333.998 91.46C334.658 91.24 335.373 91.405 334.163 92.395C333.833 92.725 332.843 93.33 331.578 93.66C332.018 93.11 332.513 92.56 333.008 92.065ZM353.236 93.11C353.236 93.11 353.236 92.945 353.181 92.945C351.751 93.165 350.046 93.55 348.836 93.935C348.726 93.605 348.616 93.33 348.506 93.11C348.231 92.56 347.626 91.68 347.461 91.405C349.166 91.02 349.166 90.47 348.946 90.25C348.231 89.535 345.866 90.085 346.306 91.515C345.866 91.68 346.251 91.735 346.361 91.735C346.416 91.79 346.471 91.845 346.471 91.9C346.746 92.285 346.911 92.615 347.076 92.945C344.986 93.715 342.896 94.595 340.916 95.695C340.971 94.925 340.971 94.21 340.971 93.44C341.026 92.56 341.026 91.68 341.136 90.855C342.126 90.305 343.006 89.59 343.556 88.655C344.106 87.665 343.996 86.51 342.401 87.225C341.411 87.72 340.036 88.985 339.871 91.075C339.816 91.13 339.761 91.13 339.706 91.13C339.651 91.185 339.596 91.295 339.596 91.35C339.651 91.405 339.706 91.46 339.816 91.46C339.816 91.46 339.816 91.46 339.816 91.405C339.706 92.12 339.596 95.475 339.596 96.52C339.266 96.685 338.936 96.905 338.661 97.125C338.001 97.565 337.396 98.115 336.901 98.775C336.681 99.105 336.461 99.49 336.461 99.93C336.406 100.37 336.681 100.92 337.176 101.085C338.166 101.47 339.156 100.92 339.761 100.26C340.311 99.6 340.586 98.775 340.806 98.005C340.916 97.345 340.916 96.74 340.916 96.135C342.951 95.035 345.041 94.045 347.186 93.165C347.186 93.165 347.186 93.165 347.186 93.11C347.406 93.55 347.571 93.88 347.736 94.265C341.081 97.18 343.116 98.885 346.141 97.895C348.891 97.015 349.276 95.53 348.946 94.21C350.431 93.715 351.751 93.385 353.236 93.11ZM341.521 89.205C341.851 88.16 344.216 86.29 343.226 88.49C342.786 89.315 342.071 90.03 341.191 90.525C341.246 90.085 341.356 89.645 341.521 89.205ZM339.596 97.84C339.541 98.5 339.376 99.215 338.991 99.765C338.661 100.26 338.001 100.7 337.451 100.535C336.901 100.37 336.901 99.545 337.286 98.995C337.671 98.335 338.221 97.84 338.881 97.4C339.101 97.235 339.376 97.125 339.596 96.96C339.596 97.235 339.596 97.565 339.596 97.84ZM347.901 90.305C349.386 90.03 348.396 90.855 347.351 91.13C347.076 90.745 347.461 90.36 347.901 90.305ZM343.831 97.455C343.336 97.18 346.526 95.255 347.846 94.705C348.176 96.74 344.326 97.785 343.831 97.455ZM356.289 94.705C356.014 94.595 355.629 94.485 355.244 95.585C354.859 96.575 356.179 96.74 356.729 95.64C356.894 95.255 356.674 94.87 356.289 94.705Z" fill="black"/>
</svg>
