<svg width="51" height="50" viewBox="0 0 51 50" fill="none" xmlns="http://www.w3.org/2000/svg">
<path d="M30.399 0C27.0982 0 24.399 2.69922 24.399 6C24.399 9.30078 27.0982 12 30.399 12C33.6998 12 36.399 9.30078 36.399 6C36.399 2.69922 33.6998 0 30.399 0ZM30.399 2C32.6216 2 34.399 3.77734 34.399 6C34.399 8.22266 32.6216 10 30.399 10C28.1763 10 26.399 8.22266 26.399 6C26.399 3.77734 28.1763 2 30.399 2ZM37.9927 10.9688C37.3208 10.9805 36.6412 11.0977 35.9927 11.375V11.4062L32.0865 13.1875C30.9419 13.6953 30.1998 14.5859 29.649 15.4688V15.5L20.399 30.9062C18.6333 31.9492 17.399 33.793 17.399 36V39.5625L13.9615 43H3.99272C2.231 43 0.543504 44.25 0.398973 46.125C0.262254 48.1484 1.82085 50 3.89897 50H16.5865C17.3521 50 18.1333 49.6719 18.7115 49.0938L24.8365 43H38.399V50H50.399V48H40.399V32H50.399V29.7812L50.3052 29.5625L42.8052 14C42.8013 13.9922 42.8091 13.9766 42.8052 13.9688H42.774C41.9224 12.0273 39.9966 10.9375 37.9927 10.9688ZM38.0552 12.9375C38.4693 12.9297 38.8638 13.0156 39.2427 13.1562C40.0044 13.4375 40.6529 13.9922 40.9927 14.7812V14.8438L48.274 30H36.2427L33.3052 23.5938L32.524 21.8438L31.5552 23.5L27.649 30H23.399C23.3443 30 23.2974 30.0312 23.2427 30.0312L31.3365 16.5312C31.3443 16.5156 31.3599 16.5156 31.3677 16.5C31.8091 15.8047 32.2583 15.2852 32.899 15H32.9302L36.8052 13.2188C37.2076 13.0469 37.6412 12.9453 38.0552 12.9375ZM32.274 26.125L34.024 30H29.9615L32.274 26.125ZM10.399 30C7.09819 30 4.39897 32.6992 4.39897 36C4.39897 39.3008 7.09819 42 10.399 42C13.6998 42 16.399 39.3008 16.399 36C16.399 32.6992 13.6998 30 10.399 30ZM10.399 32C12.6216 32 14.399 33.7773 14.399 36C14.399 38.2227 12.6216 40 10.399 40C8.17632 40 6.39897 38.2227 6.39897 36C6.39897 33.7773 8.17632 32 10.399 32ZM23.399 32H38.399V41H23.9927L23.6802 41.2812L17.3052 47.6875C17.0826 47.9102 16.8208 48 16.5865 48H3.89897C2.9771 48 2.33257 47.2578 2.39897 46.2812C2.45366 45.5547 3.15288 45 3.99272 45H14.8052L15.1177 44.7188L19.1177 40.7188L19.399 40.4062V36C19.399 33.7227 21.1216 32 23.399 32Z" fill="black"/>
</svg>
