<svg width="38" height="41" viewBox="0 0 38 41" fill="none" xmlns="http://www.w3.org/2000/svg">
<path d="M20.2392 0.839844C18.8578 0.839844 17.7192 1.97844 17.7192 3.35984V12.5998C17.7192 13.9812 18.8578 15.1198 20.2392 15.1198H22.0866C22.1456 15.3561 22.1883 15.4316 22.2408 15.8548C22.3359 16.6095 22.3031 17.5152 22.0078 18.1025C21.8766 18.365 21.893 18.6734 22.0439 18.9228C22.1981 19.1689 22.4672 19.3198 22.7592 19.3198C24.4852 19.3198 25.6927 18.0041 26.49 16.8622C27.1036 15.9861 27.2939 15.4775 27.4481 15.1198H34.5192C35.9006 15.1198 37.0392 13.9812 37.0392 12.5998V3.35984C37.0392 1.97844 35.9006 0.839844 34.5192 0.839844H20.2392ZM20.2392 2.51984H34.5192C34.995 2.51984 35.3592 2.88406 35.3592 3.35984V12.5998C35.3592 13.0756 34.995 13.4398 34.5192 13.4398H26.9592C26.6147 13.4398 26.3062 13.6498 26.1816 13.9681C26.1816 13.9681 25.7878 14.9394 25.1184 15.8975C24.7739 16.3864 24.3703 16.8228 23.9536 17.1411C23.993 16.6062 23.9634 16.0944 23.9077 15.6448C23.7928 14.7195 23.5566 14.0141 23.5566 14.0141C23.4417 13.6695 23.1202 13.4398 22.7592 13.4398H20.2392C19.7634 13.4398 19.3992 13.0756 19.3992 12.5998V3.35984C19.3992 2.88406 19.7634 2.51984 20.2392 2.51984ZM16.0392 4.19328C12.4528 4.19328 10.1264 5.80437 9.18141 8.23906C8.28234 10.5523 8.52516 13.4661 9.26672 16.5406C8.86969 16.9541 8.47922 17.5316 8.47594 18.4766C8.46937 19.5889 8.85 20.4486 9.35531 20.9966C9.64406 21.3083 9.95578 21.3444 10.2609 21.4822C10.32 22.3255 10.4644 23.1786 10.7695 23.9103C11.0452 24.5764 11.4291 25.0325 11.8359 25.4755C11.8359 26.5484 11.8425 27.3786 11.8359 28.4286C11.5078 29.1341 10.8319 29.705 9.80484 30.2431C8.73844 30.8075 7.36687 31.3128 5.99203 31.9461C4.61391 32.5794 3.21281 33.3537 2.10047 34.535C0.988125 35.7162 0.200625 37.3273 0.0759375 39.4273L0.0234375 40.3231H33.735L33.6825 39.4273C33.5578 37.3273 32.7703 35.7162 31.6547 34.5317C30.5391 33.3505 29.138 32.5794 27.7566 31.9428C26.3752 31.3062 25.0069 30.8042 23.9405 30.2398C22.9167 29.7017 22.2441 29.1308 21.9225 28.4319C21.9127 27.3031 21.9225 26.4697 21.9225 25.4098C22.3294 24.98 22.7198 24.5337 22.9856 23.9825C23.34 23.2475 23.6025 22.5519 23.6025 21.8398C23.6025 21.3739 23.2252 20.9966 22.7592 20.9966C22.2933 20.9966 21.9159 21.3739 21.9159 21.8398C21.9159 21.9678 21.7453 22.6602 21.4631 23.2508C21.1809 23.8414 20.7511 24.3959 20.5903 24.5141L20.2359 24.7667V25.1998C20.2359 26.4402 20.2162 27.2966 20.2359 28.678L20.2392 28.8355L20.295 28.9798C20.82 30.2759 21.9323 31.093 23.153 31.7361C24.3703 32.3759 25.755 32.8812 27.0511 33.4784C28.3472 34.0723 29.5481 34.7614 30.4242 35.69C31.1264 36.4348 31.5628 37.4159 31.7958 38.6366H1.96266C2.19234 37.4159 2.63203 36.4348 3.32766 35.69C4.20375 34.7614 5.40141 34.0756 6.69422 33.4817C7.99031 32.8845 9.37172 32.3825 10.5923 31.7394C11.8162 31.0962 12.9286 30.2792 13.4602 28.9831L13.5192 28.8355L13.5225 28.6747C13.5389 27.4114 13.5225 26.5484 13.5225 25.3048V24.8783L13.178 24.6256C13.073 24.5469 12.6234 23.9694 12.3281 23.2606C12.0361 22.5552 11.8294 21.702 11.8425 21.013L11.8556 20.2255L11.0681 20.1598C11.1272 20.1631 10.8122 20.0877 10.5956 19.8514C10.3791 19.6152 10.1592 19.2345 10.1625 18.4831C10.1691 17.7711 10.4939 17.5841 10.6022 17.5184L11.1305 17.1936L10.9762 16.5898C10.1822 13.512 10.0312 10.7098 10.7531 8.84937C11.4783 6.98891 12.9056 5.88641 16.0392 5.88641C16.5052 5.88641 16.8858 5.50578 16.8858 5.03984C16.8858 4.57391 16.5052 4.19328 16.0392 4.19328ZM22.7592 5.03984V6.71984H28.6392V5.03984H22.7592ZM30.3192 5.03984V6.71984H32.8392V5.03984H30.3192ZM22.7592 9.23984V10.9198H25.2792V9.23984H22.7592ZM26.9592 9.23984V10.9198H32.8392V9.23984H26.9592Z" fill="black"/>
</svg>

