<svg width="26" height="50" viewBox="0 0 26 50" fill="none" xmlns="http://www.w3.org/2000/svg">
<path d="M8.42934 0.0623947C8.13637 0.0780197 7.84341 0.144426 7.55434 0.281145C6.98012 0.554583 6.44887 1.03896 5.89809 1.78114C5.51528 2.29677 4.37856 3.94521 3.24184 5.65615C2.67153 6.51161 2.12856 7.37099 1.67934 8.09365C1.23012 8.8163 0.929342 9.30068 0.741842 9.78115C0.448873 10.5351 0.585592 11.2655 0.804342 11.8436C1.02309 12.4218 1.31606 12.914 1.52309 13.3124C3.17544 16.4843 6.06216 20.2226 6.39809 20.6561V28.6561C6.39809 30.7733 6.36684 35.746 6.36684 37.7811C6.36684 38.1991 6.45278 38.7421 6.55434 39.4999C6.65591 40.2577 6.78091 41.1874 6.92934 42.1249C7.23012 43.9999 7.57778 45.9374 7.80434 46.8749C8.08559 48.0311 8.50747 48.828 9.08559 49.3437C9.66372 49.8593 10.3786 49.9999 10.8668 49.9999C11.652 49.9999 12.4215 49.4608 12.7731 48.7499C13.1247 48.039 13.2301 47.1991 13.2106 46.1561C13.1793 44.5311 12.9801 42.5311 12.8043 40.7811C12.7848 40.5702 12.7926 40.5507 12.7731 40.3436C13.1481 40.871 13.8317 41.1327 14.4918 41.1249C15.1676 41.1132 15.8942 40.8788 16.7418 40.4374C17.5778 39.9999 18.82 39.0858 20.2106 38.0311C21.6012 36.9765 23.0856 35.8124 24.1168 34.9999C24.5153 34.6874 24.9958 34.2069 25.2418 33.4374C25.4879 32.6679 25.3317 31.5741 24.5856 30.7499C22.0543 27.953 19.0778 26.2929 18.3356 25.8749C18.3473 23.3671 18.4215 22.0585 18.4293 20.8436C18.6168 20.5546 20.984 16.914 22.4918 13.6561C22.859 12.8671 23.1325 12.2108 23.2731 11.5311C23.4137 10.8515 23.3473 10.1171 23.0231 9.46865C22.3083 8.03505 19.5036 2.82021 18.8356 1.74989C18.8239 1.74989 18.8161 1.74989 18.8043 1.74989C18.484 1.24208 18.0817 0.745989 17.5231 0.406145C17.2458 0.238176 16.9176 0.10927 16.5543 0.0623947C16.1911 0.0155197 15.7965 0.0545822 15.4293 0.218645C14.359 0.70302 14.0739 1.99599 14.7418 3.40615C14.9372 3.82021 15.7145 5.3163 16.5231 6.96865C16.9254 7.79286 17.3317 8.60927 17.6168 9.28115C17.7614 9.61708 17.8551 9.91005 17.9293 10.1249C17.9723 10.2538 17.9801 10.3866 17.9918 10.4374C17.984 10.4804 17.9801 10.5311 17.9606 10.5936C17.902 10.7733 17.8278 11.0272 17.7106 11.3124C17.5622 11.6718 17.3317 12.1288 17.1168 12.5624C17.2848 12.0663 17.3981 11.5507 17.3981 10.9999C17.3981 8.2499 15.1481 5.9999 12.3981 5.9999C9.64809 5.9999 7.39809 8.2499 7.39809 10.9999C7.39809 13.7499 9.64809 15.9999 12.3981 15.9999C14.0309 15.9999 15.484 15.1874 16.3981 13.9686C16.1715 14.3983 15.945 14.8554 15.7418 15.1874C15.5856 15.4491 15.445 15.664 15.3356 15.8124C15.3043 15.8554 15.2731 15.8749 15.2418 15.9061C15.1637 15.9061 14.8708 15.9921 14.4918 15.9999C13.9372 16.0155 13.2028 15.9999 12.3981 15.9999C11.6012 15.9999 10.7965 15.9999 10.1793 15.9686C9.87075 15.953 9.61294 15.9335 9.46059 15.9061C9.42153 15.8983 9.42153 15.8866 9.39809 15.8749C9.14028 15.5624 8.60903 14.7186 8.11684 13.8124C7.58169 12.8319 7.06606 11.8358 6.64809 11.1874C6.48794 10.9413 6.4645 10.8241 6.46059 10.7811C6.45669 10.7382 6.43716 10.6952 6.52309 10.4999C6.56606 10.3983 6.86294 9.85536 7.21059 9.21865C7.55825 8.58193 7.99966 7.79677 8.42934 7.03115C8.85903 6.26552 9.28481 5.50771 9.61684 4.90615C9.94887 4.30458 10.1247 4.01161 10.2731 3.65615C10.5661 2.94521 10.4489 2.35146 10.3043 1.78114C10.234 1.49599 10.1598 1.22255 10.0231 0.968645C9.88637 0.714739 9.76137 0.402239 9.24184 0.187395C9.00747 0.0897385 8.72231 0.0467697 8.42934 0.0623947ZM16.4918 2.12489C16.6793 2.23818 16.9293 2.51552 17.1168 2.81239C17.5309 3.47646 20.609 9.08193 21.2418 10.3436C21.3708 10.6015 21.3825 10.7577 21.3043 11.1249C21.2262 11.4921 21.0309 12.0546 20.6793 12.8124C19.2184 15.9686 16.5856 20.0311 16.5856 20.0311C16.4801 20.1991 16.4254 20.3944 16.4293 20.5936C16.4293 21.9296 16.3356 23.0936 16.3356 26.4061C16.3395 26.7733 16.5426 27.1093 16.8668 27.2811C16.8668 27.2811 20.5426 29.2811 23.0856 32.0936C23.4372 32.4843 23.4059 32.5976 23.3356 32.8124C23.2653 33.0272 23.0114 33.3241 22.8668 33.4374C21.8395 34.2499 20.3629 35.3983 18.9918 36.4374C17.6208 37.4765 16.2809 38.4374 15.8043 38.6874C15.1598 39.0272 14.7106 39.1171 14.4918 39.1249C14.4801 39.0546 14.445 38.9999 14.4606 38.9061C14.4997 38.6444 14.6325 38.3632 14.6793 38.3124C15.402 37.5351 18.2145 34.8436 18.8668 34.2499V34.2186C19.0309 34.0702 19.2028 33.914 19.3356 33.6874C19.4762 33.453 19.5856 33.0936 19.4918 32.7186C19.3981 32.3436 19.1793 32.0858 18.9918 31.9374C18.8043 31.789 18.6208 31.7147 18.4293 31.6249C16.6715 30.789 12.7731 29.1249 12.7731 29.1249C12.4879 29.0077 12.1637 29.0272 11.8942 29.1796C11.6247 29.3319 11.4411 29.6015 11.3981 29.9061C11.3981 29.9061 11.1637 31.328 10.9293 32.9374C10.695 34.5468 10.4528 36.2538 10.4606 37.2186C10.4645 37.9101 10.6598 39.2343 10.8356 40.9686C11.0114 42.703 11.1793 44.7186 11.2106 46.2186C11.2262 47.0897 11.0973 47.6561 10.9918 47.8749C10.8864 48.0937 10.9997 47.9999 10.8668 47.9999C10.7106 47.9999 10.6051 47.9999 10.4293 47.8436C10.2536 47.6874 9.96059 47.2733 9.74184 46.3749C9.55825 45.6132 9.19106 43.664 8.89809 41.8124C8.74966 40.8866 8.62075 39.9804 8.52309 39.2499C8.42544 38.5194 8.36684 37.8905 8.36684 37.7811C8.36684 35.7577 8.39809 30.7851 8.39809 28.6561V20.3124C8.39809 20.0858 8.31997 19.8632 8.17934 19.6874C8.17934 19.6874 4.88637 15.4452 3.30434 12.4061C3.05825 11.9374 2.80825 11.4999 2.67934 11.1561C2.55044 10.8124 2.53872 10.6171 2.58559 10.4999C2.60122 10.4647 2.93325 9.85146 3.36684 9.15615C3.80044 8.46083 4.36684 7.59755 4.92934 6.7499C6.05434 5.05849 7.24184 3.34365 7.52309 2.96864C7.90591 2.45302 8.17544 2.28114 8.33559 2.18739C8.34341 2.21474 8.35903 2.22255 8.36684 2.24989C8.44497 2.55849 8.402 2.97646 8.42934 2.90614C8.47231 2.80458 8.19497 3.34365 7.86684 3.9374C7.53872 4.53115 7.10903 5.29286 6.67934 6.0624C6.24966 6.83193 5.81606 7.60146 5.46059 8.2499C5.10512 8.89833 4.85512 9.38661 4.71059 9.71865C4.54653 10.0936 4.41372 10.5351 4.46059 10.9999C4.50747 11.4647 4.70278 11.8866 4.96059 12.2811C5.24966 12.7265 5.78091 13.7655 6.33559 14.7811C6.88247 15.789 7.43716 16.7186 8.08559 17.3749V17.4061C8.4645 17.7733 8.78091 17.8163 9.08559 17.8749C9.39809 17.9335 9.72622 17.953 10.0856 17.9686C10.8004 18.0038 11.6207 17.9999 12.3981 17.9999C13.1637 17.9999 13.9098 18.0155 14.5543 17.9999C15.1989 17.9843 15.6989 18.0624 16.3668 17.5936C16.6676 17.3827 16.7653 17.2226 16.9293 16.9999C17.0934 16.7772 17.2809 16.5116 17.4606 16.2186C17.8161 15.6327 18.1833 14.9179 18.5543 14.1874C18.9254 13.4569 19.2926 12.7304 19.5543 12.0936C19.6872 11.7733 19.7848 11.4843 19.8668 11.2186C19.9489 10.953 20.0231 10.7538 20.0231 10.4061C20.0231 10.0155 19.9372 9.79677 19.8356 9.4999C19.734 9.20302 19.6168 8.86318 19.4606 8.4999C19.152 7.76943 18.7458 6.9374 18.3356 6.09365C17.5114 4.41005 16.6051 2.66786 16.5543 2.56239C16.4293 2.29677 16.4762 2.22255 16.4918 2.12489ZM12.3981 7.9999C14.0661 7.9999 15.3981 9.33193 15.3981 10.9999C15.3981 12.6679 14.0661 13.9999 12.3981 13.9999C10.7301 13.9999 9.39809 12.6679 9.39809 10.9999C9.39809 9.33193 10.7301 7.9999 12.3981 7.9999ZM13.2106 31.4999C14.1832 31.914 15.695 32.5507 17.0856 33.1874C16.1012 34.1015 14.0465 36.0702 13.2418 36.9374C12.8278 37.3827 12.6832 37.9061 12.5856 38.4061C12.5543 38.0585 12.4606 37.2694 12.4606 37.1874C12.4567 36.6561 12.6989 34.8046 12.9293 33.2186C13.0622 32.3085 13.1207 32.0585 13.2106 31.4999Z" fill="black"/>
</svg>
