<svg width="45" height="46" viewBox="0 0 45 46" fill="none" xmlns="http://www.w3.org/2000/svg">
<path d="M22.3968 0.919922C20.8181 0.919922 19.5168 2.22117 19.5168 3.79992V4.75992H3.1968C3.1668 4.75992 3.1368 4.75992 3.1068 4.75992C2.6118 4.80492 2.23305 5.22117 2.2368 5.71992V23.9599C2.2368 24.4887 2.66805 24.9199 3.1968 24.9199H19.5168V39.3499L19.9068 39.6199C19.9068 39.6199 20.2106 39.8299 20.6268 39.9799C21.0431 40.1299 21.6318 40.2799 22.3968 40.2799C23.1618 40.2799 23.7506 40.1299 24.1668 39.9799C24.5831 39.8299 24.8868 39.6199 24.8868 39.6199L25.2768 39.3499V24.9199H41.5968C42.1255 24.9199 42.5568 24.4887 42.5568 23.9599V5.71992C42.5568 5.19117 42.1255 4.75992 41.5968 4.75992H25.2768V3.79992C25.2768 2.22117 23.9755 0.919922 22.3968 0.919922ZM22.3968 2.83992C22.9405 2.83992 23.3568 3.25617 23.3568 3.79992V4.75992H21.4368V3.79992C21.4368 3.25617 21.8531 2.83992 22.3968 2.83992ZM4.1568 6.67992H40.6368V22.9999H4.1568V6.67992ZM10.1868 10.3099C8.2068 10.3099 6.9168 11.3937 6.9168 13.0099C6.9168 14.3187 7.69305 15.1137 9.2568 15.4399L10.3668 15.6799C11.4206 15.9049 11.8368 16.2424 11.8368 16.7899C11.8368 17.4387 11.1806 17.8699 10.2468 17.8699C9.2343 17.8699 8.5293 17.4237 8.4468 16.7299H6.7068C6.7743 18.3274 8.11305 19.3399 10.1568 19.3399C12.3093 19.3399 13.6368 18.2787 13.6368 16.5499C13.6368 15.2187 12.9018 14.4837 11.1768 14.1199L10.1268 13.8799C9.1218 13.6662 8.7168 13.3887 8.7168 12.8599C8.7168 12.2074 9.32055 11.7799 10.2168 11.7799C11.0831 11.7799 11.6943 12.2412 11.7768 12.9199H13.4868C13.4343 11.3899 12.0768 10.3099 10.1868 10.3099ZM17.9868 10.5499L15.0168 19.1299H16.8168L17.4768 17.0599H20.4768L21.1368 19.1299H23.0868L20.1168 10.5499H17.9868ZM24.8568 10.5499V19.1299H30.4668V17.5399H26.6568V10.5499H24.8568ZM32.3868 10.5499V19.1299H38.0868V17.5699H34.1868V15.4999H37.8468V14.0899H34.1868V12.0799H38.0868V10.5499H32.3868ZM18.9468 12.3199H19.0368L20.1168 15.6799H17.8668L18.9468 12.3199ZM21.4368 24.9199H23.3568V38.2099C23.1355 38.2812 22.8656 38.3599 22.3968 38.3599C21.9281 38.3599 21.6618 38.2812 21.4368 38.2099V24.9199ZM6.8568 29.7199C6.54555 29.7837 6.29055 29.9974 6.1668 30.2899L0.406801 43.7299C0.275551 44.0262 0.301801 44.3674 0.478051 44.6412C0.654301 44.9112 0.954301 45.0762 1.2768 45.0799H43.5168C43.8393 45.0762 44.1393 44.9112 44.3155 44.6412C44.4918 44.3674 44.518 44.0262 44.3868 43.7299L38.6268 30.2899C38.473 29.9449 38.1318 29.7237 37.7568 29.7199H27.1968V31.6399H37.1268L42.0768 43.1599H2.7168L7.6668 31.6399H17.5968V29.7199H7.0368C7.0068 29.7199 6.9768 29.7199 6.9468 29.7199C6.9168 29.7199 6.8868 29.7199 6.8568 29.7199Z" fill="black"/>
</svg>
