<svg width="58" height="42" viewBox="0 0 58 42" fill="none" xmlns="http://www.w3.org/2000/svg">
<path d="M11.6897 0.924583C11.6407 0.93349 11.5917 0.946849 11.5472 0.960208C11.0173 1.08044 10.6432 1.55693 10.6566 2.10021V6.66021H6.09658C6.06096 6.66021 6.02533 6.66021 5.98971 6.66021C5.40189 6.71365 4.95213 7.20794 4.95658 7.80021V20.3402H3.81658C2.86807 20.3402 2.07096 20.7855 1.46533 21.3733C0.859706 21.9611 0.396581 22.7493 0.396581 23.689V27.0377C0.396581 28.4315 1.08236 29.9233 2.21346 31.4908C3.07736 32.6843 4.23072 33.851 5.63346 34.8396C4.90314 34.9821 4.19955 35.089 3.63846 35.089C2.9215 35.089 2.30697 35.0355 1.71471 34.9465C1.29611 34.844 0.859706 34.9865 0.579159 35.3116C0.298612 35.6367 0.227362 36.0954 0.392128 36.4917C0.556894 36.888 0.930956 37.1597 1.35846 37.1908C2.03088 37.2933 2.78346 37.369 3.63846 37.369C5.40189 37.369 7.86447 36.888 9.94408 35.5521C12.0281 36.9014 14.513 37.369 16.2853 37.369C18.0488 37.369 20.5113 36.888 22.591 35.5521C24.6706 36.888 27.1331 37.369 28.8966 37.369C30.66 37.369 33.1226 36.888 35.2022 35.5521C37.0502 36.7366 39.1744 37.2354 40.8666 37.3333C41.0447 37.4179 41.2406 37.4536 41.4366 37.4402C41.922 37.4402 42.3851 37.3779 42.8616 37.2621C44.4291 37.0795 46.2459 36.5852 47.8491 35.5521C49.9287 36.888 52.3913 37.369 54.1547 37.369C55.1388 37.369 55.9716 37.2176 56.6484 36.9771C57.2496 36.7589 57.5613 36.0998 57.3431 35.4986C57.1249 34.8975 56.4659 34.5858 55.8647 34.804C55.4149 34.9643 54.8939 35.089 54.1547 35.089C52.6629 35.089 50.2582 34.608 48.7041 33.4858C49.8931 32.3013 51.0509 30.9297 52.0885 29.4246C55.1299 25.0115 57.3966 19.6322 57.3966 15.2102C57.3966 14.5155 57.2897 13.7808 56.791 13.1796C56.2922 12.5784 55.4862 12.3602 54.7247 12.3602H43.7166C42.1669 12.3602 41.0091 12.7432 40.2253 13.3933C39.5707 13.9366 39.3703 14.52 38.9785 15.2458C38.5866 15.9717 38.1546 16.8222 37.6247 17.5971C36.5649 19.1423 35.3091 20.3402 33.4566 20.3402H16.3566V12.859L18.316 10.8996C18.5297 10.6814 18.6455 10.383 18.6366 10.0802V7.80021C18.6366 7.17232 18.1245 6.66021 17.4966 6.66021H12.9366V2.10021C12.9499 1.77068 12.8163 1.45451 12.5803 1.23185C12.3399 1.00474 12.0148 0.893411 11.6897 0.924583ZM7.23658 8.94021H16.3566V9.58146L14.3972 11.5408C14.1835 11.759 14.0677 12.0574 14.0766 12.3602V20.3402H7.23658V8.94021ZM43.7166 14.6402H54.7247C54.9162 14.6402 55.0097 14.6625 55.0453 14.6758C55.0186 14.6447 55.1166 14.7649 55.1166 15.2102C55.1166 18.8083 53.0414 23.9829 50.2003 28.1065C48.7798 30.1683 47.1633 31.9807 45.6047 33.2365C44.4736 34.1449 43.3781 34.755 42.4341 35.0177C42.1135 35.0489 41.7795 35.089 41.5078 35.089C39.9626 35.089 37.4599 34.5947 35.9147 33.379C35.4961 33.045 34.9083 33.045 34.4897 33.379C32.9489 34.5947 30.4418 35.089 28.8966 35.089C27.3513 35.089 24.8487 34.5947 23.3035 33.379C22.8849 33.045 22.297 33.045 21.8785 33.379C20.3377 34.5947 17.8306 35.089 16.2853 35.089C14.7401 35.089 12.1974 34.5947 10.6566 33.379C10.4428 33.2097 10.1801 33.1207 9.90845 33.1296C9.67244 33.1429 9.44978 33.232 9.26721 33.379C9.00892 33.5838 8.71502 33.7486 8.4122 33.9133C8.3276 33.8421 8.22963 33.7797 8.1272 33.7352C6.43947 32.8179 5.01447 31.4508 4.06596 30.1371C3.11744 28.8234 2.67658 27.4741 2.67658 27.0377V23.689C2.67658 23.5732 2.78346 23.257 3.03283 23.0121C3.28221 22.7672 3.6251 22.6202 3.81658 22.6202H33.4566C36.3199 22.6202 38.2704 20.6965 39.5128 18.8796C40.1318 17.9711 40.6217 17.0627 41.0091 16.3502C41.3965 15.6377 41.7795 15.0944 41.686 15.1746C42.0556 14.8673 42.5098 14.6402 43.7166 14.6402ZM45.6047 18.4521C44.9011 18.4521 44.8566 18.8796 44.8566 18.8796V20.3758C44.8566 21.4223 46.0678 21.4802 46.0678 21.4802H48.3834C48.3834 21.4802 49.4166 21.4579 49.4166 20.4115V18.8796C49.4166 18.8796 49.3765 18.4521 48.6684 18.4521C47.9604 18.4521 47.8847 18.8796 47.8847 18.8796V19.7702C47.8847 19.7702 47.809 20.2333 47.1366 20.2333C46.4642 20.2333 46.3885 19.7702 46.3885 19.7702V18.8796C46.3885 18.8796 46.3127 18.4521 45.6047 18.4521ZM9.80158 37.6896C9.60564 37.7252 9.41861 37.8098 9.26721 37.939C7.72642 39.1547 5.18369 39.649 3.63846 39.649C2.9215 39.649 2.30697 39.5955 1.71471 39.5065C1.29611 39.404 0.859706 39.5465 0.579159 39.8716C0.298612 40.1967 0.227362 40.6554 0.392128 41.0517C0.556894 41.448 0.930956 41.7197 1.35846 41.7508C2.03088 41.8533 2.78346 41.929 3.63846 41.929C5.40189 41.929 7.86447 41.448 9.94408 40.1121C12.0281 41.4614 14.513 41.929 16.2853 41.929C18.0488 41.929 20.5113 41.448 22.591 40.1121C24.6706 41.448 27.1331 41.929 28.8966 41.929C30.66 41.929 33.1226 41.448 35.2022 40.1121C37.2818 41.448 39.7444 41.929 41.5078 41.929C43.2802 41.929 45.765 41.4614 47.8491 40.1121C49.9287 41.448 52.3913 41.929 54.1547 41.929C55.1388 41.929 55.9716 41.7775 56.6484 41.5371C57.2496 41.3189 57.5613 40.6598 57.3431 40.0586C57.1249 39.4575 56.4659 39.1458 55.8647 39.364C55.4149 39.5243 54.8939 39.649 54.1547 39.649C52.6095 39.649 50.0667 39.1547 48.526 37.939C48.1163 37.6228 47.5463 37.6228 47.1366 37.939C45.5958 39.1547 43.0531 39.649 41.5078 39.649C39.9626 39.649 37.4599 39.1547 35.9147 37.939C35.4961 37.605 34.9083 37.605 34.4897 37.939C32.9489 39.1547 30.4418 39.649 28.8966 39.649C27.3513 39.649 24.8487 39.1547 23.3035 37.939C22.8849 37.605 22.297 37.605 21.8785 37.939C20.3377 39.1547 17.8306 39.649 16.2853 39.649C14.7401 39.649 12.1974 39.1547 10.6566 37.939C10.4428 37.7697 10.1801 37.6807 9.90845 37.6896C9.87283 37.6896 9.8372 37.6896 9.80158 37.6896Z" fill="black"/>
</svg>
