<svg width="130" height="129" viewBox="0 0 130 129" fill="none" xmlns="http://www.w3.org/2000/svg">
<path d="M126.586 57.9941C125.814 57.4112 124.921 57.0094 123.972 56.8184C123.024 56.6273 122.044 56.652 121.107 56.8904C119.551 57.3249 117.947 57.5578 116.333 57.5835C105.719 57.5835 97.0825 48.9466 97.0633 38.7377C97.0954 38.5195 97.1659 37.865 97.1723 37.6469C97.2142 36.6437 97.0196 35.6448 96.6043 34.7307C96.189 33.8166 95.5645 33.013 94.7813 32.3847C93.9982 31.7564 93.0782 31.3211 92.0958 31.1138C91.1134 30.9066 90.0961 30.9333 89.1259 31.1917C87.5387 31.644 85.8993 31.8878 84.2492 31.9168C73.636 31.9168 64.9992 23.28 64.9992 12.6668C64.9992 11.2744 65.1981 9.81778 65.6344 8.07245C65.8814 7.07621 65.8859 6.03526 65.6473 5.03696C65.4088 4.03866 64.9342 3.11215 64.2635 2.3352C63.5928 1.55825 62.7455 0.953542 61.7927 0.571822C60.8399 0.190103 59.8095 0.0425171 58.7878 0.141452C42.8968 1.62255 28.1356 8.99817 17.4097 20.8166C6.68376 32.6351 0.770061 48.0403 0.832521 64.0001C0.832521 99.3816 29.6177 128.167 64.9992 128.167C100.381 128.167 129.166 99.3816 129.166 64.0001C129.166 63.6857 129.147 63.3777 129.121 62.9734C129.099 62.0064 128.86 61.0567 128.422 60.1947C127.983 59.3327 127.356 58.5806 126.586 57.9941ZM64.9992 115.333C36.6953 115.333 13.6659 92.304 13.6659 64.0001C13.6201 52.5995 17.3888 41.5111 24.3724 32.4997C31.356 23.4883 41.153 17.0716 52.2043 14.271C52.6252 22.489 56.1838 30.2322 62.1463 35.9033C68.1088 41.5745 76.0204 44.7412 84.2492 44.7501L84.8973 44.7437C86.3698 51.9192 90.25 58.376 95.8949 63.0441C101.54 67.7122 108.61 70.3112 115.935 70.4104C112.765 95.7049 91.1343 115.333 64.9992 115.333Z" fill="#A75B41"/>
</svg>
